<?xml version="1.0" encoding="utf-8"?>
<!-- Generator: Adobe Illustrator 27.5.0, SVG Export Plug-In . SVG Version: 6.00 Build 0)  -->
<svg version="1.1" xmlns="http://www.w3.org/2000/svg" xmlns:xlink="http://www.w3.org/1999/xlink" x="0px" y="0px"
	 viewBox="0 0 882.3 779" style="enable-background:new 0 0 882.3 779;" xml:space="preserve">
<style type="text/css">
	.st0{fill:#E6E6E6;}
	.st1{fill:#FFFFFF;}
	.st2{fill:#CCCCCC;}
	.st3{fill:#6C63FF;}
	.st4{fill:#3F3D56;}
	.st5{fill:#2F2E41;}
	.st6{fill:#FFB8B8;}
	.st7{fill:#575A89;}
	.st8{opacity:0.2;enable-background:new    ;}
	.st9{display:none;}
	.st10{display:inline;}
	.st11{fill:#407BFF;}
	.st12{opacity:0.9;}
	.st13{fill:#EBEBEB;}
	.st14{fill:#E0E0E0;}
	.st15{fill:#FAFAFA;}
	.st16{fill:#F0F0F0;}
	.st17{fill:#F5F5F5;}
	.st18{fill:#263238;}
	.st19{opacity:0.7;fill:#FFFFFF;enable-background:new    ;}
	.st20{opacity:0.4;fill:#FFFFFF;enable-background:new    ;}
	.st21{opacity:0.5;enable-background:new    ;}
	.st22{opacity:0.1;fill:#FFFFFF;enable-background:new    ;}
	.st23{opacity:0.1;enable-background:new    ;}
	.st24{opacity:0.2;}
	.st25{opacity:0.1;}
	.st26{opacity:0.1;fill:#407BFF;enable-background:new    ;}
	.st27{opacity:0.4;enable-background:new    ;}
	.st28{opacity:0.8;fill:#FFFFFF;enable-background:new    ;}
	.st29{fill:#FAB27B;}
	.st30{opacity:0.3;enable-background:new    ;}
	.st31{opacity:0.5;fill:#FFFFFF;enable-background:new    ;}
	.st32{fill:#ED893E;}
</style>
<g id="ea61258a-e793-48f7-8624-3c5ca462ffd9">
	<path class="st0" d="M342.4,20.1l3.5-5.4c-1-2.8-2.2-5.6-3.6-8.3L340,8.2l1.8-2.7c-1.7-3.3-3-5.4-3-5.4s-7,11-9.3,22.6l4.5,6.9
		l-4.9-4c-0.2,1.4-0.3,2.7-0.3,4.1c0,13.7,4.5,24.9,10,24.9s10-11.1,10-24.9c-0.1-4.4-0.9-8.7-2.3-12.8L342.4,20.1z"/>
	<path class="st0" d="M366.9,32l6.2-1.3c1.3-2.7,2.4-5.5,3.4-8.4l-2.9-0.3l3.2-0.7c1.2-3.6,1.7-6,1.7-6s-12.7,2.8-22.5,9.4l-1.7,8
		l-0.7-6.3c-1.1,0.8-2.1,1.7-3.1,2.7c-9.7,9.7-14.4,20.8-10.5,24.7s15-0.8,24.7-10.5c3-3.2,5.5-6.8,7.5-10.7L366.9,32z"/>
	<path class="st0" d="M369.2,85.2c-14.5,0.9-30.3-0.1-47,0V46.8c14.8,2.3,30.6,2.1,47,0V85.2z"/>
	<path class="st0" d="M472.8,115.2l2.3-3.5c-0.7-1.9-1.4-3.7-2.3-5.4l-1.5,1.2l1.2-1.8c-1.1-2.2-2-3.5-2-3.5
		c-2.8,4.6-4.8,9.5-6.1,14.7l2.9,4.5l-3.2-2.6c-0.1,0.9-0.2,1.8-0.2,2.7c0,9,2.9,16.2,6.5,16.2s6.5-7.3,6.5-16.2
		c-0.1-2.9-0.6-5.7-1.5-8.4L472.8,115.2z"/>
	<path class="st0" d="M488.8,122.9l4.1-0.9c0.8-1.8,1.6-3.6,2.2-5.5l-1.9-0.2l2.1-0.4c0.8-2.3,1.1-3.9,1.1-3.9
		c-5.2,1.2-10.2,3.3-14.7,6.1l-1.1,5.2l-0.4-4.1c-0.7,0.5-1.4,1.1-2,1.8c-6.3,6.3-9.4,13.6-6.9,16.1s9.8-0.5,16.1-6.9
		c2-2.1,3.6-4.4,4.9-7L488.8,122.9z"/>
	<path class="st0" d="M490.3,157.6c-9.4,0.6-19.7,0-30.7,0v-25.1c10.2,1.4,20.5,1.4,30.7,0V157.6z"/>
	<path class="st0" d="M484.5,231.9c-8.3,0.5-17.4,0-27.1,0v-22.1c9,1.3,18.1,1.3,27.1,0V231.9z"/>
	<rect x="167.5" y="82.5" class="st0" width="364.5" height="10.2"/>
	<rect x="167.5" y="154.8" class="st0" width="364.5" height="10.2"/>
	<rect x="167.5" y="227.1" class="st0" width="364.5" height="10.2"/>
	<circle class="st0" cx="471" cy="197.5" r="20.4"/>
	<circle class="st1" cx="471" cy="197.5" r="16.3"/>
	<circle class="st0" cx="471" cy="197.5" r="4.1"/>
	<rect x="468.9" y="196.5" class="st0" width="16.3" height="2"/>
	<rect x="469.9" y="183.3" class="st0" width="2" height="16.3"/>
	<rect x="339.7" y="105.1" class="st0" width="13.5" height="53.3"/>
	<rect x="339.7" y="113.5" class="st2" width="13.5" height="6.2"/>
	<rect x="339.7" y="140.5" class="st2" width="13.5" height="6.2"/>
	<rect x="319" y="105.1" class="st0" width="13.5" height="53.3"/>
	<rect x="319" y="113.5" class="st2" width="13.5" height="6.2"/>
	<rect x="319" y="140.5" class="st2" width="13.5" height="6.2"/>
	
		<rect x="363.9" y="105.1" transform="matrix(0.8962 -0.4437 0.4437 0.8962 -19.9904 178.1151)" class="st0" width="13.5" height="53.3"/>
	
		<rect x="357.1" y="115.1" transform="matrix(0.8962 -0.4437 0.4437 0.8962 -14.6609 173.7203)" class="st2" width="13.5" height="6.2"/>
	
		<rect x="369.1" y="139.3" transform="matrix(0.8962 -0.4437 0.4437 0.8962 -24.1356 181.5332)" class="st2" width="13.5" height="6.2"/>
	<rect x="219.6" y="177.4" class="st0" width="13.5" height="53.3"/>
	<rect x="219.6" y="185.8" class="st2" width="13.5" height="6.2"/>
	<rect x="219.6" y="212.8" class="st2" width="13.5" height="6.2"/>
	<rect x="198.8" y="177.4" class="st0" width="13.5" height="53.3"/>
	<rect x="198.8" y="185.8" class="st2" width="13.5" height="6.2"/>
	<rect x="198.8" y="212.8" class="st2" width="13.5" height="6.2"/>
	
		<rect x="243.7" y="177.4" transform="matrix(0.8962 -0.4437 0.4437 0.8962 -64.5434 132.3081)" class="st0" width="13.5" height="53.3"/>
	
		<rect x="237" y="187.4" transform="matrix(0.8962 -0.4437 0.4437 0.8962 -59.2139 127.9134)" class="st2" width="13.5" height="6.2"/>
	
		<rect x="248.9" y="211.6" transform="matrix(0.8962 -0.4437 0.4437 0.8962 -68.6885 135.7263)" class="st2" width="13.5" height="6.2"/>
	<rect x="345.8" y="177.4" class="st0" width="13.5" height="53.3"/>
	<rect x="345.8" y="185.8" class="st2" width="13.5" height="6.2"/>
	<rect x="345.8" y="212.8" class="st2" width="13.5" height="6.2"/>
	<rect x="325.1" y="177.4" class="st0" width="13.5" height="53.3"/>
	<rect x="325.1" y="185.8" class="st2" width="13.5" height="6.2"/>
	<rect x="325.1" y="212.8" class="st2" width="13.5" height="6.2"/>
	
		<rect x="370" y="177.4" transform="matrix(0.8962 -0.4437 0.4437 0.8962 -51.4343 188.3319)" class="st0" width="13.5" height="53.3"/>
	
		<rect x="363.3" y="187.4" transform="matrix(0.8962 -0.4437 0.4437 0.8962 -46.1048 183.9371)" class="st2" width="13.5" height="6.2"/>
	
		<rect x="375.2" y="211.6" transform="matrix(0.8962 -0.4437 0.4437 0.8962 -55.5794 191.7501)" class="st2" width="13.5" height="6.2"/>
	<rect x="450" y="32.6" class="st0" width="53.6" height="53.6"/>
	<rect x="460.7" y="43.4" class="st2" width="32.1" height="32.1"/>
	<polygon class="st0" points="470,54.1 476.8,65.9 483.6,77.7 470,77.7 456.4,77.7 463.2,65.9 	"/>
	<polygon class="st0" points="481.8,56.4 488.7,68.2 495.5,80 481.8,80 468.2,80 475,68.2 	"/>
	<circle class="st0" cx="486.6" cy="49" r="3.9"/>
	<rect x="179.1" y="32.6" class="st0" width="53.6" height="53.6"/>
	<rect x="189.8" y="43.4" class="st2" width="32.1" height="32.1"/>
	<polygon class="st0" points="199.1,54.1 205.9,65.9 212.8,77.7 199.1,77.7 185.5,77.7 192.3,65.9 	"/>
	<polygon class="st0" points="211,56.4 217.8,68.2 224.6,80 211,80 197.3,80 204.2,68.2 	"/>
	<circle class="st0" cx="215.8" cy="49" r="3.9"/>
	<path class="st3" d="M71.5,397.8l3.5-5.4c-1-2.8-2.2-5.6-3.6-8.3l-2.2,1.8l1.8-2.7c-1.7-3.3-3-5.4-3-5.4s-7,11-9.3,22.6l4.5,6.9
		l-4.9-4c-0.2,1.4-0.3,2.7-0.3,4.1c0,13.7,4.5,24.9,10,24.9s10-11.1,10-24.9c-0.1-4.4-0.9-8.7-2.3-12.8L71.5,397.8z"/>
	<path class="st3" d="M96.1,409.8l6.2-1.3c1.3-2.7,2.4-5.5,3.4-8.4l-2.9-0.3l3.2-0.7c1.2-3.6,1.7-6,1.7-6s-12.7,2.8-22.5,9.4l-1.7,8
		l-0.7-6.3c-1.1,0.8-2.1,1.7-3.1,2.7c-9.7,9.7-14.4,20.8-10.5,24.7s15-0.8,24.7-10.5c3-3.2,5.5-6.8,7.5-10.7L96.1,409.8z"/>
	<path class="st4" d="M98.3,463c-14.5,0.9-30.3-0.1-47,0v-38.4c14.8,2.3,30.6,2.1,47,0V463z"/>
	<rect x="501" y="475" class="st0" width="195.5" height="253.6"/>
	<rect x="92.7" y="488.3" class="st0" width="10.2" height="240.3"/>
	<rect y="457.7" class="st0" width="696.5" height="20.4"/>
	<rect x="87.6" y="478.1" class="st0" width="20.4" height="20.4"/>
	<polygon class="st4" points="614.2,489.8 613,494.4 584.5,494.4 582.8,489.8 510.2,489.8 510.2,536.6 687.3,536.6 687.3,489.8 	"/>
	<polygon class="st4" points="614.2,548.9 613,553.4 584.5,553.4 582.8,548.9 510.2,548.9 510.2,595.7 687.3,595.7 687.3,548.9 	"/>
	<polygon class="st4" points="614.2,607.9 613,612.5 584.5,612.5 582.8,607.9 510.2,607.9 510.2,654.8 687.3,654.8 687.3,607.9 	"/>
	<polygon class="st4" points="614.2,667 613,671.6 584.5,671.6 582.8,667 510.2,667 510.2,713.8 687.3,713.8 687.3,667 	"/>
	<polygon class="st0" points="377.8,454.7 317.7,454.7 319.7,428.2 375.7,428.2 	"/>
	<rect x="314.7" y="451.6" class="st0" width="67.2" height="6.1"/>
	<path class="st4" d="M462.8,257.6H233.2c-3.4,0-6.1,2.7-6.1,6.1v0v140h241.8v-140C468.9,260.4,466.2,257.6,462.8,257.6L462.8,257.6
		z"/>
	<path class="st0" d="M227.1,403.8v22.9c0,3.4,2.7,6.1,6.1,6.1h0h229.6c3.4,0,6.1-2.7,6.1-6.1v0v-22.9H227.1z"/>
	<rect x="239.3" y="270.4" class="st1" width="217.9" height="122.2"/>
	<circle class="st4" cx="348.3" cy="418" r="6.1"/>
	<path class="st4" d="M865,727.1c-22.3,1.4-46.5-0.1-72.3,0V668c22.7,3.5,47,3.2,72.3,0V727.1z"/>
	<polygon class="st4" points="831.4,673.3 825.3,673.3 827.4,553.9 829.4,553.9 	"/>
	<polygon class="st4" points="858.9,674.1 852.8,674.1 854.9,554.8 856.9,554.8 	"/>
	<polygon class="st4" points="807,674.1 800.9,674.1 802.9,554.8 805,554.8 	"/>
	<path class="st0" d="M836.5,477.6l9.9-15.2c-2.9-8.1-6.3-16-10.1-23.7l-6.4,5.2l5-7.8c-4.8-9.5-8.6-15.4-8.6-15.4
		s-19.8,31.2-26.4,64.2l12.7,19.6l-14-11.3c-0.5,3.8-0.8,7.7-0.8,11.6c0,39.1,12.8,70.8,28.5,70.8s28.5-31.7,28.5-70.8
		c0-12.1-2.7-24.8-6.5-36.5L836.5,477.6z"/>
	<path class="st3" d="M864,479.6l9.9-15.2c-2.9-8.1-6.3-16-10.1-23.7l-6.4,5.2l5-7.8c-4.8-9.5-8.6-15.4-8.6-15.4
		s-19.8,31.2-26.4,64.2l12.7,19.6l-14-11.3c-0.5,3.8-0.8,7.7-0.8,11.6c0,39.1,12.8,70.8,28.5,70.8s28.5-31.7,28.5-70.8
		c0-12.1-2.7-24.8-6.5-36.5L864,479.6z"/>
	<path class="st3" d="M812.1,479.6l9.9-15.2c-2.9-8.1-6.3-16-10.1-23.7l-6.4,5.2l5-7.8c-4.8-9.5-8.6-15.4-8.6-15.4
		s-19.8,31.2-26.4,64.2l12.7,19.6l-14-11.3c-0.5,3.8-0.8,7.7-0.8,11.6c0,39.1,12.8,70.8,28.5,70.8s28.5-31.7,28.5-70.8
		c0-12.1-2.7-24.8-6.5-36.5L812.1,479.6z"/>
	<rect x="310" y="304.8" class="st4" width="58.8" height="3.4"/>
	<rect x="310" y="317.2" class="st3" width="90.7" height="3.4"/>
	<rect x="310" y="328.7" class="st3" width="73.9" height="3.4"/>
	<rect x="310" y="340.3" class="st4" width="43.2" height="3.4"/>
	<rect x="310" y="351.8" class="st4" width="65.2" height="3.4"/>
	<rect x="283.2" y="303.6" class="st4" width="7.2" height="7.2"/>
	<rect x="283.2" y="315.2" class="st3" width="7.2" height="7.2"/>
	<rect x="283.2" y="326.8" class="st3" width="7.2" height="7.2"/>
	<rect x="283.2" y="338.4" class="st4" width="7.2" height="7.2"/>
	<rect x="283.2" y="350" class="st4" width="7.2" height="7.2"/>
	<path class="st3" d="M447.1,298.5h-30.8c-2.1-12.2-2.1-24.6,0-36.8h30.8C443.6,273.7,443.4,286.5,447.1,298.5z"/>
	<path class="st5" d="M222.8,372.1l-12.7-3.1c-18,0-32.7-14.6-32.7-32.6c0-2.2,0.2-4.4,0.6-6.5l0,0c0-23.6,19.1-42.7,42.6-42.7h0
		c23.6,0,42.7,19.1,42.7,42.6v0C270.6,354.8,248.1,378.3,222.8,372.1z"/>
	<circle class="st6" cx="236.6" cy="345.2" r="31.4"/>
	<path class="st6" d="M216.2,361.6c0,0-9.5,32.7-15,35.5s43.6,6.8,43.6,6.8s-1.4-31.4,1.4-34.1S216.2,361.6,216.2,361.6z"/>
	<path class="st5" d="M265.3,563.4c0,0,61.4-5.5,69.5,15s-5.5,141.8-5.5,141.8h-25.9v-99.5c0,0-110.5-31.4-110.5-42.3
		S265.3,563.4,265.3,563.4z"/>
	<path class="st5" d="M325.3,714.8l13.6,5.5c0,0,16.4-1.4,9.5,10.9c-4,7.2-11,12.2-19.1,13.6c0,0-25.9,9.5-27.3,0s6.8-28.6,6.8-28.6
		L325.3,714.8z"/>
	<path class="st5" d="M231.2,563.4c0,0,61.4-5.5,69.5,15s-5.5,141.8-5.5,141.8h-25.9v-99.5c0,0-78.4-18.2-78.4-29.1
		c0-5.1-5.3-31.2,4.1-36.7C205.6,548.8,231.2,563.4,231.2,563.4z"/>
	<path class="st5" d="M291.2,714.8l13.6,5.5c0,0,16.4-1.4,9.5,10.9c-4,7.2-11,12.2-19.1,13.6c0,0-25.9,9.5-27.3,0s6.8-28.6,6.8-28.6
		L291.2,714.8z"/>
	<path class="st7" d="M202.5,393l41,4.5c13,1.4,23.6,11,26.3,23.8l15.9,75.4c0,0,5.5,75-5.5,79.1s-25.9-16.4-46.4-13.6
		s-47,8.9-47,8.9s-4.2-134.2-4.8-145.2C181,403.7,202.5,393,202.5,393z"/>
	<path class="st6" d="M299.6,567.3l16.8,9.9c0,0,30.2-4.3,29.2,6.3s-33.9,8.6-33.9,8.6l-20.3-12.5L299.6,567.3z"/>
	<circle class="st5" cx="175.7" cy="299.5" r="20.3"/>
	<path class="st5" d="M194.4,288.6c0-11.2-9.1-20.2-20.3-20.2c-1.3,0-2.7,0.1-4,0.4c10.1-4.8,22.2-0.5,27,9.7
		c4.8,10.1,0.5,22.2-9.7,27c-1.5,0.7-3.1,1.2-4.7,1.5C189.9,303.6,194.4,296.4,194.4,288.6z"/>
	<path class="st5" d="M211.8,300.1l27.3-5l21,13.2c10.5,6.6,16.3,18.8,14.7,31.1l-21-5.3l-4.7-11.8l-5.6,9.2l-29.3,37.8l-16.5-10.5
		l-14.7-23L211.8,300.1z"/>
	<path class="st7" d="M234.3,404.6l13.6-6.8c0,0,28.6,4.1,34.1,23.2s30,151.4,30,151.4l-23.2,10.9l-32.7-80.5L234.3,404.6z"/>
	<polygon class="st8" points="245.9,458.2 259.6,511.2 283.8,570.7 282.9,572.8 254.1,512.2 	"/>
	<polygon class="st4" points="144.1,750.4 139.3,748.7 185.9,610.2 192.6,612.6 	"/>
	<polygon class="st4" points="322.3,750.4 327.1,748.7 280.5,610.2 273.7,612.6 	"/>
	<polygon class="st4" points="223.8,779 228.9,779 230.4,617.1 223.3,617.1 	"/>
	<path class="st3" d="M132.3,528.9l14,56.4c4,16.1,16.5,28.7,32.6,32.7h0c38.9,9.7,79.7,9.5,118.5-0.8l20.9-5.5
		c12.1-3.2,21.2-13.6,22.1-26.1c0.3-4.4-0.5-8.9-2.3-12.9c-0.1-0.2-0.2-0.3-0.2-0.5c-5.5-11.4-16.9-18.8-29.6-19.1l-22.1-0.7
		l-80.4-35.6c0,0-27.7-14.1-50.4-15.6C140.3,500.1,128.7,514.2,132.3,528.9z"/>
	<rect x="543.3" y="351.3" class="st0" width="79.4" height="107.9"/>
	<rect x="552.4" y="363.8" class="st1" width="61.1" height="83"/>
	<rect x="576.5" y="385.5" class="st4" width="29.6" height="3.4"/>
	<rect x="559.9" y="383.6" class="st4" width="7.2" height="7.2"/>
	<rect x="576.5" y="399.7" class="st4" width="29.6" height="3.4"/>
	<rect x="559.9" y="397.9" class="st4" width="7.2" height="7.2"/>
	<rect x="576.5" y="414" class="st4" width="29.6" height="3.4"/>
	<rect x="559.9" y="412.1" class="st4" width="7.2" height="7.2"/>
	<path class="st4" d="M583,354.4L583,354.4c1.7,0,3.1,1.4,3.1,3.1l0,0c0,1.7-1.4,3.1-3.1,3.1l0,0c-1.7,0-3.1-1.4-3.1-3.1l0,0
		C579.9,355.7,581.3,354.4,583,354.4z"/>
</g>
<g id="Layer_2" class="st9">
	<g id="Background_Simple">
		<g class="st10">
			<g>
				<path class="st11" d="M230,211.6c-40.3,13.9-72.9,46.7-89.8,85.8c-16.9,39.2-18.5,84.1-7.7,125.3c9,34.4,27.8,68,58.8,85.4
					c30.5,17.1,67.7,16,102.5,12.4c34.8-3.6,70.6-9.3,104.3,0.1c51.6,14.4,88.3,61.3,138.3,80.6c48.8,18.8,106.8,8,148.4-23.9
					c41.5-31.9,66.6-82.8,71.2-135c4.6-52.1-10.4-105.1-37.7-149.7c-29.3-48.1-74.4-88.9-129-102.6C354.2,131.2,230,211.6,230,211.6
					z"/>
			</g>
			<g class="st12">
				<path class="st1" d="M230,211.6c-40.3,13.9-72.9,46.7-89.8,85.8c-16.9,39.2-18.5,84.1-7.7,125.3c9,34.4,27.8,68,58.8,85.4
					c30.5,17.1,67.7,16,102.5,12.4c34.8-3.6,70.6-9.3,104.3,0.1c51.6,14.4,88.3,61.3,138.3,80.6c48.8,18.8,106.8,8,148.4-23.9
					c41.5-31.9,66.6-82.8,71.2-135c4.6-52.1-10.4-105.1-37.7-149.7c-29.3-48.1-74.4-88.9-129-102.6C354.2,131.2,230,211.6,230,211.6
					z"/>
			</g>
		</g>
	</g>
	<g class="st10">
		<g id="Background_Complete">
			<g>
				<rect x="735.5" y="670.4" class="st13" width="58.5" height="0.4"/>
				<rect x="569.2" y="675.2" class="st13" width="15.3" height="0.4"/>
				<rect x="699.9" y="654" class="st13" width="33.9" height="0.4"/>
				<rect x="92.6" y="656.9" class="st13" width="76.2" height="0.4"/>
				<rect x="184.5" y="656.9" class="st13" width="11.2" height="0.4"/>
				<rect x="232" y="664.4" class="st13" width="165.3" height="0.4"/>
				<path class="st13" d="M418.3,563.3H77.5c-5.6,0-10.1-4.5-10.1-10.1v-479c0-5.6,4.5-10.1,10.1-10.1h340.8
					c5.6,0,10.1,4.5,10.1,10.1v479C428.3,558.7,423.8,563.3,418.3,563.3z M77.5,64.6c-5.3,0-9.6,4.3-9.6,9.6v479
					c0,5.3,4.3,9.6,9.6,9.6h340.8c5.3,0,9.6-4.3,9.6-9.6v-479c0-5.3-4.3-9.6-9.6-9.6L77.5,64.6L77.5,64.6z"/>
				<path class="st13" d="M800,563.3H459.2c-5.6,0-10.1-4.5-10.1-10.1v-479c0-5.6,4.5-10.1,10.1-10.1H800c5.6,0,10.1,4.5,10.1,10.1
					v479C810,558.7,805.5,563.3,800,563.3z M459.2,64.6c-5.3,0-9.6,4.3-9.6,9.6v479c0,5.3,4.3,9.6,9.6,9.6H800
					c5.3,0,9.6-4.3,9.6-9.6v-479c0-5.3-4.3-9.6-9.6-9.6L459.2,64.6L459.2,64.6z"/>
				<rect y="642" class="st13" width="882.3" height="0.4"/>
			</g>
			<g>
				<g>
					<rect x="138.2" y="185.3" class="st14" width="2.9" height="227.1"/>
					<rect x="319.5" y="185.3" class="st14" width="2.9" height="227.1"/>
				</g>
				<polygon class="st13" points="333.8,199.6 126.8,199.6 122.4,189.4 338.2,189.4 				"/>
				<polygon class="st13" points="333.8,213.6 126.8,213.6 122.4,203.4 338.2,203.4 				"/>
				<polygon class="st13" points="333.8,227.6 126.8,227.6 122.4,217.4 338.2,217.4 				"/>
				<polygon class="st13" points="333.8,241.6 126.8,241.6 122.4,231.4 338.2,231.4 				"/>
				<polygon class="st13" points="333.8,255.6 126.8,255.6 122.4,245.4 338.2,245.4 				"/>
				<polygon class="st13" points="333.8,269.6 126.8,269.6 122.4,259.4 338.2,259.4 				"/>
				<polygon class="st13" points="333.8,283.6 126.8,283.6 122.4,273.4 338.2,273.4 				"/>
				<polygon class="st13" points="333.8,297.5 126.8,297.5 122.4,287.4 338.2,287.4 				"/>
				<polygon class="st13" points="333.8,311.5 126.8,311.5 122.4,301.3 338.2,301.3 				"/>
				<polygon class="st13" points="333.8,325.5 126.8,325.5 122.4,315.3 338.2,315.3 				"/>
				<polygon class="st13" points="333.8,339.5 126.8,339.5 122.4,329.3 338.2,329.3 				"/>
				<polygon class="st13" points="333.8,353.5 126.8,353.5 122.4,343.3 338.2,343.3 				"/>
				<polygon class="st13" points="333.8,367.5 126.8,367.5 122.4,357.3 338.2,357.3 				"/>
				<polygon class="st13" points="333.8,381.5 126.8,381.5 122.4,371.3 338.2,371.3 				"/>
				<polygon class="st13" points="333.8,395.5 126.8,395.5 122.4,385.3 338.2,385.3 				"/>
				<polygon class="st13" points="333.8,409.5 126.8,409.5 122.4,399.3 338.2,399.3 				"/>
				<rect x="122.4" y="409.5" class="st14" width="215.8" height="5.8"/>
				<rect x="114.9" y="176.6" class="st14" width="230.8" height="13.6"/>
				<path class="st14" d="M117.3,313.4L117.3,313.4c-1.3,0-2.3-1.1-2.3-2.3v-79.3c0-1.3,1.1-2.3,2.3-2.3l0,0c1.3,0,2.3,1.1,2.3,2.3
					v79.3C119.6,312.4,118.6,313.4,117.3,313.4z"/>
				<rect x="116.4" y="187.5" class="st14" width="1.7" height="47.1"/>
			</g>
			<g>
				<g>
					<rect x="563.9" y="185.3" class="st14" width="2.9" height="227.1"/>
					<rect x="745.2" y="185.3" class="st14" width="2.9" height="227.1"/>
				</g>
				<polygon class="st13" points="759.5,199.6 552.5,199.6 548.1,189.4 763.9,189.4 				"/>
				<polygon class="st13" points="759.5,213.6 552.5,213.6 548.1,203.4 763.9,203.4 				"/>
				<polygon class="st13" points="759.5,227.6 552.5,227.6 548.1,217.4 763.9,217.4 				"/>
				<polygon class="st13" points="759.5,241.6 552.5,241.6 548.1,231.4 763.9,231.4 				"/>
				<polygon class="st13" points="759.5,255.6 552.5,255.6 548.1,245.4 763.9,245.4 				"/>
				<polygon class="st13" points="759.5,269.6 552.5,269.6 548.1,259.4 763.9,259.4 				"/>
				<polygon class="st13" points="759.5,283.6 552.5,283.6 548.1,273.4 763.9,273.4 				"/>
				<polygon class="st13" points="759.5,297.5 552.5,297.5 548.1,287.4 763.9,287.4 				"/>
				<polygon class="st13" points="759.5,311.5 552.5,311.5 548.1,301.3 763.9,301.3 				"/>
				<polygon class="st13" points="759.5,325.5 552.5,325.5 548.1,315.3 763.9,315.3 				"/>
				<polygon class="st13" points="759.5,339.5 552.5,339.5 548.1,329.3 763.9,329.3 				"/>
				<polygon class="st13" points="759.5,353.5 552.5,353.5 548.1,343.3 763.9,343.3 				"/>
				<polygon class="st13" points="759.5,367.5 552.5,367.5 548.1,357.3 763.9,357.3 				"/>
				<polygon class="st13" points="759.5,381.5 552.5,381.5 548.1,371.3 763.9,371.3 				"/>
				<polygon class="st13" points="759.5,395.5 552.5,395.5 548.1,385.3 763.9,385.3 				"/>
				<polygon class="st13" points="759.5,409.5 552.5,409.5 548.1,399.3 763.9,399.3 				"/>
				<rect x="548.1" y="409.5" class="st14" width="215.8" height="5.8"/>
				<rect x="540.6" y="176.6" class="st14" width="230.8" height="13.6"/>
				<path class="st14" d="M543,313.4L543,313.4c-1.3,0-2.3-1.1-2.3-2.3v-79.3c0-1.3,1.1-2.3,2.3-2.3l0,0c1.3,0,2.3,1.1,2.3,2.3v79.3
					C545.3,312.4,544.3,313.4,543,313.4z"/>
				<rect x="542.1" y="187.5" class="st14" width="1.7" height="47.1"/>
			</g>
			<g>
				<rect x="194.7" y="152.6" class="st14" width="492.9" height="278.8"/>
				<path class="st13" d="M690.2,438.3h-498c-1.6,0-2.9-1.3-2.9-2.9v-5.9c0-1.6,1.3-2.9,2.9-2.9h498c1.6,0,2.9,1.3,2.9,2.9v5.9
					C693.1,437,691.8,438.3,690.2,438.3z"/>
				<rect x="206" y="161.1" class="st15" width="470.3" height="268.1"/>
				<path class="st0" d="M467.1,479.1c-7.7-8.5-15.5-17.1-23.2-25.6c0-5.1,0-10.2,0-15.3c0-3.7-5.3-3.8-5.3,0c0,5.1,0,10.2,0,15.3
					c-7.7,8.5-15.5,17.1-23.2,25.6c-2.4,2.7,1.3,6.8,3.7,4.1c6.5-7.2,13-14.3,19.5-21.5c0,6.4,0,12.8,0,19.2c0,3.7,5.3,3.8,5.3,0
					c0-6.4,0-12.8,0-19.2c6.5,7.2,13,14.3,19.5,21.5C465.7,485.9,469.5,481.8,467.1,479.1z"/>
				<path class="st16" d="M698.8,165.4H183.5c-4,0-7.3-3.3-7.3-7.3v-11c0-4,3.3-7.3,7.3-7.3h515.3c4,0,7.3,3.3,7.3,7.3v11
					C706.1,162.2,702.8,165.4,698.8,165.4z"/>
			</g>
			<g>
				<g>
					<rect x="121.4" y="485" class="st13" width="208.3" height="71.9"/>
					<rect x="121.4" y="556.9" class="st13" width="208.3" height="71.9"/>
					<g>
						<polygon class="st16" points="200.6,556.9 226.5,485 186.6,485 160.7,556.9 						"/>
						<polygon class="st16" points="245.8,485 237,485 211.1,556.9 219.9,556.9 						"/>
					</g>
					<g>
						<polygon class="st16" points="174.6,628.8 200.6,556.9 160.7,556.9 134.8,628.8 						"/>
						<polygon class="st16" points="219.9,556.9 211.1,556.9 185.2,628.8 194,628.8 						"/>
					</g>
					<rect x="121.4" y="488.8" class="st14" width="208.3" height="7.3"/>
					<rect x="121.4" y="560.1" class="st14" width="208.3" height="7.3"/>
					<g>
						<path class="st14" d="M230.9,530.2c1.7,0,3.1-1.4,3.1-3.1c0-1.7-1.4-3.1-3.1-3.1c-0.9,0-9.8,0-10.7,0c-1.7,0-3.1,1.4-3.1,3.1
							c0,1.7,1.4,3.1,3.1,3.1C221.2,530.2,230,530.2,230.9,530.2z"/>
						<path class="st17" d="M230.9,529.1c1.7,0,3.1-1.4,3.1-3.1c0-1.7-1.4-3.1-3.1-3.1c-0.9,0-9.8,0-10.7,0c-1.7,0-3.1,1.4-3.1,3.1
							c0,1.7,1.4,3.1,3.1,3.1C221.2,529.1,230,529.1,230.9,529.1z"/>
					</g>
					<g>
						<path class="st14" d="M230.9,596.6c1.7,0,3.1-1.4,3.1-3.1s-1.4-3.1-3.1-3.1c-0.9,0-9.8,0-10.7,0c-1.7,0-3.1,1.4-3.1,3.1
							s1.4,3.1,3.1,3.1C221.2,596.6,230,596.6,230.9,596.6z"/>
						<path class="st17" d="M230.9,595.5c1.7,0,3.1-1.4,3.1-3.1c0-1.7-1.4-3.1-3.1-3.1c-0.9,0-9.8,0-10.7,0c-1.7,0-3.1,1.4-3.1,3.1
							c0,1.7,1.4,3.1,3.1,3.1C221.2,595.5,230,595.5,230.9,595.5z"/>
					</g>
					<path class="st17" d="M117.8,481.8V632h3.6h3.6h201.1h3.6h3.6V481.8H117.8z M326.1,624.7H125v-64h201.1V624.7z M326.1,553.4
						H125v-64h201.1V553.4z"/>
					<g>
						<rect x="337" y="485" class="st13" width="208.3" height="71.9"/>
						<rect x="337" y="556.9" class="st13" width="208.3" height="71.9"/>
						<g>
							<polygon class="st16" points="498.5,556.9 524.5,485 484.6,485 458.6,556.9 							"/>
							<polygon class="st16" points="543.8,485 535,485 509.1,556.9 517.8,556.9 							"/>
						</g>
						<g>
							<polygon class="st16" points="472.6,628.8 498.5,556.9 458.6,556.9 432.7,628.8 							"/>
							<polygon class="st16" points="517.8,556.9 509.1,556.9 483.2,628.8 491.9,628.8 							"/>
						</g>
						<rect x="337" y="488.8" class="st14" width="208.3" height="7.3"/>
						<rect x="337" y="560.1" class="st14" width="208.3" height="7.3"/>
						<g>
							<path class="st14" d="M446.5,530.2c1.7,0,3.1-1.4,3.1-3.1c0-1.7-1.4-3.1-3.1-3.1c-0.9,0-9.8,0-10.7,0c-1.7,0-3.1,1.4-3.1,3.1
								c0,1.7,1.4,3.1,3.1,3.1C436.8,530.2,445.6,530.2,446.5,530.2z"/>
							<path class="st17" d="M446.5,529.1c1.7,0,3.1-1.4,3.1-3.1c0-1.7-1.4-3.1-3.1-3.1c-0.9,0-9.8,0-10.7,0c-1.7,0-3.1,1.4-3.1,3.1
								c0,1.7,1.4,3.1,3.1,3.1C436.8,529.1,445.6,529.1,446.5,529.1z"/>
						</g>
						<g>
							<path class="st14" d="M446.5,596.6c1.7,0,3.1-1.4,3.1-3.1s-1.4-3.1-3.1-3.1c-0.9,0-9.8,0-10.7,0c-1.7,0-3.1,1.4-3.1,3.1
								s1.4,3.1,3.1,3.1C436.8,596.6,445.6,596.6,446.5,596.6z"/>
							<path class="st17" d="M446.5,595.5c1.7,0,3.1-1.4,3.1-3.1c0-1.7-1.4-3.1-3.1-3.1c-0.9,0-9.8,0-10.7,0c-1.7,0-3.1,1.4-3.1,3.1
								c0,1.7,1.4,3.1,3.1,3.1C436.8,595.5,445.6,595.5,446.5,595.5z"/>
						</g>
						<path class="st17" d="M333.4,481.8V632h3.6h3.6h201.1h3.6h3.6V481.8H333.4z M541.7,624.7H340.6v-64h201.1V624.7z M541.7,553.4
							H340.6v-64h201.1V553.4z"/>
					</g>
					<g>
						<rect x="552.6" y="485" class="st13" width="208.3" height="71.9"/>
						<rect x="552.6" y="556.9" class="st13" width="208.3" height="71.9"/>
						<g>
							<polygon class="st16" points="684.5,556.9 710.5,485 670.6,485 644.6,556.9 							"/>
							<polygon class="st16" points="729.8,485 721,485 695.1,556.9 703.8,556.9 							"/>
						</g>
						<g>
							<polygon class="st16" points="658.6,628.8 684.5,556.9 644.6,556.9 618.7,628.8 							"/>
							<polygon class="st16" points="703.8,556.9 695.1,556.9 669.2,628.8 677.9,628.8 							"/>
						</g>
						<rect x="552.6" y="488.8" class="st14" width="208.3" height="7.3"/>
						<rect x="552.6" y="560.1" class="st14" width="208.3" height="7.3"/>
						<g>
							<path class="st14" d="M662.1,530.2c1.7,0,3.1-1.4,3.1-3.1c0-1.7-1.4-3.1-3.1-3.1c-0.9,0-9.8,0-10.7,0c-1.7,0-3.1,1.4-3.1,3.1
								c0,1.7,1.4,3.1,3.1,3.1C652.4,530.2,661.2,530.2,662.1,530.2z"/>
							<path class="st17" d="M662.1,529.1c1.7,0,3.1-1.4,3.1-3.1c0-1.7-1.4-3.1-3.1-3.1c-0.9,0-9.8,0-10.7,0c-1.7,0-3.1,1.4-3.1,3.1
								c0,1.7,1.4,3.1,3.1,3.1C652.4,529.1,661.2,529.1,662.1,529.1z"/>
						</g>
						<g>
							<path class="st14" d="M662.1,596.6c1.7,0,3.1-1.4,3.1-3.1s-1.4-3.1-3.1-3.1c-0.9,0-9.8,0-10.7,0c-1.7,0-3.1,1.4-3.1,3.1
								s1.4,3.1,3.1,3.1C652.4,596.6,661.2,596.6,662.1,596.6z"/>
							<path class="st17" d="M662.1,595.5c1.7,0,3.1-1.4,3.1-3.1c0-1.7-1.4-3.1-3.1-3.1c-0.9,0-9.8,0-10.7,0c-1.7,0-3.1,1.4-3.1,3.1
								c0,1.7,1.4,3.1,3.1,3.1C652.4,595.5,661.2,595.5,662.1,595.5z"/>
						</g>
						<path class="st17" d="M549,481.8V632h3.6h3.6h201.1h3.6h3.6V481.8H549z M757.3,624.7H556.3v-64h201.1V624.7z M757.3,553.4
							H556.3v-64h201.1V553.4z"/>
					</g>
				</g>
				<polygon class="st14" points="743.7,642.8 138.6,642.8 135.5,632 746.9,632 				"/>
			</g>
		</g>
		<g id="Shadow">
			<ellipse id="_x3C_Path_x3E__1_" class="st17" cx="441.2" cy="694.9" rx="342.2" ry="20"/>
		</g>
		<g id="Form">
			<g>
				<g>
					<path class="st18" d="M234.3,390.7H626c10.7,0,18.6-8.7,17.6-19.3l-21.1-240.6c-0.9-10.7-10.3-19.3-21-19.3H209.8
						c-10.7,0-18.6,8.7-17.6,19.3l21.1,240.6C214.2,382,223.6,390.7,234.3,390.7z"/>
					<path class="st19" d="M234.3,390.7H626c10.7,0,18.6-8.7,17.6-19.3l-21.1-240.6c-0.9-10.7-10.3-19.3-21-19.3H209.8
						c-10.7,0-18.6,8.7-17.6,19.3l21.1,240.6C214.2,382,223.6,390.7,234.3,390.7z"/>
					<g>
						<g>
							<g>
								<polygon class="st11" points="234.7,366.1 616.7,366.1 595.5,123.9 213.5,123.9 								"/>
								<path class="st11" d="M239.9,385h391.7c10.7,0,18.6-8.7,17.6-19.3L628.2,125c-0.9-10.7-10.3-19.3-21-19.3H215.5
									c-10.7,0-18.6,8.7-17.6,19.3l21.1,240.6C219.8,376.4,229.2,385,239.9,385z"/>
							</g>
							<polygon class="st11" points="234.7,366.1 616.7,366.1 595.5,123.9 213.5,123.9 							"/>
							<g>
								<g>
									<g>
										<polygon class="st20" points="234.7,366.4 616.7,366.4 595.5,124.3 213.5,124.3 										"/>
										<polygon class="st11" points="597.4,146.1 215.4,146.1 213.5,124.3 595.5,124.3 										"/>
										<polygon class="st21" points="597.4,146.1 215.4,146.1 213.5,124.3 595.5,124.3 										"/>
										<g>
											<path class="st1" d="M229.6,133.2l0.2,2h3.4l0.1,1.4h-3.4l0.2,2.7h-1.7l-0.6-7.4h5.6l0.1,1.4
												C233.5,133.2,229.6,133.2,229.6,133.2z"/>
											<path class="st1" d="M234.3,135.6c-0.2-2.2,1.4-3.8,3.7-3.8c2.3,0,4.2,1.6,4.4,3.8c0.2,2.2-1.4,3.8-3.7,3.8
												C236.4,139.4,234.5,137.8,234.3,135.6z M240.7,135.6c-0.1-1.4-1.2-2.4-2.5-2.4c-1.3,0-2.2,1-2.1,2.4
												c0.1,1.4,1.2,2.4,2.5,2.4C239.9,138,240.8,137,240.7,135.6z"/>
											<path class="st1" d="M248.8,139.3l-1.6-2.1h-0.1h-1.5l0.2,2.1h-1.7l-0.6-7.4h3.2c2,0,3.3,1,3.5,2.7
												c0.1,1.1-0.4,1.9-1.3,2.3l1.9,2.4H248.8z M246.6,133.3h-1.4l0.2,2.6h1.4c1,0,1.5-0.5,1.5-1.3
												C248.3,133.7,247.7,133.3,246.6,133.3z"/>
											<path class="st1" d="M258.6,139.3l-0.4-4.5l-1.9,3.7h-0.8l-2.5-3.6l0.4,4.4h-1.6l-0.6-7.4h1.4l3.2,4.6l2.3-4.6h1.4
												l0.7,7.4L258.6,139.3L258.6,139.3z"/>
										</g>
										<g>
											<path class="st11" d="M240.4,163.4l0.1,1.6h2.9l0.1,1.1h-2.9l0.2,2.2h-1.4l-0.5-6.2h4.7l0.1,1.1L240.4,163.4L240.4,163.4
												z"/>
											<path class="st11" d="M244.2,162.2c0-0.4,0.3-0.8,0.8-0.8c0.5,0,0.9,0.3,0.9,0.7c0,0.5-0.3,0.8-0.8,0.8
												C244.6,163,244.2,162.7,244.2,162.2z M244.5,163.7h1.4l0.4,4.7h-1.4L244.5,163.7z"/>
											<path class="st11" d="M250.1,163.6l0.1,1.3c-0.1,0-0.2,0-0.3,0c-0.8,0-1.2,0.4-1.1,1.3l0.2,2.2h-1.4l-0.4-4.7h1.3
												l0.1,0.6C248.8,163.8,249.3,163.6,250.1,163.6z"/>
											<path class="st11" d="M250.8,168l0.4-1c0.4,0.3,1.1,0.5,1.7,0.5c0.6,0,0.9-0.2,0.8-0.4c-0.1-0.8-2.9,0-3-1.9
												c-0.1-0.9,0.7-1.5,2.1-1.5c0.7,0,1.4,0.1,1.9,0.4l-0.4,1c-0.5-0.3-1-0.4-1.4-0.4c-0.6,0-0.9,0.2-0.8,0.4
												c0.1,0.8,2.9,0,3,1.9c0.1,0.9-0.7,1.5-2.1,1.5C252.1,168.5,251.3,168.3,250.8,168z"/>
											<path class="st11" d="M259.1,168.2c-0.3,0.2-0.7,0.3-1.1,0.3c-1.1,0-1.8-0.6-1.9-1.7l-0.2-1.9h-0.7l-0.1-1.1h0.7
												l-0.1-1.2h1.4l0.1,1.2h1.2l0.1,1.1h-1.2l0.2,1.9c0,0.4,0.3,0.6,0.6,0.6c0.2,0,0.4-0.1,0.5-0.2L259.1,168.2z"/>
											<path class="st11" d="M267.6,162.2l0.5,6.2h-1.2l-3.4-3.8l0.3,3.8h-1.4l-0.5-6.2h1.2l3.4,3.8l-0.3-3.8H267.6z"/>
											<path class="st11" d="M273.4,165.7l0.2,2.7h-1.3l-0.1-0.6c-0.2,0.4-0.7,0.7-1.4,0.7c-1.1,0-1.8-0.6-1.9-1.4
												c-0.1-0.8,0.5-1.4,1.9-1.4h1.1c-0.1-0.6-0.4-0.9-1.2-0.9c-0.5,0-1,0.2-1.3,0.4l-0.6-1c0.5-0.4,1.2-0.6,2-0.6
												C272.4,163.6,273.3,164.3,273.4,165.7z M272.2,166.9l0-0.5h-0.9c-0.6,0-0.8,0.2-0.8,0.6c0,0.3,0.3,0.6,0.8,0.6
												C271.7,167.6,272,167.3,272.2,166.9z"/>
											<path class="st11" d="M282.7,165.7l0.2,2.7h-1.4l-0.2-2.5c-0.1-0.8-0.4-1.1-1-1.1c-0.6,0-1,0.4-0.9,1.2l0.2,2.4h-1.4
												l-0.2-2.5c-0.1-0.8-0.4-1.1-1-1.1c-0.6,0-1,0.4-0.9,1.2l0.2,2.4h-1.4l-0.4-4.7h1.3l0,0.5c0.3-0.4,0.8-0.6,1.4-0.6
												c0.7,0,1.2,0.3,1.6,0.8c0.3-0.5,0.9-0.8,1.6-0.8C281.7,163.6,282.6,164.2,282.7,165.7z"/>
											<path class="st11" d="M288.7,166.4h-3.6c0.2,0.6,0.7,1,1.4,1c0.5,0,0.9-0.1,1.2-0.5l0.8,0.8c-0.4,0.5-1,0.8-1.9,0.8
												c-1.6,0-2.8-1-2.9-2.4c-0.1-1.4,0.9-2.4,2.3-2.4c1.4,0,2.6,0.9,2.7,2.5C288.7,166.2,288.7,166.3,288.7,166.4z M285,165.6
												h2.3c-0.2-0.6-0.6-1-1.3-1C285.5,164.6,285,165,285,165.6z"/>
										</g>
										<g>
											<path class="st11" d="M254.4,285.2l0.1,1.1h-4.8l-0.5-6.2h4.7l0.1,1.1h-3.3l0.1,1.3h2.9l0.1,1.1h-2.9l0.1,1.4
												L254.4,285.2L254.4,285.2z"/>
											<path class="st11" d="M263.4,283.7l0.2,2.7h-1.4l-0.2-2.5c-0.1-0.8-0.4-1.1-1-1.1c-0.6,0-1,0.4-0.9,1.2l0.2,2.4h-1.4
												l-0.2-2.5c-0.1-0.8-0.4-1.1-1-1.1c-0.6,0-1,0.4-0.9,1.2l0.2,2.4h-1.4l-0.4-4.7h1.3l0,0.5c0.3-0.4,0.8-0.6,1.4-0.6
												c0.7,0,1.3,0.3,1.6,0.8c0.3-0.5,0.9-0.8,1.6-0.8C262.4,281.6,263.2,282.2,263.4,283.7z"/>
											<path class="st11" d="M268.8,283.7l0.2,2.7h-1.3l-0.1-0.6c-0.2,0.4-0.7,0.7-1.4,0.7c-1.1,0-1.8-0.6-1.9-1.4
												c-0.1-0.8,0.5-1.4,1.9-1.4h1.1c-0.1-0.6-0.4-0.9-1.2-0.9c-0.5,0-1,0.2-1.3,0.4l-0.6-1c0.5-0.4,1.2-0.6,2-0.6
												C267.8,281.6,268.7,282.2,268.8,283.7z M267.5,284.9l0-0.5h-0.9c-0.6,0-0.8,0.2-0.8,0.6c0,0.3,0.3,0.6,0.8,0.6
												C267,285.5,267.4,285.3,267.5,284.9z"/>
											<path class="st11" d="M269.6,280.2c0-0.4,0.3-0.8,0.8-0.8c0.5,0,0.9,0.3,0.9,0.7c0,0.5-0.3,0.8-0.8,0.8
												C270,281,269.6,280.6,269.6,280.2z M269.9,281.6h1.4l0.4,4.7h-1.4L269.9,281.6z"/>
											<path class="st11" d="M272.4,279.8h1.4l0.6,6.5h-1.4L272.4,279.8z"/>
										</g>
										<g>
											<path class="st11" d="M246.5,202.9h-2.9l-0.4,1.3h-1.5l2.2-6.2h1.4l3.3,6.2h-1.5L246.5,202.9z M246,201.8l-1.2-2.4
												l-0.8,2.4H246z"/>
											<path class="st11" d="M253.4,197.6l0.6,6.5h-1.3l0-0.5c-0.3,0.4-0.8,0.6-1.4,0.6c-1.3,0-2.5-1-2.6-2.4s0.8-2.4,2.2-2.4
												c0.6,0,1.1,0.2,1.5,0.6l-0.2-2.3L253.4,197.6L253.4,197.6z M252.5,201.8c-0.1-0.8-0.6-1.3-1.3-1.3
												c-0.7,0-1.2,0.5-1.1,1.3c0.1,0.8,0.6,1.3,1.3,1.3C252,203.1,252.5,202.6,252.5,201.8z"/>
											<path class="st11" d="M259.6,197.6l0.6,6.5h-1.3l0-0.5c-0.3,0.4-0.8,0.6-1.4,0.6c-1.3,0-2.5-1-2.6-2.4
												c-0.1-1.5,0.8-2.4,2.2-2.4c0.6,0,1.1,0.2,1.5,0.6l-0.2-2.3L259.6,197.6L259.6,197.6z M258.6,201.8
												c-0.1-0.8-0.6-1.3-1.3-1.3c-0.7,0-1.2,0.5-1.1,1.3c0.1,0.8,0.6,1.3,1.3,1.3C258.2,203.1,258.6,202.6,258.6,201.8z"/>
											<path class="st11" d="M263.9,199.4l0.1,1.3c-0.1,0-0.2,0-0.3,0c-0.8,0-1.2,0.4-1.1,1.3l0.2,2.2h-1.4l-0.4-4.7h1.3
												l0.1,0.6C262.6,199.6,263.2,199.4,263.9,199.4z"/>
											<path class="st11" d="M269.6,202.2H266c0.2,0.6,0.7,1,1.4,1c0.5,0,0.9-0.2,1.2-0.5l0.8,0.8c-0.4,0.5-1,0.8-1.9,0.8
												c-1.6,0-2.8-1-2.9-2.4c-0.1-1.4,0.9-2.4,2.3-2.4c1.4,0,2.6,0.9,2.7,2.5C269.6,201.9,269.6,202.1,269.6,202.2z
												 M265.9,201.4h2.3c-0.2-0.6-0.6-1-1.3-1C266.3,200.4,265.9,200.8,265.9,201.4z"/>
											<path class="st11" d="M270.2,203.7l0.4-1c0.4,0.3,1.1,0.5,1.7,0.5c0.6,0,0.9-0.2,0.8-0.4c-0.1-0.8-2.9,0-3-1.9
												c-0.1-0.9,0.7-1.5,2.1-1.5c0.7,0,1.4,0.2,1.9,0.4l-0.4,1c-0.5-0.3-1-0.4-1.4-0.4c-0.6,0-0.9,0.2-0.8,0.4
												c0.1,0.8,2.9,0,3,1.9c0.1,0.9-0.7,1.5-2.1,1.5C271.5,204.3,270.7,204,270.2,203.7z"/>
											<path class="st11" d="M274.9,203.7l0.4-1c0.4,0.3,1.1,0.5,1.7,0.5c0.6,0,0.9-0.2,0.8-0.4c-0.1-0.8-2.9,0-3-1.9
												c-0.1-0.9,0.7-1.5,2.1-1.5c0.7,0,1.4,0.2,1.9,0.4l-0.4,1c-0.5-0.3-1-0.4-1.4-0.4c-0.6,0-0.9,0.2-0.8,0.4
												c0.1,0.8,2.9,0,3,1.9c0.1,0.9-0.7,1.5-2.1,1.5C276.2,204.3,275.3,204,274.9,203.7z"/>
										</g>
										<g>
											<path class="st11" d="M258.2,321.3c0.1,1.4-0.8,2.2-2.5,2.2h-1.2l0.1,1.7h-1.4l-0.5-6.2h2.7
												C256.9,319.1,258,319.9,258.2,321.3z M256.7,321.3c-0.1-0.7-0.5-1.1-1.4-1.1h-1.2l0.2,2.1h1.2
												C256.4,322.4,256.8,322,256.7,321.3z"/>
											<path class="st11" d="M263.4,322.5l0.2,2.7h-1.3l-0.1-0.6c-0.2,0.4-0.7,0.7-1.4,0.7c-1.1,0-1.8-0.6-1.9-1.4
												c-0.1-0.8,0.5-1.4,1.9-1.4h1.1c-0.1-0.6-0.4-0.9-1.2-0.9c-0.5,0-1,0.2-1.3,0.4l-0.6-1c0.5-0.4,1.2-0.6,2-0.6
												C262.3,320.4,263.2,321.1,263.4,322.5z M262.1,323.7l0-0.5h-0.9c-0.6,0-0.8,0.2-0.8,0.6c0,0.3,0.3,0.6,0.8,0.6
												C261.6,324.4,262,324.2,262.1,323.7z"/>
											<path class="st11" d="M264.3,324.8l0.4-1c0.4,0.3,1.1,0.5,1.7,0.5c0.6,0,0.9-0.2,0.8-0.4c-0.1-0.8-2.9,0-3-1.9
												c-0.1-0.9,0.7-1.5,2.1-1.5c0.7,0,1.4,0.1,1.9,0.4l-0.4,1c-0.5-0.3-1-0.4-1.4-0.4c-0.6,0-0.9,0.2-0.8,0.4
												c0.1,0.8,2.9,0,3,1.9c0.1,0.9-0.7,1.5-2.1,1.5C265.6,325.3,264.8,325.1,264.3,324.8z"/>
											<path class="st11" d="M269,324.8l0.4-1c0.4,0.3,1.1,0.5,1.7,0.5c0.6,0,0.9-0.2,0.8-0.4c-0.1-0.8-2.9,0-3-1.9
												c-0.1-0.9,0.7-1.5,2.1-1.5c0.7,0,1.4,0.1,1.9,0.4l-0.4,1c-0.5-0.3-1-0.4-1.4-0.4c-0.6,0-0.9,0.2-0.8,0.4
												c0.1,0.8,2.9,0,3,1.9c0.1,0.9-0.7,1.5-2.1,1.5C270.3,325.3,269.5,325.1,269,324.8z"/>
											<path class="st11" d="M281.3,320.5l-1.3,4.7h-1.3l-1.3-2.9l-0.8,2.9h-1.3l-2.1-4.7h1.3l1.4,3.2l0.9-3.2h1.2l1.4,3.2
												l0.9-3.2H281.3z"/>
											<path class="st11" d="M281.7,322.9c-0.1-1.4,0.9-2.4,2.4-2.4c1.5,0,2.7,1,2.8,2.4c0.1,1.4-0.9,2.4-2.4,2.4
												S281.8,324.3,281.7,322.9z M285.5,322.9c-0.1-0.8-0.6-1.3-1.3-1.3s-1.2,0.5-1.1,1.3c0.1,0.8,0.6,1.3,1.3,1.3
												C285.1,324.2,285.6,323.7,285.5,322.9z"/>
											<path class="st11" d="M290.6,320.4l0.1,1.3c-0.1,0-0.2,0-0.3,0c-0.8,0-1.2,0.4-1.1,1.3l0.2,2.2H288l-0.4-4.7h1.3l0.1,0.6
												C289.3,320.7,289.8,320.4,290.6,320.4z"/>
											<path class="st11" d="M296,318.7l0.6,6.5h-1.3l0-0.5c-0.3,0.4-0.8,0.6-1.4,0.6c-1.3,0-2.5-1-2.6-2.4
												c-0.1-1.5,0.8-2.4,2.2-2.4c0.6,0,1.1,0.2,1.5,0.6l-0.2-2.3L296,318.7L296,318.7z M295,322.9c-0.1-0.8-0.6-1.3-1.3-1.3
												c-0.7,0-1.2,0.5-1.1,1.3c0.1,0.8,0.6,1.3,1.3,1.3C294.6,324.2,295.1,323.7,295,322.9z"/>
										</g>
										<g>
											<path class="st11" d="M499.8,349.3H465c-6.6,0-12.4-5.3-13-11.9l0,0c-0.6-6.6,4.3-11.9,10.9-11.9h34.8
												c6.6,0,12.4,5.3,13,11.9l0,0C511.3,343.9,506.4,349.3,499.8,349.3z"/>
											<g>
												<path class="st1" d="M470.2,339.9l0.4-1.1c0.6,0.4,1.4,0.6,2.1,0.6c0.8,0,1.2-0.3,1.1-0.7c-0.1-1.2-3.6-0.4-3.8-2.7
													c-0.1-1,0.7-1.9,2.4-1.9c0.8,0,1.6,0.2,2.2,0.5l-0.3,1.1c-0.6-0.3-1.2-0.5-1.8-0.5c-0.8,0-1.1,0.3-1.1,0.7
													c0.1,1.1,3.6,0.4,3.8,2.6c0.1,1-0.7,1.9-2.5,1.9C471.8,340.6,470.8,340.3,470.2,339.9z"/>
												<path class="st1" d="M480.2,337.8l0.2,2.7h-1.3l-0.1-0.6c-0.2,0.4-0.7,0.7-1.4,0.7c-1.1,0-1.8-0.6-1.9-1.4
													c-0.1-0.8,0.5-1.4,1.9-1.4h1.1c-0.1-0.6-0.4-0.9-1.2-0.9c-0.5,0-1,0.2-1.3,0.4l-0.6-1c0.5-0.4,1.2-0.6,2-0.6
													C479.2,335.7,480.1,336.4,480.2,337.8z M479,339l0-0.5H478c-0.6,0-0.8,0.2-0.8,0.6c0,0.3,0.3,0.6,0.8,0.6
													C478.5,339.7,478.8,339.4,479,339z"/>
												<path class="st1" d="M485.9,335.8l-1.6,4.7h-1.4l-2.4-4.7h1.4l1.6,3.2l1.1-3.2H485.9z"/>
												<path class="st1" d="M491.2,338.5h-3.6c0.2,0.6,0.7,1,1.4,1c0.5,0,0.9-0.1,1.2-0.5l0.8,0.8c-0.4,0.5-1,0.8-1.9,0.8
													c-1.6,0-2.8-1-2.9-2.4c-0.1-1.4,0.9-2.4,2.3-2.4c1.4,0,2.6,0.9,2.7,2.5C491.2,338.3,491.2,338.4,491.2,338.5z
													 M487.5,337.7h2.3c-0.1-0.6-0.6-1-1.3-1C488,336.7,487.6,337.1,487.5,337.7z"/>
											</g>
											<path class="st11" d="M566.1,349.3h-34.8c-6.6,0-12.4-5.3-13-11.9l0,0c-0.6-6.6,4.3-11.9,10.9-11.9H564
												c6.6,0,12.4,5.3,13,11.9l0,0C577.5,343.9,572.6,349.3,566.1,349.3z"/>
											<g>
												<path class="st1" d="M526.9,337.4c-0.2-1.9,1.2-3.2,3.1-3.2c1.1,0,2,0.4,2.6,1.1l-0.8,0.8c-0.5-0.5-1-0.7-1.6-0.7
													c-1.2,0-1.9,0.8-1.8,2c0.1,1.2,1,2,2.2,2c0.6,0,1.1-0.2,1.5-0.7l1,0.8c-0.5,0.7-1.4,1.1-2.5,1.1
													C528.6,340.6,527.1,339.3,526.9,337.4z"/>
												<path class="st1" d="M533.2,338.1c-0.1-1.4,0.9-2.4,2.4-2.4s2.7,1,2.8,2.4c0.1,1.4-0.9,2.4-2.4,2.4
													C534.5,340.6,533.3,339.6,533.2,338.1z M537,338.1c-0.1-0.8-0.6-1.3-1.3-1.3s-1.2,0.5-1.1,1.3c0.1,0.8,0.6,1.3,1.3,1.3
													C536.6,339.4,537.1,339,537,338.1z"/>
												<path class="st1" d="M544.2,337.8l0.2,2.7H543l-0.2-2.5c-0.1-0.8-0.5-1.1-1.1-1.1c-0.7,0-1.1,0.4-1,1.3l0.2,2.3h-1.4
													l-0.4-4.7h1.3l0,0.6c0.3-0.4,0.9-0.6,1.5-0.6C543.1,335.7,544,336.3,544.2,337.8z"/>
												<path class="st1" d="M548.7,340.3c-0.3,0.2-0.7,0.3-1.1,0.3c-1.1,0-1.8-0.6-1.9-1.7l-0.2-1.9h-0.7l-0.1-1.1h0.7
													l-0.1-1.2h1.4l0.1,1.2h1.2l0.1,1.1h-1.2l0.2,1.9c0,0.4,0.3,0.6,0.6,0.6c0.2,0,0.4-0.1,0.5-0.2L548.7,340.3z"/>
												<path class="st1" d="M548.8,334.3c0-0.4,0.3-0.8,0.8-0.8c0.5,0,0.9,0.3,0.9,0.7c0,0.5-0.3,0.8-0.8,0.8
													C549.2,335.1,548.8,334.8,548.8,334.3z M549.1,335.8h1.4l0.4,4.7h-1.4L549.1,335.8z"/>
												<path class="st1" d="M556.8,337.8l0.2,2.7h-1.4l-0.2-2.5c-0.1-0.8-0.5-1.1-1.1-1.1c-0.7,0-1.1,0.4-1,1.3l0.2,2.3h-1.4
													l-0.4-4.7h1.3l0,0.6c0.3-0.4,0.9-0.6,1.5-0.6C555.7,335.7,556.6,336.3,556.8,337.8z"/>
												<path class="st1" d="M562.6,335.8l0.4,4.7h-1.3l0-0.6c-0.3,0.4-0.8,0.6-1.4,0.6c-1.2,0-2.1-0.7-2.2-2.1l-0.2-2.7h1.4
													l0.2,2.5c0.1,0.8,0.5,1.1,1.1,1.1c0.6,0,1.1-0.4,1-1.3l-0.2-2.3L562.6,335.8L562.6,335.8z"/>
												<path class="st1" d="M568.8,338.5h-3.6c0.2,0.6,0.7,1,1.4,1c0.5,0,0.9-0.1,1.2-0.5l0.8,0.8c-0.4,0.5-1,0.8-1.9,0.8
													c-1.6,0-2.8-1-2.9-2.4c-0.1-1.4,0.9-2.4,2.3-2.4c1.4,0,2.6,0.9,2.7,2.5C568.8,338.3,568.8,338.4,568.8,338.5z
													 M565.1,337.7h2.3c-0.2-0.6-0.6-1-1.3-1C565.5,336.7,565.1,337.1,565.1,337.7z"/>
											</g>
										</g>
										<g>
											<path class="st11" d="M427.1,284.5c-0.1-1.5,1.2-2.7,3.1-2.7c1.1,0,2,0.3,2.6,0.9l-0.9,0.7c-0.4-0.4-1-0.6-1.6-0.6
												c-1.2,0-1.9,0.7-1.8,1.6c0.1,1,1,1.6,2.1,1.6c0.6,0,1.1-0.2,1.5-0.6l1,0.7c-0.5,0.6-1.4,0.9-2.5,0.9
												C428.8,287.2,427.3,286.1,427.1,284.5z"/>
											<path class="st11" d="M433.4,285.1c-0.1-1.2,0.9-2,2.4-2c1.5,0,2.7,0.8,2.8,2c0.1,1.2-0.9,2-2.4,2
												C434.7,287.1,433.5,286.3,433.4,285.1z M437.3,285.1c-0.1-0.7-0.6-1.1-1.3-1.1s-1.2,0.4-1.1,1.1c0.1,0.7,0.6,1.1,1.3,1.1
												C436.8,286.2,437.3,285.8,437.3,285.1z"/>
											<path class="st11" d="M444.4,284.8l0.2,2.3h-1.4L443,285c-0.1-0.6-0.4-0.9-1-0.9c-0.7,0-1.1,0.3-1,1.1l0.2,1.9h-1.4
												l-0.3-3.9h1.3l0,0.5c0.3-0.3,0.9-0.5,1.5-0.5C443.4,283.1,444.3,283.6,444.4,284.8z"/>
											<path class="st11" d="M448.9,286.9c-0.3,0.2-0.7,0.2-1.1,0.2c-1.1,0-1.8-0.5-1.9-1.4l-0.1-1.6H445l-0.1-0.9h0.7l-0.1-1
												h1.4l0.1,1h1.2l0.1,0.9h-1.2l0.1,1.6c0,0.3,0.3,0.5,0.6,0.5c0.2,0,0.4-0.1,0.5-0.1L448.9,286.9z"/>
											<path class="st11" d="M453.7,284.8l0.2,2.2h-1.3l0-0.5c-0.2,0.4-0.7,0.5-1.4,0.5c-1.1,0-1.8-0.5-1.9-1.2
												c-0.1-0.7,0.5-1.2,1.9-1.2h1.1c0-0.5-0.4-0.8-1.2-0.8c-0.5,0-1,0.1-1.3,0.4l-0.6-0.8c0.5-0.3,1.2-0.5,2-0.5
												C452.7,283.1,453.6,283.6,453.7,284.8z M452.4,285.8l0-0.4h-0.9c-0.6,0-0.8,0.2-0.8,0.5c0,0.3,0.3,0.5,0.8,0.5
												C451.9,286.4,452.3,286.2,452.4,285.8z"/>
											<path class="st11" d="M454.6,285.1c-0.1-1.2,0.9-2,2.5-2c1,0,1.8,0.4,2.2,1l-1,0.5c-0.3-0.4-0.7-0.5-1.1-0.5
												c-0.7,0-1.2,0.4-1.2,1.1c0.1,0.7,0.6,1.1,1.3,1.1c0.4,0,0.8-0.2,1-0.5l1.1,0.5c-0.3,0.6-1,1-2,1
												C455.9,287.1,454.8,286.3,454.6,285.1z"/>
											<path class="st11" d="M463.5,286.9c-0.3,0.2-0.7,0.2-1.1,0.2c-1.1,0-1.8-0.5-1.9-1.4l-0.1-1.6h-0.7l-0.1-0.9h0.7l-0.1-1
												h1.4l0.1,1h1.2l0.1,0.9h-1.2l0.1,1.6c0,0.3,0.3,0.5,0.6,0.5c0.2,0,0.4-0.1,0.5-0.1L463.5,286.9z"/>
											<path class="st11" d="M472.1,282l0.4,5.1h-1.2L468,284l0.3,3.1h-1.4l-0.4-5.1h1.2l3.3,3.1l-0.3-3.1H472.1z"/>
											<path class="st11" d="M478.4,283.1l0.3,3.9h-1.3l0-0.5c-0.3,0.3-0.8,0.5-1.4,0.5c-1.2,0-2.1-0.6-2.2-1.8l-0.2-2.2h1.4
												l0.2,2.1c0.1,0.7,0.4,1,1,1c0.6,0,1.1-0.3,1-1.1l-0.2-1.9L478.4,283.1L478.4,283.1z"/>
											<path class="st11" d="M487.8,284.8l0.2,2.3h-1.4l-0.2-2.1c-0.1-0.6-0.4-0.9-1-0.9c-0.6,0-1,0.3-1,1l0.2,2h-1.4l-0.2-2.1
												c-0.1-0.6-0.4-0.9-1-0.9c-0.6,0-1,0.3-1,1l0.2,2H480l-0.3-3.9h1.3l0,0.5c0.3-0.3,0.8-0.5,1.4-0.5c0.7,0,1.2,0.2,1.6,0.6
												c0.3-0.4,0.9-0.6,1.7-0.6C486.9,283.1,487.7,283.6,487.8,284.8z"/>
											<path class="st11" d="M494.2,285.1c0.1,1.2-0.9,2-2.2,2c-0.6,0-1.2-0.2-1.5-0.5l0,0.5h-1.3l-0.5-5.4h1.4l0.2,1.9
												c0.3-0.3,0.8-0.5,1.4-0.5C493,283.1,494.1,283.9,494.2,285.1z M492.8,285.1c-0.1-0.7-0.6-1.1-1.3-1.1
												c-0.7,0-1.2,0.4-1.1,1.1c0.1,0.7,0.6,1.1,1.3,1.1C492.4,286.2,492.9,285.8,492.8,285.1z"/>
											<path class="st11" d="M499.8,285.4h-3.6c0.2,0.5,0.7,0.8,1.4,0.8c0.5,0,0.9-0.1,1.2-0.4l0.8,0.7c-0.4,0.4-1,0.6-1.9,0.6
												c-1.6,0-2.8-0.9-2.9-2c-0.1-1.2,0.9-2,2.4-2c1.4,0,2.5,0.8,2.7,2C499.8,285.2,499.8,285.3,499.8,285.4z M496.1,284.8h2.3
												c-0.1-0.5-0.6-0.8-1.2-0.8C496.6,283.9,496.2,284.3,496.1,284.8z"/>
											<path class="st11" d="M503.5,283.1l0.1,1.1c-0.1,0-0.2,0-0.3,0c-0.8,0-1.2,0.3-1.2,1.1l0.2,1.9h-1.4l-0.3-3.9h1.3l0,0.5
												C502.2,283.3,502.8,283.1,503.5,283.1z"/>
										</g>
										<g>
											<path class="st11" d="M245.4,242.1l0.4-0.9c0.5,0.3,1.3,0.5,2.1,0.5c0.8,0,1.2-0.2,1.1-0.5c-0.1-1-3.6-0.3-3.8-2.2
												c-0.1-0.9,0.7-1.6,2.5-1.6c0.8,0,1.6,0.2,2.2,0.5l-0.4,0.9c-0.6-0.3-1.2-0.4-1.7-0.4c-0.8,0-1.2,0.3-1.1,0.6
												c0.1,0.9,3.6,0.3,3.8,2.2c0.1,0.9-0.7,1.6-2.5,1.6C247,242.7,246,242.4,245.4,242.1z"/>
											<path class="st11" d="M254.5,242.4c-0.3,0.2-0.7,0.2-1.1,0.2c-1.1,0-1.8-0.5-1.9-1.4l-0.1-1.6h-0.7l-0.1-0.9h0.7l-0.1-1
												h1.4l0.1,1h1.2l0.1,0.9h-1.2l0.1,1.6c0,0.3,0.3,0.5,0.6,0.5c0.2,0,0.4-0.1,0.5-0.1L254.5,242.4z"/>
											<path class="st11" d="M259.3,240.3l0.2,2.2h-1.3l0-0.5c-0.2,0.4-0.7,0.6-1.4,0.6c-1.1,0-1.8-0.5-1.9-1.2
												c-0.1-0.7,0.5-1.2,1.9-1.2h1.1c0-0.5-0.4-0.8-1.2-0.8c-0.5,0-1,0.1-1.3,0.4l-0.6-0.8c0.5-0.3,1.2-0.5,2-0.5
												C258.3,238.6,259.2,239.1,259.3,240.3z M258,241.3l0-0.4H257c-0.6,0-0.8,0.2-0.8,0.5c0,0.3,0.3,0.5,0.8,0.5
												C257.5,241.9,257.9,241.7,258,241.3z"/>
											<path class="st11" d="M263.8,242.4c-0.3,0.2-0.7,0.2-1.1,0.2c-1.1,0-1.8-0.5-1.9-1.4l-0.1-1.6h-0.7l-0.1-0.9h0.7l-0.1-1
												h1.4l0.1,1h1.2l0.1,0.9H262l0.1,1.6c0,0.3,0.3,0.5,0.6,0.5c0.2,0,0.4-0.1,0.5-0.1L263.8,242.4z"/>
											<path class="st11" d="M268.9,240.9h-3.6c0.2,0.5,0.7,0.8,1.4,0.8c0.5,0,0.9-0.1,1.2-0.4l0.8,0.7c-0.4,0.4-1,0.6-1.9,0.6
												c-1.6,0-2.8-0.9-2.9-2c-0.1-1.2,0.9-2,2.4-2c1.4,0,2.5,0.8,2.7,2C268.9,240.7,268.9,240.8,268.9,240.9z M265.2,240.3h2.3
												c-0.1-0.5-0.6-0.8-1.2-0.8C265.7,239.5,265.3,239.8,265.2,240.3z"/>
										</g>
										<g>
											<path class="st11" d="M416.8,162.2h1.4l0.4,5h3.1l0.1,1.2h-4.5L416.8,162.2z"/>
											<path class="st11" d="M426.6,165.7l0.2,2.7h-1.3l-0.1-0.6c-0.2,0.4-0.7,0.7-1.4,0.7c-1.1,0-1.8-0.6-1.9-1.4
												c-0.1-0.8,0.5-1.4,1.9-1.4h1.1c-0.1-0.6-0.4-0.9-1.2-0.9c-0.5,0-1,0.2-1.3,0.4l-0.6-1c0.5-0.4,1.2-0.6,2-0.6
												C425.6,163.6,426.5,164.3,426.6,165.7z M425.4,166.9l0-0.5h-0.9c-0.6,0-0.8,0.2-0.8,0.6c0,0.3,0.3,0.6,0.8,0.6
												C424.9,167.6,425.2,167.3,425.4,166.9z"/>
											<path class="st11" d="M427.6,168l0.4-1c0.4,0.3,1.1,0.5,1.7,0.5c0.6,0,0.9-0.2,0.8-0.4c-0.1-0.8-2.9,0-3-1.9
												c-0.1-0.9,0.7-1.5,2.1-1.5c0.7,0,1.4,0.1,1.9,0.4l-0.4,1c-0.5-0.3-1-0.4-1.4-0.4c-0.6,0-0.9,0.2-0.8,0.4
												c0.1,0.8,2.9,0,3,1.9c0.1,0.9-0.7,1.5-2.1,1.5C428.9,168.5,428.1,168.3,427.6,168z"/>
											<path class="st11" d="M435.8,168.2c-0.3,0.2-0.7,0.3-1.1,0.3c-1.1,0-1.8-0.6-1.9-1.7l-0.2-1.9h-0.7l-0.1-1.1h0.7
												l-0.1-1.2h1.4l0.1,1.2h1.2l0.1,1.1H434l0.2,1.9c0,0.4,0.3,0.6,0.6,0.6c0.2,0,0.4-0.1,0.5-0.2L435.8,168.2z"/>
											<path class="st11" d="M444.4,162.2l0.5,6.2h-1.2l-3.4-3.8l0.3,3.8h-1.4l-0.5-6.2h1.2l3.4,3.8l-0.3-3.8H444.4z"/>
											<path class="st11" d="M450.2,165.7l0.2,2.7h-1.3l-0.1-0.6c-0.2,0.4-0.7,0.7-1.4,0.7c-1.1,0-1.8-0.6-1.9-1.4
												c-0.1-0.8,0.5-1.4,1.9-1.4h1.1c-0.1-0.6-0.4-0.9-1.2-0.9c-0.5,0-1,0.2-1.3,0.4l-0.6-1c0.5-0.4,1.2-0.6,2-0.6
												C449.2,163.6,450.1,164.3,450.2,165.7z M449,166.9l0-0.5H448c-0.6,0-0.8,0.2-0.8,0.6c0,0.3,0.3,0.6,0.8,0.6
												C448.4,167.6,448.8,167.3,449,166.9z"/>
											<path class="st11" d="M459.5,165.7l0.2,2.7h-1.4l-0.2-2.5c-0.1-0.8-0.4-1.1-1-1.1c-0.6,0-1,0.4-0.9,1.2l0.2,2.4H455
												l-0.2-2.5c-0.1-0.8-0.4-1.1-1-1.1c-0.6,0-1,0.4-0.9,1.2l0.2,2.4h-1.4l-0.4-4.7h1.3l0,0.5c0.3-0.4,0.8-0.6,1.4-0.6
												c0.7,0,1.2,0.3,1.6,0.8c0.3-0.5,0.9-0.8,1.6-0.8C458.5,163.6,459.4,164.2,459.5,165.7z"/>
											<path class="st11" d="M465.5,166.4h-3.6c0.2,0.6,0.7,1,1.4,1c0.5,0,0.9-0.1,1.2-0.5l0.8,0.8c-0.4,0.5-1,0.8-1.9,0.8
												c-1.6,0-2.8-1-2.9-2.4c-0.1-1.4,0.9-2.4,2.3-2.4c1.4,0,2.6,0.9,2.7,2.5C465.5,166.2,465.5,166.3,465.5,166.4z
												 M461.8,165.6h2.3c-0.1-0.6-0.6-1-1.3-1C462.2,164.6,461.8,165,461.8,165.6z"/>
										</g>
									</g>
									<polygon class="st1" points="406.2,188 240.3,188 239.1,173.8 404.9,173.8 									"/>
									<polygon class="st1" points="412.6,261.9 246.8,261.9 245.6,247.6 411.4,247.6 									"/>
									<polygon class="st1" points="416.4,305 250.6,305 249.3,290.8 415.2,290.8 									"/>
									<polygon class="st1" points="419.9,344.5 254,344.5 252.8,330.2 418.6,330.2 									"/>
									<polygon class="st1" points="594.7,305 428.9,305 427.7,290.8 593.5,290.8 									"/>
									<polygon class="st1" points="587.6,223.2 243.4,223.2 242.2,209 586.3,209 									"/>
									<polygon class="st1" points="584.5,188 418.7,188 417.4,173.8 583.3,173.8 									"/>
								</g>
								<polygon class="st14" points="466.7,303.5 453.9,303.5 452.9,291.8 465.7,291.8 								"/>
								<g>
									<polygon class="st18" points="463.7,295.6 460.1,300.2 455.6,295.6 									"/>
								</g>
								<g>
									<path class="st18" d="M436.5,297.9h-1.5l0.1,1.5h-1.1l-0.1-1.5h-1.5l-0.1-1.1h1.5l-0.1-1.5h1.1l0.1,1.5h1.5L436.5,297.9z"
										/>
									<path class="st18" d="M441.8,298.6c0.1,1-0.6,2-2.4,2c-0.9,0-1.8-0.2-2.4-0.7l0.5-1.1c0.5,0.4,1.2,0.6,1.8,0.6
										c0.7,0,1.1-0.3,1.1-0.8c0-0.5-0.4-0.8-1.2-0.8h-0.7l-0.1-0.9l1.1-1.4h-2.6l-0.1-1.1h4.3l0.1,0.9l-1.3,1.6
										C441.1,297,441.7,297.7,441.8,298.6z"/>
									<path class="st18" d="M447.1,299.3l0.1,1.2h-4.7l-0.1-0.9l2.2-2.2c0.5-0.5,0.6-0.8,0.5-1.1c0-0.5-0.4-0.8-1.1-0.8
										c-0.5,0-1,0.2-1.2,0.6l-1.1-0.7c0.4-0.7,1.2-1.1,2.4-1.1c1.4,0,2.4,0.7,2.5,1.8c0.1,0.6-0.1,1.1-0.9,1.9l-1.3,1.3
										L447.1,299.3L447.1,299.3z"/>
								</g>
								<polygon class="st18" points="558.6,300.5 474.3,300.5 473.9,295.6 558.2,295.6 								"/>
								<polygon class="st18" points="338.9,300.5 254.6,300.5 254.2,295.6 338.4,295.6 								"/>
								<polygon class="st18" points="289.4,257.2 250.8,257.2 250.4,252.3 288.9,252.3 								"/>
								<polygon class="st18" points="282.9,183.3 244.3,183.3 243.9,178.5 282.5,178.5 								"/>
								<polygon class="st18" points="462,183.3 423.4,183.3 423,178.5 461.6,178.5 								"/>
								<polygon class="st18" points="551.4,218.6 247.4,218.6 247,213.7 551,213.7 								"/>
								<g>
									<path class="st18" d="M263,337.7l1.4,0.7l-0.5,1l-1.4-0.8l0.2,1.5h-1.2l-0.1-1.5l-1.3,0.8l-0.7-1l1.3-0.7l-1.4-0.7l0.5-1
										l1.4,0.8l-0.1-1.5h1.2l0.1,1.5l1.3-0.8l0.7,1L263,337.7z"/>
									<path class="st18" d="M271.9,337.7l1.4,0.7l-0.5,1l-1.4-0.8l0.2,1.5h-1.2l-0.1-1.5l-1.3,0.8l-0.7-1l1.3-0.7l-1.4-0.7l0.5-1
										l1.4,0.8l-0.1-1.5h1.2l0.1,1.5l1.3-0.8l0.7,1L271.9,337.7z"/>
									<path class="st18" d="M280.7,337.7l1.4,0.7l-0.5,1l-1.4-0.8l0.2,1.5h-1.2l-0.1-1.5l-1.3,0.8l-0.7-1l1.3-0.7l-1.4-0.7l0.5-1
										l1.4,0.8l-0.1-1.5h1.2l0.1,1.5l1.3-0.8l0.7,1L280.7,337.7z"/>
									<path class="st18" d="M289.6,337.7l1.4,0.7l-0.5,1l-1.4-0.8l0.2,1.5H288l-0.1-1.5l-1.3,0.8l-0.7-1l1.3-0.7l-1.4-0.7l0.5-1
										l1.4,0.8l-0.1-1.5h1.2l0.1,1.5l1.3-0.8l0.7,1L289.6,337.7z"/>
									<path class="st18" d="M298.4,337.7l1.4,0.7l-0.5,1l-1.4-0.8l0.2,1.5h-1.2l-0.1-1.5l-1.3,0.8l-0.7-1l1.3-0.7l-1.4-0.7l0.5-1
										l1.4,0.8l-0.1-1.5h1.2l0.1,1.5l1.3-0.8l0.7,1L298.4,337.7z"/>
									<path class="st18" d="M307.3,337.7l1.4,0.7l-0.5,1l-1.4-0.8l0.2,1.5h-1.2l-0.1-1.5l-1.3,0.8l-0.7-1l1.3-0.7l-1.4-0.7l0.5-1
										l1.4,0.8l-0.1-1.5h1.2l0.1,1.5l1.3-0.8l0.7,1L307.3,337.7z"/>
									<path class="st18" d="M316.2,337.7l1.4,0.7l-0.5,1l-1.4-0.8l0.2,1.5h-1.2l-0.1-1.5l-1.3,0.8l-0.7-1l1.3-0.7l-1.4-0.7l0.5-1
										l1.4,0.8l-0.1-1.5h1.2l0.1,1.5l1.3-0.8l0.7,1L316.2,337.7z"/>
								</g>
								<polygon class="st22" points="234.7,366.1 616.7,366.1 595.5,123.9 213.5,123.9 								"/>
							</g>
							<g>
								<g>
									<polygon class="st22" points="295.9,105.8 370.5,384.9 345.4,384.9 271.6,105.8 									"/>
									<polygon class="st22" points="257.2,105.8 331.8,384.9 282,384.9 208.2,105.8 									"/>
								</g>
							</g>
							<g>
								
									<rect x="245.3" y="98.3" transform="matrix(1 -8.399704e-03 8.399704e-03 1 -0.8263 2.1099)" class="st11" width="10.9" height="2.3"/>
								
									<rect x="265.9" y="98" transform="matrix(1 -8.399704e-03 8.399704e-03 1 -0.8231 2.3691)" class="st11" width="31.6" height="2.3"/>
							</g>
						</g>
						<path class="st21" d="M635,250.6c0.6,6.4-4.2,11.6-10.6,11.6s-12.1-5.2-12.7-11.6c-0.6-6.4,4.2-11.6,10.6-11.6
							C628.8,238.9,634.4,244.1,635,250.6z"/>
					</g>
				</g>
				<path class="st21" d="M220.8,291.8L220.8,291.8c-1.2,0-2.3-1-2.4-2.2l-7.7-88.4c-0.1-1.2,0.8-2.2,2-2.2l0,0c1.2,0,2.3,1,2.4,2.2
					l7.7,88.4C223,290.8,222.1,291.8,220.8,291.8z"/>
			</g>
		</g>
		<g id="Plant">
			<g>
				<path class="st11" d="M249.5,690.7h-36.8l-4.1-7.7c-9.9-18.7-15.3-39.6-15.6-60.8l0-1.9h76.2l0,0c0,22.7-5.8,45-16.7,64.9
					L249.5,690.7z"/>
				<path class="st19" d="M249.5,690.7h-36.8l-4.1-7.7c-9.9-18.7-15.3-39.6-15.6-60.8l0-1.9h76.2l0,0c0,22.7-5.8,45-16.7,64.9
					L249.5,690.7z"/>
				<g>
					<path class="st11" d="M170.1,621.9c6.9,4.7,15,7.1,23,7c1,0,2-0.1,2.8-0.6c0.9-0.5,1.6-1.5,1.5-2.6c-0.1-1.3-1.1-2.1-2-2.8
						c-5.2-3.8-10.8-6.9-16.7-9.1c-3-1.1-6-2-9.1-2.6c-2.5-0.5-5.1-1.7-7.6-1.7C161.5,614.9,166.4,619.4,170.1,621.9z"/>
					<g>
						<g>
							<path class="st11" d="M268.1,590.9c3.4-4.4,8.4-7.3,13.6-7.8c0.3,0,0.6,0,0.9,0.1c0.3,0.3,0.4,0.8,0.4,1.2
								c0.1,6.9-2,13.9-5.8,19.3c-1.8,2.5-4,4.7-6.7,5.7c-1.9,0.7-4.3,0.7-6.1-0.4c-1.9-1.1-1.5-2.6-1.3-4.7
								C263.4,599.4,265.2,594.7,268.1,590.9z"/>
							<path class="st8" d="M268.1,590.9c3.4-4.4,8.4-7.3,13.6-7.8c0.3,0,0.6,0,0.9,0.1c0.3,0.3,0.4,0.8,0.4,1.2
								c0.1,6.9-2,13.9-5.8,19.3c-1.8,2.5-4,4.7-6.7,5.7c-1.9,0.7-4.3,0.7-6.1-0.4c-1.9-1.1-1.5-2.6-1.3-4.7
								C263.4,599.4,265.2,594.7,268.1,590.9z"/>
						</g>
						<g>
							<path class="st11" d="M234.9,594.1c2.6-4.6,4.4-10.4,4.5-16.6c0.1-5.2-1.1-10.3-2.8-14.7c-1.7-4.4-3.9-8.2-6.1-11.9
								c-0.7,11.3-0.9,22.7-0.6,34c0.1,2.4,0.2,4.9,0.9,7c0.7,2.1,2.2,3.8,3.6,3.2L234.9,594.1z"/>
						</g>
						<g>
							<path class="st11" d="M244.7,559.6c-4.8,7.1-7.8,17.4-8.2,28.1c-0.1,3.8,0.1,7.7,1.2,11c1.1,3.3,3.3,5.8,5.6,5.5
								c2.4-0.4,4.2-3.5,5.5-6.8c2.2-5.4,4.9-13.1,3.7-19.8C251.1,570.4,248.4,564,244.7,559.6z"/>
							<path class="st23" d="M244.7,559.6c-4.8,7.1-7.8,17.4-8.2,28.1c-0.1,3.8,0.1,7.7,1.2,11c1.1,3.3,3.3,5.8,5.6,5.5
								c2.4-0.4,4.2-3.5,5.5-6.8c2.2-5.4,4.9-13.1,3.7-19.8C251.1,570.4,248.4,564,244.7,559.6z"/>
						</g>
						<g>
							<path class="st11" d="M259.3,599.2c3.9-3.7,5.5-9.8,5.4-15.5c-0.2-5.8-1.9-11.3-3.6-16.7c-3.8,5.2-6.9,11.2-9.2,17.5
								c-0.9,2.4-1.6,4.9-1.7,7.5c-0.1,2.6,0.7,5.3,2.4,7.1c1.7,1.7,4.5,2.2,6.3,0.7c-0.2,0.1-0.4,0.3-0.7,0.4L259.3,599.2z"/>
						</g>
						<g class="st24">
							<path d="M259.3,599.2c3.9-3.7,5.5-9.8,5.4-15.5c-0.2-5.8-1.9-11.3-3.6-16.7c-3.8,5.2-6.9,11.2-9.2,17.5
								c-0.9,2.4-1.6,4.9-1.7,7.5c-0.1,2.6,0.7,5.3,2.4,7.1c1.7,1.7,4.5,2.2,6.3,0.7c-0.2,0.1-0.4,0.3-0.7,0.4L259.3,599.2z"/>
						</g>
						<g>
							<g>
								<path class="st11" d="M268.3,576.6c1,7.1,1.9,14.4,0.7,21.5c-1.2,7.1-5,14-11,16.5c-2.5,1-5.7,1-7.3-1.3
									c-1.1-1.6-1.2-3.8-0.7-5.8c0.5-1.9,1.5-3.6,2.5-5.3C257.3,594.6,267.2,575.9,268.3,576.6L268.3,576.6z"/>
							</g>
							<g>
								<path class="st11" d="M268.3,576.6c1,7.1,1.9,14.4,0.7,21.5c-1.2,7.1-5,14-11,16.5c-2.5,1-5.7,1-7.3-1.3
									c-1.1-1.6-1.2-3.8-0.7-5.8c0.5-1.9,1.5-3.6,2.5-5.3C257.3,594.6,267.2,575.9,268.3,576.6L268.3,576.6z"/>
							</g>
							<g class="st25">
								<path d="M268.3,576.6c1,7.1,1.9,14.4,0.7,21.5c-1.2,7.1-5,14-11,16.5c-2.5,1-5.7,1-7.3-1.3c-1.1-1.6-1.2-3.8-0.7-5.8
									c0.5-1.9,1.5-3.6,2.5-5.3C257.3,594.6,267.2,575.9,268.3,576.6L268.3,576.6z"/>
							</g>
						</g>
						<path class="st11" d="M249.9,586.3c2.3,4.2,4.3,8.8,5.1,13.7c0.8,4.9,0.4,10.2-1.8,14.5c-2.2,4.3-6.3,7.5-10.7,7.5
							c-3.4,0-6.7-2-8.5-5.3c-2-3.6-0.5-6.8,1-10.3C238.4,598.5,244.2,592.2,249.9,586.3z"/>
						<g>
							<path class="st11" d="M293.6,599.4c1.2,2,1.2,4.7,0.4,6.9s-2.3,4-3.8,5.7c-10.5,11.2-25.4,16.9-39.7,15.2
								c-1.2-0.1-2.5-0.5-3.2-1.6c-0.7-1.3-0.1-3,1-4c1-0.9,2.4-1.2,3.7-1.5c7.3-1.8,14.4-5,20.8-9.5
								C279.1,606.2,286.7,603.1,293.6,599.4z"/>
							<path class="st23" d="M293.6,599.4c1.2,2,1.2,4.7,0.4,6.9s-2.3,4-3.8,5.7c-10.5,11.2-25.4,16.9-39.7,15.2
								c-1.2-0.1-2.5-0.5-3.2-1.6c-0.7-1.3-0.1-3,1-4c1-0.9,2.4-1.2,3.7-1.5c7.3-1.8,14.4-5,20.8-9.5
								C279.1,606.2,286.7,603.1,293.6,599.4z"/>
						</g>
						<path class="st11" d="M268.2,599.4c1.1-1.6,2.4-3.4,4.1-3.2c1.4,0.2,2.3,1.5,2.9,2.9c2.3,5.7-0.4,12.7-4.8,16.5
							c-4.3,3.8-9.9,5.3-15.3,6.7c-1.8,0.5-3.7,0.9-5.5,1.4c-2.2,0.6-6.6-0.2-4.6-3.7c1.3-2.3,5.7-3.7,7.7-5
							C258.7,611,264,605.7,268.2,599.4z"/>
						<path class="st11" d="M291,621.9c-6.9,4.7-15,7.1-23,7c-1,0-2-0.1-2.8-0.6c-0.9-0.5-1.6-1.5-1.5-2.6c0.1-1.3,1.1-2.1,2-2.8
							c5.2-3.8,10.8-6.9,16.7-9.1c3-1.1,6-2,9.1-2.6c2.5-0.5,5.1-1.7,7.6-1.7C299.6,614.9,294.7,619.4,291,621.9z"/>
						<g>
							<path class="st11" d="M268.7,643.2c6.8-0.5,13.3-3.6,18.9-8c1.1-0.8,2.2-2.2,1.8-3.6c-0.3-1-1.3-1.4-2.2-1.7
								c-6.4-2.2-13-4.3-19.7-4c-3.2,0.1-6.3,0.9-9.2,2.4c-2.3,1.1-6.9,4-7.6,7c-0.7,3.1,5.2,5.4,7.3,6.3
								C261.5,642.9,265.1,643.4,268.7,643.2z"/>
							<path class="st23" d="M268.7,643.2c6.8-0.5,13.3-3.6,18.9-8c1.1-0.8,2.2-2.2,1.8-3.6c-0.3-1-1.3-1.4-2.2-1.7
								c-6.4-2.2-13-4.3-19.7-4c-3.2,0.1-6.3,0.9-9.2,2.4c-2.3,1.1-6.9,4-7.6,7c-0.7,3.1,5.2,5.4,7.3,6.3
								C261.5,642.9,265.1,643.4,268.7,643.2z"/>
						</g>
						<g>
							<path class="st11" d="M242,626.4c6.6-1.5,13.4-1.9,20.1-1.1c1.7,0.2,3.4,0.5,4.8,1.4c1.5,0.9,2.7,2.6,2.7,4.5
								c0.1,1.9-1.1,3.7-2.5,4.7s-3.1,1.5-4.7,1.9c-4.8,1.3-9.8,2.5-14.7,1.8c-3.6-0.5-7.9-2.3-10.2-5.6
								C234.4,629.7,238.4,627.2,242,626.4z"/>
							<path class="st22" d="M242,626.4c6.6-1.5,13.4-1.9,20.1-1.1c1.7,0.2,3.4,0.5,4.8,1.4c1.5,0.9,2.7,2.6,2.7,4.5
								c0.1,1.9-1.1,3.7-2.5,4.7s-3.1,1.5-4.7,1.9c-4.8,1.3-9.8,2.5-14.7,1.8c-3.6-0.5-7.9-2.3-10.2-5.6
								C234.4,629.7,238.4,627.2,242,626.4z"/>
						</g>
						<g>
							<g>
								<path class="st11" d="M221.8,626.3c-1.3-1-2.6-2.1-3.3-3.6c-0.7-1.5-0.8-3.6,0.3-4.9c1.5-1.8,10-4.4,12.2-4.9
									c1.8-0.4,3.6,0.3,5.3,1.1c2.4,1.1,4.8,2.4,7.2,3.7c1.2,0.6,2.4,1.3,3.3,2.4c0.9,1.1,1.5,2.6,1.1,4.1c-0.5,2-2.4,3.1-4.2,3.7
									c-4.6,1.6-9.4,2.4-14.1,2.2C230,630.1,224,627.9,221.8,626.3z"/>
							</g>
							<g class="st25">
								<path d="M221.8,626.3c-1.3-1-2.6-2.1-3.3-3.6c-0.7-1.5-0.8-3.6,0.3-4.9c1.5-1.8,10-4.4,12.2-4.9c1.8-0.4,3.6,0.3,5.3,1.1
									c2.4,1.1,4.8,2.4,7.2,3.7c1.2,0.6,2.4,1.3,3.3,2.4c0.9,1.1,1.5,2.6,1.1,4.1c-0.5,2-2.4,3.1-4.2,3.7
									c-4.6,1.6-9.4,2.4-14.1,2.2C230,630.1,224,627.9,221.8,626.3z"/>
							</g>
						</g>
						<path class="st11" d="M239.1,629.7c2.1,0.6,4.1,2.1,5.1,4.3c1,2.2,0.7,5.2-1,6.7c-1.2,1.1-2.9,1.3-4.5,1.5
							c-1.9,0.2-3.9,0.4-5.8,0.6c-1.2,0.1-2.6,0.2-3.6-0.6c-1.4-1.1-1.5-3.3-1.5-5.2c0-1.8,0-3.7,0.7-5.3c0.8-2.1,2.3-3.2,4.2-2.9
							C234.8,629.1,237.1,629.1,239.1,629.7z"/>
						<g>
							<path class="st11" d="M193,590.9c-3.4-4.4-8.4-7.3-13.6-7.8c-0.3,0-0.6,0-0.9,0.1c-0.3,0.3-0.4,0.8-0.4,1.2
								c-0.1,6.9,2,13.9,5.8,19.3c1.8,2.5,4,4.7,6.7,5.7c1.9,0.7,4.3,0.7,6.1-0.4c1.9-1.1,1.5-2.6,1.3-4.7
								C197.7,599.4,195.9,594.7,193,590.9z"/>
							<path class="st8" d="M193,590.9c-3.4-4.4-8.4-7.3-13.6-7.8c-0.3,0-0.6,0-0.9,0.1c-0.3,0.3-0.4,0.8-0.4,1.2
								c-0.1,6.9,2,13.9,5.8,19.3c1.8,2.5,4,4.7,6.7,5.7c1.9,0.7,4.3,0.7,6.1-0.4c1.9-1.1,1.5-2.6,1.3-4.7
								C197.7,599.4,195.9,594.7,193,590.9z"/>
						</g>
						<g>
							<path class="st11" d="M226.2,594.1c-2.6-4.6-4.4-10.4-4.5-16.6c-0.1-5.2,1.1-10.3,2.8-14.7c1.7-4.4,3.9-8.2,6.1-11.9
								c0.7,11.3,0.9,22.7,0.6,34c-0.1,2.4-0.2,4.9-0.9,7c-0.7,2.1-2.2,3.8-3.6,3.2L226.2,594.1z"/>
						</g>
						<g>
							<path class="st11" d="M216.4,559.6c4.8,7.1,7.8,17.4,8.2,28.1c0.1,3.8-0.1,7.7-1.2,11c-1.1,3.3-3.3,5.8-5.6,5.5
								c-2.4-0.4-4.2-3.5-5.5-6.8c-2.2-5.4-4.9-13.1-3.7-19.8C210,570.4,212.7,564,216.4,559.6z"/>
							<path class="st23" d="M216.4,559.6c4.8,7.1,7.8,17.4,8.2,28.1c0.1,3.8-0.1,7.7-1.2,11c-1.1,3.3-3.3,5.8-5.6,5.5
								c-2.4-0.4-4.2-3.5-5.5-6.8c-2.2-5.4-4.9-13.1-3.7-19.8C210,570.4,212.7,564,216.4,559.6z"/>
						</g>
						<g>
							<path class="st11" d="M201.8,599.2c-3.9-3.7-5.5-9.8-5.4-15.5c0.2-5.8,1.9-11.3,3.6-16.7c3.8,5.2,6.9,11.2,9.2,17.5
								c0.9,2.4,1.6,4.9,1.7,7.5s-0.7,5.3-2.4,7.1c-1.7,1.7-4.5,2.2-6.3,0.7c0.2,0.1,0.4,0.3,0.7,0.4L201.8,599.2z"/>
						</g>
						<g class="st24">
							<path d="M201.8,599.2c-3.9-3.7-5.5-9.8-5.4-15.5c0.2-5.8,1.9-11.3,3.6-16.7c3.8,5.2,6.9,11.2,9.2,17.5
								c0.9,2.4,1.6,4.9,1.7,7.5s-0.7,5.3-2.4,7.1c-1.7,1.7-4.5,2.2-6.3,0.7c0.2,0.1,0.4,0.3,0.7,0.4L201.8,599.2z"/>
						</g>
						<g>
							<g>
								<path class="st11" d="M192.8,576.6c-1,7.1-1.9,14.4-0.7,21.5c1.2,7.1,5,14,11,16.5c2.5,1,5.7,1,7.3-1.3
									c1.1-1.6,1.2-3.8,0.7-5.8c-0.5-1.9-1.5-3.6-2.6-5.3C203.8,594.6,193.9,575.9,192.8,576.6L192.8,576.6z"/>
							</g>
							<g>
								<path class="st11" d="M192.8,576.6c-1,7.1-1.9,14.4-0.7,21.5c1.2,7.1,5,14,11,16.5c2.5,1,5.7,1,7.3-1.3
									c1.1-1.6,1.2-3.8,0.7-5.8c-0.5-1.9-1.5-3.6-2.6-5.3C203.8,594.6,193.9,575.9,192.8,576.6L192.8,576.6z"/>
							</g>
							<g class="st25">
								<path d="M192.8,576.6c-1,7.1-1.9,14.4-0.7,21.5c1.2,7.1,5,14,11,16.5c2.5,1,5.7,1,7.3-1.3c1.1-1.6,1.2-3.8,0.7-5.8
									c-0.5-1.9-1.5-3.6-2.6-5.3C203.8,594.6,193.9,575.9,192.8,576.6L192.8,576.6z"/>
							</g>
						</g>
						<path class="st11" d="M211.2,586.3c-2.3,4.2-4.3,8.8-5.1,13.7s-0.4,10.2,1.8,14.5c2.2,4.3,6.3,7.5,10.7,7.5
							c3.4,0,6.7-2,8.5-5.3c2-3.6,0.5-6.8-1-10.3C222.7,598.5,216.9,592.2,211.2,586.3z"/>
						<g>
							<path class="st11" d="M167.5,600c-1.2,1.9-1.1,4.6-0.3,6.8c0.8,2.2,2.2,4,3.8,5.6c10.3,11,24.9,16.6,38.9,14.9
								c1.2-0.1,2.5-0.4,3.1-1.6c0.7-1.3,0.1-3-1-3.9c-1-0.9-2.4-1.2-3.6-1.5c-7.2-1.8-14.1-4.9-20.4-9.3
								C181.7,606.6,174.2,603.6,167.5,600z"/>
							<path class="st23" d="M167.5,600c-1.2,1.9-1.1,4.6-0.3,6.8c0.8,2.2,2.2,4,3.8,5.6c10.3,11,24.9,16.6,38.9,14.9
								c1.2-0.1,2.5-0.4,3.1-1.6c0.7-1.3,0.1-3-1-3.9c-1-0.9-2.4-1.2-3.6-1.5c-7.2-1.8-14.1-4.9-20.4-9.3
								C181.7,606.6,174.2,603.6,167.5,600z"/>
						</g>
						<path class="st11" d="M191.7,598.9c-1-1.6-2.4-3.3-4.1-3.1c-1.3,0.2-2.3,1.5-2.8,2.9c-2.2,5.6,0.4,12.4,4.7,16.2
							c4.3,3.8,9.7,5.2,15,6.5c1.8,0.5,3.6,0.9,5.4,1.4c2.2,0.5,6.5-0.2,4.6-3.6c-1.3-2.3-5.6-3.6-7.6-4.9
							C201,610.3,195.8,605.1,191.7,598.9z"/>
						<g>
							<path class="st11" d="M192.4,643.2c-6.8-0.5-13.3-3.6-18.9-8c-1.1-0.8-2.2-2.2-1.8-3.6c0.3-1,1.3-1.4,2.2-1.7
								c6.4-2.2,13-4.3,19.7-4c3.2,0.1,6.3,0.9,9.2,2.4c2.3,1.1,6.9,4,7.6,7c0.7,3.1-5.2,5.4-7.3,6.3
								C199.6,642.9,196,643.4,192.4,643.2z"/>
							<path class="st23" d="M192.4,643.2c-6.8-0.5-13.3-3.6-18.9-8c-1.1-0.8-2.2-2.2-1.8-3.6c0.3-1,1.3-1.4,2.2-1.7
								c6.4-2.2,13-4.3,19.7-4c3.2,0.1,6.3,0.9,9.2,2.4c2.3,1.1,6.9,4,7.6,7c0.7,3.1-5.2,5.4-7.3,6.3
								C199.6,642.9,196,643.4,192.4,643.2z"/>
						</g>
						<g>
							<path class="st11" d="M219.1,626.4c-6.6-1.5-13.4-1.9-20.1-1.1c-1.7,0.2-3.4,0.5-4.8,1.4c-1.5,0.9-2.7,2.6-2.7,4.5
								c-0.1,1.9,1.1,3.7,2.5,4.7c1.4,1,3.1,1.5,4.7,1.9c4.8,1.3,9.8,2.5,14.7,1.8c3.6-0.5,7.9-2.3,10.2-5.6
								C226.7,629.7,222.7,627.2,219.1,626.4z"/>
							<path class="st22" d="M219.1,626.4c-6.6-1.5-13.4-1.9-20.1-1.1c-1.7,0.2-3.4,0.5-4.8,1.4c-1.5,0.9-2.7,2.6-2.7,4.5
								c-0.1,1.9,1.1,3.7,2.5,4.7c1.4,1,3.1,1.5,4.7,1.9c4.8,1.3,9.8,2.5,14.7,1.8c3.6-0.5,7.9-2.3,10.2-5.6
								C226.7,629.7,222.7,627.2,219.1,626.4z"/>
						</g>
						<g>
							<g>
								<path class="st11" d="M239.3,626.3c1.3-1,2.6-2.1,3.3-3.6c0.7-1.5,0.8-3.6-0.3-4.9c-1.5-1.8-10-4.4-12.2-4.9
									c-1.8-0.4-3.6,0.3-5.3,1.1c-2.4,1.1-4.8,2.4-7.2,3.7c-1.2,0.6-2.4,1.3-3.3,2.4c-0.9,1.1-1.5,2.6-1.1,4.1
									c0.5,2,2.4,3.1,4.2,3.7c4.6,1.6,9.4,2.4,14.1,2.2C231.1,630.1,237.2,627.9,239.3,626.3z"/>
							</g>
							<g class="st25">
								<path d="M239.3,626.3c1.3-1,2.6-2.1,3.3-3.6c0.7-1.5,0.8-3.6-0.3-4.9c-1.5-1.8-10-4.4-12.2-4.9c-1.8-0.4-3.6,0.3-5.3,1.1
									c-2.4,1.1-4.8,2.4-7.2,3.7c-1.2,0.6-2.4,1.3-3.3,2.4c-0.9,1.1-1.5,2.6-1.1,4.1c0.5,2,2.4,3.1,4.2,3.7
									c4.6,1.6,9.4,2.4,14.1,2.2C231.1,630.1,237.2,627.9,239.3,626.3z"/>
							</g>
						</g>
						<path class="st11" d="M222,629.7c-2.1,0.6-4.1,2.1-5.1,4.3c-1,2.2-0.7,5.2,1,6.7c1.2,1.1,2.9,1.3,4.5,1.5
							c1.9,0.2,3.9,0.4,5.8,0.6c1.2,0.1,2.6,0.2,3.6-0.6c1.4-1.1,1.5-3.3,1.5-5.2c0-1.8,0-3.7-0.7-5.3c-0.8-2.1-2.3-3.2-4.2-2.9
							C226.3,629.1,224,629.1,222,629.7z"/>
						<g>
							<path class="st11" d="M231.6,588.1c-0.4-0.3-0.7-0.5-1-0.6c0.1-0.1,0.2-0.1,0.3-0.1c0.1,0,0.1,0,0.2,0.1h0
								c0.1,0,0.1,0.1,0.2,0.1c0.1,0.1,0.1,0.1,0.2,0.2C231.5,587.9,231.5,587.9,231.6,588.1C231.6,588,231.6,588,231.6,588.1z"/>
							<path class="st26" d="M231.6,588.1L231.6,588.1c-0.4-0.3-0.7-0.5-1-0.6c0.1-0.1,0.2-0.1,0.3-0.1c0.1,0,0.1,0,0.2,0.1h0
								c0.1,0,0.1,0.1,0.2,0.1c0.1,0.1,0.1,0.1,0.2,0.2C231.5,587.9,231.5,587.9,231.6,588.1C231.6,588,231.6,588,231.6,588.1z"/>
							<g>
								<g>
									<path class="st11" d="M238.8,607.8c-0.7,2-1.7,3.9-3,5.3c-1.3,1.5-3.2,2.5-5,2.4c-0.1,0-0.1,0-0.2,0h0c-0.1,0-0.1,0-0.2,0
										c-1.9,0.1-3.7-1-5-2.4c-1.3-1.5-2.3-3.4-3-5.3c-0.9-2.6-1.6-5.4-1.2-8.2c0.4-3.1,2.1-5.8,4.1-7.9c0.5,0,2.2-2,2.8-2.4
										c0,0,0.1-0.1,0.1-0.1c0-0.1,0.1-0.1,0.2-0.1c0.4-0.3,0.8-0.7,1.3-1.1c0.2-0.2,0.4-0.3,0.6-0.4c0.1,0,0.1-0.1,0.2-0.1
										c0.1,0,0.1-0.1,0.2-0.1c0.3,0.1,0.7,0.4,1,0.6h0c0.6,0.5,1.3,1.1,1.6,1.3c0.5,0.4,2.2,2.4,2.8,2.4c2,2.1,3.7,4.8,4.1,7.9
										C240.4,602.4,239.8,605.2,238.8,607.8z"/>
									<path class="st11" d="M230.6,587.4c-0.1,0-0.1,0.1-0.2,0.1c-0.1,0-0.1,0.1-0.2,0.1c-0.2,0.1-0.4,0.3-0.6,0.4
										c0.1-0.4,0.4-0.7,0.7-0.7C230.3,587.4,230.4,587.4,230.6,587.4z"/>
								</g>
								<g class="st24">
									<path class="st1" d="M238.8,607.8c-0.7,2-1.7,3.9-3,5.3c-1.3,1.5-3.2,2.5-5,2.4c-0.1,0-0.1,0-0.2,0h0c-0.1,0-0.1,0-0.2,0
										c-1.9,0.1-3.7-1-5-2.4c-1.3-1.5-2.3-3.4-3-5.3c-0.9-2.6-1.6-5.4-1.2-8.2c0.4-3.1,2.1-5.8,4.1-7.9c0.5,0,2.2-2,2.8-2.4
										c0.3-0.2,1-0.9,1.6-1.3c0.4-0.3,0.7-0.5,1-0.6c0.3,0.1,0.7,0.4,1,0.6c0.6,0.5,1.3,1.1,1.6,1.3c0.5,0.4,2.2,2.4,2.8,2.4
										c2,2.1,3.7,4.8,4.1,7.9C240.4,602.4,239.8,605.2,238.8,607.8z"/>
									<path class="st1" d="M230.6,587.4c-0.3,0.1-0.6,0.3-1,0.6c0.1-0.4,0.4-0.7,0.7-0.7C230.3,587.4,230.4,587.4,230.6,587.4z"
										/>
								</g>
							</g>
						</g>
						<path class="st22" d="M231.6,588.1c-0.4-0.3-0.7-0.5-1-0.6c0.1-0.1,0.2-0.1,0.3-0.1C231.2,587.4,231.4,587.7,231.6,588.1z"/>
					</g>
				</g>
			</g>
		</g>
		<g id="Character">
			<g>
				<g>
					<g>
						<g>
							<path class="st11" d="M565.8,428.9h48.4c1.6,0,2.3-1.3,1.6-2.9l-12.1-27.3c-0.7-1.6-2.5-2.9-4.1-2.9h-48.4
								c-1.6,0-2.3,1.3-1.6,2.9l12.1,27.3C562.3,427.7,564.2,428.9,565.8,428.9z"/>
							<path class="st8" d="M565.8,428.9h48.4c1.6,0,2.3-1.3,1.6-2.9l-12.1-27.3c-0.7-1.6-2.5-2.9-4.1-2.9h-48.4
								c-1.6,0-2.3,1.3-1.6,2.9l12.1,27.3C562.3,427.7,564.2,428.9,565.8,428.9z"/>
							<path class="st11" d="M549,395.9h2.1c-1.6,0-2.3,1.3-1.6,2.9l12.1,27.3c0.7,1.6,2.5,2.9,4.1,2.9h-2.1c-1.6,0-3.4-1.3-4.1-2.9
								l-12.1-27.3C546.7,397.2,547.4,395.9,549,395.9z"/>
							<path class="st27" d="M549,395.9h2.1c-1.6,0-2.3,1.3-1.6,2.9l12.1,27.3c0.7,1.6,2.5,2.9,4.1,2.9h-2.1c-1.6,0-3.4-1.3-4.1-2.9
								l-12.1-27.3C546.7,397.2,547.4,395.9,549,395.9z"/>
						</g>
						<g>
							<polygon class="st18" points="566.7,425.8 610.4,425.8 598.6,399.1 554.8,399.1 							"/>
							<polygon class="st28" points="566.7,425.8 610.4,425.8 598.6,399.1 554.8,399.1 							"/>
						</g>
					</g>
					<g>
						<g>
							<polygon class="st29" points="546.8,654.3 543.8,668.3 528.7,666.3 530.9,650.8 							"/>
							<g>
								<path class="st11" d="M521,666.3c-2-0.2-4-0.8-4.6-1.7c-0.3-0.5-0.2-1.2,0.2-1.6c0.3-0.4,0.8-0.7,1.3-0.8
									c2.7-0.5,8,3.2,8.2,3.4c0.1,0.1,0.2,0.3,0.1,0.4c0,0.2-0.2,0.3-0.3,0.3C524.2,666.4,522.6,666.4,521,666.3z M518.7,662.9
									c-0.2,0-0.5,0-0.7,0c-0.3,0-0.6,0.2-0.8,0.5c-0.3,0.4-0.3,0.7-0.2,0.8c0.6,1.1,4.6,1.5,7.6,1.5
									C522.9,664.4,520.9,663.5,518.7,662.9z"/>
								<path class="st11" d="M525.8,666.3c-0.1,0-0.1,0-0.2,0c-1.8-1-5.3-4.9-4.8-6.6c0.1-0.4,0.5-0.9,1.5-0.9c0.8,0,1.5,0.3,2,0.9
									c1.9,1.9,1.9,6.2,1.9,6.4c0,0.1-0.1,0.3-0.2,0.3C526,666.3,525.9,666.3,525.8,666.3z M522.6,659.5l-0.2,0
									c-0.7,0-0.8,0.3-0.8,0.4c-0.2,1.1,2,4,3.9,5.4c0-1.8-0.6-3.6-1.6-5.1C523.5,659.7,523,659.5,522.6,659.5L522.6,659.5z"/>
								<path class="st18" d="M527.7,664.2l17.4,1.7c0.7,0.1,1.2,0.6,1.3,1.2l1.8,14.4c0.2,1.3-0.7,2.4-2,2.6c-0.2,0-0.3,0-0.5,0
									c-6.2-0.7-11.8-1.6-19.6-2.4c-9.2-0.9-7,0.4-17.8-0.5c-6.5-0.6-7-8.1-4.2-8.2c12.8-0.4,14.5-4,19.8-8.1
									C525,664.4,526.3,664.1,527.7,664.2z"/>
							</g>
							<polygon class="st8" points="529.7,658.9 545.5,660.2 546.8,654.3 530.9,650.8 							"/>
							<polygon class="st18" points="542.6,538.8 527.6,648.7 550.8,650.6 577.9,541.6 							"/>
							<polygon class="st30" points="542.6,538.8 527.6,648.7 550.8,650.6 577.9,541.6 							"/>
							<path class="st11" d="M553,648.9l-28-2.2c0,0-2.4,3.6,0.2,6.9l27.1,2.4C552.2,656.1,554.9,654.5,553,648.9z"/>
						</g>
						<g>
							<path class="st29" d="M569.3,430.1l-5.7-13.8c-0.5-0.8-1.2-1.3-2-1.6l-2.9-1c-0.6-0.2-1.2-0.6-1.6-1.1l-1.3-1.4
								c-1.2-1.3-3.1-1.7-4.7-1l-1.2,0.5c-1.2,0.5-2.2,1.7-2.4,3c-0.7,4.1-1.3,12.9,6,18.9l8.2,3.4L569.3,430.1z"/>
							<polygon class="st29" points="561.7,436 572.6,452.4 580.2,444.3 569.3,430.1 							"/>
						</g>
						<g>
							<g>
								<g>
									<g>
										<path class="st18" d="M627.7,397c-0.6-1.1-9.3,2.1-19.6,7.3c-10.3,5.2-18.1,10.2-17.5,11.4c0.6,1.1,9.3-2.1,19.6-7.3
											C620.4,403.2,628.2,398.1,627.7,397z"/>
										<g>
											<path class="st11" d="M614.6,401.2c1-0.4,1.9-0.8,2.8-1.2l1.8,3.5c-0.8,0.5-1.7,1-2.6,1.5L614.6,401.2z"/>
											<path class="st31" d="M614.6,401.2c1-0.4,1.9-0.8,2.8-1.2l1.8,3.5c-0.8,0.5-1.7,1-2.6,1.5L614.6,401.2z"/>
										</g>
									</g>
									<g>
										<g>
											<path class="st11" d="M624.5,396.7c0.5-2.3-8.8,1.8-9.3,2.1c-0.6,0.3-1.1-0.7-0.4-1c0.7-0.3,11.8-5.7,10.8-0.9
												C625.5,397.5,624.4,397.4,624.5,396.7L624.5,396.7z"/>
										</g>
										<g class="st24">
											<path d="M624.5,396.7c0.5-2.3-8.8,1.8-9.3,2.1c-0.6,0.3-1.1-0.7-0.4-1c0.7-0.3,11.8-5.7,10.8-0.9
												C625.5,397.5,624.4,397.4,624.5,396.7L624.5,396.7z"/>
										</g>
									</g>
								</g>
								<path class="st29" d="M625,434l-9-15.4c0,0,0.4-6.8-4.3-14.9c-0.3-0.6-3.4-3-3.4-3c-3.5,1.8-6,3.6-7.1,4.4
									c-3.3,2.5-4.2,4.3-0.1,10.5c3.3,5.1,7.3,7.9,7.3,7.9l8.5,17.4L625,434z"/>
								<path class="st11" d="M627,432.1l-3.9-6.2c0,0-7.2,1-12,9.3l3.3,7.2L627,432.1z"/>
								<path class="st18" d="M672.4,397.8c-6.8,0.5-12.8-0.7-24.5,36c-2.2,6.8-7.8,13.7-7.8,13.7L627.3,430c0,0-8.4,0.5-14.2,10.8
									c0,0,9.9,33.2,28.5,30.8c18.6-2.4,29-23.8,33.1-36.5C678.8,422.3,687.5,396.8,672.4,397.8z"/>
							</g>
							<g>
								<polygon class="st29" points="639.2,381 638,392.4 657.1,392.5 657.5,378.1 								"/>
								<path class="st8" d="M638.8,386.5c4.8-1.3,8-7,8-7l-4.1,0.8l-3.5,0.7L638.8,386.5z"/>
								<path class="st18" d="M634,349.1c-0.4,0.9-0.2,1.8,0.4,2.1c0.6,0.2,1.4-0.3,1.8-1.2c0.3-0.9,0.2-1.8-0.4-2
									C635.2,347.7,634.4,348.2,634,349.1z"/>
								<path class="st32" d="M636.4,351.5l-7.3,5.3c0,0,1.7,2.6,5.5,2.7L636.4,351.5z"/>
								<path class="st18" d="M637.5,343.6c0.2,0,0.3,0.1,0.4,0.3c0.6,1.2,1.7,2,3,2.2c0.3,0,0.5,0.3,0.5,0.5c0,0.3-0.3,0.5-0.6,0.5
									c-1.6-0.2-3-1.2-3.8-2.7c-0.1-0.2,0-0.6,0.2-0.7l0,0C637.3,343.6,637.4,343.6,637.5,343.6z"/>
								<path class="st29" d="M670.6,359.6c-4.3,12.2-5.8,17.5-14.1,22.1c-11.6,3.8-26.8-0.8-26.3-14c0.4-11.9,7.3-29.8,21.2-31.4
									c9.9-1.2,18.9,5.7,20.1,15.3C671.8,354.2,671.5,357,670.6,359.6z"/>
								<path class="st18" d="M676.6,369.5c-3.2,2.6-6.1,5.5-8.9,8.5c-1.7,1.8-3.7,3.3-6,4.4c-4.5,2.1-9.8,2.1-14.6,0.6
									c0,0-0.5,0.7,0,0c0,0-12.7-11.2-4.2-32.1c-3.2-2.3-5.2-6.3-5.1-10.3c0.1-4,2.3-7.8,5.7-10c4-2.5,10.2-0.9,13.9,2
									c5-1.2,10.3,0.6,14,4.1c3.8,3.5,6.1,8.2,7.8,13.1c1.5,4.1,2.5,8.6,1.6,12.9C680.3,365.3,678.7,367.8,676.6,369.5z"/>
								<path class="st29" d="M644.1,355.3c-2.4,1.2-4.3,3.2-5.2,5.7c-1.1,3.3,1.9,5.2,5.2,4.4c3-0.7,7.1-3.2,6.8-6.6
									C650.7,355.4,647.1,353.9,644.1,355.3z"/>
								<g>
									<path class="st11" d="M661.3,385c-4.2-1.8-11.9-2-22.9-0.3c-1.2,0.2-2.2,1.4-2.6,2.5c-0.4,1.2,0.2,2.8,1.4,2.9
										c-0.1,1.6-0.5,3.4-0.6,5c3.1-0.3,6.5,0.4,9.7,0.5c5,0.3,9.9,1.1,14.9,2c-0.3-2.3-1-4.8-0.5-7.1c1.1,0.2,2.3-0.9,2.6-2
										C663.5,387.4,662.4,385.4,661.3,385z"/>
									<path class="st11" d="M661.3,385c-4.2-1.8-11.9-2-22.9-0.3c-1.2,0.2-2.2,1.4-2.6,2.5c-0.4,1.2,0.2,2.8,1.4,2.9
										c-0.1,1.6-0.5,3.4-0.6,5c3.1-0.3,6.5,0.4,9.7,0.5c5,0.3,9.9,1.1,14.9,2c-0.3-2.3-1-4.8-0.5-7.1c1.1,0.2,2.3-0.9,2.6-2
										C663.5,387.4,662.4,385.4,661.3,385z"/>
								</g>
							</g>
							<path class="st11" d="M609.1,506c0,0-3.9-52.4-3.7-90.2c0.2-27.9,20.2-22.9,46-22.7c20.4,0.1,27.4,1.9,30.2,13
								c2.8,11.1-11,100.3-11,100.3L609.1,506z"/>
							<path class="st21" d="M609.1,506c0,0-3.9-52.4-3.7-90.2c0.2-27.9,20.2-22.9,46-22.7c20.4,0.1,27.4,1.9,30.2,13
								c2.8,11.1-11,100.3-11,100.3L609.1,506z"/>
							<path class="st11" d="M571.3,432c-1.4,0.1-3.2,0.5-4.7,1.8c-1.5,1.2-3.9,3.6-4.9,6.5l0,0c-1.7-2.9-4-5.3-6.8-7.1l-0.2-0.1
								c0.9-12.4,11.1-11.4,11.1-11.4l0.3,0.6C567.5,425.8,569.3,429,571.3,432z"/>
							<path class="st8" d="M571.3,432c-1.4,0.1-3.2,0.5-4.7,1.8c-1.5,1.2-3.9,3.6-4.9,6.5l0,0c-1.7-2.9-4-5.3-6.8-7.1l-0.2-0.1
								c0.9-12.4,11.1-11.4,11.1-11.4l0.3,0.6C567.5,425.8,569.3,429,571.3,432z"/>
							<g>
								<g>
									<path class="st11" d="M598.4,476.1c-18.8-0.4-36.7-31.4-36.7-31.4c-0.4-1.5-0.3-3,0.1-4.3c0.9-2.9,3.4-5.3,4.9-6.5
										c1.6-1.3,3.3-1.8,4.7-1.8c2-0.1,3.4,0.5,3.4,0.5s13.8,17.1,17.2,15.5c3.3-1.5,4.7-7.2,5.9-14.3
										c6.6-37.8,13.8-38.9,20.1-39.1C631.2,394.3,615,476.4,598.4,476.1z"/>
								</g>
							</g>
							<g class="st25">
								<g>
									<path class="st1" d="M598.4,476.1c-18.8-0.4-36.7-31.4-36.7-31.4c-0.4-1.5-0.3-3,0.1-4.3c0.9-2.9,3.4-5.3,4.9-6.5
										c1.6-1.3,3.3-1.8,4.7-1.8c2-0.1,3.4,0.5,3.4,0.5s13.8,17.1,17.2,15.5c3.3-1.5,4.7-7.2,5.9-14.3
										c6.6-37.8,13.8-38.9,20.1-39.1C631.2,394.3,615,476.4,598.4,476.1z"/>
								</g>
							</g>
						</g>
						<g>
							<path class="st18" d="M670.6,506.3c0,0,1.6,16,1.4,21.6c-1.2,29.8-29.4,40.3-51.9,36.2l-79.9-8.7
								c-3.2,10.8-40.9,70.4-40.9,70.4l-19.8-11.4c0,0,20.5-49.2,33.8-83.4c7.6-19.5,67.6-20.1,90.2-16.1c6.9,1.9,5.6-8.9,5.6-8.9
								L670.6,506.3z"/>
							<polygon class="st29" points="494.3,626.9 486.7,639.5 472.7,632.5 480,618.1 							"/>
							<g>
								<path class="st11" d="M465.2,629.9c-1.9-0.9-3.6-2.1-3.9-3.2c-0.1-0.6,0.2-1.2,0.7-1.5c0.4-0.3,1-0.4,1.5-0.3
									c2.8,0.5,6.7,5.8,6.8,6.1c0.1,0.1,0.1,0.3,0,0.4c-0.1,0.1-0.3,0.2-0.4,0.2C468.3,631.1,466.7,630.6,465.2,629.9z
									 M464.1,625.9c-0.2-0.1-0.5-0.2-0.7-0.2c-0.3-0.1-0.7,0-0.9,0.2c-0.5,0.3-0.5,0.6-0.4,0.7c0.2,1.3,4,3,7,4
									C467.7,628.7,466,627.1,464.1,625.9z"/>
								<path class="st11" d="M469.9,631.5c-0.1,0-0.1,0-0.1-0.1c-1.4-1.6-3.5-6.5-2.4-8c0.2-0.4,0.8-0.7,1.8-0.4
									c0.7,0.3,1.4,0.8,1.7,1.5c1.2,2.4-0.3,6.7-0.3,6.9c0,0.1-0.2,0.2-0.3,0.2C470,631.6,469.9,631.6,469.9,631.5z M469,623.8
									l-0.2-0.1c-0.7-0.2-0.8,0-0.9,0.1c-0.6,1,0.6,4.6,2,6.5c0.6-1.8,0.6-3.7,0.1-5.5C469.8,624.4,469.4,624,469,623.8L469,623.8
									z"/>
								<path class="st18" d="M472.4,630.2l16.3,7.5c0.6,0.3,1,1,0.8,1.6l-3.1,14.6c-0.3,1.3-1.5,2.1-2.8,1.9
									c-0.2,0-0.3-0.1-0.5-0.2c-5.8-2.8-10.9-5.5-18.3-8.9c-8.6-4-6.9-1.9-17.2-6.4c-6.2-2.7-4.1-10.2-1.3-9.4
									c12.6,3.9,15.4,0.9,22-1.2C469.7,629.4,471.2,629.5,472.4,630.2z"/>
							</g>
							<polygon class="st8" points="490.5,633.3 494.3,626.9 480,618.1 476.4,625.1 							"/>
							<path class="st11" d="M502.5,626.8L478,611.5c0,0-3.9,2.2-3.1,6.4l23.6,15C498.4,633,501.6,632.8,502.5,626.8z"/>
						</g>
					</g>
				</g>
				<g>
					<g>
						<path class="st11" d="M641.2,568.7h40.7c15.7,0,28.7-12.1,30-27.7l5.8-73.1c0.9-11.8-8.4-22-20.3-22h-22.5
							c-26.2,0-49.3,17.2-56.8,42.3l-15.6,52.2c-2.6,8.7-10.7,14.7-19.8,14.7h-28.4c-7.4,0-13.5,6-13.5,13.5h76.5L641.2,568.7
							L641.2,568.7z"/>
					</g>
					<g>
						<g>
							<path class="st11" d="M622.9,568.7c1.1,17.4,4.1,80.7-0.4,94.6c-3.9,12.3-22,15.2-32.6,21.7c-1.8,1.1-1.2,4.6,0.8,4.6h83
								c2,0,2.6-3.5,0.8-4.6c-10.6-6.5-28.7-9.4-32.6-21.7c-4.5-13.9-1.5-77.3-0.4-94.6H622.9z"/>
						</g>
						<path class="st8" d="M623.7,581.8h17.1c0.3-5.3,0.6-9.9,0.8-13.1h-18.6C623.1,571.9,623.4,576.5,623.7,581.8z"/>
					</g>
					<g>
						<path class="st19" d="M641.2,568.7h40.7c15.7,0,28.7-12.1,30-27.7l5.8-73.1c0.9-11.8-8.4-22-20.3-22h-22.5
							c-26.2,0-49.3,17.2-56.8,42.3l-15.6,52.2c-2.6,8.7-10.7,14.7-19.8,14.7h-28.4c-7.4,0-13.5,6-13.5,13.5h76.5L641.2,568.7
							L641.2,568.7z"/>
					</g>
				</g>
			</g>
		</g>
	</g>
</g>
</svg>
