<svg width="118" height="118" viewBox="0 0 118 118" fill="none" xmlns="http://www.w3.org/2000/svg">
<mask id="mask0_2_386" style="mask-type:alpha" maskUnits="userSpaceOnUse" x="0" y="0" width="118" height="118">
<circle cx="59" cy="59" r="59" transform="matrix(-1 0 0 1 118 0)" fill="#78AEB1"/>
</mask>
<g mask="url(#mask0_2_386)">
<circle cx="59" cy="59" r="59" transform="matrix(-1 0 0 1 118 0)" fill="#78AEB1"/>
<path fill-rule="evenodd" clip-rule="evenodd" d="M80.5176 43.0353C80.5176 44.2123 80.4545 45.3709 80.3323 46.5059C80.3323 46.5059 81.0959 45.1958 81.9059 44.7706C81.9856 44.7287 82.0592 44.6856 82.1296 44.6444C82.3944 44.4892 82.6144 44.3603 82.947 44.4235C83.4967 44.528 83.4246 45.0717 83.3456 45.6669C83.3082 45.9488 83.2693 46.2421 83.2941 46.5059C83.2941 46.5059 83.2856 49.4927 82.947 51.3647C82.6721 52.8854 82.4746 53.7455 81.9059 55.1824C81.4597 56.3095 80.5176 57.9588 80.5176 57.9588L80.2934 57.955C79.6148 63.6721 77.434 68.7741 74.2706 72.6092V81.2118L76.3529 84.6824L71.8411 100.3H46.5059L43.18 81.2118V68.7177C41.3454 65.3856 40.1224 61.483 39.7146 57.2652L39.683 57.2647C39.683 57.2647 38.9336 57.4567 38.5235 57.2647C38.1194 57.0755 38.0742 56.7119 38.0241 56.3094C37.9923 56.0535 37.9585 55.7819 37.8294 55.5294C37.5735 55.029 37.2746 54.6925 36.9789 54.3596C36.6612 54.0019 36.3472 53.6483 36.0941 53.1C35.5438 51.9076 35.5031 51.0161 35.4509 49.8715C35.4376 49.5791 35.4235 49.2701 35.4 48.9353C35.3876 48.7587 35.3748 48.593 35.3627 48.435L35.3627 48.4348L35.3626 48.4348C35.291 47.5042 35.2401 46.8421 35.4 45.8118C35.4439 45.5285 35.4425 45.2328 35.4411 44.9475C35.4377 44.2509 35.4346 43.6171 36.0941 43.3823C36.4369 43.2603 36.6788 43.3027 37.0133 43.3613C37.0526 43.3682 37.0931 43.3753 37.1353 43.3823C38.491 43.6103 39.683 45.8118 39.683 45.8118C39.6048 44.8997 39.5647 43.9734 39.5647 43.0353C39.5647 28.8513 48.7323 17.3529 60.0412 17.3529C71.35 17.3529 80.5176 28.8513 80.5176 43.0353Z" fill="#EACBAF"/>
<path d="M69.7588 22.9059C66.3549 21.5625 63.944 23.7708 60.3882 22.9059C58.2606 22.3884 57.3696 20.9258 55.1823 20.8235C52.0333 20.6762 50.3259 22.288 47.8941 24.2941C46.1137 25.7629 44.8697 26.6384 44.0765 28.8059C43.2846 30.9696 44.8683 32.5421 44.0765 34.7059C43.2833 36.8734 40.9747 37.0234 40.2588 39.2176C39.6703 41.0216 40.2588 44.0765 40.2588 44.0765V50.3235C40.2588 50.3235 38.076 45.9856 37.1353 43.0353C36.1259 39.8696 35.6789 38.0168 35.4 34.7059C35.2066 32.4099 34.8045 31.0317 35.4 28.8059C36.1092 26.1547 37.0291 24.5618 39.2176 22.9059C41.2684 21.3543 42.9027 21.0449 45.4647 20.8235H47.8941L46.8529 19.7824C46.8529 19.7824 46.4204 17.3915 46.8529 15.9647C47.6041 13.4867 51.7118 11.4529 51.7118 11.4529C51.7118 11.4529 56.9038 9.33772 60.3882 9.37059C63.741 9.40222 68.7176 11.4529 68.7176 11.4529C68.7176 11.4529 74.5958 15.0212 77.7412 18.0471C80.5176 20.718 82.5299 22.1164 83.9882 25.6824C85.3309 28.9657 85.1969 31.1626 85.0294 34.7059C84.8523 38.4504 83.2941 44.7706 83.2941 44.7706C83.2941 44.7706 82.6 43.7294 81.5588 45.1176C80.5177 46.5059 79.8235 51.3647 79.8235 51.3647V46.5059C79.8235 46.5059 80.3839 42.8408 79.8235 40.6059C79.1734 38.013 77.0031 37.2988 76.3529 34.7059C75.7926 32.471 77.1024 30.9847 76.3529 28.8059C75.2289 25.5383 72.973 24.1744 69.7588 22.9059Z" fill="black"/>
<path d="M53.1 92.6647C54.5974 93.6031 55.6324 93.8813 56.9176 95.0941C58.5583 96.6423 60.0412 99.9529 60.0412 99.9529C60.0412 99.9529 61.6455 97.7625 62.8176 96.4824C65.6193 93.4224 68.708 93.2444 71.147 89.8882C72.8222 87.5832 73.5765 83.2941 73.5765 83.2941L74.2706 76.0059H74.6176L76.3529 80.1706L107.935 96.4824C107.935 96.4824 111.203 97.2495 112.794 98.5647C113.757 99.3608 114.876 100.994 114.876 100.994L123.206 118.694H-4.51178C-4.51178 118.694 -3.29649 114.658 -2.42943 112.1C-0.845402 107.428 -1.09518 104.074 2.08234 100.3C4.26467 97.708 6.18262 96.9409 9.02351 95.0941C14.5638 91.4927 24.2941 87.8059 24.2941 87.8059L39.9118 79.8235L43.0353 76.0059C43.0353 76.0059 43.0059 78.4417 43.0353 79.8235C43.0781 81.838 43.2074 82.5175 44.0765 84.3353C44.9688 86.2018 45.445 87.3312 46.8529 88.8471C48.7987 90.9419 50.6773 91.1465 53.1 92.6647Z" fill="#12373F"/>
</g>
</svg>
