<?xml version="1.0" encoding="utf-8"?>
<!-- Generator: Adobe Illustrator 27.5.0, SVG Export Plug-In . SVG Version: 6.00 Build 0)  -->
<svg version="1.1" xmlns="http://www.w3.org/2000/svg" xmlns:xlink="http://www.w3.org/1999/xlink" x="0px" y="0px"
	 viewBox="0 0 153 187" style="enable-background:new 0 0 153 187;" xml:space="preserve">
<style type="text/css">
	.st0{filter:url(#Adobe_OpacityMaskFilter);}
	.st1{fill:url(#SVGID_1_);}
	.st2{mask:url(#Layer_2_00000017477044620683871530000001936212641245282209_);}
	.st3{fill:#E8E0FF;}
	.st4{opacity:0.66;}
	.st5{fill:#B49EFF;}
	.st6{fill:none;stroke:#000000;stroke-linecap:round;stroke-miterlimit:10;}
	.st7{stroke:#000000;stroke-miterlimit:10;}
	.st8{fill:none;stroke:#000000;stroke-linecap:round;stroke-linejoin:round;stroke-miterlimit:10;}
	.st9{fill:#1D1D1B;}
	.st10{fill:#FF6363;}
	.st11{fill:#7A5CE0;}
	.st12{clip-path:url(#SVGID_00000089555687646358645930000001805409928554761915_);}
	.st13{clip-path:url(#SVGID_00000145023648393928705070000017538765816935227562_);}
	.st14{fill:none;stroke:#1C1C1B;stroke-linecap:round;stroke-linejoin:round;stroke-miterlimit:10;}
	.st15{fill:none;stroke:#7A5CE0;stroke-linecap:round;stroke-linejoin:round;stroke-miterlimit:10;}
	.st16{display:none;}
	.st17{display:inline;filter:url(#Adobe_OpacityMaskFilter_00000181055944767589472440000007726129811873431733_);}
	.st18{fill:url(#SVGID_00000033367939505665117460000014668085363426921387_);}
	.st19{display:inline;mask:url(#OBJECTS_00000071520708525527083840000009831557791657778363_);}
	.st20{fill:#DFE6EE;}
	.st21{fill:#4C5980;}
	.st22{fill:#B345B5;}
	.st23{fill:#FFD075;}
	.st24{fill:#FFFFFF;}
	.st25{fill:#D66EC0;}
	.st26{fill:#7991D1;}
	.st27{fill:#313B59;}
	.st28{fill:#EBA7DC;}
	.st29{enable-background:new    ;}
	.st30{fill:#EB9921;}
	.st31{fill:#D5DFE9;}
	.st32{font-family:'ArialMT';}
	.st33{font-size:6.9091px;}
</style>
<g id="Layer_1">
	<defs>
		<filter id="Adobe_OpacityMaskFilter" filterUnits="userSpaceOnUse" x="13.8" y="19.2" width="136.8" height="152.4">
			<feColorMatrix  type="matrix" values="1 0 0 0 0  0 1 0 0 0  0 0 1 0 0  0 0 0 1 0"/>
		</filter>
	</defs>
	
		<mask maskUnits="userSpaceOnUse" x="13.8" y="19.2" width="136.8" height="152.4" id="Layer_2_00000017477044620683871530000001936212641245282209_">
		<g class="st0">
			
				<linearGradient id="SVGID_1_" gradientUnits="userSpaceOnUse" x1="-1039.8234" y1="1261.8" x2="-886.8234" y2="1261.8" gradientTransform="matrix(-1 0 0 1 -886.7234 -1168)">
				<stop  offset="0" style="stop-color:#FFFFFF"/>
				<stop  offset="1" style="stop-color:#231F20"/>
			</linearGradient>
			<rect x="0.1" y="19.2" class="st1" width="153" height="149.2"/>
		</g>
	</mask>
	<g id="Layer_2_00000069395578328069829250000010495203619212909204_" class="st2">
		<g id="OBJECTS">
			<g>
				<g>
					<g>
						<path class="st3" d="M145.5,67.2c-7.7-2.8-16.3-3.4-24.4-1.6c-2.4,0.5-4.8,1.3-6.7,2.8c-1.9,1.5-3.2,3.9-2.9,6.2
							c0.3,2,1.7,3.6,3.5,4.7s3.8,1.5,5.8,1.9c6.6,1.2,13.5,1.1,20.1-0.2c2.4-0.5,4.9-1.2,6.8-2.7C152.7,74.5,150.8,69.1,145.5,67.2
							z"/>
					</g>
				</g>
				<g class="st4">
					<path class="st5" d="M116.7,75h-0.9l-0.3,1.9h-0.9l0.3-1.9h-1.1v-0.8h1.2l0.2-1.3h-1.1v-0.8h1.2l0.3-1.9h0.8l-0.3,1.9h0.9
						l0.3-1.9h0.9l-0.3,1.9h1v0.8h-1.2l-0.2,1.3h1V75h-1.2l-0.3,1.9h-0.9L116.7,75z M115.9,74.2h0.9l0.2-1.3h-0.9L115.9,74.2z"/>
				</g>
				<g>
					<path class="st5" d="M118.9,76.2l2-3.1l-1.9-2.9h1.4l1.2,1.9l1.2-1.9h1.4l-1.9,2.9l2,3.1H123l-1.3-2.1l-1.3,2.1H118.9z"/>
					<path class="st5" d="M130.5,76.2h-1.3l-0.5-1.4h-2.4l-0.5,1.4h-1.3l2.3-6h1.3L130.5,76.2z M128.3,73.8l-0.8-2.2l-0.8,2.2H128.3
						z"/>
					<path class="st5" d="M131.1,76.2v-6h1.8l1.1,4.1l1.1-4.1h1.8v6h-1.1v-4.7l-1.2,4.7h-1.2l-1.2-4.7v4.7H131.1z"/>
					<path class="st5" d="M138.1,76.2v-6h1.9c0.7,0,1.2,0,1.4,0.1c0.3,0.1,0.6,0.3,0.9,0.6c0.2,0.3,0.3,0.7,0.3,1.2
						c0,0.4-0.1,0.7-0.2,0.9c-0.1,0.2-0.3,0.4-0.5,0.6s-0.4,0.2-0.6,0.3C141,74,140.6,74,140,74h-0.8v2.3L138.1,76.2L138.1,76.2z
						 M139.3,71.2v1.7h0.7c0.5,0,0.8,0,1-0.1s0.3-0.2,0.4-0.3c0.1-0.1,0.1-0.3,0.1-0.5s-0.1-0.4-0.2-0.5c-0.1-0.1-0.3-0.2-0.5-0.3
						c-0.1,0-0.4,0-0.9,0C139.9,71.2,139.3,71.2,139.3,71.2z"/>
					<path class="st5" d="M143.6,76.2v-6h1.9c0.7,0,1.2,0,1.4,0.1c0.3,0.1,0.6,0.3,0.9,0.6c0.2,0.3,0.3,0.7,0.3,1.2
						c0,0.4-0.1,0.7-0.2,0.9c-0.1,0.2-0.3,0.4-0.5,0.6s-0.4,0.2-0.6,0.3c-0.3,0.1-0.7,0.1-1.3,0.1h-0.8v2.3L143.6,76.2L143.6,76.2z
						 M144.9,71.2v1.7h0.7c0.5,0,0.8,0,1-0.1s0.3-0.2,0.4-0.3c0.1-0.1,0.1-0.3,0.1-0.5s-0.1-0.4-0.2-0.5c-0.1-0.1-0.3-0.2-0.5-0.3
						c-0.1,0-0.4,0-0.9,0C145.5,71.2,144.9,71.2,144.9,71.2z"/>
				</g>
			</g>
			<g>
				<g>
					<g>
						<path class="st3" d="M143.3,21.9c-8.1-2.9-17-3.5-25.4-1.7c-2.5,0.5-5,1.3-7,2.9s-3.4,4-3,6.5c0.3,2,1.8,3.8,3.6,4.9
							s3.9,1.6,6,2c6.9,1.3,14.1,1.2,21-0.2c2.5-0.5,5.1-1.2,7.1-2.8C150.8,29.6,148.9,23.9,143.3,21.9z"/>
					</g>
				</g>
				<g>
					<path class="st5" d="M115.5,29.7h-1L114,32h-1l0.4-2.2h-1.2v-0.9h1.4l0.3-1.5h-1.2v-0.9h1.4l0.4-2.2h1l-0.4,2.2h1l0.4-2.2h1
						l-0.4,2.2h1.2v0.9H117l-0.3,1.5h1.2v0.9h-1.4l-0.4,2.2h-1L115.5,29.7z M114.6,28.8h1l0.3-1.5h-1L114.6,28.8z"/>
					<g>
						<path class="st5" d="M119,31.7v-7.3h2.4c0.9,0,1.5,0,1.8,0.1c0.4,0.1,0.8,0.3,1.1,0.7c0.3,0.4,0.4,0.8,0.4,1.4
							c0,0.5-0.1,0.8-0.2,1.1c-0.2,0.3-0.4,0.5-0.6,0.7c-0.3,0.2-0.5,0.3-0.8,0.3c-0.4,0.1-0.9,0.1-1.5,0.1h-1v2.8L119,31.7
							L119,31.7z M120.4,25.6v2.1h0.8c0.6,0,1,0,1.2-0.1s0.4-0.2,0.5-0.4c0.1-0.2,0.2-0.4,0.2-0.6c0-0.3-0.1-0.5-0.2-0.7
							c-0.2-0.2-0.4-0.3-0.6-0.3s-0.5-0.1-1.1-0.1h-0.8V25.6z"/>
						<path class="st5" d="M125.8,31.7v-7.3h1.5v2.9h2.9v-2.9h1.5v7.3h-1.5v-3.2h-2.9v3.2H125.8z"/>
						<path class="st5" d="M133.2,31.7v-7.3h2.4c0.9,0,1.5,0,1.8,0.1c0.4,0.1,0.8,0.3,1.1,0.7c0.3,0.4,0.4,0.8,0.4,1.4
							c0,0.5-0.1,0.8-0.2,1.1c-0.2,0.3-0.4,0.5-0.6,0.7c-0.3,0.2-0.5,0.3-0.8,0.3c-0.4,0.1-0.9,0.1-1.5,0.1h-1v2.8L133.2,31.7
							L133.2,31.7z M134.7,25.6v2.1h0.8c0.6,0,1,0,1.2-0.1s0.4-0.2,0.5-0.4c0.1-0.2,0.2-0.4,0.2-0.6c0-0.3-0.1-0.5-0.2-0.7
							c-0.2-0.2-0.4-0.3-0.6-0.3c-0.2,0-0.5-0.1-1.1-0.1h-0.8V25.6z"/>
					</g>
				</g>
			</g>
			<g>
				<path class="st3" d="M121.6,157.8c3.3-1.5,6.3-3.5,8.9-6c5.4-5.3,8.7-12.6,8.9-20.2c0.3-7.5-2.5-15.1-7.5-20.7
					c-2.6-2.9-5.7-5.2-8.3-8c-10-10.5-9.9-25.8-18.8-36.6c-3.7-4.5-8.8-7.7-14.1-10.2c-10.4-4.8-22.4-6.7-33.5-4.1
					c-14.3,3.3-27,15.9-31.4,29.9c-2.2,6.8-1.8,14.5,1.8,20.6c3.7,6.2,10.4,10,15.6,15.1c7.3,7.1,11.6,16.7,17.1,25.3
					c3,4.7,6.4,9.2,11,12.3c5.3,3.6,11.7,5,18,5.8C100.2,162.5,112,162.2,121.6,157.8z"/>
			</g>
			<g>
				<path class="st6" d="M103.1,106.1c0,1.4-0.7,2.5-1.6,2.5s-1.6-1.1-1.6-2.5s0.7-2.5,1.6-2.5C102.3,103.7,103.1,104.8,103.1,106.1
					z"/>
				<g>
					<g>
						<path class="st7" d="M14.9,107.6c0,0.2-0.2,0.3-0.3,0.3s-0.3-0.1-0.3-0.3c0-0.2,0.2-0.3,0.3-0.3S14.9,107.5,14.9,107.6z"/>
						<path class="st7" d="M14.9,109.3c0,0.2-0.2,0.3-0.3,0.3s-0.3-0.1-0.3-0.3s0.2-0.3,0.3-0.3S14.9,109.1,14.9,109.3z"/>
					</g>
					<path class="st6" d="M20.2,108.5c0,1.2-0.7,2.2-1.5,2.2s-1.5-1-1.5-2.2s0.7-2.2,1.5-2.2S20.2,107.3,20.2,108.5z"/>
					<path class="st6" d="M24.9,108.5c0,1.2-0.7,2.2-1.5,2.2s-1.5-1-1.5-2.2s0.7-2.2,1.5-2.2C24.3,106.3,24.9,107.3,24.9,108.5z"/>
				</g>
				<g>
					<polyline class="st6" points="79,163.7 75.5,166.3 78.8,168.4 					"/>
					<line class="st6" x1="89.4" y1="163.9" x2="87.9" y2="168.2"/>
					<line class="st6" x1="91.7" y1="163.9" x2="90.2" y2="168.2"/>
					<rect x="81.5" y="164.4" width="3.6" height="3.1"/>
				</g>
				<g>
					<line class="st6" x1="85.9" y1="45.2" x2="79.1" y2="45.2"/>
					<polyline class="st6" points="87.5,42.8 91.3,45.5 87.7,47.8 					"/>
				</g>
			</g>
			<g>
				<path class="st5" d="M99,67.3H77.2c-0.7,0-1.3-0.6-1.3-1.3v-6.4c0-0.7,0.6-1.3,1.3-1.3H99c0.7,0,1.3,0.6,1.3,1.3V66
					C100.3,66.7,99.8,67.3,99,67.3z"/>
				<g>
					<line class="st8" x1="93.6" y1="56.7" x2="96.7" y2="51.9"/>
					<line class="st8" x1="87.1" y1="69.9" x2="89.9" y2="74.4"/>
					<line class="st8" x1="103.1" y1="63.2" x2="110.8" y2="63.2"/>
					<line class="st8" x1="70.8" y1="74.6" x2="73.9" y2="69.7"/>
					<line class="st8" x1="68.2" y1="49.2" x2="75.3" y2="56.1"/>
					<line class="st8" x1="71.5" y1="89.3" x2="71.3" y2="97.7"/>
				</g>
				<g>
					<path class="st5" d="M104.6,86H82.8c-0.7,0-1.3-0.6-1.3-1.3v-6.4c0-0.7,0.6-1.3,1.3-1.3h21.8c0.7,0,1.3,0.6,1.3,1.3v6.4
						C105.9,85.4,105.3,86,104.6,86z"/>
					<path class="st8" d="M105.7,87.1H83.9c-0.7,0-1.3-0.6-1.3-1.3v-6.4c0-0.7,0.6-1.3,1.3-1.3h21.8c0.7,0,1.3,0.6,1.3,1.3v6.4
						C107,86.5,106.4,87.1,105.7,87.1z"/>
				</g>
				<path class="st8" d="M100.1,68.4H78.3c-0.7,0-1.3-0.6-1.3-1.3v-6.4c0-0.7,0.6-1.3,1.3-1.3h21.8c0.7,0,1.3,0.6,1.3,1.3v6.4
					C101.4,67.8,100.8,68.4,100.1,68.4z"/>
				<g>
					<path class="st5" d="M133.4,86.1h-21.8c-0.7,0-1.3-0.6-1.3-1.3v-6.4c0-0.7,0.6-1.3,1.3-1.3h21.8c0.7,0,1.3,0.6,1.3,1.3v6.4
						C134.8,85.5,134.2,86.1,133.4,86.1z"/>
					<path class="st8" d="M134.9,87.2h-21.8c-0.7,0-1.3-0.6-1.3-1.3v-6.4c0-0.7,0.6-1.3,1.3-1.3h21.8c0.7,0,1.3,0.6,1.3,1.3v6.4
						C136.2,86.6,135.6,87.2,134.9,87.2z"/>
					<polygon class="st9" points="127.2,84.6 123.9,80 119.7,84.6 					"/>
				</g>
				<g>
					<path class="st10" d="M135.4,67.3h-21.8c-0.7,0-1.3-0.6-1.3-1.3v-6.4c0-0.7,0.6-1.3,1.3-1.3h21.8c0.7,0,1.3,0.6,1.3,1.3V66
						C136.7,66.8,136.2,67.3,135.4,67.3z"/>
					<path class="st8" d="M136.9,68.4h-21.8c-0.7,0-1.3-0.6-1.3-1.3v-6.4c0-0.7,0.6-1.3,1.3-1.3h21.8c0.7,0,1.3,0.6,1.3,1.3v6.4
						C138.2,67.8,137.6,68.4,136.9,68.4z"/>
					<polygon class="st9" points="128.7,65.1 125.4,60.6 121.2,65.1 					"/>
				</g>
				<path class="st9" d="M91.3,63.4c0,1.4-1.1,2.4-2.4,2.4c-1.4,0-2.4-1.1-2.4-2.4c0-1.4,1.1-2.4,2.4-2.4
					C90.2,61,91.3,62.1,91.3,63.4z"/>
				<g>
					<path class="st5" d="M89.6,108.1H67.8c-0.7,0-1.3-0.6-1.3-1.3v-6.4c0-0.7,0.6-1.3,1.3-1.3h21.8c0.7,0,1.3,0.6,1.3,1.3v6.4
						C90.9,107.5,90.3,108.1,89.6,108.1z"/>
					<path class="st8" d="M91,109.2H69.2c-0.7,0-1.3-0.6-1.3-1.3v-6.4c0-0.7,0.6-1.3,1.3-1.3H91c0.7,0,1.3,0.6,1.3,1.3v6.4
						C92.3,108.6,91.8,109.2,91,109.2z"/>
					<path class="st9" d="M78.6,106.7c1.3,0,2.4-1.1,2.4-2.4s-1.1-2.4-2.4-2.4V106.7z"/>
				</g>
				<g>
					<path class="st5" d="M124.4,49.5H99.2c-0.7,0-1.3-0.6-1.3-1.3v-7.6c0-0.7,0.6-1.3,1.3-1.3h25.2c0.7,0,1.3,0.6,1.3,1.3v7.6
						C125.7,48.9,125.1,49.5,124.4,49.5z"/>
					<path class="st8" d="M126,50.7h-25.2c-0.7,0-1.3-0.6-1.3-1.3v-7.6c0-0.7,0.6-1.3,1.3-1.3H126c0.7,0,1.3,0.6,1.3,1.3v7.6
						C127.3,50.1,126.8,50.7,126,50.7z"/>
					<circle class="st9" cx="112.2" cy="45.1" r="2.8"/>
				</g>
				<g>
					<path class="st5" d="M74.3,86H52.5c-0.7,0-1.3-0.6-1.3-1.3v-6.4c0-0.7,0.6-1.3,1.3-1.3h21.8c0.7,0,1.3,0.6,1.3,1.3v6.4
						C75.6,85.4,75.1,86,74.3,86z"/>
					<path class="st8" d="M75.4,87.1H53.6c-0.7,0-1.3-0.6-1.3-1.3v-6.4c0-0.7,0.6-1.3,1.3-1.3h21.8c0.7,0,1.3,0.6,1.3,1.3v6.4
						C76.7,86.5,76.1,87.1,75.4,87.1z"/>
					<rect x="60.2" y="80.1" class="st9" width="7.5" height="3.4"/>
				</g>
			</g>
			<g>
				<path class="st10" d="M28.1,157.5l-7.7-3.8c-0.2,2.2-0.2,4.5-0.1,6.7c0.2,2.6-0.1,7,1.9,7.2c1.4,0.1,4-0.2,5.4-0.2
					c-0.2-1.7-0.1-3.5,0.1-5.3C27.9,160.7,28,159.1,28.1,157.5z"/>
				<path class="st11" d="M20.1,170C20.1,169.9,20.1,169.9,20.1,170c-0.1-1.3-0.2-2.4-0.2-3.7c0-0.9,0-1.9,0.3-2.8
					c2.4,0.1,4.9-0.1,7.4,0.1c0.5,0,0.6,1.1,0.9,1.4c0.6,0.6,1.8,0.9,2.6,1.1c1.6,0.5,3.3,0.7,4.7,1.9c0.7,0.6,2.3,2.7,1,3.4
					c-0.6,0.3-1.7,0-2.2,0c-1,0-2-0.1-2.9-0.2c-3.7-0.2-7.4-0.6-11.1-1.1c-0.1,0-0.2,0-0.2-0.1C20.1,170.1,20.1,170,20.1,170z"/>
				<path class="st8" d="M20,168.8c5.8,0.4,11.5,1,17.3,1.8"/>
				<path class="st8" d="M32.6,167.6c0.4-0.2,0.8-0.5,1-0.8c0.1-0.1,0.1-0.2,0.1-0.3c0-0.2-0.2-0.2-0.4-0.2s-0.3,0.1-0.4,0.2
					c-0.3,0.2-0.6,0.4-1,0.7c-0.1,0.1-0.2,0.1-0.3,0.1c-0.1,0-0.2,0-0.3-0.2c0-0.2,0.1-0.3,0.3-0.4c0.1-0.1,0.3-0.2,0.4-0.4
					c0.1-0.1,0.1-0.4,0-0.5s-0.2-0.1-0.3-0.1c-0.5,0.1-0.8,0.8-1.4,0.9c-0.1,0-0.1,0-0.2,0s-0.1-0.2-0.1-0.3c0.1-0.4,0.5-0.6,0.5-1
					c0-0.1,0-0.1,0-0.2c-0.1-0.1-0.2-0.1-0.3-0.1c-0.5,0.1-0.8,0.7-0.9,1.2"/>
				<path class="st8" d="M22.1,167.4c0.4,0.2,0.8,0.1,1.1-0.2c0.2-0.3,0.3-0.8,0-1.1c-0.1-0.1-0.2-0.2-0.3-0.2c-0.1-0.1-0.3,0-0.4,0
					c-0.3,0-0.6,0.1-0.8,0.3c-0.2,0.2-0.2,0.5-0.1,0.7C21.6,167.2,21.8,167.3,22.1,167.4"/>
				<path class="st10" d="M51.8,157.2l-7.7-3.8c-0.2,2.2-0.2,4.5-0.1,6.7c0.2,2.6-0.1,7,1.9,7.2c1.4,0.1,4-0.2,5.4-0.2
					c-0.2-1.7-0.1-3.5,0.1-5.3C51.6,160.4,51.7,158.8,51.8,157.2z"/>
				<path class="st11" d="M43.9,169.7C43.9,169.7,43.9,169.6,43.9,169.7c-0.1-1.3-0.2-2.4-0.2-3.7c0-0.9,0-1.9,0.3-2.8
					c2.4,0.1,4.9-0.1,7.4,0.1c0.5,0,0.6,1.1,0.9,1.4c0.6,0.6,1.8,0.9,2.6,1.1c1.6,0.5,3.3,0.7,4.7,1.9c0.7,0.6,2.3,2.7,1,3.4
					c-0.6,0.3-1.7,0-2.2,0c-1,0-2-0.1-2.9-0.2c-3.7-0.2-7.4-0.6-11.1-1.1c-0.1,0-0.2,0-0.2-0.1C43.9,169.8,43.9,169.8,43.9,169.7z"
					/>
				<g>
					<path class="st10" d="M45.9,42.9C46,43.3,46,43.7,46,44c0.2,3.6,0.6,7.1,0.7,10.7c0,2.6,0.1,8,4,7.8c0.8,0,1.6-0.4,2.3-0.8
						c0.7-0.4,1.5-0.8,1.8-1.5c0.4-0.8,0.2-1.6,0-2.5c-0.6-2.4-1.1-4.8-1.7-7.2c-0.5-2.2-1.3-4.4-1.5-6.6c-0.1-0.6,0-2.2-0.8-2.3
						c-0.2,0-0.4,0-0.6,0.2c0-0.2-0.1-0.4-0.1-0.6C50,41.1,49.8,41,49.6,41c-0.3,0-0.5,0.3-0.7,0.6c0-0.2-0.1-0.4-0.2-0.6
						c-0.1-0.2-0.3-0.4-0.5-0.4s-0.5,0.1-0.6,0.3c-0.2,0.2-0.2,0.4-0.3,0.6c-0.1,0.3-0.1,1.1-0.3,1.4c-0.3-0.3-0.3-0.9-0.3-1.3
						c0-0.5,0.1-0.9,0.3-1.4c0.1-0.3,0.1-0.6,0-0.8c-0.8-1-1.4,1-1.3,1.5C45.7,41.5,45.8,42.2,45.9,42.9z"/>
					<path class="st11" d="M53.6,56.6c-2.3,0.5-4.6,1-7,1.3c1.3,5.6,1.9,10.7,1.6,15.9c-0.2,3.5-1.1,5.7-3.6,8.2
						c-0.2,0.2-0.3,0.6-0.3,0.9c0,0.9,1,1,1.6,1.3c1.8,0.9,3.6,1.9,5.3,2.9l2.8,1.4c5.5-13.6,3.3-22.9,1-32.1
						C54.6,56.4,54.1,56.5,53.6,56.6z"/>
					<path class="st5" d="M62.9,45.6H30.4c-0.7,0-1.3-0.6-1.3-1.3V36c0-0.7,0.6-1.3,1.3-1.3h32.5c0.7,0,1.3,0.6,1.3,1.3v8.3
						C64.2,45,63.7,45.6,62.9,45.6z"/>
					<path class="st8" d="M65,46.9H32.5c-0.7,0-1.3-0.6-1.3-1.3v-8.3c0-0.7,0.6-1.3,1.3-1.3H65c0.7,0,1.3,0.6,1.3,1.3v8.3
						C66.3,46.3,65.7,46.9,65,46.9z"/>
					<g>
						<g>
							<g>
								<defs>
									<path id="SVGID_00000054944506587341369110000000207691468549624202_" d="M53.6,56.6c-2.3,0.5-4.6,1-7,1.3
										c1.3,5.6,1.9,10.7,1.6,15.9c-0.2,3.5-1.1,5.7-3.6,8.2c-0.2,0.2-0.3,0.6-0.3,0.9c0,0.9,1,1,1.6,1.3c1.8,0.9,3.6,1.9,5.3,2.9
										l2.8,1.4c5.5-13.6,3.3-22.9,1-32.1C54.6,56.4,54.1,56.5,53.6,56.6z"/>
								</defs>
								<clipPath id="SVGID_00000057826278302996144320000010698160957155409037_">
									<use xlink:href="#SVGID_00000054944506587341369110000000207691468549624202_"  style="overflow:visible;"/>
								</clipPath>
								<path style="clip-path:url(#SVGID_00000057826278302996144320000010698160957155409037_);" d="M56.9,73.5
									c1.1,0.1,2.9-0.7,2.7-2c0-0.2-0.1-0.4-0.2-0.6c-0.6-1.1-1.3-2-2.7-1.1c-0.6,0.4-0.9,1-1.1,1.6c-0.1,0.3-0.1,0.6-0.1,0.9
									C55.6,73,56.2,73.4,56.9,73.5L56.9,73.5z"/>
							</g>
						</g>
					</g>
					<g>
						<path d="M28.7,117.4c0-0.1,0.1-0.2,0.1-0.4c1-3.6,2.1-7.2,3.1-10.8c0.7-2.3,0.2-4.9,0.8-6.9C34,95,44.2,96.8,48,96.4
							c2-0.2,5.3-1.2,7,0.4c1.5,1.4,1.5,4.9,1.9,6.8c1.6,9.1,1.1,18.5,0.5,27.7c-0.4,6.2-0.8,12.4-1.2,18.6
							c-0.2,3.4-0.2,6.9-0.8,10.2c-4.9,0.9-10.5,0.3-15.4-0.2c1-7.7,2-15.5,3-23.2c0.9-7.3,2-14.6,2.3-22c-0.8,3.6-2.2,7.1-3.2,10.6
							c-1.2,4-2.2,8-3.4,12c-0.6,2-6.1,23-6.9,22.9c-5.1-0.4-10.1-0.8-15.2-1.1C20.6,145.2,24.6,131.3,28.7,117.4z"/>
						<path class="st11" d="M52.2,80.8c-1.6-1-3.4-1.6-5.1-1.9c-2.1-0.4-4-0.4-6.4-0.3c-2.5,0.1-4.2,0.7-5.9,2.6
							c-2,2.3-2.6,5.1-2.9,8c-0.3,3.6-0.5,7.2-0.8,10.8c8.5-0.2,17.2,0.1,25.7-0.8c1.1-0.1-1.7-13.5-2-14.7
							c-0.1-0.7-0.3-1.5-0.7-2.1c-0.4-0.7-1-1.1-1.7-1.6C52.5,80.9,52.4,80.9,52.2,80.8z"/>
						<g>
							<path d="M48.6,69.8c0,0.3,0,0.6,0,0.9c0,0.2-0.1,0.5-0.2,0.7c-0.7,0.8-2.4-1.9-2.7-2.4c-0.4-0.7-0.9-1.7-0.7-2.5
								c0.1-0.4,0.5-0.9,1-0.9s1.1,0.6,1.3,1C48,67.5,48.5,68.7,48.6,69.8z"/>
							<path class="st10" d="M42.8,67.8c-0.2,0.1-0.3,0.2-0.5,0.2c-0.8,0.5-1.7,1.1-1.9,2.1c-0.1,0.5-0.1,1-0.1,1.4
								c0,1,0.1,1.9,0.2,2.9c0.1,0.8,0.2,1.7,0.3,2.5c0,0.4,0.3,1.5-0.1,1.7c-0.1,0-0.1,0-0.2,0c-0.1,0-0.3,0-0.4,0.1
								c0,0,0.5,0.5,0.5,0.6c0.2,0.1,0.4,0.3,0.6,0.5c0.4,0.3,0.9,0.6,1.4,0.7c1,0.3,2,0.3,3-0.1c0.3-0.1,0.6-0.2,0.9-0.4
								c0.2-0.2,0.4-0.4,0.6-0.6c0.1-0.2,0-0.5-0.2-0.6c-0.1,0-0.2-0.1-0.2-0.1c-0.1-0.1-0.3-0.3-0.3-0.5c0-0.3-0.1-0.8,0.2-1
								s0.8-0.2,1.1-0.3c1.1-0.5,1.3-1.5,1.3-2.6c-0.1-1.2-0.3-2.3-0.7-3.5c-0.2-0.7-0.5-1.4-0.7-2.1c-0.1-0.3-0.1-0.6-0.3-0.8
								c-0.3-0.3-0.6-0.3-0.9-0.4c-0.4,0-0.7-0.2-1-0.2C44.4,67.2,43.6,67.4,42.8,67.8z"/>
							<path d="M32.8,77.4c0.4,0.7,0.9,1.4,1.4,2.1c0.6,0.7,1.1,0.5,1.8,0.2c1.3-0.5,2.7-0.7,4.1-0.5c0.2,0,0.4,0.1,0.6,0
								c0.5-0.1,0.6-0.7,0.7-1.2c0.4-1.2,0.2-2.3,0.3-3.5c0.1-0.5,0.2-1,0.5-1.5c0.3-0.4,0.7-0.6,0.9-0.9c0.7-0.8-0.2-1.9,0.4-2.6
								c0.3-0.3,0.8-0.6,1.2-0.7c0.9-0.3,2.1-0.3,2.6-1.2c0.4-0.6,0.2-1.5-0.3-2s-1.2-0.8-1.9-0.9c-1.6-0.3-3.3,0.2-4.6,1.2
								c-0.7,0.6-1.2,1.3-2,1.7c-0.9,0.4-1.8,0.6-2.6,1.2c-0.4,0.3-0.8,0.7-1.2,1c-1.1,0.9-2.5,1.9-2.9,3.3
								c-0.4,1.2-0.1,2.5,0.5,3.7C32.6,76.9,32.7,77.2,32.8,77.4z"/>
							<path class="st10" d="M41.1,72.9c0.2,0.8,1.6,1.5,1.9,0.4c0.2-0.6-0.1-1.7-0.9-1.8C41.5,71.4,41,72.3,41.1,72.9z"/>
							<path class="st8" d="M41.4,72.5c0-0.1,0.1-0.2,0.3-0.2c0.2-0.1,0.4-0.1,0.6,0c0.2,0.1,0.3,0.3,0.4,0.4"/>
							<g>
								<g>
									<g>
										<defs>
											<path id="SVGID_00000119095301306114246030000001956606372510552219_" d="M40.2,74.5c0.2,1.1,0.4,2.2,0.7,3.3
												c0.1,0.2,0,0.5-0.1,0.7c-0.1,0.1-0.4,0.1-0.6,0.1c0.6,0.8,1.4,1.5,2.4,1.8s2,0.3,3-0.1c0.3-0.1,0.6-0.2,0.9-0.4
												c0.2-0.2,0.5-0.5,0.6-0.7v-0.1c0,0,0,0-0.1,0c-0.2-0.1-0.5-0.2-0.6-0.4c-0.1-0.1-0.1-0.3-0.1-0.4c0-0.3,0-0.6,0-0.9
												c0-0.1,0-0.3,0.1-0.3s0.2,0,0.3,0c0.4,0,0.7-0.1,1.1-0.2c0.8-0.5,1.3-1.4,1.4-2.3c0.2-1.9-0.7-5.2-2.4-6.4
												c-1-0.7-2.7-0.8-3.8-0.4c-1.2,0.4-2.8,1.3-3.1,2.6c-0.1,0.6,0,1.2,0,1.8C40,73.1,40.1,73.8,40.2,74.5z"/>
										</defs>
										<clipPath id="SVGID_00000063616900924846253430000010992296912077951641_">
											<use xlink:href="#SVGID_00000119095301306114246030000001956606372510552219_"  style="overflow:visible;"/>
										</clipPath>
										<path style="clip-path:url(#SVGID_00000063616900924846253430000010992296912077951641_);" d="M47.2,77.3
											c-0.4,0-0.9-0.1-1.2-0.3c-0.2-0.1-0.4-0.2-0.6-0.3c-0.1,0-0.2,0-0.2,0.1c-0.1,0.1,0,0.2,0.1,0.3c0.1,0.1,0.2,0.1,0.3,0.2
											s0,0.2,0.1,0.3c0.1,0.1,0.2,0.2,0.4,0.2c0.3,0.1,0.7,0.2,1,0.3"/>
									</g>
								</g>
							</g>
						</g>
						<g>
							<path class="st10" d="M32.2,43.1c-0.1,0.5-0.3,1-0.4,1.4c-1,3.8-2.2,7.5-3.3,11.2c-0.2,0.5-0.3,1.1-0.5,1.6
								c-0.4,1.2-0.7,2.5-0.3,3.8c0.4,1.4,1.8,2.3,3.2,2.5c0.9,0.1,1.9,0,2.8-0.3c1.1-0.4,1.3-0.7,1.6-1.7c0.5-1.7,0.2-4,0.3-5.8
								c0.2-2.1,0.5-4.1,0.9-6.2c0.5-2.3,0.9-4.6,1.7-6.7c0.1-0.2,0.2-0.4,0.2-0.6c0-0.2,0-0.4-0.2-0.6c-0.2-0.2-0.7-0.1-0.8,0.1
								c0.1-0.2,0.2-0.3,0.2-0.5s0-0.4-0.1-0.5c-0.3-0.4-0.9,0.1-1.1,0.3c0.2-0.2,0.5-0.6,0.4-1c0-0.2-0.2-0.3-0.3-0.3
								c-0.2,0-0.3,0-0.4,0.1c-0.4,0.2-0.8,0.7-1.1,1c-0.5,0.5-0.9,1.1-1.3,1.7c0.2-1,0.6-1.7,1.3-2.4c0.2-0.2,0.5-0.3,0.4-0.7
								c-0.1-0.2-0.3-0.3-0.5-0.2c-0.3,0.1-0.7,0.4-0.9,0.6c-0.7,0.6-1.1,1.3-1.4,2.1C32.4,42.4,32.3,42.7,32.2,43.1z"/>
							<path class="st8" d="M33.6,44.2"/>
							<path class="st8" d="M34.2,42.6"/>
						</g>
					</g>
					<path class="st11" d="M36.4,71.4c-1-4.8-0.9-9.7-0.2-14.6h-0.1c-0.6,0.1-1.3,0.2-1.9,0.3c-2.5-0.1-4.4-0.8-6.7-0.4
						c-2,9.7-0.4,21.9,4.8,30.3c1.5,2.4,3.3,4.7,5.9,5.6c2.3-2.6,4-4.7,5.7-7.8C39.9,81.4,37.5,76.5,36.4,71.4z"/>
					<rect x="43.2" y="38.5" class="st9" width="11.5" height="3.3"/>
					<path class="st14" d="M37.4,41.8c-0.6,0.7-1,1.6-1.3,2.5"/>
					<path class="st14" d="M36.5,41c-0.8,0.8-1.5,1.7-1.9,2.7"/>
					<path class="st14" d="M33.6,42.6c0,0.2-0.1,0.4-0.2,0.5"/>
					<path class="st10" d="M31.6,41.6c0.1-0.1,0.2-0.2,0.3-0.3c0.2-0.1,0.5-0.1,0.6,0.1c0.1,0.2,0.1,0.4,0,0.6
						c-0.1,0.6-0.2,1.2-0.2,1.8s0.1,1.1,0,1.6c0,0.2-0.1,0.4-0.3,0.6c-0.2,0.1-0.4,0.1-0.5,0c-0.2-0.1-0.3-0.3-0.3-0.4
						C31,45.2,31,44.7,31,44.2C31.1,43.3,31.2,42.3,31.6,41.6z"/>
					<path class="st14" d="M32.6,41.8c-0.3,0.7-0.5,1.5-0.7,2.2"/>
					<path class="st8" d="M46.4,74.2c0.4,0.4,1.1,0.6,1.6,0.4c0.1,0,0.3-0.1,0.3-0.2"/>
					<path class="st8" d="M32.4,86.9c0.2,0.5,0.3,1,0.5,1.5"/>
					<path class="st8" d="M55.3,85c-0.4,0.9-0.7,1.9-0.9,2.9"/>
					<path d="M28.4,70.5c0.2-0.5,0.5-0.9,1-1s1.1,0.2,1.3,0.7c0.3,0.5,0.3,1,0.2,1.6c-0.1,0.8-0.8,2.2-1.9,1.8
						C28.2,73.2,28.1,71.3,28.4,70.5z"/>
				</g>
				<path class="st8" d="M43.7,168.6c5.8,0.4,11.5,1,17.3,1.8"/>
				<path class="st8" d="M56.3,167.4c0.4-0.2,0.8-0.5,1-0.8c0.1-0.1,0.1-0.2,0.1-0.3c0-0.2-0.2-0.2-0.4-0.2s-0.3,0.1-0.4,0.2
					c-0.3,0.2-0.6,0.4-1,0.7c-0.1,0.1-0.2,0.1-0.3,0.1s-0.2,0-0.3-0.2c0-0.2,0.1-0.3,0.3-0.4c0.1-0.1,0.3-0.2,0.4-0.4
					c0.1-0.1,0.1-0.4,0-0.5s-0.2-0.1-0.3-0.1c-0.5,0.1-0.8,0.8-1.4,0.9c-0.1,0-0.1,0-0.2,0c-0.1,0-0.1-0.2-0.1-0.3
					c0.1-0.4,0.5-0.6,0.5-1c0-0.1,0-0.1,0-0.2c-0.1-0.1-0.2-0.1-0.3-0.1c-0.5,0.1-0.8,0.7-0.9,1.2"/>
				<path class="st8" d="M45.8,167.2c0.4,0.2,0.8,0.1,1.1-0.2c0.2-0.3,0.3-0.8,0-1.1c-0.1-0.1-0.2-0.2-0.3-0.2c-0.1-0.1-0.3,0-0.4,0
					c-0.3,0-0.6,0.1-0.8,0.3s-0.2,0.5-0.1,0.7S45.6,167.1,45.8,167.2"/>
				<path class="st15" d="M45.1,116c0.7-2.9,1.1-5.8,1.3-8.7"/>
				<path class="st8" d="M47.1,78.8c-0.2,0.8-0.7,1.2-1.3,1.5c-1.1,0.5-2.4,0.6-3.5,0.2c-0.2-0.1-0.5-0.2-0.7-0.3
					c-0.6-0.3-1-0.8-1.4-1.3"/>
			</g>
			<g>
				<g>
					<path class="st9" d="M81.4,119.4H68.5c-0.8,0-1.5,0.6-1.5,1.4l0,0c0,0.8,0.7,1.4,1.5,1.4h12.8c0.8,0,1.5-0.6,1.5-1.4l0,0
						C82.8,120.1,82.2,119.4,81.4,119.4z"/>
					<path class="st11" d="M96.7,119.4h-9.5c-0.8,0-1.4,0.5-1.5,1.3s0.6,1.6,1.4,1.6h9.6c0.8,0,1.5-0.6,1.5-1.4l0,0
						C98.2,120.1,97.5,119.4,96.7,119.4z"/>
					<path class="st9" d="M100.8,120.9L100.8,120.9c0,0.8,0.7,1.4,1.5,1.4h27.9c0.8,0,1.5-0.6,1.5-1.4l0,0c0-0.8-0.7-1.4-1.5-1.4
						h-27.9C101.5,119.4,100.8,120.1,100.8,120.9z"/>
					<path class="st11" d="M145.4,119.4h-8.9c-0.8,0-1.5,0.6-1.5,1.4l0,0c0,0.8,0.7,1.4,1.5,1.4h8.9c0.8,0,1.5-0.6,1.5-1.4l0,0
						C146.8,120.1,146.2,119.4,145.4,119.4z"/>
					<path class="st11" d="M136.4,126.4H111c-0.8,0-1.5,0.6-1.5,1.4l0,0c0,0.8,0.7,1.4,1.5,1.4h25.4c0.8,0,1.5-0.6,1.5-1.4l0,0
						C137.9,127.1,137.2,126.4,136.4,126.4z"/>
					<path class="st11" d="M140.3,127.9L140.3,127.9c0,0.8,0.7,1.4,1.5,1.4h5.4c0.8,0,1.5-0.6,1.5-1.4l0,0c0-0.8-0.7-1.4-1.5-1.4
						h-5.4C141,126.4,140.3,127.1,140.3,127.9z"/>
					<path class="st9" d="M105.5,126.4h-3.2c-0.8,0-1.5,0.6-1.5,1.4l0,0c0,0.8,0.7,1.4,1.5,1.4h3.2c0.8,0,1.5-0.6,1.5-1.4l0,0
						C106.9,127.1,106.3,126.4,105.5,126.4z"/>
					<path class="st10" d="M96.2,133.3H93c-0.8,0-1.5,0.6-1.5,1.4l0,0c0,0.8,0.7,1.4,1.5,1.4h3.2c0.8,0,1.5-0.6,1.5-1.4l0,0
						C97.6,134,97,133.3,96.2,133.3z"/>
					<path class="st9" d="M60.7,127.9L60.7,127.9c0,0.8,0.6,1.4,1.4,1.4H90c0.8,0,1.4-0.6,1.4-1.4l0,0c0-0.8-0.6-1.4-1.4-1.4H62.1
						C61.4,126.4,60.7,127.1,60.7,127.9z"/>
					<path class="st11" d="M54.6,126.4h-0.4c-0.8,0-1.5,0.6-1.5,1.4l0,0c0,0.8,0.7,1.4,1.5,1.4h0.4c0.8,0,1.5-0.6,1.5-1.4l0,0
						C56,127.1,55.4,126.4,54.6,126.4z"/>
					<path class="st10" d="M52.6,134.8L52.6,134.8c0,0.8,0.8,1.4,1.7,1.4h30.6c1,0,1.7-0.6,1.7-1.4l0,0c0-0.8-0.8-1.4-1.7-1.4H54.3
						C53.4,133.4,52.6,134.1,52.6,134.8z"/>
					<path class="st9" d="M102.5,134.8L102.5,134.8c0,0.8,0.5,1.4,1,1.4h30.2c0.6,0,1-0.6,1-1.4l0,0c0-0.8-0.5-1.4-1-1.4h-30.2
						C103,133.4,102.5,134.1,102.5,134.8z"/>
					<path class="st9" d="M137.9,134.8L137.9,134.8c0,0.8,0.7,1.4,1.5,1.4h8.9c0.8,0,1.5-0.6,1.5-1.4l0,0c0-0.8-0.7-1.4-1.5-1.4
						h-8.9C138.5,133.4,137.9,134.1,137.9,134.8z"/>
					<path class="st10" d="M111.9,141.8L111.9,141.8c0,0.8,0.7,1.4,1.5,1.4H145c0.8,0,1.5-0.6,1.5-1.4l0,0c0-0.8-0.7-1.4-1.5-1.4
						h-31.6C112.5,140.4,111.9,141.1,111.9,141.8z"/>
					<path class="st9" d="M60.5,141.8L60.5,141.8c0,0.8,0.7,1.4,1.5,1.4h24.3c0.8,0,1.5-0.6,1.5-1.4l0,0c0-0.8-0.7-1.4-1.5-1.4H61.9
						C61.1,140.4,60.5,141.1,60.5,141.8z"/>
					<path class="st11" d="M89.4,141.8L89.4,141.8c0,0.8,0.7,1.4,1.5,1.4h14.8c0.8,0,1.5-0.6,1.5-1.4l0,0c0-0.8-0.7-1.4-1.5-1.4
						H90.8C90,140.4,89.4,141.1,89.4,141.8z"/>
					<path class="st9" d="M71.3,148.8L71.3,148.8c0,0.8,0.7,1.4,1.5,1.4h2.3c0.8,0,1.5-0.6,1.5-1.4l0,0c0-0.8-0.7-1.4-1.5-1.4h-2.3
						C72,147.4,71.3,148,71.3,148.8z"/>
					<path class="st11" d="M67.8,148.8c0-0.8-0.6-1.4-1.4-1.4H55.2c-0.8,0-1.5,0.6-1.5,1.4c0,0.8,0.7,1.4,1.5,1.4h11.2
						C67.1,150.2,67.8,149.6,67.8,148.8L67.8,148.8z"/>
					<path class="st9" d="M78.5,148.8L78.5,148.8c0,0.8,0.7,1.4,1.5,1.4h1.9c0.8,0,1.5-0.6,1.5-1.4l0,0c0-0.8-0.7-1.4-1.5-1.4H80
						C79.2,147.4,78.5,148,78.5,148.8z"/>
					<path class="st10" d="M85.3,148.8L85.3,148.8c0,0.8,0.7,1.4,1.5,1.4h19c0.8,0,1.5-0.6,1.5-1.4l0,0c0-0.8-0.7-1.4-1.5-1.4h-19
						C86,147.4,85.3,148,85.3,148.8z"/>
					<path class="st11" d="M110.3,148.8L110.3,148.8c0,0.8,0.7,1.4,1.5,1.4h7c0.8,0,1.5-0.6,1.5-1.4l0,0c0-0.8-0.7-1.4-1.5-1.4h-7
						C111,147.4,110.3,148,110.3,148.8z"/>
					<path class="st9" d="M124.5,148.8L124.5,148.8c0,0.8,0.7,1.4,1.5,1.4h7.2c0.8,0,1.5-0.6,1.5-1.4l0,0c0-0.8-0.7-1.4-1.5-1.4H126
						C125.1,147.4,124.5,148,124.5,148.8z"/>
					<path class="st9" d="M139.6,148.8L139.6,148.8c0,0.8,0.7,1.4,1.5,1.4h3.9c0.8,0,1.5-0.6,1.5-1.4l0,0c0-0.8-0.7-1.4-1.5-1.4
						h-3.9C140.3,147.4,139.6,148,139.6,148.8z"/>
					<path class="st11" d="M69.7,155.8L69.7,155.8c0,0.8,0.7,1.4,1.5,1.4h17.9c0.8,0,1.5-0.6,1.5-1.4l0,0c0-0.8-0.7-1.4-1.5-1.4
						H71.2C70.4,154.4,69.7,155,69.7,155.8z"/>
					<path class="st11" d="M94.6,155.8L94.6,155.8c0,0.8,0.7,1.4,1.5,1.4h2.7c0.8,0,1.5-0.6,1.5-1.4l0,0c0-0.8-0.7-1.4-1.5-1.4h-2.7
						C95.3,154.4,94.6,155,94.6,155.8z"/>
					<path class="st9" d="M106,155.8L106,155.8c0,0.8,0.7,1.4,1.5,1.4h13.7c0.8,0,1.5-0.6,1.5-1.4l0,0c0-0.8-0.7-1.4-1.5-1.4h-13.7
						C106.6,154.4,106,155,106,155.8z"/>
					<path class="st10" d="M125.5,155.8L125.5,155.8c0,0.8,0.7,1.4,1.5,1.4h10.7c0.8,0,1.5-0.6,1.5-1.4l0,0c0-0.8-0.7-1.4-1.5-1.4
						H127C126.2,154.4,125.5,155,125.5,155.8z"/>
					<path class="st9" d="M113.9,100.7L113.9,100.7c0,0.8,0.7,1.4,1.5,1.4H147c0.8,0,1.5-0.6,1.5-1.4l0,0c0-0.8-0.7-1.4-1.5-1.4
						h-31.6C114.6,99.3,113.9,99.9,113.9,100.7z"/>
					<path class="st10" d="M125.5,93.2h-3.9c-0.8,0-1.5,0.6-1.5,1.4l0,0c0,0.8,0.7,1.4,1.5,1.4h3.9c0.8,0,1.5-0.6,1.5-1.4l0,0
						C127,93.9,126.3,93.2,125.5,93.2z"/>
					<path class="st11" d="M115.8,93.2h-13.1c-0.8,0-1.5,0.6-1.5,1.4l0,0c0,0.8,0.7,1.4,1.5,1.4h13.1c0.8,0,1.5-0.6,1.5-1.4l0,0
						C117.2,93.9,116.6,93.2,115.8,93.2z"/>
					<path class="st11" d="M129.2,94.7L129.2,94.7c0,0.8,0.7,1.4,1.5,1.4H147c0.8,0,1.5-0.6,1.5-1.4l0,0c0-0.8-0.7-1.4-1.5-1.4
						h-16.4C129.9,93.2,129.2,93.9,129.2,94.7z"/>
					<path class="st10" d="M112.4,107.7L112.4,107.7c0,0.8,0.7,1.4,1.5,1.4h7c0.8,0,1.5-0.6,1.5-1.4l0,0c0-0.8-0.7-1.4-1.5-1.4h-7
						C113,106.3,112.4,106.9,112.4,107.7z"/>
					<path class="st9" d="M126.6,107.7L126.6,107.7c0,0.8,0.7,1.4,1.5,1.4h7.2c0.8,0,1.5-0.6,1.5-1.4l0,0c0-0.8-0.7-1.4-1.5-1.4H128
						C127.2,106.3,126.6,106.9,126.6,107.7z"/>
					<path class="st10" d="M140.9,107.7L140.9,107.7c0,0.8,0.7,1.4,1.5,1.4h5.3c0.8,0,1.5-0.6,1.5-1.4l0,0c0-0.8-0.7-1.4-1.5-1.4
						h-5.3C141.5,106.3,140.9,106.9,140.9,107.7z"/>
					<path class="st10" d="M119,114.7L119,114.7c0,0.8,0.7,1.4,1.5,1.4h8.2c0.8,0,1.5-0.6,1.5-1.4l0,0c0-0.8-0.7-1.4-1.5-1.4h-8.2
						C119.7,113.3,119,113.9,119,114.7z"/>
					<path class="st11" d="M96.7,114.7L96.7,114.7c0,0.8,0.7,1.4,1.5,1.4h2.7c0.8,0,1.5-0.6,1.5-1.4l0,0c0-0.8-0.7-1.4-1.5-1.4h-2.7
						C97.3,113.3,96.7,113.9,96.7,114.7z"/>
					<path class="st10" d="M105,114.7L105,114.7c0,0.8,0.7,1.4,1.5,1.4h6c0.8,0,1.5-0.6,1.5-1.4l0,0c0-0.8-0.7-1.4-1.5-1.4h-6
						C105.7,113.3,105,113.9,105,114.7z"/>
					<path class="st11" d="M135.5,114.7L135.5,114.7c0,0.8,0.7,1.4,1.5,1.4h10.7c0.8,0,1.5-0.6,1.5-1.4l0,0c0-0.8-0.7-1.4-1.5-1.4
						H137C136.1,113.3,135.5,113.9,135.5,114.7z"/>
				</g>
				<g>
					<g>
						<path class="st11" d="M96.1,97.9c-0.2,0-0.3-0.1-0.5-0.2l-3.5-3.1l3.4-3.5c0.3-0.3,0.7-0.3,1,0s0.3,0.7,0,1l-2.4,2.5l2.4,2.2
							c0.3,0.3,0.3,0.7,0,1C96.4,97.8,96.3,97.9,96.1,97.9z"/>
					</g>
					<g>
						<path class="st11" d="M100.2,97.9c-0.2,0-0.3-0.1-0.5-0.2l-3.5-3.1l3.4-3.5c0.3-0.3,0.7-0.3,1,0s0.3,0.7,0,1l-2.4,2.5l2.4,2.2
							c0.3,0.3,0.3,0.7,0,1C100.6,97.8,100.4,97.9,100.2,97.9z"/>
					</g>
					<g>
						<path class="st11" d="M145.4,159.5c-0.2,0-0.4-0.1-0.5-0.2c-0.3-0.3-0.2-0.7,0-1l2.4-2.2l-2.4-2.5c-0.3-0.3-0.3-0.7,0-1
							s0.7-0.3,1,0l3.4,3.5l-3.5,3.1C145.8,159.4,145.6,159.5,145.4,159.5z"/>
					</g>
					<g>
						<path class="st11" d="M141.3,159.5c-0.2,0-0.4-0.1-0.5-0.2c-0.3-0.3-0.2-0.7,0-1l2.4-2.2l-2.4-2.5c-0.3-0.3-0.3-0.7,0-1
							s0.7-0.3,1,0l3.4,3.5l-3.5,3.1C141.6,159.4,141.4,159.5,141.3,159.5z"/>
					</g>
				</g>
			</g>
			<g>
				<g>
					<g>
						<g>
							<path class="st3" d="M86.1,31.3c-1.9,0.6-3.8,1.3-5.2,2.7s-2.3,3.4-1.9,5.4c0.6,2.7,3.4,4.3,6,5.2c6.2,2.3,13.3,2.8,19.5,0.4
								c3.6-1.4,8-6,4.5-9.7c-2.9-3.2-9.3-4.5-13.3-4.9C92.5,30.1,89.2,30.4,86.1,31.3z"/>
						</g>
					</g>
				</g>
				<g>
					<path class="st5" d="M85.4,40h-0.8l-0.3,1.7h-0.7l0.3-1.7H83v-0.7h1.1l0.2-1.2h-1v-0.7h1.1l0.3-1.7h0.8l-0.3,1.7H86l0.3-1.7
						h0.8l-0.3,1.7h0.8v0.7h-1l-0.2,1.2h0.9V40h-1.1l-0.3,1.7h-0.8L85.4,40z M84.8,39.3h0.8l0.2-1.2H85L84.8,39.3z"/>
					<path class="st5" d="M92.1,40.1c0-0.2-0.1-0.4-0.2-0.5c-0.2-0.1-0.5-0.3-0.9-0.4c-0.4-0.1-0.8-0.3-1-0.4c-0.7-0.4-1-0.9-1-1.5
						c0-0.3,0.1-0.6,0.3-0.9c0.2-0.3,0.4-0.5,0.8-0.6c0.3-0.1,0.7-0.2,1.2-0.2c0.4,0,0.8,0.1,1.2,0.2c0.3,0.2,0.6,0.4,0.8,0.7
						c0.2,0.3,0.3,0.6,0.3,1h-1.2c0-0.3-0.1-0.5-0.3-0.6c-0.2-0.2-0.4-0.2-0.7-0.2c-0.3,0-0.5,0.1-0.7,0.2c-0.2,0.1-0.3,0.3-0.3,0.5
						s0.1,0.4,0.3,0.5c0.2,0.1,0.5,0.3,0.9,0.4c0.7,0.2,1.2,0.5,1.5,0.8s0.5,0.7,0.5,1.2s-0.2,0.9-0.6,1.2s-0.9,0.4-1.6,0.4
						c-0.5,0-0.9-0.1-1.3-0.3s-0.7-0.4-0.9-0.7c-0.2-0.3-0.3-0.6-0.3-1h1.2c0,0.7,0.4,1,1.2,1c0.3,0,0.5-0.1,0.7-0.2
						C92,40.5,92.1,40.3,92.1,40.1z"/>
					<path class="st5" d="M99.5,38.8c0,0.6-0.1,1.1-0.3,1.5c-0.2,0.4-0.4,0.8-0.8,1l1,0.8l-0.8,0.7l-1.3-1c-0.1,0-0.3,0-0.5,0
						c-0.5,0-0.9-0.1-1.3-0.4c-0.4-0.2-0.7-0.6-0.9-1c-0.2-0.4-0.3-1-0.3-1.5v-0.3c0-0.6,0.1-1.1,0.3-1.6c0.2-0.5,0.5-0.8,0.9-1
						s0.8-0.4,1.3-0.4s1,0.1,1.3,0.4c0.4,0.2,0.7,0.6,0.9,1c0.2,0.5,0.3,1,0.3,1.6L99.5,38.8L99.5,38.8z M98.3,38.5
						c0-0.6-0.1-1.1-0.3-1.4c-0.2-0.3-0.6-0.5-1-0.5s-0.7,0.2-1,0.5s-0.4,0.8-0.4,1.4v0.3c0,0.6,0.1,1.1,0.3,1.4
						c0.2,0.3,0.6,0.5,1,0.5s0.7-0.2,1-0.5c0.2-0.3,0.3-0.8,0.3-1.4L98.3,38.5L98.3,38.5z"/>
					<path class="st5" d="M102,40.7h2.6v1h-3.9v-6h1.2v5H102z"/>
				</g>
			</g>
		</g>
	</g>
</g>
<g id="Layer_2" class="st16">
	<defs>
		
			<filter id="Adobe_OpacityMaskFilter_00000157988053364254974750000009789959105918600104_" filterUnits="userSpaceOnUse" x="5.8" y="27.3" width="147.2" height="141">
			<feColorMatrix  type="matrix" values="1 0 0 0 0  0 1 0 0 0  0 0 1 0 0  0 0 0 1 0"/>
		</filter>
	</defs>
	
		<mask maskUnits="userSpaceOnUse" x="5.8" y="27.3" width="147.2" height="141" id="OBJECTS_00000115491106474222545800000012693340886212528300_" style="display:inline;">
		<g style="filter:url(#Adobe_OpacityMaskFilter_00000157988053364254974750000009789959105918600104_);">
			
				<linearGradient id="SVGID_00000162347598154251791230000009445465469024927118_" gradientUnits="userSpaceOnUse" x1="-193.7766" y1="658.0425" x2="-40.7766" y2="658.0425" gradientTransform="matrix(-1 0 0 -1 -40.5532 752)">
				<stop  offset="0" style="stop-color:#FFFFFF"/>
				<stop  offset="1" style="stop-color:#231F20"/>
			</linearGradient>
			
				<rect x="0.2" y="19.4" style="fill:url(#SVGID_00000162347598154251791230000009445465469024927118_);" width="153" height="149.2"/>
		</g>
	</mask>
	
		<g id="OBJECTS_00000018225373014609577690000010118242024593738886_" style="display:inline;mask:url(#OBJECTS_00000115491106474222545800000012693340886212528300_);">
		<path class="st20" d="M124.4,57.2c-20.7-23.4-49-32-70.8-29.5c-24.8,2.9-42.1,21-46.7,45.4c-0.3,1.7-0.6,3.4-0.8,5.1
			c-1.2,11,0.2,23.4,4.9,36.1c18.2,49.9,72.9,61,103.3,50.1C147.8,152.5,163.1,101,124.4,57.2z"/>
		<g>
			<path class="st21" d="M153,52.8c0-3.7-0.1-7.3-0.1-11c0-0.4-0.1-2.8-0.2-3.1c-0.1-0.6-19,0-22.7-0.1c-3.6-0.1-21.8,0.2-21.9,0.2
				c-0.5,0-0.4,1.7-0.4,1.7c0,0.3,0,49,0,73.5c0.1,0.3,7.8,0.2,11.4,0.2c3.7,0,7.5,0,11.2-0.1c3.7,0,20.3,0.2,22.1-0.4
				c0.1,0,0.1-0.1,0.1-0.1c0.2,0,0.3-0.2,0.4-0.3c0.1-11.5,0.1-23,0-34.4C152.9,70.2,152.9,61.5,153,52.8z"/>
			<path class="st22" d="M152.9,42.6c0-0.3,0-0.6,0-0.8c0-0.4-0.1-2.8-0.2-3.1c-0.1-0.6-19,0-22.7-0.1c-3.6-0.1-21.8,0.2-21.9,0.2
				c-0.5,0-0.4,1.7-0.4,1.7c0,0,0,0.9,0,2.3c2.9,0.1,7.6,0,10.2,0c4.2,0,8.4,0,12.5-0.1C133.9,42.8,147.3,42.9,152.9,42.6z"/>
			<path class="st23" d="M150,41c-0.1-0.3-0.2-0.5-0.1-0.8c0-0.1,0.1-0.2,0.2-0.2c0,0,0.1-0.1,0.1-0.1c0.1-0.1,0.2-0.1,0.3-0.1
				c0.1,0,0.1,0,0.2,0c0.1,0,0.1,0,0.2,0c0.2,0,0.4,0.1,0.5,0.3c0.2,0.3,0.3,0.6,0.1,1c-0.3,0.5-0.8,0.7-1.3,0.4
				C150.2,41.3,150.1,41.1,150,41z"/>
			<path class="st24" d="M147.4,41c-0.1-0.3-0.2-0.5-0.1-0.8c0-0.1,0.1-0.2,0.2-0.2c0,0,0.1-0.1,0.1-0.1c0.1-0.1,0.2-0.1,0.3-0.1
				c0.1,0,0.1,0,0.2,0c0.1,0,0.1,0,0.2,0c0.2,0,0.4,0.1,0.5,0.3c0.2,0.3,0.3,0.6,0.1,1c-0.3,0.5-0.8,0.7-1.3,0.4
				C147.5,41.3,147.4,41.1,147.4,41z"/>
			<path class="st24" d="M144.7,41c-0.1-0.3-0.2-0.5-0.1-0.8c0-0.1,0.1-0.2,0.2-0.2c0,0,0.1-0.1,0.1-0.1c0.1-0.1,0.2-0.1,0.3-0.1
				c0.1,0,0.1,0,0.2,0c0.1,0,0.1,0,0.2,0c0.2,0,0.4,0.1,0.5,0.3c0.2,0.3,0.3,0.6,0.1,1c-0.3,0.5-0.8,0.7-1.3,0.4
				C144.9,41.3,144.8,41.1,144.7,41z"/>
			<path class="st25" d="M126.4,45.3c-2,0.1-6.7,0-7.9,0c-1.5,0-3,0-4.5,0c-0.9,0-2.4,0-3.5,0c-0.1,0.1,0,0.3,0,0.3c0,0,0,0.4,0,1.1
				c1,0,2.7,0,3.6,0c1.5,0,2.9,0,4.4,0c1.2,0,6.2,0,8,0c0-0.3,0-0.5,0-0.8C126.4,45.9,126.4,45.5,126.4,45.3z"/>
			<path class="st23" d="M124.4,49.3c-1,0.1-3.2,0-3.8,0c-0.7,0-1.4,0-2.1,0c-0.4,0-1.2,0-1.7,0c0,0.1,0,0.3,0,0.3c0,0,0,0.4,0,1.1
				c0.5,0,1.3,0,1.7,0c0.7,0,1.4,0,2.1,0c0.6,0,3,0,3.8,0c0-0.3,0-0.5,0-0.8C124.4,49.8,124.4,49.4,124.4,49.3z"/>
			<path class="st26" d="M130.5,49.3c-0.7,0.1-2.2,0-2.6,0c-0.5,0-1,0-1.4,0c-0.3,0-0.8,0-1.1,0c0,0.1,0,0.3,0,0.3c0,0,0,0.4,0,1.1
				c0.3,0,0.9,0,1.2,0c0.5,0,0.9,0,1.4,0c0.4,0,2,0,2.6,0c0-0.3,0-0.5,0-0.8C130.5,49.8,130.5,49.4,130.5,49.3z"/>
			<path class="st24" d="M147.3,52.3c-3.6,0.1-11.8,0-13.9,0c-2.6,0-5.2,0-7.8,0c-1.6,0-4.2,0-6.1,0c-0.1,0.1-0.1,0.3-0.1,0.3
				c0,0,0,0.4,0,1.1c1.8,0,4.7,0,6.3,0c2.5,0,5.1,0,7.6,0c2.1,0,10.8,0,14,0c0-0.3,0-0.5,0-0.8C147.3,52.8,147.3,52.4,147.3,52.3z"
				/>
			<path class="st24" d="M147.3,54.7c-3.6,0.1-11.8,0-13.9,0c-2.6,0-5.2,0-7.8,0c-1.6,0-4.2,0-6.1,0c-0.1,0.1-0.1,0.3-0.1,0.3
				c0,0,0,0.4,0,1.1c1.8,0,4.7,0,6.3,0c2.5,0,5.1,0,7.6,0c2.1,0,10.8,0,14,0c0-0.3,0-0.5,0-0.8C147.3,55.2,147.3,54.8,147.3,54.7z"
				/>
			<path class="st24" d="M147.3,57c-3.6,0.1-11.8,0-13.9,0c-2.6,0-5.2,0-7.8,0c-1.6,0-4.2,0-6.1,0c-0.1,0.1-0.1,0.3-0.1,0.3
				c0,0,0,0.4,0,1.1c1.8,0,4.7,0,6.3,0c2.5,0,5.1,0,7.6,0c2.1,0,10.8,0,14,0c0-0.3,0-0.5,0-0.8C147.3,57.6,147.3,57.2,147.3,57z"/>
			<path class="st24" d="M138.2,59.4c-2.4,0.1-7.9,0-9.4,0c-1.8,0-3.5,0-5.3,0c-1.1,0-2.9,0-4.1,0c-0.1,0.1,0,0.3,0,0.3
				c0,0,0,0.4,0,1.1c1.2,0,3.2,0,4.3,0c1.7,0,3.4,0,5.1,0c1.4,0,7.3,0,9.4,0c0-0.3,0-0.5,0-0.8C138.3,60,138.2,59.6,138.2,59.4z"/>
			<path class="st23" d="M124.4,61.8c-0.6,0.1-2.1,0-2.5,0c-0.5,0-0.9,0-1.4,0c-0.3,0-0.8,0-1.1,0c0,0.1,0,0.3,0,0.3
				c0,0,0,0.4,0,1.1c0.3,0,0.8,0,1.1,0c0.5,0,0.9,0,1.4,0c0.4,0,1.9,0,2.5,0c0-0.3,0-0.5,0-0.8C124.4,62.3,124.4,61.9,124.4,61.8z"
				/>
			<path class="st26" d="M124.4,64.2c-0.6,0.1-2.1,0-2.5,0c-0.5,0-0.9,0-1.4,0c-0.3,0-0.8,0-1.1,0c0,0.1,0,0.3,0,0.3
				c0,0,0,0.4,0,1.1c0.3,0,0.8,0,1.1,0c0.5,0,0.9,0,1.4,0c0.4,0,1.9,0,2.5,0c0-0.3,0-0.5,0-0.8C124.4,64.7,124.4,64.3,124.4,64.2z"
				/>
			<path class="st24" d="M147.3,66.5c-3.6,0.1-11.8,0-13.9,0c-2.6,0-5.2,0-7.8,0c-1.6,0-4.2,0-6.1,0c-0.1,0.1-0.1,0.3-0.1,0.3
				c0,0,0,0.4,0,1.1c1.8,0,4.7,0,6.3,0c2.5,0,5.1,0,7.6,0c2.1,0,10.8,0,14,0c0-0.3,0-0.5,0-0.8C147.3,67.1,147.3,66.7,147.3,66.5z"
				/>
			<path class="st26" d="M138.8,49.3c-0.9,0.1-3.1,0-3.7,0c-0.7,0-1.4,0-2.1,0c-0.4,0-1.1,0-1.6,0c0,0.1,0,0.3,0,0.3
				c0,0,0,0.4,0,1.1c0.5,0,1.2,0,1.7,0c0.7,0,1.4,0,2,0c0.6,0,2.9,0,3.7,0c0-0.3,0-0.5,0-0.8C138.8,49.8,138.8,49.4,138.8,49.3z"/>
			<path class="st23" d="M124.4,72.2c-1,0.1-3.2,0-3.8,0c-0.7,0-1.4,0-2.1,0c-0.4,0-1.2,0-1.7,0c0,0.1,0,0.3,0,0.3c0,0,0,0.4,0,1.1
				c0.5,0,1.3,0,1.7,0c0.7,0,1.4,0,2.1,0c0.6,0,3,0,3.8,0c0-0.3,0-0.5,0-0.8C124.4,72.7,124.4,72.3,124.4,72.2z"/>
			<path class="st24" d="M124.4,75.4c-1,0.1-3.2,0-3.8,0c-0.7,0-1.4,0-2.1,0c-0.4,0-1.2,0-1.7,0c0,0.1,0,0.3,0,0.3c0,0,0,0.4,0,1.1
				c0.5,0,1.3,0,1.7,0c0.7,0,1.4,0,2.1,0c0.6,0,3,0,3.8,0c0-0.3,0-0.5,0-0.8C124.4,76,124.4,75.6,124.4,75.4z"/>
			<path class="st23" d="M123.2,78.3c-0.8,0.1-2.7,0-3.2,0c-0.6,0-1.2,0-1.8,0c-0.4,0-1,0-1.4,0c0,0.1,0,0.3,0,0.3c0,0,0,0.4,0,1.1
				c0.4,0,1.1,0,1.5,0c0.6,0,1.2,0,1.8,0c0.5,0,2.5,0,3.2,0c0-0.3,0-0.5,0-0.8C123.2,78.8,123.2,78.4,123.2,78.3z"/>
			<path class="st26" d="M130.5,72.2c-0.7,0.1-2.2,0-2.6,0c-0.5,0-1,0-1.4,0c-0.3,0-0.8,0-1.1,0c0,0.1,0,0.3,0,0.3c0,0,0,0.4,0,1.1
				c0.3,0,0.9,0,1.2,0c0.5,0,0.9,0,1.4,0c0.4,0,2,0,2.6,0c0-0.3,0-0.5,0-0.8C130.5,72.7,130.5,72.3,130.5,72.2z"/>
			<path class="st24" d="M147.3,83.6c-3.6,0.1-11.8,0-13.9,0c-2.6,0-5.2,0-7.8,0c-1.6,0-4.2,0-6.1,0c-0.1,0.1-0.1,0.3-0.1,0.3
				c0,0,0,0.4,0,1.1c1.8,0,4.7,0,6.3,0c2.5,0,5.1,0,7.6,0c2.1,0,10.8,0,14,0c0-0.3,0-0.5,0-0.8C147.3,84.1,147.3,83.7,147.3,83.6z"
				/>
			<path class="st24" d="M147.3,85.9c-3.6,0.1-11.8,0-13.9,0c-2.6,0-5.2,0-7.8,0c-1.6,0-4.2,0-6.1,0c-0.1,0.1-0.1,0.3-0.1,0.3
				c0,0,0,0.4,0,1.1c1.8,0,4.7,0,6.3,0c2.5,0,5.1,0,7.6,0c2.1,0,10.8,0,14,0c0-0.3,0-0.5,0-0.8C147.3,86.5,147.3,86.1,147.3,85.9z"
				/>
			<path class="st24" d="M147.3,107.1c-3.6,0.1-11.8,0-13.9,0c-2.6,0-5.2,0-7.8,0c-1.6,0-4.2,0-6.1,0c-0.1,0.1-0.1,0.3-0.1,0.3
				c0,0,0,0.4,0,1.1c1.8,0,4.7,0,6.3,0c2.5,0,5.1,0,7.6,0c2.1,0,10.8,0,14,0c0-0.3,0-0.5,0-0.8C147.3,107.7,147.3,107.3,147.3,107.1
				z"/>
			<path class="st24" d="M147.3,109.6c-3.6,0.1-11.8,0-13.9,0c-2.6,0-5.2,0-7.8,0c-1.6,0-4.2,0-6.1,0c-0.1,0.1-0.1,0.3-0.1,0.3
				c0,0,0,0.4,0,1.1c1.8,0,4.7,0,6.3,0c2.5,0,5.1,0,7.6,0c2.1,0,10.8,0,14,0c0-0.3,0-0.5,0-0.8C147.3,110.2,147.3,109.8,147.3,109.6
				z"/>
			<path class="st24" d="M135.2,88.3c-2,0.1-6.7,0-7.9,0c-1.5,0-2.9,0-4.4,0c-0.9,0-2.4,0-3.4,0c-0.1,0.1,0,0.3,0,0.3
				c0,0,0,0.4,0,1.1c1,0,2.6,0,3.6,0c1.4,0,2.9,0,4.3,0c1.2,0,6.1,0,7.9,0c0-0.3,0-0.5,0-0.8C135.2,88.9,135.2,88.5,135.2,88.3z"/>
			<path class="st24" d="M129.3,90.7c-1.3,0.1-4.2,0-4.9,0c-0.9,0-1.9,0-2.8,0c-0.6,0-1.5,0-2.2,0c0,0.1,0,0.3,0,0.3
				c0,0,0,0.4,0,1.1c0.6,0,1.7,0,2.2,0c0.9,0,1.8,0,2.7,0c0.8,0,3.8,0,5,0c0-0.3,0-0.5,0-0.8C129.4,91.3,129.4,90.9,129.3,90.7z"/>
			<path class="st24" d="M127,93.1c-1,0.1-3.2,0-3.8,0c-0.7,0-1.4,0-2.1,0c-0.4,0-1.2,0-1.7,0c0,0.1,0,0.3,0,0.3c0,0,0,0.4,0,1.1
				c0.5,0,1.3,0,1.7,0c0.7,0,1.4,0,2.1,0c0.6,0,2.9,0,3.8,0c0-0.3,0-0.5,0-0.8C127.1,93.6,127.1,93.2,127,93.1z"/>
			<path class="st24" d="M140.6,95.5c-2.7,0.1-8.9,0-10.5,0c-2,0-4,0-5.9,0c-1.2,0-3.2,0-4.6,0c-0.1,0.1,0,0.3-0.1,0.3
				c0,0,0,0.4,0,1.1c1.3,0,3.5,0,4.8,0c1.9,0,3.9,0,5.8,0c1.6,0,8.2,0,10.6,0c0-0.3,0-0.5,0-0.8C140.6,96,140.6,95.6,140.6,95.5z"/>
			<path class="st24" d="M142.8,97.8c-3,0.1-9.9,0-11.7,0c-2.2,0-4.4,0-6.6,0c-1.3,0-3.6,0-5.1,0c-0.1,0.1-0.1,0.3-0.1,0.3
				c0,0,0,0.4,0,1.1c1.5,0,3.9,0,5.3,0c2.1,0,4.3,0,6.4,0c1.8,0,9.1,0,11.7,0c0-0.3,0-0.5,0-0.8C142.9,98.4,142.9,98,142.8,97.8z"/>
			<path class="st26" d="M138.8,72.2c-0.9,0.1-3.1,0-3.7,0c-0.7,0-1.4,0-2.1,0c-0.4,0-1.1,0-1.6,0c0,0.1,0,0.3,0,0.3
				c0,0,0,0.4,0,1.1c0.5,0,1.2,0,1.7,0c0.7,0,1.4,0,2,0c0.6,0,2.9,0,3.7,0c0-0.3,0-0.5,0-0.8C138.8,72.7,138.8,72.3,138.8,72.2z"/>
			<path class="st23" d="M124.4,103.8c-1,0.1-3.2,0-3.8,0c-0.7,0-1.4,0-2.1,0c-0.4,0-1.2,0-1.7,0c0,0.1,0,0.3,0,0.3c0,0,0,0.4,0,1.1
				c0.5,0,1.3,0,1.7,0c0.7,0,1.4,0,2.1,0c0.6,0,3,0,3.8,0c0-0.3,0-0.5,0-0.8C124.4,104.3,124.4,103.9,124.4,103.8z"/>
			<path class="st26" d="M130.5,103.8c-0.7,0.1-2.2,0-2.6,0c-0.5,0-1,0-1.4,0c-0.3,0-0.8,0-1.1,0c0,0.1,0,0.3,0,0.3c0,0,0,0.4,0,1.1
				c0.3,0,0.9,0,1.2,0c0.5,0,0.9,0,1.4,0c0.4,0,2,0,2.6,0c0-0.3,0-0.5,0-0.8C130.5,104.3,130.5,103.9,130.5,103.8z"/>
			<path class="st26" d="M146.4,103.8c-1.9,0.1-6.3,0-7.5,0c-1.4,0-2.8,0-4.2,0c-0.8,0-2.3,0-3.3,0c0,0.1,0,0.3,0,0.3
				c0,0,0,0.4,0,1.1c0.9,0,2.5,0,3.4,0c1.4,0,2.7,0,4.1,0c1.2,0,5.8,0,7.5,0c0-0.3,0-0.5,0-0.8C146.4,104.3,146.4,103.9,146.4,103.8
				z"/>
		</g>
		<g>
			<path class="st27" d="M124.8,150.4c0.6-17.6,0.8-35.1,0.7-53.1c0-1-0.1-2-0.3-3c-0.2-1-0.7-2.3-1.7-2.3
				c-11.8,0.1-23.5,0.1-35.3,0.2c-3.1,0-6.1,0-9.2,0.1c-14.2,0.1-28.8,0.1-42.9,0c-1,0-1.6-0.2-2.4,0c-0.7,0.2-1.4,0.3-2,0.7
				c-1.1,0.8-1.7,2.8-1.7,4.2c0.6,17.8,0.7,35.7,0.2,53.5c3.9,1,8,0.4,12,0.4C70.2,150.8,97.4,151.7,124.8,150.4z"/>
			<path class="st21" d="M71.4,157c7.4-0.2,37.4-0.3,40.1-0.2c8.1,0.2,11.9,0.3,20,0.1c0.2,0,0.4,0,0.6,0c0.2-0.1,0.3-0.3,0.3-0.4
				c-0.1-1.6,0-3.3-0.1-4.9c0-0.3,0-0.5-0.1-0.7c-0.2-0.2-0.5-0.3-0.7-0.3c-36.4,0-69.6,0.4-109.4,0c-0.7,0-1.3,0.3-1.3,0.8
				c0,1.7,0,3.2,0,5.1c0,0.4,0.2,0.7,0.6,0.7c8.5,0.2,28.5-0.1,30.9,0C56.7,157,66.8,156.9,71.4,157z"/>
			<path class="st27" d="M65.8,151.3c0.1,0.6,0.8,0.7,1.4,0.8c1,0,18.6,0.5,25.6,0c0.1,0,1.2-0.2,1.3-0.3c0.1-0.1,0.1-0.3,0.1-0.4
				c0-0.3,0-0.7,0-1c-9.4,0-18.9,0.1-28.5,0.1C65.7,150.8,65.7,151.1,65.8,151.3z"/>
			<path class="st24" d="M122.4,147.8c0.4-17.4,0.2-52.7,0.2-52.9c-6.2,0-12.3,0-18.5,0c-3.1,0-6.3,0-9.4,0c-20.6,0-41.4,0.2-62,0.6
				c0.3,17.4,0.2,34.9-0.2,52.3C62.2,147.5,92.7,147.6,122.4,147.8z"/>
			<g>
				<path class="st21" d="M82.9,109c0-2-0.1-4-0.1-6c0-0.2-0.1-1.5-0.2-1.7c-0.1-0.3-20.2,0-24.1-0.1c-3.9,0-23.2,0.1-23.3,0.1
					c-0.5,0-0.4,0.9-0.4,0.9c0,0.1,0,26.7,0,40.1c0.1,0.2,8.3,0.1,12.1,0.1c4,0,7.9,0,11.9,0c3.9,0,21.5,0.1,23.5-0.2
					c0.1,0,0.1,0,0.2-0.1c0.2,0,0.3-0.1,0.4-0.2c0.1-6.3,0.1-12.5,0-18.7C82.8,118.5,82.9,113.7,82.9,109z"/>
				<path class="st22" d="M82.9,104.9c0-0.6,0-1.3,0-1.9c0-0.2-0.1-1.5-0.2-1.7c-0.1-0.3-20.2,0-24.1-0.1c-3.9,0-23.2,0.1-23.3,0.1
					c-0.5,0-0.4,0.9-0.4,0.9c0,0,0,1,0,2.8c3,0,8,0,10.9,0c4.4,0,8.8,0,13.1,0C62.5,105,77.4,105.1,82.9,104.9z"/>
				<path class="st23" d="M79.8,103.6c-0.2-0.3-0.2-0.6-0.1-0.9c0-0.1,0.1-0.2,0.2-0.3c0,0,0.1-0.1,0.1-0.1c0.1-0.1,0.2-0.1,0.3-0.2
					c0.1,0,0.2,0,0.2-0.1c0.1,0,0.2,0,0.2,0c0.2,0,0.4,0.1,0.6,0.3c0.3,0.3,0.4,0.7,0.2,1.1c-0.3,0.6-1,0.7-1.5,0.4
					C79.9,103.9,79.8,103.8,79.8,103.6z"/>
				<path class="st24" d="M76.7,103.6c-0.2-0.3-0.2-0.6-0.1-0.9c0-0.1,0.1-0.2,0.2-0.3c0,0,0.1-0.1,0.1-0.1c0.1-0.1,0.2-0.1,0.3-0.2
					c0.1,0,0.2,0,0.2-0.1c0.1,0,0.2,0,0.2,0c0.2,0,0.4,0.1,0.6,0.3c0.3,0.3,0.4,0.7,0.2,1.1c-0.3,0.6-1,0.7-1.5,0.4
					C76.9,103.9,76.8,103.8,76.7,103.6z"/>
				<path class="st24" d="M73.7,103.6c-0.2-0.3-0.2-0.6-0.1-0.9c0-0.1,0.1-0.2,0.2-0.3c0,0,0.1-0.1,0.1-0.1c0.1-0.1,0.2-0.1,0.3-0.2
					c0.1,0,0.2,0,0.2-0.1c0.1,0,0.2,0,0.2,0c0.2,0,0.4,0.1,0.6,0.3c0.3,0.3,0.4,0.7,0.2,1.1c-0.3,0.6-1,0.7-1.5,0.4
					C73.9,103.9,73.8,103.8,73.7,103.6z"/>
				<path class="st25" d="M63.7,107.3c-3.3,0.1-11,0-13,0c-2.4,0-4.9,0-7.3,0c-1.5,0-4,0-5.7,0c-0.1,0.1-0.1,0.3-0.1,0.3
					c0,0,0,0.5,0,1.3c1.7,0,4.4,0,5.9,0c2.4,0,4.8,0,7.2,0c2,0,10.1,0,13.1,0c0-0.3,0-0.6,0-0.9C63.8,107.9,63.7,107.5,63.7,107.3z"
					/>
				<path class="st23" d="M51.4,111c-1.1,0-3.8,0-4.4,0c-0.8,0-1.7,0-2.5,0c-0.5,0-1.4,0-1.9,0c0,0.1,0,0.2,0,0.2c0,0,0,0.3,0,0.9
					c0.6,0,1.5,0,2,0c0.8,0,1.6,0,2.4,0c0.7,0,3.4,0,4.5,0c0-0.2,0-0.4,0-0.6C51.5,111.5,51.5,111.2,51.4,111z"/>
				<path class="st24" d="M69.8,113.7c-2.7,0-9.1,0-10.7,0c-2,0-4,0-6,0c-1.2,0-3.3,0-4.7,0c-0.1,0.1,0,0.2-0.1,0.2c0,0,0,0.3,0,0.9
					c1.4,0,3.6,0,4.9,0c2,0,3.9,0,5.9,0c1.7,0,8.3,0,10.8,0c0-0.2,0-0.4,0-0.6C69.8,114.2,69.8,113.9,69.8,113.7z"/>
				<path class="st26" d="M60.9,115.9c-1.6,0-5.3,0-6.3,0c-1.2,0-2.4,0-3.5,0c-0.7,0-1.9,0-2.8,0c0,0.1,0,0.2,0,0.2c0,0,0,0.3,0,0.9
					c0.8,0,2.1,0,2.9,0c1.2,0,2.3,0,3.5,0c1,0,4.9,0,6.3,0c0-0.2,0-0.4,0-0.6C61,116.3,60.9,116,60.9,115.9z"/>
				<path class="st24" d="M66.2,118.1c-2.3,0-7.6,0-8.9,0c-1.7,0-3.4,0-5,0c-1,0-2.7,0-3.9,0c-0.1,0.1,0,0.2,0,0.2c0,0,0,0.3,0,0.9
					c1.1,0,3,0,4.1,0c1.6,0,3.3,0,4.9,0c1.4,0,6.9,0,9,0c0-0.2,0-0.4,0-0.6C66.3,118.5,66.2,118.2,66.2,118.1z"/>
				<path class="st24" d="M69.8,120.2c-2.7,0-9.1,0-10.7,0c-2,0-4,0-6,0c-1.2,0-3.3,0-4.7,0c-0.1,0.1,0,0.2-0.1,0.2c0,0,0,0.3,0,0.9
					c1.4,0,3.6,0,4.9,0c2,0,3.9,0,5.9,0c1.7,0,8.3,0,10.8,0c0-0.2,0-0.4,0-0.6C69.8,120.7,69.8,120.4,69.8,120.2z"/>
				<path class="st26" d="M66.1,122.4c-2.3,0-7.5,0-8.9,0c-1.7,0-3.3,0-5,0c-1,0-2.7,0-3.9,0c-0.1,0.1,0,0.2,0,0.2c0,0,0,0.3,0,0.9
					c1.1,0,3,0,4,0c1.6,0,3.3,0,4.9,0c1.4,0,6.9,0,8.9,0c0-0.2,0-0.4,0-0.6C66.1,122.8,66.1,122.5,66.1,122.4z"/>
				<path class="st23" d="M51.4,126.7c-1.1,0-3.8,0-4.4,0c-0.8,0-1.7,0-2.5,0c-0.5,0-1.4,0-1.9,0c0,0.1,0,0.2,0,0.2c0,0,0,0.3,0,0.9
					c0.6,0,1.5,0,2,0c0.8,0,1.6,0,2.4,0c0.7,0,3.4,0,4.5,0c0-0.2,0-0.4,0-0.6C51.5,127.2,51.5,126.8,51.4,126.7z"/>
				<path class="st26" d="M57.6,126.7c-0.6,0-2.1,0-2.5,0c-0.5,0-0.9,0-1.4,0c-0.3,0-0.8,0-1.1,0c0,0.1,0,0.2,0,0.2c0,0,0,0.3,0,0.9
					c0.3,0,0.9,0,1.2,0c0.5,0,0.9,0,1.4,0c0.4,0,2,0,2.5,0c0-0.2,0-0.4,0-0.6C57.6,127.2,57.6,126.8,57.6,126.7z"/>
				<path class="st24" d="M69.8,129.4c-2.7,0-9.1,0-10.7,0c-2,0-4,0-6,0c-1.2,0-3.3,0-4.7,0c-0.1,0.1,0,0.2-0.1,0.2c0,0,0,0.3,0,0.9
					c1.4,0,3.6,0,4.9,0c2,0,3.9,0,5.9,0c1.7,0,8.3,0,10.8,0c0-0.2,0-0.4,0-0.6C69.8,129.9,69.8,129.5,69.8,129.4z"/>
				<path class="st24" d="M68.4,131.6c-2.6,0-8.5,0-10,0c-1.9,0-3.8,0-5.6,0c-1.1,0-3.1,0-4.4,0c-0.1,0.1,0,0.2,0,0.2
					c0,0,0,0.3,0,0.9c1.3,0,3.4,0,4.6,0c1.8,0,3.7,0,5.5,0c1.5,0,7.8,0,10.1,0c0-0.2,0-0.4,0-0.6C68.4,132,68.4,131.7,68.4,131.6z"
					/>
				<path class="st24" d="M68.4,133.7c-2.6,0-8.5,0-10,0c-1.9,0-3.8,0-5.7,0c-1.1,0-3.1,0-4.4,0c-0.1,0.1,0,0.2,0,0.2
					c0,0,0,0.3,0,0.9c1.3,0,3.4,0,4.6,0c1.8,0,3.7,0,5.5,0c1.6,0,7.8,0,10.1,0c0-0.2,0-0.4,0-0.6C68.5,134.2,68.5,133.9,68.4,133.7z
					"/>
				<path class="st26" d="M69.8,135.9c-2.7,0-9.1,0-10.7,0c-2,0-4,0-6,0c-1.2,0-3.3,0-4.7,0c-0.1,0.1,0,0.2-0.1,0.2c0,0,0,0.3,0,0.9
					c1.4,0,3.6,0,4.9,0c2,0,3.9,0,5.9,0c1.7,0,8.3,0,10.8,0c0-0.2,0-0.4,0-0.6C69.8,136.4,69.8,136,69.8,135.9z"/>
				<path class="st24" d="M66.1,138.1c-2.3,0-7.5,0-8.9,0c-1.7,0-3.3,0-5,0c-1,0-2.7,0-3.9,0c-0.1,0.1,0,0.2,0,0.2c0,0,0,0.3,0,0.9
					c1.1,0,3,0,4,0c1.6,0,3.3,0,4.9,0c1.4,0,6.9,0,8.9,0c0-0.2,0-0.4,0-0.6C66.1,138.5,66.1,138.2,66.1,138.1z"/>
			</g>
			<g>
				<path class="st25" d="M112.6,104.7C112.6,104.7,112.6,104.7,112.6,104.7c-0.1-0.7-0.8-1.1-1.5-1.3c-1.1-0.3-2.3-0.3-3.4-0.4
					c-4.5-0.2-9-0.3-13.4,0.3c-0.8,0.1-1.7,0.3-2.2,0.9c-0.1,0.2-0.3,0.3-0.3,0.5c0,0,0,0.1,0,0.1c0,0,0,0,0,0
					c0,5.2,0,10.5-0.1,15.7c0,2,0,4.1,0.1,6.1c0,0,0,0,0,0c-0.4,3.2,17,1.6,19,1.3c0.8-0.1,1.9-0.5,1.9-1.3c0,0,0,0,0,0c0,0,0,0,0,0
					c0.1-2.8,0.1-5.7,0.1-8.5C112.8,113.7,112.8,109.1,112.6,104.7z"/>
				<path class="st28" d="M112.8,118.5c0-2.9,0-5.8-0.1-8.8c0-1.7-0.1-3.4-0.1-5c0-0.1,0-0.1-0.1-0.1c-0.2-1-1.5-1.3-2.4-1.4
					c-1.7-0.2-3.4-0.3-5.1-0.4c-3.4-0.2-6.8-0.1-10.2,0.3c-1.2,0.1-2.5,0.3-3.2,1.4c0,0-0.1,0.2-0.1,0.3c0.1,2.9,0,5.8,0,8.7
					c0,2.9,0,5.8,0,8.8c0,0.2,0,0.4,0,0.6c-0.1,0.6-0.1,1.3-0.1,1.9c0,0.4,0,0.8,0,1.2c0,0.4,0,1.3,0.1,1.3c0.7,0.8,2,1.1,3.1,1.3
					c1.4,0.2,2.8,0.2,4.2,0.3c3,0.1,5.9,0.1,8.9-0.3c1.6-0.2,3.3-0.5,4.8-0.9c0.1,0,0.1-0.1,0.1-0.2c0.1,0,0.1-0.1,0.1-0.1
					C112.9,124.4,112.9,121.4,112.8,118.5z M112.3,104.9c0,2.4,0.1,4.7,0.1,7.1c0,0,0,0,0,0c-0.9,0.1-1.7,0.3-2.6,0.5
					c-0.9,0.1-1.7,0.2-2.6,0.3c-1.7,0.2-3.4,0.2-5.1,0.2c-1.7,0-3.4-0.1-5.1-0.3c-1.7-0.2-3.4-0.6-5.2-0.9c0,0,0,0,0,0
					c0-0.7,0-1.5,0-2.2c0-1.6,0-3.2,0-4.8c0.6,0.2,1.2,0.3,1.8,0.5c0.7,0.1,1.3,0.3,2,0.4c1.3,0.2,2.7,0.4,4,0.5
					c2.7,0.2,5.5,0,8.2-0.4C109.4,105.6,110.8,105.3,112.3,104.9z M91.9,118.4c0-2.1,0-4.2,0-6.3c1.6,0.5,3.3,0.8,5,1
					c1.7,0.2,3.5,0.3,5.3,0.4c1.8,0,3.5-0.1,5.3-0.3c0.8-0.1,1.7-0.2,2.5-0.3c0.8-0.1,1.7-0.3,2.5-0.5c0,2.4,0,4.8,0,7.2
					c0,0,0,0,0,0c-3.5,0.7-7,1.1-10.6,1c-1.7,0-3.5-0.1-5.2-0.3c-0.8-0.1-1.7-0.2-2.5-0.4c-0.8-0.2-1.6-0.5-2.3-0.8
					C91.9,118.9,91.9,118.6,91.9,118.4z M94.9,103.4c1.5-0.2,3-0.3,4.5-0.3c2.9-0.1,5.8,0,8.8,0.2c0.8,0.1,1.6,0.1,2.4,0.2
					c0.7,0.1,1.6,0.4,1.8,1c-3.3,0.9-6.8,1.4-10.3,1.4c-1.7,0-3.5-0.1-5.2-0.4c-0.9-0.1-1.7-0.3-2.6-0.4c-0.8-0.2-1.5-0.4-2.3-0.5
					C92.6,103.7,93.8,103.5,94.9,103.4z M95.6,128.2c-0.7,0-1.4-0.1-2-0.3c-0.6-0.2-1.2-0.5-1.8-0.8c0,0,0,0,0-0.1
					c0.1-2.5,0.1-5.1,0.1-7.7c1,0.7,2.4,0.9,3.5,1.1c1.3,0.2,2.6,0.3,3.9,0.4c2.8,0.1,5.7,0.1,8.5-0.3c1.5-0.2,3.1-0.4,4.6-0.7
					c0,0.8,0,1.5,0,2.3c0,1.7-0.1,3.3,0,5c0,0,0,0-0.1,0C107,128.6,101.2,128.6,95.6,128.2z"/>
			</g>
			<g class="st29">
				<path class="st21" d="M92.6,138.4l1.6-0.2c0.1,0.5,0.3,0.9,0.6,1.2c0.3,0.3,0.7,0.4,1.2,0.4c0.5,0,0.9-0.1,1.2-0.3
					c0.3-0.2,0.4-0.5,0.4-0.8c0-0.2-0.1-0.4-0.2-0.5c-0.1-0.1-0.3-0.3-0.6-0.4c-0.2-0.1-0.6-0.2-1.3-0.4c-0.9-0.2-1.5-0.5-1.9-0.8
					c-0.5-0.4-0.7-1-0.7-1.6c0-0.4,0.1-0.8,0.4-1.2c0.2-0.4,0.6-0.6,1-0.8c0.4-0.2,1-0.3,1.6-0.3c1,0,1.8,0.2,2.3,0.7
					c0.5,0.4,0.8,1,0.8,1.8l-1.6,0.1c-0.1-0.4-0.2-0.7-0.5-0.9c-0.2-0.2-0.6-0.3-1-0.3c-0.5,0-0.9,0.1-1.1,0.3
					c-0.2,0.1-0.3,0.3-0.3,0.5c0,0.2,0.1,0.4,0.2,0.5c0.2,0.2,0.7,0.4,1.5,0.5c0.8,0.2,1.4,0.4,1.8,0.6c0.4,0.2,0.7,0.5,0.9,0.8
					c0.2,0.3,0.3,0.8,0.3,1.3c0,0.5-0.1,0.9-0.4,1.3c-0.3,0.4-0.6,0.7-1.1,0.9c-0.5,0.2-1.1,0.3-1.8,0.3c-1,0-1.8-0.2-2.4-0.7
					C93,140,92.7,139.3,92.6,138.4z"/>
				<path class="st21" d="M107.1,140c0.4,0.3,0.8,0.5,1.3,0.7l-0.6,1.2c-0.2-0.1-0.5-0.2-0.7-0.3c-0.1,0-0.4-0.3-1.1-0.7
					c-0.5,0.2-1.1,0.3-1.8,0.3c-1.2,0-2.2-0.4-2.9-1.1s-1.1-1.8-1.1-3.1c0-1.3,0.4-2.4,1.1-3.1c0.7-0.7,1.7-1.1,2.9-1.1
					c1.2,0,2.2,0.4,2.9,1.1c0.7,0.7,1.1,1.8,1.1,3.1c0,0.7-0.1,1.3-0.3,1.9C107.7,139.2,107.5,139.6,107.1,140z M105.8,139.1
					c0.2-0.2,0.4-0.5,0.5-0.9c0.1-0.4,0.2-0.8,0.2-1.2c0-0.9-0.2-1.6-0.6-2.1c-0.4-0.5-1-0.7-1.6-0.7s-1.2,0.2-1.6,0.7
					c-0.4,0.5-0.6,1.2-0.6,2.1c0,1,0.2,1.7,0.6,2.1c0.4,0.5,0.9,0.7,1.6,0.7c0.2,0,0.5,0,0.7-0.1c-0.3-0.2-0.7-0.4-1-0.5l0.5-0.9
					C104.8,138.4,105.3,138.7,105.8,139.1z"/>
				<path class="st21" d="M109.5,141V133h1.6v6.7h4.1v1.4H109.5z"/>
			</g>
		</g>
		<g>
			<path class="st23" d="M95.4,50.1c0-2.1-0.1-4.2-0.1-6.4c0-0.2-0.1-1.6-0.2-1.8c-0.1-0.3-20.1,0-24-0.1c-3.9,0-23,0.1-23.2,0.1
				c-0.5,0-0.4,1-0.4,1c0,0.1,0,28.3,0,42.4c0.1,0.2,8.3,0.1,12.1,0.1c3.9,0,7.9,0,11.8,0c3.9,0,21.4,0.1,23.3-0.2
				c0.1,0,0.1,0,0.1-0.1c0.2,0,0.3-0.1,0.4-0.2c0.1-6.6,0.1-13.3,0-19.8C95.3,60.1,95.3,55.1,95.4,50.1z"/>
			<path class="st30" d="M94.2,85.4c0.2,0,0.4,0,0.5-0.1c0.1,0,0.1,0,0.1-0.1c0.2,0,0.3-0.1,0.4-0.2c0.1-6.3,0.1-12.6,0-18.9
				c-0.2-0.1-0.3-0.2-0.5-0.3c-0.8-0.4-1.6-0.8-2.4-1.1c-0.6-1.7-1.3-4.1-1.4-4.3c-0.2-0.4-0.4-2.7-0.7-2.8c-0.3-0.2-8-0.3-8.4,0
				c-0.3,0.2-1.5,5.2-2,7.3c-2,0.8-3.9,2-5.5,3.5c-1.8-0.5-7.2-2.1-7.6-2c-0.5,0.1-4,6.7-4.2,7.3c-0.1,0.6,2.6,2.5,3.5,3.4
				c0.4,0.4,1.4,1.4,2.3,2.3c-0.1,0.5-0.1,1-0.2,1.5c-0.1,1.5,0,3,0.2,4.5c-0.1,0.1-0.1,0.1-0.2,0.2c1.1,0,2.1,0,3.2,0
				c1.3,0,4,0,7.1,0c-1-2.5-0.8-5.4,0.7-7.7c2-3.3,6.2-4.7,9.9-3.5c3.6,1.2,6,4.9,5.7,8.7C94.7,83.8,94.5,84.6,94.2,85.4z"/>
			<path class="st26" d="M75.5,54.7c-0.2-0.2-0.7-0.8-0.7-0.8l-5-4.7c0.4-2.3,0.2-4.6-0.3-6.9c0.1-0.1,0.3-0.3,0.4-0.4
				c-2.4,0-6.7,0-10.9,0c0.6,1.3,0.9,2.8,0.8,4.3c-0.2,2.6-1.8,5.2-4,6.7c-1.3,1.2-3.5,1.6-5.2,1.6c-1.1,0-2.2-0.3-3.2-0.7
				c0,5.2,0,11.6,0,17.7c0.1,0,0.2,0,0.2,0s7.1,0.2,7.3,0c0.2-0.2,0.3-0.1,0.4-0.5c0.1-0.3,1.6-5.6,1.8-6.9c2.4-0.7,4.6-1.9,6.3-3.5
				c2.5,0.7,7.5,2,7.6,1.8c0.2-0.2,0.6-0.9,0.6-0.9S75.7,54.9,75.5,54.7z"/>
			<path class="st22" d="M58.9,47.2c4.2,0,8.3,0,12.5,0c3.8,0,20.1,0.1,23.9-0.2c0-1.1,0-2.2-0.1-3.3c0-0.2-0.1-1.6-0.2-1.8
				c-0.1-0.3-20.1,0-24-0.1c-3.9,0-23,0.1-23.2,0.1c-0.5,0-0.4,1-0.4,1c0,0,0,1.6,0,4.2C50.1,47.3,55.9,47.2,58.9,47.2z"/>
			<path class="st23" d="M91.8,44.8c-0.2-0.3-0.2-0.7-0.1-1c0-0.1,0.1-0.2,0.2-0.3c0,0,0.1-0.1,0.2-0.2c0.1-0.1,0.2-0.1,0.4-0.2
				c0.1,0,0.2-0.1,0.3-0.1c0.1,0,0.2,0,0.3,0c0.3,0,0.5,0.2,0.7,0.3c0.3,0.3,0.4,0.8,0.2,1.3c-0.3,0.7-1.1,0.8-1.6,0.5
				C92.1,45.1,91.9,45,91.8,44.8z"/>
			<path class="st24" d="M88.4,44.8c-0.2-0.3-0.2-0.7-0.1-1c0-0.1,0.1-0.2,0.2-0.3c0,0,0.1-0.1,0.2-0.2c0.1-0.1,0.2-0.1,0.4-0.2
				c0.1,0,0.2-0.1,0.3-0.1c0.1,0,0.2,0,0.3,0c0.3,0,0.5,0.2,0.7,0.3c0.3,0.3,0.4,0.8,0.2,1.3c-0.3,0.7-1.1,0.8-1.6,0.5
				C88.7,45.1,88.5,45,88.4,44.8z"/>
			<path class="st24" d="M85.1,44.8c-0.2-0.3-0.2-0.7-0.1-1c0-0.1,0.1-0.2,0.2-0.3c0,0,0.1-0.1,0.2-0.2c0.1-0.1,0.2-0.1,0.4-0.2
				c0.1,0,0.2-0.1,0.3-0.1c0.1,0,0.2,0,0.3,0c0.3,0,0.5,0.2,0.7,0.3c0.3,0.3,0.4,0.8,0.2,1.3c-0.3,0.7-1.1,0.8-1.6,0.5
				C85.3,45.1,85.2,45,85.1,44.8z"/>
		</g>
		<g>
			<path class="st24" d="M151,51.7c0-1-0.1-2.1-0.1-3.1c0-0.1-0.1-0.8-0.1-0.9c-0.1-0.2-16.4,0-19.6,0c-3.1,0-18.8,0-18.9,0
				c-0.4,0-0.3,0.5-0.4,0.5c0,0.1,0,13.9,0,20.8c0.1,0.1,6.7,0.1,9.8,0.1c3.2,0,6.4,0,9.6,0c3.2,0,17.5,0.1,19-0.1c0,0,0.1,0,0.1,0
				c0.1,0,0.3,0,0.4-0.1c0-3.3,0.1-6.5,0-9.7C150.9,56.6,150.9,54.2,151,51.7z"/>
			<path class="st22" d="M150.8,47.7c-0.1-0.2-16.4,0-19.6,0c-3.1,0-18.8,0-18.9,0c-0.4,0-0.3,0.5-0.4,0.5c0,0,0,1.5,0,3.8
				c2.1,0,6.8,0,9.3,0c3.4,0,6.8,0,10.2,0c3.1,0,16.4,0,19.5,0c0-0.1,0-0.2,0-0.3c0-1-0.1-2.1-0.1-3.1
				C150.9,48.5,150.9,47.8,150.8,47.7z"/>
			<path class="st23" d="M147.6,50.4c-0.2-0.3-0.2-0.7-0.1-1c0-0.1,0.1-0.2,0.2-0.3c0,0,0.1-0.1,0.2-0.2c0.1-0.1,0.2-0.1,0.4-0.2
				c0.1,0,0.2-0.1,0.3-0.1c0.1,0,0.2,0,0.3,0c0.3,0,0.5,0.2,0.7,0.3c0.3,0.3,0.4,0.8,0.2,1.3c-0.3,0.7-1.1,0.8-1.6,0.5
				C147.8,50.7,147.6,50.5,147.6,50.4z"/>
			<path class="st24" d="M144.2,50.4c-0.2-0.3-0.2-0.7-0.1-1c0-0.1,0.1-0.2,0.2-0.3c0,0,0.1-0.1,0.2-0.2c0.1-0.1,0.2-0.1,0.4-0.2
				c0.1,0,0.2-0.1,0.3-0.1c0.1,0,0.2,0,0.3,0c0.3,0,0.5,0.2,0.7,0.3c0.3,0.3,0.4,0.8,0.2,1.3c-0.3,0.7-1.1,0.8-1.6,0.5
				C144.4,50.7,144.3,50.5,144.2,50.4z"/>
			<path class="st24" d="M140.8,50.4c-0.2-0.3-0.2-0.7-0.1-1c0-0.1,0.1-0.2,0.2-0.3c0,0,0.1-0.1,0.2-0.2c0.1-0.1,0.2-0.1,0.4-0.2
				c0.1,0,0.2-0.1,0.3-0.1c0.1,0,0.2,0,0.3,0c0.3,0,0.5,0.2,0.7,0.3c0.3,0.3,0.4,0.8,0.2,1.3c-0.3,0.7-1.1,0.8-1.6,0.5
				C141,50.7,140.9,50.5,140.8,50.4z"/>
			<path class="st31" d="M114.9,69c-0.9-0.1-1.8-0.1-2.7-0.2c0.1-2.6,0-5.2,0-7.8c0-2.7,0-5.4,0-8c0-0.3-0.4-0.3-0.4,0
				c-0.1,2.7,0,5.4,0,8c0,2.6,0,5.3,0.1,7.9c-0.1,0.1,0,0.3,0.2,0.3c1,0.1,1.9,0.1,2.9,0.2C115.2,69.4,115.2,69,114.9,69z"/>
			<path class="st26" d="M148.7,56.3c0-0.6,0-1.3-0.1-1.9c0-0.1,0-0.5-0.1-0.5c-0.1-0.1-14.5,0-17.3,0c-2.8,0-16.6,0-16.7,0
				c-0.4,0-0.3,0.3-0.3,0.3c0,0,0,8.7,0,13c0.1,0.1,6,0,8.7,0c2.8,0,5.7,0,8.5,0c2.8,0,15.4,0,16.8-0.1c0,0,0.1,0,0.1,0
				c0.1,0,0.2,0,0.3-0.1c0-2,0.1-4.1,0-6.1C148.7,59.4,148.7,57.9,148.7,56.3z"/>
			<g class="st29">
				<text transform="matrix(1 0 0 1 117.2383 62.6733)" class="st24 st32 st33">&lt;...&gt;/&lt;...&gt;</text>
			</g>
		</g>
		<g>
			<path class="st24" d="M112.5,73.2c0-0.9,0-1.8-0.1-2.7c0-0.1,0-0.7-0.1-0.8c0-0.1-10.2,0-12.2,0c-2,0-11.7,0-11.8,0
				c-0.3,0-0.2,0.4-0.2,0.4c0,0.1,0,12.1,0,18.2c0.1,0.1,4.2,0.1,6.1,0.1c2,0,4,0,6,0c2,0,10.9,0,11.9-0.1c0,0,0,0,0.1,0
				c0.1,0,0.2,0,0.2-0.1c0-2.8,0-5.7,0-8.5C112.5,77.5,112.5,75.3,112.5,73.2z"/>
			<path class="st25" d="M111,77.8c0-0.5,0-1.1,0-1.6c0-0.1,0-0.4-0.1-0.5c0-0.1-8.9,0-10.7,0c-1.7,0-10.3,0-10.3,0
				c-0.2,0-0.2,0.3-0.2,0.3c0,0,0,7.2,0,10.7c0.1,0,3.7,0,5.4,0c1.8,0,3.5,0,5.3,0c1.7,0,9.5,0,10.4-0.1c0,0,0,0,0.1,0
				c0.1,0,0.1,0,0.2-0.1c0-1.7,0-3.4,0-5C111,80.4,111,79.1,111,77.8z"/>
			<path class="st22" d="M112.4,69.7c0-0.1-10.2,0-12.2,0c-2,0-11.7,0-11.8,0c-0.3,0-0.2,0.4-0.2,0.4c0,0,0,1.5,0,3.6
				c1.5,0,4.1,0,5.5,0c2.2,0,4.4,0,6.7,0c1.9,0,9.4,0,12.2,0c0-0.2,0-0.4,0-0.5c0-0.9,0-1.8-0.1-2.7
				C112.5,70.4,112.5,69.8,112.4,69.7z"/>
			<path class="st23" d="M109.2,72.2c-0.2-0.3-0.2-0.7-0.1-1c0-0.1,0.1-0.2,0.2-0.3c0,0,0.1-0.1,0.2-0.2c0.1-0.1,0.2-0.1,0.4-0.2
				c0.1,0,0.2-0.1,0.3-0.1c0.1,0,0.2,0,0.3,0c0.3,0,0.5,0.2,0.7,0.3c0.3,0.3,0.4,0.8,0.2,1.3c-0.3,0.7-1.1,0.8-1.6,0.5
				C109.4,72.5,109.3,72.4,109.2,72.2z"/>
			<path class="st24" d="M105.8,72.2c-0.2-0.3-0.2-0.7-0.1-1c0-0.1,0.1-0.2,0.2-0.3c0,0,0.1-0.1,0.2-0.2c0.1-0.1,0.2-0.1,0.4-0.2
				c0.1,0,0.2-0.1,0.3-0.1c0.1,0,0.2,0,0.3,0c0.3,0,0.5,0.2,0.7,0.3c0.3,0.3,0.4,0.8,0.2,1.3c-0.3,0.7-1.1,0.8-1.6,0.5
				C106,72.5,105.9,72.4,105.8,72.2z"/>
			<path class="st24" d="M102.4,72.2c-0.2-0.3-0.2-0.7-0.1-1c0-0.1,0.1-0.2,0.2-0.3c0,0,0.1-0.1,0.2-0.2c0.1-0.1,0.2-0.1,0.4-0.2
				c0.1,0,0.2-0.1,0.3-0.1c0.1,0,0.2,0,0.3,0c0.3,0,0.5,0.2,0.7,0.3c0.3,0.3,0.4,0.8,0.2,1.3c-0.3,0.7-1.1,0.8-1.6,0.5
				C102.7,72.5,102.5,72.4,102.4,72.2z"/>
			<path class="st31" d="M88,74.4c0,2.4,0,4.7,0,7.1c0,0.3,0.4,0.3,0.4,0c0-2.4,0-4.7,0-7.1C88.4,74.2,88,74.2,88,74.4z"/>
			<g class="st29">
				<path class="st23" d="M102.9,78.3h1.1v3.5c0,0.5,0,0.8-0.1,1.1c-0.1,0.3-0.3,0.6-0.6,0.8c-0.3,0.2-0.7,0.3-1.1,0.3
					c-0.6,0-1-0.2-1.3-0.5c-0.3-0.3-0.4-0.8-0.4-1.4l1.1-0.1c0,0.3,0.1,0.5,0.1,0.7c0.1,0.2,0.3,0.3,0.6,0.3c0.3,0,0.4-0.1,0.5-0.2
					c0.1-0.1,0.2-0.4,0.2-0.9V78.3z"/>
				<path class="st23" d="M104.9,82l1.1-0.1c0.1,0.4,0.2,0.6,0.4,0.8c0.2,0.2,0.5,0.3,0.8,0.3c0.4,0,0.6-0.1,0.8-0.2
					c0.2-0.2,0.3-0.3,0.3-0.5c0-0.1,0-0.2-0.1-0.3c-0.1-0.1-0.2-0.2-0.4-0.2c-0.1,0-0.4-0.1-0.9-0.2c-0.6-0.1-1-0.3-1.3-0.6
					c-0.3-0.3-0.5-0.7-0.5-1.1c0-0.3,0.1-0.5,0.2-0.8c0.2-0.2,0.4-0.4,0.7-0.6c0.3-0.1,0.7-0.2,1.1-0.2c0.7,0,1.2,0.2,1.6,0.5
					c0.4,0.3,0.5,0.7,0.6,1.2l-1.1,0c0-0.3-0.2-0.5-0.3-0.6c-0.2-0.1-0.4-0.2-0.7-0.2c-0.3,0-0.6,0.1-0.8,0.2
					c-0.1,0.1-0.2,0.2-0.2,0.3c0,0.1,0.1,0.2,0.2,0.3c0.1,0.1,0.5,0.2,1,0.4c0.5,0.1,1,0.3,1.2,0.4c0.3,0.1,0.5,0.3,0.6,0.6
					c0.1,0.2,0.2,0.5,0.2,0.9c0,0.3-0.1,0.6-0.3,0.9c-0.2,0.3-0.4,0.5-0.8,0.6c-0.3,0.1-0.7,0.2-1.2,0.2c-0.7,0-1.2-0.2-1.6-0.5
					C105.2,83.1,105,82.7,104.9,82z"/>
			</g>
		</g>
	</g>
</g>
</svg>
