<?xml version="1.0" encoding="utf-8"?>
<!-- Generator: Adobe Illustrator 27.5.0, SVG Export Plug-In . SVG Version: 6.00 Build 0)  -->
<svg version="1.1" xmlns="http://www.w3.org/2000/svg" xmlns:xlink="http://www.w3.org/1999/xlink" x="0px" y="0px"
	 viewBox="0 0 882.3 779" style="enable-background:new 0 0 882.3 779;" xml:space="preserve">
<style type="text/css">
	.st0{display:none;}
	.st1{display:inline;}
	.st2{fill:#84AC64;}
	.st3{fill:#53753B;}
	.st4{fill:#E4EDDA;}
	.st5{fill:#FFFFFF;}
	.st6{fill:#2F2E41;}
	.st7{fill:#FFB8B8;}
	.st8{fill:#364A2A;}
	.st9{fill:#A8C78F;}
	.st10{opacity:0.2;enable-background:new    ;}
	.st11{fill:#CADDB9;}
	.st12{fill:#6C944E;}
	.st13{opacity:0.15;enable-background:new    ;}
	.st14{opacity:0.15;}
	.st15{fill:#455A64;}
	.st16{fill:#FAFAFA;}
	.st17{fill:#263238;}
	.st18{opacity:0.6;fill:#A8C78F;enable-background:new    ;}
	.st19{opacity:0.1;enable-background:new    ;}
	.st20{fill:#B16668;}
	.st21{fill:#F28F8F;}
	.st22{fill:#37474F;}
	.st23{fill:#E0E0E0;}
	.st24{fill:#E6E6E6;}
	.st25{fill:#F0F0F0;}
	.st26{fill:#F2F7EE;}
	.st27{opacity:0.48;fill:#FFFFFF;enable-background:new    ;}
	.st28{opacity:0.3;enable-background:new    ;}
	.st29{fill:#407BFF;}
	.st30{fill:#F9AAAA;}
	.st31{opacity:0.4;enable-background:new    ;}
	.st32{opacity:0.4;fill:#FFFFFF;enable-background:new    ;}
	.st33{fill:none;stroke:#CADDB9;stroke-width:0.5669;stroke-linecap:round;stroke-linejoin:round;stroke-miterlimit:10;}
	.st34{fill:none;stroke:#FBB040;stroke-width:0.5669;stroke-linecap:round;stroke-linejoin:round;stroke-miterlimit:10;}
	.st35{fill:none;stroke:#244E80;stroke-width:0.8504;stroke-linecap:round;stroke-linejoin:round;stroke-miterlimit:10;}
	.st36{fill:none;stroke:#CADDB9;stroke-width:0.8504;stroke-linecap:round;stroke-linejoin:round;stroke-miterlimit:10;}
	.st37{fill:none;}
	.st38{fill:#EEB399;}
	.st39{fill:none;stroke:#B56B4E;stroke-width:0.2835;stroke-linecap:round;stroke-linejoin:round;stroke-miterlimit:10;}
	.st40{fill:#7B9361;}
	.st41{fill:#383838;}
	.st42{fill:#27AAE1;}
	.st43{fill:#070707;}
	.st44{fill:#171C27;}
	.st45{fill:#98B77D;}
	.st46{fill:none;stroke:#53753B;stroke-width:0.5669;stroke-linecap:round;stroke-linejoin:round;stroke-miterlimit:10;}
	.st47{fill:#171E26;}
	.st48{fill:#97B27F;}
	.st49{fill:#A05E47;}
	.st50{fill:#774233;}
	.st51{fill:none;stroke:#53753B;stroke-width:0.2835;stroke-linecap:round;stroke-linejoin:round;stroke-miterlimit:10;}
	.st52{fill:#7D9367;}
	.st53{fill:none;stroke:#84AC64;stroke-linecap:round;stroke-linejoin:round;stroke-miterlimit:10;stroke-dasharray:2.8347;}
</style>
<g id="Layer_1" class="st0">
	<g id="Layer_1_00000106140298465042859590000016716562629383848359_">
		<g id="Layer_1_00000163047485966141346240000016111770779815366556_" class="st1">
			<g id="ea61258a-e793-48f7-8624-3c5ca462ffd9">
				<path class="st2" d="M342.4,20.1l3.5-5.4c-1-2.8-2.2-5.6-3.6-8.3L340,8.2l1.8-2.7c-1.7-3.3-3-5.4-3-5.4s-7,11-9.3,22.6l4.5,6.9
					l-4.9-4c-0.2,1.4-0.3,2.7-0.3,4.1c0,13.7,4.5,24.9,10,24.9s10-11.1,10-24.9c-0.1-4.4-0.9-8.7-2.3-12.8L342.4,20.1z"/>
				<path class="st2" d="M366.9,32l6.2-1.3c1.3-2.7,2.4-5.5,3.4-8.4l-2.9-0.3l3.2-0.7c1.2-3.6,1.7-6,1.7-6s-12.7,2.8-22.5,9.4
					l-1.7,8l-0.7-6.3c-1.1,0.8-2.1,1.7-3.1,2.7c-9.7,9.7-14.4,20.8-10.5,24.7s15-0.8,24.7-10.5c3-3.2,5.5-6.8,7.5-10.7L366.9,32z"/>
				<path class="st3" d="M369.2,85.2c-14.5,0.9-30.3-0.1-47,0V46.8c14.8,2.3,30.6,2.1,47,0V85.2z"/>
				<path class="st2" d="M472.8,115.2l2.3-3.5c-0.7-1.9-1.4-3.7-2.3-5.4l-1.5,1.2l1.2-1.8c-1.1-2.2-2-3.5-2-3.5
					c-2.8,4.6-4.8,9.5-6.1,14.7l2.9,4.5l-3.2-2.6c-0.1,0.9-0.2,1.8-0.2,2.7c0,9,2.9,16.2,6.5,16.2s6.5-7.3,6.5-16.2
					c-0.1-2.9-0.6-5.7-1.5-8.4L472.8,115.2z"/>
				<path class="st2" d="M488.8,122.9l4.1-0.9c0.8-1.8,1.6-3.6,2.2-5.5l-1.9-0.2l2.1-0.4c0.8-2.3,1.1-3.9,1.1-3.9
					c-5.2,1.2-10.2,3.3-14.7,6.1l-1.1,5.2l-0.4-4.1c-0.7,0.5-1.4,1.1-2,1.8c-6.3,6.3-9.4,13.6-6.9,16.1s9.8-0.5,16.1-6.9
					c2-2.1,3.6-4.4,4.9-7L488.8,122.9z"/>
				<path class="st3" d="M490.3,157.6c-9.4,0.6-19.7,0-30.7,0v-25.1c10.2,1.4,20.5,1.4,30.7,0V157.6z"/>
				<path class="st3" d="M484.5,231.9c-8.3,0.5-17.4,0-27.1,0v-22.1c9,1.3,18.1,1.3,27.1,0V231.9z"/>
				<rect x="167.5" y="82.5" class="st4" width="364.5" height="10.2"/>
				<rect x="167.5" y="154.8" class="st4" width="364.5" height="10.2"/>
				<rect x="167.5" y="227.1" class="st4" width="364.5" height="10.2"/>
				<circle class="st2" cx="471" cy="197.5" r="20.4"/>
				<circle class="st5" cx="471" cy="197.5" r="16.3"/>
				<circle class="st2" cx="471" cy="197.5" r="4.1"/>
				<rect x="468.9" y="196.5" class="st2" width="16.3" height="2"/>
				<rect x="469.9" y="183.3" class="st2" width="2" height="16.3"/>
				<rect x="339.7" y="105.1" class="st2" width="13.5" height="53.3"/>
				<rect x="339.7" y="113.5" class="st3" width="13.5" height="6.2"/>
				<rect x="339.7" y="140.5" class="st3" width="13.5" height="6.2"/>
				<rect x="319" y="105.1" class="st2" width="13.5" height="53.3"/>
				<rect x="319" y="113.5" class="st3" width="13.5" height="6.2"/>
				<rect x="319" y="140.5" class="st3" width="13.5" height="6.2"/>
				
					<rect x="363.9" y="105.1" transform="matrix(0.8962 -0.4437 0.4437 0.8962 -19.9758 178.136)" class="st2" width="13.5" height="53.3"/>
				
					<rect x="357.1" y="115.1" transform="matrix(0.8962 -0.4437 0.4437 0.8962 -14.6697 173.712)" class="st3" width="13.5" height="6.2"/>
				
					<rect x="369.1" y="139.3" transform="matrix(0.8962 -0.4437 0.4437 0.8962 -24.1614 181.5489)" class="st3" width="13.5" height="6.2"/>
				<rect x="219.6" y="177.4" class="st2" width="13.5" height="53.3"/>
				<rect x="219.6" y="185.8" class="st3" width="13.5" height="6.2"/>
				<rect x="219.6" y="212.8" class="st3" width="13.5" height="6.2"/>
				<rect x="198.8" y="177.4" class="st2" width="13.5" height="53.3"/>
				<rect x="198.8" y="185.8" class="st3" width="13.5" height="6.2"/>
				<rect x="198.8" y="212.8" class="st3" width="13.5" height="6.2"/>
				
					<rect x="243.7" y="177.4" transform="matrix(0.8962 -0.4437 0.4437 0.8962 -64.5348 132.3096)" class="st2" width="13.5" height="53.3"/>
				
					<rect x="237" y="187.4" transform="matrix(0.8962 -0.4437 0.4437 0.8962 -59.2182 127.93)" class="st3" width="13.5" height="6.2"/>
				
					<rect x="248.9" y="211.6" transform="matrix(0.8962 -0.4437 0.4437 0.8962 -68.7203 135.7224)" class="st3" width="13.5" height="6.2"/>
				<rect x="345.8" y="177.4" class="st2" width="13.5" height="53.3"/>
				<rect x="345.8" y="185.8" class="st3" width="13.5" height="6.2"/>
				<rect x="345.8" y="212.8" class="st3" width="13.5" height="6.2"/>
				<rect x="325.1" y="177.4" class="st2" width="13.5" height="53.3"/>
				<rect x="325.1" y="185.8" class="st3" width="13.5" height="6.2"/>
				<rect x="325.1" y="212.8" class="st3" width="13.5" height="6.2"/>
				
					<rect x="370" y="177.4" transform="matrix(0.8962 -0.4437 0.4437 0.8962 -51.422 188.3489)" class="st2" width="13.5" height="53.3"/>
				
					<rect x="363.3" y="187.4" transform="matrix(0.8962 -0.4437 0.4437 0.8962 -46.1056 183.9693)" class="st3" width="13.5" height="6.2"/>
				
					<rect x="375.2" y="211.6" transform="matrix(0.8962 -0.4437 0.4437 0.8962 -55.6076 191.7617)" class="st3" width="13.5" height="6.2"/>
				<rect x="450" y="32.6" class="st2" width="53.6" height="53.6"/>
				<rect x="460.7" y="43.4" class="st3" width="32.1" height="32.1"/>
				<polygon class="st4" points="470,54.1 476.8,65.9 483.6,77.7 470,77.7 456.4,77.7 463.2,65.9 				"/>
				<polygon class="st4" points="481.8,56.4 488.7,68.2 495.5,80 481.8,80 468.2,80 475,68.2 				"/>
				<circle class="st4" cx="486.6" cy="49" r="3.9"/>
				<rect x="179.1" y="32.6" class="st2" width="53.6" height="53.6"/>
				<rect x="189.8" y="43.4" class="st3" width="32.1" height="32.1"/>
				<polygon class="st4" points="199.1,54.1 205.9,65.9 212.8,77.7 199.1,77.7 185.5,77.7 192.3,65.9 				"/>
				<polygon class="st4" points="211,56.4 217.8,68.2 224.6,80 211,80 197.3,80 204.2,68.2 				"/>
				<circle class="st4" cx="215.8" cy="49" r="3.9"/>
				<path class="st2" d="M71.5,397.8l3.5-5.4c-1-2.8-2.2-5.6-3.6-8.3l-2.2,1.8l1.8-2.7c-1.7-3.3-3-5.4-3-5.4s-7,11-9.3,22.6l4.5,6.9
					l-4.9-4c-0.2,1.4-0.3,2.7-0.3,4.1c0,13.7,4.5,24.9,10,24.9s10-11.1,10-24.9c-0.1-4.4-0.9-8.7-2.3-12.8L71.5,397.8z"/>
				<path class="st2" d="M96.1,409.8l6.2-1.3c1.3-2.7,2.4-5.5,3.4-8.4l-2.9-0.3l3.2-0.7c1.2-3.6,1.7-6,1.7-6s-12.7,2.8-22.5,9.4
					l-1.7,8l-0.7-6.3c-1.1,0.8-2.1,1.7-3.1,2.7c-9.7,9.7-14.4,20.8-10.5,24.7s15-0.8,24.7-10.5c3-3.2,5.5-6.8,7.5-10.7L96.1,409.8z"
					/>
				<path class="st3" d="M98.3,463c-14.5,0.9-30.3-0.1-47,0v-38.4c14.8,2.3,30.6,2.1,47,0V463z"/>
				<rect x="501" y="475" class="st4" width="195.5" height="253.6"/>
				<rect x="92.7" y="488.3" class="st4" width="10.2" height="240.3"/>
				<rect y="457.7" class="st4" width="696.5" height="20.4"/>
				<rect x="87.6" y="478.1" class="st4" width="20.4" height="20.4"/>
				<polygon class="st3" points="614.2,489.8 613,494.4 584.5,494.4 582.8,489.8 510.2,489.8 510.2,536.6 687.3,536.6 687.3,489.8 
									"/>
				<polygon class="st3" points="614.2,548.9 613,553.4 584.5,553.4 582.8,548.9 510.2,548.9 510.2,595.7 687.3,595.7 687.3,548.9 
									"/>
				<polygon class="st3" points="614.2,607.9 613,612.5 584.5,612.5 582.8,607.9 510.2,607.9 510.2,654.8 687.3,654.8 687.3,607.9 
									"/>
				<polygon class="st3" points="614.2,667 613,671.6 584.5,671.6 582.8,667 510.2,667 510.2,713.8 687.3,713.8 687.3,667 				"/>
				<polygon class="st4" points="377.8,454.7 317.7,454.7 319.7,428.2 375.7,428.2 				"/>
				<rect x="314.7" y="451.6" class="st4" width="67.2" height="6.1"/>
				<path class="st3" d="M462.8,257.6H233.2c-3.4,0-6.1,2.7-6.1,6.1l0,0v140h241.8v-140C468.9,260.4,466.2,257.6,462.8,257.6
					L462.8,257.6z"/>
				<path class="st4" d="M227.1,403.8v22.9c0,3.4,2.7,6.1,6.1,6.1l0,0h229.6c3.4,0,6.1-2.7,6.1-6.1l0,0v-22.9H227.1z"/>
				<rect x="239.3" y="270.4" class="st5" width="217.9" height="122.2"/>
				<circle class="st3" cx="348.3" cy="418" r="6.1"/>
				<path class="st3" d="M865,727.1c-22.3,1.4-46.5-0.1-72.3,0V668c22.7,3.5,47,3.2,72.3,0V727.1z"/>
				<polygon class="st3" points="831.4,673.3 825.3,673.3 827.4,553.9 829.4,553.9 				"/>
				<polygon class="st3" points="858.9,674.1 852.8,674.1 854.9,554.8 856.9,554.8 				"/>
				<polygon class="st3" points="807,674.1 800.9,674.1 802.9,554.8 805,554.8 				"/>
				<path class="st4" d="M836.5,477.6l9.9-15.2c-2.9-8.1-6.3-16-10.1-23.7l-6.4,5.2l5-7.8c-4.8-9.5-8.6-15.4-8.6-15.4
					s-19.8,31.2-26.4,64.2l12.7,19.6l-14-11.3c-0.5,3.8-0.8,7.7-0.8,11.6c0,39.1,12.8,70.8,28.5,70.8s28.5-31.7,28.5-70.8
					c0-12.1-2.7-24.8-6.5-36.5L836.5,477.6z"/>
				<path class="st2" d="M864,479.6l9.9-15.2c-2.9-8.1-6.3-16-10.1-23.7l-6.4,5.2l5-7.8c-4.8-9.5-8.6-15.4-8.6-15.4
					s-19.8,31.2-26.4,64.2l12.7,19.6l-14-11.3c-0.5,3.8-0.8,7.7-0.8,11.6c0,39.1,12.8,70.8,28.5,70.8s28.5-31.7,28.5-70.8
					c0-12.1-2.7-24.8-6.5-36.5L864,479.6z"/>
				<path class="st2" d="M812.1,479.6l9.9-15.2c-2.9-8.1-6.3-16-10.1-23.7l-6.4,5.2l5-7.8c-4.8-9.5-8.6-15.4-8.6-15.4
					s-19.8,31.2-26.4,64.2l12.7,19.6l-14-11.3c-0.5,3.8-0.8,7.7-0.8,11.6c0,39.1,12.8,70.8,28.5,70.8s28.5-31.7,28.5-70.8
					c0-12.1-2.7-24.8-6.5-36.5L812.1,479.6z"/>
				<rect x="310" y="304.8" class="st3" width="58.8" height="3.4"/>
				<rect x="310" y="317.2" class="st2" width="90.7" height="3.4"/>
				<rect x="310" y="328.7" class="st2" width="73.9" height="3.4"/>
				<rect x="310" y="340.3" class="st3" width="43.2" height="3.4"/>
				<rect x="310" y="351.8" class="st3" width="65.2" height="3.4"/>
				<rect x="283.2" y="303.6" class="st3" width="7.2" height="7.2"/>
				<rect x="283.2" y="315.2" class="st2" width="7.2" height="7.2"/>
				<rect x="283.2" y="326.8" class="st2" width="7.2" height="7.2"/>
				<rect x="283.2" y="338.4" class="st3" width="7.2" height="7.2"/>
				<rect x="283.2" y="350" class="st3" width="7.2" height="7.2"/>
				<path class="st2" d="M447.1,298.5h-30.8c-2.1-12.2-2.1-24.6,0-36.8h30.8C443.6,273.7,443.4,286.5,447.1,298.5z"/>
				<path class="st6" d="M222.8,372.1l-12.7-3.1c-18,0-32.7-14.6-32.7-32.6c0-2.2,0.2-4.4,0.6-6.5l0,0c0-23.6,19.1-42.7,42.6-42.7
					l0,0c23.6,0,42.7,19.1,42.7,42.6l0,0C270.6,354.8,248.1,378.3,222.8,372.1z"/>
				<circle class="st7" cx="236.6" cy="345.2" r="31.4"/>
				<path class="st7" d="M216.2,361.6c0,0-9.5,32.7-15,35.5s43.6,6.8,43.6,6.8s-1.4-31.4,1.4-34.1S216.2,361.6,216.2,361.6z"/>
				<path class="st8" d="M265.3,563.4c0,0,61.4-5.5,69.5,15s-5.5,141.8-5.5,141.8h-25.9v-99.5c0,0-110.5-31.4-110.5-42.3
					S265.3,563.4,265.3,563.4z"/>
				<path class="st8" d="M325.3,714.8l13.6,5.5c0,0,16.4-1.4,9.5,10.9c-4,7.2-11,12.2-19.1,13.6c0,0-25.9,9.5-27.3,0
					s6.8-28.6,6.8-28.6L325.3,714.8z"/>
				<path class="st8" d="M231.2,563.4c0,0,61.4-5.5,69.5,15s-5.5,141.8-5.5,141.8h-25.9v-99.5c0,0-78.4-18.2-78.4-29.1
					c0-5.1-5.3-31.2,4.1-36.7C205.6,548.8,231.2,563.4,231.2,563.4z"/>
				<path class="st8" d="M291.2,714.8l13.6,5.5c0,0,16.4-1.4,9.5,10.9c-4,7.2-11,12.2-19.1,13.6c0,0-25.9,9.5-27.3,0
					s6.8-28.6,6.8-28.6L291.2,714.8z"/>
				<path class="st9" d="M202.5,393l41,4.5c13,1.4,23.6,11,26.3,23.8l15.9,75.4c0,0,5.5,75-5.5,79.1s-25.9-16.4-46.4-13.6
					s-47,8.9-47,8.9s-4.2-134.2-4.8-145.2C181,403.7,202.5,393,202.5,393z"/>
				<path class="st7" d="M299.6,567.3l16.8,9.9c0,0,30.2-4.3,29.2,6.3s-33.9,8.6-33.9,8.6l-20.3-12.5L299.6,567.3z"/>
				<circle class="st6" cx="175.7" cy="299.5" r="20.3"/>
				<path class="st6" d="M194.4,288.6c0-11.2-9.1-20.2-20.3-20.2c-1.3,0-2.7,0.1-4,0.4c10.1-4.8,22.2-0.5,27,9.7
					c4.8,10.1,0.5,22.2-9.7,27c-1.5,0.7-3.1,1.2-4.7,1.5C189.9,303.6,194.4,296.4,194.4,288.6z"/>
				<path class="st6" d="M211.8,300.1l27.3-5l21,13.2c10.5,6.6,16.3,18.8,14.7,31.1l-21-5.3l-4.7-11.8l-5.6,9.2l-29.3,37.8
					l-16.5-10.5l-14.7-23L211.8,300.1z"/>
				<path class="st9" d="M234.3,404.6l13.6-6.8c0,0,28.6,4.1,34.1,23.2s30,151.4,30,151.4l-23.2,10.9l-32.7-80.5L234.3,404.6z"/>
				<polygon class="st10" points="245.9,458.2 259.6,511.2 283.8,570.7 282.9,572.8 254.1,512.2 				"/>
				<polygon class="st3" points="144.1,750.4 139.3,748.7 185.9,610.2 192.6,612.6 				"/>
				<polygon class="st3" points="322.3,750.4 327.1,748.7 280.5,610.2 273.7,612.6 				"/>
				<polygon class="st3" points="223.8,779 228.9,779 230.4,617.1 223.3,617.1 				"/>
				<path class="st2" d="M132.3,528.9l14,56.4c4,16.1,16.5,28.7,32.6,32.7l0,0c38.9,9.7,79.7,9.5,118.5-0.8l20.9-5.5
					c12.1-3.2,21.2-13.6,22.1-26.1c0.3-4.4-0.5-8.9-2.3-12.9c-0.1-0.2-0.2-0.3-0.2-0.5c-5.5-11.4-16.9-18.8-29.6-19.1l-22.1-0.7
					l-80.4-35.6c0,0-27.7-14.1-50.4-15.6C140.3,500.1,128.7,514.2,132.3,528.9z"/>
				<rect x="543.3" y="351.3" class="st4" width="79.4" height="107.9"/>
				<rect x="552.4" y="363.8" class="st5" width="61.1" height="83"/>
				<rect x="576.5" y="385.5" class="st3" width="29.6" height="3.4"/>
				<rect x="559.9" y="383.6" class="st3" width="7.2" height="7.2"/>
				<rect x="576.5" y="399.7" class="st3" width="29.6" height="3.4"/>
				<rect x="559.9" y="397.9" class="st3" width="7.2" height="7.2"/>
				<rect x="576.5" y="414" class="st3" width="29.6" height="3.4"/>
				<rect x="559.9" y="412.1" class="st3" width="7.2" height="7.2"/>
				<path class="st3" d="M583,354.4L583,354.4c1.7,0,3.1,1.4,3.1,3.1l0,0c0,1.7-1.4,3.1-3.1,3.1l0,0c-1.7,0-3.1-1.4-3.1-3.1l0,0
					C579.9,355.7,581.3,354.4,583,354.4z"/>
			</g>
		</g>
		<g id="Layer_2_00000170973599469061797300000013802365567881238671_" class="st1">
			<g id="Floor">
				<ellipse id="Floor_1_" class="st4" cx="441" cy="534.9" rx="408" ry="235.6"/>
			</g>
			<g id="Shadow">
				<ellipse id="Shadow_2_" class="st11" cx="356.6" cy="632.2" rx="140.7" ry="81.2"/>
			</g>
			<g id="Plants_1_">
				<g id="Plants_11_">
					<g id="XMLID_597_">
						<path id="XMLID_603_" class="st12" d="M756.7,530.6l-16.5-9.5c0,0-4-35.3-1.4-62.7c3.8-38.4,28.6-84.7,58.2-73.9
							c29.6,10.9-13.6,50-23.2,82.6C764.2,499.8,756.7,530.6,756.7,530.6z"/>
						<path id="XMLID_600_" class="st13" d="M756.7,530.6l-16.5-9.5c0,0-4-35.3-1.4-62.7c3.8-38.4,28.6-84.7,58.2-73.9
							c29.6,10.9-13.6,50-23.2,82.6C764.2,499.8,756.7,530.6,756.7,530.6z"/>
						<path id="XMLID_598_" class="st5" d="M748,526.6L748,526.6c0.6,0,1-0.5,1-1c-2.9-85.4,39.6-128.4,40.1-128.8
							c0.4-0.4,0.4-1,0-1.4s-1-0.4-1.4,0s-43.6,44-40.7,130.3C747,526.1,747.5,526.6,748,526.6z"/>
					</g>
					<g id="XMLID_594_">
						<path id="XMLID_596_" class="st2" d="M767,536.5l-11.7-6.8c0,0-2-24.2,9.9-53.7c10.3-25.6,36-46.9,48.9-42.4
							s12.6,13.6,6.3,23.2C814.1,466.4,775.8,489.3,767,536.5z"/>
						<path id="XMLID_595_" class="st5" d="M760.9,533.9L760.9,533.9c0.6,0,1-0.5,1-1c-0.2-54,50.5-90.5,51-90.9
							c0.5-0.3,0.6-0.9,0.2-1.4c-0.3-0.4-0.9-0.6-1.4-0.2s-52.1,37.5-51.8,92.5C759.9,533.5,760.3,533.9,760.9,533.9z"/>
					</g>
				</g>
				<g id="Plants_8_">
					<g id="XMLID_493_">
						<g id="XMLID_553_">
							<path id="XMLID_592_" class="st12" d="M146,509.4l15.2-10.3c0,0,6.7-39.9,0.5-75c-8.8-49.3-42.8-65.7-54.9-60.5
								c-12.1,5.2-14.7,19.9,7.9,48C128.1,428.2,145.5,463.5,146,509.4z"/>
						</g>
						<g id="XMLID_496_" class="st14">
							<path id="XMLID_497_" d="M146,509.4l15.2-10.3c0,0,6.7-39.9,0.5-75c-8.8-49.3-42.8-65.7-54.9-60.5
								c-12.1,5.2-14.7,19.9,7.9,48C128.1,428.2,145.5,463.5,146,509.4z"/>
						</g>
						<g id="XMLID_494_">
							<path id="XMLID_495_" class="st5" d="M151.2,489.6c-0.1,0-0.1,0-0.2,0c-0.6-0.1-1-0.6-1-1.2c5.5-46.4-14.1-96.8-35.4-116.8
								c-0.4-0.4-0.5-1.1,0-1.6c0.4-0.4,1.1-0.5,1.6,0c21.7,20.4,41.7,71.6,36.1,118.7C152.2,489.2,151.8,489.6,151.2,489.6z"/>
						</g>
					</g>
					<g id="XMLID_259_">
						<g id="XMLID_488_">
							<path id="XMLID_490_" class="st2" d="M106.1,536.3c-2.4,1.5-9.5-3.8-11.4-5c-3.3-2.2-6.1-5.2-7.9-8.8
								c-2.1-4.1-2.8-8.5-2.2-13.1c0.3-2.4,0.9-4.7,1.5-7s1.2-4.5,1.8-6.8c0.6-2.2,1.2-4.6,0.9-6.9c-0.7-4.6-4.9-7.8-8.7-10.5
								c-4.2-3-8.6-7-8.7-12.6c-0.1-4.3,2.1-8.4,4.7-11.8s5.7-6.5,8.1-10.1c1.7-2.6,3-5.6,2.6-8.7c-0.2-1.9-1-3.7-2-5.4
								c-2-3.6-4.7-6.9-6.1-10.8s-1.3-8.7,1.7-11.6c2.5-2.3,6.2-2.7,9.6-2.6c3.1,0.1,6.2,1.5,9,3c9,4.8,14.2,15.2,23.7,18.8
								c3.7,1.4,7.6,1.6,11.4,2.6c3.8,0.9,7.7,2.8,9.5,6.2c3.6,6.8-2.7,15.4-0.1,22.7c2.3,6.4,8.6,8.8,12.3,14.6
								c1.6,2.5,2,5.5,1.8,8.4c-0.3,5-1,8.8-3.3,14.4c-1.9,4.7-7.6,13.6-7.6,13.6S106.5,536,106.1,536.3z"/>
						</g>
						<g id="XMLID_420_">
							<path id="XMLID_486_" class="st5" d="M129.5,521.9L129.5,521.9c-0.7,0-1.1-0.5-1.1-1.1c1-43.8-20.6-91.8-35.9-105.6
								c-0.5-0.4-0.5-1.1-0.1-1.6s1.1-0.5,1.6-0.1c15.6,14,37.6,62.8,36.6,107.3C130.6,521.4,130.1,521.9,129.5,521.9z"/>
						</g>
						<g id="XMLID_398_">
							<path id="XMLID_418_" class="st5" d="M121.4,468.5c-0.1,0-0.2,0-0.3,0c-14.2-4.1-31.7-4.5-31.9-4.5c-0.6,0-1.1-0.5-1.1-1.1
								s0.5-1.1,1.1-1.1c0.2,0,18,0.4,32.5,4.6c0.6,0.2,0.9,0.8,0.8,1.4C122.3,468.2,121.9,468.5,121.4,468.5z"/>
						</g>
					</g>
				</g>
			</g>
			<g id="Speech_Bubble">
				<g id="Speach_Bubble_1_">
					<g id="XMLID_557_">
						<path id="XMLID_2921_" class="st15" d="M529.6,479.2l-6.6-3.8c-2.1-1.2-3.7-4.1-3.7-6.5V196.1c0-2.4,1.7-5.3,3.7-6.5
							L705.5,84.3c2.1-1.2,5.4-1.2,7.5,0l6.6,3.8c2.1,1.2,3.7,4.1,3.7,6.5v272.8c0,2.4-1.7,5.3-3.7,6.5L537.1,479.2
							C535,480.4,531.7,480.4,529.6,479.2z"/>
						<path id="XMLID_2933_" class="st9" d="M723.3,94c-0.3-1.9-1.8-2.6-3.7-1.6L537.1,197.8c-1,0.6-2,1.6-2.6,2.8l-14.1-8.1
							c0.7-1.2,1.6-2.2,2.6-2.8L705.5,84.3c2.1-1.2,5.4-1.2,7.5,0l6.6,3.8C721.4,89.2,723,91.7,723.3,94z"/>
						<path id="XMLID_2932_" class="st9" d="M536.5,479.5c-2.1,0.9-5,0.8-6.9-0.3l-6.6-3.8c-2.1-1.2-3.7-4.1-3.7-6.5V196.1
							c0-1.2,0.4-2.5,1.1-3.7l14.1,8.1c-0.7,1.2-1.1,2.5-1.1,3.7V477C533.3,479.2,534.7,480.2,536.5,479.5z"/>
						<path id="XMLID_560_" class="st3" d="M533.3,204.3v272.8c0,2.4,1.7,3.4,3.7,2.2L719.4,374c2.1-1.2,3.7-4.1,3.7-6.5V94.6
							c0-2.4-1.7-3.4-3.7-2.2L537.1,197.8C535,199,533.3,201.9,533.3,204.3z"/>
						<path id="XMLID_2955_" class="st9" d="M490.7,308.2c-2.4-1.4-13.3-7.6-13.9-7.9c-1.7-1.1-2.4-3.6-0.7-5.4l43.1-46.3l14.1,8.1
							L490.2,303C488.7,304.7,489.2,307.1,490.7,308.2z"/>
						<path id="XMLID_2927_" class="st3" d="M533.3,256.7L490.2,303c-2.2,2.3-0.3,6.1,2.8,5.8l40.3-3.3V256.7z"/>
					</g>
					<g id="XMLID_492_">
						<path id="XMLID_3091_" class="st9" d="M628.3,173.5c21.3-12.3,38.5-2.3,38.5,22.2s-17.2,54.4-38.5,66.7s-38.5,2.3-38.5-22.2
							C589.8,215.6,607.1,185.8,628.3,173.5z"/>
						<path id="XMLID_3076_" class="st5" d="M628,192.8c6.9-4,12.5-0.8,12.5,7.2s-5.6,17.7-12.5,21.6c-6.9,4-12.5,0.8-12.5-7.2
							C615.6,206.5,621.1,196.8,628,192.8z"/>
						<path id="XMLID_3075_" class="st5" d="M652.7,235.3c0-13.1-9.2-18.4-20.5-11.8l-7.1,4.1c-11.3,6.5-20.5,22.5-20.5,35.5v3.6
							c2,0.7,4.3,1,6.6,1c5.2,0,11-1.7,17.2-5.3c9.2-5.3,17.7-14,24.3-24.1V235.3z"/>
					</g>
					<path id="XMLID_3178_" class="st12" d="M603.9,383.9l48.8-28.2c2.1-1.2,3.7-0.2,3.7,2.2v15.7c0,2.4-1.7,5.3-3.7,6.5l-48.8,28.2
						c-2.1,1.2-3.7,0.2-3.7-2.2v-15.7C600.2,388,601.9,385.1,603.9,383.9z"/>
					<path class="st16" d="M580.1,348.8l96.5-55.7c2.5-1.4,4.5-0.3,4.5,2.6v5.8c0,2.9-2,6.4-4.5,7.8L580.1,365
						c-2.5,1.4-4.5,0.3-4.5-2.6v-5.8C575.6,353.8,577.6,350.3,580.1,348.8z"/>
					<g>
						<path class="st16" d="M591.3,308.5c1.3-0.8,2.3-0.9,3.1-0.3c0.7,0.5,1.1,1.7,1.1,3.6c0,1.8-0.4,3.5-1.1,4.8
							c-0.7,1.4-1.7,2.5-3.1,3.2l-2.6,1.5v5.6c0,0.2,0,0.4-0.1,0.6s-0.2,0.3-0.3,0.4l-1.3,0.8c-0.1,0.1-0.2,0.1-0.3,0
							s-0.1-0.2-0.1-0.4V312c0-0.2,0-0.4,0.1-0.6s0.2-0.3,0.3-0.4L591.3,308.5z M588.7,318.2l2.5-1.5c0.6-0.4,1.1-0.8,1.5-1.4
							s0.6-1.3,0.6-2.3s-0.2-1.5-0.6-1.6c-0.4-0.1-0.9,0-1.5,0.3l-2.5,1.5V318.2z"/>
						<path class="st16" d="M602.8,301.9c0.2-0.1,0.3-0.1,0.4,0c0.1,0.1,0.2,0.3,0.2,0.5l4,13.5c0,0,0,0.1,0,0.2
							c0,0.2,0,0.4-0.1,0.6s-0.2,0.3-0.3,0.4l-1.2,0.7c-0.2,0.1-0.4,0.1-0.5,0.1c-0.1-0.1-0.1-0.2-0.2-0.3l-0.7-2.4l-5.1,3l-0.7,3.2
							c0,0.2-0.1,0.3-0.2,0.5c-0.1,0.2-0.2,0.3-0.5,0.5l-1.2,0.7c-0.1,0.1-0.2,0.1-0.3,0s-0.1-0.2-0.1-0.4c0-0.1,0-0.1,0-0.2l4-18.2
							c0.1-0.3,0.1-0.6,0.2-0.8c0.1-0.2,0.2-0.3,0.4-0.4L602.8,301.9z M603.7,312.4l-1.8-6.1l-1.8,8.2L603.7,312.4z"/>
						<path class="st16" d="M613.4,295.5c0.7-0.4,1.4-0.6,1.9-0.7c0.6,0,1,0.1,1.4,0.3c0.4,0.2,0.6,0.6,0.8,1s0.3,0.9,0.3,1.4
							c0,0.2,0,0.4-0.1,0.6s-0.2,0.3-0.3,0.4l-1.1,0.7c-0.2,0.1-0.3,0.1-0.4,0.1c-0.1-0.1-0.2-0.2-0.3-0.3c-0.2-0.3-0.4-0.5-0.7-0.7
							c-0.3-0.1-0.8,0-1.5,0.4c-0.3,0.2-0.6,0.4-0.8,0.6c-0.3,0.2-0.5,0.5-0.7,0.8s-0.3,0.6-0.4,0.9c-0.1,0.3-0.2,0.6-0.2,0.9
							c0,0.4,0.1,0.7,0.2,0.9c0.1,0.2,0.3,0.3,0.5,0.3s0.6,0,1-0.1s0.9-0.2,1.5-0.3c0.7-0.2,1.2-0.2,1.7-0.2s0.9,0.1,1.2,0.4
							c0.3,0.2,0.5,0.6,0.7,1c0.1,0.5,0.2,1,0.2,1.7c0,0.8-0.1,1.5-0.3,2.3s-0.5,1.5-0.9,2.2s-0.9,1.3-1.5,1.9s-1.2,1.1-2,1.5
							c-0.6,0.4-1.2,0.6-1.7,0.7c-0.6,0.1-1,0.1-1.5-0.1c-0.4-0.2-0.8-0.5-1-0.9c-0.3-0.5-0.4-1-0.4-1.8c0-0.2,0-0.4,0.1-0.6
							s0.2-0.3,0.3-0.4l1.1-0.7c0.2-0.1,0.3-0.1,0.4-0.1c0.1,0,0.2,0.1,0.2,0.3c0.1,0.2,0.2,0.3,0.3,0.5s0.3,0.3,0.4,0.3
							c0.2,0.1,0.4,0.1,0.7,0s0.6-0.2,1-0.4c0.3-0.2,0.6-0.4,0.9-0.7c0.3-0.2,0.6-0.5,0.8-0.8s0.4-0.6,0.6-1
							c0.1-0.3,0.2-0.7,0.2-1.1s-0.1-0.6-0.2-0.8c-0.2-0.1-0.4-0.2-0.7-0.2s-0.7,0.1-1.1,0.2c-0.5,0.1-1,0.2-1.6,0.3
							c-0.5,0.1-1,0.1-1.4,0.1s-0.7-0.2-1-0.4c-0.3-0.2-0.5-0.6-0.6-1.1s-0.2-1.1-0.2-1.8c0-0.8,0.1-1.5,0.3-2.3s0.5-1.5,0.9-2.1
							c0.4-0.7,0.8-1.3,1.4-1.8C612.3,296.3,612.8,295.9,613.4,295.5z"/>
						<path class="st16" d="M624.8,288.9c0.7-0.4,1.4-0.6,1.9-0.7c0.6,0,1,0.1,1.4,0.3c0.4,0.2,0.6,0.6,0.8,1s0.3,0.9,0.3,1.4
							c0,0.2,0,0.4-0.1,0.6s-0.2,0.3-0.3,0.4l-1.1,0.7c-0.2,0.1-0.3,0.1-0.4,0.1c-0.1-0.1-0.2-0.2-0.3-0.3c-0.2-0.3-0.4-0.5-0.7-0.7
							c-0.3-0.1-0.8,0-1.5,0.4c-0.3,0.2-0.5,0.4-0.8,0.6s-0.5,0.5-0.7,0.8s-0.3,0.6-0.4,0.9c-0.1,0.3-0.2,0.6-0.2,0.9
							c0,0.4,0.1,0.7,0.2,0.9c0.1,0.2,0.3,0.3,0.5,0.3s0.6,0,1-0.1s0.9-0.2,1.5-0.3c0.7-0.2,1.2-0.2,1.7-0.2s0.9,0.1,1.2,0.4
							c0.3,0.2,0.5,0.6,0.7,1c0.1,0.5,0.2,1,0.2,1.7c0,0.8-0.1,1.5-0.3,2.3s-0.5,1.5-0.9,2.2s-0.9,1.3-1.5,1.9s-1.2,1.1-2,1.5
							c-0.6,0.4-1.2,0.6-1.7,0.7c-0.6,0.1-1,0.1-1.5-0.1c-0.4-0.2-0.8-0.5-1-0.9c-0.3-0.5-0.4-1-0.4-1.8c0-0.2,0-0.4,0.1-0.6
							s0.2-0.3,0.3-0.4l1.1-0.7c0.2-0.1,0.3-0.1,0.4-0.1c0.1,0,0.2,0.1,0.2,0.3c0.1,0.2,0.2,0.3,0.3,0.5s0.3,0.3,0.4,0.3
							c0.2,0.1,0.4,0.1,0.7,0s0.6-0.2,1-0.4c0.3-0.2,0.6-0.4,0.9-0.7c0.3-0.2,0.6-0.5,0.8-0.8s0.4-0.6,0.6-1
							c0.1-0.3,0.2-0.7,0.2-1.1s-0.1-0.6-0.2-0.8c-0.2-0.1-0.4-0.2-0.7-0.2s-0.7,0.1-1.1,0.2c-0.5,0.1-1,0.2-1.6,0.3
							c-0.5,0.1-1,0.1-1.4,0.1s-0.7-0.2-1-0.4c-0.3-0.2-0.5-0.6-0.6-1.1s-0.2-1.1-0.2-1.8c0-0.8,0.1-1.5,0.3-2.3s0.5-1.5,0.9-2.1
							c0.4-0.7,0.8-1.3,1.4-1.8C623.6,289.7,624.2,289.3,624.8,288.9z"/>
						<path class="st16" d="M637.4,291.1l-1.4,8.3c-0.1,0.3-0.1,0.5-0.2,0.7c-0.1,0.2-0.2,0.4-0.4,0.5l-1.3,0.8
							c-0.2,0.1-0.3,0.1-0.4,0c-0.1-0.1-0.2-0.3-0.2-0.5l-2.1-14.6c0-0.1,0-0.1,0-0.2c0-0.2,0-0.4,0.1-0.6s0.2-0.3,0.3-0.4l1.2-0.7
							c0.1-0.1,0.2-0.1,0.3,0c0.1,0,0.2,0.2,0.2,0.4l1.4,9.8l1.2-7.4c0-0.1,0.1-0.3,0.2-0.5c0.1-0.2,0.2-0.4,0.4-0.5l1.3-0.8
							c0.2-0.1,0.3-0.1,0.4,0c0.1,0.1,0.1,0.3,0.2,0.4l1.2,6l1.4-11.4c0-0.3,0.1-0.5,0.2-0.6c0.1-0.2,0.2-0.3,0.3-0.3l1.2-0.7
							c0.1-0.1,0.2-0.1,0.3,0s0.1,0.2,0.1,0.4c0,0,0,0.1,0,0.2l-2.1,17c0,0.3-0.1,0.5-0.2,0.7c-0.1,0.2-0.2,0.4-0.4,0.5l-1.3,0.8
							c-0.2,0.1-0.3,0.1-0.4,0c-0.1-0.1-0.1-0.3-0.2-0.5L637.4,291.1z"/>
						<path class="st16" d="M645.5,283.8c0-1,0.1-1.9,0.3-2.8s0.5-1.8,0.9-2.7c0.4-0.8,0.9-1.6,1.5-2.3c0.6-0.7,1.3-1.3,2.1-1.7
							c0.8-0.5,1.5-0.7,2.1-0.7s1.1,0.2,1.5,0.6s0.7,0.9,0.9,1.6s0.3,1.5,0.4,2.5c0,0.3,0,0.7,0,1c0,0.4,0,0.8,0,1.2
							c0,0.4,0,0.8,0,1.2c0,0.4,0,0.7,0,1.1c0,1-0.2,1.9-0.3,2.8c-0.2,0.9-0.5,1.8-0.9,2.7c-0.4,0.8-0.9,1.6-1.5,2.3
							c-0.6,0.7-1.3,1.3-2.1,1.7c-0.8,0.5-1.5,0.7-2.1,0.7s-1.1-0.2-1.5-0.6s-0.7-0.9-0.9-1.6s-0.3-1.5-0.3-2.4c0-0.3,0-0.7,0-1
							c0-0.4,0-0.8,0-1.2c0-0.4,0-0.8,0-1.2C645.5,284.4,645.5,284.1,645.5,283.8z M652.9,279.6c0-1.2-0.3-2-0.8-2.4
							s-1.1-0.4-1.8,0.1s-1.4,1.1-1.8,2.1c-0.5,0.9-0.7,2-0.8,3.2c0,0.6,0,1.4,0,2.1c0,0.8,0,1.5,0,2.1c0,1.2,0.3,2,0.8,2.3
							c0.5,0.4,1.1,0.4,1.8-0.1c0.8-0.4,1.4-1.1,1.8-2c0.5-0.9,0.7-2,0.8-3.2c0-0.6,0-1.4,0-2.1C653,281,652.9,280.3,652.9,279.6z"
							/>
						<path class="st16" d="M662.7,267.3c1.4-0.8,2.4-0.9,3.1-0.3c0.7,0.6,1.1,1.7,1.1,3.4c0,1.2-0.2,2.4-0.5,3.4
							c-0.4,1.1-0.9,2-1.6,2.8l2.2,4.9c0,0.1,0,0.2,0,0.2c0,0.1,0,0.3-0.1,0.5c-0.1,0.1-0.2,0.3-0.3,0.3l-1.4,0.8
							c-0.2,0.1-0.4,0.1-0.5,0s-0.2-0.2-0.2-0.3l-2.1-4.6l-2.2,1.3v5.8c0,0.2,0,0.4-0.1,0.5c-0.1,0.2-0.2,0.3-0.3,0.4l-1.3,0.8
							c-0.1,0.1-0.2,0.1-0.3,0s-0.1-0.2-0.1-0.4v-16.2c0-0.2,0-0.4,0.1-0.6s0.2-0.3,0.3-0.4L662.7,267.3z M660.3,276.6l2.4-1.4
							c0.6-0.4,1.1-0.8,1.5-1.4c0.4-0.5,0.6-1.3,0.6-2.2c0-0.9-0.2-1.5-0.6-1.6c-0.4-0.1-0.9,0-1.5,0.4l-2.4,1.4V276.6z"/>
						<path class="st16" d="M674.3,260.6c0.8-0.5,1.5-0.7,2.1-0.7s1.1,0.2,1.5,0.5c0.4,0.4,0.7,0.9,0.9,1.7c0.2,0.7,0.3,1.6,0.4,2.6
							c0,1.2,0,2.4,0,3.7c0,1.1-0.2,2.1-0.4,3.1s-0.5,1.9-0.9,2.7c-0.4,0.8-0.9,1.6-1.5,2.2c-0.6,0.7-1.3,1.2-2,1.7l-4.1,2.4
							c-0.1,0.1-0.2,0.1-0.3,0s-0.1-0.2-0.1-0.4v-16.2c0-0.2,0-0.4,0.1-0.6s0.2-0.3,0.3-0.4L674.3,260.6z M676.9,266
							c0-0.5-0.1-1-0.2-1.4c-0.1-0.4-0.3-0.7-0.5-0.9c-0.2-0.2-0.5-0.3-0.8-0.3s-0.7,0.1-1.2,0.4l-2.2,1.3v11.3l2.3-1.3
							c0.4-0.3,0.8-0.6,1.2-1c0.3-0.4,0.6-0.8,0.8-1.3s0.4-1,0.5-1.5s0.2-1.1,0.2-1.6C677,268.5,677,267.2,676.9,266z"/>
					</g>
				</g>
			</g>
			<g id="Question_Marks_1_">
				<g id="Question_Marks">
					<g>
						<path class="st11" d="M436.5,9.3c3,0.7,5.9,1.7,8.6,3.2s4.9,3.3,6.8,5.4s3.2,4.6,4,7.3s0.9,5.6,0.2,8.8
							c-0.6,2.6-1.5,4.7-2.7,6.4s-2.6,3.2-4.2,4.4s-3.3,2.3-5,3.2c-1.8,0.9-3.4,1.8-5,2.6s-3,1.8-4.3,2.8s-2.2,2.2-2.7,3.6
							c-0.3,0.7-0.7,1.2-1.3,1.6c-0.6,0.4-1.2,0.5-1.9,0.4l-7.3-1.6c-0.7-0.2-1.3-0.6-1.7-1.2c-0.4-0.6-0.5-1.3-0.3-2
							c0.7-2.5,1.7-4.6,3.1-6.3s2.9-3.1,4.5-4.4c1.7-1.2,3.4-2.3,5.2-3.2c1.8-0.9,3.4-1.8,5-2.6c1.5-0.8,2.8-1.7,3.9-2.7
							c1.1-0.9,1.8-2.1,2.1-3.4c0.5-2.4,0-4.7-1.8-6.7c-1.7-2-4.3-3.4-7.7-4.2c-5.5-1.2-10.1,0.6-13.9,5.5c-0.5,0.6-0.9,1.1-1.4,1.4
							c-0.4,0.3-1.1,0.3-1.9,0.1L409,26c-0.6-0.1-1-0.4-1.4-0.9c-0.3-0.5-0.4-1-0.3-1.7c0.6-2.2,1.8-4.4,3.6-6.4
							c1.8-2.1,4.1-3.8,6.7-5.2s5.6-2.4,8.9-3C429.7,8.4,433,8.5,436.5,9.3z M428.2,65c0.7,0.2,1.3,0.5,1.7,1.2
							c0.4,0.6,0.5,1.3,0.4,2l-1.9,8.5c-0.2,0.7-0.5,1.3-1.2,1.7c-0.6,0.4-1.3,0.5-2,0.4l-8.3-1.8c-0.7-0.2-1.3-0.5-1.7-1.2
							c-0.4-0.6-0.5-1.3-0.4-2l1.9-8.5c0.2-0.7,0.5-1.3,1.2-1.7c0.6-0.4,1.3-0.5,2-0.4L428.2,65z"/>
					</g>
					<g>
						<path class="st2" d="M445.7,90.5c2.1-0.3,4.2-0.4,6.3-0.1c2.1,0.3,4,0.8,5.7,1.7c1.7,0.9,3.2,2.1,4.4,3.6
							c1.2,1.5,2,3.4,2.4,5.6c0.3,1.8,0.3,3.4-0.1,4.8c-0.3,1.4-0.9,2.7-1.6,3.9c-0.7,1.2-1.5,2.3-2.4,3.4c-0.9,1-1.7,2-2.5,3
							c-0.8,0.9-1.5,1.9-2,2.9c-0.6,1-0.8,2-0.8,3c0,0.5-0.1,1-0.4,1.4s-0.6,0.7-1.1,0.7l-5.1,0.8c-0.5,0.1-1,0-1.4-0.3
							s-0.7-0.7-0.7-1.2c-0.2-1.8-0.1-3.4,0.4-4.8c0.4-1.4,1-2.8,1.8-4c0.7-1.2,1.6-2.3,2.5-3.3s1.8-2,2.5-2.9
							c0.8-0.9,1.4-1.8,1.8-2.7c0.5-0.9,0.6-1.8,0.5-2.7c-0.3-1.7-1.2-3-2.8-3.9c-1.6-0.9-3.6-1.1-6-0.7c-3.8,0.6-6.3,3-7.5,7.1
							c-0.1,0.5-0.3,0.9-0.5,1.2c-0.2,0.3-0.6,0.5-1.2,0.6l-5.5,0.9c-0.4,0.1-0.8,0-1.1-0.2c-0.3-0.2-0.5-0.6-0.6-1
							c-0.2-1.6,0-3.3,0.7-5.1c0.7-1.8,1.6-3.5,3-5.1c1.3-1.6,3-3,4.9-4.2C441.2,91.7,443.3,90.9,445.7,90.5z M454.7,128.4
							c0.5-0.1,1,0,1.4,0.3s0.7,0.7,0.7,1.2l1,5.9c0.1,0.5,0,1-0.3,1.4s-0.7,0.7-1.2,0.7l-5.8,0.9c-0.5,0.1-1,0-1.4-0.3
							s-0.7-0.7-0.7-1.2l-1-5.9c-0.1-0.5,0-0.9,0.3-1.4c0.3-0.4,0.7-0.7,1.2-0.7L454.7,128.4z"/>
					</g>
					<g>
						<path class="st3" d="M494.7,99.9c0.5,0.3,0.8,0.8,0.9,1.4s0,1.1-0.4,1.6l-4.1,5.8c-0.3,0.5-0.8,0.8-1.4,0.9s-1.1,0-1.6-0.4
							l-5.7-4c-0.5-0.3-0.8-0.8-0.9-1.4s0-1.1,0.4-1.6l4.1-5.8c0.3-0.5,0.8-0.8,1.4-0.9s1.1,0,1.6,0.4L494.7,99.9z M518.7,60.5
							c2.1,1.5,3.9,3.2,5.4,5.1c1.5,2,2.7,4,3.4,6.2s1,4.5,0.7,6.8c-0.2,2.3-1.1,4.5-2.7,6.7c-1.3,1.8-2.6,3.1-4.1,4s-3,1.6-4.6,2
							s-3.2,0.7-4.8,0.8c-1.6,0.1-3.2,0.3-4.6,0.4s-2.8,0.4-4.1,0.7c-1.3,0.3-2.3,1-3.1,1.8c-0.4,0.4-0.9,0.7-1.5,0.8
							c-0.6,0.1-1.1,0-1.6-0.3l-5-3.6c-0.5-0.3-0.8-0.8-0.9-1.4s0-1.2,0.4-1.6c1.3-1.7,2.7-2.9,4.3-3.7c1.6-0.8,3.2-1.5,4.8-1.9
							c1.6-0.4,3.3-0.6,4.9-0.7s3.2-0.2,4.6-0.4c1.4-0.1,2.7-0.4,3.8-0.8s2-1,2.7-1.9c1.2-1.7,1.5-3.5,0.8-5.6
							c-0.6-2.1-2.1-3.9-4.5-5.6c-3.7-2.7-7.8-2.7-12.2-0.3c-0.6,0.3-1.1,0.5-1.5,0.6s-0.9-0.1-1.5-0.5l-5.3-3.8
							c-0.4-0.3-0.6-0.7-0.7-1.1c-0.1-0.5,0-0.9,0.3-1.4c1.1-1.5,2.7-2.7,4.8-3.7c2-1,4.3-1.6,6.7-1.8c2.4-0.2,5,0,7.6,0.6
							C513.8,57.7,516.3,58.9,518.7,60.5z"/>
					</g>
				</g>
			</g>
			<g id="Character">
				<g id="Character_3_">
					<g id="XMLID_285_">
						<path id="XMLID_286_" class="st6" d="M365.7,253.2h-61.5V104.1c0-27,21.9-48.8,48.8-48.8h5.7c27,0,48.8,21.9,48.8,48.8v107.3
							C407.5,234.4,388.8,253.2,365.7,253.2z"/>
					</g>
					<g id="XMLID_2226_">
						<g id="XMLID_283_">
							<path id="XMLID_284_" class="st3" d="M298.2,612c-0.5,3.7-1.6,8.1-1.8,18.7c-0.2,11.4-2.3,15.4-2.6,24.7
								c-0.3,10.7,1.5,14.6,5.8,20.6s15.7,11.4,20.5,1.3c4.9-10.2,4.2-16.7,2.6-27.2c-1.6-10.8-1.8-16.8-2.7-25
								c-0.8-7.3-1.8-12.8-1.8-12.8L298.2,612z"/>
							<path id="XMLID_2235_" class="st7" d="M330.4,536.6l-37.4-0.7c0.6,25,4.5,52.7,5.2,76.1c0.1,4.4-0.1,34.3,1.6,43.4
								c2.5,13.6,18.7,11.8,19.5,3.6c0.9-8.2-1-43-1-46.6c-0.1-15,6.9-40.4,10.6-67.4C329.1,543.7,330.3,537.9,330.4,536.6z"/>
						</g>
						<g id="XMLID_266_">
							<path id="XMLID_282_" class="st3" d="M378.5,592.6c0,0-1.5-0.8-1.8,0.8c-0.4,1.9-0.9,5.7-1.7,8.8c-1.1,4.3-2,11.3-1.3,14.8
								s8.8,8,14.1,9.6c7.8,2.4,13.1,6.3,17.4,10.3c5.2,4.9,16.5,9.6,24.2,9.5c9.1-0.1,15.4-3,18.4-7.9c3.1-5.1-2.7-5.5-13.1-12.2
								c-2.4-1.5-5-3.3-8.1-5.2c-16.5-10.7-22.5-16.5-27.1-27.3L378.5,592.6z"/>
							<path id="XMLID_269_" class="st7" d="M399.6,585.9c-0.3-7.7,5-73.3,5-73.3l-35.5,16.2c7.6,45.4,9.2,56.1,9.4,63.6l0,0
								c-0.1,0.2-0.2,0.8-0.2,1.9c0,8.8,10,13.6,17.8,19.5c3.1,2.3,12,9.2,21,13.7c5.6,2.8,17.1,3.1,18.5-0.5
								c-9.5-7.2-23.2-18-30.7-26.3C401.2,596.7,399.9,593.7,399.6,585.9z"/>
						</g>
						<path id="XMLID_261_" class="st8" d="M308.4,292.9c-13.6,30-13.6,53.1-11.4,91.3c2.1,35.1,5.4,65.9,5.4,65.9
							c-0.5,6.2-9.2,18.4-10.3,45.9c-1,25.7,1.8,58.4,1.8,58.4s19.4,10.8,33.8-0.1c0,0,13.8-66.1,17.9-98.3c3.5-28.1,9.7-64,9.7-64
							l13,63.8c0,0-5,15.7-6.1,27.7c-1.8,18.9,8.8,56.1,8.8,56.1s20.1,6,32.3-4.9c0,0,4.6-60.4,6.3-83.2
							c2.3-30.5-2.5-113.2-6.3-156.9L308.4,292.9z"/>
						<path id="XMLID_2227_" class="st17" d="M355.2,392l5.4-48c0,0,24.1-3.2,35.1-13.5c0,0-8.2,15.1-28.4,18l-7.8,44.7l8.8,62.7
							L355.2,392z"/>
					</g>
					<g id="XMLID_2194_">
						<path id="XMLID_610_" class="st7" d="M452.9,281.1c1.5-14.7,1.4-24.5,1.3-26.4c-0.5-7.6-1.9-8.9-12.5-22.4
							c-14.4-18.2-26.7-34.6-39.6-50.9c-9.3-11.6-19-13.4-28.5-12.9c-6.7,0.4,6.3,32.4,12.9,51.3l37.3,40.1c1.1,1.6,1.7,3.5,1.5,5.5
							l-2.3,34.2l11.2,15C434.1,314.5,451,299.9,452.9,281.1z"/>
						<path id="XMLID_2220_" class="st9" d="M337.6,169.5L337.6,169.5c-7.2,0.5-20.3,1.7-20.3,1.7c-7.6,4.2-9.5,7.7-10.9,17.8
							c-0.6,4.3,2.9,15.7,5.9,31.9L318,251l-0.6,14.9c-3,9.1-9.6,20.4-15.5,37.1c28.9,16.1,53.2,16.7,75.2,13.9
							c16.8-2.2,25.6-6.2,28.6-10.2c-0.6-16.5-1.8-26.7-2.1-43.9c-0.1-7.2,0.3-14.5,0.6-22.9c11.3-9.2,11.4-24.6,5.2-34.5
							c-14.3-23.1-28.1-37.6-37.3-36.9L337.6,169.5z"/>
						<path id="XMLID_564_" class="st18" d="M337.6,169.5L337.6,169.5c-7.2,0.5-20.3,1.7-20.3,1.7c-7.6,4.2-9.5,7.7-10.9,17.8
							c-0.6,4.3,2.9,15.7,5.9,31.9L318,251l-0.6,14.9c-3,9.1-9.6,20.4-15.5,37.1c28.9,16.1,53.2,16.7,75.2,13.9
							c16.8-2.2,25.6-6.2,28.6-10.2c-0.6-16.5-1.8-26.7-2.1-43.9c-0.1-7.2,0.3-14.5,0.6-22.9c11.3-9.2,11.4-24.6,5.2-34.5
							c-14.3-23.1-28.1-37.6-37.3-36.9L337.6,169.5z"/>
						<path class="st19" d="M381.7,240.2c0,0-13.2,10.2-28.3,4.9c-15.1-5.3-17.3-18.5-17.3-18.5s-1.6,17.2,17.4,23.1
							C371.9,255.3,381.7,240.2,381.7,240.2z"/>
						<g id="XMLID_2195_">
							<g id="XMLID_2209_">
								<path class="st7" d="M399.6,122.2c-0.6,25-8.7,31.2-12.7,33c-4.1,1.8-11.9,0.7-19.5-0.6v15c0,0,8.8,9.2,8.1,16.1
									c-0.7,6.9-13.8,7.7-23.7,0.9c-7.2-4.9-12.4-10.5-14.6-13.2c-0.8-1-1.3-2.2-1.3-3.5v-35.3c0,0-4.2,4.4-11.6-0.6
									s-8-14.5-3.5-19.8c3.2-3.8,11.4-4,15.3,1.8c2.2,4.3,2.5,8.6,5,6.9c6.6-4.7,3.1-15.5,11-20.8l0,0c2.4-1.3,5.1-2.5,8.1-3.5
									c14.2-4.9,26.5-9,29.4-18.7C395.3,83.2,400.3,92.7,399.6,122.2z"/>
							</g>
							<circle class="st20" cx="371.6" cy="141.3" r="3.3"/>
							<g id="XMLID_2206_">
								<path id="XMLID_2207_" class="st17" d="M369.4,118.4c0.1,2-1.4,3.7-3.3,3.8c-1.9,0.1-3.5-1.4-3.6-3.4s1.4-3.7,3.3-3.8
									C367.7,114.9,369.3,116.5,369.4,118.4z"/>
							</g>
							<g id="XMLID_2200_">
								<path id="XMLID_2201_" class="st17" d="M395.7,118.8c0.1,1.8-1.2,3.3-3,3.4c-1.9,0.1-3.2-1.1-3.3-3.1
									c-0.1-1.8,1.2-3.3,3-3.4C394.1,115.6,395.6,117,395.7,118.8z"/>
							</g>
							<g>
								<path class="st15" d="M365,127.3c-6.2,0-11.3-5.1-11.3-11.3c0-7.7,7.9-7.7,11.3-7.7s11.3,0,11.3,7.7
									C376.2,122.3,371.2,127.3,365,127.3z M365,110.2c-6.8,0-9.5,1.6-9.5,5.9c0,5.2,4.3,9.5,9.5,9.5s9.5-4.3,9.5-9.5
									C374.5,111.8,371.8,110.2,365,110.2z"/>
							</g>
							<g>
								<path class="st15" d="M393.6,127.3c-6.2,0-11.3-5.1-11.3-11.3c0-7.7,7.9-7.7,11.3-7.7s11.3,0,11.3,7.7
									C404.8,122.3,399.8,127.3,393.6,127.3z M393.6,110.2c-6.8,0-9.5,1.6-9.5,5.9c0,5.2,4.3,9.5,9.5,9.5s9.5-4.3,9.5-9.5
									C403.1,111.8,400.4,110.2,393.6,110.2z"/>
							</g>
							<g id="XMLID_2198_">
								<polygon id="XMLID_2199_" class="st21" points="378,112.4 378.6,133.5 389.6,130 								"/>
							</g>
							<g id="XMLID_2196_">
								<path id="XMLID_2197_" class="st21" d="M367.3,154.6c-8-1.1-24.6-5.8-27.2-12.3c0,0,0.9,4.1,5.8,8.3s21.4,9,21.4,9
									L367.3,154.6L367.3,154.6z"/>
							</g>
							<path id="XMLID_405_" class="st17" d="M367.7,102.2l-7.3,4.5c-1.2-2.1-0.5-4.8,1.5-6.1C363.9,99.4,366.5,100.1,367.7,102.2z"
								/>
							<path id="XMLID_382_" class="st17" d="M397.6,107.2l-8.2-2.9c0.7-2.3,3.1-3.5,5.4-2.7C397,102.4,398.3,104.9,397.6,107.2z"/>
							<g>
								<path class="st15" d="M375.4,117c-0.5,0-0.9-0.4-0.9-0.9c0-1.4,2.9-2.4,5.4-2.4c2.6,0,4.2,0.9,4.2,2.4
									c0,0.5-0.4,0.9-0.9,0.9s-0.9-0.4-0.9-0.9c-0.1-0.2-0.9-0.6-2.4-0.6s-3.6,0.4-3.6,0.6C376.2,116.6,375.8,117,375.4,117z"/>
							</g>
							<g>
								<path class="st15" d="M354.6,116.2h-0.1l-19.8-1.8c-0.4-0.3-1.3-1.3-3.2-2.1l23.2,2.1c0.5,0.1,0.8,0.5,0.8,1
									C355.5,115.9,355.1,116.2,354.6,116.2z"/>
							</g>
						</g>
					</g>
					<g>
						<path class="st7" d="M273.4,136.9c6.5-8.6,10.9-15.2,16.8-22.6c3.4-4.2,5.5-7.2,8.7-11.5c2.2-3,3.5-5.5,6-6.4
							c2.8-1,5.4-3.1,7.2-5c1.3-1.3,2.3-2.9,3.4-4.4c3.7-5,8.1-9.4,13.1-13.2c5.2-3.9,11-6.9,16.3-10.7c3.2-2.2,6.6-5.9,2.7-9.4
							c-1.2-1-2.6-1.7-4.1-2c-9.4-2.1-17.6,1.2-26.9,3.5c-4,1-7.9,2.3-11.7,4c-1.8,0.8-3.7,1.7-5.2,3c-2.4,2-3.8,4.9-5.3,7.6
							c-4.1,7.3-12.7,13.7-18.8,19.4c-7.1,6.7-13.4,12.8-21.5,20.1c-7.3,6.6-14.4,12.7-21.1,20c-5.5,6-3.5,10.7-2.7,12.3
							c4.5,9.3,9.5,12.6,15.6,18.3c10.4,9.9,46.3,38.5,58.2,47.9c2.5,2,4.6,4.6,5.8,7.6l2.3,5.3c13.6,2.5,22.6-17.9,11.4-42.4
							c-1.8-4-4.7-7.4-8.3-10C301.2,158.1,273.4,136.9,273.4,136.9z"/>
						<path class="st21" d="M273.4,136.9c0,0-6.1,8.2-16.6,11.4c0,0,8.7,2.2,20.5-8.4L273.4,136.9z"/>
					</g>
					<g id="XMLID_2739_">
						<g id="XMLID_2725_">
							<g id="XMLID_2695_">
								<path id="XMLID_563_" class="st15" d="M449.4,263L449.4,263l-2.2-1.9l0,0c-0.5-0.4-1.3-0.5-2.3-0.3l-24,6.5
									c-2.2,0.6-4.6,2.9-5.4,5l-17.3,49.9c-0.4,1.2-0.2,2,0.3,2.6l0,0l2.3,2l0,0c0.5,0.4,1.3,0.5,2.3,0.3l24-6.5
									c2.2-0.6,4.6-2.9,5.4-5c3.4-9.8,13.9-40.1,17.3-49.9C450.3,264.4,450.1,263.5,449.4,263z"/>
								<path id="XMLID_2696_" class="st9" d="M400.4,324.3l17.3-49.9c0.8-2.2,3.2-4.4,5.4-5l24-6.5c2.2-0.6,3.4,0.7,2.7,2.9
									c-3.4,9.8-13.9,40.1-17.3,49.9c-0.8,2.2-3.2,4.4-5.4,5.1l-24,6.5C400.9,327.8,399.7,326.5,400.4,324.3z"/>
								<path id="XMLID_2726_" class="st22" d="M420.5,270.7c-1.3,1-2.3,2.4-2.8,3.7l-17.3,49.9c-0.4,1.1-0.3,2,0.2,2.5l-2.2-1.8
									l0,0c-0.6-0.5-0.7-1.4-0.3-2.5l17.3-49.9c0.4-1.2,1.4-2.5,2.6-3.5L420.5,270.7z"/>
							</g>
							<path id="XMLID_2549_" class="st7" d="M442.8,285.8c-1.7,5.1-7.7,8.5-17.7,10.8c-9.9,2.4-15.4,12.9-13.8,16.1
								s17.7,6.2,24.1,5.3c6.4-0.9,12.9-10.2,14.8-13.1s4.2-22.9,2.1-25.7c-2.1-2.8-6.4-2.3-6.4-2.3L442.8,285.8z"/>
						</g>
					</g>
				</g>
			</g>
		</g>
	</g>
	<g id="Layer_2_00000108296325330938323180000009954591059723103621_" class="st1">
		<g>
			<g id="Background_Complete">
				<g>
					<rect y="671.4" class="st11" width="882.3" height="0.5"/>
					<rect x="797.2" y="703.6" class="st11" width="43.3" height="0.5"/>
					<rect x="562.1" y="693.2" class="st11" width="68.1" height="0.5"/>
					<rect x="734" y="685" class="st11" width="88.9" height="0.5"/>
					<rect x="265.1" y="695.1" class="st11" width="22.2" height="0.5"/>
					<rect x="170.6" y="695.1" class="st11" width="76.7" height="0.5"/>
					<rect x="74.2" y="686.7" class="st11" width="55.3" height="0.5"/>
					<path class="st4" d="M415.2,582.4H29.5c-6.3,0-11.4-5.1-11.4-11.4V28.7c0-6.3,5.1-11.4,11.4-11.4h385.7
						c6.3,0,11.4,5.1,11.4,11.4V571C426.6,577.2,421.5,582.4,415.2,582.4z"/>
					<path class="st4" d="M847.3,582.4H461.5c-6.3,0-11.4-5.1-11.4-11.4V28.7c0-6.3,5.1-11.4,11.4-11.4h385.7
						c6.3,0,11.4,5.1,11.4,11.4V571C858.7,577.2,853.6,582.4,847.3,582.4z"/>
				</g>
				<g>
					<g>
						<path class="st23" d="M171.4,256.4c23.1,0,41.8-18.7,41.8-41.8s-18.7-41.8-41.8-41.8h-5.1v83.5L171.4,256.4L171.4,256.4z"/>
						<circle class="st9" cx="166.3" cy="214.6" r="41.8"/>
						<path class="st2" d="M164.4,219.9c-30.8,0-55.9-25.1-55.9-55.9v-33.4c0-2.9,2.4-5.2,5.2-5.2s5.2,2.4,5.2,5.2V164
							c0,25,20.4,45.4,45.4,45.4c2.9,0,5.2,2.4,5.2,5.2S167.3,219.9,164.4,219.9z"/>
						<path class="st11" d="M67.3,160h92.9c6.4,0,11-6,9.4-12.2l-8.1-30.4c-1.1-4.3-5-7.2-9.4-7.2H75.3c-4.4,0-8.3,3-9.4,7.2
							l-8.1,30.4C56.2,153.9,60.9,160,67.3,160z"/>
					</g>
					<g>
						<path class="st2" d="M761.3,256.4c23.1,0,41.8-18.7,41.8-41.8s-18.7-41.8-41.8-41.8h-5.1v83.5L761.3,256.4L761.3,256.4z"/>
						<circle class="st9" cx="756.2" cy="214.6" r="41.8"/>
						<path class="st2" d="M754.3,219.9c-30.8,0-55.9-25.1-55.9-55.9v-33.4c0-2.9,2.4-5.2,5.2-5.2c2.9,0,5.2,2.4,5.2,5.2V164
							c0,25,20.4,45.4,45.4,45.4c2.9,0,5.2,2.4,5.2,5.2S757.2,219.9,754.3,219.9z"/>
						<path class="st11" d="M657.2,160h92.9c6.4,0,11-6,9.4-12.2l-8.1-30.4c-1.1-4.3-5-7.2-9.4-7.2h-76.8c-4.4,0-8.3,3-9.4,7.2
							l-8.1,30.4C646.1,153.9,650.8,160,657.2,160z"/>
					</g>
					<g>
						<g>
							<rect x="209.4" y="420.8" class="st24" width="30.4" height="117.7"/>
							<polygon class="st25" points="127,538.5 227.8,538.5 243.1,400.7 142.3,400.7 							"/>
							<polygon class="st3" points="116.1,538.5 220.2,538.5 235.5,400.7 131.3,400.7 							"/>
							<polygon class="st4" points="212.7,527.7 225.5,411.6 138.9,411.6 126,527.7 							"/>
							<path class="st9" d="M194.8,499.5l0.5-4.7c3.2-29.1-15-55.1-38.6-55.1l0,0l-0.5,4.7C153,473.6,171.2,499.5,194.8,499.5
								L194.8,499.5z"/>
						</g>
						<g>
							<g>
								<rect x="59.8" y="538.5" class="st3" width="89.6" height="132.9"/>
								<polygon class="st11" points="68.8,671.4 59.8,671.4 59.8,645.8 78.2,645.8 								"/>
								<rect x="59.8" y="538.5" class="st11" width="258.9" height="117.2"/>
								<polygon class="st11" points="309.7,671.4 318.7,671.4 318.7,645.8 300.2,645.8 								"/>
								<rect x="66.8" y="545.8" class="st4" width="244.9" height="47.3"/>
								<path class="st3" d="M172.9,576.7h32.7c14.2,0,27.8-5.8,37.5-16.1l0,0H135.4l0,0C145.1,570.8,158.7,576.7,172.9,576.7z"/>
								<rect x="66.8" y="600.8" class="st4" width="244.9" height="47.3"/>
								<path class="st3" d="M172.9,631.6h32.7c14.2,0,27.8-5.8,37.5-16.1l0,0H135.4l0,0C145.1,625.8,158.7,631.6,172.9,631.6z"/>
							</g>
						</g>
						<g>
							<path class="st24" d="M302.3,533.1h2.3c0-4.8,0-16.9,0.2-44.6c0.4-50.2,1.2-53.3,1.2-53.3l-5.5,23.2
								C297,484.1,301.5,509.9,302.3,533.1z"/>
							<path class="st24" d="M297.7,455c-7.9-9.5-24.9-12.2-42.2-14.6c-6.8-0.9,17.9,14.6,30,25.7c9.4,8.6,15.4,11,18,19.5
								C304.8,474.9,304.5,463.1,297.7,455z"/>
							<path class="st24" d="M308.2,471.9c7.9-9.5,24.9-12.2,42.2-14.6c6.8-0.9-17.9,14.6-30,25.7c-9.4,8.6-15.4,11-18,19.5
								C301.2,491.8,301.4,480,308.2,471.9z"/>
							<path class="st24" d="M304.8,433c5.9-11.3,20.9-21.9,37.7-26c6.6-1.6-15.3,20.9-23.6,35.3c-6.5,11.2-15,24.4-16.3,33.9
								C300.6,457.5,298.9,444.3,304.8,433z"/>
							<g>
								<path class="st25" d="M304.1,538.5L304.1,538.5c-7.1,0-12.9-3.5-13.3-8.1l-1.2-7.8h29l-1.2,7.8
									C317.1,535,311.2,538.5,304.1,538.5z"/>
								<polygon class="st25" points="320.5,525.6 287.7,525.6 286.8,517 321.5,517 								"/>
							</g>
						</g>
					</g>
					<g>
						<g>
							<g>
								<g>
									<rect x="280.4" y="68.6" class="st2" width="320" height="291.9"/>
									<rect x="273.2" y="68.6" class="st2" width="324.1" height="291.9"/>
									<rect x="286.1" y="81.6" class="st4" width="298.2" height="265.8"/>
									<polygon class="st26" points="547.8,347.4 430.4,81.6 390.5,81.6 507.9,347.4 									"/>
									<polygon class="st5" points="496.6,347.4 379.2,81.6 351.8,81.6 469.2,347.4 									"/>
									<rect x="381.5" y="81.6" class="st3" width="15.4" height="265.8"/>
									<rect x="484" y="81.6" class="st3" width="15.4" height="265.8"/>
									<rect x="374.6" y="71.9" class="st2" width="19.5" height="283.8"/>
									<rect x="477.1" y="71.9" class="st2" width="19.5" height="283.8"/>
									<rect x="286.1" y="81.6" class="st3" width="1.4" height="265.8"/>
								</g>
							</g>
						</g>
						<g>
							<g>
								<path class="st2" d="M267.8,51.7h346.7c0.9,0,1.7,0.8,1.7,1.7l0,0c0,0.9-0.8,1.7-1.7,1.7H267.8c-0.9,0-1.7-0.8-1.7-1.7l0,0
									C266.1,52.5,266.9,51.7,267.8,51.7z"/>
								<path class="st2" d="M600.5,62.7L600.5,62.7c1.2,0,2.3-1,2.3-2.3v-4.8c0-1.2-1-2.3-2.3-2.3l0,0c-1.2,0-2.3,1-2.3,2.3v4.8
									C598.2,61.7,599.2,62.7,600.5,62.7z"/>
								<path class="st2" d="M292.9,62.7L292.9,62.7c1.2,0,2.3-1,2.3-2.3v-4.8c0-1.2-1-2.3-2.3-2.3l0,0c-1.2,0-2.3,1-2.3,2.3v4.8
									C290.7,61.7,291.7,62.7,292.9,62.7z"/>
							</g>
						</g>
					</g>
					<g>
						<g>
							<path class="st16" d="M621.5,474.2h-55.8c-5.9,0-10.8-4.8-10.8-10.8v-25.8c0-5.9,4.8-10.8,10.8-10.8h55.8
								c5.9,0,10.8,4.8,10.8,10.8v25.8C632.3,469.4,627.4,474.2,621.5,474.2z"/>
							<path class="st2" d="M628.6,428.3h-70.1c-2,0-3.6-1.6-3.6-3.6v-2.9c0-2,1.6-3.6,3.6-3.6h70.1c2,0,3.6,1.6,3.6,3.6v2.9
								C632.3,426.7,630.6,428.3,628.6,428.3z"/>
						</g>
						<g>
							<path class="st9" d="M556.1,526.7c0,0,1,33.3,39.8,33.3s39.8-33.3,39.8-33.3H556.1z"/>
						</g>
						<g>
							<path class="st9" d="M644.5,526.7c0,0,1,33.3,39.8,33.3s39.8-33.3,39.8-33.3H644.5z"/>
						</g>
						<g>
							<path class="st9" d="M704.9,474.2h-76.7c-8.2,0-14.8-6.6-14.8-14.8v-39.2c0-8.2,6.6-14.8,14.8-14.8h76.7
								c8.2,0,14.8,6.6,14.8,14.8v39.2C719.7,467.6,713.1,474.2,704.9,474.2z"/>
							<path class="st9" d="M714.7,407.4h-96.4c-2.7,0-5-2.2-5-5v-4c0-2.7,2.2-5,5-5h96.4c2.7,0,5,2.2,5,5v4
								C719.7,405.1,717.5,407.4,714.7,407.4z"/>
						</g>
						<g>
							<rect x="526.8" y="506.4" class="st9" width="10.1" height="165.1"/>
							<g>
								<g>
									<rect x="763" y="474.2" class="st12" width="54.5" height="32.1"/>
									<rect x="492" y="474.2" class="st9" width="271" height="32.1"/>
								</g>
							</g>
							<g>
								<g>
									<rect x="763" y="560" class="st12" width="54.5" height="32.1"/>
									<rect x="492" y="560" class="st9" width="271" height="32.1"/>
								</g>
							</g>
							<rect x="797.9" y="506.4" class="st12" width="10.1" height="165.1"/>
							<rect x="753" y="506.4" class="st9" width="10.1" height="165.1"/>
							<rect x="492" y="506.4" class="st9" width="10.1" height="165.1"/>
						</g>
					</g>
				</g>
			</g>
			<g id="Shadow_1_">
				<ellipse id="_x3C_Path_x3E__137_" class="st4" cx="441.1" cy="739" rx="387.3" ry="22.6"/>
			</g>
			<g id="Login">
				<g>
					<g>
						<path class="st11" d="M462,637.7H207.1c-8.4,0-15.6-6.8-16-15.2l-22.8-442.6c-0.4-8.4,6-15.2,14.5-15.2h254.8
							c8.4,0,15.6,6.8,16,15.2l22.8,442.6C476.8,630.9,470.4,637.7,462,637.7z"/>
					</g>
					<rect x="384.2" y="150.2" class="st12" width="28.2" height="2"/>
					<rect x="364.1" y="150.2" class="st12" width="10.3" height="2"/>
					<path class="st2" d="M472.9,609.6H229.2c-8.1,0-14.9-6.5-15.3-14.6L192,171.8c-0.4-8.1,5.8-14.6,13.8-14.6h243.7
						c8.1,0,14.9,6.5,15.3,14.6L486.7,595C487.2,603.1,481,609.6,472.9,609.6z"/>
					<path class="st4" d="M472.9,599.9H229.2c-2.8,0-5.5-2.5-5.6-5.3l-21.8-423.3c-0.1-1.5,0.5-2.5,1.1-3.1c0.5-0.6,1.5-1.2,3-1.2
						h243.7c2.8,0,5.5,2.5,5.6,5.3L477,595.5c0.1,1.5-0.5,2.5-1.1,3.1C475.4,599.2,474.4,599.9,472.9,599.9z M205.9,167.4
						c-1.4,0-2.2,0.6-2.7,1.1s-1,1.4-0.9,2.7l21.8,423.3c0.1,2.6,2.5,4.9,5.1,4.9h243.7c1.4,0,2.2-0.6,2.7-1.1s1-1.4,0.9-2.7
						l-21.8-423.3c-0.1-2.6-2.5-4.9-5.1-4.9L205.9,167.4L205.9,167.4z"/>
					
						<ellipse transform="matrix(0.6979 -0.7162 0.7162 0.6979 -91.3958 319.9229)" class="st27" cx="333.5" cy="268.3" rx="71.9" ry="75.7"/>
					<path class="st9" d="M393.2,268.4c0.5,10.3-1.6,20-5.7,28.4c-9.1,18.6-28.2,31.3-50.9,31.3c-22.7,0-43.1-12.7-54.1-31.3
						c-5-8.4-8.1-18.1-8.7-28.4c-1.7-33,23.6-59.7,56.6-59.7S391.5,235.4,393.2,268.4z"/>
					<path class="st5" d="M387.4,296.8c-9.1,18.6-28.2,31.3-50.9,31.3c-22.7,0-43.1-12.7-54.1-31.3c14.5-10,32.2-15.9,51.7-15.9
						C353.5,280.9,371.9,286.8,387.4,296.8z"/>
					
						<ellipse transform="matrix(0.6979 -0.7162 0.7162 0.6979 -77.125 312.9549)" class="st5" cx="332.4" cy="247.9" rx="25.9" ry="27.3"/>
					<g>
						<path class="st5" d="M438,445H247.1c-3.4,0-6.3-2.8-6.5-6.2l-1.4-28c-0.2-3.4,2.4-6.2,5.9-6.2h190.8c3.4,0,6.3,2.8,6.5,6.2
							l1.4,28C444,442.2,441.4,445,438,445z"/>
						<path class="st28" d="M379.5,389.2h-79.7c-3.4,0-6.3-2.8-6.5-6.2l-0.3-6c-0.2-3.4,2.4-6.2,5.9-6.2h79.7c3.4,0,6.3,2.8,6.5,6.2
							l0.3,6C385.6,386.4,382.9,389.2,379.5,389.2z"/>
						<path class="st28" d="M409.2,579.4H289.8c-5.8,0-10.8-4.7-11-10.5l-0.7-13.8c-0.3-5.8,4.2-10.5,10-10.5h119.4
							c5.8,0,10.8,4.7,11,10.5l0.7,13.8C419.4,574.7,415,579.4,409.2,579.4z"/>
						<path class="st5" d="M441.5,512.6H250.6c-3.4,0-6.3-2.8-6.5-6.2l-1.4-28c-0.2-3.4,2.4-6.2,5.9-6.2h190.8
							c3.4,0,6.3,2.8,6.5,6.2l1.4,28C447.5,509.8,444.9,512.6,441.5,512.6z"/>
						<path class="st17" d="M271.4,424.8c0.2,3.8-2.7,6.8-6.5,6.8s-7-3.1-7.2-6.8c-0.2-3.8,2.7-6.8,6.5-6.8S271.2,421,271.4,424.8z"
							/>
						<path class="st17" d="M292.4,424.8c0.2,3.8-2.7,6.8-6.5,6.8s-7-3.1-7.2-6.8c-0.2-3.8,2.7-6.8,6.5-6.8
							C289,417.9,292.2,421,292.4,424.8z"/>
						<path class="st17" d="M313.4,424.8c0.2,3.8-2.7,6.8-6.5,6.8s-7-3.1-7.2-6.8c-0.2-3.8,2.7-6.8,6.5-6.8
							C310,417.9,313.2,421,313.4,424.8z"/>
						<path class="st17" d="M334.4,424.8c0.2,3.8-2.7,6.8-6.5,6.8s-7-3.1-7.2-6.8c-0.2-3.8,2.7-6.8,6.5-6.8
							C331,417.9,334.2,421,334.4,424.8z"/>
						<path class="st17" d="M274.9,492.4c0.2,3.8-2.7,6.8-6.5,6.8s-7-3.1-7.2-6.8c-0.2-3.8,2.7-6.8,6.5-6.8
							C271.5,485.5,274.7,488.6,274.9,492.4z"/>
						<path class="st17" d="M295.9,492.4c0.2,3.8-2.7,6.8-6.5,6.8s-7-3.1-7.2-6.8c-0.2-3.8,2.7-6.8,6.5-6.8S295.7,488.6,295.9,492.4
							z"/>
						<path class="st17" d="M316.9,492.4c0.2,3.8-2.7,6.8-6.5,6.8s-7-3.1-7.2-6.8c-0.2-3.8,2.7-6.8,6.5-6.8
							C313.5,485.5,316.7,488.6,316.9,492.4z"/>
						<path class="st17" d="M337.9,492.4c0.2,3.8-2.7,6.8-6.5,6.8s-7-3.1-7.2-6.8c-0.2-3.8,2.7-6.8,6.5-6.8
							C334.4,485.5,337.7,488.6,337.9,492.4z"/>
						<path class="st17" d="M358.8,492.4c0.2,3.8-2.7,6.8-6.5,6.8s-7-3.1-7.2-6.8c-0.2-3.8,2.7-6.8,6.5-6.8S358.7,488.6,358.8,492.4
							z"/>
						<path class="st17" d="M379.8,492.4c0.2,3.8-2.7,6.8-6.5,6.8s-7-3.1-7.2-6.8c-0.2-3.8,2.7-6.8,6.5-6.8S379.6,488.6,379.8,492.4
							z"/>
					</g>
				</g>
			</g>
			<g id="Character_1_">
				<g>
					<g>
						<path class="st7" d="M607,260.4c0.5,0.7,0.8,1.1,1.1,1.7l0.9,1.5c0.6,1,1.1,2,1.6,3c1,2,1.9,4,2.8,6c1.7,4,3.1,8.1,4.3,12.2
							c2.5,8.2,4,16.6,4.7,25l0.2,1.6c0,0.2,0,0.6,0.1,1v1.1c0,1.4,0,2.8-0.2,4.2c-0.4,2.7-1.1,5.2-2,7.4c-1.8,4.6-4.3,8.4-6.9,11.9
							c-5.4,7-11.6,12.6-18.6,17.6l-5.5-6.4c4.9-5.7,9.7-12,13.3-18.4c1.8-3.2,3.2-6.4,4.1-9.4c0.4-1.5,0.6-3,0.7-4.3
							c0-0.7,0-1.3-0.1-1.9l-0.1-0.4c0-0.1,0-0.3-0.1-0.5l-0.3-1.4c-1.3-7.5-3.1-14.9-5.4-22c-1.1-3.6-2.6-7-4-10.4
							c-0.7-1.7-1.5-3.3-2.3-5L594,272l-0.6-1.1l-0.5-0.9L607,260.4z"/>
						<path class="st7" d="M588.4,354.6l7.2,15.3l5.7-12.9c0,0-5.1-11.2-12-10.2L588.4,354.6z"/>
						<polygon class="st7" points="600.8,370.6 606.5,361.2 601.3,356.9 595.6,369.8 						"/>
						<path class="st29" d="M568.3,723c1.5,0,3.2-0.3,4.4-0.6c0.2,0,0.3-0.2,0.3-0.3c0-0.2,0-0.3-0.2-0.4c-0.6-0.4-5.7-3.7-7.6-2.8
							c-0.3,0.1-0.7,0.4-0.8,1.1c-0.1,0.9,0.1,1.6,0.7,2.1C565.8,722.8,567,723,568.3,723z M571.6,721.9c-2.9,0.6-5.1,0.5-6-0.3
							c-0.4-0.3-0.5-0.8-0.4-1.4c0-0.3,0.2-0.4,0.3-0.5C566.6,719.2,569.5,720.6,571.6,721.9z"/>
						<path class="st29" d="M572.6,722.4c0.1,0,0.1,0,0.2-0.1c0.1-0.1,0.2-0.2,0.2-0.3c0-0.2,0-5-1.8-6.6c-0.5-0.4-1-0.6-1.7-0.5
							c-1,0.1-1.3,0.7-1.3,1.1C567.8,717.9,570.9,721.5,572.6,722.4C572.5,722.4,572.5,722.4,572.6,722.4z M569.7,715.7
							c0.3,0,0.6,0.1,0.9,0.3c1.1,1,1.5,3.7,1.6,5.3c-1.6-1.3-3.5-4-3.3-5.1C568.9,716,569,715.8,569.7,715.7
							C569.6,715.7,569.7,715.7,569.7,715.7z"/>
						<path class="st29" d="M549.4,714.9c0.1-0.1,0.1-0.2,0.1-0.4s-0.2-0.3-0.4-0.3c-0.8,0-8-0.3-9.6,1.4l-0.1,0.1
							c-0.3,0.4-0.3,0.8-0.2,1.2c0.3,0.7,0.8,1.2,1.5,1.5C543,719.1,547.1,716.5,549.4,714.9L549.4,714.9z M540.1,716.1
							c0.9-1,4.8-1.2,7.8-1.2c-3.1,2.1-5.7,3.1-7,2.7c-0.5-0.1-0.8-0.5-0.9-1C539.9,716.5,539.9,716.4,540.1,716.1
							C540.1,716.2,540.1,716.2,540.1,716.1z"/>
						<path class="st29" d="M549.4,714.9C549.4,714.9,549.4,714.8,549.4,714.9c0.1-0.2,0.1-0.3,0.1-0.5c-0.1-0.2-2.3-4.1-5-4.8
							c-0.8-0.2-1.6-0.1-2.3,0.3c-1,0.6-1,1.2-0.9,1.6c0.5,1.9,5.6,3.5,7.8,3.5C549.2,715,549.3,715,549.4,714.9z M542.2,710.9
							c0.1-0.1,0.2-0.2,0.4-0.3c0.5-0.3,1.1-0.4,1.7-0.2c1.7,0.5,3.4,2.7,4.1,3.8c-2.4-0.3-6-1.7-6.3-2.8
							C542.1,711.3,542,711.1,542.2,710.9z"/>
						<path class="st7" d="M571.4,201.9c-1.9,9.9-6.3,31.6,0.6,38.2c0,0-2.7,10.1-21.2,10.1c-20.3,0-9.7-10.1-9.7-10.1
							c11.1-2.6,10.8-10.9,8.9-18.6L571.4,201.9z"/>
						<path class="st17" d="M537.6,178.5c0.1,0,0.2,0,0.4-0.1c0.4-0.2,0.5-0.7,0.4-1.1c-2-3.9-5.6-4.4-5.7-4.4
							c-0.4-0.1-0.8,0.3-0.9,0.7c0,0.4,0.3,0.8,0.7,0.9l0,0c0.1,0,2.9,0.4,4.5,3.5C537,178.3,537.3,178.5,537.6,178.5z"/>
						<path class="st30" d="M531.5,187.1c0,0-3,5.5-5.8,8c1.6,1.9,4.7,1.5,4.7,1.5L531.5,187.1z"/>
						<path class="st17" d="M533,185c-0.2,1.3-1,2.3-1.9,2.2s-1.5-1.3-1.3-2.6s1-2.3,1.9-2.2C532.6,182.5,533.2,183.6,533,185z"/>
						<path class="st17" d="M532.1,182.5l-3.1-1.3C529,181.2,530.3,183.9,532.1,182.5z"/>
						<polygon class="st7" points="567,711.1 550.7,714.9 540.8,677.4 557.1,673.6 						"/>
						<polygon class="st7" points="592.1,722 575.3,722 576.6,683.3 593.4,683.3 						"/>
						<path class="st8" d="M574,720.1h18.8c0.7,0,1.2,0.5,1.3,1.1l2.1,14.9c0.2,1.5-1.1,3-2.7,3c-6.6-0.1-9.7-0.5-18-0.5
							c-5.1,0-12.5,0.5-19.5,0.5c-6.9,0-7.4-6.9-4.5-7.6c13.1-2.8,15.2-6.7,19.6-10.4C572,720.5,573,720.1,574,720.1z"/>
						<path class="st8" d="M549.3,712.4l17.1-7.9c0.6-0.3,1.3-0.1,1.7,0.5l8.2,12.6c0.8,1.3,0.3,3.2-1.2,3.8c-6,2.6-9,3.6-16.5,7.1
							c-4.6,2.1-14,7-20.3,9.9c-6.2,2.9-9.6-3.2-7.2-5c10.7-8,13.8-13.7,16.3-18.9C547.6,713.5,548.4,712.8,549.3,712.4z"/>
						<g>
							<polygon class="st10" points="540.8,677.4 546.1,697.5 562.2,692.9 557.1,673.6 							"/>
							<polygon class="st10" points="593.4,683.3 576.6,683.3 576,703.3 592.7,703.3 							"/>
						</g>
						<path class="st9" d="M600.9,243.9c7,1.5,14.4,26.5,14.4,26.5l-19.7,20.9c0,0-16.3-23.5-13-32.1
							C586.1,250.2,592.7,242.1,600.9,243.9z"/>
						<path class="st31" d="M589.9,259.8c-3.5-3.2-5.9-2.3-7.5,0.3c-1.6,7.4,7.9,23,11.7,28.9C595.8,282,597.8,267.1,589.9,259.8z"
							/>
						<path class="st9" d="M512.9,244.4c0,0-8,2.8,8,101c27,0,54.8,0,68,0c-1.1-27.7-1.2-44.7,12-101.5c0,0-14.2-3.1-28.9-3.8
							c-11.4-0.6-20.8-0.9-30.9,0C527.9,241.3,512.9,244.4,512.9,244.4z"/>
						<path class="st31" d="M512.3,282.1c0.4,4.8,1,10.1,1.8,16.2c5.6-5,10.1-19.3,8.4-27.6C518.6,273.6,515,278.1,512.3,282.1z"/>
						<path class="st7" d="M519.5,267.2c-3.7,9.3-7.8,18.2-12.4,27.1s-9.5,17.5-16,26l-1.3,1.6l-0.6,0.8c-0.2,0.3-0.4,0.5-0.7,0.9
							c-1.2,1.4-2.6,2.5-3.9,3.5c-2.8,2-5.6,3.2-8.4,4.2c-5.5,1.9-10.9,2.5-16.1,2.8c-10.4,0.4-20.3-0.5-30.3-2.7l1.1-8.4
							c4.6,0,9.4-0.1,14-0.4c4.7-0.2,9.3-0.7,13.7-1.5c4.4-0.7,8.7-1.9,12.3-3.4c1.8-0.8,3.3-1.7,4.4-2.7c0.6-0.5,1-1,1.4-1.4
							c0.1-0.1,0.3-0.3,0.4-0.5l0.5-0.7l0.9-1.3c4.9-7.3,9.2-15.7,13.4-24.2c4.1-8.5,8-17.3,11.6-25.9L519.5,267.2z"/>
						<path class="st9" d="M512.9,244.4c-8.3,2-18.5,24.9-18.5,24.9l17.3,25.4c0,0,23-28.9,20.2-37.8
							C529,247.6,523,241.9,512.9,244.4z"/>
						<path class="st7" d="M435.8,324.1l-14.4-6.6l-1.4,14.3c0,0,12,3.5,18-0.1L435.8,324.1z"/>
						<polygon class="st7" points="412.8,316 411.4,326.9 420,331.8 421.4,317.4 						"/>
						<path class="st7" d="M578.6,186c-3,16.3-4,23.3-13.3,30.7c-14.1,11.2-33.5,3.8-35.3-13.1c-1.7-15.2,3.6-39.4,20.5-43.9
							C567.1,155.2,581.7,169.6,578.6,186z"/>
						<path class="st6" d="M542.8,189.4c-0.9,8.3-1.3,30,17,30.6c22.4,0.8,29.1-18.3,27.1-26c11.7-9.5,13.3-25.8,0.2-38.3
							s-41.9-5.5-50,6.7C527.1,177.5,542.8,189.4,542.8,189.4z"/>
						<path class="st3" d="M565.2,160.6c-1.1-8.8-0.2-14.8,8-14.8s19.4,3,23.6,11.4c4.1,8.4,4.5,21.6-7,20.2
							C578.2,176.1,566.5,171.1,565.2,160.6z"/>
						<path class="st6" d="M577.9,158.5c-2-10.5,7.4-39.9,30.1-41.9c10.5-0.9,15.4,10.5,9.9,12.3c10-0.1,16.4,13.1,7.1,15.1
							c7.4,4.7,5.5,14.4-5,19.1C612.4,166.7,580.6,173,577.9,158.5z"/>
						<path class="st6" d="M602.3,169.8c-7.3,0-15-1.1-19.7-4.3c-2.9-1.9-4.5-4.5-4.7-7.6c0-0.3,0.2-0.5,0.5-0.5s0.5,0.2,0.5,0.5
							c0.2,2.8,1.6,5.1,4.3,6.8c9,6.1,29.9,4.1,36.5,2c5.6-1.8,9.4-5.4,10.2-9.5c0.6-3-0.6-5.9-3.3-8.1c-0.2-0.2-0.2-0.5-0.1-0.7
							c0.2-0.2,0.5-0.2,0.7-0.1c3,2.4,4.3,5.7,3.7,9c-0.8,4.5-4.9,8.3-10.9,10.3C616.4,168.7,609.5,169.8,602.3,169.8z"/>
						<path class="st30" d="M537.7,187.2c-2,2.8-2.6,6.2-2.1,9c0.7,4.2,4.8,4.5,7.7,1.8c2.7-2.4,5.5-7.5,3.3-11
							C544.4,183.6,540,184,537.7,187.2z"/>
						<path class="st12" d="M538.8,345.4c0,0,9.7,114.8,19.8,179.6c8.1,52.3,14.6,174.5,14.6,174.5H596c0,0,8.1-118.5,4-170.3
							c-10.5-130.8,12.9-141.5-11.1-183.8L538.8,345.4L538.8,345.4z"/>
						<path class="st31" d="M567.5,388.8c-9.2,9.4-16.2,20.7-21.6,32.5c2.7,25.8,5.8,54.5,9.2,79.5
							C565.5,474.6,574.4,434.3,567.5,388.8z"/>
						<path class="st12" d="M522.9,344.6c0,0-21.1,125.4-24.4,182c8.3,52.3,42.1,162.8,42.1,162.8l20.8-7.5c0,0-11.5-120.5-24-153.5
							c28.1-94.6,48.8-118.5,42.8-183C565.7,345.4,522.9,344.6,522.9,344.6z"/>
						<polygon class="st3" points="537.8,694.9 565.8,687.3 564.2,676.1 534.2,684.2 						"/>
						<polygon class="st3" points="570,699.9 599.1,699.9 600.6,689.7 569.9,688.6 						"/>
						<g>
							<path class="st29" d="M589.9,341.4l3.1,6.1c0.2,0.5-0.3,1-1.1,1h-71.3c-0.6,0-1.1-0.3-1.2-0.7l-0.6-6.1
								c0-0.4,0.5-0.8,1.2-0.8h68.8C589.2,340.9,589.7,341.1,589.9,341.4z"/>
							<path class="st3" d="M589.9,341.4l3.1,6.1c0.2,0.5-0.3,1-1.1,1h-71.3c-0.6,0-1.1-0.3-1.2-0.7l-0.6-6.1c0-0.4,0.5-0.8,1.2-0.8
								h68.8C589.2,340.9,589.7,341.1,589.9,341.4z"/>
						</g>
						<path class="st29" d="M580.6,349.1h1.8c0.4,0,0.6-0.2,0.6-0.4l-0.9-7.9c0-0.2-0.3-0.4-0.7-0.4h-1.8c-0.4,0-0.6,0.2-0.6,0.4
							l0.9,7.9C579.9,348.9,580.2,349.1,580.6,349.1z"/>
						<g>
							<path class="st3" d="M555.9,290.9c-0.4,0-0.8-0.3-1-0.7c-6.5-24.1-20.1-43.9-26.5-46.9c-0.7-0.3-1.3-0.4-1.7-0.3
								c-0.5,0.2-1.1,0-1.3-0.5s0-1.1,0.5-1.3c0.9-0.4,2.1-0.3,3.4,0.3c6.9,3.3,20.6,22.8,27.4,47.5c4.9-0.1,12.5-0.7,14.3-0.8
								c2.3-2.7,19-23.6,12.8-46.6c-0.1-0.5,0.2-1.1,0.7-1.2c0.5-0.1,1.1,0.2,1.2,0.7c7,25.5-13.3,48.5-13.5,48.7s-0.4,0.3-0.7,0.3
								C571.4,290,561.4,290.9,555.9,290.9z"/>
							<g>
								<g>
									<path class="st9" d="M589,305c-10.9-20.4-15.3-21.8-17.3-28.4c0,0,1.8-5,6.2-10c-1.3-0.4-4.2-0.9-5.9-1.3
										c0.2-0.9,0.4-1.8,0.6-2.6c-1.5-0.4-4.5,0-6.1,0.3l-0.1-2c0,0-5.5-1.1-7.7-0.5c0.2,0.9,0.4,1.9,0.7,2.9
										c-1.9,0.4-5,1-6.5,1.4c4.2,4.8,5.8,9.9,6.1,11.1c-5.9,10.1-28.7,74.9,8.4,79.8C604.5,360.6,599.8,325.4,589,305z"/>
									<path class="st32" d="M589,305c-10.9-20.4-15.3-21.8-17.3-28.4c0,0,1.8-5,6.2-10c-1.3-0.4-4.2-0.9-5.9-1.3
										c0.2-0.9,0.4-1.8,0.6-2.6c-1.5-0.4-4.5,0-6.1,0.3l-0.1-2c0,0-5.5-1.1-7.7-0.5c0.2,0.9,0.4,1.9,0.7,2.9
										c-1.9,0.4-5,1-6.5,1.4c4.2,4.8,5.8,9.9,6.1,11.1c-5.9,10.1-28.7,74.9,8.4,79.8C604.5,360.6,599.8,325.4,589,305z"/>
								</g>
								<path class="st3" d="M557.5,274c-0.3,0.5-0.2,2.4-0.3,3.1c0,0.7,2,1.2,4.2,1.5s11.5,0.6,11.2-0.5c-0.3-1,0.5-2.5,0.5-3.3
									c0-0.9-3.7-0.9-6.8-0.8C563.2,274.1,558.2,272.8,557.5,274z"/>
							</g>
						</g>
						<path class="st12" d="M535.9,349.1h1.8c0.4,0,0.6-0.2,0.6-0.4l-0.9-7.9c0-0.2-0.3-0.4-0.7-0.4H535c-0.4,0-0.6,0.2-0.6,0.4
							l0.9,7.9C535.2,348.9,535.6,349.1,535.9,349.1z"/>
					</g>
				</g>
			</g>
		</g>
	</g>
</g>
<g id="Layer_2">
	<g id="Objects">
		<g>
			<g>
				<path class="st4" d="M643.6,149.4c-56.2-17.9-122.4-26.4-181.2-29.3c-106.8-5.3-215,22.6-305.9,78.9
					C107.7,229.2,62.9,268.6,37.4,320C-26.5,448.8,74,566.8,200,591.9c63.6,12.7,129.1,7.4,193.8,3.3c84.1-5.3,168.5-8.6,252.5-2.8
					c32.1,2.2,64.6,5.6,96-1.3c73.4-16.3,124.9-89.8,132-164.7c5.9-62.4-14.9-126.8-56.2-173.9C800.3,232.1,779,215.1,756,201
					C720,178.9,682.5,161.8,643.6,149.4z"/>
				<path class="st4" d="M818.6,157c2-0.1,4.1-0.2,5.8-1.2c1.6-0.9,2.7-2.4,3.6-3.9c2.7-4.4,4.4-9.7,3.3-14.8
					c-1.1-5.1-5.4-9.7-10.5-9.9c-5.2-0.3-10.3,4.9-9,9.9c-2.6-2.2-6.1-3.6-9.5-3c-3.4,0.6-6.5,3.5-6.5,7c0.1-9.9-10.3-18.6-20-16.7
					c-9.8,1.8-16.3,13.6-12.6,22.9c-2.5-1.4-5.2-2.8-8.1-2.7c-2.9,0.1-5.9,2.6-5.5,5.4c-1.1-8.1-17.2-4.7-18,2.7
					c-0.9,8.7,12.9,6.6,18.3,6.6C772.7,158.6,795.7,158,818.6,157z"/>
				<path class="st5" d="M359,183.1c2-0.1,4.1-0.2,5.8-1.2c1.6-0.9,2.7-2.4,3.6-3.9c2.7-4.4,4.4-9.7,3.3-14.8
					c-1.1-5.1-5.4-9.7-10.5-9.9c-5.2-0.3-10.3,4.9-9,9.9c-2.6-2.2-6.1-3.6-9.5-3c-3.4,0.6-6.5,3.5-6.5,7c0.1-9.9-10.3-18.6-20-16.7
					c-9.8,1.8-16.3,13.6-12.6,22.9c-2.5-1.4-5.2-2.8-8.1-2.7c-2.9,0.1-5.9,2.6-5.5,5.4c-1.1-8.1-17.2-4.7-18,2.7
					c-0.9,8.7,12.9,6.6,18.3,6.6C313.1,184.8,336.1,184.1,359,183.1z"/>
				<path class="st4" d="M205.8,134.1c6.2-0.1,12.7-0.4,17.8-3.9c5-3.5,7.3-11.7,2.8-15.9c-3.9-3.6-11.3-1.6-12.8,3.5
					c1-4.1-5.3-7.5-8.2-4.5c0-6.4-1.9-12.7-5.5-18c-2.1-3.1-5-5.9-8.7-6.6c-3.8-0.8-7.8,0.8-10.9,3.2c-7.5,5.6-11.5,15.5-10,24.8
					c-1.9-2.6-5.4-3.8-8.5-3.1c-3.1,0.7-5.6,3.4-6.2,6.6c-2.6-2.3-5.5-4.7-8.9-5.1s-7.4,2.3-7,5.8c-4.2-4.5-9.5-8.2-15.6-9.1
					c-6.1-0.9-12.9,1.7-15.7,7.1c-3,5.9,0.6,14.2,6.7,16.4c7.4,2.6,19,0.2,26.8,0C163.2,134.8,184.5,134.4,205.8,134.1z"/>
			</g>
			<g>
				<g>
					<path class="st3" d="M28,606.5c-3.7-1.1-7.2-2.7-10.5-4.6c-2.6-1.5-5.2-3.3-7-5.8s-2.6-5.8-1.6-8.6c2.1-5.7,7.9-5.7,12.9-6.5
						c5.9-0.9,11.9-0.1,17.3,2.5c-3.9-2.5-7.3-5.8-10-9.6c-1.1-1.5-2.1-3.5-1.4-5.3c0.6-1.5,2.3-2.2,3.9-2.2c1.6,0,3.1,0.7,4.5,1.5
						c1.3,0.7,2.9,2,4.2,2.2c-4.8-5.4-11.5-9.7-16.8-14.9c-4.9-4.9-9.5-10.1-12.6-16.2c-3.5-6.9-6.5-19.1-0.1-25.1
						c6.1-5.7,16.3-5,22.9-0.7c5,3.2,8.7,8,12,12.9c8.2,12.2,14.2,25.8,20.2,39.3c1.2-2.7,2.9-5.7,5.8-5.9c1.7-0.1,3.4,1,4.4,2.4
						c1,1.4,1.6,3.1,2.1,4.8c0.7-3.8,2.4-8.2,6.2-8.9c3.5-0.6,6.5,2.5,7.8,5.8c2.4,6.2,1,13.4-2.4,19.1
						c-4.7,7.9-12.9,13.4-20.2,18.7c-2.3,1.7-4.7,3.3-7.3,4.4c-1.6,0.7-3.4,1.2-5.1,1.6C47.6,609.9,37.4,609.4,28,606.5z"/>
					<path class="st33" d="M18.6,517.9c0,0,38.4,36.5,49.4,78.9"/>
					<path class="st34" d="M86.9,563.5c0,0-5.9,19.2-19.9,29.7"/>
					<path class="st33" d="M11.9,589.1c0,0,36.4,11.8,53.6-0.6"/>
					<path class="st33" d="M32.8,571.6c0,0,19,12.3,29.7,9"/>
					<path class="st33" d="M17.5,536.6c0,0,20.5,24.5,32.7,20.3"/>
					<path class="st33" d="M33.8,520.4c0.3,0.4,8,15.4,6.5,22.4"/>
					<path class="st34" d="M71.8,565.6c0,0-1.2,14-7.6,19.3"/>
					<path class="st33" d="M53.1,593.3c0,0-9.4,7.2-18.2,8.5"/>
					<path class="st33" d="M51.8,580.2c0,0-2.5,4-7.9,5"/>
				</g>
				<g>
					<path class="st2" d="M44.7,550.5c-0.7-5.2,0.7-12.1,5.9-13c5.1-0.9,8.7,4.6,10.8,9.3c-5.4-13.7-6.7-29-3.7-43.5
						c0.7-3.6,2.4-7.7,6-8.3c3.6-0.6,6.6,2.9,8.3,6.1c5.3,9.7,8,20.7,7.8,31.7c-0.7-4.4,2.7-8.9,7.1-9.5c0.6,1.1,1.1,2.3,1.7,3.5
						c-1.5-8.5-1.7-17.3-0.7-25.9c0.5-4.1,1.4-8.3,3.5-11.9c2.1-3.6,5.8-6.4,9.9-6.7c4.1-0.3,8.1,2,10.7,5.3c2.6,3.2,4,7.2,5,11.3
						c4.3,17,2.5,35.5-4.9,51.3c4.4-2.3,10.2,0.7,12.4,5.1c2.2,4.5,1.7,9.8,0.3,14.6c-3.4,11.5-11.6,21.7-22.6,26.5
						C71.7,609.4,48.2,577.4,44.7,550.5z"/>
					<path class="st33" d="M102.6,489.6c0,0,11.6,54.3-21.6,100.2"/>
					<path class="st33" d="M64,500.7c0,0-1.1,50.5,24.6,77.2"/>
					<path class="st33" d="M50.7,544.9c0,0,12.8,31.9,32.9,41.3"/>
					<path class="st35" d="M118.8,559c0,0-8.8,23.3-32.7,23.1"/>
					<path class="st35" d="M95.1,564.1c0,0-7.2-12.6-8.3-26.6"/>
					<path class="st35" d="M103.7,530.1c0,0,8.2-1.7,9.6-17.6"/>
					<path class="st33" d="M69.2,540.6c0,0,4.4-11.4,3.4-21.6"/>
					<path class="st33" d="M62.4,566.3c0,0,2.7-3.1,2.9-13.7"/>
					<path class="st35" d="M97.6,580.2c0,0-0.7,6,8.4,5.1"/>
				</g>
				<g>
					<path class="st2" d="M851.3,563.5c2.3-4.7,3.2-11.7-1.4-14.2c-4.5-2.5-9.7,1.6-13.2,5.4c9.5-11.3,15.6-25.4,17.3-40
						c0.4-3.6,0.2-8.1-3-9.8c-3.3-1.7-7.1,0.7-9.8,3.2c-8.1,7.5-14.2,17.1-17.5,27.6c2-3.9,0.3-9.3-3.7-11.3
						c-0.9,0.9-1.8,1.8-2.7,2.7c4.1-7.6,7.1-15.9,8.9-24.4c0.8-4.1,1.3-8.3,0.4-12.4c-0.9-4.1-3.4-7.9-7.3-9.5
						c-3.8-1.6-8.4-0.6-11.8,1.6c-3.5,2.2-6.1,5.6-8.3,9.1c-9.5,14.8-13.7,32.8-11.6,50.2c-3.5-3.6-9.9-2.6-13.4,0.9
						c-3.5,3.5-4.7,8.8-4.9,13.8c-0.5,12,4.1,24.3,13.1,32.3C807,610.8,839.4,587.9,851.3,563.5z"/>
					<path class="st36" d="M815.7,487.4c0,0-28.2,47.8-11.3,101.9"/>
					<path class="st36" d="M848.8,510.1c0,0-15,48.2-47.8,65.4"/>
					<path class="st36" d="M847.4,556.3c0,0-22.2,26.2-44.3,28.7"/>
					<path class="st36" d="M778.3,548.1c0,0,0.9,24.9,23.6,32.3"/>
					<path class="st36" d="M799.2,560.4c0,0,10.8-9.6,16.3-22.5"/>
					<path class="st36" d="M801.8,525.5c0,0-7.2-4.2-3.6-19.7"/>
					<path class="st36" d="M831.2,546.3c0,0-0.5-12.2,3.6-21.6"/>
					<path class="st36" d="M829.5,572.9c0,0-1.5-3.7,1.6-13.9"/>
					<path class="st35" d="M791.7,574.9c0,0-1.3,5.9-9.6,2.1"/>
				</g>
			</g>
			<g>
				<g>
					<path class="st3" d="M757,601.7H102.3c-11.1,0-20.1-9-20.1-20.1V219.4c0-11.1,9-20.1,20.1-20.1H757c11.1,0,20.1,9,20.1,20.1
						v362.3C777.1,592.7,768.1,601.7,757,601.7z"/>
					<rect x="104.8" y="220.3" class="st5" width="649.7" height="360.4"/>
					<rect x="104.8" y="220.3" class="st9" width="649.7" height="28.3"/>
					<rect x="108.9" y="252.7" class="st9" width="131.7" height="323.2"/>
					<rect x="123.1" y="347.1" class="st5" width="103.2" height="9"/>
					<rect x="123.1" y="414" class="st5" width="103.2" height="9"/>
					<rect x="123.1" y="434.5" class="st5" width="96.6" height="9"/>
					<rect x="123.1" y="455.1" class="st5" width="32.8" height="9"/>
					<rect x="123.1" y="475.7" class="st5" width="69" height="9"/>
					<g>
						<path class="st3" d="M126.7,234.5c0,2.6-2.1,4.8-4.8,4.8c-2.6,0-4.8-2.1-4.8-4.8s2.1-4.8,4.8-4.8
							C124.5,229.7,126.7,231.8,126.7,234.5z"/>
						<path class="st2" d="M144.3,234.5c0,2.6-2.1,4.8-4.8,4.8c-2.6,0-4.8-2.1-4.8-4.8s2.1-4.8,4.8-4.8
							C142.2,229.7,144.3,231.8,144.3,234.5z"/>
						<path class="st4" d="M162,234.5c0,2.6-2.1,4.8-4.8,4.8c-2.6,0-4.8-2.1-4.8-4.8s2.1-4.8,4.8-4.8
							C159.8,229.7,162,231.8,162,234.5z"/>
					</g>
					<path class="st5" d="M734.6,239.3H226.3c-3.6,0-6.5-2.9-6.5-6.5l0,0c0-3.6,2.9-6.5,6.5-6.5h508.3c3.6,0,6.5,2.9,6.5,6.5l0,0
						C741.1,236.3,738.2,239.3,734.6,239.3z"/>
					<g>
						<path class="st5" d="M176.1,300.9c-0.4,0.2-0.9,0.4-1.4,0.4c-0.5,0-1-0.1-1.4-0.4l-49-28.2c-0.7,1.2-1.2,2.6-1.2,4.2v43.1
							c0,4.5,3.7,8.2,8.2,8.2h86.9c4.5,0,8.2-3.7,8.2-8.2v-43.1c0-1.1-0.2-2.2-0.6-3.1L176.1,300.9z"/>
						<path class="st5" d="M174.8,295.1l46.8-25.7c-1.1-0.5-2.2-0.8-3.4-0.8h-86.9c-0.7,0-1.4,0.1-2.1,0.3L174.8,295.1z"/>
					</g>
					<g>
						<path class="st3" d="M231.1,325.6c0,5.2-4.2,9.5-9.5,9.5c-5.2,0-9.5-4.2-9.5-9.5s4.2-9.5,9.5-9.5
							C226.8,316.1,231.1,320.4,231.1,325.6z"/>
						<g>
							<path class="st5" d="M223.6,320.3v11.3H221v-9.2h-2.3v-2.1H223.6z"/>
						</g>
					</g>
					<path class="st9" d="M740.1,288.1H249.6c-0.6,0-1-0.5-1-1v-33.4c0-0.6,0.5-1,1-1h490.6c0.6,0,1,0.5,1,1v33.4
						C741.1,287.7,740.7,288.1,740.1,288.1z"/>
					<rect x="248.6" y="300.4" class="st9" width="492.6" height="25.2"/>
					<rect x="248.6" y="334.5" class="st9" width="492.6" height="25.2"/>
					<rect x="248.6" y="368.6" class="st9" width="492.6" height="25.2"/>
					<rect x="248.6" y="402.7" class="st9" width="492.6" height="25.2"/>
					<rect x="248.6" y="436.8" class="st9" width="492.6" height="25.2"/>
					<rect x="248.6" y="470.9" class="st9" width="492.6" height="25.2"/>
					<rect x="248.6" y="505" class="st9" width="492.6" height="25.2"/>
					<rect x="248.6" y="539.2" class="st9" width="492.6" height="25.2"/>
				</g>
				<g>
					<g>
						<g>
							<path class="st5" d="M630.6,421H259.4c-6.1,0-11.1-5-11.1-11.1v-63.4c0-6.1,5-11.1,11.1-11.1h371.1c6.1,0,11.1,5,11.1,11.1
								v63.4C641.6,416,636.6,421,630.6,421z"/>
							<path class="st2" d="M630.6,421.9H259.4c-6.6,0-12-5.4-12-12v-63.4c0-6.6,5.4-12,12-12h371.1c6.6,0,12,5.4,12,12v63.4
								C642.6,416.5,637.2,421.9,630.6,421.9z M259.4,336.5c-5.6,0-10.1,4.5-10.1,10.1v63.4c0,5.6,4.5,10.1,10.1,10.1h371.1
								c5.6,0,10.1-4.5,10.1-10.1v-63.4c0-5.6-4.5-10.1-10.1-10.1H259.4z"/>
						</g>
						<path class="st2" d="M277.3,366h-18.9c-0.9,0-1.6-0.7-1.6-1.6v-18.9c0-0.9,0.7-1.6,1.6-1.6h18.9c0.9,0,1.6,0.7,1.6,1.6v18.9
							C278.9,365.3,278.2,366,277.3,366z"/>
						<g>
							<line class="st37" x1="283.6" y1="347" x2="433.7" y2="347"/>
							<path class="st2" d="M433.7,348H283.6c-0.5,0-1-0.4-1-1c0-0.5,0.4-1,1-1h150.1c0.5,0,1,0.4,1,1
								C434.6,347.6,434.2,348,433.7,348z"/>
						</g>
						<g>
							<line class="st37" x1="283.6" y1="353.6" x2="367.1" y2="353.6"/>
							<path class="st2" d="M367.1,354.6h-83.5c-0.5,0-1-0.4-1-1c0-0.5,0.4-1,1-1h83.5c0.5,0,1,0.4,1,1
								C368,354.2,367.6,354.6,367.1,354.6z"/>
						</g>
						<g>
							<line class="st37" x1="283.6" y1="360.2" x2="467.9" y2="360.2"/>
							<path class="st2" d="M467.9,361.2H283.6c-0.5,0-1-0.4-1-1c0-0.5,0.4-1,1-1h184.3c0.5,0,1,0.4,1,1
								C468.9,360.7,468.5,361.2,467.9,361.2z"/>
						</g>
						<g>
							<g>
								<line class="st37" x1="256.7" y1="377.4" x2="550.4" y2="377.4"/>
								<path class="st2" d="M550.4,378.4H256.7c-0.5,0-1-0.4-1-1c0-0.5,0.4-1,1-1h293.7c0.5,0,1,0.4,1,1
									C551.4,377.9,551,378.4,550.4,378.4z"/>
							</g>
							<g>
								<line class="st37" x1="256.7" y1="386.9" x2="436.2" y2="386.9"/>
								<path class="st2" d="M436.2,387.8H256.7c-0.5,0-1-0.4-1-1c0-0.5,0.4-1,1-1h179.5c0.5,0,1,0.4,1,1
									C437.2,387.4,436.7,387.8,436.2,387.8z"/>
							</g>
							<g>
								<line class="st37" x1="256.7" y1="396.3" x2="533.1" y2="396.3"/>
								<path class="st2" d="M533.1,397.3H256.7c-0.5,0-1-0.4-1-1s0.4-1,1-1h276.4c0.5,0,1,0.4,1,1S533.6,397.3,533.1,397.3z"/>
							</g>
							<g>
								<line class="st37" x1="256.7" y1="405.8" x2="473" y2="405.8"/>
								<path class="st2" d="M473,406.7H256.7c-0.5,0-1-0.4-1-1s0.4-1,1-1H473c0.5,0,1,0.4,1,1S473.5,406.7,473,406.7z"/>
							</g>
						</g>
					</g>
					<g>
						<path class="st11" d="M598.4,383.2c-0.3,0.2-0.6,0.2-1,0.2c-0.3,0-0.7-0.1-1-0.3l-34.9-20.1c-0.5,0.9-0.8,1.9-0.8,3v30.8
							c0,3.2,2.6,5.8,5.8,5.8h61.9c3.2,0,5.8-2.6,5.8-5.8V366c0-0.8-0.2-1.5-0.5-2.2L598.4,383.2z"/>
						<path class="st11" d="M597.4,379.1l33.4-18.3c-0.8-0.4-1.6-0.6-2.5-0.6h-61.9c-0.5,0-1,0.1-1.5,0.2L597.4,379.1z"/>
					</g>
				</g>
				<g>
					<g>
						<g>
							<path class="st5" d="M417.7,488.5H261.2c-2.6,0-4.7-2.1-4.7-4.7v-26.7c0-2.6,2.1-4.7,4.7-4.7h156.4c2.6,0,4.7,2.1,4.7,4.7
								v26.7C422.3,486.4,420.2,488.5,417.7,488.5z"/>
							<path class="st2" d="M417.7,488.9H261.2c-2.8,0-5.1-2.3-5.1-5.1v-26.7c0-2.8,2.3-5.1,5.1-5.1h156.4c2.8,0,5.1,2.3,5.1,5.1
								v26.7C422.7,486.7,420.5,488.9,417.7,488.9z M261.2,452.9c-2.3,0-4.2,1.9-4.2,4.2v26.7c0,2.3,1.9,4.2,4.2,4.2h156.4
								c2.3,0,4.2-1.9,4.2-4.2v-26.7c0-2.3-1.9-4.2-4.2-4.2H261.2z"/>
						</g>
						<path class="st2" d="M268.8,465.4h-8c-0.4,0-0.7-0.3-0.7-0.7v-8c0-0.4,0.3-0.7,0.7-0.7h8c0.4,0,0.7,0.3,0.7,0.7v8
							C269.5,465.1,269.1,465.4,268.8,465.4z"/>
						<g>
							<line class="st37" x1="271.4" y1="457.4" x2="334.7" y2="457.4"/>
							<path class="st2" d="M334.7,457.8h-63.2c-0.2,0-0.4-0.2-0.4-0.4c0-0.2,0.2-0.4,0.4-0.4h63.2c0.2,0,0.4,0.2,0.4,0.4
								C335.1,457.6,334.9,457.8,334.7,457.8z"/>
						</g>
						<g>
							<line class="st37" x1="271.4" y1="460.2" x2="306.6" y2="460.2"/>
							<path class="st2" d="M306.6,460.6h-35.2c-0.2,0-0.4-0.2-0.4-0.4s0.2-0.4,0.4-0.4h35.2c0.2,0,0.4,0.2,0.4,0.4
								S306.8,460.6,306.6,460.6z"/>
						</g>
						<g>
							<line class="st37" x1="271.4" y1="462.9" x2="349.1" y2="462.9"/>
							<path class="st2" d="M349.1,463.3h-77.7c-0.2,0-0.4-0.2-0.4-0.4c0-0.2,0.2-0.4,0.4-0.4h77.7c0.2,0,0.4,0.2,0.4,0.4
								C349.5,463.2,349.4,463.3,349.1,463.3z"/>
						</g>
						<g>
							<g>
								<line class="st37" x1="260.1" y1="470.2" x2="383.9" y2="470.2"/>
								<path class="st2" d="M383.9,470.6H260.1c-0.2,0-0.4-0.2-0.4-0.4s0.2-0.4,0.4-0.4h123.8c0.2,0,0.4,0.2,0.4,0.4
									S384.1,470.6,383.9,470.6z"/>
							</g>
							<g>
								<line class="st37" x1="260.1" y1="474.2" x2="335.7" y2="474.2"/>
								<path class="st2" d="M335.7,474.6h-75.6c-0.2,0-0.4-0.2-0.4-0.4c0-0.2,0.2-0.4,0.4-0.4h75.6c0.2,0,0.4,0.2,0.4,0.4
									C336.2,474.4,336,474.6,335.7,474.6z"/>
							</g>
							<g>
								<line class="st37" x1="260.1" y1="478.1" x2="376.6" y2="478.1"/>
								<path class="st2" d="M376.6,478.6H260.1c-0.2,0-0.4-0.2-0.4-0.4c0-0.2,0.2-0.4,0.4-0.4h116.5c0.2,0,0.4,0.2,0.4,0.4
									C377,478.4,376.8,478.6,376.6,478.6z"/>
							</g>
							<g>
								<line class="st37" x1="260.1" y1="482.1" x2="351.3" y2="482.1"/>
								<path class="st2" d="M351.3,482.5h-91.2c-0.2,0-0.4-0.2-0.4-0.4s0.2-0.4,0.4-0.4h91.2c0.2,0,0.4,0.2,0.4,0.4
									S351.5,482.5,351.3,482.5z"/>
							</g>
						</g>
					</g>
					<g>
						<path class="st11" d="M404.1,472.6c-0.1,0.1-0.3,0.1-0.4,0.1c-0.1,0-0.3,0-0.4-0.1l-14.7-8.5c-0.2,0.4-0.4,0.8-0.4,1.2v13
							c0,1.3,1.1,2.5,2.5,2.5h26.1c1.3,0,2.5-1.1,2.5-2.5v-13c0-0.3-0.1-0.7-0.2-0.9L404.1,472.6z"/>
						<path class="st11" d="M403.7,470.9l14.1-7.7c-0.3-0.1-0.7-0.2-1-0.2h-26.1c-0.2,0-0.4,0-0.6,0.1L403.7,470.9z"/>
					</g>
				</g>
				<g>
					<g>
						<g>
							<path class="st5" d="M625.7,540.7H425.4c-3.3,0-6-2.7-6-6v-34.2c0-3.3,2.7-6,6-6h200.2c3.3,0,6,2.7,6,6v34.2
								C631.6,538.1,628.9,540.7,625.7,540.7z"/>
							<path class="st2" d="M625.7,541.3H425.4c-3.6,0-6.5-2.9-6.5-6.5v-34.2c0-3.6,2.9-6.5,6.5-6.5h200.2c3.6,0,6.5,2.9,6.5,6.5
								v34.2C632.1,538.4,629.2,541.3,625.7,541.3z M425.4,495.2c-3,0-5.4,2.4-5.4,5.4v34.2c0,3,2.4,5.4,5.4,5.4h200.2
								c3,0,5.4-2.4,5.4-5.4v-34.2c0-3-2.4-5.4-5.4-5.4H425.4z"/>
						</g>
						<path class="st2" d="M435,511.1h-10.2c-0.5,0-0.9-0.4-0.9-0.9V500c0-0.5,0.4-0.9,0.9-0.9H435c0.5,0,0.9,0.4,0.9,0.9v10.2
							C435.9,510.7,435.5,511.1,435,511.1z"/>
						<g>
							<line class="st37" x1="438.4" y1="500.9" x2="519.4" y2="500.9"/>
							<path class="st2" d="M519.4,501.4h-81c-0.3,0-0.5-0.2-0.5-0.5c0-0.3,0.2-0.5,0.5-0.5h81c0.3,0,0.5,0.2,0.5,0.5
								C519.9,501.2,519.7,501.4,519.4,501.4z"/>
						</g>
						<g>
							<line class="st37" x1="438.4" y1="504.4" x2="524.3" y2="504.4"/>
							<path class="st2" d="M524.3,504.9h-85.9c-0.3,0-0.5-0.2-0.5-0.5c0-0.3,0.2-0.5,0.5-0.5h85.9c0.3,0,0.5,0.2,0.5,0.5
								C524.9,504.7,524.6,504.9,524.3,504.9z"/>
						</g>
						<g>
							<line class="st37" x1="438.4" y1="508" x2="537.9" y2="508"/>
							<path class="st2" d="M537.9,508.5h-99.5c-0.3,0-0.5-0.2-0.5-0.5c0-0.3,0.2-0.5,0.5-0.5h99.5c0.3,0,0.5,0.2,0.5,0.5
								C538.4,508.2,538.2,508.5,537.9,508.5z"/>
						</g>
						<g>
							<g>
								<line class="st37" x1="423.9" y1="517.2" x2="582.4" y2="517.2"/>
								<path class="st2" d="M582.4,517.8H423.9c-0.3,0-0.5-0.2-0.5-0.5s0.2-0.5,0.5-0.5h158.5c0.3,0,0.5,0.2,0.5,0.5
									C583,517.5,582.7,517.8,582.4,517.8z"/>
							</g>
							<g>
								<line class="st37" x1="423.9" y1="522.3" x2="552.9" y2="522.3"/>
								<path class="st2" d="M552.9,522.9h-129c-0.3,0-0.5-0.2-0.5-0.5s0.2-0.5,0.5-0.5h129c0.3,0,0.5,0.2,0.5,0.5
									S553.2,522.9,552.9,522.9z"/>
							</g>
							<g>
								<line class="st37" x1="423.9" y1="527.4" x2="539" y2="527.4"/>
								<path class="st2" d="M539,528H423.9c-0.3,0-0.5-0.2-0.5-0.5s0.2-0.5,0.5-0.5H539c0.3,0,0.5,0.2,0.5,0.5S539.3,528,539,528z"
									/>
							</g>
							<g>
								<line class="st37" x1="423.9" y1="532.5" x2="572" y2="532.5"/>
								<path class="st2" d="M572,533.1H423.9c-0.3,0-0.5-0.2-0.5-0.5c0-0.3,0.2-0.5,0.5-0.5H572c0.3,0,0.5,0.2,0.5,0.5
									S572.3,533.1,572,533.1z"/>
							</g>
						</g>
					</g>
					<g>
						<path class="st11" d="M608.3,520.4c-0.2,0.1-0.3,0.1-0.5,0.1c-0.2,0-0.4,0-0.5-0.1l-18.8-10.8c-0.3,0.5-0.5,1-0.5,1.6v16.6
							c0,1.7,1.4,3.1,3.1,3.1h33.4c1.7,0,3.1-1.4,3.1-3.1v-16.6c0-0.4-0.1-0.8-0.2-1.2L608.3,520.4z"/>
						<path class="st11" d="M607.8,518.1l18-9.9c-0.4-0.2-0.9-0.3-1.3-0.3h-33.4c-0.3,0-0.5,0-0.8,0.1L607.8,518.1z"/>
					</g>
				</g>
			</g>
			<g>
				<g>
					<path class="st38" d="M713.2,389.5c-0.4-0.7-0.9-1.3-1.6-1.7c-0.9-0.6-1.9-0.7-3-0.8c-2.1-0.2-4.2-0.1-6.3,0.3
						c-2.5,0.4-5.1,1.3-6.6,3.4c-0.3,0.5-0.6,1-0.7,1.6c-0.1,0.6,0.1,1.2,0.6,1.6c0.5,0.4,1.2,0.5,1.9,0.5c1.1,0,2.3,0.1,3.4,0.1
						c-0.1,2.1-0.1,4.3,0,6.4c0.2,2.3,0.6,4.8,2.3,6.3c1.5,1.4,3.7,1.8,5.7,1.4c2.1-0.3,4.1-1.4,5.6-3c1.4-1.6,2.2-3.8,2.1-5.9
						c-0.1-1.9-1-3.4-1.4-5.1C714.9,392.7,714.2,391,713.2,389.5z"/>
					<path class="st39" d="M701.1,400.7c0.1,1,0.1,2,0.4,3c0.2,0.5,0.4,1,0.8,1.3c0.6,0.6,1.5,0.8,2.4,0.8c0.6,0,1.3-0.1,1.7-0.5
						c0.2-0.2,0.3-0.4,0.4-0.6c0.5-1.1,0.5-2.4-0.2-3.4"/>
					<path class="st39" d="M708.2,391.7c-0.9,0.5-2,0.9-3.1,1.1c-0.8,0.1-1.7,0.2-2.5,0.4c-0.8,0.2-1.6,0.8-1.8,1.5
						c-0.4,1.2,0.4,2.4,1.4,3.1c1.5,1,3.5,1.3,5.2,0.7c0,1,0.5,2,1.3,2.6c0.8,0.6,1.8,0.9,2.8,0.7"/>
					<path class="st39" d="M701,396.9c-0.2,0.9-0.2,1.8,0,2.7c0.2,0.9,0.6,1.7,1.3,2.3c0.7,0.6,1.6,0.9,2.5,0.7
						c0.5-0.1,1-0.3,1.3-0.7c0.2-0.2,0.3-0.4,0.4-0.6c0.4-0.8,0.5-1.7,0.1-2.5"/>
				</g>
				<path class="st40" d="M787.9,397.7c-3.8-5-11-5.9-15.9-2.1l-27.2,21l-28.6-22.4c-14,7.5-14,17.9-14,17.9l35.6,27.9
					c2.1,1.6,4.5,2.4,7,2.4c2.4,0,4.9-0.8,6.9-2.4l34.2-26.4C790.8,409.8,791.7,402.6,787.9,397.7z"/>
				<g>
					<path class="st4" d="M704.6,666.4c0,3.2,27.3,5.8,60.9,5.8s60.9-2.6,60.9-5.8c0-3.2-27.3-5.8-60.9-5.8S704.6,663.1,704.6,666.4
						z"/>
					<g>
						<g>
							<g>
								<g>
									<path class="st41" d="M692.4,404.3l-12.4,5.3c-0.5,0.2-1.1,0-1.3-0.5l-10.8-25.5c-0.2-0.5,0-1.1,0.5-1.3l12.4-5.3
										c0.5-0.2,1.1,0,1.3,0.5l10.8,25.5C693.1,403.5,692.9,404.1,692.4,404.3z"/>
									
										<rect x="673" y="379.9" transform="matrix(0.9203 -0.3912 0.3912 0.9203 -99.1808 297.1832)" class="st42" width="13.5" height="24.2"/>
									<path class="st43" d="M686.6,404.5c0.3,0.7,0,1.5-0.7,1.8c-0.7,0.3-1.5,0-1.8-0.7c-0.3-0.7,0-1.5,0.7-1.8
										C685.5,403.5,686.3,403.8,686.6,404.5z"/>
								</g>
								<path class="st38" d="M674.6,411c-0.5-2.8-0.5-5.9,0.7-8.5c1.2-2.6,3.8-4.7,6.7-4.7c1.6,0,3.3,0.8,3.7,2.4
									c0.3,1.1-0.4,2.4-1.2,3.1c-0.9,0.8-2,1.2-3.1,1.6c1.4,0.4,2.4,1.7,2.8,3.1c0.4,1.4,0.2,2.9,0,4.3c-0.4,2-2,7.8-4.9,7.3
									C676.5,419.2,675,413,674.6,411z"/>
								<path class="st8" d="M762.7,661.4v4.3c0,0-21.3,2.1-35.9,0l5.2-4.3H762.7z"/>
								<path class="st8" d="M805.1,661.4v4.3c0,0-21.3,2.1-35.9,0l5.2-4.3H805.1z"/>
								<g>
									<g>
										<polygon class="st38" points="773.3,370.3 776.4,388.7 769.2,397.8 760.1,394.1 758.3,383 										"/>
									</g>
									<path class="st38" d="M763.6,389.1l-6.3,1c-6.9,1.1-13.4-3.6-14.5-10.4l-3.2-19.7c-1.1-6.9,3.6-13.4,10.4-14.5l6.3-1
										c6.9-1.1,13.4,3.6,14.5,10.4l3.2,19.7C775.2,381.4,770.5,388,763.6,389.1z"/>
									<path class="st44" d="M759.7,381c-2.8-2.1-4.4-5.3-6-8.4c-0.3-0.5-0.5-1-0.5-1.6c0-0.6,0.3-1.1,0.6-1.6
										c0.6-1.2,1-2.6,0.8-3.9c-0.3-1.3-1.4-2.6-2.7-2.6c-1.6,0-2.8,1.7-2.8,3.3c-0.1,1.6,0.7,3.1,1.4,4.5c-1.4,1-3.4-0.4-3.9-2.1
										c-0.5-1.6-0.2-3.5-0.8-5.1c-0.9-2.6-3.6-4.1-5.7-6c-2.1-1.8-3.7-5.1-2-7.3c0.7-0.9,1.9-1.3,2.8-2.1
										c1.5-1.3,2.1-3.3,3.5-4.7c1-1,2.2-1.6,3.5-2c7.7-2.9,17.4-2.1,22.7,4.2c4,4.7,4.7,11.4,5.2,17.5c0.4,5.2,2.3,13.2-2.2,17
										C769.9,383.5,763.7,384,759.7,381z"/>
								</g>
								<path class="st12" d="M732.6,478.5l-0.5,183c0,0,19.9,2.3,30.7,0l3.2-156.2l7.5,157.3c0,0,19.3,1.2,31.6,0l-12.9-178.8
									L732.6,478.5z"/>
								<path class="st45" d="M733.5,410.7c-0.2,1.1-0.4,2.2-0.6,3.3c-0.5,3.5-1,6.9-1.3,10.3c-0.7,7.8-1.3,15.7-1.7,23.6
									c-0.4,9.1-0.4,18.3,0.3,27.4c0.6,8.4,4,10.5,11.9,13.2c6.8,2.3,14.2,3.2,21.4,3.5c6,0.2,26.1,0.1,28.7-8.3
									c0.9-2.7-2.1-8.9-2.6-11.9c-0.7-4-1-8.1-1.1-12.1c-0.1-7.9,1-15.7,3.2-23.3c3.2-10.6,9.4-20.3,4-31
									c-5.5-10.9-18.2-14.1-29.5-14.2c-5.8-0.1-11.8,0.4-17.4,2.2c-2.8,0.9-5.1,2-7.3,4c-2.2,2-4.3,4.2-5.7,6.8
									C734.8,406.2,734,408.4,733.5,410.7z"/>
								<path class="st46" d="M784,496.1c0,0-13.5,14.7-37.8,8.1"/>
								<path class="st45" d="M691.1,402.1l22.9,16.6l27.9-21.6c4.7-3.6,11.4-2.8,15,1.9c3.6,4.7,2.8,11.4-1.9,15l-34.3,26.5
									c-1.9,1.5-4.2,2.2-6.6,2.2c-2.2,0-4.4-0.7-6.3-2l-29.4-21.3C679.8,409.8,691.1,402.1,691.1,402.1z"/>
								<path class="st46" d="M762.3,651.9c0,0-16.3,2.7-29.4,0"/>
								<path class="st46" d="M803.7,651.9c0,0-19.1,2.7-29.9,0"/>
							</g>
							<path class="st40" d="M730.8,432.8l15.4-11.9c0,0-12.6,15.5-16.2,25C730,445.9,730,440.1,730.8,432.8z"/>
							<path class="st40" d="M755.2,390.4c3.7-1.5,7.8-1.7,11.8-1.8c5.7-0.1,11.5-0.1,17.2,0.1c2.2,0.1,4.7,0.3,6.3,1.9
								c0.7,0.8,1.1,1.7,1.4,2.8c0.7,2.9-0.2,5.9-1.2,8.7c-0.8,2.3-1.8,4.6-2.9,6.8c-0.9,1.8-1.9,3.6-3.3,5
								c-1.4,1.4-3.3,2.5-5.3,2.5c-1.4,0-2.8-0.5-4.1-1.1c-7.1-3-13.5-7.7-18.7-13.4C753.7,398.8,749.6,392.7,755.2,390.4z"/>
						</g>
					</g>
				</g>
				<g>
					<g>
						<circle class="st2" cx="648.1" cy="333" r="35.8"/>
						<polygon class="st3" points="658.8,363.6 674.3,376.8 670.5,355 						"/>
					</g>
					<g>
						<path class="st5" d="M649,334.5c-0.2,0.1-0.3,0.1-0.5,0.1c-0.2,0-0.4,0-0.5-0.1L629.7,324c-0.3,0.5-0.4,1-0.4,1.6v16.1
							c0,1.7,1.4,3.1,3.1,3.1h32.4c1.7,0,3.1-1.4,3.1-3.1v-16.1c0-0.4-0.1-0.8-0.2-1.2L649,334.5z"/>
						<path class="st5" d="M648.5,332.4l17.5-9.6c-0.4-0.2-0.8-0.3-1.3-0.3h-32.4c-0.3,0-0.5,0-0.8,0.1L648.5,332.4z"/>
					</g>
					<g>
						<circle class="st3" cx="672" cy="348.9" r="12.5"/>
						<g>
							<path class="st5" d="M674.7,342v15h-3.5v-12.2h-3V342L674.7,342L674.7,342z"/>
						</g>
					</g>
				</g>
			</g>
			<g>
				<g>
					<path class="st8" d="M170.2,677.5l-1.2,6.9c0,0-16-14.5-19.9-22.7l8.2-1.9L170.2,677.5z"/>
					<path class="st8" d="M192.2,683.2l4.2,7.3c0,0,11.5-23.3,10.1-32.4l-4.6-1.6L192.2,683.2z"/>
					<path class="st47" d="M135.2,628c0,0-0.4,26.2,35.2,22.8c35.6-3.4,25.4-29.2,25.4-29.2L135.2,628z"/>
					<path class="st44" d="M171.1,483.5c0,0-14.2-2.1-22.6,13.6c-8.4,15.7,0.7,17.5-12.4,29.3s-11.5,29.9,9.1,30.5
						c20.6,0.6,41.1,11.9,46.9-7.1c0,0,3.9-8.5-1.9-15.8c-5.8-7.3-4.1-13.2-1.9-20.1c2.3-6.9,5.1-14-0.1-19.6
						C183,488.7,171.1,483.5,171.1,483.5z"/>
					<path class="st48" d="M191.9,550.9c0.3,2.2,0.1,4.5-0.3,7.2c-1.8,10.3-2.5,20.8-1.3,31.2c0.9,7.6,2.9,14.9,5.7,22
						c1.8,4.4,3.4,8.3,0.1,12.3c-6.6,8.1-23,10.6-32.6,11.4c-6.1,0.5-26.5,1.1-29.6-7.3c-1-2.7,1.8-9.2,2.2-12.2
						c0.5-4.1,0.8-8.2,0.6-12.4c-0.2-8-1.6-16-4.2-23.5c-3.6-10.7-10.3-20.3-5.3-31.4c5.2-11.3,18-15,29.4-15.6
						c11.5-0.6,25.8,1.2,32.6,11.8C190.8,546.6,191.6,548.7,191.9,550.9z"/>
					<path class="st9" d="M144.1,534.6c4.1-1.3,8.5-1.9,12.6-2.1c4.5-0.2,9.4-0.1,14.2,0.8c1.4,10-5.2,41.1-5.2,41.1
						C160.8,559,144.1,534.7,144.1,534.6z"/>
					<g>
						<path class="st49" d="M169.8,526.2l-1,11.8c0,0-0.6,5.7-9.3,4.6c-8.7-1.1-8.3-9-8.3-9l1.7-19.6L169.8,526.2z"/>
						<path class="st50" d="M154.5,524.1l14.9,6.5l-0.6,6.3C160.4,534.9,154.5,524.1,154.5,524.1z"/>
						<path class="st49" d="M163.9,533l8.1,0.7c6.9,0.6,13.1-4.6,13.7-11.5l2-22.4c0.6-6.9-4.6-13.1-11.5-13.7l-8.1-0.7
							c-6.9-0.6-13.1,4.6-13.7,11.5l-2,22.4C151.8,526.2,157,532.3,163.9,533z"/>
						<path class="st49" d="M149.2,511.4c-0.2,2.3,1.5,4.2,3.7,4.4s4.2-1.5,4.4-3.7c0.2-2.3-1.5-4.2-3.7-4.4
							C151.4,507.4,149.4,509.1,149.2,511.4z"/>
					</g>
					<path class="st44" d="M188.2,494.3c0,0-15.1,16.9-35.9,13.2c0,0-1.7-25.6,18.8-24C171.1,483.5,180.7,483.8,188.2,494.3z"/>
					<path class="st12" d="M97.6,628.4c1.8-6.8,8.4-11.2,15.4-10.4l53.8,6.3c7.8,0.9,13.3,8,12.4,15.8c-0.2,2-0.9,3.9-1.9,5.5
						l26.3,11.6c0,0-3.4,16.6-11.4,26l-86.6-38.1C99.2,642.3,95.8,635.2,97.6,628.4z"/>
					<path class="st12" d="M165.2,646.8c-1.3-1.5-2.2-3.3-2.8-5.3c-2.1-7.5,2.3-15.4,9.8-17.5l49.3-13.9c6.7-1.9,13.8,1.4,16.7,7.7
						c2.9,6.3,0.8,13.9-5,17.7l-63,41.9c0,0-12.7-10.8-15.7-23.6L165.2,646.8z"/>
					<path class="st51" d="M203.6,657.3l-26.3-11.6c0,0-18.6-7.9-33.8-10.3"/>
					<path class="st51" d="M172.8,643.8c0,0,11.6-9.3,36.6-19"/>
					<line class="st51" x1="192.2" y1="683.2" x2="127.3" y2="654.7"/>
					<path class="st52" d="M146.5,562.2c0,0-10.6,27.5,3.3,48.9l-11.5,0.1c0,0-7.8-20.8-5.8-31.7
						C134.6,568.6,146.5,562.2,146.5,562.2z"/>
					<path class="st48" d="M114.7,584.4l12.8-36.6c2.1-5.9,8.6-9,14.5-7c5.9,2.1,9,8.6,7,14.5l-10.7,30.4l21.9,25.6
						c0,0-5.1,7.8-17.3,14.8l-26.2-30.6C114.1,592.5,113.3,588.2,114.7,584.4z"/>
					<path class="st52" d="M174.2,562.9c0,0,9,24.4,2.3,49.4l14-1.5C190.4,610.8,201.7,574.8,174.2,562.9z"/>
					<path class="st48" d="M179.8,609.9l5.3-26l-14-26.7c-2.9-5.6-0.8-12.4,4.8-15.3c5.6-2.9,12.4-0.8,15.3,4.8l15.9,30.3
						c1.2,2.3,1.6,5,1.1,7.5l-6.1,29.9C202.1,614.4,189.1,617.3,179.8,609.9z"/>
					<g>
						<path class="st9" d="M133.6,637.3l76.6-8.4c1.2-0.1,2-1.2,1.9-2.4l-1.3-39.3c-0.1-1.2-1.2-2-2.3-1.9l-82.2,9.1
							c-1.2,0.1-2,1.2-1.9,2.3l6.9,38.7C131.4,636.6,132.4,637.4,133.6,637.3z"/>
						<path class="st2" d="M210.2,628.9l-76.6,8.4c-1.2,0.1-2.2-0.7-2.4-1.9l-6.2-34.7c16.2,8.4,43.4,16.9,86.7,15.7l0.3,10.1
							C212.2,627.7,211.4,628.7,210.2,628.9z"/>
					</g>
				</g>
				<g>
					<g>
						<ellipse class="st2" cx="240.3" cy="535.4" rx="35.8" ry="35.8"/>
						<g>
							<path class="st5" d="M229.9,535.4c0,2.9-2.4,5.3-5.3,5.3c-2.9,0-5.3-2.4-5.3-5.3c0-2.9,2.4-5.3,5.3-5.3
								C227.5,530.1,229.9,532.4,229.9,535.4z"/>
							<path class="st5" d="M245.9,535.4c0,2.9-2.4,5.3-5.3,5.3c-2.9,0-5.3-2.4-5.3-5.3c0-2.9,2.4-5.3,5.3-5.3
								C243.5,530.1,245.9,532.4,245.9,535.4z"/>
							<path class="st5" d="M261.9,535.4c0,2.9-2.4,5.3-5.3,5.3c-2.9,0-5.3-2.4-5.3-5.3c0-2.9,2.4-5.3,5.3-5.3
								C259.5,530.1,261.9,532.4,261.9,535.4z"/>
						</g>
						<polygon class="st3" points="216.5,558.7 212.9,578.8 229.9,564.5 						"/>
					</g>
					<g>
						<path class="st3" d="M276.6,551.3c0,6.9-5.6,12.5-12.5,12.5c-6.9,0-12.5-5.6-12.5-12.5s5.6-12.5,12.5-12.5
							C271,538.8,276.6,544.4,276.6,551.3z"/>
						<g>
							<path class="st5" d="M266.8,544.4v15h-3.5v-12.2h-3v-2.8H266.8z"/>
						</g>
					</g>
				</g>
			</g>
			<g>
				<g>
					<g>
						<polygon class="st2" points="689.8,118.8 574.5,152.4 601.4,160.8 						"/>
						<polygon class="st3" points="601.4,160.8 609,181.4 689.8,118.8 						"/>
						<polygon class="st2" points="603.4,161.9 689.8,118.8 648.1,168.8 						"/>
					</g>
				</g>
				<path class="st53" d="M227.5,291.8c51.4,5.6,106-4.9,146.9-36.7c18.1-14.1,33.7-33.4,36.5-56.2c1.1-9.1-0.6-19.7-8.4-24.7
					c-3.8-2.4-8.5-3.1-13-3c-14.2,0.3-28,7.8-36.1,19.5c-8.1,11.7-10.1,27.3-5.4,40.6c4.8,13.6,16,24.2,28.9,30.6
					c12.9,6.4,27.4,8.8,41.8,9.6c70.4,3.9,141.5-33.3,178.4-93.3"/>
			</g>
		</g>
	</g>
</g>
</svg>
