<?xml version="1.0" encoding="utf-8"?>
<!-- Generator: Adobe Illustrator 27.5.0, SVG Export Plug-In . SVG Version: 6.00 Build 0)  -->
<svg version="1.1" xmlns="http://www.w3.org/2000/svg" xmlns:xlink="http://www.w3.org/1999/xlink" x="0px" y="0px"
	 viewBox="0 0 153 187" style="enable-background:new 0 0 153 187;" xml:space="preserve">
<style type="text/css">
	.st0{opacity:0.2;fill:#FFFFFF;enable-background:new    ;}
	.st1{display:none;}
	.st2{display:inline;}
	.st3{fill:#E0E0E0;}
	.st4{fill:#F5F5F5;}
	.st5{fill:#FF725E;}
	.st6{fill:#263238;}
	.st7{fill:#455A64;}
	.st8{fill:#EBEBEB;}
	.st9{fill:#FFFFFF;}
	.st10{opacity:0.2;}
	.st11{fill:#6F4439;}
	.st12{fill:#FAFAFA;}
	.st13{opacity:0;}
</style>
<g id="Layer_1">
	<g>
		<g id="Mask-_x2B_-Mask-Mask" transform="translate(14.000000, 0.000000)">
			<g id="Mask">
			</g>
			<g id="Mask_1_">
				<path class="st0" d="M138,141.2c-3.6,0.5-7.3,0.8-11,0.8c-29.6,0-55.4-16.5-68.6-40.9c-6-11-9.4-23.7-9.4-37.1
					c0-26.5,13.2-49.9,33.4-64H138v129.5"/>
			</g>
			<g id="Mask_2_">
				<path class="st0" d="M138,141.2V187H-15c0.2-43.3,31.9-79.1,73.4-85.9c4.6-0.8,9.3-1.1,14.1-1.1c26.1,0,49.5,11.4,65.5,29.5"/>
			</g>
		</g>
	</g>
</g>
<g id="Layer_2" class="st1">
	<g class="st2">
		<g id="Background_Complete">
			<g>
				<g>
					<g>
						<path class="st3" d="M76.8,31.2c1.6-1,3.3-1.7,5.2-2.2l1.1-5.1l8.6-0.2l1.2,5c1.8,0.4,3.5,1.1,5.2,2l4.3-2.8l6.2,6l-2.7,4.4
							c1,1.6,1.7,3.3,2.2,5.2l5.1,1.1l0.2,8.6l-5,1.2c-0.4,1.8-1.1,3.5-2,5.2l2.8,4.4l-6,6.2l-4.4-2.7c-1.6,1-3.3,1.7-5.2,2.2
							l-1.1,5.1l-8.6,0.2l-1.2-5c-1.8-0.4-3.5-1.1-5.2-2l-4.4,2.8l-6.2-6l2.7-4.4c-1-1.6-1.7-3.3-2.2-5.2l-5.1-1.1l-0.2-8.6l5-1.2
							c0.4-1.8,1.1-3.5,2-5.2l-2.8-4.4l6-6.2L76.8,31.2L76.8,31.2z M81.4,42.7c-3.5,3.7-3.4,9.5,0.2,13.1c3.7,3.5,9.5,3.4,13.1-0.2
							c3.5-3.7,3.4-9.5-0.2-13.1C90.7,38.9,84.9,39,81.4,42.7z"/>
					</g>
				</g>
			</g>
			<g>
				<g>
					<g>
						<path class="st4" d="M37.8,21c1-0.6,2.1-1.1,3.3-1.4l0.7-3.2l5.5-0.1l0.8,3.2c1.1,0.3,2.2,0.7,3.3,1.3l2.8-1.8l3.9,3.8
							l-1.7,2.8c0.6,1,1.1,2.1,1.4,3.3l3.2,0.7L61,35l-3.2,0.8c-0.3,1.1-0.7,2.2-1.3,3.3l1.8,2.8l-3.8,3.9l-2.8-1.7
							c-1,0.6-2.1,1.1-3.3,1.4l-0.7,3.2l-5.5,0.1l-0.8-3.2c-1.1-0.3-2.2-0.7-3.3-1.3l-2.8,1.8l-3.9-3.8l1.7-2.8
							c-0.6-1-1.1-2.1-1.4-3.3l-3.2-0.7l-0.1-5.5l3.2-0.8c0.3-1.1,0.7-2.2,1.3-3.3l-1.8-2.8l3.8-3.9L37.8,21L37.8,21z M40.7,28.3
							c-2.2,2.3-2.2,6,0.2,8.3c2.3,2.2,6,2.2,8.3-0.2s2.2-6-0.2-8.3C46.7,25.9,43,26,40.7,28.3z"/>
					</g>
				</g>
			</g>
			<g>
				<g>
					<g>
						<path class="st4" d="M227,90.7c1.1-0.7,2.2-1.1,3.4-1.5l0.7-3.4l5.7-0.1l0.8,3.4c1.2,0.3,2.4,0.7,3.5,1.4l2.9-1.9l4.1,4
							l-1.8,2.9c0.7,1.1,1.1,2.2,1.5,3.4l3.4,0.7l0.1,5.7l-3.4,0.8c-0.3,1.2-0.7,2.4-1.4,3.5l1.9,2.9l-4,4.1l-2.9-1.8
							c-1.1,0.7-2.2,1.1-3.4,1.5l-0.7,3.4l-5.7,0.1l-0.8-3.4c-1.2-0.3-2.4-0.7-3.5-1.4l-2.9,1.9l-4.1-4l1.8-2.9
							c-0.7-1.1-1.1-2.2-1.5-3.4l-3.4-0.7l-0.1-5.7l3.4-0.8c0.3-1.2,0.7-2.4,1.4-3.5l-1.9-2.9l4-4.1L227,90.7L227,90.7z M230.1,98.3
							c-2.4,2.4-2.3,6.3,0.2,8.7c2.4,2.4,6.3,2.3,8.7-0.2c2.4-2.4,2.3-6.3-0.2-8.7C236.3,95.8,232.4,95.9,230.1,98.3z"/>
					</g>
				</g>
			</g>
			<g>
				<g>
					<g>
						<path class="st3" d="M11.4,63.3c1.2-0.7,2.4-1.3,3.7-1.6l0.8-3.7l6.3-0.1l0.9,3.7c1.3,0.3,2.6,0.8,3.8,1.5l3.1-2.1l4.5,4.3
							l-2,3.2c0.7,1.2,1.3,2.4,1.6,3.7l3.7,0.8l0.1,6.3l-3.7,0.9c-0.3,1.3-0.8,2.6-1.5,3.8l2.1,3.1l-4.3,4.5l-3.2-2
							c-1.2,0.7-2.4,1.3-3.7,1.6l-0.8,3.7L16.6,95l-0.9-3.7c-1.3-0.3-2.6-0.8-3.8-1.5l-3.1,2.1l-4.5-4.3l2-3.2
							c-0.7-1.2-1.3-2.4-1.6-3.7l-3.7-0.8l-0.2-6.2l3.7-0.9c0.3-1.3,0.8-2.6,1.5-3.8l-2.1-3.1l4.3-4.5L11.4,63.3L11.4,63.3z
							 M14.7,71.6c-2.6,2.7-2.5,6.9,0.2,9.5c2.7,2.6,6.9,2.5,9.5-0.2c2.6-2.7,2.5-6.9-0.2-9.5C21.5,68.8,17.3,68.9,14.7,71.6z"/>
					</g>
				</g>
			</g>
		</g>
		<g id="Floor">
			<g>
				<g>
					<path class="st5" d="M-8.5,172.9c86.4,0,172.7,0,259.1,0"/>
				</g>
				<g>
					<g>
						<path class="st6" d="M250.6,172.9c0,0-58,0.1-129.5,0.1s-129.5,0-129.5-0.1s58-0.1,129.5-0.1
							C192.5,172.8,250.6,172.9,250.6,172.9z"/>
					</g>
				</g>
			</g>
		</g>
		<g id="Plant">
			<g>
				<g>
					<g>
						<g>
							<path class="st7" d="M224,130.3c-0.7-2.6-2.8-3.9-5-3.9c-2,0.4-2.8,2.5-2.9,4.6c-0.2,2.1,0.6,4.1,1.3,6.1
								c2.3,6.3,4.6,12.6,6.9,18.9c1.9-0.3,3.9-0.6,5.7-0.9C227.8,146.6,226.5,138.7,224,130.3z"/>
						</g>
					</g>
					<g>
						<g>
							<g>
								<path class="st6" d="M219.1,126.2c0,0-0.3,0.3-0.7,1c-0.4,0.7-0.7,1.7-0.7,3.1c0,1.3,0.3,2.9,0.9,4.6s1.2,3.6,1.9,5.5
									c1.3,3.9,2.5,7.5,3.4,10.1c0.4,1.3,0.7,2.3,1,3.1c0.1,0.4,0.2,0.6,0.3,0.8c0,0.2,0.1,0.3,0.1,0.3c0,0,0-0.1-0.1-0.3
									c-0.1-0.2-0.2-0.5-0.3-0.8c-0.3-0.7-0.6-1.8-1.1-3c-0.9-2.6-2.1-6.1-3.4-10c-0.7-2-1.3-3.8-1.8-5.5
									c-0.6-1.7-0.9-3.3-0.9-4.7s0.4-2.4,0.8-3.1C218.7,126.5,219.1,126.2,219.1,126.2z"/>
							</g>
						</g>
					</g>
					<g>
						<g>
							<g>
								<path class="st6" d="M228.7,154.5c0,0,0-0.1-0.2-0.3c-0.1-0.2-0.2-0.4-0.4-0.8c-0.3-0.7-0.7-1.7-1.1-3
									c-0.4-1.3-0.9-2.9-1.3-4.6s-0.9-3.7-1.3-5.7c-0.5-2-1-3.9-1.6-5.6c-0.6-1.7-1.2-3.2-1.8-4.4c-0.6-1.2-1.2-2.1-1.7-2.8
									c-0.2-0.3-0.4-0.6-0.5-0.7c-0.1-0.2-0.2-0.2-0.2-0.2c0,0,0.1,0.1,0.2,0.2c0.1,0.2,0.3,0.4,0.6,0.7c0.5,0.6,1.1,1.5,1.7,2.7
									c0.7,1.2,1.3,2.7,1.9,4.4c0.6,1.7,1.1,3.6,1.6,5.7c0.5,2,0.9,4,1.3,5.7c0.4,1.8,0.8,3.3,1.2,4.6c0.4,1.3,0.8,2.3,1.1,3
									c0.1,0.4,0.2,0.6,0.3,0.8C228.7,154.4,228.7,154.5,228.7,154.5z"/>
							</g>
						</g>
					</g>
					<g>
						<g>
							<g>
								<path class="st6" d="M217.4,136.1c0,0-0.3,0.2-0.7,0.3c-0.4,0.1-0.7,0.2-0.7,0.1s0.3-0.2,0.7-0.3
									C217.1,136.1,217.4,136,217.4,136.1z"/>
							</g>
						</g>
					</g>
					<g>
						<g>
							<g>
								<path class="st6" d="M216.6,132.1c0,0.1-0.4,0.1-1,0.2c-0.6,0-1,0.1-1,0c0,0,0.4-0.2,1-0.2
									C216.2,132.1,216.6,132.1,216.6,132.1z"/>
							</g>
						</g>
					</g>
					<g>
						<g>
							<g>
								<path class="st6" d="M217.1,128.5c0,0-0.4-0.2-0.7-0.4c-0.4-0.3-0.6-0.6-0.6-0.6s0.4,0.2,0.7,0.4
									C217,128.2,217.2,128.5,217.1,128.5z"/>
							</g>
						</g>
					</g>
					<g>
						<g>
							<g>
								<path class="st6" d="M218.8,125.1c0.1,0,0,0.3,0.1,0.6c0,0.4,0,0.6,0,0.6s-0.2-0.3-0.2-0.6
									C218.6,125.4,218.7,125.1,218.8,125.1z"/>
							</g>
						</g>
					</g>
					<g>
						<g>
							<g>
								<path class="st6" d="M222.5,126.6c0,0-0.1,0.3-0.3,0.7c-0.2,0.3-0.4,0.6-0.5,0.6c0,0,0.1-0.3,0.3-0.7
									C222.2,126.8,222.4,126.5,222.5,126.6z"/>
							</g>
						</g>
					</g>
					<g>
						<g>
							<g>
								<path class="st6" d="M225,130.5c0,0-0.3,0.2-0.7,0.4c-0.4,0.2-0.7,0.3-0.7,0.2c0,0,0.3-0.2,0.7-0.4
									C224.6,130.6,224.9,130.4,225,130.5z"/>
							</g>
						</g>
					</g>
					<g>
						<g>
							<g>
								<path class="st6" d="M226.5,134.7c0,0-0.4,0.3-0.9,0.4c-0.6,0.2-1,0.1-1,0.1c0-0.1,0.4-0.2,0.9-0.3
									C226.1,134.7,226.5,134.6,226.5,134.7z"/>
							</g>
						</g>
					</g>
					<g>
						<g>
							<g>
								<path class="st6" d="M220,133.7c0,0,0-0.3,0.1-0.7c0.1-0.4,0.2-0.6,0.3-0.6c0,0,0,0.3-0.1,0.7
									C220.2,133.5,220.1,133.7,220,133.7z"/>
							</g>
						</g>
					</g>
					<g>
						<g>
							<g>
								<path class="st6" d="M221.1,138.9c0,0,0-0.4,0.2-0.9c0.2-0.5,0.4-0.8,0.4-0.8s0,0.4-0.2,0.9
									C221.4,138.6,221.2,138.9,221.1,138.9z"/>
							</g>
						</g>
					</g>
					<g>
						<g>
							<g>
								<path class="st6" d="M218.9,140.5c0,0-0.4,0-0.8-0.2s-0.8-0.2-0.8-0.3c0,0,0.4,0,0.9,0.1C218.6,140.2,219,140.4,218.9,140.5
									z"/>
							</g>
						</g>
					</g>
					<g>
						<g>
							<g>
								<path class="st6" d="M220.4,144.7c0,0-0.2,0.3-0.6,0.6c-0.3,0.3-0.6,0.4-0.7,0.4c0,0,0.2-0.3,0.6-0.6
									S220.3,144.6,220.4,144.7z"/>
							</g>
						</g>
					</g>
					<g>
						<g>
							<g>
								<path class="st6" d="M221.6,148.9c0,0-0.3,0.2-0.7,0.3c-0.4,0.1-0.7,0.2-0.7,0.1c0,0,0.3-0.2,0.7-0.3
									C221.2,148.9,221.6,148.8,221.6,148.9z"/>
							</g>
						</g>
					</g>
					<g>
						<g>
							<g>
								<path class="st6" d="M226.8,138.2c0,0-0.2,0.3-0.6,0.4c-0.4,0.2-0.7,0.2-0.7,0.1c0,0,0.3-0.2,0.6-0.3
									C226.5,138.3,226.8,138.2,226.8,138.2z"/>
							</g>
						</g>
					</g>
					<g>
						<g>
							<g>
								<path class="st6" d="M227.9,144.8c0,0-0.4,0-0.7-0.2c-0.4-0.2-0.6-0.3-0.6-0.4s0.4,0,0.7,0.2
									C227.6,144.6,227.9,144.8,227.9,144.8z"/>
							</g>
						</g>
					</g>
					<g>
						<g>
							<g>
								<path class="st6" d="M229.5,149.5c0,0-0.4,0-0.9-0.2c-0.5-0.2-0.9-0.4-0.9-0.4s0.4,0,0.9,0.2
									C229.1,149.3,229.5,149.4,229.5,149.5z"/>
							</g>
						</g>
					</g>
					<g>
						<g>
							<g>
								<path class="st6" d="M222,153.5c0,0,0.4-0.3,0.7-0.7c0.4-0.4,0.7-0.7,0.8-0.6s-0.2,0.4-0.7,0.8
									C222.5,153.4,222,153.6,222,153.5z"/>
							</g>
						</g>
					</g>
					<g>
						<g>
							<g>
								<path class="st6" d="M225.7,151c-0.1,0-0.2-0.3-0.3-0.7c-0.2-0.4-0.3-0.7-0.3-0.7c0,0,0.3,0.2,0.5,0.6
									C225.7,150.6,225.7,151,225.7,151z"/>
							</g>
						</g>
					</g>
					<g>
						<g>
							<g>
								<path class="st6" d="M224.5,145.3c0,0-0.3,0-0.6-0.2c-0.3-0.2-0.5-0.4-0.4-0.4c0,0,0.3,0,0.6,0.2
									C224.3,145.1,224.5,145.2,224.5,145.3z"/>
							</g>
						</g>
					</g>
					<g>
						<g>
							<g>
								<path class="st6" d="M228.7,140.6c0,0-0.3,0.2-0.7,0.2c-0.4,0-0.8,0-0.8-0.1c0-0.1,0.4-0.1,0.8-0.2
									C228.3,140.6,228.7,140.5,228.7,140.6z"/>
							</g>
						</g>
					</g>
					<g>
						<g>
							<g>
								<path class="st6" d="M229,137.1c0,0-0.4,0.1-0.7-0.1s-0.6-0.4-0.6-0.5s0.3,0.1,0.7,0.3S229,137.1,229,137.1z"/>
							</g>
						</g>
					</g>
					<g>
						<g>
							<g>
								<path class="st6" d="M229.7,146.5c0,0-0.3,0.1-0.7,0c-0.4,0-0.6-0.1-0.6-0.2c0-0.1,0.3-0.1,0.7,0
									C229.4,146.4,229.7,146.5,229.7,146.5z"/>
							</g>
						</g>
					</g>
				</g>
				<g>
					<g>
						<g>
							<g>
								<path class="st6" d="M240.3,140.2c0,0-0.3-0.2-0.6-0.5c-0.3-0.3-0.6-0.6-0.5-0.6c0,0,0.3,0.2,0.6,0.5
									C240.1,139.9,240.3,140.2,240.3,140.2z"/>
							</g>
						</g>
					</g>
					<g>
						<g>
							<g>
								<path class="st7" d="M250.8,127.2c0.2-1.3,0.4-2.6,0-3.9c-0.3-1.3-1.1-2.5-2.4-2.9c-1.4-0.4-3,0.4-3.9,1.5
									c-0.9,1.2-1.3,2.6-1.7,4.1c-2.6,9.9-4.2,20.1-4.7,30.4l5.9,1.4C247.7,147.4,249.3,138.2,250.8,127.2z"/>
							</g>
						</g>
						<g>
							<g>
								<g>
									<path class="st6" d="M247.7,120.3C247.7,120.3,247.7,120.4,247.7,120.3c-0.1,0.2-0.1,0.2-0.2,0.4c-0.1,0.2-0.3,0.6-0.5,1
										c-0.1,0.2-0.2,0.4-0.4,0.7c-0.1,0.3-0.2,0.6-0.4,0.9c-0.1,0.3-0.3,0.6-0.4,1c-0.1,0.4-0.3,0.7-0.4,1.1
										c-0.6,1.6-1.2,3.6-1.7,5.8c-0.6,2.2-1,4.6-1.4,7.2c-0.8,5.2-1.3,9.9-1.7,13.3c-0.2,1.7-0.4,3.1-0.6,4
										c-0.1,0.5-0.1,0.8-0.2,1.1c0,0.1,0,0.2,0,0.3c0,0.1,0,0.1,0,0.1s0,0,0-0.1c0-0.1,0-0.2,0-0.3c0-0.3,0.1-0.6,0.2-1.1
										c0.1-0.9,0.3-2.3,0.5-4c0.4-3.4,0.9-8.1,1.7-13.3c0.4-2.6,0.9-5,1.4-7.2c0.6-2.2,1.1-4.2,1.7-5.8c0.2-0.4,0.3-0.8,0.4-1.1
										c0.2-0.4,0.3-0.7,0.4-1c0.2-0.3,0.3-0.6,0.4-0.9c0.1-0.3,0.3-0.5,0.4-0.7c0.2-0.4,0.4-0.7,0.5-1
										C247.5,120.5,247.6,120.5,247.7,120.3C247.7,120.4,247.7,120.3,247.7,120.3z"/>
								</g>
							</g>
						</g>
						<g>
							<g>
								<g>
									<path class="st6" d="M248.2,120.4c0,0,0.3,0.4,0.6,1.3c0.3,0.9,0.4,2.2,0.2,3.9c-0.5,3.3-1.2,7.7-2,12.7
										c-0.9,5-1.7,9.4-2.4,12.7c-0.3,1.6-0.6,2.9-0.8,3.8c-0.1,0.4-0.2,0.8-0.2,1c0,0.1,0,0.2-0.1,0.3c0,0.1,0,0.1,0,0.1
										s0,0,0-0.1c0-0.1,0-0.2,0-0.3c0-0.3,0.1-0.6,0.2-1.1c0.2-0.9,0.4-2.2,0.7-3.8c0.6-3.2,1.5-7.7,2.3-12.7
										c0.9-5,1.6-9.4,2.1-12.7c0.2-1.6,0.2-3-0.1-3.9C248.5,120.9,248.2,120.4,248.2,120.4z"/>
								</g>
							</g>
						</g>
						<g>
							<g>
								<g>
									<path class="st6" d="M250.9,136.1c0,0-0.5-0.1-1.1-0.4s-1-0.6-1-0.6c0,0,0.5,0.1,1.1,0.4
										C250.5,135.8,251,136.1,250.9,136.1z"/>
								</g>
							</g>
						</g>
						<g>
							<g>
								<g>
									<path class="st6" d="M252.2,130.2c0,0-0.5,0.3-1.1,0.5c-0.6,0.2-1.2,0.4-1.2,0.3c0,0,0.5-0.3,1.1-0.5
										C251.6,130.3,252.2,130.1,252.2,130.2z"/>
								</g>
							</g>
						</g>
						<g>
							<g>
								<g>
									<path class="st6" d="M252.3,125.2c0,0-0.4,0-0.9,0c-0.5-0.1-0.9-0.2-0.9-0.2s0.4,0,0.9,0
										C251.9,125,252.3,125.1,252.3,125.2z"/>
								</g>
							</g>
						</g>
						<g>
							<g>
								<g>
									<path class="st6" d="M246.5,121.4c0,0-0.3-0.3-0.5-0.8c-0.2-0.5-0.4-0.9-0.3-0.9c0,0,0.3,0.3,0.5,0.8
										C246.4,121,246.5,121.4,246.5,121.4z"/>
								</g>
							</g>
						</g>
						<g>
							<g>
								<g>
									<path class="st6" d="M244.2,124.2c0,0-0.4,0.1-0.9,0c-0.5,0-0.8-0.2-0.8-0.2c0,0,0.4-0.1,0.9,0
										C243.8,124.1,244.2,124.2,244.2,124.2z"/>
								</g>
							</g>
						</g>
						<g>
							<g>
								<g>
									<path class="st6" d="M242.2,130.1c0,0-0.4-0.1-0.9-0.3c-0.4-0.2-0.8-0.5-0.7-0.5c0,0,0.4,0.1,0.9,0.3
										C241.8,129.8,242.2,130,242.2,130.1z"/>
								</g>
							</g>
						</g>
						<g>
							<g>
								<g>
									<path class="st6" d="M241.5,135.1c0,0-0.4,0.2-0.8,0.2c-0.4,0-0.8,0-0.8,0c0,0,0.4-0.2,0.8-0.2
										C241.2,135,241.5,135,241.5,135.1z"/>
								</g>
							</g>
						</g>
						<g>
							<g>
								<g>
									<path class="st6" d="M240.1,143.2c0,0-0.4,0.1-0.8,0.2s-0.8,0-0.8,0c0,0,0.4-0.1,0.8-0.2S240.1,143.2,240.1,143.2z"/>
								</g>
							</g>
						</g>
						<g>
							<g>
								<g>
									<path class="st6" d="M239.2,147.7c0,0-0.3,0.2-0.7,0.4c-0.4,0.2-0.8,0.3-0.8,0.2s0.3-0.2,0.7-0.4
										C238.8,147.8,239.2,147.7,239.2,147.7z"/>
								</g>
							</g>
						</g>
						<g>
							<g>
								<g>
									<path class="st6" d="M242.4,153.3c0,0-0.3-0.4-0.5-0.9c-0.2-0.5-0.4-0.9-0.3-0.9c0,0,0.3,0.4,0.5,0.9
										C242.3,152.8,242.5,153.2,242.4,153.3z"/>
								</g>
							</g>
						</g>
						<g>
							<g>
								<g>
									<path class="st6" d="M244.3,144.8c0,0-0.3,0.4-0.7,0.7s-0.8,0.6-0.9,0.6c0,0,0.3-0.4,0.7-0.7S244.2,144.7,244.3,144.8z"/>
								</g>
							</g>
						</g>
						<g>
							<g>
								<g>
									<path class="st6" d="M244.5,140.3c0,0-0.3-0.2-0.6-0.6c-0.3-0.4-0.4-0.6-0.4-0.7s0.3,0.2,0.6,0.6
										C244.3,139.9,244.5,140.2,244.5,140.3z"/>
								</g>
							</g>
						</g>
						<g>
							<g>
								<g>
									<path class="st6" d="M245.7,134.6c0,0-0.2,0.4-0.6,0.7c-0.4,0.4-0.7,0.6-0.7,0.6c0,0,0.2-0.4,0.6-0.7
										C245.3,134.8,245.7,134.6,245.7,134.6z"/>
								</g>
							</g>
						</g>
						<g>
							<g>
								<g>
									<path class="st6" d="M246.6,130.5c0,0-0.4-0.3-0.7-0.7s-0.6-0.7-0.6-0.8c0,0,0.4,0.3,0.7,0.7
										C246.4,130.1,246.6,130.4,246.6,130.5z"/>
								</g>
							</g>
						</g>
						<g>
							<g>
								<g>
									<path class="st6" d="M247.9,124.9c0,0-0.2,0.4-0.5,0.8c-0.3,0.4-0.6,0.7-0.6,0.7c0,0,0.2-0.4,0.5-0.8
										C247.5,125.2,247.9,124.9,247.9,124.9z"/>
								</g>
							</g>
						</g>
						<g>
							<g>
								<g>
									<path class="st6" d="M249.9,119.9c0,0-0.1,0.4-0.4,0.8c-0.3,0.4-0.6,0.7-0.6,0.7c0,0,0.1-0.4,0.4-0.8
										C249.6,120.1,249.9,119.8,249.9,119.9z"/>
								</g>
							</g>
						</g>
						<g>
							<g>
								<g>
									<path class="st6" d="M251.4,122.4c0,0-0.2,0.2-0.6,0.3c-0.3,0.1-0.6,0.2-0.6,0.1s0.2-0.2,0.6-0.3
										C251.1,122.4,251.4,122.3,251.4,122.4z"/>
								</g>
							</g>
						</g>
						<g>
							<g>
								<g>
									<path class="st6" d="M249.7,141.1c0,0-0.6-0.1-1.1-0.4c-0.6-0.3-1-0.7-0.9-0.7c0,0,0.5,0.2,1.1,0.6
										C249.2,140.9,249.7,141.1,249.7,141.1z"/>
								</g>
							</g>
						</g>
						<g>
							<g>
								<g>
									<path class="st6" d="M248.6,145c0,0-0.4,0.2-0.8,0.2c-0.5,0-0.8,0-0.8,0c0,0,0.4-0.2,0.8-0.2
										C248.2,145,248.6,145,248.6,145z"/>
								</g>
							</g>
						</g>
						<g>
							<g>
								<g>
									<path class="st6" d="M247.1,151.7c0,0-0.5-0.3-0.8-0.9c-0.4-0.6-0.5-1.1-0.5-1.1c0,0,0.3,0.5,0.6,1
										C246.8,151.3,247.1,151.7,247.1,151.7z"/>
								</g>
							</g>
						</g>
						<g>
							<g>
								<g>
									<path class="st6" d="M237.3,154c0,0,0.2-0.3,0.6-0.6c0.4-0.2,0.7-0.4,0.7-0.4c0,0-0.2,0.3-0.6,0.6
										C237.6,153.8,237.3,154,237.3,154z"/>
								</g>
							</g>
						</g>
					</g>
				</g>
				<g>
					<g>
						<path class="st7" d="M236.1,136c-0.2-1.4-0.8-3.1-2.2-3.4c-0.9-0.1-1.7,0.4-2.2,1.1c-0.5,0.7-0.8,1.5-0.9,2.4
							c-0.7,5.6-0.6,12.2,0.5,18.3l5.2,0.8C237.3,148.7,237.1,142.5,236.1,136z"/>
					</g>
				</g>
				<g>
					<g>
						<g>
							<path class="st6" d="M233.8,132.6c0,0-0.2,0.2-0.6,0.7c-0.3,0.5-0.5,1.3-0.6,2.3c0,1-0.1,2.2-0.1,3.6c0,1.3,0,2.8,0.1,4.4
								c0.2,3.1,0.4,5.9,0.6,7.9c0.1,1,0.1,1.8,0.1,2.4c0,0.3,0,0.5,0,0.7c0,0.2,0,0.2,0,0.2s0-0.1,0-0.2c0-0.2,0-0.4-0.1-0.7
								c0-0.6-0.1-1.4-0.2-2.4c-0.2-2-0.5-4.8-0.6-7.9c-0.1-1.5-0.1-3,0-4.4c0-0.7,0-1.3,0.1-1.9c0-0.6,0-1.1,0.1-1.7
								c0.1-1,0.4-1.8,0.7-2.3C233.5,132.8,233.8,132.6,233.8,132.6z"/>
						</g>
					</g>
				</g>
				<g>
					<g>
						<g>
							<path class="st6" d="M236.5,134.3c0,0-0.3,0.3-0.7,0.5c-0.4,0.2-0.7,0.4-0.8,0.3c0,0,0.3-0.3,0.7-0.5
								C236.1,134.3,236.5,134.2,236.5,134.3z"/>
						</g>
					</g>
				</g>
				<g>
					<g>
						<g>
							<path class="st6" d="M237.4,138.5c0,0.1-0.4,0.1-0.9,0c-0.5-0.1-0.9-0.4-0.8-0.4c0-0.1,0.4,0.1,0.9,0.2
								C237,138.4,237.4,138.5,237.4,138.5z"/>
						</g>
					</g>
				</g>
				<g>
					<g>
						<g>
							<path class="st6" d="M237.4,143c0,0-0.4-0.2-0.8-0.6c-0.4-0.4-0.7-0.7-0.7-0.7c0,0,0.4,0.2,0.8,0.6
								C237.1,142.6,237.4,142.9,237.4,143z"/>
						</g>
					</g>
				</g>
				<g>
					<g>
						<g>
							<rect x="219.3" y="152.6" class="st5" width="30.3" height="5.4"/>
						</g>
					</g>
					<g>
						<g>
							<polygon class="st5" points="221.6,156.9 225.2,172.9 243.3,172.9 247.3,156.9 							"/>
						</g>
					</g>
					<g>
						<g>
							<g>
								<path class="st6" d="M249.6,158c0,0-6.8,0.1-15.3,0.1c-8.4,0-15.3,0-15.3-0.1c0,0,6.8-0.1,15.3-0.1S249.6,157.9,249.6,158z"
									/>
							</g>
						</g>
					</g>
				</g>
				<g>
					<g>
						<g>
							<path class="st6" d="M234.4,139.1c-0.1,0-0.2-0.3-0.4-0.7c-0.2-0.4-0.3-0.7-0.2-0.8c0.1,0,0.2,0.3,0.4,0.7
								C234.4,138.8,234.5,139.1,234.4,139.1z"/>
						</g>
					</g>
				</g>
				<g>
					<g>
						<g>
							<path class="st6" d="M233.7,144c-0.1,0,0.1-0.4,0.3-0.9c0.2-0.5,0.5-0.8,0.5-0.8c0.1,0-0.1,0.4-0.3,0.9
								C234.1,143.7,233.8,144.1,233.7,144z"/>
						</g>
					</g>
				</g>
				<g>
					<g>
						<g>
							<path class="st6" d="M234.6,149.4c-0.1,0-0.3-0.4-0.4-1c-0.2-0.6-0.3-1.1-0.2-1.1s0.3,0.4,0.4,1
								C234.6,148.8,234.7,149.4,234.6,149.4z"/>
						</g>
					</g>
				</g>
				<g>
					<g>
						<g>
							<path class="st6" d="M229.3,151.6c0,0,0.2-0.3,0.6-0.6c0.4-0.3,0.7-0.5,0.7-0.4c0,0-0.2,0.3-0.6,0.6
								C229.7,151.4,229.4,151.6,229.3,151.6z"/>
						</g>
					</g>
				</g>
			</g>
		</g>
		<g id="Character_2">
			<g id="Device">
				<g>
					<g>
						<g>
							<g>
								<g>
									<g>
										<g>
											<g>
												<g>
													<g>
														<g>
															<path class="st7" d="M206.7,170.2H39.4c-3.1,0-5.7-2.6-5.7-5.7V57.7c0-3.1,2.6-5.7,5.7-5.7h167.4
																c3.1,0,5.7,2.6,5.7,5.7v106.8C212.5,167.7,209.9,170.2,206.7,170.2z"/>
														</g>
													</g>
												</g>
											</g>
										</g>
										<g>
											<g>
												<g>
													<g>
														<g>
															<path class="st7" d="M213.4,172.9H33.6c-3.9,0-7-3.1-7-7v-3.3h193.8v3.3C220.4,169.8,217.3,172.9,213.4,172.9z"/>
														</g>
													</g>
												</g>
											</g>
										</g>
										<g>
											<g>
												<g>
													<g>
														<g>
															<polygon class="st6" points="105.4,161.5 107.8,165.3 141.7,165.3 143.9,161.5 															"/>
														</g>
													</g>
												</g>
											</g>
										</g>
									</g>
									<g>
										<g>
											<g>
												<g>
													<g>
														<g>
															<g>
																<g>
																	<g>
																		<path class="st8" d="M202.8,156.2H43.2c-0.7,0-1.3-0.6-1.3-1.3V61.3c0-0.7,0.6-1.3,1.3-1.3h159.5
																			c0.7,0,1.3,0.6,1.3,1.3v93.6C204,155.6,203.5,156.2,202.8,156.2z"/>
																	</g>
																</g>
															</g>
														</g>
													</g>
												</g>
												<g>
													<g>
														<g>
															<g>
																<g>
																	<g>
																		<polygon class="st9" points="203.9,156.4 41.7,156.4 41.9,67.2 203.9,67.2 																		"/>
																	</g>
																</g>
															</g>
														</g>
													</g>
												</g>
												<g>
													<g>
														<g>
															<g>
																<g>
																	<g>
																		<path class="st6" d="M55.2,63.8c0,0.7-0.6,1.3-1.3,1.3s-1.3-0.6-1.3-1.3c0-0.7,0.6-1.3,1.3-1.3
																			S55.2,63.1,55.2,63.8z"/>
																	</g>
																</g>
															</g>
														</g>
													</g>
												</g>
												<g>
													<g>
														<g>
															<g>
																<g>
																	<g>
																		<path class="st6" d="M47.3,63.8c0,0.7-0.6,1.3-1.3,1.3s-1.3-0.6-1.3-1.3c0-0.7,0.6-1.3,1.3-1.3
																			C46.8,62.5,47.3,63.1,47.3,63.8z"/>
																	</g>
																</g>
															</g>
														</g>
													</g>
												</g>
												<g>
													<g>
														<g>
															<g>
																<g>
																	<g>
																		<path class="st6" d="M51.1,63.8c0,0.7-0.6,1.3-1.3,1.3c-0.7,0-1.3-0.6-1.3-1.3c0-0.7,0.6-1.3,1.3-1.3
																			C50.5,62.5,51.1,63.1,51.1,63.8z"/>
																	</g>
																</g>
															</g>
														</g>
													</g>
												</g>
											</g>
										</g>
									</g>
									<g>
										<g>
											<g>
												<g>
													<g>
														<path class="st6" d="M210.9,161.5c0,0.1-39.7,0.1-88.7,0.1s-88.7,0-88.7-0.1s39.7-0.1,88.7-0.1
															C171.2,161.3,210.9,161.4,210.9,161.5z"/>
													</g>
												</g>
											</g>
										</g>
									</g>
								</g>
							</g>
						</g>
					</g>
					<g>
						<g>
							<path class="st3" d="M180.5,146.5h-2.4c-0.1,0-0.2-0.1-0.2-0.2s0.1-0.2,0.2-0.2h2.2V144c0-0.1,0.1-0.2,0.2-0.2
								s0.2,0.1,0.2,0.2v2.4C180.7,146.4,180.7,146.5,180.5,146.5z"/>
						</g>
						<g>
							<path class="st3" d="M173.6,146.5H169c-0.1,0-0.2-0.1-0.2-0.2s0.1-0.2,0.2-0.2h4.6c0.1,0,0.2,0.1,0.2,0.2
								S173.7,146.5,173.6,146.5z M164.4,146.5h-4.6c-0.1,0-0.2-0.1-0.2-0.2s0.1-0.2,0.2-0.2h4.6c0.1,0,0.2,0.1,0.2,0.2
								S164.5,146.5,164.4,146.5z M155.3,146.5h-4.6c-0.1,0-0.2-0.1-0.2-0.2s0.1-0.2,0.2-0.2h4.6c0.1,0,0.2,0.1,0.2,0.2
								S155.4,146.5,155.3,146.5z M146.1,146.5h-4.6c-0.1,0-0.2-0.1-0.2-0.2s0.1-0.2,0.2-0.2h4.6c0.1,0,0.2,0.1,0.2,0.2
								S146.2,146.5,146.1,146.5z"/>
						</g>
						<g>
							<path class="st3" d="M136.9,146.5h-2.4c-0.1,0-0.2-0.1-0.2-0.2V144c0-0.1,0.1-0.2,0.2-0.2c0.1,0,0.2,0.1,0.2,0.2v2.2h2.2
								c0.1,0,0.2,0.1,0.2,0.2S137,146.5,136.9,146.5z"/>
						</g>
						<g>
							<path class="st3" d="M134.5,139.3c-0.1,0-0.2-0.1-0.2-0.2v-4.9c0-0.1,0.1-0.2,0.2-0.2c0.1,0,0.2,0.1,0.2,0.2v4.9
								C134.7,139.2,134.7,139.3,134.5,139.3z M134.5,129.4c-0.1,0-0.2-0.1-0.2-0.2v-4.9c0-0.1,0.1-0.2,0.2-0.2
								c0.1,0,0.2,0.1,0.2,0.2v4.9C134.7,129.3,134.7,129.4,134.5,129.4z M134.5,119.6c-0.1,0-0.2-0.1-0.2-0.2v-4.9
								c0-0.1,0.1-0.2,0.2-0.2c0.1,0,0.2,0.1,0.2,0.2v4.9C134.7,119.5,134.7,119.6,134.5,119.6z"/>
						</g>
						<g>
							<path class="st3" d="M134.5,109.7c-0.1,0-0.2-0.1-0.2-0.2v-2.4c0-0.1,0.1-0.2,0.2-0.2h2.4c0.1,0,0.2,0.1,0.2,0.2
								c0,0.1-0.1,0.2-0.2,0.2h-2.2v2.2C134.7,109.6,134.7,109.7,134.5,109.7z"/>
						</g>
						<g>
							<path class="st3" d="M173.6,107.4H169c-0.1,0-0.2-0.1-0.2-0.2c0-0.1,0.1-0.2,0.2-0.2h4.6c0.1,0,0.2,0.1,0.2,0.2
								C173.8,107.3,173.7,107.4,173.6,107.4z M164.4,107.4h-4.6c-0.1,0-0.2-0.1-0.2-0.2c0-0.1,0.1-0.2,0.2-0.2h4.6
								c0.1,0,0.2,0.1,0.2,0.2C164.6,107.3,164.5,107.4,164.4,107.4z M155.3,107.4h-4.6c-0.1,0-0.2-0.1-0.2-0.2
								c0-0.1,0.1-0.2,0.2-0.2h4.6c0.1,0,0.2,0.1,0.2,0.2C155.5,107.3,155.4,107.4,155.3,107.4z M146.1,107.4h-4.6
								c-0.1,0-0.2-0.1-0.2-0.2c0-0.1,0.1-0.2,0.2-0.2h4.6c0.1,0,0.2,0.1,0.2,0.2C146.3,107.3,146.2,107.4,146.1,107.4z"/>
						</g>
						<g>
							<path class="st3" d="M180.5,109.7c-0.1,0-0.2-0.1-0.2-0.2v-2.2h-2.2c-0.1,0-0.2-0.1-0.2-0.2c0-0.1,0.1-0.2,0.2-0.2h2.4
								c0.1,0,0.2,0.1,0.2,0.2v2.4C180.7,109.6,180.7,109.7,180.5,109.7z"/>
						</g>
						<g>
							<path class="st3" d="M180.5,139.3c-0.1,0-0.2-0.1-0.2-0.2v-4.9c0-0.1,0.1-0.2,0.2-0.2s0.2,0.1,0.2,0.2v4.9
								C180.7,139.2,180.7,139.3,180.5,139.3z M180.5,129.4c-0.1,0-0.2-0.1-0.2-0.2v-4.9c0-0.1,0.1-0.2,0.2-0.2s0.2,0.1,0.2,0.2v4.9
								C180.7,129.3,180.7,129.4,180.5,129.4z M180.5,119.6c-0.1,0-0.2-0.1-0.2-0.2v-4.9c0-0.1,0.1-0.2,0.2-0.2s0.2,0.1,0.2,0.2v4.9
								C180.7,119.5,180.7,119.6,180.5,119.6z"/>
						</g>
					</g>
				</g>
			</g>
			<g>
				<g>
					<g>
						<g>
							<path class="st4" d="M178.2,119.9h-44.6c-1,0-1.8-0.8-1.8-1.8V83c0-1,0.8-1.8,1.8-1.8h44.6c1,0,1.8,0.8,1.8,1.8v35.1
								C180,119.1,179.2,119.9,178.2,119.9z"/>
						</g>
						<g>
							<g>
								<path class="st6" d="M178.2,119.9c0,0,0.2,0,0.4-0.1c0.3-0.1,0.7-0.2,1-0.7c0.2-0.2,0.3-0.6,0.3-0.9c0-0.4,0-0.7,0-1.1
									c0-0.8,0-1.8,0-2.9c0-4.3,0-10.6,0-18.3c0-3.9,0-8.1,0-12.7c0-0.3,0-0.6-0.1-0.8s-0.2-0.5-0.4-0.7c-0.2-0.2-0.4-0.4-0.7-0.4
									c-0.3-0.1-0.6-0.1-0.8-0.1c-1.2,0-2.4,0-3.6,0c-2.4,0-4.9,0-7.5,0c-10.2,0-21.5,0-33.3,0c-0.7,0-1.4,0.5-1.6,1.1
									c-0.1,0.3-0.1,0.7-0.1,1.1v1.1c0,1.5,0,2.9,0,4.3c0,2.9,0,5.7,0,8.5c0,5.5,0,10.9,0,16c0,1.3,0,2.6,0,3.8c0,0.3,0,0.6,0,0.9
									c0,0.3,0.1,0.6,0.2,0.8c0.3,0.5,0.8,0.9,1.4,0.9c2.4,0,4.8,0,7,0c4.6,0,8.8,0,12.7,0c7.7,0,14,0,18.3,0c2.2,0,3.9,0,5,0
									c0.6,0,1,0,1.3,0C178.1,119.9,178.2,119.9,178.2,119.9s-0.2,0-0.4,0c-0.3,0-0.7,0-1.3,0c-1.1,0-2.8,0-5,0
									c-4.3,0-10.6,0-18.3,0c-3.9,0-8.1,0-12.7,0c-2.3,0-4.6,0-7,0c-0.6,0-1.3-0.4-1.6-0.9c-0.2-0.3-0.2-0.6-0.2-0.9
									c0-0.3,0-0.6,0-0.9c0-1.3,0-2.5,0-3.8c0-5.1,0-10.5,0-16c0-2.8,0-5.6,0-8.5c0-1.5,0-2.9,0-4.3v-1.1c0-0.4,0-0.7,0.1-1.1
									c0.3-0.7,1-1.3,1.8-1.3c11.8,0,23,0,33.3,0c2.6,0,5,0,7.5,0c1.2,0,2.4,0,3.6,0c0.3,0,0.6,0,0.9,0.1c0.3,0.1,0.6,0.2,0.8,0.5
									c0.2,0.2,0.4,0.5,0.5,0.7c0.1,0.3,0.1,0.6,0.1,0.9c0,4.6,0,8.8,0,12.7c0,7.7,0,14,0,18.3c0,1.1,0,2,0,2.9c0,0.4,0,0.8,0,1.1
									c0,0.4-0.2,0.7-0.3,0.9c-0.4,0.5-0.8,0.7-1.1,0.7C178.3,119.9,178.2,119.9,178.2,119.9z"/>
							</g>
						</g>
					</g>
					<g>
						<g>
							<g>
								<g>
									<g>
										<g>
											<g>
												<g>
													
														<rect x="139.5" y="78.9" transform="matrix(4.199926e-03 -1 1 4.199926e-03 54.5447 256.4497)" class="st7" width="33" height="44"/>
												</g>
											</g>
										</g>
									</g>
								</g>
							</g>
							<g class="st10">
								<g>
									<g>
										<g>
											<g>
												<g>
													<polygon points="134,117.2 149.4,96.8 158.9,109.7 165.3,102.8 177.9,117.4 													"/>
												</g>
											</g>
										</g>
									</g>
								</g>
							</g>
							<g class="st10">
								<g>
									<g>
										<g>
											<g>
												<g>
													<g>
														<g>
															<path d="M163,94.3c0,1.9-1.6,3.5-3.5,3.5c-1.9,0-3.5-1.6-3.5-3.5c0-1.9,1.6-3.5,3.5-3.5
																C161.4,90.9,163,92.4,163,94.3z"/>
														</g>
													</g>
												</g>
											</g>
										</g>
									</g>
								</g>
							</g>
						</g>
					</g>
				</g>
				<g>
					<g>
						<g>
							<g>
								<g>
									<path class="st11" d="M146.9,88.6c0,0,0-0.1,0.1-0.3c0-0.2,0.1-0.4,0.1-0.7c0-0.3,0.1-0.7,0.2-1.1c0-0.2,0.1-0.4,0.1-0.6
										c0-0.2,0.1-0.4,0.2-0.6c0.4-0.9,0.8-1.5,1.2-2c0.2-0.2,0.3-0.4,0.4-0.6c0.1-0.1,0.2-0.2,0.2-0.2s-0.1,0.1-0.2,0.2
										c-0.1,0.1-0.3,0.3-0.4,0.6c-0.4,0.5-0.9,1.2-1.2,2c-0.1,0.2-0.2,0.4-0.2,0.7c0,0.2-0.1,0.4-0.1,0.6
										c-0.1,0.4-0.1,0.7-0.2,1.1c0,0.3-0.1,0.6-0.1,0.7C146.9,88.5,146.9,88.6,146.9,88.6z"/>
								</g>
							</g>
						</g>
					</g>
					<g>
						<g>
							<g>
								<g>
									<path class="st11" d="M152.4,83.8c0,0,0,0-0.1,0.1c0,0.1-0.1,0.2-0.2,0.4c-0.2,0.3-0.5,0.8-0.7,1.3l0,0l0,0
										c0,0,0,0.1,0,0.1c-0.2,0.6-0.4,1.1-0.6,1.5c-0.1,0.2-0.1,0.4-0.2,0.4c0,0.1,0,0.2,0,0.2s0,0,0.1-0.2c0-0.1,0.1-0.2,0.2-0.4
										c0.2-0.4,0.4-0.9,0.6-1.4c0,0,0-0.1,0-0.1l0,0c0.3-0.5,0.6-1,0.7-1.3c0.1-0.2,0.2-0.3,0.2-0.4
										C152.4,83.9,152.4,83.8,152.4,83.8z"/>
								</g>
							</g>
						</g>
					</g>
				</g>
			</g>
		</g>
		<g id="Code">
			<g>
				<g>
					<g>
						<path class="st9" d="M122.6,147.1H67.1c-1.9,0-3.4-1.5-3.4-3.4v-27.8c0-1.9,1.5-3.4,3.4-3.4h55.5c1.9,0,3.4,1.5,3.4,3.4v27.8
							C125.9,145.5,124.4,147.1,122.6,147.1z"/>
					</g>
					<g>
						<g>
							<path class="st6" d="M122.6,147.1c0,0,0.2,0,0.5,0c0.3,0,0.8-0.2,1.3-0.5c0.5-0.3,1.1-0.9,1.4-1.8c0.2-0.4,0.2-0.9,0.2-1.5
								c0-0.5,0-1.1,0-1.7c0-4.8,0-11.6,0-20.1c0-1.1,0-2.2,0-3.3c0-0.6,0-1.1,0-1.7c0-0.6,0-1.1-0.2-1.7c-0.4-1.1-1.3-2-2.4-2.2
								c-0.3-0.1-0.6-0.1-0.9-0.1c-0.3,0-0.6,0-0.9,0c-0.6,0-1.2,0-1.8,0c-5,0-10.3,0-16,0c-11.2,0-23.6,0-36.6,0
								c-0.8,0-1.6,0.3-2.2,0.8c-0.6,0.5-1,1.2-1.1,2c0,0.4,0,0.8,0,1.2c0,0.4,0,0.8,0,1.2c0,0.8,0,1.6,0,2.4c0,3.1,0,6.3,0,9.3
								c0,3.1,0,6.1,0,9c0,1.5,0,2.9,0,4.4c0,0.4,0,0.7,0,1.1c0,0.4,0.1,0.7,0.2,1c0.3,0.6,0.7,1.2,1.3,1.6c0.6,0.4,1.3,0.6,1.9,0.5
								c0.7,0,1.4,0,2.1,0c1.4,0,2.7,0,4,0c2.7,0,5.3,0,7.7,0c5,0,9.7,0,13.9,0c8.5,0,15.4,0,20.1,0c2.4,0,4.2,0,5.5,0
								c0.6,0,1.1,0,1.4,0C122.4,147.1,122.6,147.1,122.6,147.1s-0.2,0-0.5,0c-0.3,0-0.8,0-1.4,0c-1.3,0-3.1,0-5.5,0
								c-4.8,0-11.6,0-20.1,0c-4.2,0-8.9,0-13.9,0c-2.5,0-5.1,0-7.7,0c-1.3,0-2.7,0-4,0c-0.7,0-1.4,0-2.1,0c-0.7,0-1.5-0.2-2-0.6
								c-0.6-0.4-1.1-1-1.4-1.7c-0.2-0.4-0.2-0.7-0.2-1.1c0-0.4,0-0.7,0-1.1c0-1.5,0-2.9,0-4.4c0-2.9,0-5.9,0-9c0-3.1,0-6.2,0-9.3
								c0-0.8,0-1.6,0-2.4c0-0.4,0-0.8,0-1.2s0-0.8,0-1.2c0.1-0.8,0.6-1.6,1.2-2.1s1.5-0.9,2.3-0.9c13,0,25.3,0,36.6,0
								c5.6,0,11,0,16,0c0.6,0,1.3,0,1.8,0c0.3,0,0.6,0,0.9,0c0.3,0,0.6,0,0.9,0.1c1.2,0.3,2.2,1.2,2.6,2.4c0.2,0.6,0.2,1.2,0.2,1.7
								s0,1.1,0,1.7c0,1.1,0,2.2,0,3.3c0,8.5,0,15.4,0,20.1c0,0.6,0,1.1,0,1.7c0,0.5,0,1-0.2,1.5c-0.3,0.9-0.9,1.5-1.4,1.8
								c-0.6,0.3-1,0.4-1.3,0.5c-0.2,0-0.3,0-0.4,0C122.6,147.1,122.6,147.1,122.6,147.1z"/>
						</g>
					</g>
				</g>
				<g>
					<rect x="70.3" y="118.3" class="st5" width="9.2" height="1.7"/>
				</g>
				<g>
					<rect x="70.3" y="139.7" class="st5" width="9.2" height="1.7"/>
				</g>
				<g>
					<rect x="70.3" y="122.6" class="st3" width="15.9" height="1.7"/>
				</g>
				<g>
					<rect x="89.1" y="122.6" class="st5" width="7" height="1.7"/>
				</g>
				<g>
					<rect x="112.4" y="122.6" class="st6" width="4.6" height="1.7"/>
				</g>
				<g>
					<rect x="98.6" y="122.6" class="st7" width="12.3" height="1.7"/>
				</g>
				<g>
					<rect x="101.1" y="126.8" class="st3" width="15.9" height="1.7"/>
				</g>
				<g>
					<rect x="91.3" y="126.8" class="st7" width="7" height="1.7"/>
				</g>
				<g>
					<rect x="70.3" y="126.8" class="st6" width="4.6" height="1.7"/>
				</g>
				<g>
					<rect x="76.6" y="126.8" class="st5" width="12.3" height="1.7"/>
				</g>
				<g>
					<rect x="70.3" y="131" class="st3" width="15.9" height="1.7"/>
				</g>
				<g>
					<rect x="89.1" y="131" class="st6" width="7" height="1.7"/>
				</g>
				<g>
					<rect x="112.4" y="131" class="st6" width="4.6" height="1.7"/>
				</g>
				<g>
					<rect x="85.4" y="135.3" class="st5" width="4.6" height="1.7"/>
				</g>
				<g>
					<rect x="98.6" y="131" class="st7" width="12.3" height="1.7"/>
				</g>
				<g>
					<rect x="70" y="135.3" class="st7" width="12.3" height="1.7"/>
				</g>
			</g>
		</g>
		<g id="Text">
			<g>
				<g>
					<g>
						<g>
							<g>
								<g>
									<g>
										<path class="st12" d="M181.2,149.6h-19.4c-1.8,0-3.2-1.4-3.2-3.2v-18.6c0-1.8,1.4-3.2,3.2-3.2h19.4c1.8,0,3.2,1.4,3.2,3.2
											v18.6C184.4,148.1,183,149.6,181.2,149.6z"/>
									</g>
									<g>
										<g>
											<path class="st6" d="M181.2,149.6c0,0,0.4,0,0.9-0.2c0.3-0.1,0.7-0.3,1-0.6c0.4-0.3,0.7-0.7,0.9-1.3
												c0.1-0.3,0.2-0.6,0.2-0.9c0-0.3,0-0.7,0-1.1c0-0.7,0-1.5,0-2.4c0-1.7,0-3.7,0-5.9c0-2.2,0-4.6,0-7.1c0-0.6,0-1.3,0-2
												c0-0.3,0-0.7,0-1s-0.2-0.6-0.3-0.9c-0.3-0.6-0.8-1.1-1.4-1.4c-0.3-0.2-0.6-0.2-1-0.3c-0.4,0-0.7,0-1.1,0
												c-5.7,0-12.1,0-18.7,0c-0.8,0-1.6,0.3-2.2,0.9c-0.6,0.6-0.9,1.3-0.9,2.1c0,1.6,0,3.2,0,4.8c0,3.1,0,6.1,0,9
												c0,1.5,0,2.8,0,4.2c0,0.4,0,0.7,0,1c0,0.3,0.1,0.6,0.2,0.9c0.2,0.6,0.7,1.1,1.2,1.4c0.5,0.4,1.1,0.5,1.7,0.5
												c0.6,0,1.2,0,1.8,0c1.2,0,2.3,0,3.4,0c4.3,0,7.9,0,10.3,0c1.2,0,2.2,0,2.8,0c0.3,0,0.6,0,0.7,0
												C181.1,149.6,181.2,149.6,181.2,149.6s-0.1,0-0.2,0c-0.2,0-0.4,0-0.7,0c-0.6,0-1.6,0-2.8,0c-2.4,0-5.9,0-10.3,0
												c-1.1,0-2.2,0-3.4,0c-0.6,0-1.2,0-1.8,0s-1.3-0.2-1.8-0.5c-0.6-0.4-1-0.9-1.3-1.5c-0.1-0.3-0.2-0.7-0.2-1
												c0-0.4,0-0.7,0-1c0-1.4,0-2.8,0-4.2c0-2.9,0-5.9,0-9c0-1.6,0-3.1,0-4.8c0-0.8,0.4-1.7,1-2.2c0.6-0.6,1.5-0.9,2.3-0.9
												c6.6,0,12.9,0,18.7,0c0.4,0,0.7,0,1.1,0s0.7,0.2,1,0.3c0.7,0.3,1.2,0.8,1.5,1.5c0.4,0.6,0.4,1.3,0.4,2c0,0.7,0,1.3,0,2
												c0,2.6,0,5,0,7.1c0,2.2,0,4.1,0,5.9c0,0.9,0,1.7,0,2.4c0,0.4,0,0.7,0,1.1c0,0.4-0.1,0.7-0.2,0.9c-0.2,0.6-0.6,1-1,1.3
												c-0.4,0.3-0.7,0.5-1.1,0.6s-0.6,0.1-0.7,0.1C181.3,149.6,181.2,149.6,181.2,149.6z"/>
										</g>
									</g>
								</g>
							</g>
						</g>
					</g>
				</g>
				<g>
					<g>
						<path class="st6" d="M164.3,130.4h14l0,4.7h-0.7c-0.2-1.7-0.9-2.8-1.9-3.4c-0.6-0.3-1.5-0.5-2.6-0.6v12.3
							c0,0.9,0.2,1.4,0.4,1.7s0.9,0.4,1.9,0.4v0.6h-8.3v-0.6c0.9,0,1.5-0.2,1.8-0.4c0.3-0.3,0.4-0.9,0.4-1.7v-12.3
							c-1.1,0-2,0.2-2.6,0.6c-1.1,0.6-1.7,1.7-1.9,3.4h-0.6L164.3,130.4z"/>
					</g>
				</g>
			</g>
		</g>
		<g id="Tools">
			<g>
				<g>
					<g>
						<g>
							<g>
								<g>
									<path class="st9" d="M188.8,86.7v47.1c0,1.4,1.1,2.5,2.5,2.5h0.9h7.1h22.3c1.4,0,2.5-1.1,2.5-2.5V86.7
										c0-1.4-1.1-2.5-2.5-2.5h-30.3C189.9,84.2,188.8,85.3,188.8,86.7z"/>
								</g>
								<g>
									<g>
										<path class="st6" d="M188.8,86.7c0,0,0,0,0-0.1s0-0.2,0-0.3c0-0.3,0.2-0.7,0.5-1.2c0.4-0.4,1-0.9,1.8-0.9
											c0.8,0,1.8,0,2.9,0c4.3,0,10.6,0,18.3,0c1.9,0,4,0,6.1,0c1.1,0,2.1,0,3.2,0c1.1,0,2.3,0.8,2.6,1.9
											c0.1,0.3,0.1,0.6,0.1,0.9c0,0.3,0,0.6,0,0.9c0,0.6,0,1.1,0,1.7c0,1.2,0,2.4,0,3.6c0,2.4,0,4.9,0,7.5c0,10.2,0,21.4,0,33.2
											c0,0.8-0.4,1.5-0.9,2c-0.3,0.2-0.6,0.4-1,0.5c-0.4,0.1-0.7,0.1-1.1,0.1c-1.5,0-2.9,0-4.3,0c-2.9,0-5.7,0-8.5,0
											c-5.5,0-10.9,0-16,0c-0.3,0-0.6,0-0.9,0c-0.3,0-0.7,0-1-0.1c-0.6-0.2-1.1-0.6-1.5-1.2c-0.2-0.3-0.3-0.6-0.3-0.9
											s0-0.6,0-0.9c0-0.6,0-1.2,0-1.8c0-2.4,0-4.8,0-7c0-4.5,0-8.8,0-12.6c0-7.7,0-14,0-18.3c0-2.2,0-3.8,0-5c0-0.6,0-1,0-1.3
											C188.8,86.8,188.8,86.7,188.8,86.7s0,0.2,0,0.4c0,0.3,0,0.7,0,1.3c0,1.1,0,2.8,0,5c0,4.3,0,10.6,0,18.3
											c0,3.9,0,8.1,0,12.6c0,2.3,0,4.6,0,7c0,0.6,0,1.2,0,1.8c0,0.3,0,0.6,0,0.9c0,0.3,0.1,0.6,0.3,0.8c0.3,0.5,0.8,0.9,1.4,1.1
											c0.3,0.1,0.6,0.1,0.9,0.1s0.6,0,0.9,0c5.1,0,10.5,0,16,0c2.8,0,5.6,0,8.5,0c1.4,0,2.9,0,4.3,0c0.4,0,0.7,0,1.1-0.1
											c0.4-0.1,0.7-0.2,0.9-0.5c0.6-0.5,0.9-1.1,0.9-1.8c0-11.8,0-23,0-33.2c0-2.6,0-5,0-7.5c0-1.2,0-2.4,0-3.6
											c0-0.6,0-1.2,0-1.7c0-0.3,0-0.6,0-0.9c0-0.3,0-0.6-0.1-0.8c-0.3-1.1-1.3-1.8-2.4-1.8c-1.1,0-2.2,0-3.2,0
											c-2.1,0-4.1,0-6.1,0c-7.7,0-14,0-18.3,0c-1.1,0-2,0-2.9,0c-0.8,0-1.5,0.5-1.8,0.9c-0.4,0.4-0.5,0.9-0.6,1.1
											C188.8,86.6,188.8,86.7,188.8,86.7z"/>
									</g>
								</g>
							</g>
						</g>
					</g>
				</g>
				<g>
					<g>
						<g>
							<path class="st3" d="M198.7,127.7h-0.1c-0.6,0-1-0.4-1-1V94.2c0-0.6,0.4-1,1-1h0.1c0.6,0,1,0.4,1,1v32.6
								C199.7,127.3,199.2,127.7,198.7,127.7z"/>
						</g>
					</g>
					<g>
						<g>
							<g>
								<path class="st6" d="M198.7,127.7c0,0,0.3,0,0.6-0.3c0.4-0.3,0.2-1.1,0.3-2c0-1.8,0-4.4,0-7.7c0-3.2,0-7.1,0-11.4
									c0-2.1,0-4.4,0-6.7c0-1.2,0-2.4,0-3.5c0-0.6,0-1.2,0-1.8c0-0.2,0-0.3,0-0.4c0-0.1-0.1-0.2-0.2-0.4c-0.2-0.2-0.4-0.3-0.7-0.3
									c-0.3,0-0.6,0.1-0.7,0.4c-0.1,0.1-0.1,0.2-0.2,0.4c0,0.1,0,0.3,0,0.4c0,0.6,0,1.2,0,1.8c0,1.2,0,2.4,0,3.5
									c0,2.3,0,4.6,0,6.7c0,4.3,0,8.1,0,11.4c0,3.2,0,5.8,0,7.7c0,0.4,0,0.9,0,1.2s0.2,0.6,0.4,0.7c0.2,0.2,0.4,0.2,0.5,0.2
									C198.6,127.7,198.7,127.7,198.7,127.7s-0.1,0-0.2,0c-0.1,0-0.3,0-0.5-0.2c-0.2-0.1-0.4-0.4-0.4-0.8c0-0.4,0-0.7,0-1.2
									c0-1.8,0-4.4,0-7.7c0-3.2,0-7.1,0-11.4c0-2.1,0-4.4,0-6.7c0-1.2,0-2.4,0-3.5c0-0.6,0-1.2,0-1.8c0-0.2,0-0.3,0-0.5
									c0-0.2,0.1-0.4,0.2-0.5c0.2-0.3,0.6-0.5,0.9-0.5c0.3,0,0.7,0.1,0.9,0.4c0.1,0.1,0.2,0.3,0.2,0.4c0,0.2,0,0.4,0,0.5
									c0,0.6,0,1.2,0,1.8c0,1.2,0,2.4,0,3.5c0,2.3,0,4.6,0,6.7c0,4.3,0,8.1,0,11.4c0,3.2,0,5.8,0,7.7c0,0.4,0,0.9,0,1.2
									s-0.2,0.7-0.3,0.8C199,127.8,198.7,127.7,198.7,127.7z"/>
							</g>
						</g>
					</g>
				</g>
				<g>
					<g>
						<g>
							<path class="st3" d="M206.5,127.7h-0.1c-0.6,0-1-0.4-1-1V94.2c0-0.6,0.4-1,1-1h0.1c0.6,0,1,0.4,1,1v32.6
								C207.5,127.3,207,127.7,206.5,127.7z"/>
						</g>
					</g>
					<g>
						<g>
							<g>
								<path class="st6" d="M206.5,127.7c0,0,0.3,0,0.6-0.3c0.4-0.3,0.2-1.1,0.3-2c0-1.8,0-4.4,0-7.7c0-3.2,0-7.1,0-11.4
									c0-2.1,0-4.4,0-6.7c0-1.2,0-2.4,0-3.5c0-0.6,0-1.2,0-1.8c0-0.2,0-0.3,0-0.4c0-0.1-0.1-0.2-0.2-0.4c-0.2-0.2-0.4-0.3-0.7-0.3
									c-0.3,0-0.6,0.1-0.7,0.4c-0.1,0.1-0.1,0.2-0.2,0.4c0,0.1,0,0.3,0,0.4c0,0.6,0,1.2,0,1.8c0,1.2,0,2.4,0,3.5
									c0,2.3,0,4.6,0,6.7c0,4.3,0,8.1,0,11.4c0,3.2,0,5.8,0,7.7c0,0.4,0,0.9,0,1.2s0.2,0.6,0.4,0.7c0.2,0.2,0.4,0.2,0.5,0.2
									C206.5,127.7,206.5,127.7,206.5,127.7s-0.1,0-0.2,0c-0.1,0-0.3,0-0.5-0.2c-0.2-0.1-0.4-0.4-0.4-0.8c0-0.4,0-0.7,0-1.2
									c0-1.8,0-4.4,0-7.7c0-3.2,0-7.1,0-11.4c0-2.1,0-4.4,0-6.7c0-1.2,0-2.4,0-3.5c0-0.6,0-1.2,0-1.8c0-0.2,0-0.3,0-0.5
									c0-0.2,0.1-0.4,0.2-0.5c0.2-0.3,0.6-0.5,0.9-0.5c0.3,0,0.7,0.1,0.9,0.4c0.1,0.1,0.2,0.3,0.2,0.4c0,0.2,0,0.4,0,0.5
									c0,0.6,0,1.2,0,1.8c0,1.2,0,2.4,0,3.5c0,2.3,0,4.6,0,6.7c0,4.3,0,8.1,0,11.4c0,3.2,0,5.8,0,7.7c0,0.4,0,0.9,0,1.2
									s-0.2,0.7-0.3,0.8C206.8,127.8,206.5,127.7,206.5,127.7z"/>
							</g>
						</g>
					</g>
				</g>
				<g>
					<g>
						<g>
							<path class="st3" d="M214.4,127.7h-0.1c-0.6,0-1-0.4-1-1V94.2c0-0.6,0.4-1,1-1h0.1c0.6,0,1,0.4,1,1v32.6
								C215.3,127.3,214.9,127.7,214.4,127.7z"/>
						</g>
					</g>
					<g>
						<g>
							<g>
								<path class="st6" d="M214.4,127.7c0,0,0.3,0,0.6-0.3c0.4-0.3,0.2-1.1,0.3-2c0-1.8,0-4.4,0-7.7c0-3.2,0-7.1,0-11.4
									c0-2.1,0-4.4,0-6.7c0-1.2,0-2.4,0-3.5c0-0.6,0-1.2,0-1.8c0-0.2,0-0.3,0-0.4c0-0.1-0.1-0.2-0.2-0.4c-0.2-0.2-0.4-0.3-0.7-0.3
									c-0.3,0-0.6,0.1-0.7,0.4c-0.1,0.1-0.1,0.2-0.2,0.4c0,0.1,0,0.3,0,0.4c0,0.6,0,1.2,0,1.8c0,1.2,0,2.4,0,3.5
									c0,2.3,0,4.6,0,6.7c0,4.3,0,8.1,0,11.4c0,3.2,0,5.8,0,7.7c0,0.4,0,0.9,0,1.2s0.2,0.6,0.4,0.7c0.2,0.2,0.4,0.2,0.5,0.2
									C214.3,127.7,214.4,127.7,214.4,127.7s-0.1,0-0.2,0s-0.3,0-0.5-0.2c-0.2-0.1-0.4-0.4-0.4-0.8c0-0.4,0-0.7,0-1.2
									c0-1.8,0-4.4,0-7.7c0-3.2,0-7.1,0-11.4c0-2.1,0-4.4,0-6.7c0-1.2,0-2.4,0-3.5c0-0.6,0-1.2,0-1.8c0-0.2,0-0.3,0-0.5
									c0-0.2,0.1-0.4,0.2-0.5c0.2-0.3,0.6-0.5,0.9-0.5c0.3,0,0.7,0.1,0.9,0.4c0.1,0.1,0.2,0.3,0.2,0.4c0,0.2,0,0.4,0,0.5
									c0,0.6,0,1.2,0,1.8c0,1.2,0,2.4,0,3.5c0,2.3,0,4.6,0,6.7c0,4.3,0,8.1,0,11.4c0,3.2,0,5.8,0,7.7c0,0.4,0,0.9,0,1.2
									s-0.2,0.7-0.3,0.8C214.7,127.8,214.4,127.7,214.4,127.7z"/>
							</g>
						</g>
					</g>
				</g>
				<g>
					<g>
						<path class="st5" d="M198.5,109.4h-0.4c-1.1,0-2-0.9-2-2l0,0c0-1.1,0.9-2,2-2h0.4c1.1,0,2,0.9,2,2l0,0
							C200.5,108.5,199.6,109.4,198.5,109.4z"/>
					</g>
				</g>
				<g>
					<g>
						<path class="st5" d="M206.8,116.9h-0.4c-1.1,0-2-0.9-2-2l0,0c0-1.1,0.9-2,2-2h0.4c1.1,0,2,0.9,2,2l0,0
							C208.9,116,207.9,116.9,206.8,116.9z"/>
					</g>
				</g>
				<g>
					<g>
						<path class="st5" d="M214.4,102.8H214c-1.1,0-2-0.9-2-2l0,0c0-1.1,0.9-2,2-2h0.4c1.1,0,2,0.9,2,2l0,0
							C216.4,101.9,215.5,102.8,214.4,102.8z"/>
					</g>
				</g>
			</g>
		</g>
		<g id="Colors">
			<g>
				<g>
					<g>
						<path class="st9" d="M229.3,78.5h-42.1c-1.8,0-3.3-1.5-3.3-3.3V33.2c0-1.8,1.5-3.3,3.3-3.3h42c1.8,0,3.3,1.5,3.3,3.3v42
							C232.6,77.1,231.1,78.5,229.3,78.5z"/>
					</g>
					<g>
						<g>
							<path class="st6" d="M229.3,78.5c0,0,0.2,0,0.5,0c0.3,0,0.8-0.2,1.3-0.5c0.5-0.4,1.1-0.9,1.3-1.8c0.1-0.4,0.1-0.9,0.1-1.5
								c0-0.5,0-1.1,0-1.7c0-4.8,0-11.7,0-20.2c0-4.3,0-9,0-14c0-1.3,0-2.5,0-3.8c0-0.6,0-1.3,0-2c0-0.6-0.3-1.3-0.7-1.8
								s-1-0.9-1.6-1.1c-0.6-0.2-1.3-0.1-2-0.1c-1.4,0-2.8,0-4.2,0c-11.3,0-23.7,0-36.7,0c-0.8,0-1.6,0.3-2.2,0.8
								c-0.6,0.5-0.9,1.3-1,2c0,1.6,0,3.2,0,4.8c0,3.2,0,6.3,0,9.4c0,6.1,0,12.1,0,17.7c0,2.8,0,5.6,0,8.3c0,0.7,0,1.3,0,2
								c0,0.7,0.1,1.3,0.4,1.8c0.2,0.3,0.4,0.5,0.6,0.7c0.2,0.2,0.5,0.4,0.8,0.5c0.6,0.3,1.2,0.4,1.8,0.3c5,0,9.7,0,14,0
								c8.5,0,15.5,0,20.2,0c2.4,0,4.2,0,5.5,0c0.6,0,1.1,0,1.4,0C229.1,78.5,229.3,78.5,229.3,78.5s-0.2,0-0.5,0s-0.8,0-1.4,0
								c-1.3,0-3.1,0-5.5,0c-4.8,0-11.7,0-20.2,0c-4.3,0-9,0-14,0c-0.6,0-1.3,0-1.9-0.3c-0.3-0.2-0.6-0.3-0.8-0.6
								c-0.2-0.2-0.5-0.5-0.6-0.8c-0.4-0.6-0.5-1.3-0.5-1.9c0-0.7,0-1.3,0-2c0-2.7,0-5.4,0-8.3c0-5.7,0-11.6,0-17.7
								c0-3.1,0-6.2,0-9.4c0-1.6,0-3.2,0-4.8c0.1-0.8,0.5-1.6,1.1-2.2c0.6-0.6,1.5-0.9,2.3-0.9c13,0,25.4,0,36.7,0
								c1.4,0,2.8,0,4.2,0c0.4,0,0.7,0,1,0c0.4,0,0.7,0,1,0.1c0.7,0.2,1.3,0.6,1.7,1.1c0.4,0.6,0.7,1.2,0.7,1.9c0,0.7,0,1.3,0,2
								c0,1.3,0,2.6,0,3.8c0,5,0,9.7,0,14c0,8.5,0,15.5,0,20.2c0,0.6,0,1.2,0,1.7s0,1-0.1,1.5c-0.3,0.9-0.8,1.5-1.4,1.8
								c-0.6,0.4-1,0.5-1.3,0.5c-0.2,0-0.3,0-0.4,0C229.4,78.5,229.3,78.5,229.3,78.5z"/>
						</g>
					</g>
				</g>
				<g>
					<g>
						<g>
							<g>
								<g>
									<g>
										<path class="st3" d="M210.6,53.8h-5.1c-2.5,0-4.5-2-4.5-4.5v-11h14v11C215.1,51.8,213.1,53.8,210.6,53.8z"/>
									</g>
								</g>
								<g>
									<g>
										<g>
											<path class="st6" d="M210.6,53.8c0,0,0.5,0,1.3-0.2c0.4-0.2,0.9-0.4,1.4-0.7c0.5-0.4,1-0.9,1.3-1.6
												c0.4-0.7,0.4-1.6,0.4-2.5c0-0.9,0-2,0-3.1c0-2.2,0-4.6,0-7.3l0.1,0.1c-2.9,0-6.2,0-9.6,0c-1.5,0-3,0-4.5,0l0.2-0.2
												c0,3.3,0,6.4,0,9.1c0,0.7,0,1.4,0,2c0,0.6,0.2,1.3,0.5,1.8c0.6,1.1,1.5,1.8,2.4,2.2c0.9,0.4,1.9,0.2,2.7,0.3
												c0.8,0,1.5,0,2.1,0c0.6,0,1,0,1.3,0c0.1,0,0.2,0,0.4,0C210.5,53.8,210.6,53.8,210.6,53.8s0,0-0.1,0s-0.2,0-0.4,0
												c-0.3,0-0.7,0-1.3,0c-0.6,0-1.3,0-2.1,0c-0.4,0-0.9,0-1.3,0c-0.5,0-1-0.1-1.5-0.3c-1-0.4-2-1.1-2.6-2.2
												c-0.3-0.6-0.5-1.2-0.5-1.9c0-0.7,0-1.3,0-2c0-2.8,0-5.9,0-9.1v-0.2h0.2c1.5,0,2.9,0,4.5,0c3.4,0,6.6,0,9.6,0h0.1v0.1
												c0,2.6,0,5.1,0,7.3c0,1.1,0,2.1,0,3.1c0,0.9-0.1,1.9-0.5,2.6c-0.4,0.7-0.9,1.3-1.4,1.7c-0.5,0.4-1,0.6-1.4,0.7
												C211.1,53.9,210.6,53.8,210.6,53.8z"/>
										</g>
									</g>
								</g>
							</g>
							<g>
								<g>
									<path class="st5" d="M201.1,38.4c2,1.5,4.2,2.5,6.7,2.4c2.5-0.1,5.3-0.9,7.3-2.4L201.1,38.4z"/>
								</g>
							</g>
							<g>
								<g>
									<g>
										<path class="st6" d="M215.1,40.6c0,0,0,0.1,0.1,0.3c0.1,0.2,0.2,0.5,0.2,0.9c0.2,0.8,0.5,1.9,0.8,3.3
											c0.2,0.7,0.4,1.5,0.6,2.2c0.1,0.4,0.2,0.8,0.3,1.3c0.1,0.5,0,0.9-0.2,1.4c-0.2,0.5-0.5,0.9-0.9,1.1
											c-0.4,0.3-0.9,0.4-1.5,0.4c-1,0-2.1,0-3.1,0c-0.6,0-1.1,0-1.6,0c-0.5,0-1.1,0-1.6-0.1c-1-0.2-1.9-0.8-2.6-1.5
											c-0.3-0.4-0.6-0.8-0.7-1.2c-0.2-0.4-0.3-0.8-0.4-1.2c-0.3-0.8-0.5-1.5-0.7-2.2c-0.4-1.3-0.8-2.4-1.1-3.2
											c-0.1-0.4-0.2-0.6-0.3-0.9c-0.1-0.2-0.1-0.3-0.1-0.3s0,0.1,0.1,0.3c0.1,0.2,0.2,0.5,0.3,0.9c0.3,0.8,0.7,1.8,1.2,3.1
											c0.2,0.7,0.5,1.4,0.8,2.2c0.3,0.8,0.5,1.7,1.1,2.3c0.6,0.7,1.4,1.2,2.4,1.4c0.5,0.1,1,0.1,1.5,0.1c0.5,0,1.1,0,1.6,0
											c1.1,0,2.1,0,3.1,0c0.5,0,0.9-0.2,1.3-0.4c0.4-0.3,0.7-0.6,0.9-1c0.2-0.4,0.2-0.9,0.2-1.3c-0.1-0.4-0.2-0.9-0.3-1.3
											c-0.2-0.8-0.4-1.6-0.5-2.2c-0.3-1.3-0.6-2.5-0.7-3.3c-0.1-0.4-0.1-0.7-0.2-0.9C215.1,40.7,215,40.6,215.1,40.6z"/>
									</g>
								</g>
							</g>
							<g>
								<g>
									<path class="st6" d="M203.1,41.2c0,0.4-0.4,0.8-0.8,0.8s-0.8-0.4-0.8-0.8s0.4-0.8,0.8-0.8S203.1,40.8,203.1,41.2z"/>
								</g>
							</g>
							<g>
								<g>
									<path class="st5" d="M214.9,38.5c0.1,0.3-0.4,0.6-0.4,1c0,0.6-0.4,1.2-1,1.5c0,0-0.1,0-0.1,0.1c-0.3,0.2-0.4,0.6-0.4,1
										c-0.1,0.6-0.2,1.2-0.3,1.8c0,0.4-0.1,0.7-0.3,1.1c-0.2,0.3-0.5,0.6-0.9,0.6c-0.6,0-0.9-0.6-0.9-1.1c-0.1-0.7,0-1.4-0.4-1.9
										c-0.2-0.3-0.6-0.4-0.9-0.3c-0.8,0.3-0.3,1.6-1.1,1.9c-0.2,0.1-0.5,0-0.6-0.1c-0.4-0.3-0.5-0.7-0.6-1.2
										c-0.2-0.7-0.4-1.4-0.5-2.1L214.9,38.5"/>
								</g>
							</g>
						</g>
						<g>
							<g>
								<circle class="st5" cx="194.9" cy="63.6" r="4.3"/>
							</g>
						</g>
						<g>
							<g>
								<circle class="st5" cx="208.3" cy="63.6" r="4.3"/>
							</g>
						</g>
						<g>
							<g>
								<circle class="st5" cx="221.7" cy="63.6" r="4.3"/>
							</g>
						</g>
						<g class="st13">
							<g>
								<circle class="st9" cx="194.9" cy="63.6" r="4.3"/>
							</g>
						</g>
						<g class="st10">
							<g>
								<circle cx="221.7" cy="63.6" r="4.3"/>
							</g>
						</g>
						<g>
							<g>
								<g>
									<path class="st6" d="M199.2,63.6c0,0,0-0.4-0.2-1.1c-0.2-0.7-0.6-1.6-1.6-2.4c-0.5-0.4-1.1-0.7-1.8-0.8
										c-0.7-0.1-1.5-0.1-2.2,0.2c-0.4,0.1-0.7,0.3-1.1,0.6c-0.4,0.2-0.6,0.6-0.9,0.9c-0.5,0.7-0.8,1.6-0.8,2.5
										c0,0.9,0.3,1.8,0.8,2.5c0.2,0.4,0.6,0.7,0.9,0.9c0.3,0.2,0.7,0.4,1.1,0.6c0.7,0.3,1.5,0.3,2.2,0.2s1.3-0.4,1.8-0.8
										c1-0.7,1.4-1.7,1.6-2.4S199.1,63.6,199.2,63.6c0,0,0,0.4-0.1,1.1c-0.2,0.7-0.6,1.7-1.6,2.4c-0.5,0.4-1.1,0.7-1.8,0.8
										c-0.7,0.1-1.5,0.1-2.3-0.2c-0.4-0.1-0.8-0.4-1.1-0.6c-0.4-0.2-0.7-0.6-0.9-0.9c-0.6-0.7-0.9-1.7-0.9-2.6s0.3-1.9,0.9-2.6
										c0.3-0.4,0.6-0.7,0.9-0.9c0.4-0.3,0.7-0.5,1.1-0.6c0.8-0.3,1.6-0.3,2.3-0.2c0.7,0.1,1.4,0.5,1.8,0.8c1,0.8,1.4,1.8,1.6,2.4
										C199.3,63.2,199.2,63.6,199.2,63.6z"/>
								</g>
							</g>
						</g>
						<g>
							<g>
								<g>
									<path class="st6" d="M212.6,63.6c0,0,0-0.4-0.2-1.1c-0.2-0.7-0.6-1.6-1.6-2.4c-0.5-0.4-1.1-0.7-1.8-0.8
										c-0.7-0.1-1.5-0.1-2.2,0.2c-0.4,0.1-0.7,0.3-1.1,0.6c-0.4,0.2-0.6,0.6-0.9,0.9c-0.5,0.7-0.8,1.6-0.8,2.5
										c0,0.9,0.3,1.8,0.8,2.5c0.2,0.4,0.6,0.7,0.9,0.9c0.3,0.2,0.7,0.4,1.1,0.6c0.7,0.3,1.5,0.3,2.2,0.2s1.3-0.4,1.8-0.8
										c1-0.7,1.4-1.7,1.6-2.4C212.6,64,212.6,63.6,212.6,63.6s0,0.4-0.1,1.1c-0.2,0.7-0.6,1.7-1.6,2.4c-0.5,0.4-1.1,0.7-1.8,0.8
										c-0.7,0.1-1.5,0.1-2.3-0.2c-0.4-0.1-0.8-0.4-1.1-0.6c-0.4-0.2-0.7-0.6-0.9-0.9c-0.6-0.7-0.9-1.7-0.9-2.6s0.3-1.9,0.9-2.6
										c0.3-0.4,0.6-0.7,0.9-0.9c0.4-0.3,0.7-0.5,1.1-0.6c0.8-0.3,1.6-0.3,2.3-0.2c0.7,0.1,1.4,0.5,1.8,0.8c1,0.8,1.4,1.8,1.6,2.4
										C212.7,63.2,212.6,63.6,212.6,63.6z"/>
								</g>
							</g>
						</g>
						<g>
							<g>
								<g>
									<path class="st6" d="M226.1,63.6c0,0,0-0.4-0.2-1.1c-0.2-0.7-0.6-1.6-1.6-2.4c-0.5-0.4-1.1-0.7-1.8-0.8
										c-0.7-0.1-1.5-0.1-2.2,0.2c-0.4,0.1-0.7,0.3-1.1,0.6c-0.4,0.2-0.6,0.6-0.9,0.9c-0.5,0.7-0.8,1.6-0.8,2.5
										c0,0.9,0.3,1.8,0.8,2.5c0.2,0.4,0.6,0.7,0.9,0.9c0.3,0.2,0.7,0.4,1.1,0.6c0.7,0.3,1.5,0.3,2.2,0.2c0.7-0.1,1.3-0.4,1.8-0.8
										c1-0.7,1.4-1.7,1.6-2.4S226.1,63.6,226.1,63.6s0,0.4-0.1,1.1c-0.2,0.7-0.6,1.7-1.6,2.4c-0.5,0.4-1.1,0.7-1.8,0.8
										c-0.7,0.1-1.5,0.1-2.3-0.2c-0.4-0.1-0.8-0.4-1.1-0.6c-0.4-0.2-0.7-0.6-0.9-0.9c-0.6-0.7-0.9-1.7-0.9-2.6s0.3-1.9,0.9-2.6
										c0.3-0.4,0.6-0.7,0.9-0.9c0.4-0.3,0.7-0.5,1.1-0.6c0.8-0.3,1.6-0.3,2.3-0.2c0.7,0.1,1.4,0.5,1.8,0.8c1,0.8,1.4,1.8,1.6,2.4
										C226.2,63.2,226.1,63.6,226.1,63.6z"/>
								</g>
							</g>
						</g>
					</g>
				</g>
			</g>
		</g>
		<g id="Character_1">
			<g>
				<g>
					<g>
						<g>
							<g>
								<g>
									<g>
										<path class="st9" d="M59.1,108.5c0.3,0.2,0.3,0.4,0.2,0.6c-0.1,0.2-0.4,0.3-0.6,0.2c-0.2,0-0.3-0.2-0.4-0.3
											c0-0.2,0.1-0.5,0.4-0.6C58.7,108.5,58.9,108.4,59.1,108.5z"/>
									</g>
								</g>
							</g>
						</g>
					</g>
				</g>
				<g>
					<g>
						<g>
							<path class="st9" d="M114.1,104.1H55.8c-1.9,0-3.4-1.5-3.4-3.4v-25c0-1.9,1.5-3.4,3.4-3.4h58.3c1.9,0,3.4,1.5,3.4,3.4v25
								C117.5,102.6,115.9,104.1,114.1,104.1z"/>
						</g>
						<g>
							<g>
								<path class="st6" d="M114.1,104.1c0,0,0.2,0,0.5,0c0.3,0,0.8-0.2,1.3-0.5c0.5-0.3,1.1-0.9,1.4-1.8c0.2-0.4,0.2-0.9,0.2-1.5
									c0-0.5,0-1.1,0-1.7c0-4.8,0-11.6,0-20.1c0-0.6,0-1.1,0-1.6c0-0.3,0-0.6,0-0.8s0-0.6,0-0.8c-0.2-1.1-0.9-2.1-1.9-2.6
									c-0.5-0.2-1.1-0.3-1.7-0.3c-0.6,0-1.2,0-1.8,0c-1.2,0-2.4,0-3.7,0c-5,0-10.3,0-16,0c-11.2,0-23.6,0-36.6,0
									c-0.8,0-1.6,0.3-2.2,0.8s-1,1.2-1.1,2c0,0.4,0,0.8,0,1.2c0,0.4,0,0.8,0,1.2c0,0.8,0,1.6,0,2.4c0,3.1,0,6.3,0,9.3
									c0,3.1,0,6.1,0,9c0,0.7,0,1.5,0,2.2c0,0.7,0.2,1.4,0.6,2c0.4,0.6,0.9,1,1.6,1.3c0.6,0.3,1.4,0.2,2,0.2c11.2,0,21.3,0,29.8,0
									c8.5,0,15.4,0,20.1,0c2.4,0,4.2,0,5.5,0c0.6,0,1.1,0,1.4,0C113.9,104.1,114.1,104.1,114.1,104.1s-0.2,0-0.5,0
									c-0.3,0-0.8,0-1.4,0c-1.3,0-3.1,0-5.5,0c-4.8,0-11.6,0-20.1,0c-8.5,0-18.6,0-29.8,0c-0.4,0-0.7,0-1.1,0s-0.7-0.1-1.1-0.2
									c-0.7-0.2-1.3-0.7-1.7-1.3c-0.4-0.6-0.6-1.4-0.6-2.1c0-0.7,0-1.5,0-2.2c0-2.9,0-5.9,0-9s0-6.2,0-9.3c0-0.8,0-1.6,0-2.4
									c0-0.4,0-0.8,0-1.2s0-0.8,0-1.2c0.1-0.8,0.6-1.6,1.2-2.1c0.6-0.6,1.5-0.9,2.3-0.9c13,0,25.3,0,36.6,0c5.6,0,11,0,16,0
									c1.3,0,2.5,0,3.7,0c0.6,0,1.2,0,1.8,0c0.6,0,1.2,0,1.7,0.3c1.1,0.5,1.8,1.5,2,2.7c0,0.3,0,0.6,0,0.8c0,0.3,0,0.6,0,0.8
									c0,0.6,0,1.1,0,1.6c0,8.5,0,15.4,0,20.1c0,0.6,0,1.1,0,1.7c0,0.5,0,1-0.2,1.5c-0.3,0.9-0.9,1.5-1.4,1.8
									c-0.6,0.3-1,0.4-1.3,0.5c-0.2,0-0.3,0-0.4,0C114.1,104.1,114.1,104.1,114.1,104.1z"/>
							</g>
						</g>
					</g>
					<g>
						<g>
							<polygon class="st8" points="68.2,87.2 68.2,91.4 78,95.6 78.1,91.6 72.6,89.2 78.1,86.8 78.1,82.9 							"/>
						</g>
						<g>
							<polygon class="st8" points="101.7,91.7 101.7,87.5 91.7,83.2 91.6,87.2 97.2,89.7 91.6,92.1 91.6,96 							"/>
						</g>
						<g>
							<path class="st8" d="M85.5,79.5c0,0.1-5.8,19.7-5.6,19.6c0.2,0,4.3,0,4.3,0l5.7-19.6L85.5,79.5L85.5,79.5z"/>
						</g>
					</g>
					<g>
						<path class="st3" d="M59.2,76.5c0,0.7-0.6,1.3-1.4,1.3c-0.7,0-1.4-0.6-1.4-1.3s0.6-1.3,1.4-1.3C58.5,75.2,59.2,75.8,59.2,76.5
							z"/>
					</g>
					<g>
						<path class="st3" d="M62.9,76.5c0,0.7-0.6,1.3-1.4,1.3c-0.7,0-1.4-0.6-1.4-1.3s0.6-1.3,1.4-1.3C62.3,75.2,62.9,75.8,62.9,76.5
							z"/>
					</g>
					<g>
						<path class="st3" d="M66.7,76.5c0,0.7-0.6,1.3-1.4,1.3s-1.4-0.6-1.4-1.3s0.6-1.3,1.4-1.3S66.7,75.8,66.7,76.5z"/>
					</g>
				</g>
			</g>
		</g>
	</g>
</g>
</svg>
