<svg width="118" height="118" viewBox="0 0 118 118" fill="none" xmlns="http://www.w3.org/2000/svg">
<circle cx="59" cy="59" r="59" fill="#C1BEE2"/>
<mask id="mask0_2_438" style="mask-type:alpha" maskUnits="userSpaceOnUse" x="0" y="0" width="118" height="118">
<circle cx="59" cy="59" r="59" fill="#D9D9D9"/>
</mask>
<g mask="url(#mask0_2_438)">
<path d="M49.9953 62.3758L38.5424 38.7758L36.0941 37.8294L33.3176 39.2177C33.3176 39.2177 32.5915 47.4302 32.9706 54.7405C33.1396 58.0002 32.9894 55.7817 33.3365 62.3758C33.4161 63.889 33.4662 66.4903 32.9894 67.9287C32.2436 70.1792 31.0778 71.0969 29.8659 73.1346C25.7067 80.1278 19.4541 91.1817 19.4541 91.1817C19.4541 91.1817 15.9064 97.3022 14.5953 101.593C13.8651 103.983 13.3564 105.346 13.2071 107.84C13.0524 110.425 13.9012 114.435 13.9012 114.435L14.7531 119.293H27.4365L27.0894 97.0817L31.2541 87.364L55.5483 78.6875V66.5405L49.9953 62.3758Z" fill="#D03032"/>
<path d="M78.4541 37.3875L85.0294 36.6085C85.0294 36.6085 84.6352 41.7793 84.3541 45.0228C84.0827 48.1548 83.4853 49.8662 83.313 53.0052C83.1867 55.3058 83.074 56.6135 83.313 58.9052C83.528 60.9673 84.3541 64.1111 84.3541 64.1111C84.3541 64.1111 85.2053 67.5711 86.0894 69.664C87.801 73.7154 89.9402 75.3466 92.3365 79.0346C94.2622 81.9982 95.6733 83.6702 97.5424 86.6699C98.6364 88.4258 98.5835 88.4052 100.319 90.8346C101.315 92.2297 102.054 94.3052 102.054 94.3052C102.054 94.3052 102.401 96.0734 102.401 97.4287C102.401 98.7841 102.401 99.8581 101.36 104.023C100.319 108.188 100.159 107.992 99.9718 110.617C99.7982 113.054 99.8702 114.462 100.319 116.864C100.603 118.383 101.36 120.682 101.36 120.682H93.0306L93.7247 99.8581L87.1306 90.1405L72.9012 81.8111L65.96 75.9111V65.8464L74.2894 51.964L78.4541 37.3875Z" fill="#D03032"/>
<path d="M78.7823 40.164C78.5243 43.389 78.0746 46.566 77.3439 49.5346C76.1087 54.5529 74.0709 58.9759 70.8 62.0287C69.6833 63.071 68.6739 64.0507 67.6764 64.9301C65.3526 66.9791 63.0937 68.4842 59.6941 68.9699C58.0787 68.5391 56.5899 67.9747 55.1823 67.287C52.0538 65.7584 49.327 63.6206 46.5059 60.9876C43.7521 58.4173 41.9694 55.2644 40.7469 51.5288C39.6583 48.2026 39.0139 44.4143 38.5235 40.164C38.5235 39.6986 38.5314 39.2358 38.547 38.7758C39.0591 23.7032 47.865 11.7052 58.6529 11.7052C69.2747 11.7052 77.975 23.3365 78.7293 38.0817C78.7644 38.7693 78.7823 39.4637 78.7823 40.164Z" fill="#FFDFC1"/>
<path d="M38.5235 40.164C38.5235 39.6986 38.5314 39.2358 38.547 38.7758C38.547 38.7758 37.5251 38.3859 37.1353 38.7758C35.747 40.164 35.837 41.0124 35.747 41.5523C35.6029 42.417 35.4979 44.6668 35.747 46.4111C35.9656 47.9409 36.2925 48.7416 36.7882 50.2287C37.1353 51.2699 38.1764 51.964 38.1764 51.964C38.1764 51.964 39.2176 52.6581 40.2588 52.3111C40.6004 52.1972 40.7469 51.5288 40.7469 51.5288C39.6583 48.2026 39.0139 44.4143 38.5235 40.164Z" fill="#FFDFC1"/>
<path d="M78.7293 38.0817C78.7644 38.7693 78.7823 39.4637 78.7823 40.164C78.5243 43.389 78.0746 46.566 77.3439 49.5346C77.3439 49.5346 78.1102 50.1496 78.7823 50.2287C79.5849 50.3233 80.8647 49.5346 80.8647 49.5346C80.8647 49.5346 82.747 47.9487 83.2941 46.4111C83.8864 44.7462 83.4276 42.7858 82.947 41.2052L82.9317 41.1546C82.3376 39.2005 81.8911 37.7317 80.1706 37.3876C79.558 37.265 78.7293 38.0817 78.7293 38.0817Z" fill="#FFDFC1"/>
<path d="M59.6941 68.9699C58.0787 68.5391 56.5899 67.9747 55.1823 67.287C55.1823 67.287 56.1463 71.2629 55.1823 73.4817C54.8674 74.2065 54.5914 74.5675 54.1411 75.217C51.1333 79.5551 47.8941 80.4229 42.3411 82.1581C37.2959 83.7348 33.518 83.2138 29.847 87.017C28.5667 88.3433 27.882 89.1793 27.0706 90.8346C25.9122 93.1976 25.7741 94.7987 25.6823 97.4287C25.6014 99.7473 26.3764 103.329 26.3764 103.329L27.0706 110.617L27.7647 119.293L93.7058 120.682C93.7058 120.682 95.131 115.02 95.4411 111.311C95.701 108.205 95.836 106.449 95.7882 103.329C95.7529 101.021 95.4411 96.4824 95.4411 96.4824C95.4411 96.4824 95.1241 94.9648 94.747 94.053C94.2463 92.8423 93.7672 92.1298 93.0117 91.1817C91.9808 89.8878 89.5411 88.7523 89.5411 88.7523L79.4764 83.5464C79.4764 83.5464 72.7875 80.4624 69.4117 77.2993C68.8523 76.7751 68.7293 76.5887 68.3705 75.9111C67.9848 75.1825 67.7862 74.6458 67.6764 73.8287C67.2137 70.3846 67.6764 64.9301 67.6764 64.9301C65.3526 66.9791 63.0937 68.4842 59.6941 68.9699Z" fill="#FFDFC1"/>
<path d="M70.8 55.1824C70.8 55.1824 70.1853 52.9497 69.4118 51.7118C67.8747 49.2519 65.7665 49.0247 63.5118 47.2C61.7176 45.7481 60.4812 45.1525 59 43.3824C58.0592 42.2581 57.6838 41.5088 56.9176 40.2588C55.7135 38.2944 54.9063 37.2263 54.1412 35.053C53.4967 33.2225 53.1 30.1941 53.1 30.1941V18.7412C53.1 18.7412 53.4471 19.0883 53.1 19.7824C52.7529 20.4765 52.7529 20.8236 52.0588 22.2118C51.2344 23.8606 50.6808 24.8622 49.6294 26.3765C48.0642 28.6308 45.4647 31.9294 45.4647 31.9294L42.6882 35.053L38.695 38.9654C38.695 38.9654 38.0009 38.6184 37.6539 38.6184C37.3068 38.6184 33.3176 39.2177 33.3176 39.2177C33.3176 39.2177 33.2697 32.1712 33.6647 28.8059C33.9715 26.1922 35.0529 22.2118 35.0529 22.2118C35.0529 22.2118 36.5054 17.1715 38.5235 14.6713C40.0296 12.8055 41.23 11.8157 43.3823 10.7588C45.4825 9.7276 47.8941 9.37061 49.2823 9.37061C50.6706 9.37061 54.8353 9.71767 54.8353 9.71767C54.8353 9.71767 56.3118 7.90951 57.6118 7.28825C59.6906 6.29473 61.2319 6.17575 63.5117 6.50925C65.7916 6.84275 68.1165 7.59693 70.8 8.93866C73.5765 10.3269 75.269 12.3665 76.7 13.7975C77.7412 14.8387 80.8647 20.7387 80.8647 20.7387C80.8647 20.7387 82.7491 25.5795 83.6412 28.8059C84.4844 31.8556 85.0294 36.7034 85.0294 36.7034L78.9539 37.5772L78.4353 44.4235C78.4353 44.4235 77.7013 42.2579 77.0471 40.953C76.2551 39.3732 75.7332 38.5058 74.6176 37.1353C73.2248 35.4242 70.4529 33.3177 70.4529 33.3177C70.4529 33.3177 67.4501 30.7257 65.2471 29.5C63.816 28.7038 61.4294 27.7647 61.4294 27.7647C61.4294 27.7647 60.1212 26.9731 59.3471 26.3765C57.4477 24.9129 55.1823 21.8647 55.1823 21.8647C55.1823 21.8647 55.0125 27.61 55.5294 31.2353C55.6458 32.0515 55.5294 31.2353 55.8765 33.3177C56.1316 34.8486 56.2442 35.219 56.9176 36.4412C57.7372 37.9286 58.6782 38.8979 59.6941 40.2588C60.726 41.6412 62.8176 43.3824 62.8176 43.3824C62.8176 43.3824 64.7214 45.2861 65.9412 46.5059C66.8899 47.4546 68.3706 48.9353 68.3706 48.9353C68.3706 48.9353 69.6086 50.0832 70.1059 51.0177C70.8804 52.4733 70.8 55.1824 70.8 55.1824Z" fill="#D03032"/>
<path d="M50.3235 89.5412C48.0186 86.7118 46.8529 80.8647 46.8529 80.8647L35.0529 83.6412C35.0529 83.6412 37.1388 85.6124 38.1764 87.1118C39.6957 89.307 40.5485 90.797 41.3 93.3588C42.0715 95.989 42.2218 97.5684 41.9941 100.3C41.7946 102.693 40.9985 103.915 40.2588 106.2C39.2816 109.219 37.4823 113.835 37.4823 113.835L40.2588 118.347L68.7176 121.818L85.3764 112.1C85.3764 112.1 83.2938 108.59 82.2529 106.2C81.2774 103.96 80.6045 102.705 80.1706 100.3C79.6892 97.6324 79.7634 96.0388 80.1706 93.3588C80.6664 90.0958 82.947 85.3765 82.947 85.3765L74.2706 80.5176C74.2706 80.5176 72.8823 86.4176 71.147 89.5412C69.7035 92.1396 68.3676 93.6777 65.5941 94.7471C62.9384 95.771 60.717 96.1435 57.9588 95.4412C54.3887 94.5321 52.7082 92.4689 50.3947 89.6285L50.3235 89.5412Z" fill="#5C5778"/>
</g>
</svg>
