<?xml version="1.0" encoding="utf-8"?>
<!-- Generator: Adobe Illustrator 27.5.0, SVG Export Plug-In . SVG Version: 6.00 Build 0)  -->
<svg version="1.1" xmlns="http://www.w3.org/2000/svg" xmlns:xlink="http://www.w3.org/1999/xlink" x="0px" y="0px"
	 viewBox="0 0 153 187" style="enable-background:new 0 0 153 187;" xml:space="preserve">
<style type="text/css">
	.st0{display:none;}
	.st1{display:inline;}
	.st2{opacity:0.2;fill:#FFFFFF;enable-background:new    ;}
	.st3{filter:url(#Adobe_OpacityMaskFilter);}
	.st4{fill:url(#SVGID_00000125578233543002341170000008567818612696178104_);}
	.st5{mask:url(#SVGID_1_);}
	.st6{fill:#E0E0E0;}
	.st7{fill:#F5F5F5;}
	.st8{fill:#FF725E;}
	.st9{fill:#455A64;}
	.st10{fill:#263238;}
	.st11{fill:#EBEBEB;}
	.st12{fill:#FFFFFF;}
	.st13{opacity:0.2;}
	.st14{fill:#6F4439;}
	.st15{fill:#FAFAFA;}
	.st16{opacity:0;}
	.st17{filter:url(#Adobe_OpacityMaskFilter_00000115483173052194001330000005249148214004101044_);}
	.st18{fill:url(#SVGID_00000003100552874614110340000006392522909144390812_);}
	.st19{display:none;mask:url(#Layer_2_00000135689758634705147890000012446505764842924202_);}
	.st20{fill:#E8E0FF;}
	.st21{opacity:0.66;}
	.st22{fill:#B49EFF;}
	.st23{fill:none;stroke:#000000;stroke-linecap:round;stroke-miterlimit:10;}
	.st24{fill:none;stroke:#1C1C1B;stroke-miterlimit:10;}
	.st25{stroke:#000000;stroke-miterlimit:10;}
	.st26{fill:none;stroke:#000000;stroke-linecap:round;stroke-linejoin:round;stroke-miterlimit:10;}
	.st27{fill:#1D1D1B;}
	.st28{fill:#FF6363;}
	.st29{fill:#7A5CE0;}
	.st30{clip-path:url(#SVGID_00000009549960537852717620000007598935180207328187_);}
	.st31{clip-path:url(#SVGID_00000134930959342834094180000014004058074793184438_);}
	.st32{fill:none;stroke:#1C1C1B;stroke-linecap:round;stroke-linejoin:round;stroke-miterlimit:10;}
	.st33{fill:none;stroke:#7A5CE0;stroke-linecap:round;stroke-linejoin:round;stroke-miterlimit:10;}
</style>
<g id="Layer_1">
	<g id="Layer_1_00000095316179837353520770000004011226029952573621_" class="st0">
		<g class="st1">
			<g id="Mask-_x2B_-Mask-Mask" transform="translate(14.000000, 0.000000)">
				<g id="Mask">
				</g>
				<g id="Mask_1_">
					<path class="st2" d="M138,141.2c-3.6,0.5-7.3,0.8-11,0.8c-29.6,0-55.4-16.5-68.6-40.9c-6-11-9.4-23.7-9.4-37.1
						c0-26.5,13.2-49.9,33.4-64H138v129.5"/>
				</g>
				<g id="Mask_2_">
					<path class="st2" d="M138,141.2V187H-15c0.2-43.3,31.9-79.1,73.4-85.9c4.6-0.8,9.3-1.1,14.1-1.1c26.1,0,49.5,11.4,65.5,29.5"/>
				</g>
			</g>
		</g>
	</g>
	<g id="Layer_2_00000098938947789803221550000010226138430721503643_">
		<defs>
			<filter id="Adobe_OpacityMaskFilter" filterUnits="userSpaceOnUse" x="-8.5" y="23.7" width="259.8" height="149.2">
				<feColorMatrix  type="matrix" values="1 0 0 0 0  0 1 0 0 0  0 0 1 0 0  0 0 0 1 0"/>
			</filter>
		</defs>
		<mask maskUnits="userSpaceOnUse" x="-8.5" y="23.7" width="259.8" height="149.2" id="SVGID_1_">
			<g class="st3">
				
					<linearGradient id="SVGID_00000056414508962334276070000013740609380700251576_" gradientUnits="userSpaceOnUse" x1="-0.1809" y1="100.8511" x2="152.8192" y2="100.8511" gradientTransform="matrix(-1 0 0 1 152.6383 0)">
					<stop  offset="0" style="stop-color:#FFFFFF"/>
					<stop  offset="0.6029" style="stop-color:#231F20"/>
				</linearGradient>
				<polygon style="fill:url(#SVGID_00000056414508962334276070000013740609380700251576_);" points="-0.2,26.3 152.8,26.3 
					152.8,175.5 -0.2,175.5 				"/>
			</g>
		</mask>
		<g class="st5">
			<g id="Background_Complete">
				<g>
					<g>
						<g>
							<path class="st6" d="M76.8,31.2c1.6-1,3.3-1.7,5.2-2.2l1.1-5.1l8.6-0.2l1.2,5c1.8,0.4,3.5,1.1,5.2,2l4.3-2.8l6.2,6l-2.7,4.4
								c1,1.6,1.7,3.3,2.2,5.2l5.1,1.1l0.2,8.6l-5,1.2c-0.4,1.8-1.1,3.5-2,5.2l2.8,4.4l-6,6.2l-4.4-2.7c-1.6,1-3.3,1.7-5.2,2.2
								l-1.1,5.1L83.9,75l-1.2-5c-1.8-0.4-3.5-1.1-5.2-2l-4.4,2.8l-6.2-6l2.7-4.4c-1-1.6-1.7-3.3-2.2-5.2l-5.1-1.1l-0.2-8.6l5-1.2
								c0.4-1.8,1.1-3.5,2-5.2l-2.8-4.4l6-6.2L76.8,31.2L76.8,31.2z M81.4,42.7c-3.5,3.7-3.4,9.5,0.2,13.1c3.7,3.5,9.5,3.4,13.1-0.2
								c3.5-3.7,3.4-9.5-0.2-13.1C90.7,38.9,84.9,39,81.4,42.7z"/>
						</g>
					</g>
				</g>
				<g>
					<g>
						<g>
							<path class="st7" d="M36.4,34.5c1-0.6,2.1-1.1,3.3-1.4l0.7-3.2l5.5-0.1l0.8,3.2c1.1,0.3,2.2,0.7,3.3,1.3l2.8-1.8l3.9,3.8
								L55,39.1c0.6,1,1.1,2.1,1.4,3.3l3.2,0.7v5.4l-3.2,0.8c-0.3,1.1-0.7,2.2-1.3,3.3l1.8,2.8l-3.8,3.9l-2.8-1.7
								c-1,0.6-2.1,1.1-3.3,1.4l-0.7,3.2l-5.5,0.1L40,59.1c-1.1-0.3-2.2-0.7-3.3-1.3l-2.8,1.8L30,55.8l1.7-2.8
								c-0.6-1-1.1-2.1-1.4-3.3L27.1,49L27,43.5l3.2-0.8c0.3-1.1,0.7-2.2,1.3-3.3l-1.8-2.8l3.8-3.9L36.4,34.5L36.4,34.5z M39.3,41.8
								c-2.2,2.3-2.2,6,0.2,8.3c2.3,2.2,6,2.2,8.3-0.2s2.2-6-0.2-8.3C45.3,39.4,41.6,39.5,39.3,41.8z"/>
						</g>
					</g>
				</g>
				<g>
					<g>
						<g>
							<path class="st7" d="M227,90.7c1.1-0.7,2.2-1.1,3.4-1.5l0.7-3.4l5.7-0.1l0.8,3.4c1.2,0.3,2.4,0.7,3.5,1.4l2.9-1.9l4.1,4
								l-1.8,2.9c0.7,1.1,1.1,2.2,1.5,3.4l3.4,0.7l0.1,5.7l-3.4,0.8c-0.3,1.2-0.7,2.4-1.4,3.5l1.9,2.9l-4,4.1l-2.9-1.8
								c-1.1,0.7-2.2,1.1-3.4,1.5l-0.7,3.4l-5.7,0.1l-0.8-3.4c-1.2-0.3-2.4-0.7-3.5-1.4l-2.9,1.9l-4.1-4l1.8-2.9
								c-0.7-1.1-1.1-2.2-1.5-3.4l-3.4-0.7l-0.1-5.7l3.4-0.8c0.3-1.2,0.7-2.4,1.4-3.5l-1.9-2.9l4-4.1L227,90.7L227,90.7z
								 M230.1,98.3c-2.4,2.4-2.3,6.3,0.2,8.7c2.4,2.4,6.3,2.3,8.7-0.2c2.4-2.4,2.3-6.3-0.2-8.7C236.3,95.8,232.4,95.9,230.1,98.3z"
								/>
						</g>
					</g>
				</g>
				<g>
					<g>
						<g>
							<path class="st6" d="M25.5,67.9c1.2-0.7,2.4-1.3,3.7-1.6l0.8-3.7l6.3-0.1l0.9,3.7c1.3,0.3,2.6,0.8,3.8,1.5l3.1-2.1l4.5,4.3
								l-2,3.2c0.7,1.2,1.3,2.4,1.6,3.7l3.7,0.8l0.1,6.3l-3.7,0.9c-0.3,1.3-0.8,2.6-1.5,3.8l2.1,3.1l-4.3,4.5l-3.2-2
								c-1.2,0.7-2.4,1.3-3.7,1.6l-0.8,3.7l-6.2,0.1l-0.9-3.7c-1.3-0.3-2.6-0.8-3.8-1.5L23,96.5l-4.5-4.3l2-3.2
								c-0.7-1.2-1.3-2.4-1.6-3.7l-3.7-0.8L15,78.3l3.7-0.9c0.3-1.3,0.8-2.6,1.5-3.8l-2.1-3.1l4.3-4.5L25.5,67.9L25.5,67.9z
								 M28.9,76.2c-2.6,2.7-2.5,6.9,0.2,9.5c2.7,2.6,6.9,2.5,9.5-0.2c2.6-2.7,2.5-6.9-0.2-9.5C35.7,73.4,31.4,73.5,28.9,76.2z"/>
						</g>
					</g>
				</g>
			</g>
			<g id="Floor">
				<g>
					<g>
						<path class="st8" d="M-8.5,172.9c86.4,0,172.7,0,259.1,0"/>
					</g>
				</g>
			</g>
			<g id="Character_2">
				<g id="Device">
					<g>
						<g>
							<g>
								<g>
									<g>
										<g>
											<g>
												<g>
													<g>
														<g>
															<g>
																<path class="st9" d="M206.7,170.2H39.4c-3.1,0-5.7-2.6-5.7-5.7V57.7c0-3.1,2.6-5.7,5.7-5.7h167.4
																	c3.1,0,5.7,2.6,5.7,5.7v106.8C212.5,167.7,209.9,170.2,206.7,170.2z"/>
															</g>
														</g>
													</g>
												</g>
											</g>
											<g>
												<g>
													<g>
														<g>
															<g>
																<path class="st9" d="M213.4,172.9H33.6c-3.9,0-7-3.1-7-7v-3.3h193.8v3.3C220.4,169.8,217.3,172.9,213.4,172.9z"/>
															</g>
														</g>
													</g>
												</g>
											</g>
											<g>
												<g>
													<g>
														<g>
															<g>
																<polygon class="st10" points="105.4,161.5 107.8,165.3 141.7,165.3 143.9,161.5 																"/>
															</g>
														</g>
													</g>
												</g>
											</g>
										</g>
										<g>
											<g>
												<g>
													<g>
														<g>
															<g>
																<g>
																	<g>
																		<g>
																			<path class="st11" d="M202.8,156.2H43.2c-0.7,0-1.3-0.6-1.3-1.3V61.3c0-0.7,0.6-1.3,1.3-1.3h159.5
																				c0.7,0,1.3,0.6,1.3,1.3v93.6C204,155.6,203.5,156.2,202.8,156.2z"/>
																		</g>
																	</g>
																</g>
															</g>
														</g>
													</g>
													<g>
														<g>
															<g>
																<g>
																	<g>
																		<g>
																			<polygon class="st12" points="203.9,156.4 41.7,156.4 41.9,67.2 203.9,67.2 																			"/>
																		</g>
																	</g>
																</g>
															</g>
														</g>
													</g>
													<g>
														<g>
															<g>
																<g>
																	<g>
																		<g>
																			<path class="st10" d="M55.2,63.8c0,0.7-0.6,1.3-1.3,1.3s-1.3-0.6-1.3-1.3s0.6-1.3,1.3-1.3S55.2,63.1,55.2,63.8z"
																				/>
																		</g>
																	</g>
																</g>
															</g>
														</g>
													</g>
													<g>
														<g>
															<g>
																<g>
																	<g>
																		<g>
																			<path class="st10" d="M47.3,63.8c0,0.7-0.6,1.3-1.3,1.3s-1.3-0.6-1.3-1.3s0.6-1.3,1.3-1.3
																				C46.8,62.5,47.3,63.1,47.3,63.8z"/>
																		</g>
																	</g>
																</g>
															</g>
														</g>
													</g>
													<g>
														<g>
															<g>
																<g>
																	<g>
																		<g>
																			<path class="st10" d="M51.1,63.8c0,0.7-0.6,1.3-1.3,1.3s-1.3-0.6-1.3-1.3s0.6-1.3,1.3-1.3S51.1,63.1,51.1,63.8z"
																				/>
																		</g>
																	</g>
																</g>
															</g>
														</g>
													</g>
												</g>
											</g>
										</g>
										<g>
											<g>
												<g>
													<g>
														<g>
															<path class="st10" d="M210.9,161.5c0,0.1-39.7,0.1-88.7,0.1s-88.7,0-88.7-0.1s39.7-0.1,88.7-0.1
																C171.2,161.3,210.9,161.4,210.9,161.5z"/>
														</g>
													</g>
												</g>
											</g>
										</g>
									</g>
								</g>
							</g>
						</g>
						<g>
							<g>
								<path class="st6" d="M180.5,146.5h-2.4c-0.1,0-0.2-0.1-0.2-0.2s0.1-0.2,0.2-0.2h2.2V144c0-0.1,0.1-0.2,0.2-0.2
									s0.2,0.1,0.2,0.2v2.4C180.7,146.4,180.7,146.5,180.5,146.5z"/>
							</g>
							<g>
								<path class="st6" d="M173.6,146.5H169c-0.1,0-0.2-0.1-0.2-0.2s0.1-0.2,0.2-0.2h4.6c0.1,0,0.2,0.1,0.2,0.2
									S173.7,146.5,173.6,146.5z M164.4,146.5h-4.6c-0.1,0-0.2-0.1-0.2-0.2s0.1-0.2,0.2-0.2h4.6c0.1,0,0.2,0.1,0.2,0.2
									S164.5,146.5,164.4,146.5z M155.3,146.5h-4.6c-0.1,0-0.2-0.1-0.2-0.2s0.1-0.2,0.2-0.2h4.6c0.1,0,0.2,0.1,0.2,0.2
									S155.4,146.5,155.3,146.5z M146.1,146.5h-4.6c-0.1,0-0.2-0.1-0.2-0.2s0.1-0.2,0.2-0.2h4.6c0.1,0,0.2,0.1,0.2,0.2
									S146.2,146.5,146.1,146.5z"/>
							</g>
							<g>
								<path class="st6" d="M136.9,146.5h-2.4c-0.1,0-0.2-0.1-0.2-0.2V144c0-0.1,0.1-0.2,0.2-0.2c0.1,0,0.2,0.1,0.2,0.2v2.2h2.2
									c0.1,0,0.2,0.1,0.2,0.2S137,146.5,136.9,146.5z"/>
							</g>
							<g>
								<path class="st6" d="M134.5,139.3c-0.1,0-0.2-0.1-0.2-0.2v-4.9c0-0.1,0.1-0.2,0.2-0.2c0.1,0,0.2,0.1,0.2,0.2v4.9
									C134.7,139.2,134.7,139.3,134.5,139.3z M134.5,129.4c-0.1,0-0.2-0.1-0.2-0.2v-4.9c0-0.1,0.1-0.2,0.2-0.2
									c0.1,0,0.2,0.1,0.2,0.2v4.9C134.7,129.3,134.7,129.4,134.5,129.4z M134.5,119.6c-0.1,0-0.2-0.1-0.2-0.2v-4.9
									c0-0.1,0.1-0.2,0.2-0.2c0.1,0,0.2,0.1,0.2,0.2v4.9C134.7,119.5,134.7,119.6,134.5,119.6z"/>
							</g>
							<g>
								<path class="st6" d="M134.5,109.7c-0.1,0-0.2-0.1-0.2-0.2v-2.4c0-0.1,0.1-0.2,0.2-0.2h2.4c0.1,0,0.2,0.1,0.2,0.2
									s-0.1,0.2-0.2,0.2h-2.2v2.2C134.7,109.6,134.7,109.7,134.5,109.7z"/>
							</g>
							<g>
								<path class="st6" d="M173.6,107.4H169c-0.1,0-0.2-0.1-0.2-0.2s0.1-0.2,0.2-0.2h4.6c0.1,0,0.2,0.1,0.2,0.2
									S173.7,107.4,173.6,107.4z M164.4,107.4h-4.6c-0.1,0-0.2-0.1-0.2-0.2s0.1-0.2,0.2-0.2h4.6c0.1,0,0.2,0.1,0.2,0.2
									C164.6,107.3,164.5,107.4,164.4,107.4z M155.3,107.4h-4.6c-0.1,0-0.2-0.1-0.2-0.2s0.1-0.2,0.2-0.2h4.6
									c0.1,0,0.2,0.1,0.2,0.2S155.4,107.4,155.3,107.4z M146.1,107.4h-4.6c-0.1,0-0.2-0.1-0.2-0.2s0.1-0.2,0.2-0.2h4.6
									c0.1,0,0.2,0.1,0.2,0.2S146.2,107.4,146.1,107.4z"/>
							</g>
							<g>
								<path class="st6" d="M180.5,109.7c-0.1,0-0.2-0.1-0.2-0.2v-2.2h-2.2c-0.1,0-0.2-0.1-0.2-0.2s0.1-0.2,0.2-0.2h2.4
									c0.1,0,0.2,0.1,0.2,0.2v2.4C180.7,109.6,180.7,109.7,180.5,109.7z"/>
							</g>
							<g>
								<path class="st6" d="M180.5,139.3c-0.1,0-0.2-0.1-0.2-0.2v-4.9c0-0.1,0.1-0.2,0.2-0.2s0.2,0.1,0.2,0.2v4.9
									C180.7,139.2,180.7,139.3,180.5,139.3z M180.5,129.4c-0.1,0-0.2-0.1-0.2-0.2v-4.9c0-0.1,0.1-0.2,0.2-0.2s0.2,0.1,0.2,0.2
									v4.9C180.7,129.3,180.7,129.4,180.5,129.4z M180.5,119.6c-0.1,0-0.2-0.1-0.2-0.2v-4.9c0-0.1,0.1-0.2,0.2-0.2
									s0.2,0.1,0.2,0.2v4.9C180.7,119.5,180.7,119.6,180.5,119.6z"/>
							</g>
						</g>
					</g>
				</g>
				<g>
					<g>
						<g>
							<g>
								<path class="st7" d="M178.2,119.9h-44.6c-1,0-1.8-0.8-1.8-1.8V83c0-1,0.8-1.8,1.8-1.8h44.6c1,0,1.8,0.8,1.8,1.8v35.1
									C180,119.1,179.2,119.9,178.2,119.9z"/>
							</g>
							<g>
								<g>
									<path class="st10" d="M178.2,119.9c0,0,0.2,0,0.4-0.1c0.3-0.1,0.7-0.2,1-0.7c0.2-0.2,0.3-0.6,0.3-0.9c0-0.4,0-0.7,0-1.1
										c0-0.8,0-1.8,0-2.9c0-4.3,0-10.6,0-18.3c0-3.9,0-8.1,0-12.7c0-0.3,0-0.6-0.1-0.8s-0.2-0.5-0.4-0.7s-0.4-0.4-0.7-0.4
										c-0.3-0.1-0.6-0.1-0.8-0.1c-1.2,0-2.4,0-3.6,0c-2.4,0-4.9,0-7.5,0c-10.2,0-21.5,0-33.3,0c-0.7,0-1.4,0.5-1.6,1.1
										c-0.1,0.3-0.1,0.7-0.1,1.1v1.1c0,1.5,0,2.9,0,4.3c0,2.9,0,5.7,0,8.5c0,5.5,0,10.9,0,16c0,1.3,0,2.6,0,3.8
										c0,0.3,0,0.6,0,0.9s0.1,0.6,0.2,0.8c0.3,0.5,0.8,0.9,1.4,0.9c2.4,0,4.8,0,7,0c4.6,0,8.8,0,12.7,0c7.7,0,14,0,18.3,0
										c2.2,0,3.9,0,5,0c0.6,0,1,0,1.3,0C178.1,119.9,178.2,119.9,178.2,119.9s-0.2,0-0.4,0c-0.3,0-0.7,0-1.3,0c-1.1,0-2.8,0-5,0
										c-4.3,0-10.6,0-18.3,0c-3.9,0-8.1,0-12.7,0c-2.3,0-4.6,0-7,0c-0.6,0-1.3-0.4-1.6-0.9c-0.2-0.3-0.2-0.6-0.2-0.9s0-0.6,0-0.9
										c0-1.3,0-2.5,0-3.8c0-5.1,0-10.5,0-16c0-2.8,0-5.6,0-8.5c0-1.5,0-2.9,0-4.3v-1.1c0-0.4,0-0.7,0.1-1.1
										c0.3-0.7,1-1.3,1.8-1.3c11.8,0,23,0,33.3,0c2.6,0,5,0,7.5,0c1.2,0,2.4,0,3.6,0c0.3,0,0.6,0,0.9,0.1
										c0.3,0.1,0.6,0.2,0.8,0.5c0.2,0.2,0.4,0.5,0.5,0.7c0.1,0.3,0.1,0.6,0.1,0.9c0,4.6,0,8.8,0,12.7c0,7.7,0,14,0,18.3
										c0,1.1,0,2,0,2.9c0,0.4,0,0.8,0,1.1c0,0.4-0.2,0.7-0.3,0.9c-0.4,0.5-0.8,0.7-1.1,0.7C178.3,119.9,178.2,119.9,178.2,119.9z
										"/>
								</g>
							</g>
						</g>
						<g>
							<g>
								<g>
									<g>
										<g>
											<g>
												<g>
													<g>
														
															<rect x="139.6" y="78.9" transform="matrix(4.199889e-03 -1 1 4.199889e-03 54.5717 256.5483)" class="st9" width="33" height="44"/>
													</g>
												</g>
											</g>
										</g>
									</g>
								</g>
								<g class="st13">
									<g>
										<g>
											<g>
												<g>
													<g>
														<polygon points="134,117.2 149.4,96.8 158.9,109.7 165.3,102.8 177.9,117.4 														"/>
													</g>
												</g>
											</g>
										</g>
									</g>
								</g>
								<g class="st13">
									<g>
										<g>
											<g>
												<g>
													<g>
														<g>
															<g>
																<path d="M163,94.3c0,1.9-1.6,3.5-3.5,3.5s-3.5-1.6-3.5-3.5s1.6-3.5,3.5-3.5C161.4,90.9,163,92.4,163,94.3z"/>
															</g>
														</g>
													</g>
												</g>
											</g>
										</g>
									</g>
								</g>
							</g>
						</g>
					</g>
					<g>
						<g>
							<g>
								<g>
									<g>
										<path class="st14" d="M146.9,88.6c0,0,0-0.1,0.1-0.3c0-0.2,0.1-0.4,0.1-0.7c0-0.3,0.1-0.7,0.2-1.1c0-0.2,0.1-0.4,0.1-0.6
											s0.1-0.4,0.2-0.6c0.4-0.9,0.8-1.5,1.2-2c0.2-0.2,0.3-0.4,0.4-0.6c0.1-0.1,0.2-0.2,0.2-0.2s-0.1,0.1-0.2,0.2
											c-0.1,0.1-0.3,0.3-0.4,0.6c-0.4,0.5-0.9,1.2-1.2,2c-0.1,0.2-0.2,0.4-0.2,0.7c0,0.2-0.1,0.4-0.1,0.6
											c-0.1,0.4-0.1,0.7-0.2,1.1c0,0.3-0.1,0.6-0.1,0.7C146.9,88.5,146.9,88.6,146.9,88.6z"/>
									</g>
								</g>
							</g>
						</g>
						<g>
							<g>
								<g>
									<g>
										<path class="st14" d="M152.4,83.8c0,0,0,0-0.1,0.1c0,0.1-0.1,0.2-0.2,0.4c-0.2,0.3-0.5,0.8-0.7,1.3l0,0l0,0v0.1
											c-0.2,0.6-0.4,1.1-0.6,1.5c-0.1,0.2-0.1,0.4-0.2,0.4c0,0.1,0,0.2,0,0.2s0,0,0.1-0.2c0-0.1,0.1-0.2,0.2-0.4
											c0.2-0.4,0.4-0.9,0.6-1.4v-0.1l0,0c0.3-0.5,0.6-1,0.7-1.3c0.1-0.2,0.2-0.3,0.2-0.4S152.4,83.8,152.4,83.8z"/>
									</g>
								</g>
							</g>
						</g>
					</g>
				</g>
			</g>
			<g id="Code">
				<g>
					<g>
						<g>
							<path class="st12" d="M122.6,147.1H67.1c-1.9,0-3.4-1.5-3.4-3.4v-27.8c0-1.9,1.5-3.4,3.4-3.4h55.5c1.9,0,3.4,1.5,3.4,3.4
								v27.8C125.9,145.5,124.4,147.1,122.6,147.1z"/>
						</g>
						<g>
							<g>
								<path class="st10" d="M122.6,147.1c0,0,0.2,0,0.5,0s0.8-0.2,1.3-0.5s1.1-0.9,1.4-1.8c0.2-0.4,0.2-0.9,0.2-1.5
									c0-0.5,0-1.1,0-1.7c0-4.8,0-11.6,0-20.1c0-1.1,0-2.2,0-3.3c0-0.6,0-1.1,0-1.7s0-1.1-0.2-1.7c-0.4-1.1-1.3-2-2.4-2.2
									c-0.3-0.1-0.6-0.1-0.9-0.1s-0.6,0-0.9,0c-0.6,0-1.2,0-1.8,0c-5,0-10.3,0-16,0c-11.2,0-23.6,0-36.6,0c-0.8,0-1.6,0.3-2.2,0.8
									s-1,1.2-1.1,2c0,0.4,0,0.8,0,1.2c0,0.4,0,0.8,0,1.2c0,0.8,0,1.6,0,2.4c0,3.1,0,6.3,0,9.3c0,3.1,0,6.1,0,9c0,1.5,0,2.9,0,4.4
									c0,0.4,0,0.7,0,1.1c0,0.4,0.1,0.7,0.2,1c0.3,0.6,0.7,1.2,1.3,1.6c0.6,0.4,1.3,0.6,1.9,0.5c0.7,0,1.4,0,2.1,0
									c1.4,0,2.7,0,4,0c2.7,0,5.3,0,7.7,0c5,0,9.7,0,13.9,0c8.5,0,15.4,0,20.1,0c2.4,0,4.2,0,5.5,0c0.6,0,1.1,0,1.4,0
									C122.4,147.1,122.6,147.1,122.6,147.1s-0.2,0-0.5,0s-0.8,0-1.4,0c-1.3,0-3.1,0-5.5,0c-4.8,0-11.6,0-20.1,0
									c-4.2,0-8.9,0-13.9,0c-2.5,0-5.1,0-7.7,0c-1.3,0-2.7,0-4,0c-0.7,0-1.4,0-2.1,0s-1.5-0.2-2-0.6c-0.6-0.4-1.1-1-1.4-1.7
									c-0.2-0.4-0.2-0.7-0.2-1.1c0-0.4,0-0.7,0-1.1c0-1.5,0-2.9,0-4.4c0-2.9,0-5.9,0-9c0-3.1,0-6.2,0-9.3c0-0.8,0-1.6,0-2.4
									c0-0.4,0-0.8,0-1.2s0-0.8,0-1.2c0.1-0.8,0.6-1.6,1.2-2.1s1.5-0.9,2.3-0.9c13,0,25.3,0,36.6,0c5.6,0,11,0,16,0
									c0.6,0,1.3,0,1.8,0c0.3,0,0.6,0,0.9,0s0.6,0,0.9,0.1c1.2,0.3,2.2,1.2,2.6,2.4c0.2,0.6,0.2,1.2,0.2,1.7s0,1.1,0,1.7
									c0,1.1,0,2.2,0,3.3c0,8.5,0,15.4,0,20.1c0,0.6,0,1.1,0,1.7c0,0.5,0,1-0.2,1.5c-0.3,0.9-0.9,1.5-1.4,1.8
									c-0.6,0.3-1,0.4-1.3,0.5c-0.2,0-0.3,0-0.4,0C122.6,147.1,122.6,147.1,122.6,147.1z"/>
							</g>
						</g>
					</g>
					<g>
						<rect x="70.3" y="118.3" class="st8" width="9.2" height="1.7"/>
					</g>
					<g>
						<rect x="70.3" y="139.7" class="st8" width="9.2" height="1.7"/>
					</g>
					<g>
						<rect x="70.3" y="122.6" class="st6" width="15.9" height="1.7"/>
					</g>
					<g>
						<rect x="89.1" y="122.6" class="st8" width="7" height="1.7"/>
					</g>
					<g>
						<rect x="112.4" y="122.6" class="st10" width="4.6" height="1.7"/>
					</g>
					<g>
						<rect x="98.6" y="122.6" class="st9" width="12.3" height="1.7"/>
					</g>
					<g>
						<rect x="101.1" y="126.8" class="st6" width="15.9" height="1.7"/>
					</g>
					<g>
						<rect x="91.3" y="126.8" class="st9" width="7" height="1.7"/>
					</g>
					<g>
						<rect x="70.3" y="126.8" class="st10" width="4.6" height="1.7"/>
					</g>
					<g>
						<rect x="76.6" y="126.8" class="st8" width="12.3" height="1.7"/>
					</g>
					<g>
						<rect x="70.3" y="131" class="st6" width="15.9" height="1.7"/>
					</g>
					<g>
						<rect x="89.1" y="131" class="st10" width="7" height="1.7"/>
					</g>
					<g>
						<rect x="112.4" y="131" class="st10" width="4.6" height="1.7"/>
					</g>
					<g>
						<rect x="85.4" y="135.3" class="st8" width="4.6" height="1.7"/>
					</g>
					<g>
						<rect x="98.6" y="131" class="st9" width="12.3" height="1.7"/>
					</g>
					<g>
						<rect x="70" y="135.3" class="st9" width="12.3" height="1.7"/>
					</g>
				</g>
			</g>
			<g id="Text">
				<g>
					<g>
						<g>
							<g>
								<g>
									<g>
										<g>
											<path class="st15" d="M181.2,149.6h-19.4c-1.8,0-3.2-1.4-3.2-3.2v-18.6c0-1.8,1.4-3.2,3.2-3.2h19.4
												c1.8,0,3.2,1.4,3.2,3.2v18.6C184.4,148.1,183,149.6,181.2,149.6z"/>
										</g>
										<g>
											<g>
												<path class="st10" d="M181.2,149.6c0,0,0.4,0,0.9-0.2c0.3-0.1,0.7-0.3,1-0.6c0.4-0.3,0.7-0.7,0.9-1.3
													c0.1-0.3,0.2-0.6,0.2-0.9c0-0.3,0-0.7,0-1.1c0-0.7,0-1.5,0-2.4c0-1.7,0-3.7,0-5.9s0-4.6,0-7.1c0-0.6,0-1.3,0-2
													c0-0.3,0-0.7,0-1s-0.2-0.6-0.3-0.9c-0.3-0.6-0.8-1.1-1.4-1.4c-0.3-0.2-0.6-0.2-1-0.3c-0.4,0-0.7,0-1.1,0
													c-5.7,0-12.1,0-18.7,0c-0.8,0-1.6,0.3-2.2,0.9c-0.6,0.6-0.9,1.3-0.9,2.1c0,1.6,0,3.2,0,4.8c0,3.1,0,6.1,0,9
													c0,1.5,0,2.8,0,4.2c0,0.4,0,0.7,0,1s0.1,0.6,0.2,0.9c0.2,0.6,0.7,1.1,1.2,1.4c0.5,0.4,1.1,0.5,1.7,0.5
													c0.6,0,1.2,0,1.8,0c1.2,0,2.3,0,3.4,0c4.3,0,7.9,0,10.3,0c1.2,0,2.2,0,2.8,0c0.3,0,0.6,0,0.7,0
													C181.1,149.6,181.2,149.6,181.2,149.6s-0.1,0-0.2,0c-0.2,0-0.4,0-0.7,0c-0.6,0-1.6,0-2.8,0c-2.4,0-5.9,0-10.3,0
													c-1.1,0-2.2,0-3.4,0c-0.6,0-1.2,0-1.8,0s-1.3-0.2-1.8-0.5c-0.6-0.4-1-0.9-1.3-1.5c-0.1-0.3-0.2-0.7-0.2-1
													c0-0.4,0-0.7,0-1c0-1.4,0-2.8,0-4.2c0-2.9,0-5.9,0-9c0-1.6,0-3.1,0-4.8c0-0.8,0.4-1.7,1-2.2c0.6-0.6,1.5-0.9,2.3-0.9
													c6.6,0,12.9,0,18.7,0c0.4,0,0.7,0,1.1,0s0.7,0.2,1,0.3c0.7,0.3,1.2,0.8,1.5,1.5c0.4,0.6,0.4,1.3,0.4,2c0,0.7,0,1.3,0,2
													c0,2.6,0,5,0,7.1c0,2.2,0,4.1,0,5.9c0,0.9,0,1.7,0,2.4c0,0.4,0,0.7,0,1.1c0,0.4-0.1,0.7-0.2,0.9c-0.2,0.6-0.6,1-1,1.3
													s-0.7,0.5-1.1,0.6s-0.6,0.1-0.7,0.1C181.3,149.6,181.2,149.6,181.2,149.6z"/>
											</g>
										</g>
									</g>
								</g>
							</g>
						</g>
					</g>
					<g>
						<g>
							<path class="st10" d="M164.3,130.4h14v4.7h-0.7c-0.2-1.7-0.9-2.8-1.9-3.4c-0.6-0.3-1.5-0.5-2.6-0.6v12.3
								c0,0.9,0.2,1.4,0.4,1.7s0.9,0.4,1.9,0.4v0.6h-8.3v-0.6c0.9,0,1.5-0.2,1.8-0.4c0.3-0.3,0.4-0.9,0.4-1.7v-12.3
								c-1.1,0-2,0.2-2.6,0.6c-1.1,0.6-1.7,1.7-1.9,3.4h-0.6L164.3,130.4z"/>
						</g>
					</g>
				</g>
			</g>
			<g id="Tools">
				<g>
					<g>
						<g>
							<g>
								<g>
									<g>
										<path class="st12" d="M188.8,86.7v47.1c0,1.4,1.1,2.5,2.5,2.5h0.9h7.1h22.3c1.4,0,2.5-1.1,2.5-2.5V86.7
											c0-1.4-1.1-2.5-2.5-2.5h-30.3C189.9,84.2,188.8,85.3,188.8,86.7z"/>
									</g>
									<g>
										<g>
											<path class="st10" d="M188.8,86.7C188.8,86.7,188.8,86.7,188.8,86.7c0-0.2,0-0.3,0-0.4c0-0.3,0.2-0.7,0.5-1.2
												c0.4-0.4,1-0.9,1.8-0.9s1.8,0,2.9,0c4.3,0,10.6,0,18.3,0c1.9,0,4,0,6.1,0c1.1,0,2.1,0,3.2,0c1.1,0,2.3,0.8,2.6,1.9
												c0.1,0.3,0.1,0.6,0.1,0.9s0,0.6,0,0.9c0,0.6,0,1.1,0,1.7c0,1.2,0,2.4,0,3.6c0,2.4,0,4.9,0,7.5c0,10.2,0,21.4,0,33.2
												c0,0.8-0.4,1.5-0.9,2c-0.3,0.2-0.6,0.4-1,0.5s-0.7,0.1-1.1,0.1c-1.5,0-2.9,0-4.3,0c-2.9,0-5.7,0-8.5,0
												c-5.5,0-10.9,0-16,0c-0.3,0-0.6,0-0.9,0c-0.3,0-0.7,0-1-0.1c-0.6-0.2-1.1-0.6-1.5-1.2c-0.2-0.3-0.3-0.6-0.3-0.9
												s0-0.6,0-0.9c0-0.6,0-1.2,0-1.8c0-2.4,0-4.8,0-7c0-4.5,0-8.8,0-12.6c0-7.7,0-14,0-18.3c0-2.2,0-3.8,0-5c0-0.6,0-1,0-1.3
												C188.8,86.8,188.8,86.7,188.8,86.7s0,0.2,0,0.4c0,0.3,0,0.7,0,1.3c0,1.1,0,2.8,0,5c0,4.3,0,10.6,0,18.3
												c0,3.9,0,8.1,0,12.6c0,2.3,0,4.6,0,7c0,0.6,0,1.2,0,1.8c0,0.3,0,0.6,0,0.9c0,0.3,0.1,0.6,0.3,0.8
												c0.3,0.5,0.8,0.9,1.4,1.1c0.3,0.1,0.6,0.1,0.9,0.1s0.6,0,0.9,0c5.1,0,10.5,0,16,0c2.8,0,5.6,0,8.5,0c1.4,0,2.9,0,4.3,0
												c0.4,0,0.7,0,1.1-0.1c0.4-0.1,0.7-0.2,0.9-0.5c0.6-0.5,0.9-1.1,0.9-1.8c0-11.8,0-23,0-33.2c0-2.6,0-5,0-7.5
												c0-1.2,0-2.4,0-3.6c0-0.6,0-1.2,0-1.7c0-0.3,0-0.6,0-0.9s0-0.6-0.1-0.8c-0.3-1.1-1.3-1.8-2.4-1.8c-1.1,0-2.2,0-3.2,0
												c-2.1,0-4.1,0-6.1,0c-7.7,0-14,0-18.3,0c-1.1,0-2,0-2.9,0c-0.8,0-1.5,0.5-1.8,0.9c-0.4,0.4-0.5,0.9-0.6,1.1
												C188.8,86.6,188.8,86.7,188.8,86.7z"/>
										</g>
									</g>
								</g>
							</g>
						</g>
					</g>
					<g>
						<g>
							<g>
								<path class="st6" d="M198.7,127.7h-0.1c-0.6,0-1-0.4-1-1V94.2c0-0.6,0.4-1,1-1h0.1c0.6,0,1,0.4,1,1v32.6
									C199.7,127.3,199.2,127.7,198.7,127.7z"/>
							</g>
						</g>
						<g>
							<g>
								<g>
									<path class="st10" d="M198.7,127.7c0,0,0.3,0,0.6-0.3c0.4-0.3,0.2-1.1,0.3-2c0-1.8,0-4.4,0-7.7c0-3.2,0-7.1,0-11.4
										c0-2.1,0-4.4,0-6.7c0-1.2,0-2.4,0-3.5c0-0.6,0-1.2,0-1.8c0-0.2,0-0.3,0-0.4s-0.1-0.2-0.2-0.4c-0.2-0.2-0.4-0.3-0.7-0.3
										s-0.6,0.1-0.7,0.4c-0.1,0.1-0.1,0.2-0.2,0.4c0,0.1,0,0.3,0,0.4c0,0.6,0,1.2,0,1.8c0,1.2,0,2.4,0,3.5c0,2.3,0,4.6,0,6.7
										c0,4.3,0,8.1,0,11.4c0,3.2,0,5.8,0,7.7c0,0.4,0,0.9,0,1.2s0.2,0.6,0.4,0.7c0.2,0.2,0.4,0.2,0.5,0.2
										C198.6,127.7,198.7,127.7,198.7,127.7s-0.1,0-0.2,0c-0.1,0-0.3,0-0.5-0.2c-0.2-0.1-0.4-0.4-0.4-0.8s0-0.7,0-1.2
										c0-1.8,0-4.4,0-7.7c0-3.2,0-7.1,0-11.4c0-2.1,0-4.4,0-6.7c0-1.2,0-2.4,0-3.5c0-0.6,0-1.2,0-1.8c0-0.2,0-0.3,0-0.5
										s0.1-0.4,0.2-0.5c0.2-0.3,0.6-0.5,0.9-0.5c0.3,0,0.7,0.1,0.9,0.4c0.1,0.1,0.2,0.3,0.2,0.4c0,0.2,0,0.4,0,0.5
										c0,0.6,0,1.2,0,1.8c0,1.2,0,2.4,0,3.5c0,2.3,0,4.6,0,6.7c0,4.3,0,8.1,0,11.4c0,3.2,0,5.8,0,7.7c0,0.4,0,0.9,0,1.2
										s-0.2,0.7-0.3,0.8C199,127.8,198.7,127.7,198.7,127.7z"/>
								</g>
							</g>
						</g>
					</g>
					<g>
						<g>
							<g>
								<path class="st6" d="M206.5,127.7h-0.1c-0.6,0-1-0.4-1-1V94.2c0-0.6,0.4-1,1-1h0.1c0.6,0,1,0.4,1,1v32.6
									C207.5,127.3,207,127.7,206.5,127.7z"/>
							</g>
						</g>
						<g>
							<g>
								<g>
									<path class="st10" d="M206.5,127.7c0,0,0.3,0,0.6-0.3c0.4-0.3,0.2-1.1,0.3-2c0-1.8,0-4.4,0-7.7c0-3.2,0-7.1,0-11.4
										c0-2.1,0-4.4,0-6.7c0-1.2,0-2.4,0-3.5c0-0.6,0-1.2,0-1.8c0-0.2,0-0.3,0-0.4s-0.1-0.2-0.2-0.4c-0.2-0.2-0.4-0.3-0.7-0.3
										s-0.6,0.1-0.7,0.4c-0.1,0.1-0.1,0.2-0.2,0.4c0,0.1,0,0.3,0,0.4c0,0.6,0,1.2,0,1.8c0,1.2,0,2.4,0,3.5c0,2.3,0,4.6,0,6.7
										c0,4.3,0,8.1,0,11.4c0,3.2,0,5.8,0,7.7c0,0.4,0,0.9,0,1.2s0.2,0.6,0.4,0.7c0.2,0.2,0.4,0.2,0.5,0.2
										C206.5,127.7,206.5,127.7,206.5,127.7s-0.1,0-0.2,0c-0.1,0-0.3,0-0.5-0.2c-0.2-0.1-0.4-0.4-0.4-0.8s0-0.7,0-1.2
										c0-1.8,0-4.4,0-7.7c0-3.2,0-7.1,0-11.4c0-2.1,0-4.4,0-6.7c0-1.2,0-2.4,0-3.5c0-0.6,0-1.2,0-1.8c0-0.2,0-0.3,0-0.5
										s0.1-0.4,0.2-0.5c0.2-0.3,0.6-0.5,0.9-0.5c0.3,0,0.7,0.1,0.9,0.4c0.1,0.1,0.2,0.3,0.2,0.4c0,0.2,0,0.4,0,0.5
										c0,0.6,0,1.2,0,1.8c0,1.2,0,2.4,0,3.5c0,2.3,0,4.6,0,6.7c0,4.3,0,8.1,0,11.4c0,3.2,0,5.8,0,7.7c0,0.4,0,0.9,0,1.2
										s-0.2,0.7-0.3,0.8C206.8,127.8,206.5,127.7,206.5,127.7z"/>
								</g>
							</g>
						</g>
					</g>
					<g>
						<g>
							<g>
								<path class="st6" d="M214.4,127.7h-0.1c-0.6,0-1-0.4-1-1V94.2c0-0.6,0.4-1,1-1h0.1c0.6,0,1,0.4,1,1v32.6
									C215.3,127.3,214.9,127.7,214.4,127.7z"/>
							</g>
						</g>
						<g>
							<g>
								<g>
									<path class="st10" d="M214.4,127.7c0,0,0.3,0,0.6-0.3c0.4-0.3,0.2-1.1,0.3-2c0-1.8,0-4.4,0-7.7c0-3.2,0-7.1,0-11.4
										c0-2.1,0-4.4,0-6.7c0-1.2,0-2.4,0-3.5c0-0.6,0-1.2,0-1.8c0-0.2,0-0.3,0-0.4s-0.1-0.2-0.2-0.4c-0.2-0.2-0.4-0.3-0.7-0.3
										s-0.6,0.1-0.7,0.4c-0.1,0.1-0.1,0.2-0.2,0.4c0,0.1,0,0.3,0,0.4c0,0.6,0,1.2,0,1.8c0,1.2,0,2.4,0,3.5c0,2.3,0,4.6,0,6.7
										c0,4.3,0,8.1,0,11.4c0,3.2,0,5.8,0,7.7c0,0.4,0,0.9,0,1.2s0.2,0.6,0.4,0.7c0.2,0.2,0.4,0.2,0.5,0.2
										C214.3,127.7,214.4,127.7,214.4,127.7s-0.1,0-0.2,0s-0.3,0-0.5-0.2c-0.2-0.1-0.4-0.4-0.4-0.8s0-0.7,0-1.2
										c0-1.8,0-4.4,0-7.7c0-3.2,0-7.1,0-11.4c0-2.1,0-4.4,0-6.7c0-1.2,0-2.4,0-3.5c0-0.6,0-1.2,0-1.8c0-0.2,0-0.3,0-0.5
										s0.1-0.4,0.2-0.5c0.2-0.3,0.6-0.5,0.9-0.5c0.3,0,0.7,0.1,0.9,0.4c0.1,0.1,0.2,0.3,0.2,0.4c0,0.2,0,0.4,0,0.5
										c0,0.6,0,1.2,0,1.8c0,1.2,0,2.4,0,3.5c0,2.3,0,4.6,0,6.7c0,4.3,0,8.1,0,11.4c0,3.2,0,5.8,0,7.7c0,0.4,0,0.9,0,1.2
										s-0.2,0.7-0.3,0.8C214.7,127.8,214.4,127.7,214.4,127.7z"/>
								</g>
							</g>
						</g>
					</g>
					<g>
						<g>
							<path class="st8" d="M198.5,109.4h-0.4c-1.1,0-2-0.9-2-2l0,0c0-1.1,0.9-2,2-2h0.4c1.1,0,2,0.9,2,2l0,0
								C200.5,108.5,199.6,109.4,198.5,109.4z"/>
						</g>
					</g>
					<g>
						<g>
							<path class="st8" d="M206.8,116.9h-0.4c-1.1,0-2-0.9-2-2l0,0c0-1.1,0.9-2,2-2h0.4c1.1,0,2,0.9,2,2l0,0
								C208.9,116,207.9,116.9,206.8,116.9z"/>
						</g>
					</g>
					<g>
						<g>
							<path class="st8" d="M214.4,102.8H214c-1.1,0-2-0.9-2-2l0,0c0-1.1,0.9-2,2-2h0.4c1.1,0,2,0.9,2,2l0,0
								C216.4,101.9,215.5,102.8,214.4,102.8z"/>
						</g>
					</g>
				</g>
			</g>
			<g id="Colors">
				<g>
					<g>
						<g>
							<path class="st12" d="M55.2,154.8H18.8c-1.6,0-2.9-1.3-2.9-2.9v-36.3c0-1.6,1.3-2.9,2.9-2.9h36.3c1.6,0,2.9,1.3,2.9,2.9V152
								C58,153.6,56.8,154.8,55.2,154.8z"/>
						</g>
						<g>
							<g>
								<path class="st10" d="M55.2,154.8c0,0,0.2,0,0.4,0c0.3,0,0.7-0.2,1.1-0.4c0.4-0.3,1-0.8,1.1-1.6c0.1-0.3,0.1-0.8,0.1-1.3
									c0-0.4,0-1,0-1.5c0-4.1,0-10.1,0-17.5c0-3.7,0-7.8,0-12.1c0-1.1,0-2.2,0-3.3c0-0.5,0-1.1,0-1.7c0-0.5-0.3-1.1-0.6-1.6
									c-0.3-0.4-0.9-0.8-1.4-1c-0.5-0.2-1.1-0.1-1.7-0.1c-1.2,0-2.4,0-3.6,0c-9.8,0-20.5,0-31.7,0c-0.7,0-1.4,0.3-1.9,0.7
									c-0.5,0.4-0.8,1.1-0.9,1.7c0,1.4,0,2.8,0,4.1c0,2.8,0,5.4,0,8.1c0,5.3,0,10.5,0,15.3c0,2.4,0,4.8,0,7.2c0,0.6,0,1.1,0,1.7
									s0.1,1.1,0.3,1.6c0.2,0.3,0.3,0.4,0.5,0.6c0.2,0.2,0.4,0.3,0.7,0.4c0.5,0.3,1,0.3,1.6,0.3c4.3,0,8.4,0,12.1,0
									c7.3,0,13.4,0,17.5,0c2.1,0,3.6,0,4.8,0c0.5,0,1,0,1.2,0C55,154.8,55.2,154.8,55.2,154.8s-0.2,0-0.4,0s-0.7,0-1.2,0
									c-1.1,0-2.7,0-4.8,0c-4.1,0-10.1,0-17.5,0c-3.7,0-7.8,0-12.1,0c-0.5,0-1.1,0-1.6-0.3c-0.3-0.2-0.5-0.3-0.7-0.5
									c-0.2-0.2-0.4-0.4-0.5-0.7c-0.3-0.5-0.4-1.1-0.4-1.6c0-0.6,0-1.1,0-1.7c0-2.3,0-4.7,0-7.2c0-4.9,0-10,0-15.3
									c0-2.7,0-5.4,0-8.1c0-1.4,0-2.8,0-4.1c0.1-0.7,0.4-1.4,1-1.9c0.5-0.5,1.3-0.8,2-0.8c11.2,0,22,0,31.7,0c1.2,0,2.4,0,3.6,0
									c0.3,0,0.6,0,0.9,0c0.3,0,0.6,0,0.9,0.1c0.6,0.2,1.1,0.5,1.5,1c0.3,0.5,0.6,1,0.6,1.6s0,1.1,0,1.7c0,1.1,0,2.2,0,3.3
									c0,4.3,0,8.4,0,12.1c0,7.3,0,13.4,0,17.5c0,0.5,0,1,0,1.5s0,0.9-0.1,1.3c-0.3,0.8-0.7,1.3-1.2,1.6c-0.5,0.3-0.9,0.4-1.1,0.4
									c-0.2,0-0.3,0-0.3,0C55.3,154.8,55.2,154.8,55.2,154.8z"/>
							</g>
						</g>
					</g>
					<g>
						<g>
							<g>
								<g>
									<g>
										<g>
											<path class="st6" d="M39,133.5h-4.4c-2.2,0-3.9-1.7-3.9-3.9v-9.5h12.1v9.5C42.9,131.8,41.2,133.5,39,133.5z"/>
										</g>
									</g>
									<g>
										<g>
											<g>
												<path class="st10" d="M39,133.5c0,0,0.4,0,1.1-0.2c0.3-0.2,0.8-0.3,1.2-0.6c0.4-0.3,0.9-0.8,1.1-1.4
													c0.3-0.6,0.3-1.4,0.3-2.2s0-1.7,0-2.7c0-1.9,0-4,0-6.3l0.1,0.1c-2.5,0-5.4,0-8.3,0c-1.3,0-2.6,0-3.9,0l0.2-0.2
													c0,2.9,0,5.5,0,7.9c0,0.6,0,1.2,0,1.7c0,0.5,0.2,1.1,0.4,1.6c0.5,1,1.3,1.6,2.1,1.9s1.6,0.2,2.3,0.3c0.7,0,1.3,0,1.8,0
													s0.9,0,1.1,0C38.8,133.4,38.9,133.4,39,133.5C38.9,133.5,39,133.5,39,133.5S39,133.5,39,133.5c-0.2,0-0.3,0-0.4,0
													c-0.3,0-0.6,0-1.1,0c-0.5,0-1.1,0-1.8,0c-0.3,0-0.8,0-1.1,0c-0.4,0-0.9-0.1-1.3-0.3c-0.9-0.3-1.7-1-2.2-1.9
													c-0.3-0.5-0.4-1-0.4-1.6c0-0.6,0-1.1,0-1.7c0-2.4,0-5.1,0-7.9v-0.2h0.2c1.3,0,2.5,0,3.9,0c2.9,0,5.7,0,8.3,0H43v0.1
													c0,2.2,0,4.4,0,6.3c0,1,0,1.8,0,2.7c0,0.8-0.1,1.6-0.4,2.2s-0.8,1.1-1.2,1.5c-0.4,0.3-0.9,0.5-1.2,0.6
													C39.5,133.6,39,133.5,39,133.5z"/>
											</g>
										</g>
									</g>
								</g>
								<g>
									<g>
										<path class="st8" d="M30.8,120.2c1.7,1.3,3.6,2.2,5.8,2.1c2.2-0.1,4.6-0.8,6.3-2.1H30.8z"/>
									</g>
								</g>
								<g>
									<g>
										<g>
											<path class="st10" d="M42.9,122.1c0,0,0,0.1,0.1,0.3s0.2,0.4,0.2,0.8c0.2,0.7,0.4,1.6,0.7,2.9c0.2,0.6,0.3,1.3,0.5,1.9
												c0.1,0.3,0.2,0.7,0.3,1.1s0,0.8-0.2,1.2c-0.2,0.4-0.4,0.8-0.8,1c-0.3,0.3-0.8,0.3-1.3,0.3c-0.9,0-1.8,0-2.7,0
												c-0.5,0-1,0-1.4,0c-0.4,0-1,0-1.4-0.1c-0.9-0.2-1.6-0.7-2.2-1.3c-0.3-0.3-0.5-0.7-0.6-1c-0.2-0.3-0.3-0.7-0.3-1
												c-0.3-0.7-0.4-1.3-0.6-1.9c-0.3-1.1-0.7-2.1-1-2.8c-0.1-0.3-0.2-0.5-0.3-0.8c-0.1-0.2-0.1-0.3-0.1-0.3s0,0.1,0.1,0.3
												c0.1,0.2,0.2,0.4,0.3,0.8c0.3,0.7,0.6,1.6,1,2.7c0.2,0.6,0.4,1.2,0.7,1.9c0.3,0.7,0.4,1.5,1,2c0.5,0.6,1.2,1,2.1,1.2
												c0.4,0.1,0.9,0.1,1.3,0.1c0.4,0,1,0,1.4,0c1,0,1.8,0,2.7,0c0.4,0,0.8-0.2,1.1-0.3c0.3-0.3,0.6-0.5,0.8-0.9
												c0.2-0.3,0.2-0.8,0.2-1.1c-0.1-0.3-0.2-0.8-0.3-1.1c-0.2-0.7-0.3-1.4-0.4-1.9c-0.3-1.1-0.5-2.2-0.6-2.9
												c-0.1-0.3-0.1-0.6-0.2-0.8C42.9,122.2,42.8,122.1,42.9,122.1z"/>
										</g>
									</g>
								</g>
								<g>
									<g>
										<path class="st10" d="M32.5,122.6c0,0.3-0.3,0.7-0.7,0.7c-0.3,0-0.7-0.3-0.7-0.7s0.3-0.7,0.7-0.7
											C32.2,121.9,32.5,122.3,32.5,122.6z"/>
									</g>
								</g>
								<g>
									<g>
										<path class="st8" d="M42.7,120.3c0.1,0.3-0.3,0.5-0.3,0.9c0,0.5-0.3,1-0.9,1.3c0,0-0.1,0-0.1,0.1
											c-0.3,0.2-0.3,0.5-0.3,0.9c-0.1,0.5-0.2,1-0.3,1.6c0,0.3-0.1,0.6-0.3,1c-0.2,0.3-0.4,0.5-0.8,0.5c-0.5,0-0.8-0.5-0.8-1
											c-0.1-0.6,0-1.2-0.3-1.6c-0.2-0.3-0.5-0.3-0.8-0.3c-0.7,0.3-0.3,1.4-1,1.6c-0.2,0.1-0.4,0-0.5-0.1c-0.3-0.3-0.4-0.6-0.5-1
											c-0.2-0.6-0.3-1.2-0.4-1.8L42.7,120.3"/>
									</g>
								</g>
							</g>
							<g>
								<g>
									<circle class="st8" cx="25.5" cy="142" r="3.7"/>
								</g>
							</g>
							<g>
								<g>
									<circle class="st8" cx="37" cy="142" r="3.7"/>
								</g>
							</g>
							<g>
								<g>
									<circle class="st8" cx="48.6" cy="142" r="3.7"/>
								</g>
							</g>
							<g class="st16">
								<g>
									<circle class="st12" cx="25.5" cy="142" r="3.7"/>
								</g>
							</g>
							<g class="st13">
								<g>
									<circle cx="48.6" cy="142" r="3.7"/>
								</g>
							</g>
							<g>
								<g>
									<g>
										<path class="st10" d="M29.2,142c0,0,0-0.3-0.2-1c-0.2-0.6-0.5-1.4-1.4-2.1c-0.4-0.3-1-0.6-1.6-0.7
											c-0.6-0.1-1.3-0.1-1.9,0.2c-0.3,0.1-0.6,0.3-1,0.5c-0.3,0.2-0.5,0.5-0.8,0.8c-0.4,0.6-0.7,1.4-0.7,2.2s0.3,1.6,0.7,2.2
											c0.2,0.3,0.5,0.6,0.8,0.8c0.3,0.2,0.6,0.3,1,0.5c0.6,0.3,1.3,0.3,1.9,0.2c0.6-0.1,1.1-0.3,1.6-0.7
											c0.9-0.6,1.2-1.5,1.4-2.1C29.2,142.1,29.1,142,29.2,142c0,0,0,0.3-0.1,1c-0.2,0.6-0.5,1.5-1.4,2.1c-0.4,0.3-1,0.6-1.6,0.7
											c-0.6,0.1-1.3,0.1-2-0.2c-0.3-0.1-0.7-0.3-1-0.5c-0.3-0.2-0.6-0.5-0.8-0.8c-0.5-0.6-0.8-1.5-0.8-2.2s0.3-1.6,0.8-2.2
											c0.3-0.3,0.5-0.6,0.8-0.8c0.3-0.3,0.6-0.4,1-0.5c0.7-0.3,1.4-0.3,2-0.2c0.6,0.1,1.2,0.4,1.6,0.7c0.9,0.7,1.2,1.6,1.4,2.1
											C29.3,141.6,29.2,142,29.2,142z"/>
									</g>
								</g>
							</g>
							<g>
								<g>
									<g>
										<path class="st10" d="M40.8,142c0,0,0-0.3-0.2-1c-0.2-0.6-0.5-1.4-1.4-2.1c-0.4-0.3-1-0.6-1.6-0.7
											c-0.6-0.1-1.3-0.1-1.9,0.2c-0.3,0.1-0.6,0.3-1,0.5c-0.3,0.2-0.5,0.5-0.8,0.8c-0.4,0.6-0.7,1.4-0.7,2.2s0.3,1.6,0.7,2.2
											c0.2,0.3,0.5,0.6,0.8,0.8c0.3,0.2,0.6,0.3,1,0.5c0.6,0.3,1.3,0.3,1.9,0.2c0.6-0.1,1.1-0.3,1.6-0.7
											c0.9-0.6,1.2-1.5,1.4-2.1C40.8,142.3,40.8,142,40.8,142s0,0.3-0.1,1c-0.2,0.6-0.5,1.5-1.4,2.1c-0.4,0.3-1,0.6-1.6,0.7
											c-0.6,0.1-1.3,0.1-2-0.2c-0.3-0.1-0.7-0.3-1-0.5c-0.3-0.2-0.6-0.5-0.8-0.8c-0.5-0.6-0.8-1.5-0.8-2.2s0.3-1.6,0.8-2.2
											c0.3-0.3,0.5-0.6,0.8-0.8c0.3-0.3,0.6-0.4,1-0.5c0.7-0.3,1.4-0.3,2-0.2c0.6,0.1,1.2,0.4,1.6,0.7c0.9,0.7,1.2,1.6,1.4,2.1
											C40.8,141.6,40.8,142,40.8,142z"/>
									</g>
								</g>
							</g>
							<g>
								<g>
									<g>
										<path class="st10" d="M52.4,142c0,0,0-0.3-0.2-1s-0.5-1.4-1.4-2.1c-0.4-0.3-1-0.6-1.6-0.7c-0.6-0.1-1.3-0.1-1.9,0.2
											c-0.3,0.1-0.6,0.3-1,0.5c-0.3,0.2-0.5,0.5-0.8,0.8c-0.4,0.6-0.7,1.4-0.7,2.2s0.3,1.6,0.7,2.2c0.2,0.3,0.5,0.6,0.8,0.8
											c0.3,0.2,0.6,0.3,1,0.5c0.6,0.3,1.3,0.3,1.9,0.2c0.6-0.1,1.1-0.3,1.6-0.7c0.9-0.6,1.2-1.5,1.4-2.1S52.4,142,52.4,142
											s0,0.3-0.1,1c-0.2,0.6-0.5,1.5-1.4,2.1c-0.4,0.3-1,0.6-1.6,0.7c-0.6,0.1-1.3,0.1-2-0.2c-0.3-0.1-0.7-0.3-1-0.5
											c-0.3-0.2-0.6-0.5-0.8-0.8c-0.5-0.6-0.8-1.5-0.8-2.2s0.3-1.6,0.8-2.2c0.3-0.3,0.5-0.6,0.8-0.8c0.3-0.3,0.6-0.4,1-0.5
											c0.7-0.3,1.4-0.3,2-0.2c0.6,0.1,1.2,0.4,1.6,0.7c0.9,0.7,1.2,1.6,1.4,2.1C52.5,141.6,52.4,142,52.4,142z"/>
									</g>
								</g>
							</g>
						</g>
					</g>
				</g>
			</g>
			<g id="Character_1">
				<g>
					<g>
						<g>
							<g>
								<g>
									<g>
										<g>
											<path class="st12" d="M59.1,108.5c0.3,0.2,0.3,0.4,0.2,0.6s-0.4,0.3-0.6,0.2c-0.2,0-0.3-0.2-0.4-0.3
												c0-0.2,0.1-0.5,0.4-0.6C58.7,108.5,58.9,108.4,59.1,108.5z"/>
										</g>
									</g>
								</g>
							</g>
						</g>
					</g>
					<g>
						<g>
							<g>
								<path class="st12" d="M114.1,104.1H55.8c-1.9,0-3.4-1.5-3.4-3.4v-25c0-1.9,1.5-3.4,3.4-3.4h58.3c1.9,0,3.4,1.5,3.4,3.4v25
									C117.5,102.6,115.9,104.1,114.1,104.1z"/>
							</g>
							<g>
								<g>
									<path class="st10" d="M114.1,104.1c0,0,0.2,0,0.5,0s0.8-0.2,1.3-0.5s1.1-0.9,1.4-1.8c0.2-0.4,0.2-0.9,0.2-1.5
										c0-0.5,0-1.1,0-1.7c0-4.8,0-11.6,0-20.1c0-0.6,0-1.1,0-1.6c0-0.3,0-0.6,0-0.8s0-0.6,0-0.8c-0.2-1.1-0.9-2.1-1.9-2.6
										c-0.5-0.2-1.1-0.3-1.7-0.3s-1.2,0-1.8,0c-1.2,0-2.4,0-3.7,0c-5,0-10.3,0-16,0c-11.2,0-23.6,0-36.6,0
										c-0.8,0-1.6,0.3-2.2,0.8s-1,1.2-1.1,2c0,0.4,0,0.8,0,1.2c0,0.4,0,0.8,0,1.2c0,0.8,0,1.6,0,2.4c0,3.1,0,6.3,0,9.3
										c0,3.1,0,6.1,0,9c0,0.7,0,1.5,0,2.2s0.2,1.4,0.6,2c0.4,0.6,0.9,1,1.6,1.3c0.6,0.3,1.4,0.2,2,0.2c11.2,0,21.3,0,29.8,0
										s15.4,0,20.1,0c2.4,0,4.2,0,5.5,0c0.6,0,1.1,0,1.4,0C113.9,104.1,114.1,104.1,114.1,104.1s-0.2,0-0.5,0s-0.8,0-1.4,0
										c-1.3,0-3.1,0-5.5,0c-4.8,0-11.6,0-20.1,0s-18.6,0-29.8,0c-0.4,0-0.7,0-1.1,0s-0.7-0.1-1.1-0.2c-0.7-0.2-1.3-0.7-1.7-1.3
										c-0.4-0.6-0.6-1.4-0.6-2.1s0-1.5,0-2.2c0-2.9,0-5.9,0-9s0-6.2,0-9.3c0-0.8,0-1.6,0-2.4c0-0.4,0-0.8,0-1.2s0-0.8,0-1.2
										c0.1-0.8,0.6-1.6,1.2-2.1c0.6-0.6,1.5-0.9,2.3-0.9c13,0,25.3,0,36.6,0c5.6,0,11,0,16,0c1.3,0,2.5,0,3.7,0
										c0.6,0,1.2,0,1.8,0c0.6,0,1.2,0,1.7,0.3c1.1,0.5,1.8,1.5,2,2.7c0,0.3,0,0.6,0,0.8c0,0.3,0,0.6,0,0.8c0,0.6,0,1.1,0,1.6
										c0,8.5,0,15.4,0,20.1c0,0.6,0,1.1,0,1.7c0,0.5,0,1-0.2,1.5c-0.3,0.9-0.9,1.5-1.4,1.8c-0.6,0.3-1,0.4-1.3,0.5
										c-0.2,0-0.3,0-0.4,0C114.1,104.1,114.1,104.1,114.1,104.1z"/>
								</g>
							</g>
						</g>
						<g>
							<g>
								<polygon class="st11" points="68.2,87.2 68.2,91.4 78,95.6 78.1,91.6 72.6,89.2 78.1,86.8 78.1,82.9 								"/>
							</g>
							<g>
								<polygon class="st11" points="101.7,91.7 101.7,87.5 91.7,83.2 91.6,87.2 97.2,89.7 91.6,92.1 91.6,96 								"/>
							</g>
							<g>
								<path class="st11" d="M85.5,79.5c0,0.1-5.8,19.7-5.6,19.6c0.2,0,4.3,0,4.3,0l5.7-19.6H85.5L85.5,79.5z"/>
							</g>
						</g>
						<g>
							<path class="st6" d="M59.2,76.5c0,0.7-0.6,1.3-1.4,1.3c-0.7,0-1.4-0.6-1.4-1.3s0.6-1.3,1.4-1.3
								C58.5,75.2,59.2,75.8,59.2,76.5z"/>
						</g>
						<g>
							<path class="st6" d="M62.9,76.5c0,0.7-0.6,1.3-1.4,1.3c-0.7,0-1.4-0.6-1.4-1.3s0.6-1.3,1.4-1.3
								C62.3,75.2,62.9,75.8,62.9,76.5z"/>
						</g>
						<g>
							<path class="st6" d="M66.7,76.5c0,0.7-0.6,1.3-1.4,1.3s-1.4-0.6-1.4-1.3s0.6-1.3,1.4-1.3S66.7,75.8,66.7,76.5z"/>
						</g>
					</g>
				</g>
			</g>
		</g>
	</g>
</g>
<defs>
	
		<filter id="Adobe_OpacityMaskFilter_00000060726030758073610150000009820730117024034181_" filterUnits="userSpaceOnUse" x="13.8" y="19.2" width="139.5" height="152.4">
		<feColorMatrix  type="matrix" values="1 0 0 0 0  0 1 0 0 0  0 0 1 0 0  0 0 0 1 0"/>
	</filter>
</defs>
<mask maskUnits="userSpaceOnUse" x="13.8" y="19.2" width="139.5" height="152.4" id="Layer_2_00000097469967603640731190000012902221502624603303_">
	<g style="filter:url(#Adobe_OpacityMaskFilter_00000060726030758073610150000009820730117024034181_);">
		
			<linearGradient id="SVGID_00000172432336982805542070000008004840987788232577_" gradientUnits="userSpaceOnUse" x1="-193.8617" y1="658.2128" x2="-40.8617" y2="658.2128" gradientTransform="matrix(-1 0 0 -1 -40.7234 752)">
			<stop  offset="0" style="stop-color:#FFFFFF"/>
			<stop  offset="1" style="stop-color:#231F20"/>
		</linearGradient>
		
			<rect x="0.1" y="19.2" style="fill:url(#SVGID_00000172432336982805542070000008004840987788232577_);" width="153" height="149.2"/>
	</g>
</mask>
<g id="Layer_2" style="display:none;mask:url(#Layer_2_00000097469967603640731190000012902221502624603303_);">
	<g id="OBJECTS" class="st1">
		<g>
			<g>
				<g>
					<path class="st20" d="M145.5,67.2c-7.7-2.8-16.3-3.4-24.4-1.6c-2.4,0.5-4.8,1.3-6.7,2.8c-1.9,1.5-3.2,3.9-2.9,6.2
						c0.3,2,1.7,3.6,3.5,4.7s3.8,1.5,5.8,1.9c6.6,1.2,13.5,1.1,20.1-0.2c2.4-0.5,4.9-1.2,6.8-2.7C152.7,74.5,150.8,69.1,145.5,67.2z
						"/>
				</g>
			</g>
			<g class="st21">
				<path class="st22" d="M116.7,75h-0.9l-0.3,1.9h-0.9l0.3-1.9h-1.1v-0.8h1.2l0.2-1.3h-1.1v-0.8h1.2l0.3-1.9h0.8l-0.3,1.9h0.9
					l0.3-1.9h0.9l-0.3,1.9h1v0.8h-1.2l-0.2,1.3h1V75h-1.2l-0.3,1.9h-0.9L116.7,75z M115.9,74.2h0.9l0.2-1.3h-0.9L115.9,74.2z"/>
			</g>
			<g>
				<path class="st22" d="M118.9,76.2l2-3.1l-1.9-2.9h1.4l1.2,1.9l1.2-1.9h1.4l-1.9,2.9l2,3.1H123l-1.3-2.1l-1.3,2.1H118.9z"/>
				<path class="st22" d="M130.5,76.2h-1.3l-0.5-1.4h-2.4l-0.5,1.4h-1.3l2.3-6h1.3L130.5,76.2z M128.3,73.8l-0.8-2.2l-0.8,2.2H128.3
					z"/>
				<path class="st22" d="M131.1,76.2v-6h1.8l1.1,4.1l1.1-4.1h1.8v6h-1.1v-4.7l-1.2,4.7h-1.2l-1.2-4.7v4.7H131.1z"/>
				<path class="st22" d="M138.1,76.2v-6h1.9c0.7,0,1.2,0,1.4,0.1c0.3,0.1,0.6,0.3,0.9,0.6c0.2,0.3,0.3,0.7,0.3,1.2
					c0,0.4-0.1,0.7-0.2,0.9c-0.1,0.2-0.3,0.4-0.5,0.6s-0.4,0.2-0.6,0.3c-0.3,0.1-0.7,0.1-1.3,0.1h-0.8v2.3H138.1z M139.3,71.2v1.7
					h0.7c0.5,0,0.8,0,1-0.1c0.2-0.1,0.3-0.2,0.4-0.3c0.1-0.1,0.1-0.3,0.1-0.5c0-0.2-0.1-0.4-0.2-0.5c-0.1-0.1-0.3-0.2-0.5-0.3
					c-0.1,0-0.4,0-0.9,0H139.3z"/>
				<path class="st22" d="M143.6,76.2v-6h1.9c0.7,0,1.2,0,1.4,0.1c0.3,0.1,0.6,0.3,0.9,0.6c0.2,0.3,0.3,0.7,0.3,1.2
					c0,0.4-0.1,0.7-0.2,0.9c-0.1,0.2-0.3,0.4-0.5,0.6s-0.4,0.2-0.6,0.3c-0.3,0.1-0.7,0.1-1.3,0.1h-0.8v2.3H143.6z M144.9,71.2v1.7
					h0.7c0.5,0,0.8,0,1-0.1c0.2-0.1,0.3-0.2,0.4-0.3c0.1-0.1,0.1-0.3,0.1-0.5c0-0.2-0.1-0.4-0.2-0.5c-0.1-0.1-0.3-0.2-0.5-0.3
					c-0.1,0-0.4,0-0.9,0H144.9z"/>
			</g>
		</g>
		<g>
			<g>
				<g>
					<path class="st20" d="M143.3,21.9c-8.1-2.9-17-3.5-25.4-1.7c-2.5,0.5-5,1.3-7,2.9c-2,1.6-3.4,4-3,6.5c0.3,2,1.8,3.8,3.6,4.9
						s3.9,1.6,6,2c6.9,1.3,14.1,1.2,21-0.2c2.5-0.5,5.1-1.2,7.1-2.8C150.8,29.6,148.9,23.9,143.3,21.9z"/>
				</g>
			</g>
			<g>
				<path class="st22" d="M115.5,29.7h-1L114,32h-1l0.4-2.2h-1.2v-0.9h1.4l0.3-1.5h-1.2v-0.9h1.4l0.4-2.2h1l-0.4,2.2h1l0.4-2.2h1
					l-0.4,2.2h1.2v0.9h-1.3l-0.3,1.5h1.2v0.9h-1.4l-0.4,2.2h-1L115.5,29.7z M114.6,28.8h1l0.3-1.5h-1L114.6,28.8z"/>
				<g>
					<path class="st22" d="M119,31.7v-7.3h2.4c0.9,0,1.5,0,1.8,0.1c0.4,0.1,0.8,0.3,1.1,0.7c0.3,0.4,0.4,0.8,0.4,1.4
						c0,0.5-0.1,0.8-0.2,1.1c-0.2,0.3-0.4,0.5-0.6,0.7c-0.3,0.2-0.5,0.3-0.8,0.3c-0.4,0.1-0.9,0.1-1.5,0.1h-1v2.8H119z M120.4,25.6
						v2.1h0.8c0.6,0,1,0,1.2-0.1c0.2-0.1,0.4-0.2,0.5-0.4c0.1-0.2,0.2-0.4,0.2-0.6c0-0.3-0.1-0.5-0.2-0.7c-0.2-0.2-0.4-0.3-0.6-0.3
						c-0.2,0-0.5-0.1-1.1-0.1H120.4z"/>
					<path class="st22" d="M125.8,31.7v-7.3h1.5v2.9h2.9v-2.9h1.5v7.3h-1.5v-3.2h-2.9v3.2H125.8z"/>
					<path class="st22" d="M133.2,31.7v-7.3h2.4c0.9,0,1.5,0,1.8,0.1c0.4,0.1,0.8,0.3,1.1,0.7c0.3,0.4,0.4,0.8,0.4,1.4
						c0,0.5-0.1,0.8-0.2,1.1c-0.2,0.3-0.4,0.5-0.6,0.7c-0.3,0.2-0.5,0.3-0.8,0.3c-0.4,0.1-0.9,0.1-1.5,0.1h-1v2.8H133.2z
						 M134.7,25.6v2.1h0.8c0.6,0,1,0,1.2-0.1c0.2-0.1,0.4-0.2,0.5-0.4c0.1-0.2,0.2-0.4,0.2-0.6c0-0.3-0.1-0.5-0.2-0.7
						c-0.2-0.2-0.4-0.3-0.6-0.3c-0.2,0-0.5-0.1-1.1-0.1H134.7z"/>
				</g>
			</g>
		</g>
		<g>
			<path class="st20" d="M121.6,157.8c3.3-1.5,6.3-3.5,8.9-6c5.4-5.3,8.7-12.6,8.9-20.2c0.3-7.5-2.5-15.1-7.5-20.7
				c-2.6-2.9-5.7-5.2-8.3-8c-10-10.5-9.9-25.8-18.8-36.6c-3.7-4.5-8.8-7.7-14.1-10.2c-10.4-4.8-22.4-6.7-33.5-4.1
				c-14.3,3.3-27,15.9-31.4,29.9c-2.2,6.8-1.8,14.5,1.8,20.6c3.7,6.2,10.4,10,15.6,15.1c7.3,7.1,11.6,16.7,17.1,25.3
				c3,4.7,6.4,9.2,11,12.3c5.3,3.6,11.7,5,18,5.8C100.2,162.5,112,162.2,121.6,157.8z"/>
		</g>
		<g>
			<path class="st23" d="M103.1,106.1c0,1.4-0.7,2.5-1.6,2.5s-1.6-1.1-1.6-2.5s0.7-2.5,1.6-2.5C102.3,103.7,103.1,104.8,103.1,106.1
				z"/>
			<g>
				<g>
					<path class="st23" d="M151.8,48.7c1.3,1.7,1.4,4.2,0.2,6"/>
					<g>
						<g>
							<path class="st24" d="M145,54c-2.5,0-4.5-2.2-4.5-2.2s2-2.2,4.5-2.2s4.5,2.2,4.5,2.2S147.5,54,145,54z"/>
							<path d="M145,54.1c-1.1,0-2-1-2-2.2s0.9-2.2,2-2.2c1.1,0,2,1,2,2.2S146.1,54.1,145,54.1z"/>
						</g>
					</g>
				</g>
				<g>
					<line class="st23" x1="135.9" y1="49.7" x2="134.6" y2="53.4"/>
					<line class="st23" x1="137.7" y1="49.7" x2="136.3" y2="53.4"/>
				</g>
			</g>
			<g>
				<g>
					<path class="st25" d="M14.9,107.6c0,0.2-0.2,0.3-0.3,0.3s-0.3-0.1-0.3-0.3c0-0.2,0.2-0.3,0.3-0.3S14.9,107.5,14.9,107.6z"/>
					<path class="st25" d="M14.9,109.3c0,0.2-0.2,0.3-0.3,0.3s-0.3-0.1-0.3-0.3s0.2-0.3,0.3-0.3S14.9,109.1,14.9,109.3z"/>
				</g>
				<path class="st23" d="M20.2,108.5c0,1.2-0.7,2.2-1.5,2.2c-0.8,0-1.5-1-1.5-2.2c0-1.2,0.7-2.2,1.5-2.2
					C19.5,106.3,20.2,107.3,20.2,108.5z"/>
				<path class="st23" d="M24.9,108.5c0,1.2-0.7,2.2-1.5,2.2c-0.8,0-1.5-1-1.5-2.2c0-1.2,0.7-2.2,1.5-2.2
					C24.3,106.3,24.9,107.3,24.9,108.5z"/>
			</g>
			<g>
				<polyline class="st23" points="79,163.7 75.5,166.3 78.8,168.4 				"/>
				<line class="st23" x1="89.4" y1="163.9" x2="87.9" y2="168.2"/>
				<line class="st23" x1="91.7" y1="163.9" x2="90.2" y2="168.2"/>
				<rect x="81.5" y="164.4" width="3.6" height="3.1"/>
			</g>
			<g>
				<line class="st23" x1="85.9" y1="45.2" x2="79.1" y2="45.2"/>
				<polyline class="st23" points="87.5,42.8 91.3,45.5 87.7,47.8 				"/>
			</g>
		</g>
		<g>
			<path class="st22" d="M99,67.3H77.2c-0.7,0-1.3-0.6-1.3-1.3v-6.4c0-0.7,0.6-1.3,1.3-1.3H99c0.7,0,1.3,0.6,1.3,1.3V66
				C100.3,66.7,99.8,67.3,99,67.3z"/>
			<g>
				<line class="st26" x1="93.6" y1="56.7" x2="96.7" y2="51.9"/>
				<line class="st26" x1="87.1" y1="69.9" x2="89.9" y2="74.4"/>
				<line class="st26" x1="103.1" y1="63.2" x2="110.8" y2="63.2"/>
				<line class="st26" x1="70.8" y1="74.6" x2="73.9" y2="69.7"/>
				<line class="st26" x1="68.2" y1="49.2" x2="75.3" y2="56.1"/>
				<line class="st26" x1="71.5" y1="89.3" x2="71.3" y2="97.7"/>
			</g>
			<g>
				<path class="st22" d="M104.6,86H82.8c-0.7,0-1.3-0.6-1.3-1.3v-6.4c0-0.7,0.6-1.3,1.3-1.3h21.8c0.7,0,1.3,0.6,1.3,1.3v6.4
					C105.9,85.4,105.3,86,104.6,86z"/>
				<path class="st26" d="M105.7,87.1H83.9c-0.7,0-1.3-0.6-1.3-1.3v-6.4c0-0.7,0.6-1.3,1.3-1.3h21.8c0.7,0,1.3,0.6,1.3,1.3v6.4
					C107,86.5,106.4,87.1,105.7,87.1z"/>
			</g>
			<path class="st26" d="M100.1,68.4H78.3c-0.7,0-1.3-0.6-1.3-1.3v-6.4c0-0.7,0.6-1.3,1.3-1.3h21.8c0.7,0,1.3,0.6,1.3,1.3v6.4
				C101.4,67.8,100.8,68.4,100.1,68.4z"/>
			<g>
				<path class="st22" d="M133.4,86.1h-21.8c-0.7,0-1.3-0.6-1.3-1.3v-6.4c0-0.7,0.6-1.3,1.3-1.3h21.8c0.7,0,1.3,0.6,1.3,1.3v6.4
					C134.8,85.5,134.2,86.1,133.4,86.1z"/>
				<path class="st26" d="M134.9,87.2h-21.8c-0.7,0-1.3-0.6-1.3-1.3v-6.4c0-0.7,0.6-1.3,1.3-1.3h21.8c0.7,0,1.3,0.6,1.3,1.3v6.4
					C136.2,86.6,135.6,87.2,134.9,87.2z"/>
				<polygon class="st27" points="127.2,84.6 123.9,80 119.7,84.6 				"/>
			</g>
			<g>
				<path class="st28" d="M135.4,67.3h-21.8c-0.7,0-1.3-0.6-1.3-1.3v-6.4c0-0.7,0.6-1.3,1.3-1.3h21.8c0.7,0,1.3,0.6,1.3,1.3V66
					C136.7,66.8,136.2,67.3,135.4,67.3z"/>
				<path class="st26" d="M136.9,68.4h-21.8c-0.7,0-1.3-0.6-1.3-1.3v-6.4c0-0.7,0.6-1.3,1.3-1.3h21.8c0.7,0,1.3,0.6,1.3,1.3v6.4
					C138.2,67.8,137.6,68.4,136.9,68.4z"/>
				<polygon class="st27" points="128.7,65.1 125.4,60.6 121.2,65.1 				"/>
			</g>
			<path class="st27" d="M91.3,63.4c0,1.4-1.1,2.4-2.4,2.4c-1.4,0-2.4-1.1-2.4-2.4c0-1.4,1.1-2.4,2.4-2.4
				C90.2,61,91.3,62.1,91.3,63.4z"/>
			<g>
				<path class="st22" d="M89.6,108.1H67.8c-0.7,0-1.3-0.6-1.3-1.3v-6.4c0-0.7,0.6-1.3,1.3-1.3h21.8c0.7,0,1.3,0.6,1.3,1.3v6.4
					C90.9,107.5,90.3,108.1,89.6,108.1z"/>
				<path class="st26" d="M91,109.2H69.2c-0.7,0-1.3-0.6-1.3-1.3v-6.4c0-0.7,0.6-1.3,1.3-1.3H91c0.7,0,1.3,0.6,1.3,1.3v6.4
					C92.3,108.6,91.8,109.2,91,109.2z"/>
				<path class="st27" d="M78.6,106.7c1.3,0,2.4-1.1,2.4-2.4c0-1.3-1.1-2.4-2.4-2.4V106.7z"/>
			</g>
			<g>
				<path class="st22" d="M124.4,49.5H99.2c-0.7,0-1.3-0.6-1.3-1.3v-7.6c0-0.7,0.6-1.3,1.3-1.3h25.2c0.7,0,1.3,0.6,1.3,1.3v7.6
					C125.7,48.9,125.1,49.5,124.4,49.5z"/>
				<path class="st26" d="M126,50.7h-25.2c-0.7,0-1.3-0.6-1.3-1.3v-7.6c0-0.7,0.6-1.3,1.3-1.3H126c0.7,0,1.3,0.6,1.3,1.3v7.6
					C127.3,50.1,126.8,50.7,126,50.7z"/>
				<circle class="st27" cx="112.2" cy="45.1" r="2.8"/>
			</g>
			<g>
				<path class="st22" d="M74.3,86H52.5c-0.7,0-1.3-0.6-1.3-1.3v-6.4c0-0.7,0.6-1.3,1.3-1.3h21.8c0.7,0,1.3,0.6,1.3,1.3v6.4
					C75.6,85.4,75.1,86,74.3,86z"/>
				<path class="st26" d="M75.4,87.1H53.6c-0.7,0-1.3-0.6-1.3-1.3v-6.4c0-0.7,0.6-1.3,1.3-1.3h21.8c0.7,0,1.3,0.6,1.3,1.3v6.4
					C76.7,86.5,76.1,87.1,75.4,87.1z"/>
				<rect x="60.2" y="80.1" class="st27" width="7.5" height="3.4"/>
			</g>
		</g>
		<g>
			<path class="st28" d="M28.1,157.5l-7.7-3.8c-0.2,2.2-0.2,4.5-0.1,6.7c0.2,2.6-0.1,7,1.9,7.2c1.4,0.1,4-0.2,5.4-0.2
				c-0.2-1.7-0.1-3.5,0.1-5.3C27.9,160.7,28,159.1,28.1,157.5z"/>
			<path class="st29" d="M20.1,170C20.1,169.9,20.1,169.9,20.1,170c-0.1-1.3-0.2-2.4-0.2-3.7c0-0.9,0-1.9,0.3-2.8
				c2.4,0.1,4.9-0.1,7.4,0.1c0.5,0,0.6,1.1,0.9,1.4c0.6,0.6,1.8,0.9,2.6,1.1c1.6,0.5,3.3,0.7,4.7,1.9c0.7,0.6,2.3,2.7,1,3.4
				c-0.6,0.3-1.7,0-2.2,0c-1,0-2-0.1-2.9-0.2c-3.7-0.2-7.4-0.6-11.1-1.1c-0.1,0-0.2,0-0.2-0.1C20.1,170.1,20.1,170,20.1,170z"/>
			<path class="st26" d="M20,168.8c5.8,0.4,11.5,1,17.3,1.8"/>
			<path class="st26" d="M32.6,167.6c0.4-0.2,0.8-0.5,1-0.8c0.1-0.1,0.1-0.2,0.1-0.3c0-0.2-0.2-0.2-0.4-0.2c-0.2,0-0.3,0.1-0.4,0.2
				c-0.3,0.2-0.6,0.4-1,0.7c-0.1,0.1-0.2,0.1-0.3,0.1c-0.1,0-0.2,0-0.3-0.2c0-0.2,0.1-0.3,0.3-0.4c0.1-0.1,0.3-0.2,0.4-0.4
				c0.1-0.1,0.1-0.4,0-0.5c-0.1-0.1-0.2-0.1-0.3-0.1c-0.5,0.1-0.8,0.8-1.4,0.9c-0.1,0-0.1,0-0.2,0c-0.1,0-0.1-0.2-0.1-0.3
				c0.1-0.4,0.5-0.6,0.5-1c0-0.1,0-0.1,0-0.2c-0.1-0.1-0.2-0.1-0.3-0.1c-0.5,0.1-0.8,0.7-0.9,1.2"/>
			<path class="st26" d="M22.1,167.4c0.4,0.2,0.8,0.1,1.1-0.2c0.2-0.3,0.3-0.8,0-1.1c-0.1-0.1-0.2-0.2-0.3-0.2c-0.1-0.1-0.3,0-0.4,0
				c-0.3,0-0.6,0.1-0.8,0.3c-0.2,0.2-0.2,0.5-0.1,0.7C21.6,167.2,21.8,167.3,22.1,167.4"/>
			<path class="st28" d="M51.8,157.2l-7.7-3.8c-0.2,2.2-0.2,4.5-0.1,6.7c0.2,2.6-0.1,7,1.9,7.2c1.4,0.1,4-0.2,5.4-0.2
				c-0.2-1.7-0.1-3.5,0.1-5.3C51.6,160.4,51.7,158.8,51.8,157.2z"/>
			<path class="st29" d="M43.9,169.7C43.9,169.7,43.9,169.6,43.9,169.7c-0.1-1.3-0.2-2.4-0.2-3.7c0-0.9,0-1.9,0.3-2.8
				c2.4,0.1,4.9-0.1,7.4,0.1c0.5,0,0.6,1.1,0.9,1.4c0.6,0.6,1.8,0.9,2.6,1.1c1.6,0.5,3.3,0.7,4.7,1.9c0.7,0.6,2.3,2.7,1,3.4
				c-0.6,0.3-1.7,0-2.2,0c-1,0-2-0.1-2.9-0.2c-3.7-0.2-7.4-0.6-11.1-1.1c-0.1,0-0.2,0-0.2-0.1C43.9,169.8,43.9,169.8,43.9,169.7z"/>
			<g>
				<path class="st28" d="M45.9,42.9c0.1,0.4,0.1,0.8,0.1,1.1c0.2,3.6,0.6,7.1,0.7,10.7c0,2.6,0.1,8,4,7.8c0.8,0,1.6-0.4,2.3-0.8
					c0.7-0.4,1.5-0.8,1.8-1.5c0.4-0.8,0.2-1.6,0-2.5c-0.6-2.4-1.1-4.8-1.7-7.2c-0.5-2.2-1.3-4.4-1.5-6.6c-0.1-0.6,0-2.2-0.8-2.3
					c-0.2,0-0.4,0-0.6,0.2c0-0.2-0.1-0.4-0.1-0.6C50,41.1,49.8,41,49.6,41c-0.3,0-0.5,0.3-0.7,0.6c0-0.2-0.1-0.4-0.2-0.6
					c-0.1-0.2-0.3-0.4-0.5-0.4c-0.2,0-0.5,0.1-0.6,0.3c-0.2,0.2-0.2,0.4-0.3,0.6c-0.1,0.3-0.1,1.1-0.3,1.4c-0.3-0.3-0.3-0.9-0.3-1.3
					c0-0.5,0.1-0.9,0.3-1.4c0.1-0.3,0.1-0.6,0-0.8c-0.8-1-1.4,1-1.3,1.5C45.7,41.5,45.8,42.2,45.9,42.9z"/>
				<path class="st29" d="M53.6,56.6c-2.3,0.5-4.6,1-7,1.3c1.3,5.6,1.9,10.7,1.6,15.9c-0.2,3.5-1.1,5.7-3.6,8.2
					c-0.2,0.2-0.3,0.6-0.3,0.9c0,0.9,1,1,1.6,1.3c1.8,0.9,3.6,1.9,5.3,2.9l2.8,1.4c5.5-13.6,3.3-22.9,1-32.1
					C54.6,56.4,54.1,56.5,53.6,56.6z"/>
				<path class="st22" d="M62.9,45.6H30.4c-0.7,0-1.3-0.6-1.3-1.3v-8.3c0-0.7,0.6-1.3,1.3-1.3h32.5c0.7,0,1.3,0.6,1.3,1.3v8.3
					C64.2,45,63.7,45.6,62.9,45.6z"/>
				<path class="st26" d="M65,46.9H32.5c-0.7,0-1.3-0.6-1.3-1.3v-8.3c0-0.7,0.6-1.3,1.3-1.3H65c0.7,0,1.3,0.6,1.3,1.3v8.3
					C66.3,46.3,65.7,46.9,65,46.9z"/>
				<g>
					<g>
						<defs>
							<path id="SVGID_00000046315124781776797140000015294362454617900984_" d="M53.6,56.6c-2.3,0.5-4.6,1-7,1.3
								c1.3,5.6,1.9,10.7,1.6,15.9c-0.2,3.5-1.1,5.7-3.6,8.2c-0.2,0.2-0.3,0.6-0.3,0.9c0,0.9,1,1,1.6,1.3c1.8,0.9,3.6,1.9,5.3,2.9
								l2.8,1.4c5.5-13.6,3.3-22.9,1-32.1C54.6,56.4,54.1,56.5,53.6,56.6z"/>
						</defs>
						<clipPath id="SVGID_00000123440654523114013560000007349574838378713522_">
							<use xlink:href="#SVGID_00000046315124781776797140000015294362454617900984_"  style="overflow:visible;"/>
						</clipPath>
						<path style="clip-path:url(#SVGID_00000123440654523114013560000007349574838378713522_);" d="M56.9,73.5
							c1.1,0.1,2.9-0.7,2.7-2c0-0.2-0.1-0.4-0.2-0.6c-0.6-1.1-1.3-2-2.7-1.1c-0.6,0.4-0.9,1-1.1,1.6c-0.1,0.3-0.1,0.6-0.1,0.9
							C55.6,73,56.2,73.4,56.9,73.5C56.9,73.5,56.9,73.5,56.9,73.5z"/>
					</g>
				</g>
				<g>
					<path d="M28.7,117.4c0-0.1,0.1-0.2,0.1-0.4c1-3.6,2.1-7.2,3.1-10.8c0.7-2.3,0.2-4.9,0.8-6.9C34,95,44.2,96.8,48,96.4
						c2-0.2,5.3-1.2,7,0.4c1.5,1.4,1.5,4.9,1.9,6.8c1.6,9.1,1.1,18.5,0.5,27.7c-0.4,6.2-0.8,12.4-1.2,18.6
						c-0.2,3.4-0.2,6.9-0.8,10.2c-4.9,0.9-10.5,0.3-15.4-0.2c1-7.7,2-15.5,3-23.2c0.9-7.3,2-14.6,2.3-22c-0.8,3.6-2.2,7.1-3.2,10.6
						c-1.2,4-2.2,8-3.4,12c-0.6,2-6.1,23-6.9,22.9c-5.1-0.4-10.1-0.8-15.2-1.1C20.6,145.2,24.6,131.3,28.7,117.4z"/>
					<path class="st29" d="M52.2,80.8c-1.6-1-3.4-1.6-5.1-1.9c-2.1-0.4-4-0.4-6.4-0.3c-2.5,0.1-4.2,0.7-5.9,2.6
						c-2,2.3-2.6,5.1-2.9,8c-0.3,3.6-0.5,7.2-0.8,10.8c8.5-0.2,17.2,0.1,25.7-0.8c1.1-0.1-1.7-13.5-2-14.7c-0.1-0.7-0.3-1.5-0.7-2.1
						c-0.4-0.7-1-1.1-1.7-1.6C52.5,80.9,52.4,80.9,52.2,80.8z"/>
					<g>
						<path d="M48.6,69.8c0,0.3,0,0.6,0,0.9c0,0.2-0.1,0.5-0.2,0.7c-0.7,0.8-2.4-1.9-2.7-2.4c-0.4-0.7-0.9-1.7-0.7-2.5
							c0.1-0.4,0.5-0.9,1-0.9c0.5,0,1.1,0.6,1.3,1C48,67.5,48.5,68.7,48.6,69.8z"/>
						<path class="st28" d="M42.8,67.8c-0.2,0.1-0.3,0.2-0.5,0.2c-0.8,0.5-1.7,1.1-1.9,2.1c-0.1,0.5-0.1,1-0.1,1.4
							c0,1,0.1,1.9,0.2,2.9c0.1,0.8,0.2,1.7,0.3,2.5c0,0.4,0.3,1.5-0.1,1.7c-0.1,0-0.1,0-0.2,0c-0.1,0-0.3,0-0.4,0.1
							c0,0,0.5,0.5,0.5,0.6c0.2,0.1,0.4,0.3,0.6,0.5c0.4,0.3,0.9,0.6,1.4,0.7c1,0.3,2,0.3,3-0.1c0.3-0.1,0.6-0.2,0.9-0.4
							c0.2-0.2,0.4-0.4,0.6-0.6c0.1-0.2,0-0.5-0.2-0.6c-0.1,0-0.2-0.1-0.2-0.1c-0.1-0.1-0.3-0.3-0.3-0.5c0-0.3-0.1-0.8,0.2-1
							c0.3-0.2,0.8-0.2,1.1-0.3c1.1-0.5,1.3-1.5,1.3-2.6c-0.1-1.2-0.3-2.3-0.7-3.5c-0.2-0.7-0.5-1.4-0.7-2.1
							c-0.1-0.3-0.1-0.6-0.3-0.8c-0.3-0.3-0.6-0.3-0.9-0.4c-0.4,0-0.7-0.2-1-0.2C44.4,67.2,43.6,67.4,42.8,67.8z"/>
						<path d="M32.8,77.4c0.4,0.7,0.9,1.4,1.4,2.1c0.6,0.7,1.1,0.5,1.8,0.2c1.3-0.5,2.7-0.7,4.1-0.5c0.2,0,0.4,0.1,0.6,0
							c0.5-0.1,0.6-0.7,0.7-1.2c0.4-1.2,0.2-2.3,0.3-3.5c0.1-0.5,0.2-1,0.5-1.5c0.3-0.4,0.7-0.6,0.9-0.9c0.7-0.8-0.2-1.9,0.4-2.6
							c0.3-0.3,0.8-0.6,1.2-0.7c0.9-0.3,2.1-0.3,2.6-1.2c0.4-0.6,0.2-1.5-0.3-2c-0.5-0.5-1.2-0.8-1.9-0.9c-1.6-0.3-3.3,0.2-4.6,1.2
							c-0.7,0.6-1.2,1.3-2,1.7c-0.9,0.4-1.8,0.6-2.6,1.2c-0.4,0.3-0.8,0.7-1.2,1c-1.1,0.9-2.5,1.9-2.9,3.3c-0.4,1.2-0.1,2.5,0.5,3.7
							C32.6,76.9,32.7,77.2,32.8,77.4z"/>
						<path class="st28" d="M41.1,72.9c0.2,0.8,1.6,1.5,1.9,0.4c0.2-0.6-0.1-1.7-0.9-1.8C41.5,71.4,41,72.3,41.1,72.9z"/>
						<path class="st26" d="M41.4,72.5c0-0.1,0.1-0.2,0.3-0.2c0.2-0.1,0.4-0.1,0.6,0c0.2,0.1,0.3,0.3,0.4,0.4"/>
						<g>
							<g>
								<defs>
									<path id="SVGID_00000031177572745960624350000012576507441876123521_" d="M40.2,74.5c0.2,1.1,0.4,2.2,0.7,3.3
										c0.1,0.2,0,0.5-0.1,0.7c-0.1,0.1-0.4,0.1-0.6,0.1c0.6,0.8,1.4,1.5,2.4,1.8c1,0.3,2,0.3,3-0.1c0.3-0.1,0.6-0.2,0.9-0.4
										c0.2-0.2,0.5-0.5,0.6-0.7c0,0,0-0.1,0-0.1c0,0,0,0-0.1,0c-0.2-0.1-0.5-0.2-0.6-0.4c-0.1-0.1-0.1-0.3-0.1-0.4
										c0-0.3,0-0.6,0-0.9c0-0.1,0-0.3,0.1-0.3c0.1,0,0.2,0,0.3,0c0.4,0,0.7-0.1,1.1-0.2c0.8-0.5,1.3-1.4,1.4-2.3
										c0.2-1.9-0.7-5.2-2.4-6.4c-1-0.7-2.7-0.8-3.8-0.4c-1.2,0.4-2.8,1.3-3.1,2.6c-0.1,0.6,0,1.2,0,1.8
										C40,73.1,40.1,73.8,40.2,74.5z"/>
								</defs>
								<clipPath id="SVGID_00000008843173931489950090000017410722286696517776_">
									<use xlink:href="#SVGID_00000031177572745960624350000012576507441876123521_"  style="overflow:visible;"/>
								</clipPath>
								<path style="clip-path:url(#SVGID_00000008843173931489950090000017410722286696517776_);" d="M47.2,77.3
									c-0.4,0-0.9-0.1-1.2-0.3c-0.2-0.1-0.4-0.2-0.6-0.3c-0.1,0-0.2,0-0.2,0.1c-0.1,0.1,0,0.2,0.1,0.3c0.1,0.1,0.2,0.1,0.3,0.2
									c0.1,0.1,0,0.2,0.1,0.3c0.1,0.1,0.2,0.2,0.4,0.2c0.3,0.1,0.7,0.2,1,0.3"/>
							</g>
						</g>
					</g>
					<g>
						<path class="st28" d="M32.2,43.1c-0.1,0.5-0.3,1-0.4,1.4c-1,3.8-2.2,7.5-3.3,11.2c-0.2,0.5-0.3,1.1-0.5,1.6
							c-0.4,1.2-0.7,2.5-0.3,3.8c0.4,1.4,1.8,2.3,3.2,2.5c0.9,0.1,1.9,0,2.8-0.3c1.1-0.4,1.3-0.7,1.6-1.7c0.5-1.7,0.2-4,0.3-5.8
							c0.2-2.1,0.5-4.1,0.9-6.2c0.5-2.3,0.9-4.6,1.7-6.7c0.1-0.2,0.2-0.4,0.2-0.6c0-0.2,0-0.4-0.2-0.6c-0.2-0.2-0.7-0.1-0.8,0.1
							c0.1-0.2,0.2-0.3,0.2-0.5c0-0.2,0-0.4-0.1-0.5c-0.3-0.4-0.9,0.1-1.1,0.3c0.2-0.2,0.5-0.6,0.4-1c0-0.2-0.2-0.3-0.3-0.3
							c-0.2,0-0.3,0-0.4,0.1c-0.4,0.2-0.8,0.7-1.1,1c-0.5,0.5-0.9,1.1-1.3,1.7c0.2-1,0.6-1.7,1.3-2.4c0.2-0.2,0.5-0.3,0.4-0.7
							c-0.1-0.2-0.3-0.3-0.5-0.2c-0.3,0.1-0.7,0.4-0.9,0.6c-0.7,0.6-1.1,1.3-1.4,2.1C32.4,42.4,32.3,42.7,32.2,43.1z"/>
						<path class="st26" d="M33.6,44.2"/>
						<path class="st26" d="M34.2,42.6"/>
					</g>
				</g>
				<path class="st29" d="M36.4,71.4c-1-4.8-0.9-9.7-0.2-14.6c0,0-0.1,0-0.1,0c-0.6,0.1-1.3,0.2-1.9,0.3c-2.5-0.1-4.4-0.8-6.7-0.4
					c-2,9.7-0.4,21.9,4.8,30.3c1.5,2.4,3.3,4.7,5.9,5.6c2.3-2.6,4-4.7,5.7-7.8C39.9,81.4,37.5,76.5,36.4,71.4z"/>
				<rect x="43.2" y="38.5" class="st27" width="11.5" height="3.3"/>
				<path class="st32" d="M37.4,41.8c-0.6,0.7-1,1.6-1.3,2.5"/>
				<path class="st32" d="M36.5,41c-0.8,0.8-1.5,1.7-1.9,2.7"/>
				<path class="st32" d="M33.6,42.6c0,0.2-0.1,0.4-0.2,0.5"/>
				<path class="st28" d="M31.6,41.6c0.1-0.1,0.2-0.2,0.3-0.3c0.2-0.1,0.5-0.1,0.6,0.1c0.1,0.2,0.1,0.4,0,0.6
					c-0.1,0.6-0.2,1.2-0.2,1.8c0,0.6,0.1,1.1,0,1.6c0,0.2-0.1,0.4-0.3,0.6c-0.2,0.1-0.4,0.1-0.5,0c-0.2-0.1-0.3-0.3-0.3-0.4
					c-0.2-0.4-0.2-0.9-0.2-1.4C31.1,43.3,31.2,42.3,31.6,41.6z"/>
				<path class="st32" d="M32.6,41.8c-0.3,0.7-0.5,1.5-0.7,2.2"/>
				<path class="st26" d="M46.4,74.2c0.4,0.4,1.1,0.6,1.6,0.4c0.1,0,0.3-0.1,0.3-0.2"/>
				<path class="st26" d="M32.4,86.9c0.2,0.5,0.3,1,0.5,1.5"/>
				<path class="st26" d="M55.3,85c-0.4,0.9-0.7,1.9-0.9,2.9"/>
				<path d="M28.4,70.5c0.2-0.5,0.5-0.9,1-1c0.5-0.1,1.1,0.2,1.3,0.7c0.3,0.5,0.3,1,0.2,1.6c-0.1,0.8-0.8,2.2-1.9,1.8
					C28.2,73.2,28.1,71.3,28.4,70.5z"/>
			</g>
			<path class="st26" d="M43.7,168.6c5.8,0.4,11.5,1,17.3,1.8"/>
			<path class="st26" d="M56.3,167.4c0.4-0.2,0.8-0.5,1-0.8c0.1-0.1,0.1-0.2,0.1-0.3c0-0.2-0.2-0.2-0.4-0.2c-0.2,0-0.3,0.1-0.4,0.2
				c-0.3,0.2-0.6,0.4-1,0.7c-0.1,0.1-0.2,0.1-0.3,0.1c-0.1,0-0.2,0-0.3-0.2c0-0.2,0.1-0.3,0.3-0.4c0.1-0.1,0.3-0.2,0.4-0.4
				c0.1-0.1,0.1-0.4,0-0.5c-0.1-0.1-0.2-0.1-0.3-0.1c-0.5,0.1-0.8,0.8-1.4,0.9c-0.1,0-0.1,0-0.2,0c-0.1,0-0.1-0.2-0.1-0.3
				c0.1-0.4,0.5-0.6,0.5-1c0-0.1,0-0.1,0-0.2c-0.1-0.1-0.2-0.1-0.3-0.1c-0.5,0.1-0.8,0.7-0.9,1.2"/>
			<path class="st26" d="M45.8,167.2c0.4,0.2,0.8,0.1,1.1-0.2c0.2-0.3,0.3-0.8,0-1.1c-0.1-0.1-0.2-0.2-0.3-0.2c-0.1-0.1-0.3,0-0.4,0
				c-0.3,0-0.6,0.1-0.8,0.3c-0.2,0.2-0.2,0.5-0.1,0.7C45.4,166.9,45.6,167.1,45.8,167.2"/>
			<path class="st33" d="M45.1,116c0.7-2.9,1.1-5.8,1.3-8.7"/>
			<path class="st26" d="M47.1,78.8c-0.2,0.8-0.7,1.2-1.3,1.5c-1.1,0.5-2.4,0.6-3.5,0.2c-0.2-0.1-0.5-0.2-0.7-0.3
				c-0.6-0.3-1-0.8-1.4-1.3"/>
		</g>
		<g>
			<g>
				<path class="st27" d="M81.4,119.4H68.5c-0.8,0-1.5,0.6-1.5,1.4l0,0c0,0.8,0.7,1.4,1.5,1.4h12.8c0.8,0,1.5-0.6,1.5-1.4l0,0
					C82.8,120.1,82.2,119.4,81.4,119.4z"/>
				<path class="st29" d="M96.7,119.4h-9.5c-0.8,0-1.4,0.5-1.5,1.3c-0.1,0.8,0.6,1.6,1.4,1.6h9.6c0.8,0,1.5-0.6,1.5-1.4l0,0
					C98.2,120.1,97.5,119.4,96.7,119.4z"/>
				<path class="st27" d="M100.8,120.9L100.8,120.9c0,0.8,0.7,1.4,1.5,1.4h27.9c0.8,0,1.5-0.6,1.5-1.4l0,0c0-0.8-0.7-1.4-1.5-1.4
					h-27.9C101.5,119.4,100.8,120.1,100.8,120.9z"/>
				<path class="st29" d="M145.4,119.4h-8.9c-0.8,0-1.5,0.6-1.5,1.4l0,0c0,0.8,0.7,1.4,1.5,1.4h8.9c0.8,0,1.5-0.6,1.5-1.4l0,0
					C146.8,120.1,146.2,119.4,145.4,119.4z"/>
				<path class="st29" d="M136.4,126.4H111c-0.8,0-1.5,0.6-1.5,1.4l0,0c0,0.8,0.7,1.4,1.5,1.4h25.4c0.8,0,1.5-0.6,1.5-1.4l0,0
					C137.9,127.1,137.2,126.4,136.4,126.4z"/>
				<path class="st29" d="M140.3,127.9L140.3,127.9c0,0.8,0.7,1.4,1.5,1.4h5.4c0.8,0,1.5-0.6,1.5-1.4l0,0c0-0.8-0.7-1.4-1.5-1.4
					h-5.4C141,126.4,140.3,127.1,140.3,127.9z"/>
				<path class="st27" d="M105.5,126.4h-3.2c-0.8,0-1.5,0.6-1.5,1.4l0,0c0,0.8,0.7,1.4,1.5,1.4h3.2c0.8,0,1.5-0.6,1.5-1.4l0,0
					C106.9,127.1,106.3,126.4,105.5,126.4z"/>
				<path class="st28" d="M96.2,133.3H93c-0.8,0-1.5,0.6-1.5,1.4l0,0c0,0.8,0.7,1.4,1.5,1.4h3.2c0.8,0,1.5-0.6,1.5-1.4l0,0
					C97.6,134,97,133.3,96.2,133.3z"/>
				<path class="st27" d="M60.7,127.9L60.7,127.9c0,0.8,0.6,1.4,1.4,1.4h27.9c0.8,0,1.4-0.6,1.4-1.4l0,0c0-0.8-0.6-1.4-1.4-1.4H62.1
					C61.4,126.4,60.7,127.1,60.7,127.9z"/>
				<path class="st29" d="M54.6,126.4h-0.4c-0.8,0-1.5,0.6-1.5,1.4l0,0c0,0.8,0.7,1.4,1.5,1.4h0.4c0.8,0,1.5-0.6,1.5-1.4l0,0
					C56,127.1,55.4,126.4,54.6,126.4z"/>
				<path class="st28" d="M52.6,134.8L52.6,134.8c0,0.8,0.8,1.4,1.7,1.4h30.6c1,0,1.7-0.6,1.7-1.4l0,0c0-0.8-0.8-1.4-1.7-1.4H54.3
					C53.4,133.4,52.6,134.1,52.6,134.8z"/>
				<path class="st27" d="M102.5,134.8L102.5,134.8c0,0.8,0.5,1.4,1,1.4h30.2c0.6,0,1-0.6,1-1.4l0,0c0-0.8-0.5-1.4-1-1.4h-30.2
					C103,133.4,102.5,134.1,102.5,134.8z"/>
				<path class="st27" d="M137.9,134.8L137.9,134.8c0,0.8,0.7,1.4,1.5,1.4h8.9c0.8,0,1.5-0.6,1.5-1.4l0,0c0-0.8-0.7-1.4-1.5-1.4
					h-8.9C138.5,133.4,137.9,134.1,137.9,134.8z"/>
				<path class="st28" d="M111.9,141.8L111.9,141.8c0,0.8,0.7,1.4,1.5,1.4H145c0.8,0,1.5-0.6,1.5-1.4l0,0c0-0.8-0.7-1.4-1.5-1.4
					h-31.6C112.5,140.4,111.9,141.1,111.9,141.8z"/>
				<path class="st27" d="M60.5,141.8L60.5,141.8c0,0.8,0.7,1.4,1.5,1.4h24.3c0.8,0,1.5-0.6,1.5-1.4l0,0c0-0.8-0.7-1.4-1.5-1.4H61.9
					C61.1,140.4,60.5,141.1,60.5,141.8z"/>
				<path class="st29" d="M89.4,141.8L89.4,141.8c0,0.8,0.7,1.4,1.5,1.4h14.8c0.8,0,1.5-0.6,1.5-1.4l0,0c0-0.8-0.7-1.4-1.5-1.4H90.8
					C90,140.4,89.4,141.1,89.4,141.8z"/>
				<path class="st27" d="M71.3,148.8L71.3,148.8c0,0.8,0.7,1.4,1.5,1.4h2.3c0.8,0,1.5-0.6,1.5-1.4l0,0c0-0.8-0.7-1.4-1.5-1.4h-2.3
					C72,147.4,71.3,148,71.3,148.8z"/>
				<path class="st29" d="M67.8,148.8c0-0.8-0.6-1.4-1.4-1.4H55.2c-0.8,0-1.5,0.6-1.5,1.4c0,0.8,0.7,1.4,1.5,1.4h11.2
					C67.1,150.2,67.8,149.6,67.8,148.8L67.8,148.8z"/>
				<path class="st27" d="M78.5,148.8L78.5,148.8c0,0.8,0.7,1.4,1.5,1.4h1.9c0.8,0,1.5-0.6,1.5-1.4l0,0c0-0.8-0.7-1.4-1.5-1.4H80
					C79.2,147.4,78.5,148,78.5,148.8z"/>
				<path class="st28" d="M85.3,148.8L85.3,148.8c0,0.8,0.7,1.4,1.5,1.4h19c0.8,0,1.5-0.6,1.5-1.4l0,0c0-0.8-0.7-1.4-1.5-1.4h-19
					C86,147.4,85.3,148,85.3,148.8z"/>
				<path class="st29" d="M110.3,148.8L110.3,148.8c0,0.8,0.7,1.4,1.5,1.4h7c0.8,0,1.5-0.6,1.5-1.4l0,0c0-0.8-0.7-1.4-1.5-1.4h-7
					C111,147.4,110.3,148,110.3,148.8z"/>
				<path class="st27" d="M124.5,148.8L124.5,148.8c0,0.8,0.7,1.4,1.5,1.4h7.2c0.8,0,1.5-0.6,1.5-1.4l0,0c0-0.8-0.7-1.4-1.5-1.4
					h-7.2C125.1,147.4,124.5,148,124.5,148.8z"/>
				<path class="st27" d="M139.6,148.8L139.6,148.8c0,0.8,0.7,1.4,1.5,1.4h3.9c0.8,0,1.5-0.6,1.5-1.4l0,0c0-0.8-0.7-1.4-1.5-1.4
					h-3.9C140.3,147.4,139.6,148,139.6,148.8z"/>
				<path class="st29" d="M69.7,155.8L69.7,155.8c0,0.8,0.7,1.4,1.5,1.4h17.9c0.8,0,1.5-0.6,1.5-1.4l0,0c0-0.8-0.7-1.4-1.5-1.4H71.2
					C70.4,154.4,69.7,155,69.7,155.8z"/>
				<path class="st29" d="M94.6,155.8L94.6,155.8c0,0.8,0.7,1.4,1.5,1.4h2.7c0.8,0,1.5-0.6,1.5-1.4l0,0c0-0.8-0.7-1.4-1.5-1.4h-2.7
					C95.3,154.4,94.6,155,94.6,155.8z"/>
				<path class="st27" d="M106,155.8L106,155.8c0,0.8,0.7,1.4,1.5,1.4h13.7c0.8,0,1.5-0.6,1.5-1.4l0,0c0-0.8-0.7-1.4-1.5-1.4h-13.7
					C106.6,154.4,106,155,106,155.8z"/>
				<path class="st28" d="M125.5,155.8L125.5,155.8c0,0.8,0.7,1.4,1.5,1.4h10.7c0.8,0,1.5-0.6,1.5-1.4l0,0c0-0.8-0.7-1.4-1.5-1.4
					H127C126.2,154.4,125.5,155,125.5,155.8z"/>
				<path class="st27" d="M113.9,100.7L113.9,100.7c0,0.8,0.7,1.4,1.5,1.4H147c0.8,0,1.5-0.6,1.5-1.4l0,0c0-0.8-0.7-1.4-1.5-1.4
					h-31.6C114.6,99.3,113.9,99.9,113.9,100.7z"/>
				<path class="st28" d="M125.5,93.2h-3.9c-0.8,0-1.5,0.6-1.5,1.4l0,0c0,0.8,0.7,1.4,1.5,1.4h3.9c0.8,0,1.5-0.6,1.5-1.4l0,0
					C127,93.9,126.3,93.2,125.5,93.2z"/>
				<path class="st29" d="M115.8,93.2h-13.1c-0.8,0-1.5,0.6-1.5,1.4l0,0c0,0.8,0.7,1.4,1.5,1.4h13.1c0.8,0,1.5-0.6,1.5-1.4l0,0
					C117.2,93.9,116.6,93.2,115.8,93.2z"/>
				<path class="st29" d="M129.2,94.7L129.2,94.7c0,0.8,0.7,1.4,1.5,1.4H147c0.8,0,1.5-0.6,1.5-1.4l0,0c0-0.8-0.7-1.4-1.5-1.4h-16.4
					C129.9,93.2,129.2,93.9,129.2,94.7z"/>
				<path class="st28" d="M112.4,107.7L112.4,107.7c0,0.8,0.7,1.4,1.5,1.4h7c0.8,0,1.5-0.6,1.5-1.4l0,0c0-0.8-0.7-1.4-1.5-1.4h-7
					C113,106.3,112.4,106.9,112.4,107.7z"/>
				<path class="st27" d="M126.6,107.7L126.6,107.7c0,0.8,0.7,1.4,1.5,1.4h7.2c0.8,0,1.5-0.6,1.5-1.4l0,0c0-0.8-0.7-1.4-1.5-1.4H128
					C127.2,106.3,126.6,106.9,126.6,107.7z"/>
				<path class="st28" d="M140.9,107.7L140.9,107.7c0,0.8,0.7,1.4,1.5,1.4h5.3c0.8,0,1.5-0.6,1.5-1.4l0,0c0-0.8-0.7-1.4-1.5-1.4
					h-5.3C141.5,106.3,140.9,106.9,140.9,107.7z"/>
				<path class="st28" d="M119,114.7L119,114.7c0,0.8,0.7,1.4,1.5,1.4h8.2c0.8,0,1.5-0.6,1.5-1.4l0,0c0-0.8-0.7-1.4-1.5-1.4h-8.2
					C119.7,113.3,119,113.9,119,114.7z"/>
				<path class="st29" d="M96.7,114.7L96.7,114.7c0,0.8,0.7,1.4,1.5,1.4h2.7c0.8,0,1.5-0.6,1.5-1.4l0,0c0-0.8-0.7-1.4-1.5-1.4h-2.7
					C97.3,113.3,96.7,113.9,96.7,114.7z"/>
				<path class="st28" d="M105,114.7L105,114.7c0,0.8,0.7,1.4,1.5,1.4h6c0.8,0,1.5-0.6,1.5-1.4l0,0c0-0.8-0.7-1.4-1.5-1.4h-6
					C105.7,113.3,105,113.9,105,114.7z"/>
				<path class="st29" d="M135.5,114.7L135.5,114.7c0,0.8,0.7,1.4,1.5,1.4h10.7c0.8,0,1.5-0.6,1.5-1.4l0,0c0-0.8-0.7-1.4-1.5-1.4
					h-10.7C136.1,113.3,135.5,113.9,135.5,114.7z"/>
			</g>
			<g>
				<g>
					<path class="st29" d="M96.1,97.9c-0.2,0-0.3-0.1-0.5-0.2l-3.5-3.1l3.4-3.5c0.3-0.3,0.7-0.3,1,0c0.3,0.3,0.3,0.7,0,1l-2.4,2.5
						l2.4,2.2c0.3,0.3,0.3,0.7,0,1C96.4,97.8,96.3,97.9,96.1,97.9z"/>
				</g>
				<g>
					<path class="st29" d="M100.2,97.9c-0.2,0-0.3-0.1-0.5-0.2l-3.5-3.1l3.4-3.5c0.3-0.3,0.7-0.3,1,0c0.3,0.3,0.3,0.7,0,1l-2.4,2.5
						l2.4,2.2c0.3,0.3,0.3,0.7,0,1C100.6,97.8,100.4,97.9,100.2,97.9z"/>
				</g>
				<g>
					<path class="st29" d="M145.4,159.5c-0.2,0-0.4-0.1-0.5-0.2c-0.3-0.3-0.2-0.7,0-1l2.4-2.2l-2.4-2.5c-0.3-0.3-0.3-0.7,0-1
						c0.3-0.3,0.7-0.3,1,0l3.4,3.5l-3.5,3.1C145.8,159.4,145.6,159.5,145.4,159.5z"/>
				</g>
				<g>
					<path class="st29" d="M141.3,159.5c-0.2,0-0.4-0.1-0.5-0.2c-0.3-0.3-0.2-0.7,0-1l2.4-2.2l-2.4-2.5c-0.3-0.3-0.3-0.7,0-1
						c0.3-0.3,0.7-0.3,1,0l3.4,3.5l-3.5,3.1C141.6,159.4,141.4,159.5,141.3,159.5z"/>
				</g>
			</g>
		</g>
		<g>
			<g>
				<g>
					<g>
						<path class="st20" d="M75.5,23.2c-1.9,0.6-3.8,1.3-5.2,2.7s-2.3,3.4-1.9,5.4c0.6,2.7,3.4,4.3,6,5.2c6.2,2.3,13.3,2.8,19.5,0.4
							c3.6-1.4,8-6,4.5-9.7c-2.9-3.2-9.3-4.5-13.3-4.9C81.9,22,78.6,22.3,75.5,23.2z"/>
					</g>
				</g>
			</g>
			<g>
				<path class="st22" d="M74.8,31.9H74l-0.3,1.7H73l0.3-1.7h-0.9v-0.7h1.1l0.2-1.2h-1v-0.7h1.1l0.3-1.7h0.8l-0.3,1.7h0.8l0.3-1.7
					h0.8l-0.3,1.7H77V30h-1l-0.2,1.2h0.9v0.7h-1.1l-0.3,1.7h-0.8L74.8,31.9z M74.2,31.2H75l0.2-1.2h-0.8L74.2,31.2z"/>
				<path class="st22" d="M81.5,32c0-0.2-0.1-0.4-0.2-0.5c-0.2-0.1-0.5-0.3-0.9-0.4c-0.4-0.1-0.8-0.3-1-0.4c-0.7-0.4-1-0.9-1-1.5
					c0-0.3,0.1-0.6,0.3-0.9c0.2-0.3,0.4-0.5,0.8-0.6c0.3-0.1,0.7-0.2,1.2-0.2c0.4,0,0.8,0.1,1.2,0.2c0.3,0.2,0.6,0.4,0.8,0.7
					c0.2,0.3,0.3,0.6,0.3,1h-1.2c0-0.3-0.1-0.5-0.3-0.6c-0.2-0.2-0.4-0.2-0.7-0.2c-0.3,0-0.5,0.1-0.7,0.2c-0.2,0.1-0.3,0.3-0.3,0.5
					c0,0.2,0.1,0.4,0.3,0.5c0.2,0.1,0.5,0.3,0.9,0.4c0.7,0.2,1.2,0.5,1.5,0.8c0.3,0.3,0.5,0.7,0.5,1.2c0,0.5-0.2,0.9-0.6,1.2
					s-0.9,0.4-1.6,0.4c-0.5,0-0.9-0.1-1.3-0.3c-0.4-0.2-0.7-0.4-0.9-0.7c-0.2-0.3-0.3-0.6-0.3-1h1.2c0,0.7,0.4,1,1.2,1
					c0.3,0,0.5-0.1,0.7-0.2C81.4,32.4,81.5,32.2,81.5,32z"/>
				<path class="st22" d="M88.9,30.7c0,0.6-0.1,1.1-0.3,1.5c-0.2,0.4-0.4,0.8-0.8,1l1,0.8l-0.8,0.7l-1.3-1c-0.1,0-0.3,0-0.5,0
					c-0.5,0-0.9-0.1-1.3-0.4c-0.4-0.2-0.7-0.6-0.9-1c-0.2-0.4-0.3-1-0.3-1.5v-0.3c0-0.6,0.1-1.1,0.3-1.6c0.2-0.5,0.5-0.8,0.9-1
					s0.8-0.4,1.3-0.4c0.5,0,1,0.1,1.3,0.4c0.4,0.2,0.7,0.6,0.9,1c0.2,0.5,0.3,1,0.3,1.6L88.9,30.7L88.9,30.7z M87.7,30.4
					c0-0.6-0.1-1.1-0.3-1.4c-0.2-0.3-0.6-0.5-1-0.5c-0.4,0-0.7,0.2-1,0.5S85,29.8,85,30.4v0.3c0,0.6,0.1,1.1,0.3,1.4
					c0.2,0.3,0.6,0.5,1,0.5c0.4,0,0.7-0.2,1-0.5c0.2-0.3,0.3-0.8,0.3-1.4L87.7,30.4L87.7,30.4z"/>
				<path class="st22" d="M91.4,32.6h2.6v1h-3.9v-6h1.2V32.6z"/>
			</g>
		</g>
	</g>
</g>
</svg>
