<?xml version="1.0" encoding="utf-8"?>
<!-- Generator: Adobe Illustrator 27.5.0, SVG Export Plug-In . SVG Version: 6.00 Build 0)  -->
<svg version="1.1" xmlns="http://www.w3.org/2000/svg" xmlns:xlink="http://www.w3.org/1999/xlink" x="0px" y="0px"
	 viewBox="0 0 3710 3710" style="enable-background:new 0 0 3710 3710;" xml:space="preserve">
<g id="Background">
	<g>
		<g>
			<rect style="fill:#FFFFFF;" width="3710" height="3710"/>
		</g>
	</g>
</g>
<g id="Illustration">
	<g>
		<path style="fill:#F4F7FA;" d="M716.006,978.937c43.101-58.995,412.088-546.861,1010.198-523.097
			c29.887,1.188,613.206,31.993,828.359,414.421c159.155,282.892-9.344,533.888,184.814,726.63
			c169.177,167.943,377.089,56.781,481.052,192.587c158.364,206.872-93.834,765.58-481.321,1077.166
			c-400.105,321.734-1165.552,557.77-1760.487,128.516C310.677,2513.23,317.455,1524.458,716.006,978.937z"/>
		<g>
			<g>
				<path style="fill:#97A6B7;" d="M1880.018,2334.12l-61.554,0.106c-4.24-40.66-14.016-79.69-28.561-116.359l52.044-30.182
					c14.223-8.249,19.087-26.853,10.888-41.597l-21.87-39.329c-8.249-14.834-26.567-20.282-40.94-12.125l-51.397,29.17
					c-23.921-33.521-52.47-63.744-84.807-89.74l29.562-50.781c8.482-14.571,3.45-33.746-11.265-42.876l-39.344-24.411
					c-14.874-9.228-33.958-4.866-42.598,9.79l-29.629,50.262c-38.07-17.733-79.209-30.525-122.601-37.387v-59.604
					c0-17.584-14.464-32.498-32.363-33.314l-47.904-2.186c-18.128-0.827-32.871,12.911-32.871,30.688v60.258
					c-44.729,3.727-87.848,13.782-128.383,29.34l-31.977-54.477c-9.397-16.009-30.268-22.216-46.647-13.815l-43.807,22.468
					c-16.566,8.496-22.254,28.49-12.673,44.607l33.132,55.734c-36.263,25.637-68.681,56.328-96.139,91.128l-59.929-33.906
					c-16.991-9.613-38.794-4.629-48.668,11.185l-26.346,42.196c-9.94,15.92-4.039,36.579,13.147,46.09l62.011,34.316
					c-17.194,39.599-28.809,82.046-33.862,126.429l-74.384,0.128c-20.019,0.034-36.302,15.208-36.302,33.891v49.685
					c0,18.683,16.283,33.625,36.302,33.376l76.359-0.95c6.447,43.344,19.18,84.608,37.274,122.917l-67.398,38.252
					c-17.186,9.754-23.087,30.496-13.147,46.275l26.346,41.823c9.874,15.674,31.677,20.349,48.668,10.495l68.169-39.533
					c27.237,32.215,58.916,60.521,94.068,84.08l-39.301,66.669c-9.581,16.253-3.894,36.166,12.673,44.427l43.807,21.847
					c16.38,8.169,37.25,1.666,46.647-14.476l38.978-66.955c38.488,13.575,79.22,22.19,121.382,25.165v74.641
					c0,17.776,14.742,31.306,32.871,30.222l47.904-2.864c17.899-1.07,32.363-16.189,32.363-33.772v-73.83
					c40.921-6.994,79.838-19.237,116.067-35.888l36.163,60.833c8.64,14.534,27.724,18.626,42.598,9.187l39.345-24.969
					c14.715-9.338,19.747-28.585,11.265-43.036l-35.106-59.807c31.423-24.868,59.399-53.637,83.197-85.455l58.551,32.402
					c14.373,7.954,32.691,2.247,40.94-12.704l21.87-39.64c8.199-14.86,3.335-33.395-10.888-41.442l-56.62-32.034
					c15.334-35.972,26.065-74.266,31.48-114.154l63.211-0.786c16.294-0.203,29.463-13.968,29.463-30.746v-44.62
					C1909.481,2347.671,1896.312,2334.092,1880.018,2334.12z M1381.685,2701.436c-182.139,6.759-334.562-134.6-334.562-315.953
					c0-181.353,152.423-324.66,334.562-320.229c175.95,4.28,314.256,145.737,314.256,316.082
					C1695.942,2551.683,1557.635,2694.907,1381.685,2701.436z"/>
				<polygon style="fill:#97A6B7;" points="1177.88,1893.215 1134.039,1891.703 1118.921,1931.009 				"/>
				<polygon style="fill:#97A6B7;" points="1612.599,1911.356 1663.153,1911.86 1663.153,1949.15 				"/>
				<polygon style="fill:#97A6B7;" points="1805.258,2091.235 1855.65,2093.271 1843.052,2121.49 				"/>
				<polygon style="fill:#97A6B7;" points="1884.373,2334.647 1935.269,2338.679 1918.639,2363.371 				"/>
				<polygon style="fill:#97A6B7;" points="1799.715,2683.863 1849.099,2690.917 1855.146,2650.604 				"/>
				<polygon style="fill:#97A6B7;" points="1610.745,2865.777 1655.09,2873.84 1658.618,2841.085 				"/>
				<polygon style="fill:#97A6B7;" points="1389.021,2944.388 1349.212,2937.333 1383.478,2886.438 				"/>
				<polygon style="fill:#97A6B7;" points="1173.344,2901.555 1126.984,2891.981 1162.762,2848.644 				"/>
				<polygon style="fill:#97A6B7;" points="912.819,2071.098 961.195,2072.61 942.046,2107.884 				"/>
				<polygon style="fill:#97A6B7;" points="816.571,2450.549 860.915,2457.099 857.388,2420.817 				"/>
				<polygon style="fill:#97A6B7;" points="911.811,2716.113 955.148,2723.168 958.675,2694.445 				"/>
			</g>
			<path style="fill:#D8DEE8;" d="M1929.749,2338.117l-62.064,0.107c-4.275-40.991-14.132-80.34-28.798-117.307l52.476-30.427
				c14.341-8.316,19.245-27.072,10.979-41.936l-22.052-39.65c-8.317-14.955-26.787-20.447-41.279-12.223l-51.823,29.408
				c-24.12-33.794-52.905-64.264-85.51-90.471l29.807-51.194c8.553-14.689,3.479-34.021-11.358-43.225l-39.671-24.61
				c-14.997-9.304-34.239-4.906-42.951,9.87l-29.875,50.671c-38.386-17.877-79.866-30.774-123.617-37.692v-60.089
				c0-17.727-14.584-32.762-32.632-33.586l-48.301-2.204c-18.278-0.834-33.143,13.016-33.143,30.938v60.749
				c-45.1,3.757-88.576,13.894-129.447,29.579l-32.242-54.921c-9.475-16.139-30.519-22.397-47.034-13.928l-44.17,22.651
				c-16.703,8.566-22.438,28.722-12.778,44.971l33.406,56.188c-36.564,25.846-69.25,56.787-96.936,91.87l-60.425-34.182
				c-17.131-9.691-39.116-4.667-49.071,11.276l-26.564,42.54c-10.022,16.05-4.072,36.877,13.256,46.465l62.525,34.595
				c-17.337,39.921-29.048,82.715-34.143,127.459l-75,0.129c-20.185,0.035-36.603,15.332-36.603,34.167v50.09
				c0,18.835,16.418,33.899,36.603,33.648l76.992-0.958c6.5,43.698,19.338,85.297,37.583,123.918l-67.957,38.563
				c-17.328,9.833-23.278,30.745-13.256,46.652l26.564,42.164c9.956,15.802,31.94,20.515,49.071,10.581l68.734-39.856
				c27.463,32.478,59.404,61.014,94.848,84.765l-39.627,67.212c-9.661,16.385-3.926,36.461,12.778,44.79l44.17,22.025
				c16.515,8.235,37.559,1.679,47.034-14.594l39.3-67.501c38.807,13.686,79.877,22.371,122.389,25.369v75.249
				c0,17.921,14.865,31.561,33.143,30.468l48.301-2.887c18.047-1.079,32.632-16.321,32.632-34.048v-74.432
				c41.26-7.052,80.5-19.394,117.029-36.181l36.463,61.329c8.712,14.653,27.953,18.778,42.951,9.261l39.671-25.172
				c14.837-9.414,19.911-28.818,11.358-43.386l-35.397-60.294c31.684-25.07,59.891-54.074,83.886-86.151l59.037,32.666
				c14.492,8.019,32.962,2.265,41.279-12.808l22.052-39.962c8.267-14.981,3.363-33.667-10.979-41.78l-57.09-32.295
				c15.461-36.265,26.281-74.871,31.741-115.084l63.735-0.793c16.429-0.204,29.708-14.082,29.708-30.997v-44.984
				C1959.457,2351.778,1946.178,2338.088,1929.749,2338.117z M1427.286,2708.425c-183.649,6.814-337.335-135.697-337.335-318.527
				c0-182.83,153.686-327.305,337.335-322.838c177.408,4.315,316.861,146.924,316.861,318.657
				C1744.147,2557.452,1604.694,2701.843,1427.286,2708.425z"/>
		</g>
		<g>
			<g>
				<g>
					<path style="fill:#97A6B7;" d="M642.443,2514.302c-52.279,3.117-95.048-30.799-95.048-75.619V823.263
						c0-44.82,42.769-79.431,95.048-77.166l2417.692,104.756c38.382,1.663,69.461,34.023,69.461,72.142v1373.902
						c0,38.119-31.079,70.985-69.461,73.273L642.443,2514.302z"/>
					<path style="fill:#FFFFFF;" d="M664.17,2514.302c-52.279,3.117-95.048-30.799-95.048-75.619V823.263
						c0-44.82,42.769-79.431,95.048-77.166l2417.692,104.756c38.382,1.663,69.461,34.023,69.461,72.142v1373.902
						c0,38.119-31.079,70.985-69.461,73.273L664.17,2514.302z"/>
					<path style="opacity:0.3;fill:#D8DEE8;" d="M3081.863,883.187l-2417.691-99.46c-27.949-1.15-50.672,17.317-50.672,41.25
						v1256.371v354.897c0,23.934,22.724,42.03,50.672,40.425l2417.691-138.834c20.572-1.181,37.208-18.716,37.208-39.168v-314.069
						V921.749C3119.07,901.297,3102.435,884.033,3081.863,883.187z"/>
					<linearGradient id="SVGID_1_" gradientUnits="userSpaceOnUse" x1="644.4278" y1="1574.7585" x2="3096.4087" y2="1574.7585">
						<stop  offset="0.0036" style="stop-color:#E38DDD"/>
						<stop  offset="1" style="stop-color:#9571F6"/>
					</linearGradient>
					<path style="fill:url(#SVGID_1_);" d="M664.17,2339.437c-10.881,0.538-19.743-6.6-19.743-15.908V826.172
						c0-9.308,8.862-16.533,19.743-16.101l2417.692,95.752c8.024,0.318,14.547,7.071,14.547,15.052v1283.849
						c0,7.981-6.523,14.799-14.547,15.196L664.17,2339.437z"/>
				</g>
				<path style="opacity:0.6;fill:#FFFFFF;" d="M2829.465,2270.18c-203.399-125.818-61.331-483.552-289.755-663.293
					c-230.292-181.212-554.342,41.043-715.658-146.622c-120.114-139.734,20.432-308.456-94.257-439.868
					c-179.857-206.082-640.276,77.349-851.808-125.677c-30.034-28.826-60.341-72.558-77.59-142.72l-136.228-5.903
					c-52.279-2.265-95.048,32.347-95.048,77.166v1615.42c0,44.82,42.769,78.735,95.048,75.619l2417.691-144.131
					c38.382-2.288,69.461-35.154,69.461-73.273v-24.427C2990.788,2326.945,2892.649,2309.264,2829.465,2270.18z"/>
			</g>
			<g>
				<polygon style="fill:#F4F7FA;" points="798.405,2217.312 1380.327,2193.031 1380.327,1887.949 798.405,1902.061 				"/>
				<g>
					<g style="opacity:0.7;">
						<polygon style="fill:#F4F7FA;" points="2357.324,1691.991 2445.733,1690.772 2445.733,1044.388 2357.324,1042.121 						"/>
						<polygon style="fill:#F4F7FA;" points="2197.777,1694.193 2287.901,1692.949 2287.901,1366.646 2197.777,1366.112 						"/>
						<polygon style="fill:#F4F7FA;" points="2035.108,1696.437 2126.998,1695.17 2126.998,973.784 2035.108,971.085 						"/>
						<polygon style="fill:#F4F7FA;" points="1869.228,1698.726 1962.936,1697.433 1962.935,1077.025 1869.228,1074.873 						"/>
						<polygon style="fill:#F4F7FA;" points="1700.042,1701.06 1795.622,1699.742 1795.622,1531.737 1700.042,1532.114 						"/>
						<polygon style="fill:#F4F7FA;" points="1527.446,1703.442 1624.956,1702.096 1624.956,1303.259 1527.446,1302.346 						"/>
						<polygon style="fill:#F4F7FA;" points="1351.338,1705.871 1450.836,1704.499 1450.836,1123.863 1351.338,1121.913 						"/>
						<polygon style="fill:#F4F7FA;" points="1171.613,1708.351 1273.161,1706.95 1273.161,1279.185 1171.613,1278.113 						"/>
						<polygon style="fill:#F4F7FA;" points="988.153,1710.883 1091.815,1709.452 1091.815,1039.075 988.153,1036.59 						"/>
						<polygon style="fill:#F4F7FA;" points="800.842,1713.467 906.685,1712.006 906.685,959.095 800.842,956.111 						"/>
					</g>
				</g>
				<polygon style="fill:#F4F7FA;" points="2526.922,2145.189 2961.811,2127.044 2961.811,2083.032 2526.922,2099.973 				"/>
				<polygon style="fill:#F4F7FA;" points="2526.922,1561.495 2961.811,1558.912 2961.811,1514.901 2526.922,1516.278 				"/>
				<polygon style="fill:#F4F7FA;" points="2526.922,1484.09 2961.811,1483.571 2961.811,1439.56 2526.922,1438.874 				"/>
				<polygon style="fill:#F4F7FA;" points="2526.922,2082.684 2597.796,2079.999 2597.796,2010.649 2526.922,2013.031 				"/>
				<g>
					<path style="fill:#F4F7FA;" d="M2579.418,1854.183c0,91.971,75.596,163.943,167.886,160.787
						c91.244-3.121,164.455-78.659,164.455-168.75c0-90.092-73.211-162.121-164.455-160.869
						C2655.014,1686.616,2579.418,1762.211,2579.418,1854.183z"/>
					<path style="opacity:0.35;fill:#FFFFFF;" d="M2589.16,1849.006c2.09-66.235,45.732-122.786,105.734-144.65
						c16.433-5.988,34.067-9.397,52.41-9.659c86.096-1.231,155.218,66.712,155.218,151.743c0,85.031-69.122,156.286-155.218,159.181
						c-87.027,2.926-158.271-64.966-158.271-151.67C2589.033,1852.295,2589.108,1850.653,2589.16,1849.006z"/>
					<path style="fill:#F4F7FA;" d="M2589.16,1849.006c2.09-66.235,45.732-122.786,105.734-144.65
						c16.433-5.988,34.067-9.397,52.41-9.659c86.096-1.231,155.218,66.712,155.218,151.743c0,85.031-69.122,156.286-155.218,159.181
						c-87.027,2.926-158.271-64.966-158.271-151.67C2589.033,1852.295,2589.108,1850.653,2589.16,1849.006z"/>
					<g>
						<path style="fill:#FFFFFF;" d="M2589.16,1849.006c2.09-66.235,45.732-122.786,105.734-144.65l52.41,145.803L2589.16,1849.006z
							"/>
					</g>
				</g>
				<g>
					<path style="fill:#F4F7FA;" d="M958.224,2025.277c36.966,1.393,42.457-20.009,78.853-22.083
						c61.73-3.515,76.849,56.563,136.331,55.646c48.556-0.75,60.773-41.311,108.843-36.816
						c35.733,3.341,42.766,27.129,77.604,30.544c6.955,0.681,13.799,0.416,20.473-0.56v141.024l-581.922,24.281v-249.514
						c31.192,2.247,53.963,9.305,70.271,16.453C907.906,2001.448,920.925,2023.871,958.224,2025.277z"/>
				</g>
				<polygon style="fill:#F4F7FA;" points="2526.922,1377.539 2961.811,1379.86 2961.81,998.303 2526.922,985.53 				"/>
				<polygon style="fill:#F4F7FA;" points="800.842,1867.449 2445.733,1830.712 2445.733,1761.756 800.842,1791.574 				"/>
				<polygon style="fill:#F4F7FA;" points="1450.836,2190.089 2445.733,2148.577 2445.733,1857.386 1450.836,1881.225 				"/>
			</g>
		</g>
		<g>
			
				<linearGradient id="SVGID_00000122687379569594728200000000225525096526906553_" gradientUnits="userSpaceOnUse" x1="1659.2079" y1="475.2232" x2="927.9294" y2="1616.7328">
				<stop  offset="0" style="stop-color:#FF9085"/>
				<stop  offset="1" style="stop-color:#FB6FBB"/>
			</linearGradient>
			<path style="fill:url(#SVGID_00000122687379569594728200000000225525096526906553_);" d="M1779.647,1392.505l-835.219,11.853
				c-34.556,0.49-62.713-25.136-62.713-57.24V553.526c0-32.104,28.157-56.434,62.713-54.353l835.219,50.297
				c29.81,1.795,53.86,27.243,53.86,56.848v731.818C1833.508,1367.741,1809.457,1392.082,1779.647,1392.505z"/>
			<g>
				<g style="opacity:0.78;">
					<polygon style="fill:#FFFFFF;" points="1528.062,913.171 1441.896,910.801 1441.896,832.67 1528.062,835.617 					"/>
					<polygon style="fill:#FFFFFF;" points="1633.557,916.073 1548.96,913.746 1548.96,836.332 1633.557,839.226 					"/>
					<polygon style="fill:#FFFFFF;" points="1737.148,918.923 1654.077,916.638 1654.077,839.928 1737.148,842.769 					"/>
					<polygon style="fill:#FFFFFF;" points="1085.943,1007.574 993.046,1005.842 993.046,924.705 1085.943,927.059 					"/>
					<polygon style="fill:#FFFFFF;" points="1199.608,1009.693 1108.465,1007.994 1108.465,927.63 1199.608,929.94 					"/>
					<polygon style="fill:#FFFFFF;" points="1311.143,1011.773 1221.706,1010.105 1221.706,930.5 1311.143,932.766 					"/>
					<polygon style="fill:#FFFFFF;" points="1420.609,1013.813 1332.83,1012.177 1332.83,933.315 1420.609,935.54 					"/>
					<polygon style="fill:#FFFFFF;" points="1528.062,1015.817 1441.896,1014.21 1441.896,936.079 1528.062,938.263 					"/>
					<polygon style="fill:#FFFFFF;" points="1633.557,1017.784 1548.96,1016.206 1548.96,938.792 1633.557,940.936 					"/>
					<polygon style="fill:#FFFFFF;" points="1737.148,1019.715 1654.077,1018.166 1654.077,941.456 1737.148,943.561 					"/>
					<polygon style="fill:#FFFFFF;" points="1085.943,1114.138 993.046,1113.23 993.046,1032.093 1085.943,1033.624 					"/>
					<polygon style="fill:#FFFFFF;" points="1199.608,1115.25 1108.465,1114.359 1108.465,1033.995 1199.608,1035.497 					"/>
					<polygon style="fill:#FFFFFF;" points="1311.143,1116.341 1221.706,1115.466 1221.706,1035.861 1311.143,1037.334 					"/>
					<polygon style="fill:#FFFFFF;" points="1420.609,1117.411 1332.83,1116.553 1332.83,1037.692 1420.609,1039.138 					"/>
					<polygon style="fill:#FFFFFF;" points="1528.062,1118.462 1441.896,1117.619 1441.896,1039.489 1528.062,1040.909 					"/>
					<polygon style="fill:#FFFFFF;" points="1633.557,1119.494 1548.96,1118.667 1548.96,1041.253 1633.557,1042.647 					"/>
					<polygon style="fill:#FFFFFF;" points="1737.148,1120.507 1654.077,1119.695 1654.077,1042.985 1737.148,1044.354 					"/>
					<polygon style="fill:#FFFFFF;" points="1085.943,1220.703 993.046,1220.618 993.046,1139.481 1085.943,1140.188 					"/>
					<polygon style="fill:#FFFFFF;" points="1199.608,1220.807 1108.465,1220.723 1108.465,1140.359 1199.608,1141.053 					"/>
					<polygon style="fill:#FFFFFF;" points="1311.143,1220.909 1221.706,1220.827 1221.706,1141.222 1311.143,1141.903 					"/>
					<polygon style="fill:#FFFFFF;" points="1420.609,1221.01 1332.83,1220.929 1332.83,1142.068 1420.609,1142.736 					"/>
					<polygon style="fill:#FFFFFF;" points="1528.062,1221.108 1441.896,1221.029 1441.896,1142.898 1528.062,1143.554 					"/>
					<polygon style="fill:#FFFFFF;" points="1633.557,1221.205 1548.96,1221.127 1548.96,1143.713 1633.557,1144.357 					"/>
					<polygon style="fill:#FFFFFF;" points="1737.148,1221.3 1654.077,1221.224 1654.077,1144.513 1737.148,1145.146 					"/>
					<polygon style="fill:#FFFFFF;" points="1085.943,1327.267 993.046,1328.005 993.046,1246.868 1085.943,1246.752 					"/>
					<polygon style="fill:#FFFFFF;" points="1199.608,1326.364 1108.465,1327.088 1108.465,1246.724 1199.608,1246.61 					"/>
					<polygon style="fill:#FFFFFF;" points="1311.143,1325.477 1221.706,1326.188 1221.706,1246.582 1311.143,1246.47 					"/>
					<polygon style="fill:#FFFFFF;" points="1420.609,1324.607 1332.83,1325.305 1332.83,1246.443 1420.609,1246.334 					"/>
					<polygon style="fill:#FFFFFF;" points="1528.062,1323.753 1441.896,1324.438 1441.896,1246.307 1528.062,1246.2 					"/>
					<polygon style="fill:#FFFFFF;" points="1633.557,1322.915 1548.96,1323.588 1548.96,1246.173 1633.557,1246.068 					"/>
				</g>
				<polygon style="fill:#FFFFFF;" points="1737.148,708.877 1154.21,682.074 1154.21,586.463 1737.148,617.927 				"/>
				<polygon style="opacity:0.78;fill:#FFFFFF;" points="1737.148,760.862 1154.21,736.724 1154.21,700.291 1737.148,726.205 				
					"/>
				<polygon style="fill:#FFFFFF;" points="1528.062,1118.462 1441.896,1117.619 1441.896,1039.489 1528.062,1040.909 				"/>
			</g>
		</g>
		<g style="opacity:0.79;">
			
				<linearGradient id="SVGID_00000109739364450676467030000009109399412672478113_" gradientUnits="userSpaceOnUse" x1="1307.0531" y1="1714.0862" x2="1865.0006" y2="3507.0364">
				<stop  offset="0" style="stop-color:#444B8C"/>
				<stop  offset="0.9964" style="stop-color:#26264F"/>
			</linearGradient>
			<path style="fill:url(#SVGID_00000109739364450676467030000009109399412672478113_);" d="M781.3,2532.964
				c-39.113,2.357-71.061-27.052-71.061-65.567v-733.741c0-38.515,31.948-70.207,71.061-70.644l1295.77-14.482
				c33.461-0.374,60.583,28.144,60.583,63.57v674.887c0,35.425-27.122,65.881-60.583,67.897L781.3,2532.964z"/>
			
				<linearGradient id="SVGID_00000024723531211027603710000017857040589825211782_" gradientUnits="userSpaceOnUse" x1="1313.3025" y1="1727.647" x2="1850.2064" y2="3452.9741">
				<stop  offset="0" style="stop-color:#FFC444"/>
				<stop  offset="0.9964" style="stop-color:#F36F56"/>
			</linearGradient>
			<path style="fill:url(#SVGID_00000024723531211027603710000017857040589825211782_);" d="M2077.07,1669.434L781.3,1685.565
				c-25.638,0.319-46.477,21.683-46.477,47.719v732.728c0,26.035,20.838,45.911,46.477,44.399l1295.77-76.432
				c21.966-1.296,39.729-21.807,39.729-45.818v-675.747C2116.799,1688.403,2099.035,1669.161,2077.07,1669.434z"/>
			<polygon style="fill:#FFFFFF;" points="994.133,2386.002 897.052,2391.108 897.052,2235.142 994.133,2230.896 			"/>
			<polygon style="fill:#FFFFFF;" points="1153.577,2377.615 1058.261,2382.629 1058.261,2177.206 1153.577,2173.315 			"/>
			<polygon style="fill:#FFFFFF;" points="1310.144,2369.38 1216.545,2374.304 1216.545,2103.719 1310.144,2100.26 			"/>
			<polygon style="fill:#FFFFFF;" points="1463.91,2361.292 1371.982,2366.128 1371.982,2009.682 1463.91,2006.759 			"/>
			<path style="fill:#FFFFFF;" d="M897.045,2102.216c-2.187,0.079-4.409-0.239-6.551-1c-8.597-3.058-12.631-12.122-9.003-20.24
				c4.148-9.28,14.179-10.8,19.563-11.615c4.073-0.617,9.603-1.248,16.597-2.045c228.889-26.106,391.454-116.8,486.833-268.788
				c4.564-7.272,14.344-9.739,21.838-5.522c7.489,4.22,9.866,13.528,5.314,20.794c-64.443,102.914-158.706,180.15-281.098,229.496
				c-99.138,39.972-190.644,50.574-230.012,55.135c-6.53,0.756-13.254,1.536-16.376,2.066
				C901.942,2101.531,899.516,2102.126,897.045,2102.216z M912.484,2092.291c-0.001,0.002-0.001,0.002-0.001,0.002
				S912.483,2092.294,912.484,2092.291z M912.5,2092.256c-0.003,0.004-0.003,0.007-0.005,0.009
				C912.497,2092.263,912.498,2092.26,912.5,2092.256z M912.516,2092.22c-0.001,0.004-0.004,0.009-0.006,0.013
				C912.512,2092.229,912.514,2092.225,912.516,2092.22z M912.532,2092.185c-0.002,0.007-0.005,0.011-0.007,0.018
				C912.527,2092.196,912.53,2092.191,912.532,2092.185z M912.549,2092.149c-0.002,0.007-0.006,0.013-0.008,0.02
				C912.543,2092.163,912.546,2092.156,912.549,2092.149z M912.566,2092.112c-0.004,0.009-0.007,0.015-0.011,0.024
				C912.559,2092.127,912.563,2092.12,912.566,2092.112z M912.586,2092.067c-0.005,0.011-0.01,0.022-0.015,0.033
				C912.576,2092.089,912.58,2092.078,912.586,2092.067z"/>
			<path style="fill:#FFFFFF;" d="M1433.362,1886.083c-8.295,0.205-15.281-5.804-15.827-13.843l-4.521-66.516l-66.415,43.893
				c-7.357,4.854-17.323,3.202-22.257-3.707c-4.936-6.917-2.959-16.467,4.414-21.323l112.363-74.018l8.072,118.945
				c0.567,8.359-6.048,15.751-14.784,16.511C1434.057,1886.055,1433.707,1886.074,1433.362,1886.083z"/>
			<path style="opacity:0.68;fill:#FFFFFF;" d="M1610.065,1825.123c0,12.511-10.475,22.89-23.415,23.183
				c-12.959,0.294-23.48-9.638-23.48-22.183c0-12.545,10.52-22.926,23.48-23.184
				C1599.59,1802.68,1610.065,1812.612,1610.065,1825.123z"/>
			<polygon style="opacity:0.68;fill:#FFFFFF;" points="2044.499,1865.052 1645.337,1874.755 1645.337,1773.987 2044.499,1766.67 
							"/>
			<path style="opacity:0.68;fill:#FFFFFF;" d="M1610.065,1962.717c0,12.511-10.475,22.975-23.415,23.374
				c-12.959,0.399-23.48-9.447-23.48-21.992c0-12.545,10.52-23.011,23.48-23.375
				C1599.59,1940.359,1610.065,1950.207,1610.065,1962.717z"/>
			<polygon style="opacity:0.68;fill:#FFFFFF;" points="2044.499,1999.108 1645.337,2012.062 1645.337,1911.294 2044.499,1900.727 
							"/>
			<path style="opacity:0.68;fill:#FFFFFF;" d="M1610.065,2237.906c0,12.511-10.475,23.146-23.415,23.755
				c-12.959,0.61-23.48-9.064-23.48-21.61s10.52-23.182,23.48-23.758C1599.59,2215.719,1610.065,2225.396,1610.065,2237.906z"/>
			<polygon style="opacity:0.68;fill:#FFFFFF;" points="2044.499,2242.626 1645.337,2261.484 1645.337,2211.1 2044.499,2193.435 			
				"/>
			<path style="opacity:0.68;fill:#FFFFFF;" d="M1610.065,2328.361c0,12.51-10.475,23.202-23.415,23.88
				c-12.959,0.679-23.48-8.939-23.48-21.484s10.52-23.239,23.48-23.884C1599.59,2306.229,1610.065,2315.85,1610.065,2328.361z"/>
			<polygon style="opacity:0.68;fill:#FFFFFF;" points="2044.499,2330.755 1645.337,2351.75 1645.337,2301.366 2044.499,2281.564 
							"/>
		</g>
		<g style="opacity:0.78;">
			
				<linearGradient id="SVGID_00000001651007631007887250000014905152850670337927_" gradientUnits="userSpaceOnUse" x1="2665.7158" y1="799.1858" x2="2188.8923" y2="1545.4137">
				<stop  offset="0" style="stop-color:#FFC444"/>
				<stop  offset="0.9964" style="stop-color:#F36F56"/>
			</linearGradient>
			<path style="fill:url(#SVGID_00000001651007631007887250000014905152850670337927_);" d="M3051.969,1235.471h-964.904
				c-12.914,0-23.404-9.616-23.404-21.478V689.401c0-11.862,10.49-20.981,23.404-20.37l964.904,45.682
				c10.892,0.516,19.707,9.74,19.707,20.605V1215.8C3071.675,1226.664,3062.861,1235.471,3051.969,1235.471z"/>
			
				<linearGradient id="SVGID_00000003068154645093689690000003052294535222465157_" gradientUnits="userSpaceOnUse" x1="2632.4312" y1="1084.1163" x2="2335.697" y2="1548.5046">
				<stop  offset="0" style="stop-color:#444B8C"/>
				<stop  offset="0.9964" style="stop-color:#26264F"/>
			</linearGradient>
			<path style="fill:url(#SVGID_00000003068154645093689690000003052294535222465157_);" d="M3051.969,1235.471h-964.904
				c-12.914,0-23.404-9.616-23.404-21.478v-64.6l1008.014,7.238v59.169C3071.675,1226.664,3062.861,1235.471,3051.969,1235.471z"/>
			<g>
				
					<linearGradient id="SVGID_00000007403706052133083120000002937367607743932553_" gradientUnits="userSpaceOnUse" x1="2634.4331" y1="841.4906" x2="2379.3096" y2="1332.484">
					<stop  offset="0" style="stop-color:#444B8C"/>
					<stop  offset="0.9964" style="stop-color:#26264F"/>
				</linearGradient>
				<path style="fill:url(#SVGID_00000007403706052133083120000002937367607743932553_);" d="M2685.283,931.577
					c0,50.523-42.557,90.685-95.495,89.696c-53.432-0.999-97.114-43.466-97.114-94.845c0-51.379,43.682-91.511,97.114-89.652
					C2642.726,838.617,2685.283,881.054,2685.283,931.577z"/>
				<polygon style="opacity:0.68;fill:#FFFFFF;" points="2551.916,981.508 2551.916,874.515 2662.892,930.978 				"/>
			</g>
			<polygon style="opacity:0.68;fill:#FFFFFF;" points="3052.443,1203.938 2086.502,1201.169 2086.502,1187.322 3052.443,1191.209 
							"/>
			
				<linearGradient id="SVGID_00000165212271725629264410000002623059204993266849_" gradientUnits="userSpaceOnUse" x1="2216.5242" y1="1113.472" x2="2214.1418" y2="1346.9545">
				<stop  offset="0" style="stop-color:#FFC444"/>
				<stop  offset="0.9964" style="stop-color:#F36F56"/>
			</linearGradient>
			<polygon style="fill:url(#SVGID_00000165212271725629264410000002623059204993266849_);" points="2344.89,1201.91 
				2086.502,1201.169 2086.502,1187.322 2344.89,1188.361 			"/>
			<path style="fill:#FFFFFF;" d="M2353.044,1195.164c0,11.216-9.695,20.291-21.677,20.271c-12.006-0.021-21.758-9.163-21.758-20.42
				c0-11.257,9.751-20.333,21.758-20.271C2343.349,1174.806,2353.044,1183.948,2353.044,1195.164z"/>
		</g>
		<g>
			<g>
				<path style="fill:#B7C0CE;" d="M2121.598,2965.705c-2.155,0-3.975-1.643-4.176-3.811l-53.745-580.812
					c-0.215-2.307,1.483-4.352,3.79-4.565c2.315-0.185,4.354,1.487,4.565,3.794l45.371,490.311v-502.78
					c0-2.319,1.879-4.196,4.196-4.196c2.317,0,4.196,1.877,4.196,4.196v593.666c0,2.241-1.762,4.089-4.003,4.192
					C2121.728,2965.705,2121.662,2965.705,2121.598,2965.705z"/>
				<g>
					<polygon style="opacity:0.81;fill:#F4F7FA;" points="2720.89,2431.375 2131.295,2366.776 1662.761,2418.262 2256.004,2489.3 
											"/>
					<polygon style="fill:#B7C0CE;" points="2256.004,2489.301 2720.89,2431.374 2720.89,2459.353 2256.004,2517.28 
						1662.761,2446.24 1662.761,2418.261 					"/>
				</g>
				<path style="fill:#B7C0CE;" d="M1669.24,3052.165c-0.055,0-0.111,0-0.166-0.004c-2.252-0.086-4.032-1.938-4.032-4.192v-603.271
					c0-2.319,1.879-4.196,4.196-4.196c2.317,0,4.196,1.877,4.196,4.196v496.228l38.989-496.556c0.184-2.315,2.223-4.028,4.511-3.856
					c2.311,0.18,4.036,2.2,3.856,4.511l-47.369,603.271C1673.249,3050.489,1671.42,3052.165,1669.24,3052.165z"/>
				<path style="fill:#B7C0CE;" d="M2715.303,3052.165c-2.172,0-3.997-1.664-4.18-3.848l-50.296-603.271
					c-0.193-2.307,1.524-4.335,3.833-4.528c2.303-0.271,4.337,1.52,4.53,3.831l41.919,502.788v-487.787
					c0-2.319,1.879-4.196,4.196-4.196c2.317,0,4.196,1.877,4.196,4.196v588.617c0,2.25-1.774,4.098-4.022,4.192
					C2715.42,3052.165,2715.361,3052.165,2715.303,3052.165z"/>
			</g>
			<g>
				<g>
					<g>
						<path style="fill:#26264F;" d="M2554.493,2416.149l-458.283-3.41v10.09c0,2.739,1.999,5.067,4.706,5.482l129.589,19.87
							c1.538,0.236,3.098,0.298,4.649,0.186l314.359-22.654c2.807-0.202,4.98-2.538,4.98-5.352V2416.149z"/>
						<g>
							<path style="fill:#26264F;" d="M2388.184,2399.471l-287.235,18.459c-5.14,0.33-9.319-3.18-9.319-7.84V2223.36
								c0-4.661,4.179-8.439,9.319-8.439h287.235c4.235,0,7.658,3.416,7.658,7.629v168.799
								C2395.842,2395.563,2392.418,2399.198,2388.184,2399.471z"/>
							<path style="fill:#26264F;" d="M2392.764,2399.471l-287.235,18.459c-5.14,0.33-9.319-3.18-9.319-7.84V2223.36
								c0-4.661,4.179-8.439,9.319-8.439h287.235c4.235,0,7.658,3.416,7.658,7.629v168.799
								C2400.422,2395.563,2396.998,2399.198,2392.764,2399.471z"/>
							
								<linearGradient id="SVGID_00000172414646090771607660000005313298504777996201_" gradientUnits="userSpaceOnUse" x1="2108.7041" y1="2314.6912" x2="2390.1345" y2="2314.6912">
								<stop  offset="0" style="stop-color:#AA80F9"/>
								<stop  offset="0.9964" style="stop-color:#6165D7"/>
							</linearGradient>
							<path style="fill:url(#SVGID_00000172414646090771607660000005313298504777996201_);" d="M2383.816,2387.57l-267.53,16.034
								c-4.183,0.25-7.582-2.63-7.582-6.435v-163.481c0-3.805,3.399-6.902,7.582-6.918l267.53-1.007
								c3.493-0.013,6.319,2.785,6.319,6.251v148.902C2390.135,2384.382,2387.309,2387.361,2383.816,2387.57z"/>
							<path style="fill:#FFFFFF;" d="M2259.291,2220.029c0,1.735-1.479,3.146-3.304,3.151c-1.828,0.005-3.311-1.401-3.311-3.139
								s1.483-3.15,3.311-3.151C2257.812,2216.888,2259.291,2218.294,2259.291,2220.029z"/>
							<path style="opacity:0.48;fill:#FFFFFF;" d="M2324.723,2348.348c-22.257-10.842-39.757,2.896-56.646-10.658
								c-10.239-8.218-5.212-14.345-17.812-26.626c-13.954-13.601-23.04-9.029-37.063-21.271
								c-17.733-15.478-8.864-27.521-24.138-38.634c-18.53-13.482-38.513-1.004-56.153-13.933
								c-7.608-5.577-11.782-13.684-13.962-22.306h-17.259c-3.024,0-5.48,2.219-5.48,4.957v193.693c0,2.738,2.456,4.799,5.48,4.605
								l294.239-18.909c1.444-0.093,2.725-0.856,3.546-1.962c-21.539-0.711-34.772-7.248-43.23-14.006
								C2339.697,2370.078,2342.567,2357.041,2324.723,2348.348z"/>
						</g>
						<path style="fill:#26264F;" d="M2404.212,2398.955l-308.003,19.429l134.295,20.591c1.538,0.236,3.098,0.298,4.649,0.186
							l319.339-23.013l-145.381-17.062C2407.486,2398.896,2405.846,2398.852,2404.212,2398.955z"/>
						<polygon style="opacity:0.47;fill:#D8DEE8;" points="2141.152,2418.552 2397.573,2402.135 2476.933,2411.373 
							2222.721,2428.923 						"/>
					</g>
				</g>
				
					<linearGradient id="SVGID_00000009587258029158705790000015137496670877911487_" gradientUnits="userSpaceOnUse" x1="3056.9839" y1="2910.6016" x2="3072.0474" y2="3102.3152" gradientTransform="matrix(1 0 0 1 -626.2627 0)">
					<stop  offset="0.0036" style="stop-color:#26264F"/>
					<stop  offset="1" style="stop-color:#444B8C"/>
				</linearGradient>
				<path style="fill:url(#SVGID_00000009587258029158705790000015137496670877911487_);" d="M2462.55,3006.021
					c0,0-67.368,4.681-68.358,9.08c-0.99,4.4,45.727,21.403,62.05,22.037c16.323,0.635,29.751-4.19,28.273-11.103
					c-1.478-6.915-7.191-24.304-7.191-24.304L2462.55,3006.021z"/>
				
					<linearGradient id="SVGID_00000113338966658636545990000006177791415684903837_" gradientUnits="userSpaceOnUse" x1="2143.144" y1="2726.3142" x2="2139.9814" y2="2497.0098" gradientTransform="matrix(0.9853 0.171 -0.171 0.9853 820.6597 -36.2046)">
					<stop  offset="0" style="stop-color:#FFC444"/>
					<stop  offset="0.9964" style="stop-color:#F36F56"/>
				</linearGradient>
				<path style="fill:url(#SVGID_00000113338966658636545990000006177791415684903837_);" d="M2459.368,2976.088l-1.196,31.794
					c0,0,10.248,5.785,18.383,2.461l9.046-33.528L2459.368,2976.088z"/>
				
					<linearGradient id="SVGID_00000026867234254523039040000011424129320627542955_" gradientUnits="userSpaceOnUse" x1="2868.5779" y1="2897.781" x2="2883.6411" y2="3089.4941" gradientTransform="matrix(1 0 0 1 -626.2627 0)">
					<stop  offset="0.0036" style="stop-color:#26264F"/>
					<stop  offset="1" style="stop-color:#444B8C"/>
				</linearGradient>
				<path style="fill:url(#SVGID_00000026867234254523039040000011424129320627542955_);" d="M2274.144,2993.2
					c0,0-67.368,4.681-68.359,9.08c-0.99,4.4,45.727,21.403,62.05,22.037c16.324,0.635,29.751-4.19,28.274-11.103
					c-1.478-6.915-7.192-24.304-7.192-24.304L2274.144,2993.2z"/>
				
					<linearGradient id="SVGID_00000034806516111650524590000008716919480392905897_" gradientUnits="userSpaceOnUse" x1="1955.3258" y1="2745.8979" x2="1952.1631" y2="2516.5942" gradientTransform="matrix(0.9853 0.171 -0.171 0.9853 820.6597 -36.2046)">
					<stop  offset="0" style="stop-color:#FFC444"/>
					<stop  offset="0.9964" style="stop-color:#F36F56"/>
				</linearGradient>
				<path style="fill:url(#SVGID_00000034806516111650524590000008716919480392905897_);" d="M2270.961,2963.268l-1.196,31.793
					c0,0,10.248,5.785,18.383,2.462l9.046-33.528L2270.961,2963.268z"/>
				
					<linearGradient id="SVGID_00000166647925233917565180000004710198757823616421_" gradientUnits="userSpaceOnUse" x1="2805.6277" y1="2503.5027" x2="2719.6101" y2="2631.48">
					<stop  offset="0" style="stop-color:#893976"/>
					<stop  offset="1" style="stop-color:#311944"/>
				</linearGradient>
				<path style="fill:url(#SVGID_00000166647925233917565180000004710198757823616421_);" d="M2452.21,2980.582
					c12.588,1.397,25.176,2.799,37.764,4.196c17.001-18.845,42.383-51.704,55.947-97.905
					c26.152-89.075-11.722-153.264,12.588-169.241c34.409-22.611,108.983,107.567,228.686,104.223
					c49.114-1.373,113.219-25.426,137.859-77.81c3.72-7.908,21.989-49.307,4.196-88.115
					c-18.369-40.071-109.502-57.506-291.017-90.75c-77.915-14.268-117.258-21.386-133.068-13.838
					C2393.134,2604.824,2439.851,2907.234,2452.21,2980.582z"/>
				
					<linearGradient id="SVGID_00000123426730357478084030000002676841839281852838_" gradientUnits="userSpaceOnUse" x1="2259.9919" y1="2785.2881" x2="2877.3103" y2="2785.2881">
					<stop  offset="0" style="stop-color:#893976"/>
					<stop  offset="1" style="stop-color:#311944"/>
				</linearGradient>
				<path style="fill:url(#SVGID_00000123426730357478084030000002676841839281852838_);" d="M2260.011,2981.118
					c13.021,2.266,26.041,4.532,39.062,6.798c15.815-23.295,39.751-59.793,66.517-106.104
					c55.796-96.54,54.776-116.148,80.562-128.576c54.575-26.298,95.809,44.751,230.779,64.341
					c44.152,6.409,142.167,20.64,181.826-32.171c16.077-21.41,25.312-57.494,12.588-88.115
					c-22.812-54.896-97.947-48.303-345.469-96.508c-96.528-18.8-109.687-22.152-133.068-13.837
					C2262.225,2633.381,2259.681,2917.703,2260.011,2981.118z"/>
				
					<linearGradient id="SVGID_00000089558383897952698410000009323494628679959465_" gradientUnits="userSpaceOnUse" x1="2590.0903" y1="2322.0215" x2="2864.8613" y2="2584.3965">
					<stop  offset="0" style="stop-color:#FF9085"/>
					<stop  offset="1" style="stop-color:#FB6FBB"/>
				</linearGradient>
				<path style="fill:url(#SVGID_00000089558383897952698410000009323494628679959465_);" d="M2530.426,2225.125
					c12.85-31.425,40.432-49.495,54.735-58.867c7.158-4.692,13.771-8.207,20.486-10.949c51.796-21.148,103.51-19.693,112.736-19.001
					c22.37,1.676,77.62,5.811,118.556,41.28c19.813,17.169,35.651,41.136,58.743,176.231
					c32.206,188.409,6.067,169.097,31.47,245.465c13.442,40.411,34.384,86.776,12.234,116.385
					c-7.154,9.564-17.375,12.309-38.211,21.685c-77.833,35.022-147.616,28.987-190.021,24.786
					c-46.662-4.622-70.245-7.265-82.618-23.754c-19.764-26.335,0.581-59.805,4.131-117.729
					c2.549-41.587-6.907-74.545-25.818-140.451C2562.884,2326.984,2505.807,2285.323,2530.426,2225.125z"/>
				
					<linearGradient id="SVGID_00000012443298438050551050000016065346817008232890_" gradientUnits="userSpaceOnUse" x1="2261.5217" y1="2404.5056" x2="2255.2581" y2="2433.1006">
					<stop  offset="0" style="stop-color:#FFC444"/>
					<stop  offset="0.9964" style="stop-color:#F36F56"/>
				</linearGradient>
				<path style="fill:url(#SVGID_00000012443298438050551050000016065346817008232890_);" d="M2311.12,2412.739l-49.733-9.565
					c-3.573-0.687-7.24-0.723-10.826-0.107l-43.02,7.398c0,0,27.972,11.252,51.75,7.724c23.777-3.528,49.752,9.849,49.752,9.849
					L2311.12,2412.739z"/>
				<g>
					<g>
						
							<linearGradient id="SVGID_00000060013892785257492870000003875574430128698805_" gradientUnits="userSpaceOnUse" x1="5946.4546" y1="1460.0122" x2="6117.8184" y2="1675.6097" gradientTransform="matrix(0.9663 0.2576 -0.2576 0.9663 -2744.3408 -923.8408)">
							<stop  offset="0" style="stop-color:#FFC444"/>
							<stop  offset="0.9964" style="stop-color:#F36F56"/>
						</linearGradient>
						<path style="fill:url(#SVGID_00000060013892785257492870000003875574430128698805_);" d="M2640.441,2101.478
							c-8.363-12.637,4.156-36.948,9.108-46.565c0.171-0.332,0.389-0.767,0.855-1.627c7.607-14.035,9.556-15.952,13.186-18.382
							l5.045-3.114c0,0,0.292-0.115,0.6-0.225c3.238-1.151,14.273-1.487,16.509-1.008c7.142,1.524,14.746,30.617,12.576,71.75
							c0.296,1.569,0.582,3.151,0.858,4.745c1.125,6.495,2.018,12.863,2.709,19.087c0.661,5.954,9.104,5.819,15.083,5.438
							c24.269-1.549,36.146,0.516,37.178,4.13c1.935,6.773-26.851,28.917-62.396,33.896c-47.704,0.356-86.509-4.725-82.338-12.236
							c1.852-3.335,38.813-12.993,49.208-22.565c9.518-8.765,8.742-17.813,9.525-24.291
							C2663.227,2110.771,2646.819,2111.115,2640.441,2101.478z"/>
						<path style="fill:#26264F;" d="M2653.833,2020.106c-3.922,8.651,5.593,26.02,9.106,28.54c0.394,0.283,2.618,2.036,4.615,5.04
							c0.272,0.409,0.512,0.889,0.726,1.508c2.792,8.031-9.977,17.481-7.512,21.074c1.788,2.61,10.466-0.877,11.498,1.373
							c0.972,2.123-6.24,6.511-5.135,9.048c0.833,1.917,5.271,0.164,8.071,3.102c2.163,2.27,2.415,5.487,2.464,7.093
							c0.347,11.416-25.542,52.646-30.935,71.25c-5.72,19.73,4.512,38.51,41.678,90.402
							c52.867,73.815,79.301,110.722,93.997,121.274c71.825,51.561,156.284,45.242,190.917,39.862
							c41.608-6.462,127.567-19.816,155.251-86.018c31.822-76.097-30.83-180.23-95.109-197.912
							c-29.395-8.084-45.045,4.196-83.22-9.089c-42.161-14.674-37.053-40.616-76.088-55.937
							c-52.062-20.435-85.654,16.095-121.123-10.503c-19.302-14.477-16.119-30.368-39.862-41.96
							C2689.749,2006.818,2658.974,2008.769,2653.833,2020.106z"/>
						
							<linearGradient id="SVGID_00000109007208182566391300000016879354176373092228_" gradientUnits="userSpaceOnUse" x1="5954.6572" y1="1449.1617" x2="6145.9849" y2="1689.8763" gradientTransform="matrix(0.9663 0.2576 -0.2576 0.9663 -2744.3408 -923.8408)">
							<stop  offset="0" style="stop-color:#FFC444"/>
							<stop  offset="0.9964" style="stop-color:#F36F56"/>
						</linearGradient>
						<path style="fill:url(#SVGID_00000109007208182566391300000016879354176373092228_);" d="M2665.349,2073.275
							c3.124-4.292,8.612-0.259,8.644,5.293c0.033,5.552-5.348,11.325-10.567,10.229
							C2658.205,2087.701,2661.146,2079.052,2665.349,2073.275z"/>
					</g>
				</g>
				
					<linearGradient id="SVGID_00000044151628611438855930000010951968668277389737_" gradientUnits="userSpaceOnUse" x1="2514.9041" y1="2400.7192" x2="2789.6094" y2="2663.0315">
					<stop  offset="0" style="stop-color:#FF9085"/>
					<stop  offset="1" style="stop-color:#FB6FBB"/>
				</linearGradient>
				<path style="opacity:0.3;fill:url(#SVGID_00000044151628611438855930000010951968668277389737_);" d="M2751.429,2707.406
					c-13.728-27.334,19.911-63.668-2.066-105.338c-18.665-35.391-52.57-27.462-68.159-59.898
					c-18.83-39.177,22.121-68.457,20.654-128.058c-1.753-71.251-63.061-142.574-99.141-136.32
					c-23.344,4.047-26.343,38.873-42.768,77c14.534,31.87,31.514,71.796,46.898,125.414c18.911,65.908,28.367,98.863,25.818,140.45
					c-3.55,57.926-23.895,91.396-4.131,117.731c12.373,16.486,35.956,19.133,82.618,23.753
					c42.405,4.198,112.189,10.236,190.021-24.785c9.852-4.433,17.228-7.753,23.243-11.029
					C2802.819,2744.588,2762.318,2729.087,2751.429,2707.406z"/>
				
					<linearGradient id="SVGID_00000157990862576908414760000016638535663589844388_" gradientUnits="userSpaceOnUse" x1="2527.2544" y1="2369.9487" x2="2838.8831" y2="2667.5188">
					<stop  offset="0" style="stop-color:#FF9085"/>
					<stop  offset="1" style="stop-color:#FB6FBB"/>
				</linearGradient>
				<path style="fill:url(#SVGID_00000157990862576908414760000016638535663589844388_);" d="M2298.454,2427.249
					c1.41-6.347,2.821-12.69,4.231-19.038c95.551,17.128,137.333-2.098,157.517-24.565c18.526-20.619,10.627-31.273,40.276-109.985
					c28.241-74.97,60.282-94.238,76.422-101.208c9.015-3.893,15.239-6.474,22.72-4.647c34.423,8.413,45.804,98.118,36.146,165.238
					c-5.442,37.813-16.112,111.964-76.938,147.163c-1.119,0.647-2.889,1.672-5.226,2.922c-7.659,4.097-38.096,18.734-98.046,7.921
					C2384.869,2478.297,2315.91,2437.788,2298.454,2427.249z"/>
			</g>
			<g>
				<ellipse style="fill:#B7C0CE;" cx="2770.752" cy="3168.044" rx="208.763" ry="85.201"/>
				<path style="fill:#FFFFFF;" d="M2979.515,3158.053c0,44.419-93.466,80.428-208.762,80.428
					c-115.297,0-208.763-36.009-208.763-80.428c0-44.418,93.466-117.098,208.763-117.098
					C2886.049,3040.955,2979.515,3113.635,2979.515,3158.053z"/>
				
					<linearGradient id="SVGID_00000057121269101657023970000017621878652506726564_" gradientUnits="userSpaceOnUse" x1="2164.8582" y1="3119.2373" x2="2515.6882" y2="3119.2373" gradientTransform="matrix(1 0 0 1 463.8264 0)">
					<stop  offset="0" style="stop-color:#AA80F9"/>
					<stop  offset="0.9964" style="stop-color:#6165D7"/>
				</linearGradient>
				<path style="opacity:0.3;fill:url(#SVGID_00000057121269101657023970000017621878652506726564_);" d="M2979.515,3158.053
					c0-44.419-93.466-117.098-208.762-117.098c-53.236,0-101.79,15.51-138.666,36.563c-2.581,5.407-3.784,10.784-3.295,15.889
					c2.394,24.991,43.154,40.356,66.551,45.423c58.918,12.762,87.69-22.471,136.269-21.127
					c30.034,0.83,71.655,15.918,121.019,79.818C2969.719,3185.859,2979.515,3172.401,2979.515,3158.053z"/>
				<path style="fill:#FFFFFF;" d="M2782.186,3081.3c-8.341,2.076-16.124,1.994-23.445,0.134c-6.64-1.686-11.2-7.831-11.2-14.684
					l0.001-235.398h46.421v235.121C2793.963,3073.535,2789.041,3079.594,2782.186,3081.3z"/>
				
					<linearGradient id="SVGID_00000110462923507888988480000011838304112010776495_" gradientUnits="userSpaceOnUse" x1="2283.7146" y1="2957.0974" x2="2330.1365" y2="2957.0974" gradientTransform="matrix(1 0 0 1 463.8264 0)">
					<stop  offset="0" style="stop-color:#AA80F9"/>
					<stop  offset="0.9964" style="stop-color:#6165D7"/>
				</linearGradient>
				<path style="opacity:0.65;fill:url(#SVGID_00000110462923507888988480000011838304112010776495_);" d="M2782.186,3081.3
					c-8.341,2.076-16.124,1.994-23.445,0.134c-6.64-1.686-11.2-7.831-11.2-14.684l0.001-235.398h46.421v235.121
					C2793.963,3073.535,2789.041,3079.594,2782.186,3081.3z"/>
				<g>
					
						<linearGradient id="SVGID_00000115512400800215355820000012852271132627788479_" gradientUnits="userSpaceOnUse" x1="2537.3721" y1="2907.7339" x2="2452.262" y2="2796.8328" gradientTransform="matrix(1 0 0 1 463.8264 0)">
						<stop  offset="0" style="stop-color:#444B8C"/>
						<stop  offset="0.9964" style="stop-color:#26264F"/>
					</linearGradient>
					<path style="fill:url(#SVGID_00000115512400800215355820000012852271132627788479_);" d="M2525.468,2732.282l70.916-44.83
						c2.95-16.747,36.378-191.939,172.089-246.954c55.188-22.372,114.582-19.718,147.174-18.26
						c65.065,2.906,111.476,4.979,133.798,36.016c28.664,39.853-19.411,75.994-9.457,189.992
						c4.059,46.488,14.383,67.135,1.524,97.931c-15.404,36.891-51.124,57.34-78.897,68.851
						c-33.2,19.279-91.005,46.752-167.354,53.443c-128.604,11.271-224.613-43.896-257.629-65.004
						c-14.682-4.629-25.713-16.838-28.835-31.911C2505.633,2756.269,2512.274,2740.622,2525.468,2732.282z"/>
				</g>
				<path style="opacity:0.26;fill:#FFFFFF;" d="M2558.075,2764.205c2.621-15.763,46.556-2.696,88.116-33.568
					c62.124-46.147,29.88-124.318,83.92-199.309c49.593-68.82,149.433-103.846,180.427-77.625
					c41.256,34.904-59.716,165.434,0,249.661c29.007,40.915,73.201,38.944,73.43,62.94c0.36,37.919-109.631,81.637-213.995,79.724
					C2657.774,2843.969,2553.915,2789.225,2558.075,2764.205z"/>
			</g>
			<path style="fill:#B7C0CE;" d="M2260.013,3168.275c-0.055,0-0.111,0-0.166-0.004c-2.252-0.086-4.032-1.938-4.032-4.192v-653.606
				c0-2.319,1.879-4.196,4.196-4.196s4.196,1.877,4.196,4.196v546.125l42.73-546.453c0.182-2.307,2.174-4.024,4.511-3.856
				c2.309,0.18,4.036,2.2,3.856,4.511l-51.11,653.606C2264.022,3166.6,2262.192,3168.275,2260.013,3168.275z"/>
		</g>
		<g>
			<g>
				
					<linearGradient id="SVGID_00000147923723463004526670000016750558326320954554_" gradientUnits="userSpaceOnUse" x1="1601.7949" y1="1497.6854" x2="2325.6619" y2="1497.6854">
					<stop  offset="0" style="stop-color:#444B8C"/>
					<stop  offset="0.9964" style="stop-color:#26264F"/>
				</linearGradient>
				
					<circle style="fill:url(#SVGID_00000147923723463004526670000016750558326320954554_);" cx="1963.728" cy="1497.685" r="361.934"/>
				<g>
					
						<linearGradient id="SVGID_00000097495913882499072930000012291618365010700219_" gradientUnits="userSpaceOnUse" x1="2045.2664" y1="1284.5417" x2="1896.5654" y2="1794.0629">
						<stop  offset="0" style="stop-color:#AA80F9"/>
						<stop  offset="0.9964" style="stop-color:#6165D7"/>
					</linearGradient>
					
						<circle style="fill:url(#SVGID_00000097495913882499072930000012291618365010700219_);" cx="1991.029" cy="1470.384" r="361.934"/>
					
						<linearGradient id="SVGID_00000154401074083592259180000014337475233616888253_" gradientUnits="userSpaceOnUse" x1="1654.0566" y1="1470.3838" x2="2328.002" y2="1470.3838">
						<stop  offset="0" style="stop-color:#AA80F9"/>
						<stop  offset="0.9964" style="stop-color:#6165D7"/>
					</linearGradient>
					<path style="fill:url(#SVGID_00000154401074083592259180000014337475233616888253_);" d="M2328.002,1470.384
						c0,186.116-150.854,336.973-336.973,336.973c-66.358,0-128.255-19.189-180.41-52.352
						c-94.108-59.732-156.563-164.862-156.563-284.62c0-186.118,150.855-336.974,336.973-336.974c3.117,0,6.2,0.033,9.283,0.131
						C2182.132,1138.462,2328.002,1287.383,2328.002,1470.384z"/>
					<g>
						<polygon style="fill:#FFFFFF;" points="1991.03,1315.537 1688.401,1407.781 1991.03,1500.026 2293.658,1407.781 						"/>
						<path style="fill:#FFFFFF;" d="M1991.03,1532.363l-190.466-58.056v132.625c0,21.768,15.223,40.595,36.517,45.11
							c102.286,21.687,200.639,22.36,294.813,0.709c20.861-4.796,35.568-23.488,35.568-44.893v-129.274L1991.03,1532.363z"/>
						<path style="fill:#FFFFFF;" d="M1758.495,1587.377c-16.546,7.351-31.016,7.505-43.409,0.463
							c-3.624-2.059-5.426-6.293-4.605-10.379l26.936-133.925l26.731,132.912
							C1765.056,1580.963,1762.703,1585.507,1758.495,1587.377z"/>
						<polygon style="fill:#FFFFFF;" points="1991.03,1394.117 1733.498,1421.482 1733.498,1466.156 1741.13,1466.156 
							1741.913,1427.004 						"/>
					</g>
					<path style="opacity:0.6;fill:#FFFFFF;" d="M2328.002,1470.384c0,186.116-150.854,336.973-336.973,336.973
						c-66.358,0-128.255-19.189-180.41-52.352c31.687-86.203,123.301-178.737,218.132-236.73
						c175.555-107.327,42.151-301.252-28.439-384.732C2182.132,1138.462,2328.002,1287.383,2328.002,1470.384z"/>
				</g>
			</g>
		</g>
	</g>
</g>
</svg>
