<?xml version="1.0" encoding="utf-8"?>
<!-- Generator: Adobe Illustrator 27.5.0, SVG Export Plug-In . SVG Version: 6.00 Build 0)  -->
<svg version="1.1" xmlns="http://www.w3.org/2000/svg" xmlns:xlink="http://www.w3.org/1999/xlink" x="0px" y="0px"
	 viewBox="0 0 1000 1000" style="enable-background:new 0 0 1000 1000;" xml:space="preserve">
<style type="text/css">
	.st0{display:none;}
	.st1{fill:none;stroke:#84AC64;stroke-width:0.8452;stroke-miterlimit:10;stroke-dasharray:3.3807,1.6904;}
	.st2{fill:none;stroke:#84AC64;stroke-width:0.8452;stroke-miterlimit:10;stroke-dasharray:3.3538,1.6769;}
	.st3{fill:none;stroke:#84AC64;stroke-width:0.8452;stroke-miterlimit:10;}
	.st4{fill:none;stroke:#84AC64;stroke-width:0.8452;stroke-miterlimit:10;stroke-dasharray:3.3774,1.6887;}
	.st5{fill:none;stroke:#0B0B0B;stroke-width:0.8452;stroke-miterlimit:10;}
	.st6{fill:#6F9357;}
	.st7{fill:#A8C78F;}
	.st8{fill:#405B30;}
	.st9{fill:#CADDB9;}
	.st10{fill:#84AC64;}
	.st11{fill:#E4EDDA;}
	.st12{fill:none;stroke:#0B0B0B;stroke-width:0.8452;stroke-linecap:round;stroke-miterlimit:10;}
	.st13{fill:#2F2E41;stroke:#2F2E41;stroke-width:0.8116;stroke-miterlimit:10;}
	.st14{fill:#FFB8B8;stroke:#FFB8B8;stroke-width:0.8349;stroke-miterlimit:10;}
	.st15{fill:#FFB8B8;}
	.st16{fill:#FFB8B8;stroke:#FFB8B8;stroke-width:0.8452;stroke-miterlimit:10;}
	.st17{fill:#FFB8B8;stroke:#0B0B0B;stroke-width:0.8452;stroke-linecap:round;stroke-miterlimit:10;}
	.st18{fill:none;stroke:#0B0B0B;stroke-width:0.8452;stroke-linecap:round;stroke-linejoin:round;stroke-miterlimit:10;}
	.st19{fill:#53753B;}
	.st20{fill:none;stroke:#53753B;stroke-width:0.8452;stroke-miterlimit:10;}
	.st21{fill:none;stroke:#364A2A;stroke-width:0.8452;stroke-miterlimit:10;}
	.st22{fill:#304027;}
	.st23{fill:none;stroke:#CADDB9;stroke-width:0.8452;stroke-linecap:round;stroke-linejoin:round;stroke-miterlimit:10;}
	.st24{fill:none;stroke:#0B0B0B;stroke-width:0.9478;stroke-miterlimit:10;}
	.st25{fill:#2F2E41;stroke:#2F2E41;stroke-width:0.8452;stroke-miterlimit:10;}
	.st26{fill:none;stroke:#0B0B0B;stroke-width:0.7989;stroke-linecap:round;stroke-linejoin:round;stroke-miterlimit:10;}
</style>
<g id="Layer_1" class="st0">
	
		<image style="display:inline;overflow:visible;" width="911" height="735" xlink:href="hero-img.png"  transform="matrix(1 0 0 1 45 132)">
	</image>
</g>
<g id="Layer_2">
	<g>
		
			<image style="overflow:visible;opacity:0.2;" width="1030" height="746" xlink:href="5F56B005.png"  transform="matrix(1 0 0 1 -15 134)">
		</image>
		<g>
			<g>
				<g>
					<g>
						<path class="st1" d="M905.1,507.5h-68.7V339.7h68.7c5.7,0,10.4,4.6,10.4,10.4v147C915.4,502.8,910.8,507.5,905.1,507.5z"/>
						<g>
							<path class="st2" d="M825.6,275.9h-67.5c-2.8,0-5.1-2.3-5.1-5.1v-67.5c0-2.8,2.3-5.1,5.1-5.1h67.5c2.8,0,5.1,2.3,5.1,5.1
								v67.5C830.7,273.6,828.4,275.9,825.6,275.9z"/>
						</g>
						<g>
							<g>
								<line class="st3" x1="412.5" y1="507.5" x2="410.8" y2="507.5"/>
								<path class="st4" d="M409.1,507.5H181.9c-21.1,0-38.2-17.1-38.2-38.2V243.8c0-21.1,17.1-38.2,38.2-38.2h389.6
									c21.1,0,38.2,17.1,38.2,38.2v10.3"/>
								<line class="st3" x1="609.7" y1="255" x2="609.7" y2="256.7"/>
							</g>
						</g>
					</g>
					<g>
						<g>
							<path class="st5" d="M855.7,660c1,0,1.9-0.8,1.9-1.9v-15.9c0-1-0.8-1.9-1.9-1.9H736.5V660H855.7z"/>
							<path class="st6" d="M855.7,635.2H734v2.6v2.6h121.8c1,0,1.9,0.8,1.9,1.9v15.9c0,1-0.8,1.9-1.9,1.9H734v2.6v2.6h121.8
								c3.9,0,7-3.2,7-7v-15.9C862.8,638.3,859.6,635.2,855.7,635.2z"/>
						</g>
						<line class="st5" x1="736.5" y1="647.3" x2="852.7" y2="647.3"/>
						<line class="st5" x1="736.5" y1="653.4" x2="852.7" y2="653.4"/>
					</g>
					<g>
						<g>
							<path class="st5" d="M865.5,690c1,0,1.9-0.8,1.9-1.9v-15.9c0-1-0.8-1.9-1.9-1.9H746.3V690H865.5z"/>
							<path class="st6" d="M865.5,665.2H743.8v2.6v2.6h121.8c1,0,1.9,0.8,1.9,1.9v15.9c0,1-0.8,1.9-1.9,1.9H743.8v2.6v2.6h121.8
								c3.9,0,7-3.2,7-7v-15.9C872.6,668.3,869.4,665.2,865.5,665.2z"/>
						</g>
						<line class="st5" x1="746.3" y1="676.9" x2="862.5" y2="676.9"/>
						<line class="st5" x1="746" y1="683.6" x2="862.2" y2="683.6"/>
					</g>
					<g>
						<g>
							<path class="st7" d="M692.5,148.4c0,3.1-2.5,5.5-5.5,5.5c-3.1,0-5.5-2.5-5.5-5.5s2.5-5.5,5.5-5.5
								C690,142.8,692.5,145.3,692.5,148.4z"/>
							<path class="st7" d="M720.3,148.4c0,3.1-2.5,5.5-5.5,5.5c-3.1,0-5.5-2.5-5.5-5.5s2.5-5.5,5.5-5.5
								C717.8,142.8,720.3,145.3,720.3,148.4z"/>
							<path class="st7" d="M748.6,148.4c0,3.1-2.5,5.5-5.5,5.5c-3.1,0-5.5-2.5-5.5-5.5s2.5-5.5,5.5-5.5
								C746.1,142.8,748.6,145.3,748.6,148.4z"/>
						</g>
						<g>
							<path class="st7" d="M908.7,565.9c-3.1,0-5.5-2.5-5.5-5.5c0-3.1,2.5-5.5,5.5-5.5c3.1,0,5.5,2.5,5.5,5.5
								C914.3,563.4,911.8,565.9,908.7,565.9z"/>
							<path class="st7" d="M908.7,593.7c-3.1,0-5.5-2.5-5.5-5.5c0-3.1,2.5-5.5,5.5-5.5c3.1,0,5.5,2.5,5.5,5.5
								C914.3,591.2,911.8,593.7,908.7,593.7z"/>
							<path class="st7" d="M908.7,622c-3.1,0-5.5-2.5-5.5-5.5s2.5-5.5,5.5-5.5c3.1,0,5.5,2.5,5.5,5.5S911.8,622,908.7,622z"/>
						</g>
						<g>
							
								<ellipse transform="matrix(0.9999 -1.300279e-02 1.300279e-02 0.9999 -4.1843 4.6912)" class="st7" cx="358.7" cy="324.1" rx="5.5" ry="5.5"/>
							<path class="st7" d="M358.7,357.5c-3.1,0-5.5-2.5-5.5-5.5c0-3.1,2.5-5.5,5.5-5.5c3.1,0,5.5,2.5,5.5,5.5
								C364.2,355,361.7,357.5,358.7,357.5z"/>
							
								<ellipse transform="matrix(0.9999 -1.300279e-02 1.300279e-02 0.9999 -4.9136 4.696)" class="st7" cx="358.7" cy="380.2" rx="5.5" ry="5.5"/>
						</g>
					</g>
					<g>
						<g>
							<g>
								<path class="st8" d="M841.8,310.2H409.7c-4.2,0-7.5,3.4-7.5,7.5v223.8h447.1V317.7C849.3,313.6,845.9,310.2,841.8,310.2z"/>
								<rect x="415" y="323.1" class="st9" width="421.4" height="205.6"/>
								<path class="st10" d="M402.2,541.5V593c0,4.2,3.4,7.5,7.5,7.5h432.1c4.2,0,7.5-3.4,7.5-7.5v-51.5H402.2z"/>
								<path class="st8" d="M645.8,569.3c0,5.9-4.8,10.6-10.6,10.6s-10.6-4.8-10.6-10.6c0-5.9,4.8-10.6,10.6-10.6
									S645.8,563.4,645.8,569.3z"/>
							</g>
							<rect x="553.7" y="675.6" class="st8" width="170.2" height="19.5"/>
							<rect x="589" y="600.5" class="st10" width="92.4" height="75.1"/>
							<rect x="589" y="600.5" class="st8" width="92.4" height="24.5"/>
						</g>
						<g>
							<g>
								<path class="st7" d="M789.8,411.4H477.5c-1,0-1.8-0.8-1.8-1.8V235c0-1,0.8-1.8,1.8-1.8h312.3c1,0,1.8,0.8,1.8,1.8v174.6
									C791.7,410.6,790.8,411.4,789.8,411.4z"/>
								<rect x="488.5" y="246" class="st9" width="290.2" height="152.6"/>
							</g>
							<g>
								<rect x="521.5" y="277.4" class="st10" width="96.9" height="86"/>
								<rect x="515.9" y="273.2" class="st5" width="93.8" height="83.3"/>
								<rect x="526.3" y="284.6" class="st11" width="73" height="28.5"/>
								<line class="st12" x1="526.3" y1="319.1" x2="599.3" y2="319.1"/>
								<line class="st12" x1="526.3" y1="326.4" x2="599.3" y2="326.4"/>
								<line class="st12" x1="526.3" y1="333.8" x2="599.3" y2="333.8"/>
								<line class="st12" x1="526.3" y1="341.2" x2="599.3" y2="341.2"/>
								<line class="st12" x1="526.3" y1="348.5" x2="599.3" y2="348.5"/>
							</g>
						</g>
						<g>
							<g>
								<path class="st13" d="M699.8,341.1c-0.4,6.8-0.7,13.6-0.6,20.4c0,0.4,0,0.8,0.2,1.1c0.3,0.4,0.8,0.5,1.2,0.5
									c10.7,1.3,22.4-3.1,32.4-6.2c0.6-0.2,1.3-0.4,1.7-1c0.2-0.4,0.3-0.8,0.3-1.2c0.8-10.2,1.2-20.4,0.4-30.5
									c-0.9-11.2-2.2-23-7.2-33.4c-4.5-9.3-12.2-17.7-22.4-21.6c-3.4-1.3-6.9-2.1-10.5-2.7c-7.4-1.1-15.2-1.1-22.4,1.1
									c-9.4,3-17,9.4-21,17.6c-4.1,8.5-5.6,17.7-6.7,26.9c-1.9,16.6-2.1,33.3-1.5,50.1c0,0.5,0.1,1.1,0.5,1.5
									c0.3,0.3,0.8,0.4,1.2,0.4c5.2,0.8,10,1.7,15.4,1.8c1.6,0,14.2,0.4,14.7-1.5c0.5-1.6,0.6-6.5,1.1-8.2c0.9-3.2-5.8-4-5.4-7.3
									c0.1-0.5,0.2-1,0.5-1.3c0.4-0.4,1-0.4,1.5-0.5C682.1,346.4,691.7,344.7,699.8,341.1z"/>
								<path class="st14" d="M670.1,345v40.1c0,0,15.9,11.4,32.6-7.7V332L670.1,345z"/>
								<path class="st15" d="M503.9,384.1c-13.3-8.8-25.5-19.4-36.2-31.2c-1.2-1.3-2.8-2.9-2.9-4.8c0-0.5,0.1-1,0.5-1.4
									c1.1-0.9,3.3-0.5,4.6-0.2c1.8,0.5,3.5,1.4,5,2.4c3.9,2.4,7.8,5,11.5,7.7c-6.9-5.7-13-12.2-18.2-19.5c-1-1.4-1.9-2.9-2.7-4.4
									c-0.3-0.5-0.5-1.1-0.4-1.6c0.4-2.6,3.1-2.8,5.1-2c2,0.8,3.7,2.2,5.4,3.5c5.1,4,10.2,8,15.3,12c-3.4-3.7-6.6-7.6-9.4-11.8
									c-1.3-1.8-2.3-3.7-3.5-5.6c-0.8-1.2-1.5-2.5-2.2-3.8c-0.4-1-1.3-2.7-0.9-3.7c2.1-5.5,12.4,5.9,14.3,7.8
									c3.2,3.1,6.1,6.4,9.1,9.8c-2.2-3.1-4.2-6.3-5.9-9.7c-0.9-1.7-1.6-3.5-2.4-5.2c-0.6-1.3-1.4-3.2-0.9-4.7
									c0.8-2.3,3.5-1.7,5-0.6c1,0.7,1.9,1.7,2.7,2.7c2.9,3.4,5.6,6.9,8.2,10.5c2.4,3.5,4.5,7.3,6.6,11.1c0.9,1.5,1.9,3.2,3.7,3.4
									c1.5,0.2,2.9-0.9,3.5-2.2c2-4.1,1.4-9.1,2.4-13.5c0.6-2.6,3.4-10.2,7-8.3c3.5,1.9,3.6,7.4,3.8,10.7
									c0.7,11.4,1.3,22.8,2,34.1"/>
								<path class="st16" d="M651.7,311.6c-0.2,0-0.3,0-0.5,0.1c-0.2,7.3,0.3,14.6,1.3,21.8c0.9,6.5,1.5,13.3,3.7,19.4
									c1.7,4.6,4.5,8.9,8.8,11.2c2.1,1.1,4.4,1.7,6.7,1.9c4.5,0.4,9-0.4,13.2-1.9c11.5-4.2,20.5-15.2,20.3-27.8
									c3.8-1.8,7.9-2.5,10.6-6.3c2-2.8,2.3-6.5,2.1-9.9c-0.1-2.2-0.4-4.5-1.5-6.4c-1.1-1.9-3.1-3.5-5.3-3.5
									c-2.7-0.1-4.9,1.9-5.6,4.4c-0.6,2.1-1.2,4.4-1.1,6.6c0,1.5,0.6,3.2-0.5,4.5c-0.6,0.7-1.6,0.9-2.4,0.8
									c-0.7-0.1-1.4-0.4-1.7-1c-0.2-0.4-0.2-0.8-0.2-1.2c0-0.7,0.1-8.5-0.1-8.5c-2.9-0.5-5.8-1-8.6-2.1c-0.2-0.1-0.4-0.2-0.5-0.3
									c-0.1-0.2-0.2-0.4-0.2-0.6c-2-10.5-4.3-20.9-6.3-31.4c0,2.6,0.2,30.3,0,30.3c-3,0.2-6.1,0.1-9.1,0c-0.1,0-0.3,0-0.3-0.1
									c-0.1-0.1-0.1-0.2-0.1-0.3c-0.3-4.9-0.4-9.8-0.7-14.7c-0.3-4.8-1-10.2-0.2-15c-0.8,5-1.6,10.1-2.1,15.2
									c-0.2,1.4-1.1,14.5-1,14.5c-2.2-0.1-4.4-0.1-6.6-0.3c-0.2,0-0.5-0.1-0.7-0.2c-0.2-0.2-0.2-0.4-0.2-0.6
									c-0.6-5.9-1.2-11.9-0.8-17.8c-0.5,3.2-1,6.4-1.4,9.5c-0.2,1.6-0.5,3.2-0.7,4.8c-0.1,0.4-0.7,3.9-0.9,3.9
									C656.6,310.8,654.1,311.2,651.7,311.6z"/>
								<path class="st17" d="M666.8,324.9c0,2.8,0,5.6,0,8.4c0,0.2,0,0.4-0.1,0.6c-0.3,0.5-1.1,0.4-1.7,0.3c-1-0.2-2-0.1-2.8,0.5
									c-0.8,0.5-1.3,1.5-1.1,2.5c0.2,1.1,1.2,1.8,2.3,2c1.1,0.2,2.1,0,3.2-0.2"/>
								<path class="st18" d="M672.1,349.7c4.8-0.2,9.4-2.8,12-6.8"/>
								<path class="st19" d="M659.5,395.8c4.2,2.6,9.3,4.2,14.2,3.4c4.9-0.8,9.5-4,10.5-8.9c1.3,2.8,3.7,4.9,6.6,5.8
									c1.6,0.5,3.4,0.7,5.1,0.7c6.4,0,13-1.8,17.5-6.3c4.5-4.5,5.6-11.1,3.7-16.9l0,0c-2.7-1.4-5.9-1.2-8.3,0.7
									c-5.2,4-15.3,10.5-27.4,10.5c-9.7,0-15.2-3.3-18.3-6.4c-2.5-2.5-6.5-2.7-9.4-0.7l-2,1.4
									C649.8,385.5,653.6,392.2,659.5,395.8z"/>
								<g>
									<path class="st11" d="M752,400.7c-4.1-7.6-10.4-13.8-18-17.9l-17-9.2c1.9,5.8,0.8,12.4-3.7,16.9
										c-4.5,4.5-11.2,6.4-17.5,6.3c-1.7,0-3.4-0.1-5.1-0.7c-2.9-0.9-5.3-3-6.6-5.8c-1,4.9-5.6,8-10.5,8.9
										c-4.9,0.8-9.9-0.8-14.2-3.4c-5.9-3.6-9.7-10.3-7.8-16.7L584,425l-33.5-49.8l-37.1,28l50.6,60.9c6.9,7.8,18.3,9.7,27.4,4.5
										c19.5-11.2,50.6-29,50.9-29.1c-3,1.7-5.3,5.8-6.6,8.8c-2.8,6.5-2.6,14.6,1.6,20.2c3,4.1,7.3,6.7,12.3,7.8
										c0.3,0.1-1.3,7.8-1.4,8.4c-0.6,4.3-1.1,8.5-1.7,12.8c-1.2,8.7-2.3,17.5-3.5,26.2c0,0.3-0.6,4.9-0.7,4.9h104.5
										c0,0-11.4-34.4-10.8-41.4c0.5-7.1,3.8-30.4,3.8-30.4l26.6,65.2l49.8-4.4L752,400.7z"/>
									<path class="st20" d="M684.1,390.3c0,24.7-12.6,48.8-9.7,73.4c0.5,4.5,1.6,8.9,2.7,13.3c4.3,17.4,7.1,33.7,7.1,51.6"/>
									<polygon class="st19" points="822.2,528.7 816.2,517.7 766.3,522.1 769,528.7 									"/>
								</g>
							</g>
							<g>
								<polygon class="st19" points="537.6,356 499.8,386.9 513.4,403.2 550.5,375.2 								"/>
							</g>
						</g>
					</g>
					<g>
						<rect x="92.5" y="249.8" class="st10" width="100" height="129.6"/>
						<rect x="88.8" y="245.6" class="st21" width="96.9" height="125.6"/>
						<rect x="99.5" y="257" class="st11" width="33.5" height="36.7"/>
						<line class="st18" x1="140.9" y1="262.4" x2="177.9" y2="262.4"/>
						<line class="st18" x1="140.9" y1="276" x2="177.9" y2="276"/>
						<line class="st18" x1="140.9" y1="289.5" x2="177.9" y2="289.5"/>
						<line class="st18" x1="99.5" y1="303.1" x2="177.9" y2="303.1"/>
						<line class="st18" x1="99.5" y1="316.7" x2="177.9" y2="316.7"/>
						<line class="st18" x1="99.5" y1="330.3" x2="177.9" y2="330.3"/>
						<line class="st18" x1="99.5" y1="343.9" x2="177.9" y2="343.9"/>
						<line class="st18" x1="99.5" y1="357.5" x2="177.9" y2="357.5"/>
					</g>
					<path class="st15" d="M411,654.2c7.4-1.2,14.3-0.7,21.6-1.6c9.3-1,18.6-1.8,28-2.2c15.8-0.7,33.4-1.2,48.7,2.3
						c5.7,1.3,10.8,4.3,15.2,7.6c8.2,6.2,14.9,14,19.4,22.8c0.9,1.8,1.8,3.9,1.2,5.9c-1,3.3-5.5,4.7-9.2,4.5
						c-6.1-0.4-11.3-3.6-16.9-5.6c-8-2.9-17.2-3.2-25.6-0.9c-7.8,2.1-13.7,6.2-22,6.6c-9.4,0.5-18.7,2-28.1,2.7"/>
					<g>
						<path class="st22" d="M528.7,856.5c-29.7-75.7-218.9-95.1-218.9-95.1c-25.7,17.4-58.2,25.3-76.6,28.5l19.8,66.6H528.7z"/>
						<path class="st6" d="M284.2,695.2h-79.1l28.1,94.8c18.3-3.3,50.9-11.2,76.6-28.5L284.2,695.2z"/>
					</g>
					<polygon class="st7" points="354.1,750.9 334.7,750.9 284.2,856.5 312.1,856.5 					"/>
					<path class="st10" d="M474.4,750.9H300c-0.7,0-1.3-0.6-1.3-1.3v-18.2c0-2.4,1.9-4.3,4.3-4.3h168.3c2.4,0,4.3,1.9,4.3,4.3v18.2
						C475.7,750.3,475.1,750.9,474.4,750.9z"/>
					<rect x="361.3" y="695.2" class="st10" width="553.6" height="19.4"/>
					<g>
						<path class="st15" d="M237.3,483.9l13.7-29l6.5-6.9l-6.2-38.2l-28.7-6.8c0,0-9.6,14.7-22.5,27.2c-6.8,6.5-21.8,25.5-34.6,42.3
							C174.4,487.6,194.1,498.4,237.3,483.9z"/>
						<path class="st6" d="M407.3,624.7l-102.6-6L274,501.5c-8-26.7-36.7-17.6-36.7-17.6c-43.2,14.4-63,3.6-71.9-11.4
							c-11.8,15.4-21.8,28.9-21.8,28.9l75.4,193.6h237c0-38.3-23.3-58.3-35.4-66.1C416.6,626.5,412,624.9,407.3,624.7z"/>
					</g>
					<path class="st23" d="M253.1,482.8c0,0-13-1.5-23.6,38.6"/>
					<path class="st23" d="M223.5,555.7c0,0-11.1,68.6-12.7,117.9"/>
					<g>
						<g>
							<path class="st24" d="M223.8,414.2c0.5-0.2,0.8-0.5,0.9-0.9v0C224.4,413.6,224.1,413.9,223.8,414.2z"/>
							<path class="st25" d="M213,413.2c-3.8-2-5.8-6.3-6.6-10.3c-1.4-7.1-2.8-17.9,3.2-23.3c3.7-3.3,10.5-4.1,13.5,0.2
								c2.7,3.8,2.9,9.7,7.6,11.8c2.8,1.2,6.2,0.3,8.4-1.9c3.8-3.7,4.3-9.1,4.6-14.1c0.5-7.5,0.9-15.1,1.2-22.7
								c0.1-2.5,1.7-4.6,4-5.5l39.3-14.6l0,0c0.4-0.2,2.6-1.5,3-1.7c1.6-0.9,3.2-1.7,4.7-2.8c9.2-6.4,19.3-16.6,19.4-28.6
								c0-7.2-4.1-13.8-10-17.9c-8.1-5.7-18.2-6.6-27.8-5.8c-3.1,0.3-6.1,0.7-9.1,1.5c-16.7,4.4-34.2,15.3-48.7,24.4
								c-1.5,0.9-3,1.9-4.7,2.2c-0.4-3.7-0.1-7.2-2.5-10.2c-2.1-2.6-5.5-4.2-8.8-3.9c-3.3,0.2-6.5,2.3-8.1,5.2
								c-0.6,1.1-0.9,2.3-1.2,3.5c-1,4.5-0.9,9.2,0.3,13.7c-4.1-4.9-11.6-7.1-17.6-5c-7,2.4-7.6,11.2-5.3,17.4
								c2,5.3,5.6,9.6,10.8,11.8c-1,21.8-0.7,43.7,0.9,65.5c0.4,5.6,1,11.2,3.1,16.3c2.3,5.4,7,11.6,13.5,11.8
								c5.6,0.2,10.7-4.1,14.7-7.5c3.2-2.7,6.1-5.6,9-8.5C221.2,415.4,214.2,413.9,213,413.2z"/>
							<path class="st15" d="M288.1,333l-39.3,14.6c-2.3,0.9-3.9,3-4,5.5c-0.3,7.6-0.7,15.1-1.2,22.7c-0.3,5-0.8,10.4-4.6,14.1
								c-2.2,2.2-5.6,3.1-8.4,1.9c-4.8-2.1-5-8-7.6-11.8c-3-4.3-9.8-3.5-13.5-0.2c-6,5.4-4.6,16.2-3.2,23.3c0.8,4,2.8,8.3,6.6,10.3
								c1.2,0.6,8.2,2.2,10.8,1c0.3-0.3,0.6-0.6,0.9-0.9v0l0,0l0,0c0,9.6,7.1,20.7,12,28.7c6.8,11.1,18.2,16.2,30.9,17.8
								c11.4,1.5,21.1-3.3,24.2-14.9c0.7-2.5,0.8-5,0.9-7.5C270.1,435.9,269,419,269,419h24.4c0-2,0-4,0-6c1.1-0.2,8.8-1.6,12.7-2
								c1.1-0.1,1.7-1.3,1.3-2.2L290.7,373c-0.5-1.2-1.1-2.3-1.4-3.6c-0.4-1.5-0.4-3.1-0.4-4.6C288.9,354.2,288.1,333,288.1,333
								C288.1,333,288.1,333,288.1,333L288.1,333z"/>
							<polygon class="st5" points="224.7,413.3 224.7,413.3 224.7,413.3 							"/>
						</g>
					</g>
					<g>
						<path class="st10" d="M416.1,250.3H304.4c-3.7,0-6.7-3-6.7-6.7v-65.3c0-3.7,3-6.7,6.7-6.7h111.7c3.7,0,6.7,3,6.7,6.7v65.3
							C422.8,247.3,419.8,250.3,416.1,250.3z"/>
						<path class="st21" d="M408.5,243.8H299.9c-3.6,0-6.5-2.9-6.5-6.5v-63.4c0-3.6,2.9-6.5,6.5-6.5h108.6c3.6,0,6.5,2.9,6.5,6.5
							v63.4C415,240.9,412.1,243.8,408.5,243.8z"/>
						<polygon class="st11" points="377.3,205.5 340.9,184.5 340.9,226.6 						"/>
					</g>
					<g>
						<path class="st10" d="M860.3,175.3c-29.8,0-53.9,15.4-53.9,34.4c0,5.9,2.3,11.5,6.4,16.3L793,256.4l37.5-18
							c8.5,3.6,18.8,5.8,29.8,5.8c29.8,0,53.9-15.4,53.9-34.4S890.1,175.3,860.3,175.3z"/>
						<path class="st21" d="M854.8,172.5c-29.8,0-53.9,15.4-53.9,34.4c0,5.9,2.3,11.5,6.4,16.3l-19.8,30.3l37.5-18
							c8.5,3.6,18.8,5.8,29.8,5.8c29.8,0,53.9-15.4,53.9-34.4C908.7,187.9,884.6,172.5,854.8,172.5z"/>
						<g>
							<path class="st11" d="M878.7,208.6c0,2.4-2,4.4-4.4,4.4s-4.4-2-4.4-4.4c0-2.4,2-4.4,4.4-4.4S878.7,206.2,878.7,208.6z"/>
							<path class="st11" d="M839.6,208.6c0,2.4-2,4.4-4.4,4.4c-2.4,0-4.4-2-4.4-4.4c0-2.4,2-4.4,4.4-4.4
								C837.6,204.3,839.6,206.2,839.6,208.6z"/>
							<path class="st11" d="M859.2,208.6c0,2.4-2,4.4-4.4,4.4s-4.4-2-4.4-4.4c0-2.4,2-4.4,4.4-4.4S859.2,206.2,859.2,208.6z"/>
						</g>
					</g>
					<path class="st18" d="M1000,857.2"/>
					<path class="st18" d="M5.5,857.2"/>
					<g>
						<rect x="880.5" y="396.9" class="st10" width="80.1" height="50.2"/>
						<rect x="875.4" y="392.1" class="st21" width="80.1" height="50.2"/>
						<polyline class="st5" points="875.4,392.1 915.4,425 955.5,392.1 						"/>
						<line class="st5" x1="904.2" y1="415.8" x2="875.4" y2="442.3"/>
						<line class="st5" x1="926.6" y1="415.8" x2="955.5" y2="442.3"/>
					</g>
					<g>
						<path class="st10" d="M64.2,483.9c38.6,0,72.5,24.5,83.1,60l94,312.6h24.3l-93.6-324.4c-10.5-36.3-43.7-61.4-81.6-61.4l0,0
							c-19.9,0-37.9,6.3-52.6,16.9C46.2,485.2,55,483.9,64.2,483.9L64.2,483.9z"/>
						<path class="st7" d="M3.6,586.2l77.9,270.2h159.8l-94-312.6c-10.7-35.5-44.6-60-83.1-60l0,0c-9.2,0-18,1.3-26.3,3.6
							C8.2,508.9-7.6,547.5,3.6,586.2z"/>
					</g>
					<path class="st26" d="M506.9,663.9c11.8,6.4,23.5,12.9,32.9,22.6c0.5,0.5,1.1,1.1,1.3,1.9c1.2,4.2-6.4,5.3-9,4.5"/>
				</g>
			</g>
		</g>
	</g>
</g>
</svg>
