<?xml version="1.0" encoding="utf-8"?>
<!-- Generator: Adobe Illustrator 27.5.0, SVG Export Plug-In . SVG Version: 6.00 Build 0)  -->
<svg version="1.1" xmlns="http://www.w3.org/2000/svg" xmlns:xlink="http://www.w3.org/1999/xlink" x="0px" y="0px"
	 viewBox="0 0 102.5 102.5" style="enable-background:new 0 0 102.5 102.5;" xml:space="preserve">
<style type="text/css">
	.st0{display:none;}
	.st1{display:inline;}
	.st2{fill:url(#SVGID_1_);}
	.st3{fill:url(#SVGID_00000062871610021032895380000005333071508616585875_);}
	.st4{fill:url(#SVGID_00000017507372110684579550000005812483098748164267_);}
	.st5{fill:#E2EBD8;}
	.st6{fill:#83AC63;}
	.st7{display:inline;fill:#83AC62;}
	.st8{fill:#E2ECD9;}
</style>
<g id="Layer_1" class="st0">
	<g class="st1">
		<g>
			
				<linearGradient id="SVGID_1_" gradientUnits="userSpaceOnUse" x1="-14.647" y1="76.375" x2="656.5567" y2="76.375" gradientTransform="matrix(1 0 0 -1 0 104)">
				<stop  offset="1.502404e-03" style="stop-color:#DA8CFF"/>
				<stop  offset="1" style="stop-color:#9A55FF"/>
			</linearGradient>
			<path class="st2" d="M100.2,24L53.1,0.4c-1.2-0.6-2.5-0.6-3.7,0L2.3,24C0.9,24.7,0,26.1,0,27.7s0.9,3,2.3,3.7l47.1,23.5
				c0.6,0.3,1.2,0.4,1.9,0.4c0.6,0,1.3-0.1,1.9-0.4l47.1-23.5c1.4-0.7,2.3-2.1,2.3-3.7C102.5,26.1,101.6,24.7,100.2,24z M51.2,46.6
				L13.4,27.7L51.2,8.8L89,27.7L51.2,46.6z"/>
		</g>
	</g>
	<g class="st1">
		<g>
			
				<linearGradient id="SVGID_00000013892501107786160000000000881089700092153513_" gradientUnits="userSpaceOnUse" x1="-14.647" y1="17.5053" x2="656.5567" y2="17.5053" gradientTransform="matrix(1 0 0 -1 0 104)">
				<stop  offset="1.502404e-03" style="stop-color:#DA8CFF"/>
				<stop  offset="1" style="stop-color:#9A55FF"/>
			</linearGradient>
			<path style="fill:url(#SVGID_00000013892501107786160000000000881089700092153513_);" d="M102,72.9c-1-2-3.5-2.9-5.6-1.9
				L51.2,93.7L6,71.1c-2-1-4.5-0.2-5.6,1.9c-1,2-0.2,4.5,1.9,5.6L49.4,102c0.6,0.3,1.2,0.4,1.9,0.4c0.6,0,1.3-0.1,1.9-0.4l47.1-23.5
				C102.2,77.4,103,75,102,72.9z"/>
		</g>
	</g>
	<g class="st1">
		<g>
			
				<linearGradient id="SVGID_00000153700874204803678090000002201060155714552998_" gradientUnits="userSpaceOnUse" x1="-14.647" y1="41.014" x2="656.5567" y2="41.014" gradientTransform="matrix(1 0 0 -1 0 104)">
				<stop  offset="1.502404e-03" style="stop-color:#DA8CFF"/>
				<stop  offset="1" style="stop-color:#9A55FF"/>
			</linearGradient>
			<path style="fill:url(#SVGID_00000153700874204803678090000002201060155714552998_);" d="M102,49.4c-1-2-3.5-2.9-5.6-1.9
				L51.2,70.1L6,47.5c-2-1-4.5-0.2-5.6,1.9c-1,2-0.2,4.5,1.9,5.6l47.1,23.5c0.6,0.3,1.2,0.4,1.9,0.4c0.6,0,1.3-0.1,1.9-0.4L100.3,55
				C102.2,53.9,103,51.4,102,49.4z"/>
		</g>
	</g>
</g>
<g id="Layer_2">
	<g>
		<g id="Normal_00000166657376632612198290000003891494957668371854_">
			<path class="st5" d="M94.3,102.5H8.2c-4.5,0-8.2-3.7-8.2-8.2V8.2C0,3.7,3.7,0,8.2,0h86.1c4.5,0,8.2,3.7,8.2,8.2v86.1
				C102.5,98.8,98.8,102.5,94.3,102.5z"/>
			<g id="Cover_00000039097421974225173980000002243098032253322919_">
				<path class="st6" d="M93.3,97.4c0,0-43.8-16.3-64.8,0h-6c0,0-1.8-6.9-10.1-7.2H18c0,0-0.1-2.3-1.2-5.1c2.4,1.1,5.2,3.1,7,6.9
					h4.6c0,0,21-14,55.9-2.8v-7.5c0,0-30.7-11.7-61.7,2.3c0,0,10-17.1,66.5-8C89,76.1,89,91.2,93.3,97.4z"/>
				<path class="st6" d="M18,90.2h-5.6c-0.1,0-0.3,0-0.4,0v-6.3c0,0,2.2,0.1,4.8,1.3C17.9,87.9,18,90.2,18,90.2z"/>
				<path class="st6" d="M17.9,79.2c13.4-32.5,2.2-64.6,2.2-64.6h-7.2c10.7,36.5-2.7,58.5-2.7,58.5v4.8c3.6,1.8,5.5,4.7,6.6,7.3
					C14.2,84,12,83.9,12,83.9v6.3c0.1,0,0.3,0,0.4,0H12c0-9-6.8-11-6.8-11v-6.3c15.6-22,0-67.8,0-67.8C11,9.6,25.5,9.6,25.5,9.6
					C34.2,68.7,17.9,79.2,17.9,79.2z"/>
			</g>
			<g id="Paper_00000170261287220187144760000010628320816422080679_">
				<path id="Paper_00000093176042933181614250000006779641889662614713_" class="st6" d="M26.2,76.8c0.2-1.6,0.4-3.2,0.5-4.7
					c1.1-9.5,3-18.8,7.2-27.4c4.8-10,12.1-16.8,23-19.1c-0.9,2.9-2,5.7-2.6,8.6c-0.6,2.8-2.2,4.6-4.5,6.2
					c-6.4,4.5-12.1,9.9-16.3,16.8c-2.3,3.7-4,7.8-4.9,12.1c-0.1,0.3,0,0.6,0.2,1.1C37.2,49.4,51.5,38,73.8,39.3
					c-1.3,1.7-2.7,3.4-4.1,5.2c-0.7,0.9-1.5,1.7-2,2.6c-1.8,3.3-5.2,3.1-8.1,3.9c-9.6,2.8-18.7,6.7-25.8,14.5c-1.4,1.6-2.7,3.4-4,5
					c1,1.4,1.7,1.4,2.7,0.3c5.6-5.6,11.8-10.5,19.1-13.4c8.1-3.3,16.3-3.3,24.7-0.6c7.2,2.3,13.7,6.2,20.2,10
					c0.3,0.2,0.5,0.4,0.8,0.6C92,69,86.6,70.3,81.5,72.1c-2.9,1-5-0.5-7.2-1.5C68.4,68,62.3,66.3,56,66c-8.4-0.5-16.2,1.7-23.3,6.4
					L26.2,76.8z"/>
			</g>
		</g>
		<g id="Light" class="st0">
			<path class="st7" d="M94.3,102.5H8.2c-4.5,0-8.2-3.7-8.2-8.2V8.2C0,3.7,3.7,0,8.2,0h86.1c4.5,0,8.2,3.7,8.2,8.2v86.1
				C102.5,98.8,98.8,102.5,94.3,102.5z"/>
			<g id="Cover_00000127045533470651870190000007335760018287099018_" class="st1">
				<path class="st8" d="M93.3,97.4c0,0-43.8-16.3-64.8,0h-6c0,0-1.8-6.9-10.1-7.2H18c0,0-0.1-2.3-1.2-5.1c2.4,1.1,5.2,3.1,7,6.9
					h4.6c0,0,21-14,55.9-2.8v-7.5c0,0-30.7-11.7-61.7,2.3c0,0,10-17.1,66.5-8C89,76.1,89,91.2,93.3,97.4z"/>
				<path class="st8" d="M18,90.2h-5.6c-0.1,0-0.3,0-0.4,0v-6.3c0,0,2.2,0.1,4.8,1.3C17.9,87.9,18,90.2,18,90.2z"/>
				<path class="st8" d="M17.9,79.2c13.4-32.5,2.2-64.6,2.2-64.6h-7.2c10.7,36.5-2.7,58.5-2.7,58.5v4.8c3.6,1.8,5.5,4.7,6.6,7.3
					C14.2,84,12,83.9,12,83.9v6.3c0.1,0,0.3,0,0.4,0H12c0-9-6.8-11-6.8-11v-6.3c15.6-22,0-67.8,0-67.8C11,9.6,25.5,9.6,25.5,9.6
					C34.2,68.7,17.9,79.2,17.9,79.2z"/>
			</g>
			<g id="Paper_00000044879856042825939750000011674021292538011551_" class="st1">
				<path id="Paper_00000161604507347589826270000012212489873134109073_" class="st8" d="M26.2,76.8c0.2-1.6,0.4-3.2,0.5-4.7
					c1.1-9.5,3-18.8,7.2-27.4c4.8-10,12.1-16.8,23-19.1c-0.9,2.9-2,5.7-2.6,8.6c-0.6,2.8-2.2,4.6-4.5,6.2
					c-6.4,4.5-12.1,9.9-16.3,16.8c-2.3,3.7-4,7.8-4.9,12.1c-0.1,0.3,0,0.6,0.2,1.1C37.2,49.4,51.5,38,73.8,39.3
					c-1.3,1.7-2.7,3.4-4.1,5.2c-0.7,0.9-1.5,1.7-2,2.6c-1.8,3.3-5.2,3.1-8.1,3.9c-9.6,2.8-18.7,6.7-25.8,14.5c-1.4,1.6-2.7,3.4-4,5
					c1,1.4,1.7,1.4,2.7,0.3c5.6-5.6,11.8-10.5,19.1-13.4c8.1-3.3,16.3-3.3,24.7-0.6c7.2,2.3,13.7,6.2,20.2,10
					c0.3,0.2,0.5,0.4,0.8,0.6C92,69,86.6,70.3,81.5,72.1c-2.9,1-5-0.5-7.2-1.5C68.4,68,62.3,66.3,56,66c-8.4-0.5-16.2,1.7-23.3,6.4
					L26.2,76.8z"/>
			</g>
		</g>
	</g>
</g>
</svg>
