<?xml version="1.0" encoding="utf-8"?>
<!-- Generator: Adobe Illustrator 27.5.0, SVG Export Plug-In . SVG Version: 6.00 Build 0)  -->
<svg version="1.1" id="Layer_1" xmlns="http://www.w3.org/2000/svg" xmlns:xlink="http://www.w3.org/1999/xlink" x="0px" y="0px"
	 viewBox="0 0 636.1 140.4" style="enable-background:new 0 0 636.1 140.4;" xml:space="preserve">
<style type="text/css">
	.st0{display:none;}
	.st1{display:inline;fill:url(#SVGID_1_);}
	.st2{display:inline;fill:url(#SVGID_00000039118826068972448110000015363193951592803000_);}
	.st3{display:inline;fill:url(#SVGID_00000046313976417338654830000007587520084097158272_);}
	.st4{display:inline;fill:url(#SVGID_00000120556247399696772220000004519851541813688493_);}
	.st5{display:inline;fill:url(#SVGID_00000171696789825478051990000003086625784836322464_);}
	.st6{display:inline;fill:url(#SVGID_00000154427862038416056500000011377523981276958629_);}
	.st7{enable-background:new    ;}
	.st8{fill:#83AC63;}
	.st9{fill:#E2EBD8;}
	.st10{display:inline;fill:#83AC62;}
	.st11{display:inline;}
	.st12{fill:#E2ECD9;}
</style>
<g id="Layer_1_00000164493983728642101550000004601060597487485886_">
	<g class="st0">
		
			<linearGradient id="SVGID_1_" gradientUnits="userSpaceOnUse" x1="-14.647" y1="-1690.3" x2="656.5567" y2="-1690.3" gradientTransform="matrix(1 0 0 -1 0 -1636)">
			<stop  offset="1.502404e-03" style="stop-color:#DA8CFF"/>
			<stop  offset="1" style="stop-color:#9A55FF"/>
		</linearGradient>
		<path class="st1" d="M202.9,65.2v38.1H179v-98h38.7c7.6,0,14.2,1.4,19.6,4.2c5.4,2.8,9.5,6.5,12.3,11c2.7,4.6,4.1,9.5,4.1,14.8
			c0,4.5-1.1,9-3.3,13.5s-6,8.4-11.4,11.6c-5.4,3.2-12.5,4.8-21.4,4.8H202.9z M226.3,43.8c2.1-2.1,3.1-5,3.1-8.5
			c0-3.4-1.1-6.3-3.2-8.5c-2.1-2.2-5-3.3-8.5-3.3h-14.8V47h14.8C221.4,47,224.2,46,226.3,43.8z"/>
		
			<linearGradient id="SVGID_00000106134102971022630810000009206208105071138731_" gradientUnits="userSpaceOnUse" x1="-14.647" y1="-1700.75" x2="656.5567" y2="-1700.75" gradientTransform="matrix(1 0 0 -1 0 -1636)">
			<stop  offset="1.502404e-03" style="stop-color:#DA8CFF"/>
			<stop  offset="1" style="stop-color:#9A55FF"/>
		</linearGradient>
		<path style="display:inline;fill:url(#SVGID_00000106134102971022630810000009206208105071138731_);" d="M340.9,25.4v77.9H317
			V91.8c-2.3,3.8-5.5,6.8-9.6,9c-4,2.2-8.7,3.3-14,3.3c-5.9,0-11-1.3-15.6-4c-4.5-2.7-8-6.5-10.6-11.5s-3.8-10.9-3.8-17.7V25.4h23.7
			v42.3c0,5,1.3,8.9,4,11.7c2.7,2.7,6.3,4.1,11,4.1s8.3-1.4,11-4.1s4-6.6,4-11.7V25.4H340.9z"/>
		
			<linearGradient id="SVGID_00000135679786765985768490000005664191783114828432_" gradientUnits="userSpaceOnUse" x1="-14.647" y1="-1699.95" x2="656.5567" y2="-1699.95" gradientTransform="matrix(1 0 0 -1 0 -1636)">
			<stop  offset="1.502404e-03" style="stop-color:#DA8CFF"/>
			<stop  offset="1" style="stop-color:#9A55FF"/>
		</linearGradient>
		<path style="display:inline;fill:url(#SVGID_00000135679786765985768490000005664191783114828432_);" d="M395.3,28.7
			c3.8-2.7,8-4.1,12.7-4.1v24.3h-5.9c-5.5,0-9.6,1.3-12.4,3.9c-2.7,2.6-4.1,7.2-4.1,13.7v36.8h-23.9V25.4h23.9v14.5
			C388.3,35.2,391.5,31.4,395.3,28.7z"/>
		
			<linearGradient id="SVGID_00000088115516485555807730000013778160788319743910_" gradientUnits="userSpaceOnUse" x1="-14.647" y1="-1718.5979" x2="656.5567" y2="-1718.5979" gradientTransform="matrix(1 0 0 -1 0 -1636)">
			<stop  offset="1.502404e-03" style="stop-color:#DA8CFF"/>
			<stop  offset="1" style="stop-color:#9A55FF"/>
		</linearGradient>
		<path style="display:inline;fill:url(#SVGID_00000088115516485555807730000013778160788319743910_);" d="M485.5,29.7
			c5.4,3.4,9.7,8.1,12.9,14.2c3.2,6,4.7,12.9,4.7,20.7c0,7.7-1.6,14.6-4.7,20.7c-3.2,6-7.5,10.7-12.9,14.1s-11.4,5-17.8,5
			c-9.7,0-17.3-4.1-22.9-12.3v48.4H421v-115h23.9v10.2c5.3-7.3,12.9-11,22.9-11C474.2,24.6,480.1,26.3,485.5,29.7z M453.7,47.4
			c-2.6,1.4-4.7,3.6-6.4,6.4c-1.6,2.8-2.4,6.4-2.4,10.5c0,4.2,0.8,7.7,2.4,10.6s3.8,5,6.4,6.5c2.7,1.4,5.4,2.2,8.2,2.2
			c2.9,0,5.6-0.7,8.2-2.2c2.6-1.4,4.7-3.6,6.3-6.4c1.6-2.8,2.4-6.4,2.4-10.5c0-4.2-0.8-7.7-2.4-10.6c-1.6-2.9-3.8-5-6.4-6.5
			c-2.7-1.4-5.4-2.2-8.2-2.2S456.3,45.9,453.7,47.4z"/>
		
			<linearGradient id="SVGID_00000052816907348775354710000009782506611271827111_" gradientUnits="userSpaceOnUse" x1="-14.647" y1="-1687.65" x2="656.5567" y2="-1687.65" gradientTransform="matrix(1 0 0 -1 0 -1636)">
			<stop  offset="1.502404e-03" style="stop-color:#DA8CFF"/>
			<stop  offset="1" style="stop-color:#9A55FF"/>
		</linearGradient>
		<path style="display:inline;fill:url(#SVGID_00000052816907348775354710000009782506611271827111_);" d="M542.3,0v103.3h-23.9V0
			H542.3z"/>
		
			<linearGradient id="SVGID_00000101822187194494155700000009172696030583193996_" gradientUnits="userSpaceOnUse" x1="-14.647" y1="-1700.5" x2="656.5567" y2="-1700.5" gradientTransform="matrix(1 0 0 -1 0 -1636)">
			<stop  offset="1.502404e-03" style="stop-color:#DA8CFF"/>
			<stop  offset="1" style="stop-color:#9A55FF"/>
		</linearGradient>
		<path style="display:inline;fill:url(#SVGID_00000101822187194494155700000009172696030583193996_);" d="M635.5,72.2h-53.6
			c0.5,3.4,2,6.3,4.6,8.4c2.6,2.2,5.9,3.3,9.8,3.3c3,0,5.2-0.4,6.7-1.3s3.1-2.3,4.7-4.4h25.8c-2.2,7.8-6.7,14.1-13.4,18.9
			s-14.7,7.2-23.9,7.2c-7.4,0-14.1-1.6-20-4.9s-10.5-7.9-13.8-14s-5-13.1-5-21.1s1.7-15,5-21s7.9-10.6,13.7-13.8
			c5.9-3.2,12.5-4.8,20-4.8s14.3,1.6,20.4,4.7c6,3.1,10.8,7.7,14.3,13.7s5.2,13.3,5.2,21.6C636.1,67.3,635.9,69.8,635.5,72.2z
			 M611.2,57.2c-0.4-3.6-2-6.6-4.7-8.9c-2.8-2.3-6.2-3.4-10.3-3.4c-3.5,0-6.6,1.1-9.2,3.4c-2.6,2.3-4.2,5.2-4.9,8.9
			C582.1,57.2,611.2,57.2,611.2,57.2z"/>
	</g>
	<g class="st7">
		<path class="st8" d="M227.1,95.9v13.9h-48.8V35.1H226V49h-33.1v16.2h29.2v13.4h-29.2v17.3H227.1z"/>
		<path class="st8" d="M288.7,30.6v79.2h-13.4v-6.6c-3.5,5-8.6,7.5-15.1,7.5c-13.7,0-24.2-11.5-24.2-29.5s10.5-29.5,24.2-29.5
			c5.9,0,11,2.3,14.5,6.9V30.6H288.7z M274.9,81.1c0-10-5.4-15.9-12.3-15.9c-7,0-12.4,5.9-12.4,15.9S255.6,97,262.6,97
			C269.5,97,274.9,90.9,274.9,81.1z"/>
		<path class="st8" d="M352.4,52.3v57.4h-13.3v-6.9c-3.7,5-9.1,7.7-15,7.7c-12.1,0-20.7-8.1-20.7-25.8V52.3h14v30
			c0,9.6,3.6,13.9,9.8,13.9c6.5,0,11.2-4.9,11.2-15.4V52.3H352.4z"/>
		<path class="st8" d="M368.4,35.1H383v60.6h31.6v14.1h-46.2V35.1z"/>
		<path class="st8" d="M470.6,85.7H434c1.3,7.1,6.5,11.5,13.9,11.5c5.1,0,8.8-1.8,12.1-5.6l7.5,9.6c-4.5,6-11.2,9.2-20,9.2
			c-16.7,0-27.6-12.4-27.6-29.5c0-17.2,11.1-29.5,25.8-29.5c14.2,0,25.2,11.3,25.2,29.7C470.9,82.5,470.7,84.3,470.6,85.7z
			 M433.8,76h23.8c-1-7.2-5.6-12-11.9-12C439.4,64,434.8,68.6,433.8,76z"/>
		<path class="st8" d="M523.7,76.9v32.7h-13.1v-7.1c-2.6,5.2-7.6,7.9-14.8,7.9c-11.3,0-18.1-7.5-18.1-17.4c0-10.1,6-17.2,20.8-17.2
			h11.2c0-7.1-3.6-11.3-11.2-11.3c-5.1,0-10.4,2-14,5.3l-5-11.6c5.3-4.5,13.1-6.9,20.9-6.9C515.1,51.4,523.7,59.6,523.7,76.9z
			 M509.6,91.6v-5.8H500c-6.6,0-8.6,2.8-8.6,6.8c0,4.1,3,6.9,7.9,6.9C504,99.3,508,96.8,509.6,91.6z"/>
		<path class="st8" d="M568.4,51.4v15.4c-1.2-0.1-2.1-0.2-3.1-0.2c-7.7,0-12.9,5-12.9,16v27.1h-14V52.3h13.4v7.6
			C555.2,54.4,560.9,51.4,568.4,51.4z"/>
		<path class="st8" d="M628.3,76.8v32.8h-14V79.4c0-9.2-3.6-13.5-9.8-13.5c-6.8,0-11.6,4.9-11.6,15.4v28.3h-14V52.3h13.4V59
			c3.8-4.9,9.4-7.6,16-7.6C619.6,51.4,628.3,59.4,628.3,76.8z"/>
	</g>
</g>
<g id="Layer_2_00000080202210054347488770000011906579896214844068_">
	<g>
		<g id="Normal_00000166657376632612198290000003891494957668371854_">
			<path class="st9" d="M96.5,110.6H8.4c-4.6,0-8.4-3.8-8.4-8.4V14.1c0-4.6,3.8-8.4,8.4-8.4h88.1c4.6,0,8.4,3.8,8.4,8.4v88.1
				C104.9,106.9,101.1,110.6,96.5,110.6z"/>
			<g id="Cover_00000039097421974225173980000002243098032253322919_">
				<path class="st8" d="M95.5,105.4c0,0-44.8-16.7-66.3,0H23c0,0-1.9-7.1-10.4-7.3h5.8c0,0-0.1-2.4-1.3-5.2
					c2.5,1.1,5.4,3.2,7.2,7.1H29c0,0,21.5-14.3,57.2-2.9v-7.7c0,0-31.4-11.9-63.2,2.4c0,0,10.3-17.5,68.1-8.2
					C91.1,83.6,91.1,99.1,95.5,105.4z"/>
				<path class="st8" d="M18.4,98.1h-5.8c-0.1,0-0.3,0-0.4,0v-6.5c0,0,2.2,0.1,4.9,1.3C18.3,95.7,18.4,98.1,18.4,98.1z"/>
				<path class="st8" d="M18.2,86.8c13.7-33.2,2.3-66.1,2.3-66.1h-7.3c10.9,37.3-2.8,59.8-2.8,59.8v4.9c3.7,1.9,5.6,4.8,6.7,7.4
					c-2.7-1.2-4.9-1.3-4.9-1.3V98c0.1,0,0.3,0,0.4,0h-0.4c0-9.2-7-11.3-7-11.3v-6.5c16-22.5,0-69.4,0-69.4c6,4.6,20.8,4.6,20.8,4.6
					C35,76.1,18.2,86.8,18.2,86.8z"/>
			</g>
			<g id="Paper_00000170261287220187144760000010628320816422080679_">
				<path id="Paper_00000093176042933181614250000006779641889662614713_" class="st8" d="M26.8,84.3c0.2-1.7,0.4-3.2,0.6-4.8
					c1.2-9.7,3.1-19.2,7.3-28.1C39.6,41.3,47,34.3,58.2,32c-0.9,3-2,5.9-2.7,8.8c-0.6,2.9-2.3,4.7-4.6,6.3
					c-6.6,4.6-12.4,10.1-16.7,17.2c-2.4,3.8-4,8-5.1,12.4c-0.1,0.3,0,0.6,0.2,1.1C38.1,56.3,52.7,44.6,75.5,46
					c-1.3,1.7-2.8,3.5-4.2,5.3c-0.7,0.9-1.5,1.7-2.1,2.7c-1.9,3.4-5.3,3.2-8.2,4c-9.9,2.9-19.2,6.8-26.4,14.8
					c-1.5,1.6-2.7,3.5-4.1,5.2c1,1.5,1.7,1.4,2.8,0.3c5.8-5.8,12.1-10.7,19.6-13.8c8.3-3.4,16.7-3.3,25.2-0.7
					c7.4,2.3,14,6.3,20.7,10.2c0.3,0.2,0.5,0.4,0.8,0.7c-5.5,1.6-11,2.9-16.3,4.7c-3,1.1-5.1-0.5-7.4-1.5c-6-2.6-12.2-4.4-18.6-4.7
					c-8.6-0.5-16.6,1.7-23.9,6.6L26.8,84.3z"/>
			</g>
		</g>
		<g id="Light" class="st0">
			<path class="st10" d="M96.5,110.6H8.4c-4.6,0-8.4-3.8-8.4-8.4V14.1c0-4.6,3.8-8.4,8.4-8.4h88.1c4.6,0,8.4,3.8,8.4,8.4v88.1
				C104.9,106.9,101.1,110.6,96.5,110.6z"/>
			<g id="Cover_00000127045533470651870190000007335760018287099018_" class="st11">
				<path class="st12" d="M95.5,105.4c0,0-44.8-16.7-66.3,0H23c0,0-1.9-7.1-10.4-7.3h5.8c0,0-0.1-2.4-1.3-5.2
					c2.5,1.1,5.4,3.2,7.2,7.1H29c0,0,21.5-14.3,57.2-2.9v-7.7c0,0-31.4-11.9-63.2,2.4c0,0,10.3-17.5,68.1-8.2
					C91.1,83.6,91.1,99.1,95.5,105.4z"/>
				<path class="st12" d="M18.4,98.1h-5.8c-0.1,0-0.3,0-0.4,0v-6.5c0,0,2.2,0.1,4.9,1.3C18.3,95.7,18.4,98.1,18.4,98.1z"/>
				<path class="st12" d="M18.2,86.8c13.7-33.2,2.3-66.1,2.3-66.1h-7.3c10.9,37.3-2.8,59.8-2.8,59.8v4.9c3.7,1.9,5.6,4.8,6.7,7.4
					c-2.7-1.2-4.9-1.3-4.9-1.3V98c0.1,0,0.3,0,0.4,0h-0.4c0-9.2-7-11.3-7-11.3v-6.5c16-22.5,0-69.4,0-69.4c6,4.6,20.8,4.6,20.8,4.6
					C35,76.1,18.2,86.8,18.2,86.8z"/>
			</g>
			<g id="Paper_00000044879856042825939750000011674021292538011551_" class="st11">
				<path id="Paper_00000161604507347589826270000012212489873134109073_" class="st12" d="M26.8,84.3c0.2-1.7,0.4-3.2,0.6-4.8
					c1.2-9.7,3.1-19.2,7.3-28.1C39.6,41.3,47,34.3,58.2,32c-0.9,3-2,5.9-2.7,8.8c-0.6,2.9-2.3,4.7-4.6,6.3
					c-6.6,4.6-12.4,10.1-16.7,17.2c-2.4,3.8-4,8-5.1,12.4c-0.1,0.3,0,0.6,0.2,1.1C38.1,56.3,52.7,44.6,75.5,46
					c-1.3,1.7-2.8,3.5-4.2,5.3c-0.7,0.9-1.5,1.7-2.1,2.7c-1.9,3.4-5.3,3.2-8.2,4c-9.9,2.9-19.2,6.8-26.4,14.8
					c-1.5,1.6-2.7,3.5-4.1,5.2c1,1.5,1.7,1.4,2.8,0.3c5.8-5.8,12.1-10.7,19.6-13.8c8.3-3.4,16.7-3.3,25.2-0.7
					c7.4,2.3,14,6.3,20.7,10.2c0.3,0.2,0.5,0.4,0.8,0.7c-5.5,1.6-11,2.9-16.3,4.7c-3,1.1-5.1-0.5-7.4-1.5c-6-2.6-12.2-4.4-18.6-4.7
					c-8.6-0.5-16.6,1.7-23.9,6.6L26.8,84.3z"/>
			</g>
		</g>
	</g>
</g>
</svg>
