<?xml version="1.0" encoding="utf-8"?>
<!-- Generator: Adobe Illustrator 27.5.0, SVG Export Plug-In . SVG Version: 6.00 Build 0)  -->
<svg version="1.1" id="Logo" xmlns="http://www.w3.org/2000/svg" xmlns:xlink="http://www.w3.org/1999/xlink" x="0px" y="0px"
	 viewBox="0 0 1000 1000" style="enable-background:new 0 0 1000 1000;" xml:space="preserve">
<style type="text/css">
	.st0{fill:#E2EBD8;}
	.st1{fill:#83AC63;}
	.st2{display:none;}
	.st3{display:inline;fill:#83AC62;}
	.st4{display:inline;}
	.st5{fill:#E2ECD9;}
</style>
<g id="Normal_00000166657376632612198290000003891494957668371854_">
	<path class="st0" d="M920,1000H80c-44.2,0-80-35.8-80-80V80C0,35.8,35.8,0,80,0h840c44.2,0,80,35.8,80,80v840
		C1000,964.2,964.2,1000,920,1000z"/>
	<g id="Cover_00000039097421974225173980000002243098032253322919_">
		<path class="st1" d="M910.6,950c0,0-427-159.2-631.9,0h-59c0,0-18-67.7-98.9-69.8h55c0,0-0.9-22.6-12-49.5
			c23.8,10.6,51.1,30.5,68.4,67.3h45c0,0,204.9-136.5,545-27.6v-73.1c0,0-299.7-113.7-602.4,22.8c0,0,97.8-167.3,649-78
			C868.6,742,868.6,889.9,910.6,950z"/>
		<path class="st1" d="M175.8,880.2h-55c-1.3,0-2.6-0.1-3.9-0.1v-61.7c0,0,21.4,0.9,46.9,12.3C174.9,857.6,175.8,880.2,175.8,880.2z
			"/>
		<path class="st1" d="M174.2,773c130.4-316.8,21.7-630.4,21.7-630.4h-69.9c104,355.8-26.4,570.3-26.4,570.3V760
			c34.9,17.9,53.8,46.1,64,70.8c-25.5-11.5-46.9-12.3-46.9-12.3v61.7c1.3,0,2.6,0,3.9,0.1h-4C116.8,792.5,50,773,50,773v-61.7
			C202.2,496.8,50,50,50,50c57.5,43.9,198.7,43.9,198.7,43.9C334.1,670.6,174.2,773,174.2,773z"/>
	</g>
	<g id="Paper_00000170261287220187144760000010628320816422080679_">
		<path id="Paper_00000093176042933181614250000006779641889662614713_" class="st1" d="M255.7,749.4c1.9-15.9,3.6-30.8,5.3-45.7
			C272,611,290.4,520.4,331,436.2c47-97.4,117.7-163.8,224.5-186.3c-9,28.7-19.5,55.9-25.8,84.2c-6.1,27.8-21.5,44.6-43.5,60
			c-62.7,44-118.2,96.4-159.5,163.6c-22.5,36.5-38.6,76-48.2,118.4c-0.6,2.7,0.2,5.7,2.2,10.6C363,482.4,502.8,370.3,720.4,383.7
			c-12.7,16.1-26.3,33.3-40,50.5c-6.7,8.5-14.7,16.3-19.8,25.8c-17.7,32.5-50.7,30.2-78.6,38.4c-94,27.7-182.8,65.3-251.8,141.2
			c-14,15.5-26.1,32.9-38.9,49.1c9.6,13.9,16.6,13.2,26.6,3.3c54.9-54.9,114.9-102.1,186.6-131.2C583.9,528.5,664,529,745,554.5
			c70.4,22.1,133.5,60.3,197.1,97.4c2.5,1.5,4.6,3.7,7.9,6.3c-52.7,15-104.8,27.3-155,45.2c-28.5,10.2-48.7-5-70.7-14.6
			c-57.1-24.9-116.1-41.5-177.7-45.1c-82.1-4.9-158.3,16.4-227.8,62.8L255.7,749.4z"/>
	</g>
</g>
<g id="Light" class="st2">
	<path class="st3" d="M920,1000H80c-44.2,0-80-35.8-80-80V80C0,35.8,35.8,0,80,0h840c44.2,0,80,35.8,80,80v840
		C1000,964.2,964.2,1000,920,1000z"/>
	<g id="Cover_00000127045533470651870190000007335760018287099018_" class="st4">
		<path class="st5" d="M910.6,950c0,0-427-159.2-631.9,0h-59c0,0-18-67.7-98.9-69.8h55c0,0-0.9-22.6-12-49.5
			c23.8,10.6,51.1,30.5,68.4,67.3h45c0,0,204.9-136.5,545-27.6v-73.1c0,0-299.7-113.7-602.4,22.8c0,0,97.8-167.3,649-78
			C868.6,742,868.6,889.9,910.6,950z"/>
		<path class="st5" d="M175.8,880.2h-55c-1.3,0-2.6-0.1-3.9-0.1v-61.7c0,0,21.4,0.9,46.9,12.3C174.9,857.6,175.8,880.2,175.8,880.2z
			"/>
		<path class="st5" d="M174.2,773c130.4-316.8,21.7-630.4,21.7-630.4h-69.9c104,355.8-26.4,570.3-26.4,570.3V760
			c34.9,17.9,53.8,46.1,64,70.8c-25.5-11.5-46.9-12.3-46.9-12.3v61.7c1.3,0,2.6,0,3.9,0.1h-4C116.8,792.5,50,773,50,773v-61.7
			C202.2,496.8,50,50,50,50c57.5,43.9,198.7,43.9,198.7,43.9C334.1,670.6,174.2,773,174.2,773z"/>
	</g>
	<g id="Paper_00000044879856042825939750000011674021292538011551_" class="st4">
		<path id="Paper_00000161604507347589826270000012212489873134109073_" class="st5" d="M255.7,749.4c1.9-15.9,3.6-30.8,5.3-45.7
			C272,611,290.4,520.4,331,436.2c47-97.4,117.7-163.8,224.5-186.3c-9,28.7-19.5,55.9-25.8,84.2c-6.1,27.8-21.5,44.6-43.5,60
			c-62.7,44-118.2,96.4-159.5,163.6c-22.5,36.5-38.6,76-48.2,118.4c-0.6,2.7,0.2,5.7,2.2,10.6C363,482.4,502.8,370.3,720.4,383.7
			c-12.7,16.1-26.3,33.3-40,50.5c-6.7,8.5-14.7,16.3-19.8,25.8c-17.7,32.5-50.7,30.2-78.6,38.4c-94,27.7-182.8,65.3-251.8,141.2
			c-14,15.5-26.1,32.9-38.9,49.1c9.6,13.9,16.6,13.2,26.6,3.3c54.9-54.9,114.9-102.1,186.6-131.2C583.9,528.5,664,529,745,554.5
			c70.4,22.1,133.5,60.3,197.1,97.4c2.5,1.5,4.6,3.7,7.9,6.3c-52.7,15-104.8,27.3-155,45.2c-28.5,10.2-48.7-5-70.7-14.6
			c-57.1-24.9-116.1-41.5-177.7-45.1c-82.1-4.9-158.3,16.4-227.8,62.8L255.7,749.4z"/>
	</g>
</g>
</svg>
