<?xml version="1.0" encoding="utf-8"?>
<!-- Generator: Adobe Illustrator 27.5.0, SVG Export Plug-In . SVG Version: 6.00 Build 0)  -->
<svg version="1.1" id="Layer_1" xmlns="http://www.w3.org/2000/svg" xmlns:xlink="http://www.w3.org/1999/xlink" x="0px" y="0px"
	 viewBox="0 0 496.4 500" style="enable-background:new 0 0 496.4 500;" xml:space="preserve">
<style type="text/css">
	.st0{display:none;}
	.st1{display:inline;}
	.st2{fill:#B1B4C4;}
	.st3{fill:#616E84;}
	.st4{fill:#20232D;}
	.st5{fill:#FFFFFF;}
	.st6{fill:#2B303F;}
	.st7{opacity:0.1;fill:#FFFFFF;enable-background:new    ;}
	.st8{fill:#757B89;}
	.st9{fill:#E9EAF2;}
	.st10{fill:#CED0DB;}
	.st11{fill:#2B2A30;}
	.st12{fill:#FFCEA9;}
	.st13{fill:#F4F4F4;}
	.st14{fill:#E26161;}
	.st15{opacity:0.1;enable-background:new    ;}
	.st16{opacity:0.4;fill:#D6D8E5;enable-background:new    ;}
	.st17{fill:#EDEDED;}
	.st18{fill:#38226D;}
	.st19{fill:#9C73FF;}
	.st20{fill:#8C50FF;}
	.st21{fill:#3A2C6D;}
	.st22{fill:#D6D8E5;}
	.st23{fill:#E4E6EF;}
	.st24{fill:#28221C;}
	.st25{fill:#99B524;}
	.st26{fill:#A6CE28;}
	.st27{fill:#D9DCE8;}
	.st28{fill:#EFF1F9;}
	.st29{fill:#D3D6E2;}
	.st30{fill:#C5C8D3;}
	.st31{fill:#E4EDDA;}
	.st32{fill:#CADDB9;}
	.st33{fill:#364A2A;}
	.st34{fill:#53753B;}
	.st35{fill:#172112;}
	.st36{fill:#A8C78F;}
	.st37{opacity:0.6;fill:#405B30;enable-background:new    ;}
	.st38{opacity:0.5;fill:#364A2A;enable-background:new    ;}
	.st39{opacity:0.4;fill:#6C944E;enable-background:new    ;}
	.st40{opacity:0.15;enable-background:new    ;}
	.st41{fill:#405B30;}
	.st42{opacity:0.5;fill:#FFFFFF;enable-background:new    ;}
	.st43{fill:#304027;}
	.st44{fill:#6F9357;}
	.st45{opacity:0.5;}
	.st46{opacity:0.9;fill:#304027;enable-background:new    ;}
	.st47{fill:#E6E6E6;}
	.st48{fill:#27DEBF;}
	.st49{opacity:0.6;}
	.st50{fill:#84AC64;}
	.st51{opacity:0.9;}
	.st52{opacity:0.6;fill:#27DEBF;enable-background:new    ;}
	.st53{opacity:0.7;}
	.st54{opacity:0.3;}
	.st55{fill:#6C944E;}
	.st56{opacity:0.25;}
	.st57{fill:#FFA8A7;}
	.st58{opacity:0.4;enable-background:new    ;}
	.st59{fill:#FAFAFA;}
	.st60{fill:#455A64;}
	.st61{opacity:0.4;}
	.st62{opacity:0.5;enable-background:new    ;}
	.st63{fill:#FFB8B8;}
	.st64{fill:#F28F8F;}
	.st65{fill:none;stroke:#263238;stroke-width:1.207;stroke-miterlimit:10;}
	.st66{fill:#2F2E41;}
	.st67{fill:none;stroke:#263238;stroke-width:1.027;stroke-miterlimit:10;}
	.st68{opacity:0.1;fill:#27DEBF;enable-background:new    ;}
	.st69{opacity:0.3;enable-background:new    ;}
	.st70{opacity:0.2;enable-background:new    ;}
</style>
<g id="Layer_1_00000085213271330557783520000013185719528687610241_" class="st0">
	<g id="Слой_2" class="st1">
		<g id="Слой_1-2">
			<path class="st2" d="M418.5,409.3L310.6,347c-9.1-5.3-16.5-19.4-16.5-31.6V14.5c0-12.2,7.4-17.8,16.5-12.5l107.9,62.3
				c9.1,5.3,16.5,19.4,16.5,31.6v300.9C435.1,409,427.6,414.6,418.5,409.3z"/>
			<polygon class="st2" points="420.4,414.8 428.9,410.4 420.7,396.4 			"/>
			<polygon class="st2" points="292.4,5 300.3,0.9 298.7,12.5 			"/>
			<path class="st3" d="M411.6,412.8l-107.9-62.3c-9.1-5.3-16.5-19.4-16.5-31.6v-301c0-12.2,7.4-17.8,16.5-12.5l107.9,62.3
				c9.1,5.3,16.5,19.4,16.5,31.6v300.9C428.2,412.5,420.8,418,411.6,412.8z"/>
			<path class="st4" d="M427,100.1V401c0,12.2-7.4,17.8-16.5,12.5l-42.3-24.4l-13.1-7.6l-52.4-30.3c-9.1-5.3-16.5-19.4-16.5-31.6
				V18.7c0-12.2,7.4-17.8,16.5-12.5l107.9,62.3C419.6,73.8,427,87.9,427,100.1z"/>
			<path class="st5" d="M419.2,97v293.1c0,7.4-5.2,10.4-11.6,6.7L374,377.4l-3-1.7l-1-0.6l-7.3-4.2l-21.1-12.2l0,0l-8.8-5l-3.5-2
				l-23.9-13.8c-6.4-3.7-11.6-12.7-11.6-20.1V24.6c0-7.4,5.2-10.4,11.6-6.7l42.1,24.3v0.1c0,5.8,4,12.7,9,15.6s9,0.5,9-5.2v-0.1
				L407.7,77C414.1,80.7,419.2,89.7,419.2,97z"/>
			<ellipse transform="matrix(0.866 -0.5 0.5 0.866 22.3902 185.1058)" class="st6" cx="356.6" cy="50.8" rx="2.8" ry="4.8"/>
			<path class="st7" d="M356.5,52.4c-0.9-0.6-1.4-1.5-1.4-2.5c0-0.9,0.6-1.3,1.4-0.8c0.9,0.5,1.4,1.5,1.5,2.5
				C358,52.5,357.3,52.9,356.5,52.4z"/>
			<path class="st8" d="M431.4,139.7L431.4,139.7c-0.9,0.5-1.6,0-1.6-1.2v-12.8c0-1.2,0.6-2.3,1.6-3l0,0c0.9-0.5,1.6,0,1.6,1.2v12.8
				C433,137.9,432.4,139,431.4,139.7z"/>
			<path class="st8" d="M431.4,160.7L431.4,160.7c-0.9,0.5-1.6,0-1.6-1.2v-12.8c0-1.2,0.6-2.3,1.6-3.1l0,0c0.9-0.5,1.6,0,1.6,1.2
				v12.8C433,158.9,432.4,160,431.4,160.7z"/>
			<path class="st9" d="M399,371.8l-84.9-49c-4.4-2.5-8-9.4-8-15.2V150c0-5.9,3.6-8.6,8-6l84.9,49c4.4,2.6,8,9.4,8,15.2v157.6
				C407,371.6,403.4,374.3,399,371.8z"/>
			<ellipse transform="matrix(0.866 -0.5 0.5 0.866 -51.4273 193.6272)" class="st10" cx="335.6" cy="192.8" rx="13" ry="22.6"/>
			<polygon class="st10" points="394,224.4 361.2,205.5 361.2,197.8 394,216.7 			"/>
			<polygon class="st10" points="386.4,233.9 361.2,219.3 361.2,211.6 386.4,226.2 			"/>
			<polygon class="st10" points="394,268.7 319.6,225.8 319.6,218.1 394,261.1 			"/>
			<polygon class="st10" points="376.8,272.6 319.6,239.6 319.6,231.9 376.8,265 			"/>
			<polygon class="st10" points="393.7,296.2 319.4,253.3 319.4,245.6 393.7,288.5 			"/>
			<polygon class="st10" points="376.6,300.1 319.4,267.1 319.4,259.4 376.6,292.5 			"/>
			<polygon class="st10" points="393.7,323.9 319.4,280.9 319.4,273.2 393.7,316.2 			"/>
			<polygon class="st10" points="393.1,351.1 318.7,308.2 318.7,300.5 393.1,343.4 			"/>
			<polygon class="st10" points="376.6,327.8 319.4,294.7 319.4,287.1 376.6,320.1 			"/>
			<path class="st10" d="M329.6,135.4L329.6,135.4c-0.7-0.5-1.2-1.2-1.3-2.1L323,70.8l-4.2,26.8c-0.1,0.7-0.6,0.9-1.3,0.5l-10.2-5.9
				c-0.8-0.5-1.3-1.3-1.3-2.3c0-0.8,0.6-1.2,1.3-0.8l9.1,5.3l5.6-35.8c0.1-0.7,0.7-0.9,1.3-0.5c0.7,0.5,1.2,1.2,1.3,2.1l5.2,61.6
				l5-36.9c0.1-0.7,0.6-0.9,1.2-0.6c0.7,0.4,1.2,1.2,1.3,2l6,35.9l5.8-47c0.1-0.7,0.6-0.9,1.3-0.6l0,0c0.7,0.4,1.2,1.2,1.3,2
				l6.9,60.9l5.8-30c0.1-0.6,0.6-0.8,1.3-0.5l0,0c0.7,0.4,1.1,1.1,1.3,1.9l5.9,30.2l5.2-45.5c0.1-0.7,0.6-0.9,1.3-0.6
				c0.7,0.4,1.2,1.2,1.3,2l6.5,48l4.5-21c0.1-0.6,0.6-0.8,1.2-0.5c0.7,0.4,1.1,1,1.3,1.8l4.4,17.9l9.4,5.3l0,0
				c0.8,0.5,1.3,1.3,1.3,2.2c0,0.8-0.6,1.2-1.3,0.8l-10.3-5.8l0,0c-0.6-0.4-1.1-1-1.2-1.8l-3.2-13l-4.9,23c-0.1,0.6-0.7,0.8-1.3,0.4
				c-0.7-0.5-1.1-1.2-1.3-2l-6.1-45.3l-5,43.4c-0.1,0.7-0.6,0.9-1.2,0.6c-0.7-0.4-1.2-1.1-1.4-1.9l-6.1-31.6l-6.1,31.9
				c-0.1,0.6-0.7,0.8-1.3,0.4c-0.7-0.5-1.1-1.2-1.3-2l-6.7-58.7l-5.6,44.8c-0.1,0.7-0.6,0.9-1.2,0.6c-0.7-0.5-1.2-1.2-1.3-2l-6-36.3
				l-5.5,40.2C330.8,135.5,330.3,135.7,329.6,135.4z"/>
			<g id="Girl_14">
				<path id="_Контур_" class="st11" d="M344.1,101.4c2.1-3.4,18.1-5.6,23.3,8c2,5.1,1.7,18.2,3.4,26.5s5.6,12.9,7,19.6
					s-0.9,17.9-17,19.9s-28.5-3.7-32.3-8.8s-3.9-16.1,0.1-21.9s7-10.6,6.9-18.3L344.1,101.4z"/>
				<path id="_Контур_2" class="st11" d="M354.7,99.1c0,0-12-3.5-19.3,3c-6.7,5.9-6.1,14-5.1,17.8s2.9,9,5.9,9.3
					S354.7,99.1,354.7,99.1z"/>
				<path id="_Контур_3" class="st12" d="M359.3,131.9c0,0-0.8,13.4-0.5,14.4s5.3,1.9,6.7,3.1s-7.3,14.8-11.7,16.8
					s-18.1-3.1-19.1-10c-0.9-6.3,3.9-11.1,5.8-12.8c1.3-0.1,2.5-0.2,3.8-0.1l0.4-6.5C350.6,134.9,359.3,131.9,359.3,131.9z"/>
				<path class="st12" d="M326.9,157.2c-0.1-0.4-2,0.7-2,0.7s-1,34.4-2.6,37.5l0,0c-4.3,7.3-15.7,19.7-15.9,21.1
					c-0.8,4.2,1.6,0.4,5.5,0c2.2-0.3,15.1-13.3,18-16.3l0.2,0.1c0-0.1,0-0.2,0-0.3l0.4-0.4c0.1-0.9,0.1-1.9,0.1-2.8
					C335.8,159.4,329.2,156.9,326.9,157.2z"/>
				<path class="st5" d="M323.9,162.5l-0.7,16.6l-1.1,13.1c0,0,0.2,1.8-1.7,4.8s-12.2,15.8-12.2,15.8l4.6,3.9l10.6-8.7l7-46.8
					l-3.7-4.6L323.9,162.5z"/>
				<path id="_Контур_4" class="st13" d="M361.1,147.6c3.8,0.6,8.1,2.6,8.7,4.6c0.7,2.4,2.2,13.8-1.1,22.4s-5.5,14.1-7.3,17.8
					c0,0-16.3,7-29.4-1.2c0,0-0.9-9.2-1-14.2c-12.1-10.6-1.8-23.6,8.5-33.8c1.2-0.1,2.5-0.1,3.7-0.1c0,0-9.2,10.8-2.8,17
					C354,156.2,356.8,150,361.1,147.6z"/>
				<path id="_Контур_5" class="st12" d="M334.2,115.3L334.2,115.3c1.4-8.6,7.6-15.1,16.5-14.6c9.4,0.5,16.6,8.6,16.1,18
					c-0.3,5.3-3.1,10.2-7.5,13.2c-0.3,1.3-0.8,2.6-1.4,3.8c-3.1,3.7-11.5,6-14.3,6c-2.4,0-4.4-2.2-6.7-5.9
					C332.3,128.1,333.5,119.5,334.2,115.3z"/>
				<path class="st11" d="M353.5,100.8c6.2,1.2,11.4,3,13,9.1c1.2,4.2,2.7,12.2,1.2,15.6l-0.9,2.4l-7.5,3.9c0,0-3.5-2.9-2.4-11.5
					c0-1.2-0.4-2.3-1.1-3.3c-0.5-0.8-0.8-1.7-1-2.6c-0.8-2.4-2.7-4-4.9-5.3c-5.6-3.2-13.8-0.4-15,0.7
					C338.7,102.1,346.2,99.4,353.5,100.8z"/>
				<path class="st12" d="M375.6,237.2c-1,10.9-7.1,57.1-7.1,57.1c2.4,7.8,3.6,15.9,3.7,24c-0.1,6.7-1.8,18.1-3.8,28.7l-3.5,25.1
					l-8.3-4.8l0.3-18.8c-0.4-6.3-1-15.5-1.5-21.5c-0.6-9.6-2.4-25-2.9-28.8s-1.7-10.5-2.3-18s-3.4-45.6-3.4-45.6l-0.4,7.1
					c0,0-0.4,11.6-2,25.8s-2.3,20.6-2.3,20.6s2.9,5.3,3.3,9.2c0.3,3.1,3.8,27.5,1.7,39.9l-3.1,22.6l-10-5.7l-1.3-16.1
					c-1.7-12.1-5.3-37.8-5.9-41.1c-0.7-4.4-1.3-6.5-2.2-20.4s-0.5-43.8,0.9-54.6s5.4-26.7,5.4-26.7c3.8,1.8,7.9,2.8,12.1,3
					c7,0.4,18.2-1.8,18.2-1.8c2,3.4,4.1,6.8,6.4,9.9C370.9,211,377,220.5,375.6,237.2z"/>
				<path class="st14" d="M361.4,192.4l9.4,18.8c0,0,14.3,20.9-0.5,74.7l2.8,16.6c0,0-28,18-46.8,0c0,0-6.5-49.7-3-72.6
					c1.9-13.2,4.8-26.2,8.7-38.9c0,0,4.6,5.1,28.2,1.7"/>
				<path class="st5" d="M339.5,143.3c0,0-13.9,2.3-15.5,19.2l3.2-3.2C327.1,159.3,334.9,147.6,339.5,143.3z"/>
				<path class="st5" d="M343.2,143.3c-3.6,6.9-13,18.2-10.3,30.4c3.5,16.3-3.2,113.9-3.2,113.9s-8-5.1-8-9.1s3-109.4,3-114.4
					s8.8-13.9,14.7-20.8c1.6-0.6,3.2-0.8,4.9-0.8c0,0.4,0,0.4,0,0.8C343.9,143.3,343.7,143.3,343.2,143.3z"/>
				<polygon class="st13" points="281.4,232.7 313.4,214.1 336.4,227.4 304.4,246 				"/>
				<path class="st12" d="M309.3,215.5c-2,0.5-4,0.6-5.7,1.9c-0.6,0.6-1.3,1-2,1.5c-0.3,0.2-0.6,0.4-1,0.5c-0.5,0.2-0.9,0.5-1.3,0.9
					c-0.4,0.5-0.6,1.1-0.6,1.8c-0.2,0.8-0.2,1.5-0.1,2.3c0.3,1.1,1.5,1.1,2.1,0.3c0.3-0.4,0.5-0.9,0.5-1.4c0-1,0.5-1.9,1.4-2.4
					l7.6-4.8C310.1,215.6,309.7,215.4,309.3,215.5z"/>
				<path class="st5" d="M371.5,173.1c0,0-0.3,28.7,0.8,38s14.3,36.5,2.6,73.4c-1.7,2-3.3,6-18,7.8c-8.8,0-12-1.3-12-1.3
					s3.4-61.9-1.5-116.3c0-15,12.9-13.3,15.3-29.9c11.4,5.3,11.4,7,11.4,7L371.5,173.1z"/>
				<path class="st15" d="M365.7,151.4c-6.3,0.7-7.1,8.6-7.1,8.6l-0.3,12.2c0,0,0.7,15.5,2.5,20.2l-27.2,18.7l5.9,6.9
					c0,0,28.7-13.3,31-15.4s0-26.4,0.4-33.5C372.4,156,372,150.7,365.7,151.4z"/>
				<path class="st12" d="M370.2,158.1c-1.1-4.4-4.5-2.9-7.4-5.5c-6.8,9.6-2.3,35.7-1.4,38.5l-26.1,16.7l0,0
					c-0.4,0.3-1.3,0.8-1.8,1.1c-2.4,1.4-6.9,3.9-9.7,4.2c-2.6,0.3-4,4-6.8,4.3c-0.6,0-1.1,0.5-1,1.1c0,0.3,0.1,0.5,0.3,0.7
					c1.1,1.1,4.1,0.2,6.1-2.2c0,0.1,0,0.1,0,0.2c0,1,0.7,1.8,1.6,2c0,0.2,0,0.3,0.1,0.5c0.3,0.6,0.9,1,1.6,1.1l0,0
					c0.3,0.9,1.2,1.5,2.1,1.4c0.6,0,1.2-0.3,1.6-0.7c2.2-0.9,4.2-2.3,5.7-4.1c1.3-1.4,2.8-2.7,4.2-3.9c7.1-3.1,28.4-12.1,29.3-13.4
					C370.2,198.1,371.7,164.3,370.2,158.1z"/>
				<path class="st5" d="M364.6,149.3c-6.3,0.7-7.1,8.6-7.1,8.6l-0.3,12.2c0,0,0.7,15.5,2.5,20.3l-27.2,18.7l5.9,6.9
					c0,0,28.7-13.3,31-15.4s2.8-23.7,3.1-30.7C374.1,156.6,370.9,148.6,364.6,149.3z"/>
			</g>
			<g id="Men_2">
				<ellipse class="st16" cx="169.8" cy="450.9" rx="49.5" ry="28.6"/>
				<path id="_Контур_6" class="st12" d="M134.6,239.1c-0.6,4.8-6.3,25.6-5.1,32.7s20.8,19,20.8,19l2.7-12.2L142.2,268
					l2.9-20.1L134.6,239.1z"/>
				<path id="_Контур_7" class="st17" d="M149.7,218.6c-2.8-1.2-8-1.5-10.9,3.3s-5.9,21.2-6.1,24c0,0,4.1,5.6,10.1,4.7
					L149.7,218.6z"/>
				<path class="st18" d="M172.1,450c4.3,1.2,8.8,0.6,12.7-1.5c3.1,0.1,19.6-7,21.9-1c2,5.2-5.2,10.1-9.1,11
					c-8.4,2-14.6,6.2-17.9,6.9c-2.5,0.5-5.8,0.9-7.8-1.1C169.6,461.9,169.8,453.1,172.1,450z"/>
				<path class="st19" d="M179.7,463.9c3.4-0.7,9.6-4.9,17.9-6.9c3.2-0.8,8.8-4.3,9.3-8.5c0.7,4.8-5.7,9.1-9.3,9.9
					c-8.4,2-14.6,6.2-17.9,6.9c-2.5,0.5-5.8,0.9-7.8-1.1c-0.5-0.6-0.9-1.3-1.1-2C173.8,464.7,177.2,464.4,179.7,463.9z"/>
				<path class="st18" d="M145.2,437.9c4.3,1.2,8.8,0.6,12.7-1.5c3.1,0.1,19.6-7,21.9-1c2,5.2-5.2,10.1-9.1,11
					c-8.4,2-14.6,6.2-17.9,6.9c-2.5,0.5-5.8,0.9-7.8-1.1C142.7,449.8,142.9,441,145.2,437.9z"/>
				<path class="st19" d="M152.8,451.8c3.4-0.7,9.6-4.9,17.9-6.9c3.2-0.8,8.8-4.3,9.3-8.5c0.8,4.8-5.7,9.1-9.3,9.9
					c-8.4,2-14.6,6.2-17.9,6.9c-2.5,0.5-5.8,0.9-7.8-1.1c-0.5-0.6-0.9-1.3-1.1-2C146.9,452.6,150.3,452.3,152.8,451.8z"/>
				<path id="_Контур_8" class="st20" d="M144.9,392.9c0.7-6.2,2-12.2,3.8-18.2c0,0-1.1-15.7-1.7-30.5
					c-0.6-16.9-6.5-31.7-1.9-45.2l52.1,11.6c0,0-3.1,67.3-3.9,75.4c-0.4,6.3-1.2,12.6-2.3,18.9c-2.4,13.1-6.2,44.1-6.2,44.1
					c-5.5,3.2-12.7,1.4-12.7,1.4s0.4-39.3,0.8-48.7c0.4-11.5,0.8-10.6,0.8-10.6l-1.7-28.6l-1.1-14.2c0,0-1.4,10.5-2.4,19.8
					c-0.8,8.1-2.8,15.5-5,30.6c-1.9,13.1-5,39.5-5,39.5c-5.5,3.2-13,0.5-13,0.5S143.4,404.3,144.9,392.9z"/>
				<path id="_Контур_9" class="st12" d="M152.5,218.9c4,0.2,6.9,1.2,7.4,0c0.4-2,0.7-4.1,0.9-6.2c-0.5-1.1-0.9-2.4-0.9-2.4
					c-5-3.1-6.6-8.4-7.2-14.7c-1.1-10.7,4.7-20.1,15.4-21.2c10.1-1,17.5,6,19.4,15.8c1.1,4.8,3.2,13.9,0.3,21.8
					c-1.6,4.4-3.7,7.9-5.7,8.6c-2-0.1-4-0.2-5.9-0.5l0,0c0,0-0.5,3-0.9,4.9s-0.2,2.9,3.6,5.3s-5.8,7.1-12,6.7s-13.2-4.2-15.2-8.3
					C149.6,224.1,149.8,218.8,152.5,218.9z"/>
				<path id="_Контур_10" class="st13" d="M158.2,219.5c-1.1,2.7,1.7,6.1,9.1,8.4s8.1-0.7,8.1-0.7s10.9,5,14.5,7.4
					c4.5,3.1,6.4,12.2,7.1,27.4c0.7,17.7,0.8,43.9,0.2,48.4c0,0-8.4,8.3-19,7.4s-28.7-10.3-33-17.6c0.1-15.5,1.9-18-0.6-26.9
					c-5.7-20.4-8.8-28.8-6-42.4c2.3-11.2,5.5-12.6,9.9-12.5C151.8,218.7,155,219,158.2,219.5z"/>
				<path id="_Контур_11" class="st12" d="M213.8,276.8c-8.8,2.2-10.8-3.3-12-7.9c-2.8-11.1-4.3-21.1-6.4-27.4
					c-2.4-7.4-5-8.6-8.6-10.1c-4.2-1.7-7.9,1.9-6.5,11.3c1.7,11.2,3.9,19,8,32.2c1.1,3.5,3.5,9.6,7.2,12.5
					c4.5,3.7,11.3,3.5,21.6,0.9c4.4-1.1,9.2-3.7,17.5-7.6c2.2-1,4-1.7,8.2-3.7s8.8-5.3,11-8.6s2.5-4.8,2.1-5.5
					c-0.6-0.9-1.6-0.7-2.8,0.6c-1.7,2.3-3.9,4.3-6.3,5.8c0,0,2.8-2.9,4.3-4.7c1.3-1.6,2.5-3.5,3.3-5.4s-0.8-4.5-2.1-3.1
					s-1.8,2.7-4.1,5.5c-1.2,1.4-2.6,2.7-4.1,3.9c1.4-1.9,2.7-3.9,3.8-6c1.4-2.9,1.4-4.4,1.4-5.4s-1.5-2.2-2.8-0.3
					c-1.2,1.7-2,4.3-4.7,7.2c-2,2.1-3.7,3.3-3.8,2.7s1.2-1.7,1.9-4.1s0-5-1.3-5.3s-1.1-0.2-2.2,2.1s-2.7,3.9-4,7.2
					c-1.1,2.9-1.6,4.1-3.6,6.2C226.9,272.1,222.1,274.7,213.8,276.8z"/>
				<path id="_Контур_12" class="st17" d="M183.6,229.9c5.9-0.9,10,1.8,12.6,10.6s4.4,16.2,4.4,16.2c-2.3,3.3-5.8,5.7-9.8,6.5
					c-7,1.7-9.5-1.6-9.5-1.6s-2-9.3-3.2-15.6S176.3,231,183.6,229.9z"/>
				<path class="st21" d="M187.2,188.8c0,0,9.3-14.1-10.8-16.9c-14.5-2.1-23.8,7.2-24.8,17.3c-1,9.6,4.9,19.6,9.2,23.6
					c2.1,0.8,6.6,1.2,12.5-1.5c0.2-2.6,0.3-5.3,0.3-7.9C173.6,203.4,166.5,188.6,187.2,188.8z"/>
			</g>
			<ellipse class="st16" cx="54.6" cy="348.4" rx="24" ry="13.9"/>
			<ellipse class="st22" cx="58" cy="345.8" rx="24" ry="13.9"/>
			<polygon class="st22" points="25.9,298.5 34.3,346.8 81.9,346.8 90.1,298.8 			"/>
			<ellipse class="st23" cx="58" cy="297.9" rx="32.1" ry="18.5"/>
			<path class="st24" d="M58,312.3c-7.9,0-15.2-1.7-20.7-4.9c-4.7-2.7-7.4-6.2-7.4-9.6s2.7-6.9,7.4-9.6c5.5-3.1,12.8-4.9,20.7-4.9
				s15.2,1.7,20.7,4.9c4.7,2.7,7.4,6.2,7.4,9.6s-2.7,6.9-7.4,9.6C73.2,310.6,65.9,312.3,58,312.3z"/>
			<path class="st25" d="M71.8,283.2c0,0-0.6-39.2-13.8-53c-16.1,14.2-13.6,53.1-13.6,53.1l13.8,25l0,0
				C60,308.4,71.8,283.2,71.8,283.2z"/>
			<path class="st26" d="M58.2,308.3c0,0-7.3-46.9-34.6-64.6C23.6,243.7,18.8,308,58.2,308.3z"/>
			<path class="st26" d="M58,308.3c0,0,6.6-46,33.2-62.6C91.2,245.7,97.4,308,58,308.3z"/>
			<ellipse class="st16" cx="342.5" cy="486.2" rx="24" ry="13.8"/>
			<ellipse class="st27" cx="346" cy="485.3" rx="24" ry="13.8"/>
			<path class="st27" d="M322.1,485.1v-6.9l7.6,2.5L322.1,485.1z"/>
			<polygon class="st27" points="369.9,478.6 369.9,484.8 361.2,483.1 			"/>
			<ellipse class="st28" cx="346" cy="478.2" rx="24" ry="13.8"/>
			<polygon class="st29" points="330.3,488.6 327.7,487.1 361.5,467.6 364.1,469.1 			"/>
			<polygon class="st30" points="327.7,487.1 327.7,494.2 330.1,495.6 330.4,495.8 330.4,488.6 			"/>
			<ellipse class="st16" cx="24" cy="461.1" rx="24" ry="13.8"/>
			<ellipse class="st27" cx="27.5" cy="460.2" rx="23.9" ry="13.8"/>
			<path class="st27" d="M3.6,460v-7l7.6,2.6L3.6,460z"/>
			<polygon class="st27" points="51.4,453.6 51.4,459.8 42.7,458.1 			"/>
			<ellipse class="st28" cx="27.5" cy="453.1" rx="23.9" ry="13.8"/>
			<polygon class="st29" points="11.8,463.6 9.2,462.1 43,442.6 45.6,444.1 			"/>
			<polygon class="st30" points="9.2,462.1 9.2,469.2 11.6,470.5 11.9,470.7 11.9,463.6 			"/>
			<ellipse class="st16" cx="468.9" cy="447.3" rx="24" ry="13.8"/>
			<ellipse class="st27" cx="472.4" cy="446.4" rx="24" ry="13.8"/>
			<path class="st27" d="M448.5,446.2c0-0.1,0-7,0-7l7.6,2.6L448.5,446.2z"/>
			<polygon class="st27" points="496.4,439.8 496.4,446 487.6,444.3 			"/>
			<ellipse class="st28" cx="472.4" cy="439.3" rx="24" ry="13.8"/>
			<polygon class="st29" points="456.7,449.8 454.1,448.3 487.9,428.8 490.5,430.3 			"/>
			<polygon class="st30" points="454.1,448.3 454.1,455.4 456.5,456.8 456.8,456.9 456.8,449.8 			"/>
		</g>
	</g>
</g>
<g id="Layer_2_00000103952891789525031220000007321463325717046412_">
	<g>
		<g id="Floor">
			<ellipse id="Floor_10_" class="st31" cx="248.2" cy="365.3" rx="242.3" ry="134.2"/>
		</g>
		<g id="Shadows_1_">
			<path id="Shadow_10_" class="st32" d="M466.3,344.5l-135.1,78c-1,0.6-2.6,0.6-3.6,0L132.8,310.1c-1-0.6-1-1.5,0-2.1l135.1-78
				c1-0.6,2.6-0.6,3.6,0l194.7,112.4C467.3,343,467.3,343.9,466.3,344.5z"/>
			<ellipse id="Shadow_9_" class="st32" cx="152.4" cy="419.3" rx="81.1" ry="46.8"/>
			<ellipse id="Shadow_8_" class="st32" cx="251.2" cy="365" rx="63.9" ry="36.9"/>
			<ellipse id="Shadow_5_" class="st32" cx="393.2" cy="414.4" rx="40.1" ry="23.1"/>
		</g>
		<g id="Desk_1_">
			<g id="Desk">
				<g id="Table_2_">
					<g id="XMLID_3957_">
						<path id="XMLID_3960_" class="st33" d="M334.2,283.1V403c0,0.8-0.5,1.7-1.2,2.1l-2.6,1.5c-0.7,0.4-1.8,0.4-2.4,0l-2.6-1.5
							c-0.7-0.4-1.2-1.3-1.2-2.1V283.1c0-0.8,0.5-1.1,1.2-0.7l2.6,1.5c0.7,0.4,1.8,0.4,2.4,0l2.6-1.5
							C333.6,282.1,334.2,282.4,334.2,283.1z"/>
						<path id="XMLID_3959_" class="st34" d="M328,406.6l-2.6-1.5c-0.7-0.4-1.2-1.3-1.2-2.1V283.1c0-0.8,0.5-1.1,1.2-0.7l2.6,1.5
							c0.7,0.4,1.2,1.3,1.2,2.1v119.9C329.2,406.7,328.6,407,328,406.6z"/>
					</g>
					<g id="XMLID_3954_">
						<path id="XMLID_3956_" class="st33" d="M443.8,219.8v119.9c0,0.8-0.5,1.7-1.2,2.1l-2.6,1.5c-0.7,0.4-1.8,0.4-2.4,0l-2.6-1.5
							c-0.7-0.4-1.2-1.3-1.2-2.1V219.8c0-0.8,0.5-1.1,1.2-0.7l2.6,1.5c0.7,0.4,1.8,0.4,2.4,0l2.6-1.5
							C443.3,218.7,443.8,219,443.8,219.8z"/>
						<path id="XMLID_3955_" class="st34" d="M437.6,343.2l-2.6-1.5c-0.7-0.4-1.2-1.3-1.2-2.1V219.8c0-0.8,0.5-1.1,1.2-0.7l2.6,1.5
							c0.7,0.4,1.2,1.3,1.2,2.1v119.9C438.9,343.3,438.3,343.6,437.6,343.2z"/>
					</g>
					<g id="XMLID_3951_">
						<path id="XMLID_3953_" class="st35" d="M186.4,197.9v119.9c0,0.8-0.5,1.7-1.2,2.1l-2.6,1.5c-0.7,0.4-1.8,0.4-2.4,0l-2.6-1.5
							c-0.7-0.4-1.2-1.3-1.2-2.1V197.9c0-0.8,0.5-1.1,1.2-0.7l2.6,1.5c0.7,0.4,1.8,0.4,2.4,0l2.6-1.5
							C185.9,196.8,186.4,197.1,186.4,197.9z"/>
						<path id="XMLID_3952_" class="st35" d="M180.2,321.4l-2.6-1.5c-0.7-0.4-1.2-1.3-1.2-2.1V197.9c0-0.8,0.5-1.1,1.2-0.7l2.6,1.5
							c0.7,0.4,1.2,1.3,1.2,2.1v119.9C181.4,321.4,180.9,321.7,180.2,321.4z"/>
					</g>
					<g id="XMLID_3938_">
						<g id="XMLID_3949_">
							<path id="XMLID_3950_" class="st36" d="M467.7,228.3v-0.9c0-1.4-1-3.1-2.2-3.8L272.1,112c-1.2-0.7-3.2-0.7-4.4,0l-119,68.7
								c-1.2,0.7-2.2,2.4-2.2,3.8v0.9c0,1.4,1,3.1,2.2,3.8l193.4,111.6c1.2,0.7,3.2,0.7,4.4,0l119-68.7
								C466.7,231.4,467.7,229.7,467.7,228.3z"/>
							<path id="XMLID_339_" class="st37" d="M467.7,228.3v-0.9c0-1.4-1-3.1-2.2-3.8L272.1,112c-1.2-0.7-3.2-0.7-4.4,0l-119,68.7
								c-1.2,0.7-2.2,2.4-2.2,3.8v0.9c0,1.4,1,3.1,2.2,3.8l193.4,111.6c1.2,0.7,3.2,0.7,4.4,0l119-68.7
								C466.7,231.4,467.7,229.7,467.7,228.3z"/>
						</g>
						<g id="XMLID_3947_">
							<path id="XMLID_3948_" class="st36" d="M344.3,295.4v6c0.8,0,1.6-0.2,2.2-0.5l119-68.7c1.2-0.7,2.2-2.4,2.2-3.8v-0.9
								c0-1.2-0.8-2.7-1.8-3.5c0.8,0.7,0.7,1.6-0.4,2.3l-119,68.7C345.9,295.2,345.1,295.4,344.3,295.4z"/>
							<path id="XMLID_3946_" class="st38" d="M344.3,295.4v6c0.8,0,1.6-0.2,2.2-0.5l119-68.7c1.2-0.7,2.2-2.4,2.2-3.8v-0.9
								c0-1.2-0.8-2.7-1.8-3.5c0.8,0.7,0.7,1.6-0.4,2.3l-119,68.7C345.9,295.2,345.1,295.4,344.3,295.4z"/>
						</g>
						<g>
							<path id="XMLID_3942_" class="st36" d="M465.5,226.2l-119,68.7c-1.2,0.7-3.2,0.7-4.4,0L148.7,183.3c-1.2-0.7-1.2-1.8,0-2.5
								l119-68.7c1.2-0.7,3.2-0.7,4.4,0l193.4,111.6C466.7,224.3,466.7,225.4,465.5,226.2z"/>
							<path id="XMLID_337_" class="st39" d="M465.5,226.2l-119,68.7c-1.2,0.7-3.2,0.7-4.4,0L148.7,183.3c-1.2-0.7-1.2-1.8,0-2.5
								l119-68.7c1.2-0.7,3.2-0.7,4.4,0l193.4,111.6C466.7,224.3,466.7,225.4,465.5,226.2z"/>
						</g>
					</g>
				</g>
				<g id="Keyboard_1_">
					<path id="Shadow_30_" class="st40" d="M329.7,224.7L301.5,241c-0.9,0.5-2.3,0.5-3.2,0L215,193c-0.9-0.5-0.9-1.3,0-1.8
						l28.2-16.3c0.9-0.5,2.3-0.5,3.2,0l83.3,48C330.6,223.3,330.6,224.1,329.7,224.7z"/>
					<g id="Keyboard_4_">
						<g id="XMLID_3931_">
							<path id="XMLID_3936_" class="st33" d="M216.7,188.2c0-0.3,0.2-0.7,0.7-0.9l26.5-15.3c0.9-0.5,2.3-0.5,3.2,0l80.8,46.7
								c0.4,0.3,0.7,0.6,0.7,0.9c0,0.3,0,2.4,0,2.8c0,0.3-0.2,0.7-0.7,0.9l-26.5,15.3c-0.9,0.5-2.3,0.5-3.2,0L217.4,192
								c-0.4-0.3-0.7-0.6-0.7-0.9C216.7,190.8,216.7,188.6,216.7,188.2z"/>
							<path id="XMLID_3935_" class="st34" d="M301.4,235.8l26.5-15.2c0.9-0.5,0.9-1.3,0-1.8L247,172c-0.9-0.5-2.3-0.5-3.2,0
								l-26.5,15.3c-0.9,0.5-0.9,1.3,0,1.8l80.8,46.7C299.1,236.3,300.5,236.3,301.4,235.8z"/>
							<path id="XMLID_3933_" class="st33" d="M299.9,236.2v2.8c0.5,0,1.1-0.1,1.5-0.4l26.5-15.3c0.4-0.3,0.7-0.6,0.7-0.9v-2.8
								c0,0.3-0.2,0.7-0.7,0.9l-26.5,15.2C301,236,300.5,236.2,299.9,236.2z"/>
						</g>
						<path id="XMLID_3768_" class="st36" d="M221.7,188.4L221.7,188.4l2.6-1.5l3.6,2.1l-2.6,1.6L221.7,188.4L221.7,188.4z
							 M225.8,186.1C225.8,186,225.8,186,225.8,186.1l2.6-1.5l2.8,1.6l-2.6,1.6L225.8,186.1L225.8,186.1z M226.6,191.3L226.6,191.3
							l2.6-1.5l2.8,1.6l-2.6,1.6L226.6,191.3L226.6,191.3z M229.9,183.7L229.9,183.7l2.6-1.5l4.5,2.6l-2.6,1.6L229.9,183.7
							L229.9,183.7z M230,188.5L230,188.5l2.6-1.5l2.2,1.3l-2.6,1.6L230,188.5L230,188.5z M230.8,193.7L230.8,193.7l2.6-1.5l2.8,1.6
							l-2.6,1.6L230.8,193.7L230.8,193.7z M233.6,190.6L233.6,190.6l2.6-1.5l2.2,1.3l-2.6,1.6L233.6,190.6L233.6,190.6z M234,181.3
							L234,181.3l2.6-1.5l3.6,2.1l-2.6,1.6L234,181.3L234,181.3z M235,196.2C235,196.1,235,196.1,235,196.2l2.6-1.5l20.2,11.7
							l-2.6,1.6L235,196.2L235,196.2z M235.8,187.1L235.8,187.1l2.6-1.5l2.2,1.3l-2.6,1.6L235.8,187.1L235.8,187.1z M237.2,192.7
							L237.2,192.7l2.6-1.5l2.2,1.3l-2.6,1.6L237.2,192.7L237.2,192.7z M238.1,179C238.1,178.9,238.1,178.9,238.1,179l2.6-1.5
							l2.2,1.3l-2.6,1.6L238.1,179L238.1,179z M238.9,184.2L238.9,184.2l2.6-1.5l2.2,1.3l-2.6,1.6L238.9,184.2L238.9,184.2z
							 M239.4,189.2L239.4,189.2l2.6-1.5l2.2,1.3l-2.6,1.6L239.4,189.2L239.4,189.2z M240.9,194.8L240.9,194.8l2.6-1.5l2.2,1.3
							l-2.6,1.6L240.9,194.8L240.9,194.8z M241.7,181.1C241.7,181,241.7,181,241.7,181.1l2.6-1.5l2.2,1.3l-2.6,1.6L241.7,181.1
							L241.7,181.1z M242.6,186.3L242.6,186.3l2.6-1.5l2.2,1.3l-2.6,1.6L242.6,186.3L242.6,186.3z M243,191.3
							C243,191.3,243.1,191.3,243,191.3l2.6-1.5l2.2,1.3l-2.6,1.6L243,191.3L243,191.3z M243,176.1C243,176.1,243.1,176.1,243,176.1
							l2.6-1.5l2.8,1.6l-2.6,1.6L243,176.1L243,176.1z M244.5,196.9C244.5,196.9,244.5,196.8,244.5,196.9l2.6-1.5l2.2,1.3l-2.6,1.6
							L244.5,196.9L244.5,196.9z M245.3,183.2C245.3,183.1,245.3,183.1,245.3,183.2l2.6-1.5l2.2,1.3l-2.6,1.6L245.3,183.2
							L245.3,183.2z M246.2,188.4L246.2,188.4l2.6-1.5l2.2,1.3l-2.6,1.6L246.2,188.4L246.2,188.4z M246.7,193.4L246.7,193.4l2.6-1.5
							l2.2,1.3l-2.6,1.6L246.7,193.4L246.7,193.4z M248.1,199C248.1,199,248.1,198.9,248.1,199l2.6-1.5l2.2,1.3l-2.6,1.6L248.1,199
							L248.1,199z M248.8,179.4L248.8,179.4l2.6-1.5l2.2,1.3l-2.6,1.6L248.8,179.4L248.8,179.4z M249,185.2L249,185.2l2.6-1.5
							l2.2,1.3l-2.6,1.6L249,185.2L249,185.2z M249.8,190.5L249.8,190.5l2.6-1.5l2.2,1.3l-2.6,1.6L249.8,190.5L249.8,190.5z
							 M250.3,195.5L250.3,195.5l2.6-1.5l2.2,1.3l-2.6,1.6L250.3,195.5L250.3,195.5z M251.7,201.1
							C251.7,201.1,251.8,201,251.7,201.1l2.6-1.5l2.2,1.3l-2.6,1.6L251.7,201.1L251.7,201.1z M252.5,181.5L252.5,181.5l2.6-1.5
							l2.2,1.3l-2.6,1.6L252.5,181.5L252.5,181.5z M252.6,187.3L252.6,187.3l2.6-1.5l2.2,1.3l-2.6,1.6L252.6,187.3L252.6,187.3z
							 M253.5,192.6L253.5,192.6l2.6-1.5l2.2,1.3l-2.6,1.6L253.5,192.6L253.5,192.6z M253.9,197.6L253.9,197.6l2.6-1.5l2.2,1.3
							l-2.6,1.6L253.9,197.6L253.9,197.6z M255.4,203.2C255.4,203.2,255.4,203.1,255.4,203.2l2.6-1.5l2.2,1.3l-2.6,1.6L255.4,203.2
							L255.4,203.2z M256.1,183.6L256.1,183.6l2.6-1.5l2.2,1.3l-2.6,1.6L256.1,183.6L256.1,183.6z M256.2,189.4L256.2,189.4l2.6-1.5
							l2.2,1.3l-2.6,1.6L256.2,189.4L256.2,189.4z M256.6,208.6L256.6,208.6l2.6-1.5l2.8,1.6l-2.6,1.6L256.6,208.6L256.6,208.6z
							 M257.1,194.7C257.1,194.7,257.1,194.6,257.1,194.7l2.6-1.5l2.2,1.3l-2.6,1.6L257.1,194.7L257.1,194.7z M257.6,199.7
							L257.6,199.7l2.6-1.5l2.2,1.3l-2.6,1.6L257.6,199.7L257.6,199.7z M259,205.3C259,205.2,259,205.2,259,205.3l2.6-1.5l2.2,1.3
							l-2.6,1.6L259,205.3L259,205.3z M259.7,185.7L259.7,185.7l2.6-1.5l2.2,1.3l-2.6,1.6L259.7,185.7L259.7,185.7z M259.9,191.5
							L259.9,191.5l2.6-1.5l2.2,1.3l-2.6,1.6L259.9,191.5L259.9,191.5z M260.7,196.8C260.7,196.8,260.7,196.7,260.7,196.8l2.6-1.5
							l2.2,1.3l-2.6,1.6L260.7,196.8L260.7,196.8z M260.8,211.1C260.8,211,260.8,211,260.8,211.1l2.6-1.5l2.8,1.6l-2.6,1.6
							L260.8,211.1L260.8,211.1z M261.2,201.8L261.2,201.8l2.6-1.5l2.2,1.3l-2.6,1.6L261.2,201.8L261.2,201.8z M262.6,207.4
							C262.6,207.3,262.7,207.3,262.6,207.4l2.6-1.5l2.2,1.3l-2.6,1.6L262.6,207.4L262.6,207.4z M263.5,193.6L263.5,193.6l2.6-1.5
							l2.2,1.3l-2.6,1.6L263.5,193.6L263.5,193.6z M264.3,198.9C264.3,198.9,264.4,198.8,264.3,198.9l2.6-1.5l2.2,1.3l-2.6,1.6
							L264.3,198.9L264.3,198.9z M264.8,203.9L264.8,203.9l2.6-1.5l2.2,1.3l-2.6,1.6L264.8,203.9L264.8,203.9z M264.9,188.7
							L264.9,188.7l2.6-1.5l2.2,1.3l-2.6,1.6L264.9,188.7L264.9,188.7z M265,213.5L265,213.5l2.6-1.5l2.8,1.6l-2.6,1.6L265,213.5
							L265,213.5z M266.3,209.5C266.3,209.4,266.3,209.4,266.3,209.5l2.6-1.5l2.2,1.3l-2.6,1.6L266.3,209.5L266.3,209.5z
							 M267.1,195.7L267.1,195.7l2.6-1.5l2.2,1.3l-2.6,1.6L267.1,195.7L267.1,195.7z M268,201C268,201,268,200.9,268,201l2.6-1.5
							l2.2,1.3l-2.6,1.6L268,201L268,201z M268.5,206L268.5,206l2.6-1.5l2.2,1.3l-2.6,1.6L268.5,206L268.5,206z M268.6,190.8
							L268.6,190.8l2.6-1.5l2.2,1.3l-2.6,1.6L268.6,190.8L268.6,190.8z M269.2,215.9L269.2,215.9l2.6-1.5l3.6,2.1l-2.6,1.6
							L269.2,215.9L269.2,215.9z M269.9,211.6C269.9,211.5,269.9,211.5,269.9,211.6l2.6-1.5l7,4l-2.6,1.6L269.9,211.6L269.9,211.6z
							 M270.7,197.8C270.7,197.8,270.8,197.8,270.7,197.8l2.6-1.5l2.2,1.3l-2.6,1.6L270.7,197.8L270.7,197.8z M271.6,203.1
							C271.6,203,271.6,203,271.6,203.1l2.6-1.5l2.2,1.3l-2.6,1.6L271.6,203.1L271.6,203.1z M272.1,208.1L272.1,208.1l2.6-1.5
							l2.2,1.3l-2.6,1.6L272.1,208.1L272.1,208.1z M272.2,192.9L272.2,192.9l2.6-1.5l2.2,1.3l-2.6,1.6L272.2,192.9L272.2,192.9z
							 M274.4,199.9L274.4,199.9l2.6-1.5l2.2,1.3l-2.6,1.6L274.4,199.9L274.4,199.9z M275,219.2L275,219.2l2.6-1.5l2.2,1.3l-2.6,1.6
							L275,219.2L275,219.2z M275.2,205.2C275.2,205.1,275.3,205.1,275.2,205.2l2.6-1.5l2.2,1.3l-2.6,1.6L275.2,205.2L275.2,205.2z
							 M275.7,210.2C275.7,210.2,275.7,210.1,275.7,210.2l2.6-1.5l2,1.2c0.1,0.1,0.4,0.1,0.6,0.1c0.3,0,0.5,0,0.7-0.1l3.4-2l2.6,1.5
							l-6.7,3.9L275.7,210.2L275.7,210.2z M275.8,195L275.8,195l2.6-1.5l2.2,1.3l-2.6,1.6L275.8,195L275.8,195z M278,202L278,202
							l2.6-1.5l2.2,1.3l-2.6,1.6L278,202L278,202z M278.6,221.3L278.6,221.3l2.6-1.5l2.2,1.3l-2.6,1.6L278.6,221.3L278.6,221.3z
							 M278.9,207.3C278.9,207.2,278.9,207.2,278.9,207.3l2.6-1.5l2.2,1.3l-2.6,1.6L278.9,207.3L278.9,207.3z M281,198
							C281,198,281.1,198,281,198l2.6-1.5l2.2,1.3l-2.6,1.6L281,198L281,198z M281.6,204.1L281.6,204.1l2.6-1.5l2.2,1.3l-2.6,1.6
							L281.6,204.1L281.6,204.1z M282.2,223.4L282.2,223.4l2.6-1.5l2.2,1.3l-2.6,1.6L282.2,223.4L282.2,223.4z M282.7,218.9
							L282.7,218.9l2.6-1.5l2.2,1.3l-2.6,1.6L282.7,218.9L282.7,218.9z M284.7,200.1L284.7,200.1l2.6-1.5l2.2,1.3l-2.6,1.6
							L284.7,200.1L284.7,200.1z M285.3,206.2L285.3,206.2l2.6-1.5l3.9,2.3l-2.6,1.6L285.3,206.2L285.3,206.2z M286.6,226
							C286.6,225.9,286.6,225.9,286.6,226l2.6-1.5l5.9,3.4l-2.6,1.6L286.6,226L286.6,226z M287.3,212.1L287.3,212.1l2.6-1.5l2.2,1.3
							l-2.6,1.6L287.3,212.1L287.3,212.1z M288.3,202.2L288.3,202.2l2.6-1.5l2.2,1.3l-2.6,1.6L288.3,202.2L288.3,202.2z
							 M290.7,223.6L290.7,223.6l2.6-1.5l2.2,1.3l-2.6,1.6L290.7,223.6L290.7,223.6z M290.9,214.2L290.9,214.2l2.6-1.5l2.2,1.3
							l-2.6,1.6L290.9,214.2L290.9,214.2z M291.4,209.7L291.4,209.7l2.6-1.5l2.2,1.3l-2.6,1.6L291.4,209.7L291.4,209.7z
							 M291.9,204.3L291.9,204.3l2.6-1.5l2.2,1.3l-2.6,1.6L291.9,204.3L291.9,204.3z M293.9,230.1L293.9,230.1l2.6-1.5l2.2,1.3
							l-2.6,1.6L293.9,230.1L293.9,230.1z M294.4,225.7C294.4,225.7,294.4,225.6,294.4,225.7l2.6-1.5l2.2,1.3l-2.6,1.6L294.4,225.7
							L294.4,225.7z M294.5,216.3C294.5,216.3,294.6,216.3,294.5,216.3l2.6-1.5l2.2,1.3l-2.6,1.6L294.5,216.3L294.5,216.3z
							 M294.8,221.2L294.8,221.2l2.6-1.5l2.2,1.3l-2.6,1.6L294.8,221.2L294.8,221.2z M295,211.8L295,211.8l2.6-1.5l2.2,1.3l-2.6,1.6
							L295,211.8L295,211.8z M296.4,206.9C296.4,206.9,296.4,206.8,296.4,206.9l2.6-1.5l2.2,1.3l-2.6,1.6L296.4,206.9L296.4,206.9z
							 M297.5,232.2L297.5,232.2l6.7-3.9l2.2,1.3l-6.7,3.9L297.5,232.2L297.5,232.2z M298,227.8C298,227.8,298,227.7,298,227.8
							l2.6-1.5l2.2,1.3l-2.6,1.6L298,227.8L298,227.8z M298.5,223.3L298.5,223.3l2.6-1.5l2.2,1.3l-2.6,1.6L298.5,223.3L298.5,223.3z
							 M298.6,213.9C298.6,213.9,298.7,213.9,298.6,213.9l2.6-1.5l2.2,1.3l-2.6,1.6L298.6,213.9L298.6,213.9z M298.9,218.8
							C298.9,218.8,299,218.8,298.9,218.8l2.6-1.5l2.2,1.3l-2.6,1.6L298.9,218.8L298.9,218.8z M300,209C300,208.9,300,208.9,300,209
							l2.6-1.5l2.2,1.3l-2.6,1.6L300,209L300,209z M302.1,225.4L302.1,225.4l2.6-1.5l2.2,1.3l-2.6,1.6L302.1,225.4L302.1,225.4z
							 M302.6,220.9L302.6,220.9l2.6-1.5l2.2,1.3l-2.6,1.6L302.6,220.9L302.6,220.9z M303,216.5C303,216.5,303.1,216.4,303,216.5
							l2.6-1.5l2.2,1.3l-2.6,1.6L303,216.5L303,216.5z M303.6,211.1C303.6,211,303.6,211,303.6,211.1l2.6-1.5l2.2,1.3l-2.6,1.6
							L303.6,211.1L303.6,211.1z M305.7,227.5L305.7,227.5l6.7-3.9l2.2,1.3l-6.7,3.9L305.7,227.5L305.7,227.5z M306.2,223L306.2,223
							l2.6-1.5l2.2,1.3l-2.6,1.6L306.2,223L306.2,223z M306.7,218.6C306.7,218.6,306.7,218.5,306.7,218.6l2.6-1.5l2.2,1.3l-2.6,1.6
							L306.7,218.6L306.7,218.6z M309.1,213L309.1,213l1.1-0.7l2.2,1.3l-1.1,0.7L309.1,213L309.1,213z M310.3,220.7
							C310.3,220.6,310.3,220.6,310.3,220.7l2.6-1.5l2.2,1.3l-2.6,1.6L310.3,220.7L310.3,220.7z M312.7,215.1L312.7,215.1l1.1-0.7
							l2.2,1.3l-1.1,0.7L312.7,215.1L312.7,215.1z M313.9,222.8C313.9,222.7,313.9,222.7,313.9,222.8l2.6-1.5l2.2,1.3l-2.6,1.6
							L313.9,222.8L313.9,222.8z M316.3,217.2C316.3,217.2,316.4,217.2,316.3,217.2l1.1-0.7l2.2,1.3l-1.1,0.7L316.3,217.2
							L316.3,217.2z M320,219.3C320,219.3,320,219.2,320,219.3l1.1-0.7l2.2,1.3l-1.1,0.7L320,219.3L320,219.3z"/>
					</g>
				</g>
				<g id="Device">
					<polygon id="Shadow_29_" class="st40" points="394.8,227.8 419.6,213.5 295.6,141.9 270.8,156.2 					"/>
					<g id="Monitor_2_">
						<g id="XMLID_3761_">
							<g id="XMLID_3766_">
								<path id="XMLID_3767_" class="st36" d="M324.6,204.5l-17.7-10.2c-1.8-1.1-2.7-2.4-2.7-3.8s0-2.5,0-2.5l16.7-9.5
									c1-0.6,1.8-1.9,1.8-3.1v-21.8l30.9,17.9v21.8c0,1.1-0.8,2.5-1.8,3.1l-13.9,8.1C334.2,206.6,328.3,206.6,324.6,204.5z"/>
							</g>
							<path id="XMLID_3765_" class="st36" d="M346.1,197.2v2.5l5.7-3.3c1-0.6,1.8-1.9,1.8-3.1v-21.8l-5.9-3.4
								c-0.1,1.5-0.3,3-0.4,4.5l4.1,2.4v17.1c0,1.1-0.8,2.5-1.8,3.1L346.1,197.2z"/>
							<path id="XMLID_3764_" class="st32" d="M351.4,192.1c0,1.1-0.8,2.5-1.8,3.1l-11.8,6.9c-3.7,2.1-9.6,2.1-13.2,0l-17.7-10.2
								c-3.7-2.1-3.7-5.5,0-7.6l11.8-6.9c1-0.6,1.8-1.9,1.8-3.1v-17.1l30.9,17.9L351.4,192.1L351.4,192.1z"/>
							<path id="XMLID_3763_" class="st36" d="M315.1,179.4L315.1,179.4l3.6-2.1c1-0.6,1.8-1.9,1.8-3.1v-17.1l30.9,17.9v17.1
								c0,1.1-0.8,2.5-1.8,3.1l-3.5,2L315.1,179.4z"/>
							<path id="XMLID_3762_" class="st36" d="M304.2,188c0,0,0,1.1,0,2.5s0.9,2.8,2.7,3.8l17.7,10.2c1.8,1,4,1.5,6.3,1.6v-2.5
								c-2.3,0-4.6-0.6-6.3-1.6l-17.7-10.2C305.1,190.8,304.2,189.4,304.2,188z"/>
						</g>
						<path id="XMLID_3760_" class="st33" d="M401,215.7c-1.1,0.7-3.1,0.6-4.3-0.1c-15.2-8.8-104.4-60.3-119.6-69.1
							c-1.2-0.7-2.2-2.4-2.2-3.8V38c0-1.4,0.9-3.1,2.1-3.7c1.1-0.7,3.1-0.6,4.3,0.1l119.6,69.1c1.2,0.7,2.2,2.4,2.2,3.8V212
							C403.1,213.3,402.2,215,401,215.7z"/>
						<path id="XMLID_3758_" class="st41" d="M396.8,215.6l-119.6-69.1c-1.2-0.7-2.2-2.4-2.2-3.8V38c0-1.4,1-2,2.2-1.3l119.6,69.1
							c1.2,0.7,2.2,2.4,2.2,3.8v104.7C399,215.7,398,216.3,396.8,215.6z"/>
						<path id="XMLID_3757_" class="st36" d="M397.1,216c1.2,0.5,2.9,0.5,3.9-0.1c1.1-0.7,2.1-2.3,2.1-3.7v-11.8l-4.1,2.4v11.8
							C399,215.9,398.2,216.5,397.1,216z"/>
						<path id="XMLID_3756_" class="st32" d="M399,202.8v11.8c0,1.4-1,2-2.2,1.3l-119.6-69.1c-1.2-0.7-2.2-2.4-2.2-3.8v-11.8
							L399,202.8z"/>
						<path id="XMLID_3755_" class="st36" d="M394.8,193.9V111c0-0.8-0.6-1.9-1.3-2.3L280.4,43.4c-0.7-0.4-1.3-0.1-1.3,0.8v82.9
							c0,0.8,0.6,1.9,1.3,2.3l113.1,65.3C394.3,195,394.8,194.7,394.8,193.9z"/>
						<path id="XMLID_3754_" class="st42" d="M394.8,193.9V111c0-0.8-0.6-1.9-1.3-2.3L280.4,43.4c-0.7-0.4-1.3-0.1-1.3,0.8v82.9
							c0,0.8,0.6,1.9,1.3,2.3l113.1,65.3C394.3,195,394.8,194.7,394.8,193.9z"/>
						<path id="XMLID_3658_" class="st41" d="M337,171.5c1.1,0.7,2.1,2.3,2.1,3.6s-0.9,1.9-2.1,1.2c-1.1-0.7-2.1-2.3-2.1-3.6
							S335.8,170.9,337,171.5z"/>
						<path id="XMLID_3657_" class="st33" d="M398.3,107.4c0.4,0.7,0.6,1.5,0.7,2.2v93.2l4.1-2.4v-93.2c0-0.7-0.3-1.5-0.7-2.2
							L398.3,107.4z"/>
					</g>
				</g>
				<g id="Window_1_">
					<g id="Window_3_">
						<path class="st43" d="M294.5,16.4c0-0.1,0-0.1,0-0.2l0,0c0-0.1,0-0.1,0-0.2c0-0.1,0.1-0.2,0.1-0.3c0,0,0-0.1,0.1-0.1
							c0,0,0-0.1,0.1-0.1c0-0.1,0.1-0.1,0.1-0.1l0,0c0.1,0,0.1-0.1,0.2-0.1c0.4-0.2,0.9-0.1,1.4,0.2L436.2,96
							c1.2,0.7,2.1,2.3,2.1,3.7v101l0,0v0.5c0,0.6-0.3,1-0.8,1.3c0,0-0.1,0-0.1,0.1c0,0-0.1,0-0.1,0.1c-0.1,0-0.1,0-0.2,0.1
							c-0.1,0-0.2,0-0.3,0c-0.2,0-0.5-0.1-0.7-0.2H436l0,0l-2-1.2L296.5,122c-1.2-0.7-2.1-2.3-2.1-3.7V16.7
							C294.5,16.6,294.5,16.5,294.5,16.4z"/>
						<g id="XMLID_3010_">
							<g id="XMLID_3044_">
								<path class="st44" d="M295.2,15.3c0.4-0.2,0.9-0.1,1.4,0.2L436.2,96c1.2,0.7,2.1,2.3,2.1,3.7v6.9l2.7-1.6v-6.8
									c0-1.3-0.9-3-2.1-3.6L299.3,13.9c-0.6-0.4-1.1-0.4-1.5-0.1C297.4,14,295.7,15,295.2,15.3z"/>
							</g>
							<path id="XMLID_3036_" class="st36" d="M294.5,16.7c0-1.3,0.9-1.9,2.1-1.2L436.2,96c1.2,0.7,2.1,2.3,2.1,3.7v6.9l-143.8-83
								V16.7z"/>
							<g id="XMLID_3027_" class="st45">
								<path class="st5" d="M296.6,15.5L436.2,96c0.6,0.3,1.1,0.9,1.5,1.6l2.7-1.6c-0.4-0.6-0.9-1.2-1.5-1.5L299.3,13.9
									c-0.6-0.4-1.1-0.4-1.5-0.1c-0.4,0.2-2.1,1.2-2.6,1.5C295.6,15.1,296.1,15.1,296.6,15.5z"/>
							</g>
							<path id="XMLID_3011_" class="st40" d="M441,105v-6.9c0-0.7-0.3-1.4-0.6-2.1l-2.7,1.5c0.4,0.7,0.6,1.4,0.6,2.1v6.9L441,105z"
								/>
						</g>
						<g id="XMLID_3000_">
							<path id="XMLID_3009_" class="st41" d="M433.6,97.5c0.7,0.4,1.2,1.5,1.2,2.5s-0.5,1.5-1.2,1.1s-1.2-1.5-1.2-2.5
								S432.9,97.1,433.6,97.5z"/>
							<path id="XMLID_3002_" class="st41" d="M429.3,95c0.7,0.4,1.2,1.5,1.2,2.5s-0.5,1.5-1.2,1.1s-1.2-1.5-1.2-2.5
								C428.1,95.1,428.6,94.6,429.3,95z"/>
							<path id="XMLID_3001_" class="st41" d="M425,92.5c0.7,0.4,1.2,1.5,1.2,2.5s-0.5,1.5-1.2,1.1s-1.2-1.5-1.2-2.5
								S424.3,92.1,425,92.5z"/>
						</g>
						<path class="st46" d="M437.6,202.5l0.1-0.1l2.2-1.3c0.6-0.3,1-1,1.1-1.6c0-0.1,0-0.2,0-0.3V105l-2.7,1.6v94.6
							c0,0.5-0.3,1-0.7,1.2C437.6,202.4,437.6,202.4,437.6,202.5C437.6,202.4,437.6,202.4,437.6,202.5L437.6,202.5z"/>
					</g>
					<g id="Code">
						<g>
							<path id="XMLID_2979_" class="st36" d="M337.3,59.5l29.4,17c0.4,0.2,0.7,0.8,0.7,1.2c0,0.4-0.3,0.6-0.7,0.4l-29.4-17
								c-0.4-0.2-0.7-0.8-0.7-1.2C336.5,59.5,336.9,59.3,337.3,59.5z"/>
							<path id="XMLID_2977_" class="st47" d="M348.5,92l11.2,6.4c0.4,0.2,0.7,0.8,0.7,1.2c0,0.4-0.3,0.6-0.7,0.4l-11.2-6.4
								c-0.4-0.2-0.7-0.8-0.7-1.2C347.8,91.9,348.1,91.8,348.5,92z"/>
							<path id="XMLID_2971_" class="st47" d="M348.5,98.5l11.2,6.4c0.4,0.2,0.7,0.8,0.7,1.2c0,0.4-0.3,0.6-0.7,0.4l-11.2-6.4
								c-0.4-0.2-0.7-0.8-0.7-1.2C347.8,98.4,348.1,98.3,348.5,98.5z"/>
							<path id="XMLID_2967_" class="st36" d="M369.6,78.2l58.9,33.9c0.4,0.2,0.7,0.8,0.7,1.2c0,0.4-0.3,0.6-0.7,0.4l-58.9-33.9
								c-0.4-0.2-0.7-0.8-0.7-1.2C368.9,78.1,369.2,77.9,369.6,78.2z"/>
							<path id="XMLID_2926_" class="st36" d="M348.8,137.5l17.9,10.4c0.4,0.2,0.7,0.8,0.7,1.2s-0.3,0.6-0.7,0.4l-17.9-10.4
								c-0.4-0.2-0.7-0.8-0.7-1.2C348,137.5,348.4,137.3,348.8,137.5z"/>
							<path id="XMLID_2925_" class="st36" d="M369.6,149.6l58.9,34c0.4,0.2,0.7,0.8,0.7,1.2s-0.3,0.6-0.7,0.4l-58.9-34
								c-0.4-0.2-0.7-0.8-0.7-1.2S369.2,149.3,369.6,149.6z"/>
							<g id="XMLID_2876_">
								<path id="XMLID_2905_" class="st48" d="M337.3,66l14.8,8.5c0.4,0.2,0.7,0.8,0.7,1.2c0,0.4-0.3,0.6-0.7,0.4l-14.8-8.5
									c-0.4-0.2-0.7-0.8-0.7-1.2C336.5,66,336.9,65.8,337.3,66z"/>
								<path id="XMLID_2890_" class="st31" d="M337.3,66l14.8,8.5c0.4,0.2,0.7,0.8,0.7,1.2c0,0.4-0.3,0.6-0.7,0.4l-14.8-8.5
									c-0.4-0.2-0.7-0.8-0.7-1.2C336.5,66,336.9,65.8,337.3,66z"/>
							</g>
							<g id="XMLID_2873_">
								<path id="XMLID_2875_" class="st48" d="M337.3,72.5l6.9,4c0.4,0.2,0.7,0.8,0.7,1.2c0,0.4-0.3,0.6-0.7,0.4l-6.9-4
									c-0.4-0.2-0.7-0.8-0.7-1.2C336.5,72.5,336.9,72.3,337.3,72.5z"/>
								<path id="XMLID_2874_" class="st31" d="M337.3,72.5l6.9,4c0.4,0.2,0.7,0.8,0.7,1.2c0,0.4-0.3,0.6-0.7,0.4l-6.9-4
									c-0.4-0.2-0.7-0.8-0.7-1.2C336.5,72.5,336.9,72.3,337.3,72.5z"/>
							</g>
							<g id="XMLID_2867_">
								<path id="XMLID_2869_" class="st48" d="M337.3,85.5l6.9,4c0.4,0.2,0.7,0.8,0.7,1.2c0,0.4-0.3,0.6-0.7,0.4l-6.9-4
									c-0.4-0.2-0.7-0.8-0.7-1.2C336.5,85.4,336.9,85.3,337.3,85.5z"/>
								<path id="XMLID_2868_" class="st31" d="M337.3,85.5l6.9,4c0.4,0.2,0.7,0.8,0.7,1.2c0,0.4-0.3,0.6-0.7,0.4l-6.9-4
									c-0.4-0.2-0.7-0.8-0.7-1.2C336.5,85.4,336.9,85.3,337.3,85.5z"/>
							</g>
							<g id="XMLID_2864_">
								<path id="XMLID_2866_" class="st48" d="M337.3,92l6.9,4c0.4,0.2,0.7,0.8,0.7,1.2s-0.3,0.6-0.7,0.4l-6.9-4
									c-0.4-0.2-0.7-0.8-0.7-1.2S336.9,91.8,337.3,92z"/>
								<path id="XMLID_2865_" class="st31" d="M337.3,92l6.9,4c0.4,0.2,0.7,0.8,0.7,1.2s-0.3,0.6-0.7,0.4l-6.9-4
									c-0.4-0.2-0.7-0.8-0.7-1.2S336.9,91.8,337.3,92z"/>
							</g>
							<g id="XMLID_2855_">
								<path id="XMLID_2863_" class="st48" d="M355,76.2l8.9,5.1c0.4,0.2,0.7,0.8,0.7,1.2c0,0.4-0.3,0.6-0.7,0.4l-8.9-5.1
									c-0.4-0.2-0.7-0.8-0.7-1.2C354.3,76.2,354.6,76,355,76.2z"/>
								<path id="XMLID_2862_" class="st31" d="M355,76.2l8.9,5.1c0.4,0.2,0.7,0.8,0.7,1.2c0,0.4-0.3,0.6-0.7,0.4l-8.9-5.1
									c-0.4-0.2-0.7-0.8-0.7-1.2C354.3,76.2,354.6,76,355,76.2z"/>
							</g>
							<g id="XMLID_2853_">
								<path id="XMLID_2854_" class="st5" d="M368.8,123.2l59.8,34.4c0.4,0.2,0.7,0.8,0.7,1.2s-0.3,0.6-0.7,0.4l-59.8-34.4
									c-0.4-0.2-0.7-0.8-0.7-1.2C368,123.1,368.3,122.9,368.8,123.2z"/>
							</g>
							<g id="XMLID_2851_">
								<path id="XMLID_2852_" class="st5" d="M419.6,145.9l8.9,5.1c0.4,0.2,0.7,0.8,0.7,1.2s-0.3,0.6-0.7,0.4l-8.9-5.1
									c-0.4-0.2-0.7-0.8-0.7-1.2S419.2,145.7,419.6,145.9z"/>
							</g>
							<g id="XMLID_2849_">
								<path id="XMLID_2850_" class="st5" d="M357,109.8l59.8,34.4c0.4,0.2,0.7,0.8,0.7,1.2s-0.3,0.6-0.7,0.4L357,111.5
									c-0.4-0.2-0.7-0.8-0.7-1.2S356.5,109.6,357,109.8z"/>
							</g>
							<g id="XMLID_2846_">
								<path id="XMLID_2848_" class="st48" d="M348.5,79l14.8,8.5c0.4,0.2,0.7,0.8,0.7,1.2c0,0.4-0.3,0.6-0.7,0.4l-14.8-8.5
									c-0.4-0.2-0.7-0.8-0.7-1.2C347.8,78.9,348.1,78.8,348.5,79z"/>
								<path id="XMLID_2847_" class="st31" d="M348.5,79l14.8,8.5c0.4,0.2,0.7,0.8,0.7,1.2c0,0.4-0.3,0.6-0.7,0.4l-14.8-8.5
									c-0.4-0.2-0.7-0.8-0.7-1.2C347.8,78.9,348.1,78.8,348.5,79z"/>
							</g>
							<g id="XMLID_2823_">
								<path id="XMLID_2845_" class="st48" d="M366.2,89.2L428,125c0.4,0.2,0.7,0.8,0.7,1.2c0,0.4-0.3,0.6-0.7,0.4l-61.8-35.8
									c-0.4-0.2-0.7-0.8-0.7-1.2C365.5,89.1,365.8,89,366.2,89.2z"/>
								<path id="XMLID_2839_" class="st31" d="M366.2,89.2L428,125c0.4,0.2,0.7,0.8,0.7,1.2c0,0.4-0.3,0.6-0.7,0.4l-61.8-35.8
									c-0.4-0.2-0.7-0.8-0.7-1.2C365.5,89.1,365.8,89,366.2,89.2z"/>
							</g>
							<path id="XMLID_2978_" class="st47" d="M348.5,118.1l80,46.1c0.4,0.2,0.7,0.8,0.7,1.2s-0.3,0.6-0.7,0.4l-80-46.1
								c-0.4-0.2-0.7-0.8-0.7-1.2C347.8,118,348.1,117.9,348.5,118.1z"/>
							<g id="XMLID_2870_">
								<path id="XMLID_2872_" class="st48" d="M337.3,111.6l6.9,4c0.4,0.2,0.7,0.8,0.7,1.2c0,0.4-0.3,0.6-0.7,0.4l-6.9-4
									c-0.4-0.2-0.7-0.8-0.7-1.2C336.5,111.5,336.9,111.4,337.3,111.6z"/>
								<path id="XMLID_2871_" class="st31" d="M337.3,111.6l6.9,4c0.4,0.2,0.7,0.8,0.7,1.2c0,0.4-0.3,0.6-0.7,0.4l-6.9-4
									c-0.4-0.2-0.7-0.8-0.7-1.2C336.5,111.5,336.9,111.4,337.3,111.6z"/>
							</g>
							<path id="XMLID_2986_" class="st47" d="M348.5,124.6l80,46.1c0.4,0.2,0.7,0.8,0.7,1.2s-0.3,0.6-0.7,0.4l-80-46.1
								c-0.4-0.2-0.7-0.8-0.7-1.2C347.8,124.5,348.1,124.4,348.5,124.6z"/>
							<g id="XMLID_2981_">
								<path id="XMLID_2984_" class="st48" d="M337.3,118.1l6.9,4c0.4,0.2,0.7,0.8,0.7,1.2c0,0.4-0.3,0.6-0.7,0.4l-6.9-4
									c-0.4-0.2-0.7-0.8-0.7-1.2C336.5,118,336.9,117.9,337.3,118.1z"/>
								<path id="XMLID_2983_" class="st31" d="M337.3,118.1l6.9,4c0.4,0.2,0.7,0.8,0.7,1.2c0,0.4-0.3,0.6-0.7,0.4l-6.9-4
									c-0.4-0.2-0.7-0.8-0.7-1.2C336.5,118,336.9,117.9,337.3,118.1z"/>
							</g>
							<path id="XMLID_2994_" class="st47" d="M348.5,131.1l80,46.1c0.4,0.2,0.7,0.8,0.7,1.2s-0.3,0.6-0.7,0.4l-80-46.1
								c-0.4-0.2-0.7-0.8-0.7-1.2C347.8,131,348.1,130.8,348.5,131.1z"/>
							<g id="XMLID_2991_">
								<path id="XMLID_2993_" class="st48" d="M337.3,124.6l6.9,4c0.4,0.2,0.7,0.8,0.7,1.2s-0.3,0.6-0.7,0.4l-6.9-4
									c-0.4-0.2-0.7-0.8-0.7-1.2C336.5,124.5,336.9,124.4,337.3,124.6z"/>
								<path id="XMLID_2992_" class="st31" d="M337.3,124.6l6.9,4c0.4,0.2,0.7,0.8,0.7,1.2s-0.3,0.6-0.7,0.4l-6.9-4
									c-0.4-0.2-0.7-0.8-0.7-1.2C336.5,124.5,336.9,124.4,337.3,124.6z"/>
							</g>
						</g>
						<g class="st49">
							<path class="st50" d="M326.5,53l4.1,2.4c0.4,0.2,0.7,0.8,0.7,1.3v1.5c0,0.5-0.3,0.7-0.7,0.4l-4.1-2.4
								c-0.4-0.2-0.7-0.8-0.7-1.3v-1.5C325.7,53,326.1,52.8,326.5,53z"/>
							<path class="st50" d="M326.5,59.6l4.1,2.4c0.4,0.2,0.7,0.8,0.7,1.3v1.5c0,0.5-0.3,0.7-0.7,0.4l-4.1-2.4
								c-0.4-0.2-0.7-0.8-0.7-1.3V60C325.7,59.5,326.1,59.3,326.5,59.6z"/>
							<path class="st50" d="M326.5,66.1l4.1,2.4c0.4,0.2,0.7,0.8,0.7,1.3v1.5c0,0.5-0.3,0.7-0.7,0.4l-4.1-2.4
								c-0.4-0.2-0.7-0.8-0.7-1.3v-1.5C325.7,66.1,326.1,65.9,326.5,66.1z"/>
							<path class="st50" d="M326.5,72.7l4.1,2.4c0.4,0.2,0.7,0.8,0.7,1.3v1.5c0,0.5-0.3,0.7-0.7,0.4l-4.1-2.4
								c-0.4-0.2-0.7-0.8-0.7-1.3v-1.5C325.7,72.6,326.1,72.5,326.5,72.7z"/>
							<path class="st50" d="M326.5,79.2l4.1,2.4c0.4,0.2,0.7,0.8,0.7,1.3v1.5c0,0.5-0.3,0.7-0.7,0.4l-4.1-2.4
								c-0.4-0.2-0.7-0.8-0.7-1.3v-1.5C325.7,79.2,326.1,79,326.5,79.2z"/>
							<path class="st50" d="M326.5,85.8l4.1,2.4c0.4,0.2,0.7,0.8,0.7,1.3V91c0,0.5-0.3,0.7-0.7,0.4l-4.1-2.4
								c-0.4-0.2-0.7-0.8-0.7-1.3v-1.5C325.7,85.8,326.1,85.6,326.5,85.8z"/>
							<path class="st50" d="M326.5,92.3l4.1,2.4c0.4,0.2,0.7,0.8,0.7,1.3v1.5c0,0.5-0.3,0.7-0.7,0.4l-4.1-2.4
								c-0.4-0.2-0.7-0.8-0.7-1.3v-1.5C325.7,92.3,326.1,92.1,326.5,92.3z"/>
							<path class="st50" d="M326.5,98.9l4.1,2.4c0.4,0.2,0.7,0.8,0.7,1.3v1.5c0,0.5-0.3,0.7-0.7,0.4l-4.1-2.4
								c-0.4-0.2-0.7-0.8-0.7-1.3v-1.5C325.7,98.9,326.1,98.7,326.5,98.9z"/>
							<path class="st50" d="M326.5,105.5l4.1,2.4c0.4,0.2,0.7,0.8,0.7,1.3v1.5c0,0.5-0.3,0.7-0.7,0.4l-4.1-2.4
								c-0.4-0.2-0.7-0.8-0.7-1.3v-1.5C325.7,105.4,326.1,105.2,326.5,105.5z"/>
							<path class="st50" d="M326.5,112l4.1,2.4c0.4,0.2,0.7,0.8,0.7,1.3v1.5c0,0.5-0.3,0.7-0.7,0.4l-4.1-2.4
								c-0.4-0.2-0.7-0.8-0.7-1.3v-1.5C325.7,112,326.1,111.8,326.5,112z"/>
							<path class="st50" d="M326.5,118.6l4.1,2.4c0.4,0.2,0.7,0.8,0.7,1.3v1.5c0,0.5-0.3,0.7-0.7,0.4l-4.1-2.4
								c-0.4-0.2-0.7-0.8-0.7-1.3V119C325.7,118.5,326.1,118.3,326.5,118.6z"/>
							<path class="st50" d="M326.5,125.1l4.1,2.4c0.4,0.2,0.7,0.8,0.7,1.3v1.5c0,0.5-0.3,0.7-0.7,0.4l-4.1-2.4
								c-0.4-0.2-0.7-0.8-0.7-1.3v-1.5C325.7,125.1,326.1,124.9,326.5,125.1z"/>
						</g>
						<g>
							<path class="st41" d="M299.4,31.7l22,12.7c0.8,0.5,1.5,1.6,1.5,2.6v25.5c0,0.9-0.7,1.3-1.5,0.9l-22-12.7
								c-0.8-0.5-1.5-1.6-1.5-2.6V32.6C297.9,31.6,298.6,31.3,299.4,31.7z"/>
							<g>
								<g>
									<path id="XMLID_2822_" class="st48" d="M301.5,57l2,1.2c0.4,0.2,0.7,0.8,0.7,1.2s-0.3,0.6-0.7,0.4l-2-1.2
										c-0.4-0.2-0.7-0.8-0.7-1.2C300.7,56.9,301.1,56.7,301.5,57z"/>
									<path id="XMLID_2821_" class="st32" d="M301.5,57l2,1.2c0.4,0.2,0.7,0.8,0.7,1.2s-0.3,0.6-0.7,0.4l-2-1.2
										c-0.4-0.2-0.7-0.8-0.7-1.2C300.7,56.9,301.1,56.7,301.5,57z"/>
								</g>
								<g>
									<path id="XMLID_2820_" class="st48" d="M301.5,36.1l2,1.2c0.4,0.2,0.7,0.8,0.7,1.2s-0.3,0.6-0.7,0.4l-2-1.2
										c-0.4-0.2-0.7-0.8-0.7-1.2C300.7,36.1,301.1,35.9,301.5,36.1z"/>
									<path id="XMLID_529_" class="st32" d="M301.5,36.1l2,1.2c0.4,0.2,0.7,0.8,0.7,1.2s-0.3,0.6-0.7,0.4l-2-1.2
										c-0.4-0.2-0.7-0.8-0.7-1.2C300.7,36.1,301.1,35.9,301.5,36.1z"/>
								</g>
								<g>
									<path class="st48" d="M304.3,41.9l2,1.2c0.4,0.2,0.7,0.8,0.7,1.2s-0.3,0.6-0.7,0.4l-2-1.2c-0.4-0.2-0.7-0.8-0.7-1.2
										S303.9,41.7,304.3,41.9z"/>
									<path class="st32" d="M304.3,41.9l2,1.2c0.4,0.2,0.7,0.8,0.7,1.2s-0.3,0.6-0.7,0.4l-2-1.2c-0.4-0.2-0.7-0.8-0.7-1.2
										S303.9,41.7,304.3,41.9z"/>
								</g>
								<g>
									<path class="st48" d="M304.3,46.1l2,1.2c0.4,0.2,0.7,0.8,0.7,1.2s-0.3,0.6-0.7,0.4l-2-1.2c-0.4-0.2-0.7-0.8-0.7-1.2
										S303.9,45.9,304.3,46.1z"/>
									<path class="st32" d="M304.3,46.1l2,1.2c0.4,0.2,0.7,0.8,0.7,1.2s-0.3,0.6-0.7,0.4l-2-1.2c-0.4-0.2-0.7-0.8-0.7-1.2
										S303.9,45.9,304.3,46.1z"/>
								</g>
								<g>
									<path class="st48" d="M301.5,48.6l2,1.2c0.4,0.2,0.7,0.8,0.7,1.2s-0.3,0.6-0.7,0.4l-2-1.2c-0.4-0.2-0.7-0.8-0.7-1.2
										C300.7,48.6,301.1,48.4,301.5,48.6z"/>
									<path class="st32" d="M301.5,48.6l2,1.2c0.4,0.2,0.7,0.8,0.7,1.2s-0.3,0.6-0.7,0.4l-2-1.2c-0.4-0.2-0.7-0.8-0.7-1.2
										C300.7,48.6,301.1,48.4,301.5,48.6z"/>
								</g>
								<g>
									<path class="st48" d="M304.3,54.4l2,1.2c0.4,0.2,0.7,0.8,0.7,1.2s-0.3,0.6-0.7,0.4l-2-1.2c-0.4-0.2-0.7-0.8-0.7-1.2
										S303.9,54.2,304.3,54.4z"/>
									<path class="st32" d="M304.3,54.4l2,1.2c0.4,0.2,0.7,0.8,0.7,1.2s-0.3,0.6-0.7,0.4l-2-1.2c-0.4-0.2-0.7-0.8-0.7-1.2
										S303.9,54.2,304.3,54.4z"/>
								</g>
							</g>
							<g>
								<g>
									<path id="XMLID_354_" class="st48" d="M307,39.3l12.4,7.2c0.4,0.2,0.7,0.8,0.7,1.2s-0.3,0.6-0.7,0.4L307,41
										c-0.4-0.2-0.7-0.8-0.7-1.2C306.3,39.3,306.6,39.1,307,39.3z"/>
									<path id="XMLID_353_" class="st31" d="M307,39.3l12.4,7.2c0.4,0.2,0.7,0.8,0.7,1.2s-0.3,0.6-0.7,0.4L307,41
										c-0.4-0.2-0.7-0.8-0.7-1.2C306.3,39.3,306.6,39.1,307,39.3z"/>
								</g>
								<g>
									<path id="XMLID_352_" class="st48" d="M307,60.2l12.4,7.2c0.4,0.2,0.7,0.8,0.7,1.2c0,0.4-0.3,0.6-0.7,0.4L307,61.8
										c-0.4-0.2-0.7-0.8-0.7-1.2C306.3,60.1,306.6,59.9,307,60.2z"/>
									<path id="XMLID_343_" class="st31" d="M307,60.2l12.4,7.2c0.4,0.2,0.7,0.8,0.7,1.2c0,0.4-0.3,0.6-0.7,0.4L307,61.8
										c-0.4-0.2-0.7-0.8-0.7-1.2C306.3,60.1,306.6,59.9,307,60.2z"/>
								</g>
								<g>
									<path class="st48" d="M309.9,45.1l9.5,5.5c0.4,0.2,0.7,0.8,0.7,1.2s-0.3,0.6-0.7,0.4l-9.5-5.5c-0.4-0.2-0.7-0.8-0.7-1.2
										C309.1,45.1,309.5,44.9,309.9,45.1z"/>
									<path class="st31" d="M309.9,45.1l9.5,5.5c0.4,0.2,0.7,0.8,0.7,1.2s-0.3,0.6-0.7,0.4l-9.5-5.5c-0.4-0.2-0.7-0.8-0.7-1.2
										C309.1,45.1,309.5,44.9,309.9,45.1z"/>
								</g>
								<g>
									<path class="st48" d="M309.9,49.3l9.5,5.5c0.4,0.2,0.7,0.8,0.7,1.2s-0.3,0.6-0.7,0.4l-9.5-5.5c-0.4-0.2-0.7-0.8-0.7-1.2
										C309.1,49.2,309.5,49.1,309.9,49.3z"/>
									<path class="st31" d="M309.9,49.3l9.5,5.5c0.4,0.2,0.7,0.8,0.7,1.2s-0.3,0.6-0.7,0.4l-9.5-5.5c-0.4-0.2-0.7-0.8-0.7-1.2
										C309.1,49.2,309.5,49.1,309.9,49.3z"/>
								</g>
								<g>
									<path class="st48" d="M307,51.8l12.4,7.2c0.4,0.2,0.7,0.8,0.7,1.2s-0.3,0.6-0.7,0.4L307,53.5c-0.4-0.2-0.7-0.8-0.7-1.2
										C306.3,51.8,306.6,51.6,307,51.8z"/>
									<path class="st31" d="M307,51.8l12.4,7.2c0.4,0.2,0.7,0.8,0.7,1.2s-0.3,0.6-0.7,0.4L307,53.5c-0.4-0.2-0.7-0.8-0.7-1.2
										C306.3,51.8,306.6,51.6,307,51.8z"/>
								</g>
								<g>
									<path class="st48" d="M309.9,57.6l9.5,5.5c0.4,0.2,0.7,0.8,0.7,1.2c0,0.4-0.3,0.6-0.7,0.4l-9.5-5.5
										c-0.4-0.2-0.7-0.8-0.7-1.2C309.1,57.6,309.5,57.4,309.9,57.6z"/>
									<path class="st31" d="M309.9,57.6l9.5,5.5c0.4,0.2,0.7,0.8,0.7,1.2c0,0.4-0.3,0.6-0.7,0.4l-9.5-5.5
										c-0.4-0.2-0.7-0.8-0.7-1.2C309.1,57.6,309.5,57.4,309.9,57.6z"/>
								</g>
							</g>
						</g>
						<g>
							<path class="st41" d="M299.4,65.4l22,12.7c0.8,0.5,1.5,1.6,1.5,2.6V131c0,0.9-0.7,1.3-1.5,0.9l-22-12.7
								c-0.8-0.5-1.5-1.6-1.5-2.6V66.3C297.9,65.3,298.6,64.9,299.4,65.4z"/>
							<g>
								<g>
									<path id="XMLID_342_" class="st48" d="M301.5,69.8l2,1.2c0.4,0.2,0.7,0.8,0.7,1.2c0,0.4-0.3,0.6-0.7,0.4l-2-1.2
										c-0.4-0.2-0.7-0.8-0.7-1.2C300.7,69.7,301.1,69.5,301.5,69.8z"/>
									<path id="XMLID_341_" class="st32" d="M301.5,69.8l2,1.2c0.4,0.2,0.7,0.8,0.7,1.2c0,0.4-0.3,0.6-0.7,0.4l-2-1.2
										c-0.4-0.2-0.7-0.8-0.7-1.2C300.7,69.7,301.1,69.5,301.5,69.8z"/>
								</g>
								<g>
									<path class="st48" d="M304.3,75.6l2,1.2c0.4,0.2,0.7,0.8,0.7,1.2c0,0.4-0.3,0.6-0.7,0.4l-2-1.2c-0.4-0.2-0.7-0.8-0.7-1.2
										S303.9,75.4,304.3,75.6z"/>
									<path class="st32" d="M304.3,75.6l2,1.2c0.4,0.2,0.7,0.8,0.7,1.2c0,0.4-0.3,0.6-0.7,0.4l-2-1.2c-0.4-0.2-0.7-0.8-0.7-1.2
										S303.9,75.4,304.3,75.6z"/>
								</g>
								<g>
									<path class="st48" d="M304.3,79.8l2,1.2c0.4,0.2,0.7,0.8,0.7,1.2s-0.3,0.6-0.7,0.4l-2-1.2c-0.4-0.2-0.7-0.8-0.7-1.2
										C303.6,79.7,303.9,79.5,304.3,79.8z"/>
									<path class="st32" d="M304.3,79.8l2,1.2c0.4,0.2,0.7,0.8,0.7,1.2s-0.3,0.6-0.7,0.4l-2-1.2c-0.4-0.2-0.7-0.8-0.7-1.2
										C303.6,79.7,303.9,79.5,304.3,79.8z"/>
								</g>
								<g>
									<path class="st48" d="M301.5,82.3l2,1.2c0.4,0.2,0.7,0.8,0.7,1.2c0,0.4-0.3,0.6-0.7,0.4l-2-1.2c-0.4-0.2-0.7-0.8-0.7-1.2
										C300.7,82.2,301.1,82.1,301.5,82.3z"/>
									<path class="st32" d="M301.5,82.3l2,1.2c0.4,0.2,0.7,0.8,0.7,1.2c0,0.4-0.3,0.6-0.7,0.4l-2-1.2c-0.4-0.2-0.7-0.8-0.7-1.2
										C300.7,82.2,301.1,82.1,301.5,82.3z"/>
								</g>
							</g>
							<g>
								<g>
									<path id="XMLID_340_" class="st48" d="M307,73l12.4,7.2c0.4,0.2,0.7,0.8,0.7,1.2c0,0.4-0.3,0.6-0.7,0.4L307,74.6
										c-0.4-0.2-0.7-0.8-0.7-1.2C306.3,72.9,306.6,72.8,307,73z"/>
									<path id="XMLID_321_" class="st31" d="M307,73l12.4,7.2c0.4,0.2,0.7,0.8,0.7,1.2c0,0.4-0.3,0.6-0.7,0.4L307,74.6
										c-0.4-0.2-0.7-0.8-0.7-1.2C306.3,72.9,306.6,72.8,307,73z"/>
								</g>
								<g>
									<path class="st48" d="M309.9,78.8l9.5,5.5c0.4,0.2,0.7,0.8,0.7,1.2c0,0.4-0.3,0.6-0.7,0.4l-9.5-5.5
										c-0.4-0.2-0.7-0.8-0.7-1.2C309.1,78.7,309.5,78.6,309.9,78.8z"/>
									<path class="st31" d="M309.9,78.8l9.5,5.5c0.4,0.2,0.7,0.8,0.7,1.2c0,0.4-0.3,0.6-0.7,0.4l-9.5-5.5
										c-0.4-0.2-0.7-0.8-0.7-1.2C309.1,78.7,309.5,78.6,309.9,78.8z"/>
								</g>
								<g>
									<path class="st48" d="M309.9,83l9.5,5.5c0.4,0.2,0.7,0.8,0.7,1.2c0,0.4-0.3,0.6-0.7,0.4l-9.5-5.5c-0.4-0.2-0.7-0.8-0.7-1.2
										C309.1,82.9,309.5,82.7,309.9,83z"/>
									<path class="st31" d="M309.9,83l9.5,5.5c0.4,0.2,0.7,0.8,0.7,1.2c0,0.4-0.3,0.6-0.7,0.4l-9.5-5.5c-0.4-0.2-0.7-0.8-0.7-1.2
										C309.1,82.9,309.5,82.7,309.9,83z"/>
								</g>
								<g>
									<path class="st48" d="M307,85.5l12.4,7.2c0.4,0.2,0.7,0.8,0.7,1.2c0,0.4-0.3,0.6-0.7,0.4L307,87.1
										c-0.4-0.2-0.7-0.8-0.7-1.2C306.3,85.4,306.6,85.3,307,85.5z"/>
									<path class="st31" d="M307,85.5l12.4,7.2c0.4,0.2,0.7,0.8,0.7,1.2c0,0.4-0.3,0.6-0.7,0.4L307,87.1
										c-0.4-0.2-0.7-0.8-0.7-1.2C306.3,85.4,306.6,85.3,307,85.5z"/>
								</g>
								<g>
									<path class="st48" d="M304.3,88.1l2,1.2c0.4,0.2,0.7,0.8,0.7,1.2c0,0.4-0.3,0.6-0.7,0.4l-2-1.2c-0.4-0.2-0.7-0.8-0.7-1.2
										S303.9,87.9,304.3,88.1z"/>
									<path class="st32" d="M304.3,88.1l2,1.2c0.4,0.2,0.7,0.8,0.7,1.2c0,0.4-0.3,0.6-0.7,0.4l-2-1.2c-0.4-0.2-0.7-0.8-0.7-1.2
										S303.9,87.9,304.3,88.1z"/>
								</g>
								<g>
									<path class="st48" d="M304.3,92.3l2,1.2c0.4,0.2,0.7,0.8,0.7,1.2c0,0.4-0.3,0.6-0.7,0.4l-2-1.2c-0.4-0.2-0.7-0.8-0.7-1.2
										C303.6,92.2,303.9,92,304.3,92.3z"/>
									<path class="st32" d="M304.3,92.3l2,1.2c0.4,0.2,0.7,0.8,0.7,1.2c0,0.4-0.3,0.6-0.7,0.4l-2-1.2c-0.4-0.2-0.7-0.8-0.7-1.2
										C303.6,92.2,303.9,92,304.3,92.3z"/>
								</g>
								<g>
									<path class="st48" d="M309.9,91.3l9.5,5.5c0.4,0.2,0.7,0.8,0.7,1.2c0,0.4-0.3,0.6-0.7,0.4l-9.5-5.5
										c-0.4-0.2-0.7-0.8-0.7-1.2C309.1,91.3,309.5,91.1,309.9,91.3z"/>
									<path class="st31" d="M309.9,91.3l9.5,5.5c0.4,0.2,0.7,0.8,0.7,1.2c0,0.4-0.3,0.6-0.7,0.4l-9.5-5.5
										c-0.4-0.2-0.7-0.8-0.7-1.2C309.1,91.3,309.5,91.1,309.9,91.3z"/>
								</g>
								<g>
									<path class="st48" d="M309.9,95.5l9.5,5.5c0.4,0.2,0.7,0.8,0.7,1.2s-0.3,0.6-0.7,0.4l-9.5-5.5c-0.4-0.2-0.7-0.8-0.7-1.2
										C309.1,95.4,309.5,95.3,309.9,95.5z"/>
									<path class="st31" d="M309.9,95.5l9.5,5.5c0.4,0.2,0.7,0.8,0.7,1.2s-0.3,0.6-0.7,0.4l-9.5-5.5c-0.4-0.2-0.7-0.8-0.7-1.2
										C309.1,95.4,309.5,95.3,309.9,95.5z"/>
								</g>
								<g>
									<path class="st48" d="M301.5,103.2l2,1.2c0.4,0.2,0.7,0.8,0.7,1.2c0,0.4-0.3,0.6-0.7,0.4l-2-1.2c-0.4-0.2-0.7-0.8-0.7-1.2
										C300.7,103.1,301.1,102.9,301.5,103.2z"/>
									<path class="st32" d="M301.5,103.2l2,1.2c0.4,0.2,0.7,0.8,0.7,1.2c0,0.4-0.3,0.6-0.7,0.4l-2-1.2c-0.4-0.2-0.7-0.8-0.7-1.2
										C300.7,103.1,301.1,102.9,301.5,103.2z"/>
								</g>
								<g>
									<path class="st48" d="M307,106.4l12.4,7.2c0.4,0.2,0.7,0.8,0.7,1.2c0,0.4-0.3,0.6-0.7,0.4L307,108
										c-0.4-0.2-0.7-0.8-0.7-1.2S306.6,106.2,307,106.4z"/>
									<path class="st31" d="M307,106.4l12.4,7.2c0.4,0.2,0.7,0.8,0.7,1.2c0,0.4-0.3,0.6-0.7,0.4L307,108
										c-0.4-0.2-0.7-0.8-0.7-1.2S306.6,106.2,307,106.4z"/>
								</g>
								<g>
									<path class="st48" d="M304.3,109l2,1.2c0.4,0.2,0.7,0.8,0.7,1.2c0,0.4-0.3,0.6-0.7,0.4l-2-1.2c-0.4-0.2-0.7-0.8-0.7-1.2
										C303.6,109,303.9,108.8,304.3,109z"/>
									<path class="st32" d="M304.3,109l2,1.2c0.4,0.2,0.7,0.8,0.7,1.2c0,0.4-0.3,0.6-0.7,0.4l-2-1.2c-0.4-0.2-0.7-0.8-0.7-1.2
										C303.6,109,303.9,108.8,304.3,109z"/>
								</g>
								<g>
									<path class="st48" d="M304.3,113.2l2,1.2c0.4,0.2,0.7,0.8,0.7,1.2c0,0.4-0.3,0.6-0.7,0.4l-2-1.2c-0.4-0.2-0.7-0.8-0.7-1.2
										C303.6,113.1,303.9,112.9,304.3,113.2z"/>
									<path class="st32" d="M304.3,113.2l2,1.2c0.4,0.2,0.7,0.8,0.7,1.2c0,0.4-0.3,0.6-0.7,0.4l-2-1.2c-0.4-0.2-0.7-0.8-0.7-1.2
										C303.6,113.1,303.9,112.9,304.3,113.2z"/>
								</g>
								<g>
									<path class="st48" d="M309.9,112.2l9.5,5.5c0.4,0.2,0.7,0.8,0.7,1.2c0,0.4-0.3,0.6-0.7,0.4l-9.5-5.5
										c-0.4-0.2-0.7-0.8-0.7-1.2C309.1,112.2,309.5,112,309.9,112.2z"/>
									<path class="st31" d="M309.9,112.2l9.5,5.5c0.4,0.2,0.7,0.8,0.7,1.2c0,0.4-0.3,0.6-0.7,0.4l-9.5-5.5
										c-0.4-0.2-0.7-0.8-0.7-1.2C309.1,112.2,309.5,112,309.9,112.2z"/>
								</g>
								<g>
									<path class="st48" d="M309.9,116.4l9.5,5.5c0.4,0.2,0.7,0.8,0.7,1.2s-0.3,0.6-0.7,0.4l-9.5-5.5c-0.4-0.2-0.7-0.8-0.7-1.2
										C309.1,116.3,309.5,116.2,309.9,116.4z"/>
									<path class="st31" d="M309.9,116.4l9.5,5.5c0.4,0.2,0.7,0.8,0.7,1.2s-0.3,0.6-0.7,0.4l-9.5-5.5c-0.4-0.2-0.7-0.8-0.7-1.2
										C309.1,116.3,309.5,116.2,309.9,116.4z"/>
								</g>
								<g>
									<path class="st48" d="M304.3,96.4l2,1.2c0.4,0.2,0.7,0.8,0.7,1.2c0,0.4-0.3,0.6-0.7,0.4l-2-1.2c-0.4-0.2-0.7-0.8-0.7-1.2
										C303.6,96.4,303.9,96.2,304.3,96.4z"/>
									<path class="st32" d="M304.3,96.4l2,1.2c0.4,0.2,0.7,0.8,0.7,1.2c0,0.4-0.3,0.6-0.7,0.4l-2-1.2c-0.4-0.2-0.7-0.8-0.7-1.2
										C303.6,96.4,303.9,96.2,304.3,96.4z"/>
								</g>
								<g>
									<path class="st48" d="M301.5,99l2,1.2c0.4,0.2,0.7,0.8,0.7,1.2s-0.3,0.6-0.7,0.4l-2-1.2c-0.4-0.2-0.7-0.8-0.7-1.2
										C300.7,98.9,301.1,98.7,301.5,99z"/>
									<path class="st32" d="M301.5,99l2,1.2c0.4,0.2,0.7,0.8,0.7,1.2s-0.3,0.6-0.7,0.4l-2-1.2c-0.4-0.2-0.7-0.8-0.7-1.2
										C300.7,98.9,301.1,98.7,301.5,99z"/>
								</g>
								<g>
									<path class="st48" d="M309.9,99.6l9.5,5.5c0.4,0.2,0.7,0.8,0.7,1.2c0,0.4-0.3,0.6-0.7,0.4l-9.5-5.5
										c-0.4-0.2-0.7-0.8-0.7-1.2C309.1,99.6,309.5,99.4,309.9,99.6z"/>
									<path class="st31" d="M309.9,99.6l9.5,5.5c0.4,0.2,0.7,0.8,0.7,1.2c0,0.4-0.3,0.6-0.7,0.4l-9.5-5.5
										c-0.4-0.2-0.7-0.8-0.7-1.2C309.1,99.6,309.5,99.4,309.9,99.6z"/>
								</g>
								<g>
									<path class="st48" d="M307,102.2l12.4,7.2c0.4,0.2,0.7,0.8,0.7,1.2c0,0.4-0.3,0.6-0.7,0.4l-12.4-7.2
										c-0.4-0.2-0.7-0.8-0.7-1.2C306.3,102.1,306.6,101.9,307,102.2z"/>
									<path class="st31" d="M307,102.2l12.4,7.2c0.4,0.2,0.7,0.8,0.7,1.2c0,0.4-0.3,0.6-0.7,0.4l-12.4-7.2
										c-0.4-0.2-0.7-0.8-0.7-1.2C306.3,102.1,306.6,101.9,307,102.2z"/>
								</g>
								<g>
									<path class="st48" d="M301.5,115.8l2,1.2c0.4,0.2,0.7,0.8,0.7,1.2c0,0.4-0.3,0.6-0.7,0.4l-2-1.2c-0.4-0.2-0.7-0.8-0.7-1.2
										C300.7,115.7,301.1,115.5,301.5,115.8z"/>
									<path class="st32" d="M301.5,115.8l2,1.2c0.4,0.2,0.7,0.8,0.7,1.2c0,0.4-0.3,0.6-0.7,0.4l-2-1.2c-0.4-0.2-0.7-0.8-0.7-1.2
										C300.7,115.7,301.1,115.5,301.5,115.8z"/>
								</g>
								<g>
									<path class="st48" d="M307,119l12.4,7.2c0.4,0.2,0.7,0.8,0.7,1.2s-0.3,0.6-0.7,0.4l-12.4-7.2c-0.4-0.2-0.7-0.8-0.7-1.2
										C306.3,118.9,306.6,118.7,307,119z"/>
									<path class="st31" d="M307,119l12.4,7.2c0.4,0.2,0.7,0.8,0.7,1.2s-0.3,0.6-0.7,0.4l-12.4-7.2c-0.4-0.2-0.7-0.8-0.7-1.2
										C306.3,118.9,306.6,118.7,307,119z"/>
								</g>
							</g>
						</g>
					</g>
				</g>
				<g id="Window_4_">
					<g id="XMLID_3556_">
						<g id="XMLID_3571_">
							<path class="st43" d="M422.1,136.1v82.5c0,1.1,0.8,2.4,1.7,3l47.4,27.4c0.2,0.1,0.4,0.2,0.6,0.2c0.1,0,0.1,0,0.2,0
								s0.1,0,0.1-0.1c0,0,0.1,0,0.1-0.1c0,0,0.1,0,0.1-0.1l0.1-0.1c0.1-0.1,0.2-0.3,0.3-0.5c0.1-0.3,0.2-0.6,0.2-0.9v-82.1
								c0-1.1-0.8-2.4-1.7-3L423.8,135c-0.4-0.3-0.8-0.3-1.2-0.1c-0.1,0-0.1,0.1-0.1,0.1l0,0l-0.1,0.1c0,0,0,0-0.1,0.1
								c0,0,0,0.1-0.1,0.1c0,0.1-0.1,0.1-0.1,0.2c0,0,0,0.1,0,0.2l0,0c0,0.1,0,0.1,0,0.2C422.1,136,422.1,136,422.1,136.1z"/>
						</g>
						<g id="XMLID_3563_">
							<g id="XMLID_3568_">
								<path class="st44" d="M422.6,135c0.3-0.1,0.7-0.1,1.2,0.1l47.4,27.3c0.9,0.5,1.7,1.9,1.7,3v5.6l2.7-1.6v-5.6
									c0-1.1-0.8-2.4-1.7-3l-47.4-27.3c-0.5-0.3-0.9-0.3-1.2-0.1C425,133.7,423,134.8,422.6,135z"/>
							</g>
							<path id="XMLID_3567_" class="st36" d="M422.1,136.1c0-1.1,0.8-1.5,1.7-1l47.4,27.3c0.9,0.5,1.7,1.9,1.7,3v5.6l-50.8-29.3
								L422.1,136.1L422.1,136.1z"/>
							<g id="XMLID_3566_" class="st45">
								<path class="st5" d="M423.8,135.1l47.4,27.3c0.5,0.3,0.9,0.7,1.2,1.3l2.7-1.6c-0.3-0.5-0.7-1-1.2-1.3l-47.4-27.3
									c-0.5-0.3-0.9-0.3-1.2-0.1c-0.3,0.2-2.3,1.3-2.6,1.5C422.9,134.8,423.4,134.9,423.8,135.1z"/>
							</g>
							<path id="XMLID_3564_" class="st40" d="M475.7,169.4v-5.6c0-0.6-0.2-1.2-0.5-1.7l-2.7,1.6c0.3,0.5,0.5,1.1,0.5,1.7v5.6
								L475.7,169.4z"/>
						</g>
						<g id="XMLID_3559_">
							<path id="XMLID_3562_" class="st41" d="M470.4,164.7c0.5,0.3,1,1.2,1,2s-0.4,1.2-1,0.9c-0.5-0.3-1-1.2-1-2
								C469.5,164.9,469.9,164.4,470.4,164.7z"/>
							<path id="XMLID_3561_" class="st41" d="M466.9,162.7c0.5,0.3,1,1.2,1,2s-0.4,1.2-1,0.9s-1-1.2-1-2
								C466,162.8,466.4,162.4,466.9,162.7z"/>
							<path id="XMLID_3560_" class="st41" d="M463.5,160.7c0.5,0.3,1,1.2,1,2s-0.4,1.2-1,0.9c-0.5-0.3-1-1.2-1-2
								S462.9,160.4,463.5,160.7z"/>
						</g>
						<g id="XMLID_3558_" class="st51">
							<path class="st43" d="M472.3,249c0.1,0,0.1-0.1,0.2-0.1c0.2-0.1,0.3-0.2,0.5-0.3l0,0c0.1-0.1,0.2-0.1,0.3-0.2l0,0
								c0.2-0.1,0.3-0.2,0.5-0.3c0.1-0.1,0.8-0.5,0.9-0.5c0.1-0.1,0.2-0.1,0.2-0.1c0.1-0.1,0.2-0.1,0.3-0.2c0.1-0.1,0.2-0.2,0.2-0.3
								c0.1-0.3,0.2-0.6,0.2-0.9v-76.6l-2.7,1.6v76.5c0,0.3-0.1,0.6-0.2,0.9c-0.1,0.2-0.2,0.3-0.3,0.5
								C472.4,248.9,472.4,248.9,472.3,249C472.3,248.9,472.3,249,472.3,249z"/>
						</g>
					</g>
					<g id="XMLID_2916_">
						<g id="XMLID_3493_">
							<path id="XMLID_3552_" class="st36" d="M426,151.2c0-0.1,0-0.2,0.1-0.2l1.2-1.1c0,0,0,0,0.1,0l0,0l0.1,0.1c0,0.1,0,0.1,0,0.2
								v0.9c0,0.1,0,0.2,0,0.2s0,0.1-0.1,0.1l-0.7,0.6l0.7,1.3c0,0.1,0.1,0.2,0.1,0.2c0,0.1,0,0.2,0,0.3v0.9c0,0.1,0,0.1,0,0.1h-0.1
								l0,0c0,0,0,0-0.1-0.1l-1.2-2.6c-0.1-0.1-0.1-0.2-0.1-0.3V151.2z"/>
							<path id="XMLID_3548_" class="st36" d="M430.5,150c0-0.1,0.1-0.1,0.1-0.1s0.1,0,0.2,0l0.5,0.3l0.1,0.1c0,0,0,0.1,0,0.2v0.1
								l-2.1,6.6c0,0.1,0,0.1-0.1,0.1c0,0-0.1,0-0.2,0l-0.4-0.3l-0.1-0.1c0-0.1,0-0.1,0-0.2v-0.1L430.5,150z"/>
							<path id="XMLID_3541_" class="st36" d="M433.8,156.3c0,0.1,0,0.2-0.1,0.2l-1.2,1.1c0,0,0,0-0.1,0l0,0l-0.1-0.1
								c0,0,0-0.1,0-0.2v-0.9c0-0.1,0-0.2,0-0.2s0-0.1,0.1-0.1l0.7-0.6l-0.7-1.3c0-0.1-0.1-0.2-0.1-0.2c0-0.1,0-0.2,0-0.3v-0.9
								c0-0.1,0-0.1,0-0.1h0.1l0,0c0,0,0,0,0.1,0.1l1.2,2.6c0.1,0.1,0.1,0.2,0.1,0.3V156.3z"/>
							<path id="XMLID_3522_" class="st36" d="M437.2,159.7l0.1,0.1c0,0.1,0,0.1,0,0.2v0.9c0,0.1,0,0.1,0,0.2h-0.1l-0.6-0.3
								l-0.1-0.1c0-0.1,0-0.1,0-0.2v-0.9c0-0.1,0-0.1,0-0.2h0.1L437.2,159.7z"/>
							<path id="XMLID_3499_" class="st36" d="M439.2,160.8l0.1,0.1c0,0.1,0,0.1,0,0.2v0.9c0,0.1,0,0.1,0,0.2h-0.1l-0.6-0.3
								l-0.1-0.1c0-0.1,0-0.1,0-0.2v-0.9c0-0.1,0-0.1,0-0.2h0.1L439.2,160.8z"/>
							<path id="XMLID_3497_" class="st36" d="M441.1,161.9l0.1,0.1c0,0.1,0,0.1,0,0.2v0.9c0,0.1,0,0.1,0,0.2h-0.1l-0.6-0.3
								l-0.1-0.1c0-0.1,0-0.1,0-0.2v-0.9c0-0.1,0-0.1,0-0.2h0.1L441.1,161.9z"/>
						</g>
						<path id="XMLID_3489_" class="st36" d="M426.5,158.7l28.5,16.4c0.3,0.2,0.6,0.6,0.6,1s-0.3,0.5-0.6,0.3L426.5,160
							c-0.3-0.2-0.6-0.6-0.6-1S426.2,158.5,426.5,158.7z"/>
						<path id="XMLID_3488_" class="st47" d="M435.7,179.8l28.5,16.4c0.3,0.2,0.6,0.6,0.6,1s-0.3,0.5-0.6,0.3l-28.5-16.4
							c-0.3-0.2-0.6-0.6-0.6-1C435.1,179.7,435.3,179.6,435.7,179.8z"/>
						<path id="XMLID_3480_" class="st47" d="M435.7,190.3l13.6,7.9c0.3,0.2,0.6,0.6,0.6,1s-0.3,0.5-0.6,0.3l-13.6-7.9
							c-0.3-0.2-0.6-0.6-0.6-1C435.1,190.3,435.3,190.1,435.7,190.3z"/>
						<path id="XMLID_3458_" class="st36" d="M457.4,176.5l11.4,6.5c0.3,0.2,0.6,0.6,0.6,1s-0.3,0.5-0.6,0.3l-11.4-6.5
							c-0.3-0.2-0.6-0.6-0.6-1C456.8,176.4,457,176.3,457.4,176.5z"/>
						<path id="XMLID_3455_" class="st36" d="M426.5,216.7l28.5,16.4c0.3,0.2,0.6,0.6,0.6,1s-0.3,0.5-0.6,0.3L426.5,218
							c-0.3-0.2-0.6-0.6-0.6-1C425.9,216.7,426.2,216.5,426.5,216.7z"/>
						<path id="XMLID_3452_" class="st36" d="M457.4,234.5l11.4,6.5c0.3,0.2,0.6,0.6,0.6,1s-0.3,0.5-0.6,0.3l-11.4-6.5
							c-0.3-0.2-0.6-0.6-0.6-1C456.8,234.5,457,234.3,457.4,234.5z"/>
						<path id="XMLID_3448_" class="st36" d="M457.4,218.7l11.4,6.5c0.3,0.2,0.6,0.6,0.6,1s-0.3,0.5-0.6,0.3l-11.4-6.5
							c-0.3-0.2-0.6-0.6-0.6-1C456.8,218.7,457,218.5,457.4,218.7z"/>
						<path id="XMLID_3288_" class="st36" d="M457.4,224l11.4,6.5c0.3,0.2,0.6,0.6,0.6,1s-0.3,0.5-0.6,0.3l-11.4-6.5
							c-0.3-0.2-0.6-0.6-0.6-1C456.8,223.9,457,223.8,457.4,224z"/>
						<path id="XMLID_3285_" class="st36" d="M447.7,213.1l6.4,3.7c0.3,0.2,0.6,0.6,0.6,1s-0.3,0.5-0.6,0.3l-6.4-3.7
							c-0.3-0.2-0.6-0.6-0.6-1C447.1,213.1,447.4,212.9,447.7,213.1z"/>
						<g id="XMLID_3242_">
							<path id="XMLID_3244_" class="st48" d="M426.5,164l16.6,9.6c0.3,0.2,0.6,0.6,0.6,1s-0.3,0.5-0.6,0.3l-16.6-9.6
								c-0.3-0.2-0.6-0.6-0.6-1C425.9,163.9,426.2,163.8,426.5,164z"/>
							<path id="XMLID_3243_" class="st31" d="M426.5,164l16.6,9.6c0.3,0.2,0.6,0.6,0.6,1s-0.3,0.5-0.6,0.3l-16.6-9.6
								c-0.3-0.2-0.6-0.6-0.6-1C425.9,163.9,426.2,163.8,426.5,164z"/>
						</g>
						<g id="XMLID_3239_">
							<path id="XMLID_3241_" class="st48" d="M426.5,169.2l5.6,3.3c0.3,0.2,0.6,0.6,0.6,1s-0.3,0.5-0.6,0.3l-5.6-3.3
								c-0.3-0.2-0.6-0.6-0.6-1C425.9,169.2,426.2,169,426.5,169.2z"/>
							<path id="XMLID_3240_" class="st31" d="M426.5,169.2l5.6,3.3c0.3,0.2,0.6,0.6,0.6,1s-0.3,0.5-0.6,0.3l-5.6-3.3
								c-0.3-0.2-0.6-0.6-0.6-1C425.9,169.2,426.2,169,426.5,169.2z"/>
						</g>
						<g id="XMLID_3236_">
							<path id="XMLID_3238_" class="st48" d="M426.5,174.5l5.6,3.3c0.3,0.2,0.6,0.6,0.6,1s-0.3,0.5-0.6,0.3l-5.6-3.3
								c-0.3-0.2-0.6-0.6-0.6-1C425.9,174.4,426.2,174.3,426.5,174.5z"/>
							<path id="XMLID_3237_" class="st31" d="M426.5,174.5l5.6,3.3c0.3,0.2,0.6,0.6,0.6,1s-0.3,0.5-0.6,0.3l-5.6-3.3
								c-0.3-0.2-0.6-0.6-0.6-1C425.9,174.4,426.2,174.3,426.5,174.5z"/>
						</g>
						<g id="XMLID_3234_">
							<path id="XMLID_3235_" class="st48" d="M426.5,179.8l5.6,3.3c0.3,0.2,0.6,0.6,0.6,1s-0.3,0.5-0.6,0.3l-5.6-3.3
								c-0.3-0.2-0.6-0.6-0.6-1C425.9,179.7,426.2,179.6,426.5,179.8z"/>
						</g>
						<path id="XMLID_3233_" class="st31" d="M426.5,179.8l5.6,3.3c0.3,0.2,0.6,0.6,0.6,1s-0.3,0.5-0.6,0.3l-5.6-3.3
							c-0.3-0.2-0.6-0.6-0.6-1C425.9,179.7,426.2,179.6,426.5,179.8z"/>
						<path id="XMLID_3232_" class="st52" d="M435.7,185.1l16.6,9.6c0.3,0.2,0.6,0.6,0.6,1s-0.3,0.5-0.6,0.3l-16.6-9.6
							c-0.3-0.2-0.6-0.6-0.6-1C435.1,185,435.3,184.9,435.7,185.1z"/>
						<path id="XMLID_3228_" class="st52" d="M454.7,196l7.2,4.2c0.3,0.2,0.6,0.6,0.6,1s-0.3,0.5-0.6,0.3l-7.2-4.2
							c-0.3-0.2-0.6-0.6-0.6-1C454,195.9,454.3,195.8,454.7,196z"/>
						<path id="XMLID_3205_" class="st31" d="M435.7,185.1l16.6,9.6c0.3,0.2,0.6,0.6,0.6,1s-0.3,0.5-0.6,0.3l-16.6-9.6
							c-0.3-0.2-0.6-0.6-0.6-1C435.1,185,435.3,184.9,435.7,185.1z"/>
						<path id="XMLID_3204_" class="st31" d="M454.7,196l7.2,4.2c0.3,0.2,0.6,0.6,0.6,1s-0.3,0.5-0.6,0.3l-7.2-4.2
							c-0.3-0.2-0.6-0.6-0.6-1C454,195.9,454.3,195.8,454.7,196z"/>
						<g id="XMLID_3201_">
							<path id="XMLID_3203_" class="st48" d="M426.5,185.1l5.6,3.3c0.3,0.2,0.6,0.6,0.6,1s-0.3,0.5-0.6,0.3l-5.6-3.3
								c-0.3-0.2-0.6-0.6-0.6-1C425.9,185,426.2,184.9,426.5,185.1z"/>
							<path id="XMLID_3202_" class="st31" d="M426.5,185.1l5.6,3.3c0.3,0.2,0.6,0.6,0.6,1s-0.3,0.5-0.6,0.3l-5.6-3.3
								c-0.3-0.2-0.6-0.6-0.6-1C425.9,185,426.2,184.9,426.5,185.1z"/>
						</g>
						<g id="XMLID_3198_">
							<path id="XMLID_3200_" class="st48" d="M445.5,174.9l7.2,4.2c0.3,0.2,0.6,0.6,0.6,1s-0.3,0.5-0.6,0.3l-7.2-4.2
								c-0.3-0.2-0.6-0.6-0.6-1S445.2,174.7,445.5,174.9z"/>
							<path id="XMLID_3199_" class="st31" d="M445.5,174.9l7.2,4.2c0.3,0.2,0.6,0.6,0.6,1s-0.3,0.5-0.6,0.3l-7.2-4.2
								c-0.3-0.2-0.6-0.6-0.6-1S445.2,174.7,445.5,174.9z"/>
						</g>
						<g id="XMLID_3196_">
							<path id="XMLID_3197_" class="st5" d="M442.5,199.6l16.6,9.6c0.3,0.2,0.6,0.6,0.6,1s-0.3,0.5-0.6,0.3l-16.6-9.6
								c-0.3-0.2-0.6-0.6-0.6-1C441.9,199.5,442.2,199.4,442.5,199.6z"/>
						</g>
						<g id="XMLID_3194_">
							<path id="XMLID_3195_" class="st5" d="M452.1,210.4l16.6,9.6c0.3,0.2,0.6,0.6,0.6,1s-0.3,0.5-0.6,0.3l-16.6-9.6
								c-0.3-0.2-0.6-0.6-0.6-1S451.8,210.2,452.1,210.4z"/>
						</g>
						<g id="XMLID_3094_">
							<path id="XMLID_3193_" class="st5" d="M461.5,210.5l7.2,4.2c0.3,0.2,0.6,0.6,0.6,1s-0.3,0.5-0.6,0.3l-7.2-4.2
								c-0.3-0.2-0.6-0.6-0.6-1C460.9,210.4,461.2,210.3,461.5,210.5z"/>
						</g>
						<g id="XMLID_2998_">
							<path id="XMLID_2999_" class="st47" d="M461.5,231.4l7.2,4.2c0.3,0.2,0.6,0.6,0.6,1s-0.3,0.5-0.6,0.3l-7.2-4.2
								c-0.3-0.2-0.6-0.6-0.6-1S461.2,231.2,461.5,231.4z"/>
						</g>
						<g id="XMLID_2995_">
							<path id="XMLID_2997_" class="st48" d="M435.7,174.5l16.6,9.6c0.3,0.2,0.6,0.6,0.6,1s-0.3,0.5-0.6,0.3l-16.6-9.6
								c-0.3-0.2-0.6-0.6-0.6-1C435.1,174.4,435.3,174.3,435.7,174.5z"/>
							<path id="XMLID_2996_" class="st31" d="M435.7,174.5l16.6,9.6c0.3,0.2,0.6,0.6,0.6,1s-0.3,0.5-0.6,0.3l-16.6-9.6
								c-0.3-0.2-0.6-0.6-0.6-1C435.1,174.4,435.3,174.3,435.7,174.5z"/>
						</g>
						<g id="XMLID_2918_">
							<path id="XMLID_2922_" class="st48" d="M454.7,185.4l7.2,4.2c0.3,0.2,0.6,0.6,0.6,1s-0.3,0.5-0.6,0.3l-7.2-4.2
								c-0.3-0.2-0.6-0.6-0.6-1C454,185.4,454.3,185.3,454.7,185.4z"/>
							<path id="XMLID_2919_" class="st31" d="M454.7,185.4l7.2,4.2c0.3,0.2,0.6,0.6,0.6,1s-0.3,0.5-0.6,0.3l-7.2-4.2
								c-0.3-0.2-0.6-0.6-0.6-1C454,185.4,454.3,185.3,454.7,185.4z"/>
						</g>
					</g>
				</g>
				<g id="Mouse_2_">
					<path class="st40" d="M341.4,245.9l10.2,5.9c3.2,1.9,8.2,1.6,11.2-0.6l16.8-12.3c3-2.2,2.8-5.5-0.4-7.3l-5.1-3
						c-3.2-1.9-8.5-2-11.8-0.4l-20.7,11.2C338.3,241.2,338.2,244.1,341.4,245.9z"/>
					<path class="st34" d="M379.9,233.6l-11.6,9.1l-8.6,6.7c-0.8,0.4-1.8,0.6-2.7,0.7c-1.4,0.1-2.9-0.2-4.1-0.9l-9.1-5.3l0,0
						c0,0,0,0-0.1,0c-3.2-1.9-4-6.2-1.8-9.2c0.1-0.1,0.2-0.2,0.3-0.4c1.7-2.3,4.3-4,7.3-4.6l4.6-0.9c7.5-1.5,13.6-2.3,14.3-1.8
						L379.9,233.6C379.8,233.6,379.9,233.6,379.9,233.6z"/>
					<path class="st36" d="M373.4,238.7l0.7-0.5l-10.2-5.9l9-2.8c-0.3-0.2-0.6-0.4-0.9-0.5l-9,2.8l-6.1-3.5
						c-0.4,0.1-0.8,0.1-1.2,0.2L373.4,238.7z"/>
					<path class="st33" d="M360.7,248.8L360.7,248.8C360.7,248.8,360.8,248.8,360.7,248.8l8.2-5.9l11-8v-1.2c0,0,0-0.1-0.1-0.1
						c0,0,0,0-0.1,0c-0.8-0.3-5.6,1.2-11.4,3.4l-3.8,1.5c-1.2,0.5-2.3,1.1-3.3,1.9c-2.8,2.3-4.4,5.7-4.4,9.4v0.2
						c1-0.1,1.9-0.3,2.7-0.7L360.7,248.8z"/>
				</g>
			</g>
		</g>
		<g id="Plant">
			<g id="Pot_1_">
				<g id="XMLID_3653_">
					<g id="XMLID_3654_">
						<g id="XMLID_3655_">
							<g id="XMLID_3717_">
								<path id="XMLID_3718_" class="st36" d="M380.9,411.9c-11.2-11.6-17.8-58.7-6.9-67.8h55.7c10.9,9.2,4.4,56.3-6.9,67.8
									c-0.1,0.1-0.2,0.2-0.3,0.3c-0.1,0.1-0.3,0.3-0.4,0.4c-0.3,0.3-0.7,0.6-1,0.9c-0.1,0.1-0.2,0.1-0.3,0.2
									c-0.3,0.2-0.5,0.4-0.8,0.6c-0.5,0.3-1,0.7-1.4,0.9c-9.2,5.4-24.2,5.4-33.4,0l0,0l0,0c-0.5-0.3-1-0.6-1.5-0.9
									c-0.3-0.2-0.5-0.4-0.8-0.6c-0.1-0.1-0.2-0.2-0.3-0.3c-0.3-0.3-0.7-0.6-1-0.9c-0.2-0.1-0.3-0.3-0.4-0.4
									C381.1,412.1,381,412,380.9,411.9z"/>
							</g>
							<g id="XMLID_3668_" class="st45">
								<path id="XMLID_3669_" class="st50" d="M380.9,411.9c-11.2-11.6-17.8-58.7-6.9-67.8h55.7c10.9,9.2,4.4,56.3-6.9,67.8
									c-0.1,0.1-0.2,0.2-0.3,0.3c-0.1,0.1-0.3,0.3-0.4,0.4c-0.3,0.3-0.7,0.6-1,0.9c-0.1,0.1-0.2,0.1-0.3,0.2
									c-0.3,0.2-0.5,0.4-0.8,0.6c-0.5,0.3-1,0.7-1.4,0.9c-9.2,5.4-24.2,5.4-33.4,0l0,0l0,0c-0.5-0.3-1-0.6-1.5-0.9
									c-0.3-0.2-0.5-0.4-0.8-0.6c-0.1-0.1-0.2-0.2-0.3-0.3c-0.3-0.3-0.7-0.6-1-0.9c-0.2-0.1-0.3-0.3-0.4-0.4
									C381.1,412.1,381,412,380.9,411.9z"/>
							</g>
							<g id="XMLID_3666_">
								<path id="XMLID_3667_" class="st32" d="M424.9,340.4c12.7,7.4,12.7,19.4,0,26.8s-33.3,7.4-46,0s-12.7-19.4,0-26.8
									C391.6,332.9,412.2,332.9,424.9,340.4z"/>
							</g>
							<g id="XMLID_3664_" class="st53">
								<path id="XMLID_3665_" class="st41" d="M424.9,340.4c12.7,7.4,12.7,19.4,0,26.8s-33.3,7.4-46,0s-12.7-19.4,0-26.8
									C391.6,332.9,412.2,332.9,424.9,340.4z"/>
							</g>
							<g id="XMLID_3660_" class="st54">
								<path id="XMLID_3661_" d="M418.8,343.9c9.3,5.4,9.3,14.3,0,19.7c-9.3,5.4-24.4,5.4-33.8,0c-9.3-5.4-9.3-14.3,0-19.7
									C394.3,338.5,409.4,338.5,418.8,343.9z"/>
							</g>
							<g id="XMLID_3656_">
								<path id="XMLID_3659_" class="st31" d="M385,353.3c9.3-5.4,24.4-5.4,33.8,0c2.6,1.5,4.4,3.3,5.6,5.2c-1.2,1.9-3,3.7-5.6,5.2
									c-9.3,5.4-24.4,5.4-33.8,0c-2.6-1.5-4.4-3.3-5.6-5.2C380.6,356.6,382.4,354.8,385,353.3z"/>
							</g>
						</g>
					</g>
				</g>
				<g id="Plants_20_">
					<g id="XMLID_3595_">
						<g id="XMLID_3645_">
							<path id="XMLID_3652_" class="st55" d="M397.3,329.5c-0.6-1.3-1.1-2.6-1.4-4.1c-0.6-3.4,0.2-7.3,3-9.4c1.1-0.8,2.5-1.4,3-2.7
								c0.3-0.7,0.2-1.5,0-2.2c-0.5-2.9-1.5-5.9-0.7-8.7c0.7-2.6,2.9-4.6,5.4-5.8c2.5-1.2,5.2-1.6,7.9-2.1c1.4-0.2,2.9-0.5,4.2-1.2
								c1.6-0.9,2-2.4,3-3.8c1.1-1.5,2.5-2.9,3.8-4.1c2.8-2.5,6.4-4.6,10.3-4.4c8.2,0.4,8,7.4,5.6,12.7c-2.4,5.3-3,7.1,2.1,12.6
								c5.1,5.6,5.1,12.4-1,16.3c-6.1,3.8-10.1,4.3-7.7,11.7c2.2,6.6,3.5,12.2-2.6,19.3c-3.9,4.6-9.3,7.8-16.1,7.5
								c-1.9-0.1-6.1-1-7.9-1.8c-1.9-0.9-0.6-2.4-1.2-4.2c-1.3-3.9-2.7-7.9-4-11.8c-1-3-1.8-6.4-3.2-9.3
								C399,332.5,398.1,331.1,397.3,329.5z"/>
						</g>
						<g id="XMLID_3643_" class="st56">
							<path id="XMLID_3644_" d="M397.3,329.5c-0.6-1.3-1.1-2.6-1.4-4.1c-0.6-3.4,0.2-7.3,3-9.4c1.1-0.8,2.5-1.4,3-2.7
								c0.3-0.7,0.2-1.5,0-2.2c-0.5-2.9-1.5-5.9-0.7-8.7c0.7-2.6,2.9-4.6,5.4-5.8c2.5-1.2,5.2-1.6,7.9-2.1c1.4-0.2,2.9-0.5,4.2-1.2
								c1.6-0.9,2-2.4,3-3.8c1.1-1.5,2.5-2.9,3.8-4.1c2.8-2.5,6.4-4.6,10.3-4.4c8.2,0.4,8,7.4,5.6,12.7c-2.4,5.3-3,7.1,2.1,12.6
								c5.1,5.6,5.1,12.4-1,16.3c-6.1,3.8-10.1,4.3-7.7,11.7c2.2,6.6,3.5,12.2-2.6,19.3c-3.9,4.6-9.3,7.8-16.1,7.5
								c-1.9-0.1-6.1-1-7.9-1.8c-1.9-0.9-0.6-2.4-1.2-4.2c-1.3-3.9-2.7-7.9-4-11.8c-1-3-1.8-6.4-3.2-9.3
								C399,332.5,398.1,331.1,397.3,329.5z"/>
						</g>
						<g id="XMLID_3641_">
							<path id="XMLID_3642_" class="st36" d="M408.5,359.4c0.2-0.1,0.4-0.3,0.4-0.6c-0.3-40.4,21.9-64.6,22.2-64.8
								c0.2-0.2,0.2-0.6,0-0.9c-0.2-0.2-0.6-0.2-0.9,0c-0.2,0.2-22.8,24.7-22.5,65.7c0,0.3,0.3,0.6,0.6,0.6
								C408.3,359.5,408.4,359.5,408.5,359.4z"/>
						</g>
						<g id="XMLID_3598_">
							<path id="XMLID_3640_" class="st36" d="M414.9,321.8c0,0,0.1,0,0.1-0.1c7.3-4.6,20.2-8,20.3-8c0.3-0.1,0.5-0.4,0.4-0.7
								c-0.1-0.3-0.4-0.5-0.7-0.4c-0.5,0.1-13.2,3.5-20.7,8.1c-0.3,0.2-0.4,0.6-0.2,0.8C414.4,321.8,414.7,321.9,414.9,321.8z"/>
						</g>
						<g id="XMLID_3596_">
							<path id="XMLID_3597_" class="st36" d="M417.2,316.3L417.2,316.3c0.3-0.1,0.5-0.5,0.4-0.8c-2.5-6.3-6.5-11.1-6.7-11.3
								c-0.2-0.3-0.6-0.3-0.8-0.1c-0.3,0.2-0.3,0.6-0.1,0.9c0,0,4,4.8,6.5,10.9C416.5,316.2,416.9,316.4,417.2,316.3z"/>
						</g>
					</g>
					<g id="XMLID_3098_">
						<path id="XMLID_3594_" class="st50" d="M402.8,363.8c0,0-7.6,2.9-17.8,0.7c-10.2-2.2-16.4-11.7-16.4-11.7s11-4.4,17.4-4.8
							c0,0-10-1.7-19.3,0.4c0,0-5.9-2.2-4.8-12.2c0,0,5.5-4.1,18.3-2.5c0,0-6.4-4.6-17.6-5.9c-0.9,0,0.3-13,1.4-18.7
							s3.2-4.9,7.8-4.4c4.6,0.5,18.2,3.6,19.9,6.9c1.7,3.3,0,11.8,0,11.8s3.7-4.6,3.7-11.1c0,0,5.1,1.9,7.8,4.3
							c2.7,2.4,4.1,4.4,4.9,6.1c-0.6,4.6-2.8,11.5-5.8,15.4c0,0,6.8-4.4,8.3-12.4c0,0,5.4,6.9,5.4,15.8
							C416.1,351.6,411.5,359.2,402.8,363.8z"/>
						<path id="XMLID_3719_" class="st15" d="M402.8,363.8c0,0-7.6,2.9-17.8,0.7c-10.2-2.2-16.4-11.7-16.4-11.7s11-4.4,17.4-4.8
							c0,0-10-1.7-19.3,0.4c0,0-5.9-2.2-4.8-12.2c0,0,5.5-4.1,18.3-2.5c0,0-6.4-4.6-17.6-5.9c-0.9,0,0.3-13,1.4-18.7
							s3.2-4.9,7.8-4.4c4.6,0.5,18.2,3.6,19.9,6.9c1.7,3.3,0,11.8,0,11.8s3.7-4.6,3.7-11.1c0,0,5.1,1.9,7.8,4.3
							c2.7,2.4,4.1,4.4,4.9,6.1c-0.6,4.6-2.8,11.5-5.8,15.4c0,0,6.8-4.4,8.3-12.4c0,0,5.4,6.9,5.4,15.8
							C416.1,351.6,411.5,359.2,402.8,363.8z"/>
						<g id="XMLID_3578_">
							<path id="XMLID_3579_" class="st36" d="M404.1,362.9c-0.2-0.1-0.4-0.3-0.4-0.5c-1.5-19.3-23.1-49.4-32.7-55.5
								c-0.3-0.2-0.4-0.5-0.2-0.8c0.2-0.3,0.5-0.4,0.8-0.2c9.7,6.2,31.6,36.8,33.2,56.4c0,0.3-0.2,0.6-0.5,0.6
								C404.3,363,404.2,362.9,404.1,362.9z"/>
						</g>
					</g>
				</g>
			</g>
		</g>
		<g id="Character">
			<g id="Character_1_">
				<g id="XMLID_179_">
					<g id="XMLID_183_">
						<g id="XMLID_191_">
							<path id="XMLID_192_" class="st57" d="M208.9,350.9c0-0.2-3.5-12.7-3.5-12.7s1.1,1.2,8.4-0.8c3.7-1,7.9-3.3,7.9-3.3l2.1,9.2
								c1.9,3.5,8.3,1.9,15.3,1.1c1.2-0.1,2.4-0.3,3.6-0.5h0.1c3.8-0.2,7.6,2.1,3.6,5.3c-3.9,3.2-10.4,4.4-16.4,5.5
								C222.8,355.9,210.2,358,208.9,350.9z"/>
						</g>
						<g id="XMLID_184_">
							<path id="XMLID_190_" class="st33" d="M259.2,349.7c0,0,0.8,1.5,0.5,3.8c-0.1,1.4-3.6,6.1-9.7,9c-6.1,2.9-13.6,3.1-17.2,4.1
								c-3.5,1-6.8,3-10.9,4.1c-4.3,1-8.3,1.5-12.4-1.2c-0.8-1.2-1.6-3.9-1.4-4.2C208.8,364.7,259.2,349.7,259.2,349.7z"/>
							<path id="XMLID_189_" class="st50" d="M224.8,344.4c2.7,1.9,8.2,0.6,14.2-0.1c5.7-0.6,12-2.6,15.9-1.3
								c3.8,1.3,7.1,5.9,1.9,11.7c-1.5,1.7-4.7,4.6-7.2,5.5c-6.5,2.3-12.3,2.5-16.4,3.5c-5.4,1.3-8.4,3.7-13.4,4.3
								c-6.5,0.8-10.6-0.9-11.7-2.6c-1.1-1.7-2.2-15.7,0.6-15.4c0,0,1.2,4.5,11.7,0.1C225.1,348.3,225,345.4,224.8,344.4z"/>
							<path id="XMLID_188_" class="st58" d="M224.8,344.4c2.7,1.9,8.2,0.6,14.2-0.1c5.7-0.6,12-2.6,15.9-1.3
								c3.8,1.3,7.1,5.9,1.9,11.7c-1.5,1.7-4.7,4.6-7.2,5.5c-6.5,2.3-12.3,2.5-16.4,3.5c-5.4,1.3-8.4,3.7-13.4,4.3
								c-6.5,0.8-10.6-0.9-11.7-2.6c-1.1-1.7-2.2-15.7,0.6-15.4c0,0,1.2,4.5,11.7,0.1C225.1,348.3,225,345.4,224.8,344.4z"/>
							<path id="XMLID_187_" class="st59" d="M242.8,351.9c0,0-0.6-5.9-5-7.4c0,0-1.4-0.6-2.4,0.3c0,0,4,0.6,5.4,7.5
								c0,0,0.2,0.5,1.1,0.3C242.2,352.5,242.8,352.4,242.8,351.9z"/>
							<path id="XMLID_186_" class="st59" d="M231.7,345.2c0,0,0-0.2,1-0.4c0.7-0.1,1.2,0.1,1.2,0.1s3.2,1.4,3.8,7.6
								c0,0,0,0.7-1,0.9c-1,0.2-1.2-0.6-1.2-0.6S234.9,346.4,231.7,345.2z"/>
							<path id="XMLID_185_" class="st59" d="M228.2,345.4c0,0,0.2-0.4,0.9-0.4c1,0,1.2,0.4,1.2,0.4s2.3,2.4,2.3,7.5
								c0,0,0.1,0.9-1.1,1c-1.2,0.1-1-0.9-1-0.9S230.1,346.4,228.2,345.4z"/>
						</g>
					</g>
					<g id="XMLID_180_">
						<g id="XMLID_181_">
							<path id="XMLID_182_" class="st33" d="M204.4,265.7c5.3,15.9,19.3,70.7,19.3,70.7s-9.1,8.2-19.1,4.5L181,272.6L204.4,265.7z"
								/>
						</g>
					</g>
				</g>
				<g id="XMLID_166_">
					<g id="XMLID_169_">
						<g id="XMLID_177_">
							<path id="XMLID_178_" class="st57" d="M245.2,368.6c-1.1-1.6-5.1-12.8-5.1-12.8s4.2,2.4,11.5,0.7c3.7-0.9,7.2-4.9,7.2-4.9
								l3.1,10.7c1.8,3.6,7.8,2.4,14.8,1.8c1.2-0.1,2.4-0.3,3.6-0.5h0.1c3.8-0.1,7.5,2.2,3.5,5.4c-4,3.1-10.5,4.2-16.5,5.1
								C260.2,375.2,249.3,374.6,245.2,368.6z"/>
						</g>
						<g id="XMLID_170_">
							<path id="XMLID_176_" class="st33" d="M299.7,368.2c0,0,0.8,1.6,0.5,4.1c-0.2,1.5-4,6.5-10.6,9.4c-6.6,3-14.7,3-18.5,4
								s-7.3,3.1-11.8,4.1c-4.6,1-8.9,1.4-13.3-1.6c-0.8-1.3-1.6-4.3-1.4-4.5C245.2,382.9,299.7,368.2,299.7,368.2z"/>
							<path id="XMLID_175_" class="st50" d="M263.1,361.5c0.4,0.3,0.9,0.6,1.3,0.8c0.5,0.2,0.9,0.2,1.5,0.3
								c1.2,0.1,2.4,0.1,3.5,0.1c3-0.1,5.9-0.6,8.9-0.9c6.1-0.5,13-2.5,17.1-1s7.8,6.5,2.1,12.6c-1.7,1.8-5.1,4.7-7.7,5.8
								c-6.8,2.8-13.8,2.3-18.3,3.3c-5.8,1.3-9.1,3.8-14.5,4.3c-7,0.6-11.3-1.3-12.5-3.1c-0.6-1.1,0.1-6.5-0.8-10.8
								c-0.8-3.7-0.6-6.1,0.8-6c0.2,0.5,0.7,0.9,1,1.3c0.4,0.5,1,0.9,1.5,1.2c0.8,0.4,1.7,0.7,2.6,0.9c1.6,0.4,3.2,0.8,4.9,0.7
								c0.5,0,1-0.1,1.3-0.4c0.5-0.4,0.6-1,0.8-1.6c0.1-0.5,0.2-1.1,0.3-1.6c0.1-0.3,0.1-0.6,0.3-0.8c0.2-0.3,0.5-0.5,0.8-0.7
								c1-0.5,2-1.1,2.7-2c0.5-0.7,0.6-1.6,0.8-2.5c0-0.2,0.1-0.3,0.2-0.4c0.2-0.2,0.5,0,0.7,0.1
								C262.6,361.2,262.8,361.3,263.1,361.5z"/>
							<path id="XMLID_174_" class="st58" d="M263.1,361.5c0.4,0.3,0.9,0.6,1.3,0.8c0.5,0.2,0.9,0.2,1.5,0.3
								c1.2,0.1,2.4,0.1,3.5,0.1c3-0.1,5.9-0.6,8.9-0.9c6.1-0.5,13-2.5,17.1-1s7.8,6.5,2.1,12.6c-1.7,1.8-5.1,4.7-7.7,5.8
								c-6.8,2.8-13.8,2.3-18.3,3.3c-5.8,1.3-9.1,3.8-14.5,4.3c-7,0.6-11.3-1.3-12.5-3.1c-0.6-1.1,0.1-6.5-0.8-10.8
								c-0.8-3.7-0.6-6.1,0.8-6c0.2,0.5,0.7,0.9,1,1.3c0.4,0.5,1,0.9,1.5,1.2c0.8,0.4,1.7,0.7,2.6,0.9c1.6,0.4,3.2,0.8,4.9,0.7
								c0.5,0,1-0.1,1.3-0.4c0.5-0.4,0.6-1,0.8-1.6c0.1-0.5,0.2-1.1,0.3-1.6c0.1-0.3,0.1-0.6,0.3-0.8c0.2-0.3,0.5-0.5,0.8-0.7
								c1-0.5,2-1.1,2.7-2c0.5-0.7,0.6-1.6,0.8-2.5c0-0.2,0.1-0.3,0.2-0.4c0.2-0.2,0.5,0,0.7,0.1
								C262.6,361.2,262.8,361.3,263.1,361.5z"/>
							<path id="XMLID_173_" class="st59" d="M282,370.1c0,0-0.5-6.3-5.1-8.1c0,0-1.5-0.7-2.6,0.3c0,0,4.3,0.7,5.6,8.2
								c0,0,0.2,0.5,1.2,0.3C281.4,370.7,282.1,370.6,282,370.1z"/>
							<path id="XMLID_172_" class="st59" d="M270.4,362.6c0,0,0-0.2,1.1-0.4c0.8-0.1,1.3,0.2,1.3,0.2s3.4,1.6,3.9,8.2
								c0,0,0,0.8-1.1,1c-1,0.2-1.2-0.7-1.2-0.7S273.8,364,270.4,362.6z"/>
							<path id="XMLID_171_" class="st59" d="M266.6,362.7c0,0,0.2-0.4,1-0.4c1,0,1.3,0.4,1.3,0.4s2.4,2.6,2.3,8.1
								c0,0,0.1,0.9-1.2,1c-1.3,0.1-1.1-1-1.1-1S268.6,363.8,266.6,362.7z"/>
						</g>
					</g>
					<g id="XMLID_167_">
						<path id="XMLID_168_" class="st43" d="M241.7,284.5c4.2,12.8,14.8,49.3,19.7,68.1c0,0-8.7,7.9-20,7.2l-27.1-70.3l10.8-6.7
							L241.7,284.5z"/>
					</g>
				</g>
				<g id="XMLID_144_">
					<g id="XMLID_164_">
						<path id="XMLID_165_" class="st60" d="M152.4,460c1,0,1.8-0.8,1.8-1.8v-113c0-1-0.8-1.8-1.8-1.8s-1.8,0.8-1.8,1.8v113
							C150.6,459.2,151.4,460,152.4,460z"/>
					</g>
					<g id="XMLID_162_">
						<path id="XMLID_163_" class="st60" d="M82.5,418.9c0.7,0,1.4-0.4,1.6-1.1l34.7-87.7c0.4-0.9-0.1-1.9-1-2.3s-1.9,0.1-2.3,1
							l-34.7,87.7c-0.4,0.9,0.1,1.9,1,2.3C82,418.8,82.3,418.9,82.5,418.9z"/>
					</g>
					<g id="XMLID_160_">
						<path id="XMLID_161_" class="st60" d="M86.6,408.3c0.5,0,0.9-0.2,1.3-0.6l64.5-68.2l64.4,68c0.7,0.7,1.8,0.7,2.5,0.1
							c0.7-0.7,0.7-1.8,0.1-2.5l-65.6-69.3c-0.3-0.4-0.8-0.5-1.3-0.5l0,0c-0.5,0-0.9,0.2-1.3,0.6l-65.8,69.6
							c-0.7,0.7-0.6,1.8,0.1,2.5C85.8,408.2,86.2,408.3,86.6,408.3z"/>
					</g>
					<g id="XMLID_158_">
						<path id="XMLID_159_" class="st60" d="M222.3,418.9c0.2,0,0.4,0,0.6-0.1c0.9-0.4,1.3-1.4,1-2.3l-34.7-87.7
							c-0.4-0.9-1.4-1.3-2.3-1c-0.9,0.4-1.3,1.4-1,2.3l34.7,87.7C221,418.4,221.6,418.9,222.3,418.9z"/>
					</g>
					<g id="XMLID_156_">
						<path id="XMLID_157_" class="st55" d="M223.2,306.5c1.3-7.1-4.5-12.6-15.4-20c-10.9-7.3-24.8-14.6-31.5-17.7
							c-9.1-4.2-18.4-3.8-30,2.2c-16.2,8.3-64.8,37.8-64.8,37.8s72.7,41.1,86.7,39.2c14-1.8,49-24.6,51.8-32.6
							C222.7,307.4,223.2,306.5,223.2,306.5z"/>
					</g>
					<g id="XMLID_154_" class="st61">
						<path id="XMLID_155_" d="M223.2,306.5c1.3-7.1-4.5-12.6-15.4-20c-10.9-7.3-24.8-14.6-31.5-17.7c-9.1-4.2-18.4-3.8-30,2.2
							c-16.2,8.3-64.8,37.8-64.8,37.8s72.7,41.1,86.7,39.2c14-1.8,49-24.6,51.8-32.6C222.7,307.4,223.2,306.5,223.2,306.5z"/>
					</g>
					<g id="XMLID_152_">
						<path id="XMLID_153_" class="st34" d="M161.2,339.4c10.4,9.5,21.4,1.3,38.6-9.9c19.5-12.7,23.4-23.1,23.4-23.1s0,7.8-1.5,11.4
							s-4.6,7.8-18.7,17.5c-14.1,9.7-24.3,14.6-33.8,16.4l-7.5-1"/>
					</g>
					<path id="XMLID_151_" class="st62" d="M199.8,329.5c19.5-12.7,23.4-23.1,23.4-23.1s0,7.8-1.5,11.4s-4.6,7.8-18.7,17.5
						c-14.1,9.7-24.3,14.6-33.8,16.4l-7.5-1l-0.6-11.3C171.6,348.9,182.5,340.7,199.8,329.5z"/>
					<g id="XMLID_149_">
						<path id="XMLID_150_" class="st50" d="M85.2,405.1l-5.4,12.3c0,0.1-0.1,0.2-0.1,0.3c0,0.1,0,0.1,0,0.2c0,0.3,0.3,0.6,0.7,0.8
							c0.8,0.5,2.1,0.6,2.9,0.1c0.3-0.2,0.5-0.4,0.6-0.6l0,0V418l5-11.6L85.2,405.1z"/>
					</g>
					<g id="XMLID_147_">
						<path id="XMLID_148_" class="st50" d="M219.9,405.6l4.6,12.1c0,0.1,0,0.2,0,0.3c0,0.1,0,0.1,0,0.2c0,0.2-0.4,0.6-0.7,0.8
							c-0.8,0.4-2,0.4-2.8,0c-0.3-0.2-0.5-0.4-0.5-0.6l0,0v-0.2l-4.2-11.3L219.9,405.6z"/>
					</g>
					<g id="XMLID_145_">
						<path id="XMLID_146_" class="st50" d="M150.4,449.5v10c0,0.3,0.2,0.6,0.6,0.8c0.8,0.5,2.1,0.5,2.9,0c0.4-0.2,0.6-0.5,0.6-0.8
							v-10C153.1,448.8,151.7,448.8,150.4,449.5z"/>
					</g>
				</g>
				<g>
					<g>
						<g id="XMLID_125_">
							<g id="XMLID_128_">
								<path id="XMLID_143_" class="st33" d="M110.6,264.1c4.1,4.8,41.8-6,51.8-7.4c16.1-2.2,29.2-3.8,34.7-2.1
									c5.5,1.7,7.8,4.5,9.5,11.1c2,7.7,3,11.7,3,11.7s-26.8,10.3-47.9,12.7C140.6,292.6,110.6,264.1,110.6,264.1z"/>
							</g>
							<g id="XMLID_126_">
								<path id="XMLID_127_" class="st43" d="M103.6,271.2c-4.2,15.9-7.9,34.4,1.7,44.6c6.5,6.8,39.2,24.6,60.4,17.6
									c20.8-6.9,63.9-38.9,68.2-42.1c4.3-3.2,8.3-5.4,7.8-6.8c-5.8-19.3-14.3-20.8-30-17.3c-19.2,4.2-61.5,21.5-61.5,21.5
									L103.6,271.2z"/>
							</g>
						</g>
					</g>
					<g>
						<g id="XMLID_122_">
							<g id="XMLID_123_">
								<polygon id="XMLID_124_" class="st63" points="199.2,168.8 184.7,185.2 161.2,174.1 177.6,151.4 								"/>
							</g>
						</g>
						<g id="XMLID_117_">
							<g id="XMLID_120_">
								<path id="XMLID_121_" class="st64" d="M217.2,137.6c0,0,5.9,8.6,5.3,9.5c-0.6,0.9-4.8,1.7-4.8,1.7L217.2,137.6z"/>
							</g>
							<circle class="st65" cx="217.2" cy="136.1" r="6.5"/>
							<g id="XMLID_118_">
								<path id="XMLID_119_" class="st63" d="M200.7,113.8c11.7,2.2,15.2,7.2,16.7,25.7c1.6,19.3-0.2,25.4-2.7,28
									c-1.7,1.8-11.2,2.3-16,1.1c-6-1.5-19.7-6-26.3-15.6c-7.7-11.2-10.1-26.7-2.2-33.2C181.2,110.7,195.9,112.9,200.7,113.8z"/>
							</g>
							<path class="st63" d="M199.2,168.8c5,1.1,12.7,0.4,14.9-0.9c-0.2,0.1-3.8,1-8.5-0.3c-4.8-1.3-7.7-3.4-7.7-3.4L199.2,168.8z"
								/>
						</g>
						<g id="XMLID_110_">
							<g id="XMLID_114_">
								<g id="XMLID_115_">
									<path id="XMLID_116_" class="st66" d="M219.5,121.4L219.5,121.4c-3.3,2.3-7.3,3.2-11.2,3.8c0.3,3.1-0.7,6.2-1.6,9.2
										c-0.7,2.1-3.1,8.6-5.7,5c-1.9-2.6-3.6-4.9-7.3-4.3c-6,1-6.7,8.8-2.8,13.4c3.9,4.6,7.4,2.7,7.4,2.7s0.6,8.3-3.8,14.2
										c0,0-6.5,4-15.7,1c-5.8-1.9-14.2-9.2-17.2-14.9c-8.5-15.7-8.5-30.7,1.8-35.4c1-7.5,6.8-11,13.5-12.7
										c9.3-2.4,18.9,3.5,27.9-0.4c1.9-0.8,3.6-2,5.6-2.7c1.1-0.4,2.4-0.6,3.3,0c0.8,0.5,1.2,1.6,1.4,2.6c0.4,1.8,0.6,3.8-0.4,5.4
										c1.4-0.7,2.7-1.3,4.2-1.6c1.5-0.2,3.1,0,4.3,1c1.1,0.9,1.6,2.3,1.7,3.7C225.2,115.3,222.8,119.1,219.5,121.4z"/>
								</g>
							</g>
							<g id="XMLID_111_">
								<g id="XMLID_112_">
									<path id="XMLID_113_" class="st66" d="M163.2,118.6l-7.1-3.9c1.1-1.9,3.5-2.6,5.5-1.6C163.6,114.2,164.3,116.7,163.2,118.6
										z"/>
								</g>
							</g>
						</g>
						<line class="st67" x1="200.9" y1="139.4" x2="223.5" y2="135.2"/>
					</g>
					<path class="st63" d="M248.2,178.4c-0.6-1-2-1.2-3.1-1.6c-2.1-0.7-3.7-2.4-5.7-3.3c-2.2-1-4.8-1.1-7.2-0.5
						c-0.8,0.2-1.6,0.5-2.4,0.8c-1.5,0.6-2.9,1.4-4.3,2.2c-5.7,3.4-10,11-15.7,14.6c-2.1,1.3-4.1,2.5-6,3.7l13.4,12
						c2.8-2.3,5.4-4.3,6.6-5c3.3-2,6.6-2,10.4-2.6c2.6-0.4,5.1-1.1,7.6-1.9c0.9-0.3,1.9-0.6,2.2-1.5c0.5-1.1-0.4-2.3-1.4-2.8
						c-1.2-0.5-2.7-0.3-3.9-0.5c-1-0.2-3.6,0.4-4.1-0.6c-0.3-0.5,0.1-1.1,0.4-1.6c2.3-2.9,5.3-6,9-6.9c1.2-0.3,2.4-0.5,3.3-1.3
						C248.3,180.8,248.8,179.4,248.2,178.4z"/>
					<path class="st36" d="M167.8,165c-14.3-7.8-27.3-2.8-32,7.2c-4.2,9.1-13.1,44.1-13.1,44.1C127,224.3,167.8,165,167.8,165z"/>
					<g>
						<path class="st44" d="M165.7,167.8l2.1-2.8c-16.1-7.7-30.5,2.4-43.3,22.2c-13.7,21.3-20.9,51.9-21,84.2
							c0,0,2.7,14.5,21.1,21.8c19.5,7.7,46.6,4.4,55-15.7c0,0,0.2-20.1,6.3-30.1c4-6.4,13.2-20.7,20.1-30.9
							c6-8.9,10.6-29.2-1.9-36.6c-3.7-2.2-5.2-2.8-10.2-5.2C182.7,178.4,164.2,172.3,165.7,167.8z"/>
						<path class="st68" d="M211.3,203.5c0.8-3.9,1.1-8,0.5-11.7l0,0c-2.9,6.8-7,13.2-12.2,18.6c-6.6,6.9-14.7,12.3-20.7,19.6
							c-6.4,7.8-11.1,17.1-16.5,25.6c-2.2,3.4-5.1,10-9.1,10.2c-4.9,0.3-9.6-5.7-12.3-9.8c-4.3-6.6-7.9-14.8-13.2-20.6
							c-4.6-5-11.8-11.5-18.1-8.6l0,0c-0.5,1.7-0.9,3.4-1.3,5.1c-0.4,1.7-0.8,3.5-1.2,5.2c0,0.1,0,0.1,0,0.2c-0.4,1.8-0.7,3.5-1,5.3
							c0,0.1,0,0.2,0,0.3c-0.3,1.7-0.6,3.5-0.8,5.3c-1,7.6-1.6,15.3-1.6,23.1c0,0,2.7,14.5,21.1,21.8c19.5,7.7,46.6,4.4,55-15.7
							c0,0,0.2-20.1,6.3-30.1c0.6-1,1.4-2.2,2.2-3.5l0,0c0-0.1,0.1-0.2,0.1-0.2c0.7-1.1,1.5-2.3,2.3-3.6c0-0.1,0.1-0.2,0.1-0.2
							s0-0.1,0.1-0.1c1.7-2.7,3.7-5.8,5.7-8.9c0.3-0.5,0.6-0.9,0.9-1.4c2-3,4-6,5.9-8.9l0,0c0.6-1,1.3-1.9,1.9-2.8
							c0.3-0.4,0.5-0.8,0.8-1.2l0,0c0.2-0.3,0.4-0.7,0.6-1c0.1-0.1,0.1-0.2,0.2-0.3c0.2-0.3,0.3-0.5,0.5-0.8
							c0.1-0.1,0.1-0.2,0.2-0.4c0.2-0.3,0.3-0.6,0.5-1c0-0.1,0.1-0.2,0.1-0.2c0.2-0.4,0.4-0.9,0.6-1.3c0,0,0,0,0-0.1v-0.1
							c0.2-0.4,0.3-0.8,0.5-1.2c0-0.1,0.1-0.2,0.1-0.3c0.2-0.4,0.3-0.8,0.4-1.2v-0.1v-0.1c0.3-0.8,0.5-1.5,0.7-2.3l0,0
							C210.9,205.2,211.1,204.4,211.3,203.5C211.3,203.6,211.3,203.6,211.3,203.5L211.3,203.5z"/>
					</g>
					<g>
						<path class="st63" d="M286,223.1c-1,1.2-2.2,2.4-3.3,3.5c-4.9,4.5-10.7,6.6-17.4,11c-5.4,3.5-13.8,8.6-20.8,13
							c-7.9,4.9-17.4,8.9-22.6,10.5c-6.5,1.9-10.2,2-14.1-8.5c-1.9-5.1-3.4-10.4-5-15.6c-2.4-7.8-4.8-15.6-7.2-23.4
							c0,0-8.7-21.4,10.8-32.2c8.5,4.8,11.7,6.8,14.3,16.9c3.2,12.1,8.3,36.1,8.3,36.1c6.9-2.4,13.6-5.3,20.1-8.6
							c2.5-1.2,5.5-2.1,7.3-4.3c1.2-1.5,2.2-3.1,3.1-4.8c0.8-1.5,1.4-3.1,2.3-4.5c1.7-2.6,4.1-4.9,6.4-7c0.4-0.4,0.9-0.9,1.5-0.9
							s1.2,0.4,1.6,1c0.7,1.2,0.1,2.5-0.3,3.7c-0.4,1.5-0.8,2.9-1.3,4.4c5-2.9,9.2-6.8,12.4-11.6c0.3-0.4,0.6-0.9,1-1.2
							c0.4-0.4,0.9-0.6,1.4-0.5c1.3,0.2,2.6,2.3,2.7,3.5s-0.2,2.5,0.1,3.7c0.3,1.1,1.1,2.1,1.4,3.2c0.3,1.1,0.6,2.4,0.7,3.5
							c0.3,2.6-0.7,5.1-2,7.3C287.1,221.8,286.6,222.4,286,223.1z"/>
						<path class="st36" d="M205.2,180.5c7.4,3,12.7,6.4,16.1,17.7c3.4,11.4,7,29.4,7,29.4s0.1,3.8-8.9,9.1S202,239,202,239
							l-6.8-21.8C195.2,217.2,183.2,188,205.2,180.5z"/>
					</g>
				</g>
				<g id="XMLID_105_">
					<path id="XMLID_109_" class="st50" d="M161.8,350.7c-5.9-0.3-10.6-4.7-24.7-10.6C111,329.2,91.4,320.5,84,306.8
						c-7.5-13.7-12.7-53.1-10.9-70.2c0.2-2.3,0.7-4.1,1.3-5.7l-1.8-0.3l4.8-4l0,0c4.9-4,12.8-0.4,18.8,2.8c17.1,9.3,30.5,18.3,41,51
						c7.9,24.5,13.2,46.9,24.2,58.9"/>
					<path id="XMLID_108_" class="st69" d="M74.3,231l-1.8-0.3l4.8-4l0,0c4.9-4,12.8-0.4,18.8,2.8c17.1,9.3,30.5,18.3,41,51
						c7.9,24.5,13.2,46.9,24.2,58.9l0.6,11.3c-5.9-0.3-10.6-4.7-24.7-10.6c-26.1-10.9-45.7-19.6-53.1-33.3
						c-7.5-13.7-12.7-53.1-10.9-70.2C73.2,234.4,73.7,232.5,74.3,231z"/>
					<g id="XMLID_106_">
						<path id="XMLID_107_" class="st36" d="M91,233.7c17.1,9.3,30.5,18.3,41,51c10.6,32.6,16.3,61.5,37.2,67.1
							c0,0-9.4,3.7-38.3-8.5c-9.2-3.9-20.3-11-27.6-15.1c-14.3-8-23-14.6-24.4-17.1C71.3,297.5,66.2,258,68,240.9
							C69.9,223.8,82.5,229.1,91,233.7z"/>
					</g>
				</g>
			</g>
		</g>
		<g id="Speech_Bubble">
			<g id="Speech_Bubble_7_">
				<g id="XMLID_3721_">
					<path id="XMLID_3751_" class="st44" d="M187.1,89l-4.7-8.9l3.8-11v-6.7l-11.6,6.7v6.7l5,8.7c0.1,0.1,0.2,0.2,0.3,0.3l0,0
						L187.1,89z"/>
					<path id="XMLID_3749_" class="st70" d="M187.1,89l-4.7-8.9l3.8-11v-6.7l-11.6,6.7v6.7l5,8.7c0.1,0.1,0.2,0.2,0.3,0.3l0,0
						L187.1,89z"/>
					<path id="XMLID_3747_" class="st36" d="M214.9,9.1c0-2.2-1.6-4.9-3.5-6l-2.8-1.6c-1.9-1.1-5-1.1-7,0L158,26.6
						c-1.9,1.1-3.5,3.8-3.5,6v47.9c0,2.2,1.6,4.9,3.5,6l2.8,1.6c1.9,1.1,5,1.1,7,0l14-8.1l5,8.6c0.3,0.6,1.1,0.5,1.3-0.1l5.3-15.2
						l18-10.3c1.9-1.1,3.5-3.8,3.5-6V9.1z"/>
					<path id="XMLID_3727_" class="st70" d="M154.6,80.5c0,2.2,1.6,4.9,3.5,6l2.8,1.6c1.7,1,4.4,1.1,6.4,0.3
						c-1.6,0.6-2.9-0.3-2.9-2.3V38.2c0-1.1,0.4-2.3,1-3.4l-9.8-5.7c-0.6,1.1-1,2.3-1,3.4V80.5L154.6,80.5z"/>
					<path id="XMLID_3723_" class="st42" d="M214.7,8.1c-0.4-1.5-1.8-2-3.4-1l-43.5,25.2c-1,0.6-1.8,1.5-2.5,2.6l-9.8-5.7
						c0.6-1.1,1.5-2,2.5-2.6l43.5-25.2c1.9-1.1,5.1-1.1,7,0l2.8,1.6C213,4,214.4,6.1,214.7,8.1z"/>
				</g>
				<g id="_x3C__x2F__x3E__2_">
					<path class="st5" d="M170.8,57.1c0-0.4,0.1-0.7,0.2-1c0.1-0.3,0.3-0.6,0.5-0.9l9.5-15.3c0.1-0.1,0.1-0.1,0.2-0.2l0.1-0.1
						c0.1-0.1,0.3-0.1,0.4,0c0.1,0.1,0.1,0.2,0.1,0.5V46c0,0.5-0.1,0.9-0.3,1.2s-0.3,0.6-0.5,0.8l-4.9,7.4l4.9,2.2
						c0.1,0,0.3,0.1,0.5,0.2c0.2,0.1,0.3,0.4,0.3,0.9V63c0,0.2,0,0.4-0.1,0.6c-0.1,0.2-0.2,0.3-0.4,0.4h-0.1c0,0-0.1,0-0.2,0
						l-9.5-4.4c-0.2-0.1-0.4-0.2-0.5-0.3s-0.2-0.4-0.2-0.8V57.1z"/>
					<path class="st5" d="M191.4,33.4c0.1-0.3,0.2-0.6,0.4-1c0.2-0.3,0.4-0.6,0.7-0.7l3.2-1.8c0.1-0.1,0.3-0.1,0.4,0
						c0.1,0.1,0.2,0.3,0.2,0.5c0,0.1,0,0.2,0,0.4l-8,34.1c-0.1,0.3-0.2,0.6-0.3,0.9c-0.2,0.3-0.4,0.6-0.7,0.8l-3.1,1.8
						c-0.1,0.1-0.3,0.1-0.4,0c-0.1-0.1-0.2-0.3-0.2-0.5c0-0.1,0-0.2,0-0.4L191.4,33.4z"/>
					<path class="st5" d="M208.8,39c0,0.4-0.1,0.7-0.2,1c-0.1,0.3-0.3,0.6-0.5,0.9l-9.5,15.3c-0.1,0.1-0.1,0.1-0.2,0.2l-0.1,0.1
						c-0.1,0.1-0.3,0.1-0.4,0c-0.1-0.1-0.1-0.2-0.1-0.5v-5.9c0-0.5,0.1-0.9,0.3-1.2s0.3-0.6,0.5-0.8l4.1-6.4l-4.1-1.6
						c-0.1,0-0.3-0.1-0.5-0.2c-0.2-0.1-0.3-0.4-0.3-0.9v-6c0-0.2,0-0.4,0.1-0.6c0.1-0.2,0.2-0.3,0.4-0.4h0.1c0,0,0.1,0,0.2,0
						l9.5,4.4c0.2,0.1,0.4,0.2,0.5,0.3s0.2,0.4,0.2,0.8V39z"/>
				</g>
			</g>
		</g>
	</g>
</g>
</svg>
