<?xml version="1.0" encoding="utf-8"?>
<!-- Generator: Adobe Illustrator 27.5.0, SVG Export Plug-In . SVG Version: 6.00 Build 0)  -->
<svg version="1.1" id="Layer_1" xmlns="http://www.w3.org/2000/svg" xmlns:xlink="http://www.w3.org/1999/xlink" x="0px" y="0px"
	 viewBox="0 0 882.3 779" style="enable-background:new 0 0 882.3 779;" xml:space="preserve">
<style type="text/css">
	.st0{opacity:0.9;}
	.st1{fill:#E4EDDA;}
	.st2{fill:#84AC64;}
	.st3{fill:#E0E0E0;}
	.st4{fill:#CADDB9;}
	.st5{fill:#53753B;}
	.st6{fill:#F2F7EE;}
	.st7{fill:#F5F5F5;}
	.st8{fill:#F0F0F0;}
	.st9{fill:#263238;}
	.st10{opacity:0.7;fill:#53753B;enable-background:new    ;}
	.st11{fill:#407BFF;}
	.st12{opacity:0.4;fill:#FFFFFF;enable-background:new    ;}
	.st13{opacity:0.5;enable-background:new    ;}
	.st14{fill:#FFFFFF;}
	.st15{opacity:0.1;fill:#FFFFFF;enable-background:new    ;}
	.st16{fill:#A8C78F;}
	.st17{opacity:0.2;enable-background:new    ;}
	.st18{opacity:0.1;enable-background:new    ;}
	.st19{opacity:0.2;}
	.st20{opacity:0.1;}
	.st21{opacity:0.1;fill:#A8C78F;enable-background:new    ;}
	.st22{opacity:0.4;enable-background:new    ;}
	.st23{fill:#FAB27B;}
	.st24{fill:#364A2A;}
	.st25{fill:#405B30;}
	.st26{opacity:0.3;enable-background:new    ;}
	.st27{opacity:0.5;fill:#FFFFFF;enable-background:new    ;}
	.st28{fill:#ED893E;}
	.st29{opacity:0.7;fill:#84AC64;enable-background:new    ;}
</style>
<g id="Layer_1_00000062177886049999139060000006574262510425269921_">
	<g id="Layer_2_00000147938022623589160650000013152557481870335665_">
		<g id="Background_Simple">
			<g>
				<g class="st0">
					<path class="st1" d="M177.4,146.2C127,163.6,86.3,204.5,65.2,253.4c-21.1,49-23.1,105-9.6,156.5c11.2,43,34.7,84.9,73.4,106.7
						c38.1,21.4,84.6,20,128,15.5s88.2-11.6,130.3,0.1c64.4,18,110.3,76.6,172.7,100.7c61,23.5,133.4,10,185.3-29.9
						c51.8-39.8,83.2-103.4,88.9-168.6c5.7-65.1-13-131.3-47.1-187c-36.6-60.1-92.9-111-161.1-128.1
						C332.5,45.8,177.4,146.2,177.4,146.2z"/>
				</g>
			</g>
		</g>
		<g>
			<g id="Background_Complete">
				<g>
					<g>
						<rect x="62.7" y="113.4" class="st2" width="3.6" height="283.6"/>
						<rect x="289.1" y="113.4" class="st3" width="3.6" height="283.6"/>
					</g>
					<polygon class="st4" points="307,131.2 48.5,131.2 43,118.5 312.5,118.5 					"/>
					<polygon class="st4" points="307,148.7 48.5,148.7 43,136 312.5,136 					"/>
					<polygon class="st4" points="307,166.2 48.5,166.2 43,153.5 312.5,153.5 					"/>
					<polygon class="st4" points="307,183.7 48.5,183.7 43,170.9 312.5,170.9 					"/>
					<polygon class="st4" points="307,201.2 48.5,201.2 43,188.4 312.5,188.4 					"/>
					<polygon class="st4" points="307,218.7 48.5,218.7 43,205.9 312.5,205.9 					"/>
					<polygon class="st4" points="307,236.1 48.5,236.1 43,223.4 312.5,223.4 					"/>
					<polygon class="st4" points="307,253.5 48.5,253.5 43,240.9 312.5,240.9 					"/>
					<polygon class="st4" points="307,271 48.5,271 43,258.3 312.5,258.3 					"/>
					<polygon class="st4" points="307,288.5 48.5,288.5 43,275.7 312.5,275.7 					"/>
					<polygon class="st4" points="307,306 48.5,306 43,293.2 312.5,293.2 					"/>
					<polygon class="st4" points="307,323.4 48.5,323.4 43,310.7 312.5,310.7 					"/>
					<polygon class="st4" points="307,340.9 48.5,340.9 43,328.2 312.5,328.2 					"/>
					<polygon class="st4" points="307,358.4 48.5,358.4 43,345.7 312.5,345.7 					"/>
					<polygon class="st4" points="307,375.9 48.5,375.9 43,363.2 312.5,363.2 					"/>
					<polygon class="st4" points="307,393.4 48.5,393.4 43,380.7 312.5,380.7 					"/>
					<rect x="43" y="393.4" class="st2" width="269.5" height="7.2"/>
					<rect x="33.6" y="102.5" class="st2" width="288.3" height="17"/>
					<path class="st2" d="M36.6,273.4L36.6,273.4c-1.6,0-2.9-1.4-2.9-2.9v-99c0-1.6,1.4-2.9,2.9-2.9l0,0c1.6,0,2.9,1.4,2.9,2.9v99
						C39.5,272.1,38.2,273.4,36.6,273.4z"/>
					<rect x="35.5" y="116.1" class="st2" width="2.1" height="58.8"/>
				</g>
				<g>
					<g>
						<rect x="594.4" y="113.4" class="st3" width="3.6" height="283.6"/>
						<rect x="820.8" y="113.4" class="st2" width="3.6" height="283.6"/>
					</g>
					<polygon class="st4" points="838.7,131.2 580.2,131.2 574.7,118.5 844.2,118.5 					"/>
					<polygon class="st4" points="838.7,148.7 580.2,148.7 574.7,136 844.2,136 					"/>
					<polygon class="st4" points="838.7,166.2 580.2,166.2 574.7,153.5 844.2,153.5 					"/>
					<polygon class="st4" points="838.7,183.7 580.2,183.7 574.7,170.9 844.2,170.9 					"/>
					<polygon class="st4" points="838.7,201.2 580.2,201.2 574.7,188.4 844.2,188.4 					"/>
					<polygon class="st4" points="838.7,218.7 580.2,218.7 574.7,205.9 844.2,205.9 					"/>
					<polygon class="st4" points="838.7,236.1 580.2,236.1 574.7,223.4 844.2,223.4 					"/>
					<polygon class="st4" points="838.7,253.5 580.2,253.5 574.7,240.9 844.2,240.9 					"/>
					<polygon class="st4" points="838.7,271 580.2,271 574.7,258.3 844.2,258.3 					"/>
					<polygon class="st4" points="838.7,288.5 580.2,288.5 574.7,275.7 844.2,275.7 					"/>
					<polygon class="st4" points="838.7,306 580.2,306 574.7,293.2 844.2,293.2 					"/>
					<polygon class="st4" points="838.7,323.4 580.2,323.4 574.7,310.7 844.2,310.7 					"/>
					<polygon class="st4" points="838.7,340.9 580.2,340.9 574.7,328.2 844.2,328.2 					"/>
					<polygon class="st4" points="838.7,358.4 580.2,358.4 574.7,345.7 844.2,345.7 					"/>
					<polygon class="st4" points="838.7,375.9 580.2,375.9 574.7,363.2 844.2,363.2 					"/>
					<polygon class="st4" points="838.7,393.4 580.2,393.4 574.7,380.7 844.2,380.7 					"/>
					<rect x="574.7" y="393.4" class="st2" width="269.5" height="7.2"/>
					<rect x="565.3" y="102.5" class="st2" width="288.3" height="17"/>
					<path class="st3" d="M568.3,273.4L568.3,273.4c-1.6,0-2.9-1.4-2.9-2.9v-99c0-1.6,1.4-2.9,2.9-2.9l0,0c1.6,0,2.9,1.4,2.9,2.9v99
						C571.2,272.1,569.9,273.4,568.3,273.4z"/>
					<rect x="567.2" y="116.1" class="st3" width="2.1" height="58.8"/>
				</g>
				<g>
					<rect x="133.3" y="72.5" class="st5" width="615.6" height="348.2"/>
					<path class="st5" d="M752.1,429.4h-622c-2,0-3.6-1.6-3.6-3.6v-7.4c0-2,1.6-3.6,3.6-3.6h622c2,0,3.6,1.6,3.6,3.6v7.4
						C755.8,427.7,754.1,429.4,752.1,429.4z"/>
					<rect x="147.4" y="83.1" class="st1" width="587.4" height="334.9"/>
					<path class="st5" d="M473.5,480.3c-9.6-10.6-19.4-21.4-29-32c0-6.4,0-12.7,0-19.1c0-4.6-6.6-4.7-6.6,0c0,6.4,0,12.7,0,19.1
						c-9.6,10.6-19.4,21.4-29,32c-3,3.4,1.6,8.5,4.6,5.1c8.1-9,16.2-17.9,24.4-26.9c0,8,0,16,0,24c0,4.6,6.6,4.7,6.6,0
						c0-8,0-16,0-24c8.1,9,16.2,17.9,24.4,26.9C471.8,488.8,476.5,483.7,473.5,480.3z"/>
					<path class="st5" d="M762.9,88.5H119.3c-5,0-9.1-4.1-9.1-9.1V65.7c0-5,4.1-9.1,9.1-9.1h643.6c5,0,9.1,4.1,9.1,9.1v13.7
						C772,84.5,767.9,88.5,762.9,88.5z"/>
				</g>
				<g>
					<g>
						<rect x="41.7" y="487.7" class="st1" width="260.2" height="89.8"/>
						<rect x="41.7" y="577.5" class="st1" width="260.2" height="89.8"/>
						<g>
							<polygon class="st6" points="140.6,577.5 173,487.7 123.2,487.7 90.8,577.5 							"/>
							<polygon class="st6" points="197.1,487.7 186.1,487.7 153.8,577.5 164.7,577.5 							"/>
						</g>
						<g>
							<polygon class="st6" points="108.2,667.3 140.6,577.5 90.8,577.5 58.5,667.3 							"/>
							<polygon class="st6" points="164.7,577.5 153.8,577.5 121.4,667.3 132.4,667.3 							"/>
						</g>
						<rect x="41.7" y="492.4" class="st5" width="260.2" height="9.1"/>
						<rect x="41.7" y="581.5" class="st5" width="260.2" height="9.1"/>
						<g>
							<path class="st3" d="M178.5,544.1c2.1,0,3.9-1.7,3.9-3.9c0-2.1-1.7-3.9-3.9-3.9c-1.1,0-12.2,0-13.4,0c-2.1,0-3.9,1.7-3.9,3.9
								c0,2.1,1.7,3.9,3.9,3.9C166.4,544.1,177.4,544.1,178.5,544.1z"/>
							<path class="st7" d="M178.5,542.8c2.1,0,3.9-1.7,3.9-3.9c0-2.1-1.7-3.9-3.9-3.9c-1.1,0-12.2,0-13.4,0c-2.1,0-3.9,1.7-3.9,3.9
								c0,2.1,1.7,3.9,3.9,3.9C166.4,542.8,177.4,542.8,178.5,542.8z"/>
						</g>
						<g>
							<path class="st3" d="M178.5,627.1c2.1,0,3.9-1.7,3.9-3.9s-1.7-3.9-3.9-3.9c-1.1,0-12.2,0-13.4,0c-2.1,0-3.9,1.7-3.9,3.9
								s1.7,3.9,3.9,3.9C166.4,627.1,177.4,627.1,178.5,627.1z"/>
							<path class="st7" d="M178.5,625.7c2.1,0,3.9-1.7,3.9-3.9c0-2.1-1.7-3.9-3.9-3.9c-1.1,0-12.2,0-13.4,0c-2.1,0-3.9,1.7-3.9,3.9
								c0,2.1,1.7,3.9,3.9,3.9C166.4,625.7,177.4,625.7,178.5,625.7z"/>
						</g>
						<path class="st4" d="M37.2,483.7v187.6h4.5h4.5h251.2h4.5h4.5V483.7H37.2z M297.4,662.2H46.2v-79.9h251.2V662.2z M297.4,573.1
							H46.2v-79.9h251.2V573.1z"/>
						<g>
							<rect x="311" y="487.7" class="st1" width="260.2" height="89.8"/>
							<rect x="311" y="577.5" class="st1" width="260.2" height="89.8"/>
							<g>
								<polygon class="st6" points="512.7,577.5 545.2,487.7 495.4,487.7 462.9,577.5 								"/>
								<polygon class="st6" points="569.3,487.7 558.3,487.7 526,577.5 536.8,577.5 								"/>
							</g>
							<g>
								<polygon class="st6" points="480.4,667.3 512.7,577.5 462.9,577.5 430.5,667.3 								"/>
								<polygon class="st8" points="536.8,577.5 526,577.5 493.6,667.3 504.5,667.3 								"/>
							</g>
							<rect x="311" y="492.4" class="st5" width="260.2" height="9.1"/>
							<rect x="311" y="581.5" class="st5" width="260.2" height="9.1"/>
							<g>
								<path class="st3" d="M447.8,544.1c2.1,0,3.9-1.7,3.9-3.9c0-2.1-1.7-3.9-3.9-3.9c-1.1,0-12.2,0-13.4,0
									c-2.1,0-3.9,1.7-3.9,3.9c0,2.1,1.7,3.9,3.9,3.9C435.7,544.1,446.6,544.1,447.8,544.1z"/>
								<path class="st7" d="M447.8,542.8c2.1,0,3.9-1.7,3.9-3.9c0-2.1-1.7-3.9-3.9-3.9c-1.1,0-12.2,0-13.4,0
									c-2.1,0-3.9,1.7-3.9,3.9c0,2.1,1.7,3.9,3.9,3.9C435.7,542.8,446.6,542.8,447.8,542.8z"/>
							</g>
							<g>
								<path class="st3" d="M447.8,627.1c2.1,0,3.9-1.7,3.9-3.9s-1.7-3.9-3.9-3.9c-1.1,0-12.2,0-13.4,0c-2.1,0-3.9,1.7-3.9,3.9
									s1.7,3.9,3.9,3.9C435.7,627.1,446.6,627.1,447.8,627.1z"/>
								<path class="st7" d="M447.8,625.7c2.1,0,3.9-1.7,3.9-3.9c0-2.1-1.7-3.9-3.9-3.9c-1.1,0-12.2,0-13.4,0
									c-2.1,0-3.9,1.7-3.9,3.9c0,2.1,1.7,3.9,3.9,3.9C435.7,625.7,446.6,625.7,447.8,625.7z"/>
							</g>
							<path class="st4" d="M306.5,483.7v187.6h4.5h4.5h251.2h4.5h4.5V483.7H306.5z M566.7,662.2H315.5v-79.9h251.2V662.2z
								 M566.7,573.1H315.5v-79.9h251.2V573.1z"/>
						</g>
						<g>
							<rect x="580.3" y="487.7" class="st1" width="260.2" height="89.8"/>
							<rect x="580.3" y="577.5" class="st1" width="260.2" height="89.8"/>
							<g>
								<polygon class="st8" points="745,577.5 777.5,487.7 727.7,487.7 695.2,577.5 								"/>
								<polygon class="st6" points="801.6,487.7 790.6,487.7 758.3,577.5 769.1,577.5 								"/>
							</g>
							<g>
								<polygon class="st6" points="712.7,667.3 745,577.5 695.2,577.5 662.8,667.3 								"/>
								<polygon class="st6" points="769.1,577.5 758.3,577.5 725.9,667.3 736.8,667.3 								"/>
							</g>
							<rect x="580.3" y="492.4" class="st5" width="260.2" height="9.1"/>
							<rect x="580.3" y="581.5" class="st5" width="260.2" height="9.1"/>
							<g>
								<path class="st3" d="M717.1,544.1c2.1,0,3.9-1.7,3.9-3.9c0-2.1-1.7-3.9-3.9-3.9c-1.1,0-12.2,0-13.4,0
									c-2.1,0-3.9,1.7-3.9,3.9c0,2.1,1.7,3.9,3.9,3.9C704.9,544.1,715.9,544.1,717.1,544.1z"/>
								<path class="st7" d="M717.1,542.8c2.1,0,3.9-1.7,3.9-3.9c0-2.1-1.7-3.9-3.9-3.9c-1.1,0-12.2,0-13.4,0
									c-2.1,0-3.9,1.7-3.9,3.9c0,2.1,1.7,3.9,3.9,3.9C704.9,542.8,715.9,542.8,717.1,542.8z"/>
							</g>
							<g>
								<path class="st3" d="M717.1,627.1c2.1,0,3.9-1.7,3.9-3.9s-1.7-3.9-3.9-3.9c-1.1,0-12.2,0-13.4,0c-2.1,0-3.9,1.7-3.9,3.9
									s1.7,3.9,3.9,3.9C704.9,627.1,715.9,627.1,717.1,627.1z"/>
								<path class="st7" d="M717.1,625.7c2.1,0,3.9-1.7,3.9-3.9c0-2.1-1.7-3.9-3.9-3.9c-1.1,0-12.2,0-13.4,0
									c-2.1,0-3.9,1.7-3.9,3.9c0,2.1,1.7,3.9,3.9,3.9C704.9,625.7,715.9,625.7,717.1,625.7z"/>
							</g>
							<path class="st4" d="M575.8,483.7v187.6h4.5h4.5H836h4.5h4.5V483.7H575.8z M836,662.2H585v-79.9h251.2v79.9H836z M836,573.1
								H585v-79.9h251.2v79.9H836z"/>
						</g>
					</g>
					<polygon class="st5" points="819,684.8 63.2,684.8 59.3,671.3 823,671.3 					"/>
				</g>
			</g>
			<g id="Shadow">
				<ellipse id="_x3C_Path_x3E__1_" class="st1" cx="441.1" cy="749.9" rx="427.4" ry="25"/>
			</g>
			<g id="Form">
				<g>
					<g>
						<path class="st9" d="M182.7,369.9H672c13.4,0,23.2-10.9,22-24.1L667.6,45.3c-1.1-13.4-12.9-24.1-26.2-24.1H152.1
							c-13.4,0-23.2,10.9-22,24.1l26.4,300.5C157.6,359,169.4,369.9,182.7,369.9z"/>
						<path class="st10" d="M182.7,369.9H672c13.4,0,23.2-10.9,22-24.1L667.6,45.3c-1.1-13.4-12.9-24.1-26.2-24.1H152.1
							c-13.4,0-23.2,10.9-22,24.1l26.4,300.5C157.6,359,169.4,369.9,182.7,369.9z"/>
						<g>
							<g>
								<g>
									<polygon class="st11" points="183.2,339.2 660.3,339.2 633.9,36.7 156.8,36.7 									"/>
									<path class="st2" d="M189.7,362.8H679c13.4,0,23.2-10.9,22-24.1L674.7,38.1C673.6,24.7,661.8,14,648.5,14H159.3
										c-13.4,0-23.2,10.9-22,24.1l26.4,300.5C164.6,352,176.4,362.8,189.7,362.8z"/>
								</g>
								<g>
									<g>
										<g>
											<polygon class="st12" points="183.2,339.6 660.3,339.6 633.9,37.2 156.8,37.2 											"/>
											<polygon class="st5" points="636.2,64.4 159.1,64.4 156.8,37.2 633.9,37.2 											"/>
											<polygon class="st13" points="636.2,64.4 159.1,64.4 156.8,37.2 633.9,37.2 											"/>
											<g>
												<path class="st14" d="M176.9,48.3l0.2,2.5h4.2l0.1,1.7h-4.2l0.2,3.4h-2.1l-0.7-9.2h7l0.1,1.7
													C181.7,48.3,176.9,48.3,176.9,48.3z"/>
												<path class="st14" d="M182.7,51.3c-0.2-2.7,1.7-4.7,4.6-4.7c2.9,0,5.2,2,5.5,4.7c0.2,2.7-1.7,4.7-4.6,4.7
													C185.4,56,183,54,182.7,51.3z M190.7,51.3c-0.1-1.7-1.5-3-3.1-3s-2.7,1.2-2.6,3c0.1,1.7,1.5,3,3.1,3
													S190.9,53,190.7,51.3z"/>
												<path class="st14" d="M200.8,55.9l-2-2.6h-0.1h-1.9l0.2,2.6h-2l-0.7-9.2h4c2.5,0,4.1,1.2,4.4,3.4
													c0.1,1.4-0.5,2.4-1.6,2.9l2.4,3h-2.7L200.8,55.9L200.8,55.9z M198.1,48.4h-1.7l0.2,3.2h1.7c1.2,0,1.9-0.6,1.9-1.6
													C200.2,48.9,199.5,48.4,198.1,48.4z"/>
												<path class="st14" d="M213.1,55.9l-0.5-5.6l-2.4,4.6h-1l-3.1-4.5l0.5,5.5h-2l-0.7-9.2h1.7l4,5.7l2.9-5.7h1.7l0.9,9.2
													H213.1L213.1,55.9z"/>
											</g>
											<g>
												<path class="st5" d="M190.4,86l0.1,2h3.6l0.1,1.4h-3.6l0.2,2.7h-1.7l-0.6-7.7h5.9l0.1,1.4L190.4,86L190.4,86z"/>
												<path class="st5" d="M195.1,84.5c0-0.5,0.4-1,1-1s1.1,0.4,1.1,0.9c0,0.6-0.4,1-1,1C195.6,85.5,195.1,85.1,195.1,84.5z
													 M195.5,86.4h1.7l0.5,5.9H196L195.5,86.4z"/>
												<path class="st5" d="M202.5,86.3l0.1,1.6c-0.1,0-0.2,0-0.4,0c-1,0-1.5,0.5-1.4,1.6l0.2,2.7h-1.7l-0.5-5.9h1.6l0.1,0.7
													C200.8,86.5,201.5,86.3,202.5,86.3z"/>
												<path class="st5" d="M203.3,91.8l0.5-1.2c0.5,0.4,1.4,0.6,2.1,0.6c0.7,0,1.1-0.2,1-0.5c-0.1-1-3.6,0-3.7-2.4
													c-0.1-1.1,0.9-1.9,2.6-1.9c0.9,0,1.7,0.1,2.4,0.5l-0.5,1.2c-0.6-0.4-1.2-0.5-1.7-0.5c-0.7,0-1.1,0.2-1,0.5
													c0.1,1,3.6,0,3.7,2.4c0.1,1.1-0.9,1.9-2.6,1.9C205,92.4,204,92.1,203.3,91.8z"/>
												<path class="st5" d="M213.7,92c-0.4,0.2-0.9,0.4-1.4,0.4c-1.4,0-2.2-0.7-2.4-2.1l-0.2-2.4h-0.9l-0.1-1.4h0.9l-0.1-1.5
													h1.7l0.1,1.5h1.5l0.1,1.4h-1.5l0.2,2.4c0,0.5,0.4,0.7,0.7,0.7c0.2,0,0.5-0.1,0.6-0.2L213.7,92z"/>
												<path class="st5" d="M224.3,84.5l0.6,7.7h-1.5l-4.2-4.7l0.4,4.7h-1.7l-0.6-7.7h1.5l4.2,4.7l-0.4-4.7H224.3z"/>
												<path class="st5" d="M231.6,88.9l0.2,3.4h-1.6l-0.1-0.7c-0.2,0.5-0.9,0.9-1.7,0.9c-1.4,0-2.2-0.7-2.4-1.7
													c-0.1-1,0.6-1.7,2.4-1.7h1.4c-0.1-0.7-0.5-1.1-1.5-1.1c-0.6,0-1.2,0.2-1.6,0.5l-0.7-1.2c0.6-0.5,1.5-0.7,2.5-0.7
													C230.3,86.3,231.4,87.1,231.6,88.9z M230.1,90.4v-0.6H229c-0.7,0-1,0.2-1,0.7c0,0.4,0.4,0.7,1,0.7
													C229.4,91.3,229.8,90.9,230.1,90.4z"/>
												<path class="st5" d="M243.2,88.9l0.2,3.4h-1.7l-0.2-3.1c-0.1-1-0.5-1.4-1.2-1.4s-1.2,0.5-1.1,1.5l0.2,3h-1.7l-0.2-3.1
													c-0.1-1-0.5-1.4-1.2-1.4s-1.2,0.5-1.1,1.5l0.2,3h-1.7l-0.5-5.9h1.6V87c0.4-0.5,1-0.7,1.7-0.7c0.9,0,1.5,0.4,2,1
													c0.4-0.6,1.1-1,2-1C241.9,86.3,243.1,87,243.2,88.9z"/>
												<path class="st5" d="M250.7,89.8h-4.5c0.2,0.7,0.9,1.2,1.7,1.2c0.6,0,1.1-0.1,1.5-0.6l1,1c-0.5,0.6-1.2,1-2.4,1
													c-2,0-3.5-1.2-3.6-3s1.1-3,2.9-3c1.7,0,3.2,1.1,3.4,3.1C250.7,89.5,250.7,89.6,250.7,89.8z M246.1,88.8h2.9
													c-0.2-0.7-0.7-1.2-1.6-1.2C246.7,87.5,246.1,88,246.1,88.8z"/>
											</g>
											<g>
												<path class="st5" d="M207.8,238.1l0.1,1.4h-6l-0.6-7.7h5.9l0.1,1.4h-4.1l0.1,1.6h3.6l0.1,1.4h-3.6l0.1,1.7L207.8,238.1
													L207.8,238.1z"/>
												<path class="st5" d="M219.1,236.3l0.2,3.4h-1.7l-0.2-3.1c-0.1-1-0.5-1.4-1.2-1.4s-1.2,0.5-1.1,1.5l0.2,3h-1.7l-0.2-3.1
													c-0.1-1-0.5-1.4-1.2-1.4s-1.2,0.5-1.1,1.5l0.2,3h-1.7l-0.5-5.9h1.6v0.6c0.4-0.5,1-0.7,1.7-0.7c0.9,0,1.6,0.4,2,1
													c0.4-0.6,1.1-1,2-1C217.8,233.6,218.8,234.4,219.1,236.3z"/>
												<path class="st5" d="M225.8,236.3l0.2,3.4h-1.6l-0.1-0.7c-0.2,0.5-0.9,0.9-1.7,0.9c-1.4,0-2.2-0.7-2.4-1.7
													s0.6-1.7,2.4-1.7h1.4c-0.1-0.7-0.5-1.1-1.5-1.1c-0.6,0-1.2,0.2-1.6,0.5l-0.7-1.2c0.6-0.5,1.5-0.7,2.5-0.7
													C224.6,233.6,225.7,234.4,225.8,236.3z M224.2,237.8v-0.6h-1.1c-0.7,0-1,0.2-1,0.7c0,0.4,0.4,0.7,1,0.7
													C223.6,238.5,224.1,238.3,224.2,237.8z"/>
												<path class="st5" d="M226.8,231.9c0-0.5,0.4-1,1-1s1.1,0.4,1.1,0.9c0,0.6-0.4,1-1,1
													C227.3,232.9,226.8,232.4,226.8,231.9z M227.2,233.6h1.7l0.5,5.9h-1.7L227.2,233.6z"/>
												<path class="st5" d="M230.3,231.4h1.7l0.7,8.1H231L230.3,231.4z"/>
											</g>
											<g>
												<path class="st5" d="M198,135.3h-3.6l-0.5,1.6H192l2.7-7.7h1.7l4.1,7.7h-1.9L198,135.3z M197.3,134l-1.5-3l-1,3H197.3z"
													/>
												<path class="st5" d="M206.6,128.7l0.7,8.1h-1.6v-0.6c-0.4,0.5-1,0.7-1.7,0.7c-1.6,0-3.1-1.2-3.2-3c-0.1-1.7,1-3,2.7-3
													c0.7,0,1.4,0.2,1.9,0.7l-0.2-2.9H206.6L206.6,128.7z M205.5,134c-0.1-1-0.7-1.6-1.6-1.6c-0.9,0-1.5,0.6-1.4,1.6
													s0.7,1.6,1.6,1.6C204.8,135.6,205.5,135,205.5,134z"/>
												<path class="st5" d="M214.3,128.7l0.7,8.1h-1.6v-0.6c-0.4,0.5-1,0.7-1.7,0.7c-1.6,0-3.1-1.2-3.2-3c-0.1-1.9,1-3,2.7-3
													c0.7,0,1.4,0.2,1.9,0.7l-0.2-2.9H214.3L214.3,128.7z M213.1,134c-0.1-1-0.7-1.6-1.6-1.6c-0.9,0-1.5,0.6-1.4,1.6
													s0.7,1.6,1.6,1.6C212.6,135.6,213.1,135,213.1,134z"/>
												<path class="st5" d="M219.7,131l0.1,1.6c-0.1,0-0.2,0-0.4,0c-1,0-1.5,0.5-1.4,1.6l0.2,2.7h-1.7L216,131h1.6l0.1,0.7
													C218.1,131.2,218.8,131,219.7,131z"/>
												<path class="st5" d="M226.8,134.5h-4.5c0.2,0.7,0.9,1.2,1.7,1.2c0.6,0,1.1-0.2,1.5-0.6l1,1c-0.5,0.6-1.2,1-2.4,1
													c-2,0-3.5-1.2-3.6-3c-0.1-1.7,1.1-3,2.9-3c1.7,0,3.2,1.1,3.4,3.1C226.8,134.1,226.8,134.4,226.8,134.5z M222.2,133.5
													h2.9c-0.2-0.7-0.7-1.2-1.6-1.2C222.7,132.2,222.2,132.7,222.2,133.5z"/>
												<path class="st5" d="M227.6,136.3l0.5-1.2c0.5,0.4,1.4,0.6,2.1,0.6s1.1-0.2,1-0.5c-0.1-1-3.6,0-3.7-2.4
													c-0.1-1.1,0.9-1.9,2.6-1.9c0.9,0,1.7,0.2,2.4,0.5l-0.5,1.2c-0.6-0.4-1.2-0.5-1.7-0.5c-0.7,0-1.1,0.2-1,0.5
													c0.1,1,3.6,0,3.7,2.4c0.1,1.1-0.9,1.9-2.6,1.9C229.2,137.1,228.2,136.7,227.6,136.3z"/>
												<path class="st5" d="M233.4,136.3l0.5-1.2c0.5,0.4,1.4,0.6,2.1,0.6c0.7,0,1.1-0.2,1-0.5c-0.1-1-3.6,0-3.7-2.4
													c-0.1-1.1,0.9-1.9,2.6-1.9c0.9,0,1.7,0.2,2.4,0.5l-0.5,1.2c-0.6-0.4-1.2-0.5-1.7-0.5c-0.7,0-1.1,0.2-1,0.5
													c0.1,1,3.6,0,3.7,2.4c0.1,1.1-0.9,1.9-2.6,1.9C235.1,137.1,233.9,136.7,233.4,136.3z"/>
											</g>
											<g>
												<path class="st5" d="M212.6,283.2c0.1,1.7-1,2.7-3.1,2.7H208l0.1,2.1h-1.7l-0.6-7.7h3.4
													C211,280.5,212.3,281.5,212.6,283.2z M210.7,283.2c-0.1-0.9-0.6-1.4-1.7-1.4h-1.5l0.2,2.6h1.5
													C210.3,284.6,210.8,284.1,210.7,283.2z"/>
												<path class="st5" d="M219.1,284.7l0.2,3.4h-1.6l-0.1-0.7c-0.2,0.5-0.9,0.9-1.7,0.9c-1.4,0-2.2-0.7-2.4-1.7
													c-0.1-1,0.6-1.7,2.4-1.7h1.4c-0.1-0.7-0.5-1.1-1.5-1.1c-0.6,0-1.2,0.2-1.6,0.5l-0.7-1.2c0.6-0.5,1.5-0.7,2.5-0.7
													C217.7,282.1,218.8,283,219.1,284.7z M217.5,286.2v-0.6h-1.1c-0.7,0-1,0.2-1,0.7c0,0.4,0.4,0.7,1,0.7
													C216.8,287.1,217.3,286.9,217.5,286.2z"/>
												<path class="st5" d="M220.2,287.6l0.5-1.2c0.5,0.4,1.4,0.6,2.1,0.6c0.7,0,1.1-0.2,1-0.5c-0.1-1-3.6,0-3.7-2.4
													c-0.1-1.1,0.9-1.9,2.6-1.9c0.9,0,1.7,0.1,2.4,0.5l-0.5,1.2c-0.6-0.4-1.2-0.5-1.7-0.5c-0.7,0-1.1,0.2-1,0.5
													c0.1,1,3.6,0,3.7,2.4c0.1,1.1-0.9,1.9-2.6,1.9C221.8,288.2,220.8,288,220.2,287.6z"/>
												<path class="st5" d="M226.1,287.6l0.5-1.2c0.5,0.4,1.4,0.6,2.1,0.6c0.7,0,1.1-0.2,1-0.5c-0.1-1-3.6,0-3.7-2.4
													c-0.1-1.1,0.9-1.9,2.6-1.9c0.9,0,1.7,0.1,2.4,0.5l-0.5,1.2c-0.6-0.4-1.2-0.5-1.7-0.5c-0.7,0-1.1,0.2-1,0.5
													c0.1,1,3.6,0,3.7,2.4c0.1,1.1-0.9,1.9-2.6,1.9C227.7,288.2,226.7,288,226.1,287.6z"/>
												<path class="st5" d="M241.4,282.2l-1.6,5.9h-1.6l-1.6-3.6l-1,3.6H234l-2.6-5.9h1.6l1.7,4l1.1-4h1.5l1.7,4l1.1-4H241.4z"
													/>
												<path class="st5" d="M241.9,285.2c-0.1-1.7,1.1-3,3-3s3.4,1.2,3.5,3c0.1,1.7-1.1,3-3,3S242.1,287,241.9,285.2z
													 M246.7,285.2c-0.1-1-0.7-1.6-1.6-1.6s-1.5,0.6-1.4,1.6s0.7,1.6,1.6,1.6C246.2,286.9,246.8,286.2,246.7,285.2z"/>
												<path class="st5" d="M253.1,282.1l0.1,1.6c-0.1,0-0.2,0-0.4,0c-1,0-1.5,0.5-1.4,1.6l0.2,2.7h-1.9l-0.5-5.9h1.6l0.1,0.7
													C251.4,282.5,252.1,282.1,253.1,282.1z"/>
												<path class="st5" d="M259.8,280l0.7,8.1h-1.6v-0.6c-0.4,0.5-1,0.7-1.7,0.7c-1.6,0-3.1-1.2-3.2-3c-0.1-1.9,1-3,2.7-3
													c0.7,0,1.4,0.2,1.9,0.7l-0.2-2.9L259.8,280L259.8,280z M258.5,285.2c-0.1-1-0.7-1.6-1.6-1.6s-1.5,0.6-1.4,1.6
													s0.7,1.6,1.6,1.6C258,286.9,258.7,286.2,258.5,285.2z"/>
											</g>
											<g>
												<path class="st2" d="M514.3,318.2h-43.5c-8.2,0-15.5-6.6-16.2-14.9l0,0c-0.7-8.2,5.4-14.9,13.6-14.9h43.5
													c8.2,0,15.5,6.6,16.2,14.9l0,0C528.7,311.5,522.6,318.2,514.3,318.2z"/>
												<g>
													<path class="st14" d="M477.4,306.5l0.5-1.4c0.7,0.5,1.7,0.7,2.6,0.7c1,0,1.5-0.4,1.4-0.9c-0.1-1.5-4.5-0.5-4.7-3.4
														c-0.1-1.2,0.9-2.4,3-2.4c1,0,2,0.2,2.7,0.6l-0.4,1.4c-0.7-0.4-1.5-0.6-2.2-0.6c-1,0-1.4,0.4-1.4,0.9
														c0.1,1.4,4.5,0.5,4.7,3.2c0.1,1.2-0.9,2.4-3.1,2.4C479.4,307.3,478.1,307,477.4,306.5z"/>
													<path class="st14" d="M489.9,303.8l0.2,3.4h-1.6l-0.1-0.7c-0.2,0.5-0.9,0.9-1.7,0.9c-1.4,0-2.2-0.7-2.4-1.7
														c-0.1-1,0.6-1.7,2.4-1.7h1.4c-0.1-0.7-0.5-1.1-1.5-1.1c-0.6,0-1.2,0.2-1.6,0.5l-0.7-1.2c0.6-0.5,1.5-0.7,2.5-0.7
														C488.6,301.2,489.7,302.1,489.9,303.8z M488.4,305.3v-0.6h-1.2c-0.7,0-1,0.2-1,0.7c0,0.4,0.4,0.7,1,0.7
														C487.7,306.2,488.1,305.8,488.4,305.3z"/>
													<path class="st14" d="M497,301.3l-2,5.9h-1.7l-3-5.9h1.7l2,4l1.4-4H497z"/>
													<path class="st14" d="M503.6,304.7h-4.5c0.2,0.7,0.9,1.2,1.7,1.2c0.6,0,1.1-0.1,1.5-0.6l1,1c-0.5,0.6-1.2,1-2.4,1
														c-2,0-3.5-1.2-3.6-3c-0.1-1.7,1.1-3,2.9-3c1.7,0,3.2,1.1,3.4,3.1C503.6,304.5,503.6,304.6,503.6,304.7z M499,303.7h2.9
														c-0.1-0.7-0.7-1.2-1.6-1.2C499.6,302.5,499.1,303,499,303.7z"/>
												</g>
												<path class="st2" d="M597.1,318.2h-43.5c-8.2,0-15.5-6.6-16.2-14.9l0,0c-0.7-8.2,5.4-14.9,13.6-14.9h43.5
													c8.2,0,15.5,6.6,16.2,14.9l0,0C611.4,311.5,605.3,318.2,597.1,318.2z"/>
												<g>
													<path class="st14" d="M548.2,303.3c-0.2-2.4,1.5-4,3.9-4c1.4,0,2.5,0.5,3.2,1.4l-1,1c-0.6-0.6-1.2-0.9-2-0.9
														c-1.5,0-2.4,1-2.2,2.5c0.1,1.5,1.2,2.5,2.7,2.5c0.7,0,1.4-0.2,1.9-0.9l1.2,1c-0.6,0.9-1.7,1.4-3.1,1.4
														C550.3,307.3,548.4,305.7,548.2,303.3z"/>
													<path class="st14" d="M556.1,304.2c-0.1-1.7,1.1-3,3-3s3.4,1.2,3.5,3s-1.1,3-3,3C557.7,307.3,556.2,306.1,556.1,304.2z
														 M560.8,304.2c-0.1-1-0.7-1.6-1.6-1.6c-0.9,0-1.5,0.6-1.4,1.6s0.7,1.6,1.6,1.6S560.9,305.3,560.8,304.2z"/>
													<path class="st14" d="M569.8,303.8l0.2,3.4h-1.7l-0.2-3.1c-0.1-1-0.6-1.4-1.4-1.4c-0.9,0-1.4,0.5-1.2,1.6l0.2,2.9H564
														l-0.5-5.9h1.6v0.7c0.4-0.5,1.1-0.7,1.9-0.7C568.4,301.2,569.5,302,569.8,303.8z"/>
													<path class="st14" d="M575.4,307c-0.4,0.2-0.9,0.4-1.4,0.4c-1.4,0-2.2-0.7-2.4-2.1l-0.2-2.4h-0.9l-0.1-1.4h0.9
														l-0.1-1.5h1.7l0.1,1.5h1.5l0.1,1.4h-1.5l0.2,2.4c0,0.5,0.4,0.7,0.7,0.7c0.2,0,0.5-0.1,0.6-0.2L575.4,307z"/>
													<path class="st14" d="M575.5,299.5c0-0.5,0.4-1,1-1s1.1,0.4,1.1,0.9c0,0.6-0.4,1-1,1
														C576,300.5,575.5,300.1,575.5,299.5z M575.9,301.3h1.7l0.5,5.9h-1.7L575.9,301.3z"/>
													<path class="st14" d="M585.5,303.8l0.2,3.4H584l-0.2-3.1c-0.1-1-0.6-1.4-1.4-1.4c-0.9,0-1.4,0.5-1.2,1.6l0.2,2.9h-1.7
														l-0.5-5.9h1.6v0.7c0.4-0.5,1.1-0.7,1.9-0.7C584.2,301.2,585.3,302,585.5,303.8z"/>
													<path class="st14" d="M592.8,301.3l0.5,5.9h-1.6v-0.7c-0.4,0.5-1,0.7-1.7,0.7c-1.5,0-2.6-0.9-2.7-2.6l-0.2-3.4h1.7
														l0.2,3.1c0.1,1,0.6,1.4,1.4,1.4c0.7,0,1.4-0.5,1.2-1.6l-0.2-2.9L592.8,301.3L592.8,301.3z"/>
													<path class="st14" d="M600.5,304.7H596c0.2,0.7,0.9,1.2,1.7,1.2c0.6,0,1.1-0.1,1.5-0.6l1,1c-0.5,0.6-1.2,1-2.4,1
														c-2,0-3.5-1.2-3.6-3c-0.1-1.7,1.1-3,2.9-3c1.7,0,3.2,1.1,3.4,3.1C600.5,304.5,600.5,304.6,600.5,304.7z M595.9,303.7
														h2.9c-0.2-0.7-0.7-1.2-1.6-1.2C596.4,302.5,595.9,303,595.9,303.7z"/>
												</g>
											</g>
											<g>
												<path class="st5" d="M423.5,237.3c-0.1-1.9,1.5-3.4,3.9-3.4c1.4,0,2.5,0.4,3.2,1.1l-1.1,0.9c-0.5-0.5-1.2-0.7-2-0.7
													c-1.5,0-2.4,0.9-2.2,2c0.1,1.2,1.2,2,2.6,2c0.7,0,1.4-0.2,1.9-0.7l1.2,0.9c-0.6,0.7-1.7,1.1-3.1,1.1
													C425.7,240.6,423.8,239.3,423.5,237.3z"/>
												<path class="st5" d="M431.4,238c-0.1-1.5,1.1-2.5,3-2.5s3.4,1,3.5,2.5s-1.1,2.5-3,2.5S431.5,239.5,431.4,238z
													 M436.3,238c-0.1-0.9-0.7-1.4-1.6-1.4s-1.5,0.5-1.4,1.4s0.7,1.4,1.6,1.4C435.7,239.4,436.3,238.9,436.3,238z"/>
												<path class="st5" d="M445.1,237.6l0.2,2.9h-1.7l-0.2-2.6c-0.1-0.7-0.5-1.1-1.2-1.1c-0.9,0-1.4,0.4-1.2,1.4l0.2,2.4h-1.7
													l-0.4-4.9h1.6v0.6c0.4-0.4,1.1-0.6,1.9-0.6C443.9,235.5,445,236.1,445.1,237.6z"/>
												<path class="st5" d="M450.8,240.3c-0.4,0.2-0.9,0.2-1.4,0.2c-1.4,0-2.2-0.6-2.4-1.7l-0.1-2h-1l-0.1-1.1h0.9l-0.1-1.2
													h1.7l0.1,1.2h1.5l0.1,1.1h-1.5l0.1,2c0,0.4,0.4,0.6,0.7,0.6c0.2,0,0.5-0.1,0.6-0.1L450.8,240.3z"/>
												<path class="st5" d="M456.8,237.6l0.2,2.7h-1.6v-0.6c-0.2,0.5-0.9,0.6-1.7,0.6c-1.4,0-2.2-0.6-2.4-1.5
													c-0.1-0.9,0.6-1.5,2.4-1.5h1.4c0-0.6-0.5-1-1.5-1c-0.6,0-1.2,0.1-1.6,0.5l-0.7-1c0.6-0.4,1.5-0.6,2.5-0.6
													C455.5,235.5,456.6,236.1,456.8,237.6z M455.1,238.9v-0.5H454c-0.7,0-1,0.2-1,0.6s0.4,0.6,1,0.6
													C454.5,239.6,455,239.4,455.1,238.9z"/>
												<path class="st5" d="M457.9,238c-0.1-1.5,1.1-2.5,3.1-2.5c1.2,0,2.2,0.5,2.7,1.2l-1.2,0.6c-0.4-0.5-0.9-0.6-1.4-0.6
													c-0.9,0-1.5,0.5-1.5,1.4c0.1,0.9,0.7,1.4,1.6,1.4c0.5,0,1-0.2,1.2-0.6l1.4,0.6c-0.4,0.7-1.2,1.2-2.5,1.2
													C459.5,240.5,458.1,239.5,457.9,238z"/>
												<path class="st5" d="M469,240.3c-0.4,0.2-0.9,0.2-1.4,0.2c-1.4,0-2.2-0.6-2.4-1.7l-0.1-2h-0.9l-0.1-1.1h0.9l-0.1-1.2
													h1.7l0.1,1.2h1.5l0.1,1.1h-1.5l0.1,2c0,0.4,0.4,0.6,0.7,0.6c0.2,0,0.5-0.1,0.6-0.1L469,240.3z"/>
												<path class="st5" d="M479.7,234.1l0.5,6.4h-1.5l-4.1-3.9l0.4,3.9h-1.7l-0.5-6.4h1.5l4.1,3.9l-0.4-3.9H479.7z"/>
												<path class="st5" d="M487.6,235.5l0.4,4.9h-1.6v-0.6c-0.4,0.4-1,0.6-1.7,0.6c-1.5,0-2.6-0.7-2.7-2.2l-0.2-2.7h1.7
													l0.2,2.6c0.1,0.9,0.5,1.2,1.2,1.2s1.4-0.4,1.2-1.4l-0.2-2.4L487.6,235.5L487.6,235.5z"/>
												<path class="st5" d="M499.4,237.6l0.2,2.9h-1.7l-0.2-2.6c-0.1-0.7-0.5-1.1-1.2-1.1s-1.2,0.4-1.2,1.2l0.2,2.5h-1.7
													l-0.2-2.6c-0.1-0.7-0.5-1.1-1.2-1.1s-1.2,0.4-1.2,1.2l0.2,2.5h-1.5l-0.4-4.9h1.6v0.6c0.4-0.4,1-0.6,1.7-0.6
													c0.9,0,1.5,0.2,2,0.7c0.4-0.5,1.1-0.7,2.1-0.7C498.2,235.5,499.2,236.1,499.4,237.6z"/>
												<path class="st5" d="M507.3,238c0.1,1.5-1.1,2.5-2.7,2.5c-0.7,0-1.5-0.2-1.9-0.6v0.6h-1.6l-0.6-6.7h1.7l0.2,2.4
													c0.4-0.4,1-0.6,1.7-0.6C505.8,235.5,507.2,236.5,507.3,238z M505.6,238c-0.1-0.9-0.7-1.4-1.6-1.4s-1.5,0.5-1.4,1.4
													s0.7,1.4,1.6,1.4S505.7,238.9,505.6,238z"/>
												<path class="st5" d="M514.3,238.4h-4.5c0.2,0.6,0.9,1,1.7,1c0.6,0,1.1-0.1,1.5-0.5l1,0.9c-0.5,0.5-1.2,0.7-2.4,0.7
													c-2,0-3.5-1.1-3.6-2.5c-0.1-1.5,1.1-2.5,3-2.5c1.7,0,3.1,1,3.4,2.5C514.3,238.1,514.3,238.3,514.3,238.4z M509.7,237.6
													h2.9c-0.1-0.6-0.7-1-1.5-1C510.3,236.5,509.8,237,509.7,237.6z"/>
												<path class="st5" d="M519,235.5l0.1,1.4c-0.1,0-0.2,0-0.4,0c-1,0-1.5,0.4-1.5,1.4l0.2,2.4h-1.7l-0.4-4.9h1.6v0.6
													C517.3,235.8,518.1,235.5,519,235.5z"/>
											</g>
											<g>
												<path class="st5" d="M196.6,184.3l0.5-1.1c0.6,0.4,1.6,0.6,2.6,0.6s1.5-0.2,1.4-0.6c-0.1-1.2-4.5-0.4-4.7-2.7
													c-0.1-1.1,0.9-2,3.1-2c1,0,2,0.2,2.7,0.6l-0.5,1.1c-0.7-0.4-1.5-0.5-2.1-0.5c-1,0-1.5,0.4-1.4,0.7
													c0.1,1.1,4.5,0.4,4.7,2.7c0.1,1.1-0.9,2-3.1,2C198.6,185.1,197.3,184.7,196.6,184.3z"/>
												<path class="st5" d="M208,184.7c-0.4,0.2-0.9,0.2-1.4,0.2c-1.4,0-2.2-0.6-2.4-1.7l-0.1-2h-0.9l-0.1-1.1h0.9l-0.1-1.2
													h1.7l0.1,1.2h1.5l0.1,1.1h-1.5l0.1,2c0,0.4,0.4,0.6,0.7,0.6c0.2,0,0.5-0.1,0.6-0.1L208,184.7z"/>
												<path class="st5" d="M214,182.1l0.2,2.7h-1.6v-0.6c-0.2,0.5-0.9,0.7-1.7,0.7c-1.4,0-2.2-0.6-2.4-1.5
													c-0.1-0.9,0.6-1.5,2.4-1.5h1.4c0-0.6-0.5-1-1.5-1c-0.6,0-1.2,0.1-1.6,0.5l-0.7-1c0.6-0.4,1.5-0.6,2.5-0.6
													C212.7,179.9,213.8,180.6,214,182.1z M212.3,183.3v-0.5h-1.2c-0.7,0-1,0.2-1,0.6c0,0.4,0.4,0.6,1,0.6
													C211.7,184.1,212.2,183.8,212.3,183.3z"/>
												<path class="st5" d="M219.6,184.7c-0.4,0.2-0.9,0.2-1.4,0.2c-1.4,0-2.2-0.6-2.4-1.7l-0.1-2h-0.9l-0.1-1.1h0.9l-0.1-1.2
													h1.7l0.1,1.2h1.5l0.1,1.1h-1.6l0.1,2c0,0.4,0.4,0.6,0.7,0.6c0.2,0,0.5-0.1,0.6-0.1L219.6,184.7z"/>
												<path class="st5" d="M225.9,182.8h-4.5c0.2,0.6,0.9,1,1.7,1c0.6,0,1.1-0.1,1.5-0.5l1,0.9c-0.5,0.5-1.2,0.7-2.4,0.7
													c-2,0-3.5-1.1-3.6-2.5c-0.1-1.5,1.1-2.5,3-2.5c1.7,0,3.1,1,3.4,2.5C225.9,182.6,225.9,182.7,225.9,182.8z M221.3,182.1
													h2.9c-0.1-0.6-0.7-1-1.5-1C222,181.1,221.5,181.4,221.3,182.1z"/>
											</g>
											<g>
												<path class="st5" d="M410.7,84.5h1.7l0.5,6.2h3.9l0.1,1.5h-5.6L410.7,84.5z"/>
												<path class="st5" d="M422.9,88.9l0.2,3.4h-1.6l-0.1-0.7c-0.2,0.5-0.9,0.9-1.7,0.9c-1.4,0-2.2-0.7-2.4-1.7
													c-0.1-1,0.6-1.7,2.4-1.7h1.4c-0.1-0.7-0.5-1.1-1.5-1.1c-0.6,0-1.2,0.2-1.6,0.5l-0.7-1.2c0.6-0.5,1.5-0.7,2.5-0.7
													C421.7,86.3,422.8,87.1,422.9,88.9z M421.4,90.4v-0.6h-1.1c-0.7,0-1,0.2-1,0.7c0,0.4,0.4,0.7,1,0.7
													C420.8,91.3,421.2,90.9,421.4,90.4z"/>
												<path class="st5" d="M424.2,91.8l0.5-1.2c0.5,0.4,1.4,0.6,2.1,0.6s1.1-0.2,1-0.5c-0.1-1-3.6,0-3.7-2.4
													c-0.1-1.1,0.9-1.9,2.6-1.9c0.9,0,1.7,0.1,2.4,0.5l-0.5,1.2c-0.6-0.4-1.2-0.5-1.7-0.5c-0.7,0-1.1,0.2-1,0.5
													c0.1,1,3.6,0,3.7,2.4c0.1,1.1-0.9,1.9-2.6,1.9C425.8,92.4,424.8,92.1,424.2,91.8z"/>
												<path class="st5" d="M434.4,92c-0.4,0.2-0.9,0.4-1.4,0.4c-1.4,0-2.2-0.7-2.4-2.1l-0.2-2.4h-0.9l-0.1-1.4h0.9l-0.1-1.5
													h1.7l0.1,1.5h1.5l0.1,1.4h-1.5l0.2,2.4c0,0.5,0.4,0.7,0.7,0.7c0.2,0,0.5-0.1,0.6-0.2L434.4,92z"/>
												<path class="st5" d="M445.1,84.5l0.6,7.7h-1.5l-4.2-4.7l0.4,4.7h-1.7l-0.6-7.7h1.5l4.2,4.7l-0.4-4.7H445.1z"/>
												<path class="st5" d="M452.4,88.9l0.2,3.4H451l-0.1-0.7c-0.2,0.5-0.9,0.9-1.7,0.9c-1.4,0-2.2-0.7-2.4-1.7
													c-0.1-1,0.6-1.7,2.4-1.7h1.4c-0.1-0.7-0.5-1.1-1.5-1.1c-0.6,0-1.2,0.2-1.6,0.5l-0.7-1.2c0.6-0.5,1.5-0.7,2.5-0.7
													C451.1,86.3,452.3,87.1,452.4,88.9z M450.9,90.4v-0.6h-1.2c-0.7,0-1,0.2-1,0.7c0,0.4,0.4,0.7,1,0.7
													C450.1,91.3,450.6,90.9,450.9,90.4z"/>
												<path class="st5" d="M464,88.9l0.2,3.4h-1.7l-0.2-3.1c-0.1-1-0.5-1.4-1.2-1.4s-1.2,0.5-1.1,1.5l0.2,3h-1.7l-0.2-3.1
													c-0.1-1-0.5-1.4-1.2-1.4s-1.2,0.5-1.1,1.5l0.2,3h-1.7l-0.5-5.9h1.6V87c0.4-0.5,1-0.7,1.7-0.7c0.9,0,1.5,0.4,2,1
													c0.4-0.6,1.1-1,2-1C462.8,86.3,463.9,87,464,88.9z"/>
												<path class="st5" d="M471.5,89.8H467c0.2,0.7,0.9,1.2,1.7,1.2c0.6,0,1.1-0.1,1.5-0.6l1,1c-0.5,0.6-1.2,1-2.4,1
													c-2,0-3.5-1.2-3.6-3c-0.1-1.7,1.1-3,2.9-3c1.7,0,3.2,1.1,3.4,3.1C471.5,89.5,471.5,89.6,471.5,89.8z M466.9,88.8h2.9
													c-0.1-0.7-0.7-1.2-1.6-1.2C467.4,87.5,466.9,88,466.9,88.8z"/>
											</g>
										</g>
										<polygon class="st14" points="397.4,116.7 190.2,116.7 188.7,99 395.8,99 										"/>
										<polygon class="st14" points="405.4,209 198.3,209 196.8,191.2 403.9,191.2 										"/>
										<polygon class="st14" points="410.2,262.9 203.1,262.9 201.5,245.1 408.7,245.1 										"/>
										<polygon class="st14" points="414.5,312.2 207.3,312.2 205.8,294.3 412.9,294.3 										"/>
										<polygon class="st14" points="632.9,262.9 425.8,262.9 424.3,245.1 631.4,245.1 										"/>
										<polygon class="st14" points="624,160.7 194.1,160.7 192.6,143 622.4,143 										"/>
										<polygon class="st14" points="620.1,116.7 413,116.7 411.4,99 618.6,99 										"/>
									</g>
									<polygon class="st3" points="473,261 457,261 455.8,246.4 471.8,246.4 									"/>
									<g>
										<polygon class="st9" points="469.3,251.1 464.8,256.9 459.1,251.1 										"/>
									</g>
									<g>
										<path class="st9" d="M435.3,254h-1.9l0.1,1.9h-1.4L432,254h-1.9l-0.1-1.4h1.9l-0.1-1.9h1.4l0.1,1.9h1.9L435.3,254z"/>
										<path class="st9" d="M441.9,254.9c0.1,1.2-0.7,2.5-3,2.5c-1.1,0-2.2-0.2-3-0.9l0.6-1.4c0.6,0.5,1.5,0.7,2.2,0.7
											c0.9,0,1.4-0.4,1.4-1s-0.5-1-1.5-1h-0.9l-0.1-1.1l1.4-1.7h-3.2l-0.1-1.4h5.4l0.1,1.1l-1.6,2
											C441,252.9,441.8,253.8,441.9,254.9z"/>
										<path class="st9" d="M448.5,255.8l0.1,1.5h-5.9l-0.1-1.1l2.7-2.7c0.6-0.6,0.7-1,0.6-1.4c0-0.6-0.5-1-1.4-1
											c-0.6,0-1.2,0.2-1.5,0.7l-1.4-0.9c0.5-0.9,1.5-1.4,3-1.4c1.7,0,3,0.9,3.1,2.2c0.1,0.7-0.1,1.4-1.1,2.4l-1.6,1.6
											L448.5,255.8L448.5,255.8z"/>
									</g>
									<polygon class="st9" points="587.8,257.3 482.5,257.3 482,251.1 587.3,251.1 									"/>
									<polygon class="st9" points="313.4,257.3 208.1,257.3 207.6,251.1 312.8,251.1 									"/>
									<polygon class="st9" points="251.6,203.2 203.3,203.2 202.8,197 250.9,197 									"/>
									<polygon class="st9" points="243.4,110.9 195.2,110.9 194.7,104.9 242.9,104.9 									"/>
									<polygon class="st9" points="467.1,110.9 418.9,110.9 418.4,104.9 466.6,104.9 									"/>
									<polygon class="st9" points="578.8,155 199.1,155 198.6,148.8 578.3,148.8 									"/>
									<g>
										<path class="st9" d="M218.6,303.7l1.7,0.9l-0.6,1.2l-1.7-1l0.2,1.9h-1.5l-0.1-1.9l-1.6,1l-0.9-1.2l1.6-0.9l-1.7-0.9
											l0.6-1.2l1.7,1l-0.1-1.9h1.5l0.1,1.9l1.6-1l0.9,1.2L218.6,303.7z"/>
										<path class="st9" d="M229.7,303.7l1.7,0.9l-0.6,1.2l-1.7-1l0.2,1.9h-1.5l-0.1-1.9l-1.6,1l-0.9-1.2l1.6-0.9l-1.7-0.9
											l0.6-1.2l1.7,1l-0.1-1.9h1.5l0.1,1.9l1.6-1l0.9,1.2L229.7,303.7z"/>
										<path class="st9" d="M240.7,303.7l1.7,0.9l-0.6,1.2l-1.7-1l0.2,1.9h-1.5l-0.1-1.9l-1.6,1l-0.9-1.2l1.6-0.9l-1.7-0.9
											l0.6-1.2l1.7,1l-0.1-1.9h1.5l0.1,1.9l1.6-1l0.9,1.2L240.7,303.7z"/>
										<path class="st9" d="M251.8,303.7l1.7,0.9l-0.6,1.2l-1.7-1l0.2,1.9h-1.6l-0.1-1.9l-1.6,1l-0.9-1.2l1.6-0.9l-1.7-0.9
											l0.6-1.2l1.7,1l-0.1-1.9h1.5l0.1,1.9l1.6-1l0.9,1.2L251.8,303.7z"/>
										<path class="st9" d="M262.8,303.7l1.7,0.9l-0.6,1.2l-1.7-1l0.2,1.9h-1.5l-0.1-1.9l-1.6,1l-0.9-1.2l1.6-0.9l-1.7-0.9
											l0.6-1.2l1.7,1l-0.1-1.9h1.5l0.1,1.9l1.6-1l0.9,1.2L262.8,303.7z"/>
										<path class="st9" d="M273.9,303.7l1.7,0.9l-0.6,1.2l-1.7-1l0.2,1.9H272l-0.1-1.9l-1.6,1l-0.9-1.2l1.6-0.9l-1.7-0.9
											l0.6-1.2l1.7,1l-0.1-1.9h1.5l0.1,1.9l1.6-1l0.9,1.2L273.9,303.7z"/>
										<path class="st9" d="M285,303.7l1.7,0.9l-0.6,1.2l-1.7-1l0.2,1.9h-1.5l-0.1-1.9l-1.6,1l-0.9-1.2l1.6-0.9l-1.7-0.9l0.6-1.2
											l1.7,1l-0.1-1.9h1.5l0.1,1.9l1.6-1l0.9,1.2L285,303.7z"/>
									</g>
									<polygon class="st15" points="183.2,339.2 660.3,339.2 633.9,36.7 156.8,36.7 									"/>
								</g>
								<g>
									<g>
										<polygon class="st15" points="259.7,14.1 352.8,362.7 321.5,362.7 229.3,14.1 										"/>
										<polygon class="st15" points="211.3,14.1 304.5,362.7 242.3,362.7 150.1,14.1 										"/>
									</g>
								</g>
								<g>
									
										<rect x="196.5" y="4.7" transform="matrix(1 -8.398223e-03 8.398223e-03 1 -4.448166e-02 1.7076)" class="st2" width="13.6" height="2.9"/>
									
										<rect x="222.2" y="4.3" transform="matrix(1 -8.398223e-03 8.398223e-03 1 -3.975929e-02 2.0322)" class="st2" width="39.5" height="2.9"/>
								</g>
							</g>
							<path class="st13" d="M683.2,194.9c0.7,8-5.2,14.5-13.2,14.5s-15.1-6.5-15.9-14.5c-0.7-8,5.2-14.5,13.2-14.5
								C675.5,180.3,682.5,186.8,683.2,194.9z"/>
						</g>
					</g>
					<path class="st13" d="M165.9,246.4L165.9,246.4c-1.5,0-2.9-1.2-3-2.7l-9.6-110.4c-0.1-1.5,1-2.7,2.5-2.7l0,0
						c1.5,0,2.9,1.2,3,2.7l9.6,110.4C168.6,245.1,167.5,246.4,165.9,246.4z"/>
				</g>
			</g>
			<g id="Plant">
				<g>
					<path class="st2" d="M201.7,744.6h-46l-5.1-9.6c-12.4-23.4-19.1-49.5-19.5-75.9v-2.4h95.2l0,0c0,28.4-7.2,56.2-20.9,81.1
						L201.7,744.6z"/>
					<g>
						<path class="st16" d="M102.5,658.7c8.6,5.9,18.7,8.9,28.7,8.7c1.2,0,2.5-0.1,3.5-0.7c1.1-0.6,2-1.9,1.9-3.2
							c-0.1-1.6-1.4-2.6-2.5-3.5c-6.5-4.7-13.5-8.6-20.9-11.4c-3.7-1.4-7.5-2.5-11.4-3.2c-3.1-0.6-6.4-2.1-9.5-2.1
							C91.8,649.9,97.9,655.6,102.5,658.7z"/>
						<g>
							<g>
								<path class="st16" d="M225,620c4.2-5.5,10.5-9.1,17-9.7c0.4,0,0.7,0,1.1,0.1c0.4,0.4,0.5,1,0.5,1.5
									c0.1,8.6-2.5,17.4-7.2,24.1c-2.2,3.1-5,5.9-8.4,7.1c-2.4,0.9-5.4,0.9-7.6-0.5c-2.4-1.4-1.9-3.2-1.6-5.9
									C219.1,630.6,221.3,624.7,225,620z"/>
								<path class="st17" d="M225,620c4.2-5.5,10.5-9.1,17-9.7c0.4,0,0.7,0,1.1,0.1c0.4,0.4,0.5,1,0.5,1.5
									c0.1,8.6-2.5,17.4-7.2,24.1c-2.2,3.1-5,5.9-8.4,7.1c-2.4,0.9-5.4,0.9-7.6-0.5c-2.4-1.4-1.9-3.2-1.6-5.9
									C219.1,630.6,221.3,624.7,225,620z"/>
							</g>
							<g>
								<path class="st16" d="M183.5,624c3.2-5.7,5.5-13,5.6-20.7c0.1-6.5-1.4-12.9-3.5-18.4s-4.9-10.2-7.6-14.9
									c-0.9,14.1-1.1,28.4-0.7,42.5c0.1,3,0.2,6.1,1.1,8.7c0.9,2.6,2.7,4.7,4.5,4L183.5,624z"/>
							</g>
							<g>
								<path class="st16" d="M195.7,580.9c-6,8.9-9.7,21.7-10.2,35.1c-0.1,4.7,0.1,9.6,1.5,13.7c1.4,4.1,4.1,7.2,7,6.9
									c3-0.5,5.2-4.4,6.9-8.5c2.7-6.7,6.1-16.4,4.6-24.7C203.7,594.4,200.3,586.4,195.7,580.9z"/>
								<path class="st18" d="M195.7,580.9c-6,8.9-9.7,21.7-10.2,35.1c-0.1,4.7,0.1,9.6,1.5,13.7c1.4,4.1,4.1,7.2,7,6.9
									c3-0.5,5.2-4.4,6.9-8.5c2.7-6.7,6.1-16.4,4.6-24.7C203.7,594.4,200.3,586.4,195.7,580.9z"/>
							</g>
							<g>
								<path class="st16" d="M214,630.3c4.9-4.6,6.9-12.2,6.7-19.4s-2.4-14.1-4.5-20.9c-4.7,6.5-8.6,14-11.5,21.9
									c-1.1,3-2,6.1-2.1,9.4c-0.1,3.2,0.9,6.6,3,8.9c2.1,2.1,5.6,2.7,7.9,0.9c-0.2,0.1-0.5,0.4-0.9,0.5L214,630.3z"/>
							</g>
							<g class="st19">
								<path d="M214,630.3c4.9-4.6,6.9-12.2,6.7-19.4s-2.4-14.1-4.5-20.9c-4.7,6.5-8.6,14-11.5,21.9c-1.1,3-2,6.1-2.1,9.4
									c-0.1,3.2,0.9,6.6,3,8.9c2.1,2.1,5.6,2.7,7.9,0.9c-0.2,0.1-0.5,0.4-0.9,0.5L214,630.3z"/>
							</g>
							<g>
								<g>
									<path class="st16" d="M225.2,602.1c1.2,8.9,2.4,18,0.9,26.9s-6.2,17.5-13.7,20.6c-3.1,1.2-7.1,1.2-9.1-1.6
										c-1.4-2-1.5-4.7-0.9-7.2c0.6-2.4,1.9-4.5,3.1-6.6C211.5,624.6,223.8,601.2,225.2,602.1L225.2,602.1z"/>
								</g>
								<g>
									<path class="st16" d="M225.2,602.1c1.2,8.9,2.4,18,0.9,26.9s-6.2,17.5-13.7,20.6c-3.1,1.2-7.1,1.2-9.1-1.6
										c-1.4-2-1.5-4.7-0.9-7.2c0.6-2.4,1.9-4.5,3.1-6.6C211.5,624.6,223.8,601.2,225.2,602.1L225.2,602.1z"/>
								</g>
								<g class="st20">
									<path d="M225.2,602.1c1.2,8.9,2.4,18,0.9,26.9s-6.2,17.5-13.7,20.6c-3.1,1.2-7.1,1.2-9.1-1.6c-1.4-2-1.5-4.7-0.9-7.2
										c0.6-2.4,1.9-4.5,3.1-6.6C211.5,624.6,223.8,601.2,225.2,602.1L225.2,602.1z"/>
								</g>
							</g>
							<path class="st16" d="M202.2,614.2c2.9,5.2,5.4,11,6.4,17.1s0.5,12.7-2.2,18.1c-2.7,5.4-7.9,9.4-13.4,9.4
								c-4.2,0-8.4-2.5-10.6-6.6c-2.5-4.5-0.6-8.5,1.2-12.9C187.9,629.4,195.1,621.6,202.2,614.2z"/>
							<g>
								<path class="st16" d="M256.8,630.6c1.5,2.5,1.5,5.9,0.5,8.6c-1,2.7-2.9,5-4.7,7.1c-13.1,14-31.7,21.1-49.6,19
									c-1.5-0.1-3.1-0.6-4-2c-0.9-1.6-0.1-3.7,1.2-5c1.2-1.1,3-1.5,4.6-1.9c9.1-2.2,18-6.2,26-11.9
									C238.7,639.1,248.2,635.2,256.8,630.6z"/>
								<path class="st18" d="M256.8,630.6c1.5,2.5,1.5,5.9,0.5,8.6c-1,2.7-2.9,5-4.7,7.1c-13.1,14-31.7,21.1-49.6,19
									c-1.5-0.1-3.1-0.6-4-2c-0.9-1.6-0.1-3.7,1.2-5c1.2-1.1,3-1.5,4.6-1.9c9.1-2.2,18-6.2,26-11.9
									C238.7,639.1,248.2,635.2,256.8,630.6z"/>
							</g>
							<path class="st16" d="M225.1,630.6c1.4-2,3-4.2,5.1-4c1.7,0.2,2.9,1.9,3.6,3.6c2.9,7.1-0.5,15.9-6,20.6
								c-5.4,4.7-12.4,6.6-19.1,8.4c-2.2,0.6-4.6,1.1-6.9,1.7c-2.7,0.7-8.2-0.2-5.7-4.6c1.6-2.9,7.1-4.6,9.6-6.2
								C213.2,645.1,219.8,638.4,225.1,630.6z"/>
							<path class="st16" d="M253.6,658.7c-8.6,5.9-18.7,8.9-28.7,8.7c-1.2,0-2.5-0.1-3.5-0.7c-1.1-0.6-2-1.9-1.9-3.2
								c0.1-1.6,1.4-2.6,2.5-3.5c6.5-4.7,13.5-8.6,20.9-11.4c3.7-1.4,7.5-2.5,11.4-3.2c3.1-0.6,6.4-2.1,9.5-2.1
								C264.3,649.9,258.2,655.6,253.6,658.7z"/>
							<g>
								<path class="st16" d="M225.7,685.3c8.5-0.6,16.6-4.5,23.6-10c1.4-1,2.7-2.7,2.2-4.5c-0.4-1.2-1.6-1.7-2.7-2.1
									c-8-2.7-16.2-5.4-24.6-5c-4,0.1-7.9,1.1-11.5,3c-2.9,1.4-8.6,5-9.5,8.7c-0.9,3.9,6.5,6.7,9.1,7.9
									C216.7,684.9,221.2,685.5,225.7,685.3z"/>
								<path class="st18" d="M225.7,685.3c8.5-0.6,16.6-4.5,23.6-10c1.4-1,2.7-2.7,2.2-4.5c-0.4-1.2-1.6-1.7-2.7-2.1
									c-8-2.7-16.2-5.4-24.6-5c-4,0.1-7.9,1.1-11.5,3c-2.9,1.4-8.6,5-9.5,8.7c-0.9,3.9,6.5,6.7,9.1,7.9
									C216.7,684.9,221.2,685.5,225.7,685.3z"/>
							</g>
							<g>
								<path class="st16" d="M192.4,664.3c8.2-1.9,16.7-2.4,25.1-1.4c2.1,0.2,4.2,0.6,6,1.7c1.9,1.1,3.4,3.2,3.4,5.6
									c0.1,2.4-1.4,4.6-3.1,5.9c-1.7,1.2-3.9,1.9-5.9,2.4c-6,1.6-12.2,3.1-18.4,2.2c-4.5-0.6-9.9-2.9-12.7-7
									C182.9,668.4,187.9,665.3,192.4,664.3z"/>
								<path class="st15" d="M192.4,664.3c8.2-1.9,16.7-2.4,25.1-1.4c2.1,0.2,4.2,0.6,6,1.7c1.9,1.1,3.4,3.2,3.4,5.6
									c0.1,2.4-1.4,4.6-3.1,5.9c-1.7,1.2-3.9,1.9-5.9,2.4c-6,1.6-12.2,3.1-18.4,2.2c-4.5-0.6-9.9-2.9-12.7-7
									C182.9,668.4,187.9,665.3,192.4,664.3z"/>
							</g>
							<g>
								<g>
									<path class="st16" d="M167.1,664.2c-1.6-1.2-3.2-2.6-4.1-4.5s-1-4.5,0.4-6.1c1.9-2.2,12.5-5.5,15.2-6.1
										c2.2-0.5,4.5,0.4,6.6,1.4c3,1.4,6,3,9,4.6c1.5,0.7,3,1.6,4.1,3s1.9,3.2,1.4,5.1c-0.6,2.5-3,3.9-5.2,4.6
										c-5.7,2-11.7,3-17.6,2.7C177.4,668.9,169.9,666.2,167.1,664.2z"/>
								</g>
								<g class="st20">
									<path d="M167.1,664.2c-1.6-1.2-3.2-2.6-4.1-4.5s-1-4.5,0.4-6.1c1.9-2.2,12.5-5.5,15.2-6.1c2.2-0.5,4.5,0.4,6.6,1.4
										c3,1.4,6,3,9,4.6c1.5,0.7,3,1.6,4.1,3s1.9,3.2,1.4,5.1c-0.6,2.5-3,3.9-5.2,4.6c-5.7,2-11.7,3-17.6,2.7
										C177.4,668.9,169.9,666.2,167.1,664.2z"/>
								</g>
							</g>
							<path class="st16" d="M188.7,668.4c2.6,0.7,5.1,2.6,6.4,5.4c1.2,2.7,0.9,6.5-1.2,8.4c-1.5,1.4-3.6,1.6-5.6,1.9
								c-2.4,0.2-4.9,0.5-7.2,0.7c-1.5,0.1-3.2,0.2-4.5-0.7c-1.7-1.4-1.9-4.1-1.9-6.5c0-2.2,0-4.6,0.9-6.6c1-2.6,2.9-4,5.2-3.6
								C183.4,667.7,186.2,667.7,188.7,668.4z"/>
							<g>
								<path class="st16" d="M131.2,620c-4.2-5.5-10.5-9.1-17-9.7c-0.4,0-0.7,0-1.1,0.1c-0.4,0.4-0.5,1-0.5,1.5
									c-0.1,8.6,2.5,17.4,7.2,24.1c2.2,3.1,5,5.9,8.4,7.1c2.4,0.9,5.4,0.9,7.6-0.5c2.4-1.4,1.9-3.2,1.6-5.9
									C137,630.6,134.8,624.7,131.2,620z"/>
								<path class="st17" d="M131.2,620c-4.2-5.5-10.5-9.1-17-9.7c-0.4,0-0.7,0-1.1,0.1c-0.4,0.4-0.5,1-0.5,1.5
									c-0.1,8.6,2.5,17.4,7.2,24.1c2.2,3.1,5,5.9,8.4,7.1c2.4,0.9,5.4,0.9,7.6-0.5c2.4-1.4,1.9-3.2,1.6-5.9
									C137,630.6,134.8,624.7,131.2,620z"/>
							</g>
							<g>
								<path class="st16" d="M172.6,624c-3.2-5.7-5.5-13-5.6-20.7c-0.1-6.5,1.4-12.9,3.5-18.4s4.9-10.2,7.6-14.9
									c0.9,14.1,1.1,28.4,0.7,42.5c-0.1,3-0.2,6.1-1.1,8.7c-0.9,2.6-2.7,4.7-4.5,4L172.6,624z"/>
							</g>
							<g>
								<path class="st16" d="M160.4,580.9c6,8.9,9.7,21.7,10.2,35.1c0.1,4.7-0.1,9.6-1.5,13.7c-1.4,4.1-4.1,7.2-7,6.9
									c-3-0.5-5.2-4.4-6.9-8.5c-2.7-6.7-6.1-16.4-4.6-24.7C152.4,594.4,155.8,586.4,160.4,580.9z"/>
								<path class="st18" d="M160.4,580.9c6,8.9,9.7,21.7,10.2,35.1c0.1,4.7-0.1,9.6-1.5,13.7c-1.4,4.1-4.1,7.2-7,6.9
									c-3-0.5-5.2-4.4-6.9-8.5c-2.7-6.7-6.1-16.4-4.6-24.7C152.4,594.4,155.8,586.4,160.4,580.9z"/>
							</g>
							<g>
								<path class="st16" d="M142.1,630.3c-4.9-4.6-6.9-12.2-6.7-19.4s2.4-14.1,4.5-20.9c4.7,6.5,8.6,14,11.5,21.9
									c1.1,3,2,6.1,2.1,9.4c0.1,3.2-0.9,6.6-3,8.9c-2.1,2.1-5.6,2.7-7.9,0.9c0.2,0.1,0.5,0.4,0.9,0.5L142.1,630.3z"/>
							</g>
							<g class="st19">
								<path d="M142.1,630.3c-4.9-4.6-6.9-12.2-6.7-19.4s2.4-14.1,4.5-20.9c4.7,6.5,8.6,14,11.5,21.9c1.1,3,2,6.1,2.1,9.4
									c0.1,3.2-0.9,6.6-3,8.9c-2.1,2.1-5.6,2.7-7.9,0.9c0.2,0.1,0.5,0.4,0.9,0.5L142.1,630.3z"/>
							</g>
							<g>
								<g>
									<path class="st16" d="M130.9,602.1c-1.2,8.9-2.4,18-0.9,26.9s6.2,17.5,13.7,20.6c3.1,1.2,7.1,1.2,9.1-1.6
										c1.4-2,1.5-4.7,0.9-7.2c-0.6-2.4-1.9-4.5-3.2-6.6C144.6,624.6,132.3,601.2,130.9,602.1L130.9,602.1z"/>
								</g>
								<g>
									<path class="st16" d="M130.9,602.1c-1.2,8.9-2.4,18-0.9,26.9s6.2,17.5,13.7,20.6c3.1,1.2,7.1,1.2,9.1-1.6
										c1.4-2,1.5-4.7,0.9-7.2c-0.6-2.4-1.9-4.5-3.2-6.6C144.6,624.6,132.3,601.2,130.9,602.1L130.9,602.1z"/>
								</g>
								<g class="st20">
									<path d="M130.9,602.1c-1.2,8.9-2.4,18-0.9,26.9s6.2,17.5,13.7,20.6c3.1,1.2,7.1,1.2,9.1-1.6c1.4-2,1.5-4.7,0.9-7.2
										c-0.6-2.4-1.9-4.5-3.2-6.6C144.6,624.6,132.3,601.2,130.9,602.1L130.9,602.1z"/>
								</g>
							</g>
							<path class="st16" d="M153.9,614.2c-2.9,5.2-5.4,11-6.4,17.1s-0.5,12.7,2.2,18.1c2.7,5.4,7.9,9.4,13.4,9.4
								c4.2,0,8.4-2.5,10.6-6.6c2.5-4.5,0.6-8.5-1.2-12.9C168.2,629.4,161,621.6,153.9,614.2z"/>
							<g>
								<path class="st16" d="M99.3,631.3c-1.5,2.4-1.4,5.7-0.4,8.5s2.7,5,4.7,7c12.9,13.7,31.1,20.7,48.6,18.6
									c1.5-0.1,3.1-0.5,3.9-2c0.9-1.6,0.1-3.7-1.2-4.9c-1.2-1.1-3-1.5-4.5-1.9c-9-2.2-17.6-6.1-25.5-11.6
									C117,639.6,107.7,635.8,99.3,631.3z"/>
								<path class="st18" d="M99.3,631.3c-1.5,2.4-1.4,5.7-0.4,8.5s2.7,5,4.7,7c12.9,13.7,31.1,20.7,48.6,18.6
									c1.5-0.1,3.1-0.5,3.9-2c0.9-1.6,0.1-3.7-1.2-4.9c-1.2-1.1-3-1.5-4.5-1.9c-9-2.2-17.6-6.1-25.5-11.6
									C117,639.6,107.7,635.8,99.3,631.3z"/>
							</g>
							<path class="st16" d="M129.5,629.9c-1.2-2-3-4.1-5.1-3.9c-1.6,0.2-2.9,1.9-3.5,3.6c-2.7,7,0.5,15.5,5.9,20.2
								c5.4,4.7,12.1,6.5,18.7,8.1c2.2,0.6,4.5,1.1,6.7,1.7c2.7,0.6,8.1-0.2,5.7-4.5c-1.6-2.9-7-4.5-9.5-6.1
								C141.1,644.2,134.6,637.7,129.5,629.9z"/>
							<g>
								<path class="st16" d="M130.4,685.3c-8.5-0.6-16.6-4.5-23.6-10c-1.4-1-2.7-2.7-2.2-4.5c0.4-1.2,1.6-1.7,2.7-2.1
									c8-2.7,16.2-5.4,24.6-5c4,0.1,7.9,1.1,11.5,3c2.9,1.4,8.6,5,9.5,8.7c0.9,3.9-6.5,6.7-9.1,7.9
									C139.4,684.9,134.9,685.5,130.4,685.3z"/>
								<path class="st18" d="M130.4,685.3c-8.5-0.6-16.6-4.5-23.6-10c-1.4-1-2.7-2.7-2.2-4.5c0.4-1.2,1.6-1.7,2.7-2.1
									c8-2.7,16.2-5.4,24.6-5c4,0.1,7.9,1.1,11.5,3c2.9,1.4,8.6,5,9.5,8.7c0.9,3.9-6.5,6.7-9.1,7.9
									C139.4,684.9,134.9,685.5,130.4,685.3z"/>
							</g>
							<g>
								<path class="st16" d="M163.8,664.3c-8.2-1.9-16.7-2.4-25.1-1.4c-2.1,0.2-4.2,0.6-6,1.7c-1.9,1.1-3.4,3.2-3.4,5.6
									c-0.1,2.4,1.4,4.6,3.1,5.9c1.7,1.2,3.9,1.9,5.9,2.4c6,1.6,12.2,3.1,18.4,2.2c4.5-0.6,9.9-2.9,12.7-7
									C173.2,668.4,168.2,665.3,163.8,664.3z"/>
								<path class="st15" d="M163.8,664.3c-8.2-1.9-16.7-2.4-25.1-1.4c-2.1,0.2-4.2,0.6-6,1.7c-1.9,1.1-3.4,3.2-3.4,5.6
									c-0.1,2.4,1.4,4.6,3.1,5.9c1.7,1.2,3.9,1.9,5.9,2.4c6,1.6,12.2,3.1,18.4,2.2c4.5-0.6,9.9-2.9,12.7-7
									C173.2,668.4,168.2,665.3,163.8,664.3z"/>
							</g>
							<g>
								<g>
									<path class="st16" d="M189,664.2c1.6-1.2,3.2-2.6,4.1-4.5c0.9-1.9,1-4.5-0.4-6.1c-1.9-2.2-12.5-5.5-15.2-6.1
										c-2.2-0.5-4.5,0.4-6.6,1.4c-3,1.4-6,3-9,4.6c-1.5,0.7-3,1.6-4.1,3s-1.9,3.2-1.4,5.1c0.6,2.5,3,3.9,5.2,4.6
										c5.7,2,11.7,3,17.6,2.7C178.7,668.9,186.4,666.2,189,664.2z"/>
								</g>
								<g class="st20">
									<path d="M189,664.2c1.6-1.2,3.2-2.6,4.1-4.5c0.9-1.9,1-4.5-0.4-6.1c-1.9-2.2-12.5-5.5-15.2-6.1c-2.2-0.5-4.5,0.4-6.6,1.4
										c-3,1.4-6,3-9,4.6c-1.5,0.7-3,1.6-4.1,3s-1.9,3.2-1.4,5.1c0.6,2.5,3,3.9,5.2,4.6c5.7,2,11.7,3,17.6,2.7
										C178.7,668.9,186.4,666.2,189,664.2z"/>
								</g>
							</g>
							<path class="st16" d="M167.4,668.4c-2.6,0.7-5.1,2.6-6.4,5.4c-1.2,2.7-0.9,6.5,1.2,8.4c1.5,1.4,3.6,1.6,5.6,1.9
								c2.4,0.2,4.9,0.5,7.2,0.7c1.5,0.1,3.2,0.2,4.5-0.7c1.7-1.4,1.9-4.1,1.9-6.5c0-2.2,0-4.6-0.9-6.6c-1-2.6-2.9-4-5.2-3.6
								C172.7,667.7,169.9,667.7,167.4,668.4z"/>
							<g>
								<path class="st16" d="M179.4,616.5c-0.5-0.4-0.9-0.6-1.2-0.7c0.1-0.1,0.2-0.1,0.4-0.1s0.1,0,0.2,0.1l0,0
									c0.1,0,0.1,0.1,0.2,0.1c0.1,0.1,0.1,0.1,0.2,0.2C179.2,616.2,179.2,616.2,179.4,616.5C179.4,616.3,179.4,616.3,179.4,616.5z
									"/>
								<path class="st21" d="M179.4,616.5L179.4,616.5c-0.5-0.4-0.9-0.6-1.2-0.7c0.1-0.1,0.2-0.1,0.4-0.1s0.1,0,0.2,0.1l0,0
									c0.1,0,0.1,0.1,0.2,0.1c0.1,0.1,0.1,0.1,0.2,0.2C179.2,616.2,179.2,616.2,179.4,616.5C179.4,616.3,179.4,616.3,179.4,616.5z
									"/>
								<g>
									<g>
										<path class="st16" d="M188.4,641.1c-0.9,2.5-2.1,4.9-3.7,6.6c-1.6,1.9-4,3.1-6.2,3c-0.1,0-0.1,0-0.2,0l0,0
											c-0.1,0-0.1,0-0.2,0c-2.4,0.1-4.6-1.2-6.2-3c-1.6-1.9-2.9-4.2-3.7-6.6c-1.1-3.2-2-6.7-1.5-10.2c0.5-3.9,2.6-7.2,5.1-9.9
											c0.6,0,2.7-2.5,3.5-3l0.1-0.1c0-0.1,0.1-0.1,0.2-0.1c0.5-0.4,1-0.9,1.6-1.4c0.2-0.2,0.5-0.4,0.7-0.5
											c0.1,0,0.1-0.1,0.2-0.1c0.1,0,0.1-0.1,0.2-0.1c0.4,0.1,0.9,0.5,1.2,0.7l0,0c0.7,0.6,1.6,1.4,2,1.6c0.6,0.5,2.7,3,3.5,3
											c2.5,2.6,4.6,6,5.1,9.9C190.4,634.3,189.6,637.8,188.4,641.1z"/>
										<path class="st16" d="M178.1,615.6c-0.1,0-0.1,0.1-0.2,0.1c-0.1,0-0.1,0.1-0.2,0.1c-0.2,0.1-0.5,0.4-0.7,0.5
											c0.1-0.5,0.5-0.9,0.9-0.9C177.7,615.6,177.9,615.6,178.1,615.6z"/>
									</g>
									<g class="st19">
										<path class="st14" d="M188.4,641.1c-0.9,2.5-2.1,4.9-3.7,6.6c-1.6,1.9-4,3.1-6.2,3c-0.1,0-0.1,0-0.2,0l0,0
											c-0.1,0-0.1,0-0.2,0c-2.4,0.1-4.6-1.2-6.2-3c-1.6-1.9-2.9-4.2-3.7-6.6c-1.1-3.2-2-6.7-1.5-10.2c0.5-3.9,2.6-7.2,5.1-9.9
											c0.6,0,2.7-2.5,3.5-3c0.4-0.2,1.2-1.1,2-1.6c0.5-0.4,0.9-0.6,1.2-0.7c0.4,0.1,0.9,0.5,1.2,0.7c0.7,0.6,1.6,1.4,2,1.6
											c0.6,0.5,2.7,3,3.5,3c2.5,2.6,4.6,6,5.1,9.9C190.4,634.3,189.6,637.8,188.4,641.1z"/>
										<path class="st14" d="M178.1,615.6c-0.4,0.1-0.7,0.4-1.2,0.7c0.1-0.5,0.5-0.9,0.9-0.9
											C177.7,615.6,177.9,615.6,178.1,615.6z"/>
									</g>
								</g>
							</g>
							<path class="st15" d="M179.4,616.5c-0.5-0.4-0.9-0.6-1.2-0.7c0.1-0.1,0.2-0.1,0.4-0.1C178.9,615.6,179.1,616,179.4,616.5z"/>
						</g>
					</g>
				</g>
			</g>
			<g id="Character">
				<g>
					<g>
						<g>
							<g>
								<path class="st2" d="M596.8,417.6h60.5c2,0,2.9-1.6,2-3.6l-15.1-34.1c-0.9-2-3.1-3.6-5.1-3.6h-60.5c-2,0-2.9,1.6-2,3.6
									l15.1,34.1C592.4,416.1,594.8,417.6,596.8,417.6z"/>
								<path class="st17" d="M596.8,417.6h60.5c2,0,2.9-1.6,2-3.6l-15.1-34.1c-0.9-2-3.1-3.6-5.1-3.6h-60.5c-2,0-2.9,1.6-2,3.6
									l15.1,34.1C592.4,416.1,594.8,417.6,596.8,417.6z"/>
								<path class="st5" d="M575.8,376.4h2.6c-2,0-2.9,1.6-2,3.6l15.1,34.1c0.9,2,3.1,3.6,5.1,3.6H594c-2,0-4.2-1.6-5.1-3.6
									L573.8,380C572.9,378,573.8,376.4,575.8,376.4z"/>
								<path class="st22" d="M575.8,376.4h2.6c-2,0-2.9,1.6-2,3.6l15.1,34.1c0.9,2,3.1,3.6,5.1,3.6H594c-2,0-4.2-1.6-5.1-3.6
									L573.8,380C572.9,378,573.8,376.4,575.8,376.4z"/>
							</g>
							<g>
								<polygon class="st9" points="597.9,413.7 652.5,413.7 637.7,380.4 583,380.4 								"/>
								<polygon class="st1" points="597.9,413.7 652.5,413.7 637.7,380.4 583,380.4 								"/>
							</g>
						</g>
						<g>
							<g>
								<polygon class="st23" points="573,699.1 569.3,716.6 550.4,714.1 553.2,694.8 								"/>
								<g>
									<path class="st2" d="M540.8,714.1c-2.5-0.2-5-1-5.7-2.1c-0.4-0.6-0.2-1.5,0.2-2s1-0.9,1.6-1c3.4-0.6,10,4,10.2,4.2
										c0.1,0.1,0.2,0.4,0.1,0.5c0,0.2-0.2,0.4-0.4,0.4C544.8,714.3,542.8,714.3,540.8,714.1z M537.9,709.9c-0.2,0-0.6,0-0.9,0
										c-0.4,0-0.7,0.2-1,0.6c-0.4,0.5-0.4,0.9-0.2,1c0.7,1.4,5.7,1.9,9.5,1.9C543.2,711.8,540.7,710.6,537.9,709.9z"/>
									<path class="st2" d="M546.8,714.1c-0.1,0-0.1,0-0.2,0c-2.2-1.2-6.6-6.1-6-8.2c0.1-0.5,0.6-1.1,1.9-1.1c1,0,1.9,0.4,2.5,1.1
										c2.4,2.4,2.4,7.7,2.4,8c0,0.1-0.1,0.4-0.2,0.4C547.1,714.1,546.9,714.1,546.8,714.1z M542.8,705.6h-0.2c-0.9,0-1,0.4-1,0.5
										c-0.2,1.4,2.5,5,4.9,6.7c0-2.2-0.7-4.5-2-6.4C543.9,705.9,543.3,705.6,542.8,705.6L542.8,705.6z"/>
									<path class="st24" d="M549.2,711.5l21.7,2.1c0.9,0.1,1.5,0.7,1.6,1.5l2.2,18c0.2,1.6-0.9,3-2.5,3.2c-0.2,0-0.4,0-0.6,0
										c-7.7-0.9-14.7-2-24.5-3c-11.5-1.1-8.7,0.5-22.2-0.6c-8.1-0.7-8.7-10.1-5.2-10.2c16-0.5,18.1-5,24.7-10.1
										C545.8,711.8,547.4,711.4,549.2,711.5z"/>
								</g>
								<polygon class="st17" points="551.7,704.9 571.4,706.5 573,699.1 553.2,694.8 								"/>
								<polygon class="st25" points="567.8,554.9 549.1,692.1 578,694.5 611.9,558.4 								"/>
								<polygon class="st26" points="567.8,554.9 549.1,692.1 578,694.5 611.9,558.4 								"/>
								<path class="st2" d="M580.8,692.4l-35-2.7c0,0-3,4.5,0.2,8.6l33.8,3C579.8,701.4,583.2,699.4,580.8,692.4z"/>
							</g>
							<g>
								<path class="st23" d="M601.1,419.1l-7.1-17.2c-0.6-1-1.5-1.6-2.5-2l-3.6-1.2c-0.7-0.2-1.5-0.7-2-1.4l-1.6-1.7
									c-1.5-1.6-3.9-2.1-5.9-1.2l-1.5,0.6c-1.5,0.6-2.7,2.1-3,3.7c-0.9,5.1-1.6,16.1,7.5,23.6l10.2,4.2L601.1,419.1z"/>
								<polygon class="st23" points="591.7,426.5 605.3,447 614.8,436.9 601.1,419.1 								"/>
							</g>
							<g>
								<g>
									<g>
										<g>
											<path class="st5" d="M674.1,377.8c-0.7-1.4-11.6,2.6-24.5,9.1s-22.6,12.7-21.9,14.2c0.7,1.4,11.6-2.6,24.5-9.1
												C665,385.5,674.7,379.2,674.1,377.8z"/>
											<g>
												<path class="st11" d="M657.7,383c1.2-0.5,2.4-1,3.5-1.5l2.2,4.4c-1,0.6-2.1,1.2-3.2,1.9L657.7,383z"/>
												<path class="st27" d="M657.7,383c1.2-0.5,2.4-1,3.5-1.5l2.2,4.4c-1,0.6-2.1,1.2-3.2,1.9L657.7,383z"/>
											</g>
										</g>
										<g>
											<g>
												<path class="st11" d="M670.1,377.4c0.6-2.9-11,2.2-11.6,2.6c-0.7,0.4-1.4-0.9-0.5-1.2c0.9-0.4,14.7-7.1,13.5-1.1
													C671.3,378.4,670,378.3,670.1,377.4L670.1,377.4z"/>
											</g>
											<g class="st19">
												<path d="M670.1,377.4c0.6-2.9-11,2.2-11.6,2.6c-0.7,0.4-1.4-0.9-0.5-1.2c0.9-0.4,14.7-7.1,13.5-1.1
													C671.3,378.4,670,378.3,670.1,377.4L670.1,377.4z"/>
											</g>
										</g>
									</g>
									<path class="st23" d="M670.7,424l-11.2-19.2c0,0,0.5-8.5-5.4-18.6c-0.4-0.7-4.2-3.7-4.2-3.7c-4.4,2.2-7.5,4.5-8.9,5.5
										c-4.1,3.1-5.2,5.4-0.1,13.1c4.1,6.4,9.1,9.9,9.1,9.9l10.6,21.7L670.7,424z"/>
									<path class="st11" d="M673.2,421.6l-4.9-7.7c0,0-9,1.2-15,11.6l4.1,9L673.2,421.6z"/>
									<path class="st9" d="M729.9,378.8c-8.5,0.6-16-0.9-30.6,45c-2.7,8.5-9.7,17.1-9.7,17.1l-16-21.9c0,0-10.5,0.6-17.7,13.5
										c0,0,12.4,41.5,35.6,38.5c23.2-3,36.2-29.7,41.3-45.6C737.9,409.4,748.8,377.5,729.9,378.8z"/>
								</g>
								<g>
									<polygon class="st23" points="688.4,357.8 687,372 710.8,372.2 711.3,354.2 									"/>
									<path class="st17" d="M687.9,364.7c6-1.6,10-8.7,10-8.7l-5.1,1l-4.4,0.9L687.9,364.7z"/>
									<path class="st9" d="M682,318c-0.5,1.1-0.2,2.2,0.5,2.6c0.7,0.2,1.7-0.4,2.2-1.5c0.4-1.1,0.2-2.2-0.5-2.5
										C683.5,316.2,682.5,316.8,682,318z"/>
									<path class="st28" d="M685,320.9l-9.1,6.6c0,0,2.1,3.2,6.9,3.4L685,320.9z"/>
									<path class="st9" d="M686.3,311.1c0.2,0,0.4,0.1,0.5,0.4c0.7,1.5,2.1,2.5,3.7,2.7c0.4,0,0.6,0.4,0.6,0.6
										c0,0.4-0.4,0.6-0.7,0.6c-2-0.2-3.7-1.5-4.7-3.4c-0.1-0.2,0-0.7,0.2-0.9l0,0C686.1,311.1,686.2,311.1,686.3,311.1z"/>
									<path class="st23" d="M727.7,331.1c-5.4,15.2-7.2,21.9-17.6,27.6c-14.5,4.7-33.5-1-32.8-17.5c0.5-14.9,9.1-37.2,26.5-39.2
										c12.4-1.5,23.6,7.1,25.1,19.1C729.2,324.3,728.8,327.8,727.7,331.1z"/>
									<path class="st9" d="M735.2,343.4c-4,3.2-7.6,6.9-11.1,10.6c-2.1,2.2-4.6,4.1-7.5,5.5c-5.6,2.6-12.2,2.6-18.2,0.7
										c0,0-0.6,0.9,0,0c0,0-15.9-14-5.2-40.1c-4-2.9-6.5-7.9-6.4-12.9s2.9-9.7,7.1-12.5c5-3.1,12.7-1.1,17.4,2.5
										c6.2-1.5,12.9,0.7,17.5,5.1c4.7,4.4,7.6,10.2,9.7,16.4c1.9,5.1,3.1,10.7,2,16.1C739.8,338.2,737.8,341.3,735.2,343.4z"/>
									<path class="st23" d="M694.6,325.7c-3,1.5-5.4,4-6.5,7.1c-1.4,4.1,2.4,6.5,6.5,5.5c3.7-0.9,8.9-4,8.5-8.2
										C702.8,325.8,698.3,323.9,694.6,325.7z"/>
									<g>
										<path class="st11" d="M716.1,362.8c-5.2-2.2-14.9-2.5-28.6-0.4c-1.5,0.2-2.7,1.7-3.2,3.1c-0.5,1.5,0.2,3.5,1.7,3.6
											c-0.1,2-0.6,4.2-0.7,6.2c3.9-0.4,8.1,0.5,12.1,0.6c6.2,0.4,12.4,1.4,18.6,2.5c-0.4-2.9-1.2-6-0.6-8.9
											c1.4,0.2,2.9-1.1,3.2-2.5C718.8,365.8,717.4,363.3,716.1,362.8z"/>
										<path class="st2" d="M716.1,362.8c-5.2-2.2-14.9-2.5-28.6-0.4c-1.5,0.2-2.7,1.7-3.2,3.1c-0.5,1.5,0.2,3.5,1.7,3.6
											c-0.1,2-0.6,4.2-0.7,6.2c3.9-0.4,8.1,0.5,12.1,0.6c6.2,0.4,12.4,1.4,18.6,2.5c-0.4-2.9-1.2-6-0.6-8.9
											c1.4,0.2,2.9-1.1,3.2-2.5C718.8,365.8,717.4,363.3,716.1,362.8z"/>
									</g>
								</g>
								<path class="st5" d="M650.9,513.9c0,0-4.9-65.4-4.6-112.7c0.2-34.8,25.2-28.6,57.5-28.4c25.5,0.1,34.2,2.4,37.7,16.2
									c3.5,13.9-13.7,125.3-13.7,125.3L650.9,513.9z"/>
								<path class="st13" d="M650.9,513.9c0,0-4.9-65.4-4.6-112.7c0.2-34.8,25.2-28.6,57.5-28.4c25.5,0.1,34.2,2.4,37.7,16.2
									c3.5,13.9-13.7,125.3-13.7,125.3L650.9,513.9z"/>
								<path class="st16" d="M603.6,421.5c-1.7,0.1-4,0.6-5.9,2.2c-1.9,1.5-4.9,4.5-6.1,8.1l0,0c-2.1-3.6-5-6.6-8.5-8.9l-0.2-0.1
									c1.1-15.5,13.9-14.2,13.9-14.2l0.4,0.7C598.9,413.7,601.1,417.7,603.6,421.5z"/>
								<path class="st17" d="M603.6,421.5c-1.7,0.1-4,0.6-5.9,2.2c-1.9,1.5-4.9,4.5-6.1,8.1l0,0c-2.1-3.6-5-6.6-8.5-8.9l-0.2-0.1
									c1.1-15.5,13.9-14.2,13.9-14.2l0.4,0.7C598.9,413.7,601.1,417.7,603.6,421.5z"/>
								<g>
									<g>
										<path class="st2" d="M637.5,476.6c-23.5-0.5-45.8-39.2-45.8-39.2c-0.5-1.9-0.4-3.7,0.1-5.4c1.1-3.6,4.2-6.6,6.1-8.1
											c2-1.6,4.1-2.2,5.9-2.2c2.5-0.1,4.2,0.6,4.2,0.6s17.2,21.4,21.5,19.4c4.1-1.9,5.9-9,7.4-17.9
											c8.2-47.2,17.2-48.6,25.1-48.8C678.5,374.4,658.2,476.9,637.5,476.6z"/>
									</g>
								</g>
								<g class="st20">
									<g>
										<path class="st14" d="M637.5,476.6c-23.5-0.5-45.8-39.2-45.8-39.2c-0.5-1.9-0.4-3.7,0.1-5.4c1.1-3.6,4.2-6.6,6.1-8.1
											c2-1.6,4.1-2.2,5.9-2.2c2.5-0.1,4.2,0.6,4.2,0.6s17.2,21.4,21.5,19.4c4.1-1.9,5.9-9,7.4-17.9
											c8.2-47.2,17.2-48.6,25.1-48.8C678.5,374.4,658.2,476.9,637.5,476.6z"/>
									</g>
								</g>
							</g>
							<g>
								<path class="st25" d="M727.7,514.3c0,0,2,20,1.7,27c-1.5,37.2-36.7,50.3-64.8,45.2l-99.8-10.9c-4,13.5-51.1,87.9-51.1,87.9
									L489,649.3c0,0,25.6-61.5,42.2-104.2c9.5-24.4,84.4-25.1,112.7-20.1c8.6,2.4,7-11.1,7-11.1L727.7,514.3z"/>
								<polygon class="st23" points="507.5,664.9 498,680.7 480.5,671.9 489.6,653.9 								"/>
								<g>
									<path class="st2" d="M471.1,668.7c-2.4-1.1-4.5-2.6-4.9-4c-0.1-0.7,0.2-1.5,0.9-1.9c0.5-0.4,1.2-0.5,1.9-0.4
										c3.5,0.6,8.4,7.2,8.5,7.6c0.1,0.1,0.1,0.4,0,0.5s-0.4,0.2-0.5,0.2C475,670.2,473,669.5,471.1,668.7z M469.8,663.7
										c-0.2-0.1-0.6-0.2-0.9-0.2c-0.4-0.1-0.9,0-1.1,0.2c-0.6,0.4-0.6,0.7-0.5,0.9c0.2,1.6,5,3.7,8.7,5
										C474.2,667.2,472.1,665.2,469.8,663.7z"/>
									<path class="st2" d="M477,670.7c-0.1,0-0.1,0-0.1-0.1c-1.7-2-4.4-8.1-3-10c0.2-0.5,1-0.9,2.2-0.5c0.9,0.4,1.7,1,2.1,1.9
										c1.5,3-0.4,8.4-0.4,8.6c0,0.1-0.2,0.2-0.4,0.2C477.1,670.8,477,670.8,477,670.7z M475.9,661l-0.2-0.1c-0.9-0.2-1,0-1.1,0.1
										c-0.7,1.2,0.7,5.7,2.5,8.1c0.7-2.2,0.7-4.6,0.1-6.9C476.9,661.8,476.4,661.3,475.9,661L475.9,661z"/>
									<path class="st24" d="M480.1,669l20.4,9.4c0.7,0.4,1.2,1.2,1,2l-3.9,18.2c-0.4,1.6-1.9,2.6-3.5,2.4c-0.2,0-0.4-0.1-0.6-0.2
										c-7.2-3.5-13.6-6.9-22.9-11.1c-10.7-5-8.6-2.4-21.5-8c-7.7-3.4-5.1-12.7-1.6-11.7c15.7,4.9,19.2,1.1,27.5-1.5
										C476.7,668,478.6,668.2,480.1,669z"/>
								</g>
								<polygon class="st17" points="502.7,672.9 507.5,664.9 489.6,653.9 485.1,662.7 								"/>
								<path class="st2" d="M517.7,664.8l-30.6-19.1c0,0-4.9,2.7-3.9,8l29.5,18.7C512.6,672.5,516.6,672.3,517.7,664.8z"/>
							</g>
						</g>
					</g>
					<g>
						<g>
							<path class="st4" d="M690.9,592.2h50.8c19.6,0,35.8-15.1,37.5-34.6l7.2-91.3c1.1-14.7-10.5-27.5-25.4-27.5h-28
								c-32.7,0-61.6,21.5-70.9,52.8l-19.5,65.2c-3.2,10.9-13.4,18.4-24.7,18.4h-35.5c-9.2,0-16.9,7.5-16.9,16.9H661L690.9,592.2
								L690.9,592.2z"/>
						</g>
						<g>
							<g>
								<path class="st2" d="M668.1,592.2c1.4,21.7,5.1,100.8-0.5,118.2c-4.9,15.4-27.5,19-40.7,27.1c-2.2,1.4-1.5,5.7,1,5.7h103.7
									c2.5,0,3.2-4.4,1-5.7c-13.2-8.1-35.8-11.7-40.7-27.1c-5.6-17.4-1.9-96.5-0.5-118.2H668.1z"/>
							</g>
							<path class="st17" d="M669.1,608.6h21.4c0.4-6.6,0.7-12.4,1-16.4h-23.2C668.3,596.2,668.7,602,669.1,608.6z"/>
						</g>
						<g>
							<path class="st29" d="M690.9,592.2h50.8c19.6,0,35.8-15.1,37.5-34.6l7.2-91.3c1.1-14.7-10.5-27.5-25.4-27.5h-28
								c-32.7,0-61.6,21.5-70.9,52.8l-19.5,65.2c-3.2,10.9-13.4,18.4-24.7,18.4h-35.5c-9.2,0-16.9,7.5-16.9,16.9H661L690.9,592.2
								L690.9,592.2z"/>
						</g>
					</g>
				</g>
			</g>
		</g>
	</g>
</g>
<g id="Layer_2_00000003062825052762816570000002047704146302345090_">
</g>
</svg>
